<svg width="64" height="64" viewBox="0 0 64 64" fill="none" xmlns="http://www.w3.org/2000/svg">
<rect width="64" height="64" rx="16" fill="#445AFF"/>
<path fill-rule="evenodd" clip-rule="evenodd" d="M43.6667 24.2683C43.6667 23.2384 42.7419 22.455 41.726 22.6243L27 25.0787V35.5882L41.726 38.0426C42.7419 38.2119 43.6667 37.4285 43.6667 36.3986V24.2683ZM41.178 19.3364L25.1954 22.0001H20.3333C18.4924 22.0001 17 23.4925 17 25.3335V35.3335C17 37.1744 18.4924 38.6668 20.3333 38.6668V40.3335C20.3333 43.0949 22.5719 45.3335 25.3333 45.3335H27C29.7614 45.3335 32 43.0949 32 40.3335V39.8009L41.178 41.3306C44.2257 41.8385 47 39.4883 47 36.3986V24.2683C47 21.1786 44.2257 18.8284 41.178 19.3364ZM28.6667 39.2453L25.1954 38.6668H23.6667V40.3335C23.6667 41.2539 24.4129 42.0001 25.3333 42.0001H27C27.9205 42.0001 28.6667 41.2539 28.6667 40.3335V39.2453ZM20.3333 25.3335H23.6667V35.3335H20.3333V25.3335Z" fill="white"/>
</svg>
