<svg width="64" height="64" viewBox="0 0 64 64" fill="none" xmlns="http://www.w3.org/2000/svg">
<rect width="64" height="64" rx="16" fill="#445AFF"/>
<path fill-rule="evenodd" clip-rule="evenodd" d="M33 20.3333H31C29.0781 20.3333 27.8372 20.3359 26.8928 20.4131C25.9872 20.4871 25.6515 20.6127 25.4867 20.6966C24.8595 21.0162 24.3495 21.5262 24.03 22.1534C23.946 22.3182 23.8204 22.6539 23.7464 23.5595C23.6692 24.5039 23.6666 25.7448 23.6666 27.6667V36.3333C23.6666 38.2552 23.6692 39.4961 23.7464 40.4405C23.8204 41.3461 23.946 41.6818 24.03 41.8466C24.3495 42.4738 24.8595 42.9838 25.4867 43.3034C25.6515 43.3873 25.9872 43.5129 26.8928 43.5869C27.8372 43.6641 29.0781 43.6667 31 43.6667H33C34.9218 43.6667 36.1627 43.6641 37.1072 43.5869C38.0127 43.5129 38.3485 43.3873 38.5133 43.3034C39.1405 42.9838 39.6504 42.4738 39.97 41.8466C40.054 41.6818 40.1796 41.3461 40.2536 40.4405C40.3307 39.4961 40.3333 38.2552 40.3333 36.3333V27.6667C40.3333 25.7448 40.3307 24.5039 40.2536 23.5595C40.1796 22.6539 40.054 22.3182 39.97 22.1534C39.6504 21.5262 39.1405 21.0162 38.5133 20.6966C38.3485 20.6127 38.0127 20.4871 37.1072 20.4131C36.1627 20.3359 34.9218 20.3333 33 20.3333ZM21.0599 20.6401C20.3333 22.0661 20.3333 23.933 20.3333 27.6667V36.3333C20.3333 40.067 20.3333 41.9339 21.0599 43.3599C21.6991 44.6144 22.719 45.6342 23.9734 46.2734C25.3995 47 27.2663 47 31 47H33C36.7337 47 38.6005 47 40.0266 46.2734C41.281 45.6342 42.3009 44.6144 42.94 43.3599C43.6666 41.9339 43.6666 40.067 43.6666 36.3333V27.6667C43.6666 23.933 43.6666 22.0661 42.94 20.6401C42.3009 19.3856 41.281 18.3658 40.0266 17.7266C38.6005 17 36.7337 17 33 17H31C27.2663 17 25.3995 17 23.9734 17.7266C22.719 18.3658 21.6991 19.3856 21.0599 20.6401Z" fill="white"/>
<path d="M27 25.3333C27 24.4129 27.7462 23.6667 28.6666 23.6667H35.3333C36.2538 23.6667 37 24.4129 37 25.3333C37 26.2538 36.2538 27 35.3333 27H28.6666C27.7462 27 27 26.2538 27 25.3333Z" fill="white"/>
<path d="M27 30.3333C27 29.4129 27.7462 28.6667 28.6666 28.6667H35.3333C36.2538 28.6667 37 29.4129 37 30.3333C37 31.2538 36.2538 32 35.3333 32H28.6666C27.7462 32 27 31.2538 27 30.3333Z" fill="white"/>
<path d="M27 35.3333C27 34.4129 27.7462 33.6667 28.6666 33.6667H32C32.9205 33.6667 33.6666 34.4129 33.6666 35.3333C33.6666 36.2538 32.9205 37 32 37H28.6666C27.7462 37 27 36.2538 27 35.3333Z" fill="white"/>
</svg>
