<svg width="64" height="64" viewBox="0 0 64 64" fill="none" xmlns="http://www.w3.org/2000/svg">
<rect width="64" height="64" rx="16" fill="#445AFF"/>
<path fill-rule="evenodd" clip-rule="evenodd" d="M38.6667 40.3333V43.6667H25.3333L19.5242 47.1522C18.4133 47.8187 17 47.0185 17 45.723V25.3333H20.3333V42.7794L24.4101 40.3333H38.6667ZM23.6667 30.75C23.6667 29.5994 24.5994 28.6667 25.75 28.6667C26.9006 28.6667 27.8333 29.5994 27.8333 30.75C27.8333 31.9006 26.9006 32.8333 25.75 32.8333C24.5994 32.8333 23.6667 31.9006 23.6667 30.75ZM29.9167 30.75C29.9167 29.5994 30.8494 28.6667 32 28.6667C33.1506 28.6667 34.0833 29.5994 34.0833 30.75C34.0833 31.9006 33.1506 32.8333 32 32.8333C30.8494 32.8333 29.9167 31.9006 29.9167 30.75ZM38.25 28.6667C37.0994 28.6667 36.1667 29.5994 36.1667 30.75C36.1667 31.9006 37.0994 32.8333 38.25 32.8333C39.4006 32.8333 40.3333 31.9006 40.3333 30.75C40.3333 29.5994 39.4006 28.6667 38.25 28.6667Z" fill="white"/>
<path fill-rule="evenodd" clip-rule="evenodd" d="M29.262 17H34.738C36.5443 17 38.0012 17 39.181 17.0964C40.3958 17.1956 41.4628 17.4053 42.4499 17.9083C44.0179 18.7072 45.2928 19.9821 46.0917 21.5501C46.5947 22.5372 46.8044 23.6042 46.9036 24.819C47 25.9988 47 27.4557 47 29.2619V31.4047C47 33.211 47 34.6679 46.9036 35.8477C46.8044 37.0625 46.5947 38.1294 46.0917 39.1166C45.2928 40.6846 44.0179 41.9594 42.4499 42.7584C41.4628 43.2614 40.3958 43.4711 39.181 43.5703C38.0012 43.6667 36.5443 43.6667 34.738 43.6667H32V40.3333H34.6667C36.561 40.3333 37.8815 40.332 38.9096 40.248C39.9182 40.1656 40.4977 40.012 40.9366 39.7884C41.8774 39.309 42.6423 38.5441 43.1217 37.6033C43.3453 37.1644 43.499 36.5849 43.5814 35.5763C43.6654 34.5482 43.6667 33.2277 43.6667 31.3333V29.3333C43.6667 27.439 43.6654 26.1185 43.5814 25.0904C43.499 24.0818 43.3453 23.5023 43.1217 23.0634C42.6423 22.1226 41.8774 21.3577 40.9366 20.8783C40.4977 20.6547 39.9182 20.501 38.9096 20.4186C37.8815 20.3346 36.561 20.3333 34.6667 20.3333H29.3333C27.439 20.3333 26.1185 20.3346 25.0904 20.4186C24.0818 20.501 23.5023 20.6547 23.0634 20.8783C22.1226 21.3577 21.3577 22.1226 20.8783 23.0634C20.6547 23.5023 20.501 24.0818 20.4186 25.0904C20.3346 26.1185 20.3333 27.439 20.3333 29.3333V30.3333H17L17 29.262C17 27.4557 17 25.9988 17.0964 24.819C17.1956 23.6042 17.4053 22.5372 17.9083 21.5501C18.7072 19.9821 19.9821 18.7072 21.5501 17.9083C22.5372 17.4053 23.6042 17.1956 24.819 17.0964C25.9988 17 27.4557 17 29.262 17Z" fill="white"/>
</svg>
