<svg width="64" height="64" viewBox="0 0 64 64" fill="none" xmlns="http://www.w3.org/2000/svg">
<rect width="64" height="64" rx="16" fill="#445AFF"/>
<path fill-rule="evenodd" clip-rule="evenodd" d="M28.6667 16.9999C28.6667 16.0794 27.9205 15.3333 27 15.3333C26.0795 15.3333 25.3333 16.0794 25.3333 16.9999C20.731 16.9999 17 20.7309 17 25.3333V38.6666C17 43.269 20.731 46.9999 25.3333 46.9999H38.6667C43.269 46.9999 47 43.269 47 38.6666V25.3333C47 20.7309 43.269 16.9999 38.6667 16.9999C38.6667 16.0794 37.9205 15.3333 37 15.3333C36.0795 15.3333 35.3333 16.0794 35.3333 16.9999L28.6667 16.9999ZM35.3333 21.9999V20.3333H28.6667V21.9999C28.6667 22.9204 27.9205 23.6666 27 23.6666C26.0795 23.6666 25.3333 22.9204 25.3333 21.9999V20.3333C22.5719 20.3333 20.3333 22.5718 20.3333 25.3333V26.9999H43.6667V25.3333C43.6667 22.5718 41.4281 20.3333 38.6667 20.3333V21.9999C38.6667 22.9204 37.9205 23.6666 37 23.6666C36.0795 23.6666 35.3333 22.9204 35.3333 21.9999ZM43.6667 30.3333H20.3333V38.6666C20.3333 41.428 22.5719 43.6666 25.3333 43.6666H38.6667C41.4281 43.6666 43.6667 41.428 43.6667 38.6666V30.3333Z" fill="white"/>
</svg>
