<svg width="64" height="64" viewBox="0 0 64 64" fill="none" xmlns="http://www.w3.org/2000/svg">
<rect width="64" height="64" rx="16" fill="#445AFF"/>
<path d="M33.2363 15.3348C35.2969 15.4001 36.637 16.5549 37.3435 18.7318L37.4554 19.1041L37.542 19.4374C37.5735 19.5658 37.6127 19.7024 37.6587 19.8444L37.7565 20.1213L37.8145 20.1508L37.9322 20.1112L38.1602 20.0223L38.4261 19.9044C40.8382 18.7606 42.6937 18.9729 44.2046 20.6641L44.4181 20.9158L45.8174 22.6822C47.0644 24.3544 47.0266 26.1419 45.8103 28.0711L45.5966 28.394L45.3968 28.6722C45.317 28.7802 45.2357 28.9 45.1548 29.0286L45.0338 29.2279L44.9765 29.3277L44.9834 29.3624L45.1397 29.4675L45.3556 29.6003L45.6173 29.7451C47.9872 30.977 48.9653 32.5969 48.588 34.8473L48.5248 35.1731L48.1084 37.012C47.8386 38.202 47.6268 38.7654 46.7934 39.5385C45.9837 40.2894 45.0599 40.5994 43.8392 40.7022L43.4639 40.7271L43.1256 40.7381C42.9943 40.7405 42.8533 40.7488 42.7056 40.7627L42.397 40.8L42.4194 41.0475L42.4422 41.2139L42.4972 41.5245C43.0488 44.1757 42.4283 45.9694 40.4706 47.0885L40.1818 47.2438L38.1773 48.2352C36.297 49.0965 34.5956 48.657 33.0237 47.0158L32.7629 46.7312L32.5416 46.4703C32.4554 46.3657 32.358 46.257 32.252 46.1466L32.0866 45.9801L32.0019 45.9002L31.8455 46.0518L31.6664 46.2395L31.4656 46.4703C29.8407 48.4402 28.1256 49.1474 26.0468 48.3239L25.7473 48.1958L23.9535 47.3078L23.4207 47.0301C22.6085 46.5783 22.1527 46.1457 21.7073 45.1877C21.2384 44.1792 21.2069 43.1886 21.4342 41.9153L21.51 41.5245C21.5372 41.394 21.5609 41.2526 21.5807 41.1032L21.612 40.8052L21.6052 40.7983L21.4283 40.7742L21.1784 40.7513L20.8817 40.7381C18.2214 40.689 16.6451 39.6698 16.0149 37.4751L15.9313 37.1536L15.4339 34.9412C15.0328 32.8813 15.8361 31.2917 17.7597 30.1008L18.0906 29.906L18.39 29.7451C18.5073 29.6841 18.631 29.6134 18.7581 29.5346L19.0222 29.3589L19.029 29.3259L18.9223 29.1385L18.7844 28.9209L18.6104 28.6722C17.0105 26.5069 16.8286 24.6141 18.1386 22.7572L18.3359 22.4921L19.7413 20.7307C21.0879 19.1407 22.8123 18.8067 24.9179 19.6175L25.2724 19.7632L25.5812 19.9044C25.6974 19.9595 25.8245 20.0137 25.9597 20.066L26.1911 20.1491L26.2525 20.1195L26.3099 19.9655L26.3868 19.7258L26.4653 19.4374C27.078 16.9412 28.3151 15.5398 30.5417 15.3518L30.8665 15.3333L33.2363 15.3348ZM33.1407 18.4611H30.8665L30.6287 18.4789C30.1407 18.5436 29.8219 18.8119 29.5152 19.9241L29.4445 20.196L29.3482 20.5536C29.1691 21.1661 28.8984 21.8555 28.5499 22.5247C27.8597 22.7766 27.2038 23.1019 26.5924 23.4945C25.8729 23.346 25.1869 23.1281 24.6144 22.8871L24.0172 22.6178C23.5926 22.4326 23.2745 22.3381 23.0225 22.3151L22.8788 22.3097C22.5758 22.3161 22.3757 22.4429 22.1824 22.6444L22.0665 22.7739L20.7202 24.4633L20.5586 24.6812C20.2457 25.1405 20.1989 25.5501 20.8911 26.5499L21.2804 27.0987C21.6419 27.6369 22.0044 28.3003 22.3004 29.0127C22.0796 29.6804 21.9234 30.3784 21.8397 31.1004C21.2701 31.6026 20.6631 32.0329 20.1103 32.3528L19.5264 32.671C18.474 33.2606 18.3398 33.6496 18.4233 34.2021L18.4461 34.3327L18.9243 36.4534L18.9934 36.7172C19.1561 37.2512 19.4442 37.5409 20.6438 37.6009L21.3047 37.6261C21.9375 37.6667 22.666 37.7822 23.3913 37.9804C23.7748 38.5869 24.2183 39.1502 24.7155 39.6614C24.7438 40.5766 24.6608 41.4686 24.5142 42.1729C24.1711 43.8221 24.4905 44.0878 25.1685 44.4309L27.0897 45.3826C27.2932 45.4758 27.4752 45.5386 27.6642 45.5363L27.7788 45.5265C28.0877 45.4785 28.4296 45.2454 28.9223 44.6843L29.3622 44.1718C29.8001 43.6874 30.3595 43.1736 30.9804 42.7174L31.4887 42.7559L32.0036 42.7688L32.5186 42.7557L33.0272 42.716C33.6478 43.1734 34.2072 43.6874 34.6451 44.1718L35.0849 44.6843C35.6393 45.3155 36.0027 45.5317 36.343 45.5363L36.4558 45.5301C36.5558 45.5182 36.6553 45.4898 36.7588 45.45L36.9176 45.3826L38.8388 44.4309L39.0756 44.303C39.5862 43.9998 39.7932 43.616 39.493 42.1729C39.3465 41.4686 39.2634 40.5766 39.2939 39.6617C39.7889 39.1502 40.2324 38.5869 40.6164 37.9775C41.3422 37.7816 42.0704 37.6665 42.7028 37.6261L43.3634 37.6009C44.7477 37.5316 44.9182 37.1566 45.0829 36.4534L45.5325 34.4701C45.6871 33.7645 45.6952 33.3513 44.4809 32.671L43.8969 32.3528C43.3441 32.0328 42.7371 31.6023 42.168 31.099C42.0839 30.3784 41.9276 29.6804 41.706 29.0112C42.0027 28.3001 42.3653 27.6369 42.7269 27.0987L43.1162 26.5499C43.8083 25.5501 43.7615 25.1405 43.4486 24.6812L43.3719 24.574L42.0294 22.8814C41.789 22.5836 41.5873 22.3704 41.2582 22.3206L41.1284 22.3097C40.8557 22.3039 40.4996 22.3955 39.99 22.6178L39.3931 22.887C38.821 23.1278 38.1356 23.3452 37.4168 23.4918C36.803 23.1015 36.1457 22.7757 35.454 22.5263C35.1221 21.8825 34.8598 21.2213 34.681 20.6274L34.4874 19.907C34.1601 18.7299 33.8181 18.5092 33.2708 18.4678L33.1407 18.4611ZM32.0036 25.7393C35.5841 25.7393 38.4867 28.6957 38.4867 32.3426C38.4867 35.9895 35.5841 38.9459 32.0036 38.9459C28.4231 38.9459 25.5206 35.9895 25.5206 32.3426C25.5206 28.6957 28.4231 25.7393 32.0036 25.7393ZM32.0036 28.8672C30.1192 28.8672 28.5915 30.4232 28.5915 32.3426C28.5915 34.262 30.1192 35.818 32.0036 35.818C33.8881 35.818 35.4158 34.262 35.4158 32.3426C35.4158 30.4232 33.8881 28.8672 32.0036 28.8672Z" fill="white"/>
</svg>
