<svg width="64" height="64" viewBox="0 0 64 64" fill="none" xmlns="http://www.w3.org/2000/svg">
<rect width="64" height="64" rx="16" fill="#445AFF"/>
<path fill-rule="evenodd" clip-rule="evenodd" d="M21.3205 17.1448C21.9211 16.8767 22.6231 16.9868 23.1127 17.4259C23.3151 17.6074 23.8607 17.9676 24.6658 18.2825C25.4498 18.5891 26.3697 18.8085 27.2941 18.8085C28.45 18.8085 29.0413 18.7684 29.4732 18.6967C29.8897 18.6275 30.2058 18.5231 30.873 18.2952C31.591 18.0499 33.0235 17.7306 34.4257 17.4785C35.8266 17.2266 37.4259 17 38.4706 17H40.2353C40.8045 17 41.6146 17.161 42.3278 17.6873C43.1237 18.2745 43.6667 19.2256 43.6667 20.4752V34.3405C43.6667 34.9981 43.2799 35.5942 42.6794 35.8623C42.0789 36.1304 41.3769 36.0203 40.8873 35.5813C40.8909 35.5845 40.8678 35.5636 40.8027 35.5256C40.7392 35.4884 40.6496 35.4431 40.53 35.3931C40.2884 35.2921 39.9661 35.1895 39.5688 35.0984C38.7734 34.9161 37.7721 34.8014 36.7059 34.8014C35.5259 34.8014 34.9847 34.8289 34.5786 34.8937C34.1925 34.9552 33.8874 35.0551 33.127 35.3148C32.409 35.5601 30.9765 35.8794 29.5743 36.1315C28.1734 36.3834 26.5741 36.61 25.5294 36.61H23.7647C23.7328 36.61 23.7001 36.6095 23.6667 36.6084V47C23.6667 47.9205 22.9205 48.6667 22 48.6667C21.0795 48.6667 20.3333 47.9205 20.3333 47V18.6667C20.3333 18.0091 20.72 17.4129 21.3205 17.1448ZM23.6758 33.253C23.6717 33.2309 23.6667 33.1926 23.6667 33.1348V21.4684C24.7055 21.8509 25.959 22.1419 27.2941 22.1419C28.4912 22.1419 29.3067 22.1033 30.0192 21.985C30.7282 21.8673 31.2838 21.6774 31.9005 21.4667C31.9171 21.461 31.9338 21.4553 31.9505 21.4496C32.409 21.293 33.6236 21.0095 35.0155 20.7592C36.4087 20.5087 37.7506 20.3334 38.4706 20.3334H40.2308C40.2326 20.3335 40.2367 20.3339 40.2429 20.3348C40.2562 20.3367 40.273 20.3401 40.2908 20.3453C40.3036 20.3491 40.3148 20.3531 40.3241 20.357C40.3283 20.3791 40.3333 20.4173 40.3333 20.4752V31.8539C40.3267 31.8524 40.3202 31.8509 40.3136 31.8493C39.2462 31.6047 37.9926 31.4681 36.7059 31.4681C35.5329 31.4681 34.7506 31.4909 34.0538 31.6019C33.3598 31.7126 32.7966 31.9051 32.117 32.1374C32.0946 32.145 32.0721 32.1527 32.0495 32.1604C31.591 32.317 30.3764 32.6005 28.9845 32.8508C27.5913 33.1013 26.2494 33.2766 25.5294 33.2766H23.7692C23.7673 33.2765 23.7632 33.2761 23.7571 33.2752C23.7438 33.2733 23.727 33.2699 23.7092 33.2647C23.6964 33.2609 23.6852 33.2569 23.6758 33.253Z" fill="white"/>
</svg>
