<svg width="64" height="64" viewBox="0 0 64 64" fill="none" xmlns="http://www.w3.org/2000/svg">
<rect width="64" height="64" rx="16" fill="#445AFF"/>
<path fill-rule="evenodd" clip-rule="evenodd" d="M33.6667 23.6666H23.6667C21.8257 23.6666 20.3333 25.159 20.3333 26.9999V36.9999C20.3333 38.8409 21.8257 40.3333 23.6667 40.3333H33.6667C35.5076 40.3333 37 38.8409 37 36.9999V26.9999C37 25.159 35.5076 23.6666 33.6667 23.6666ZM23.6667 20.3333C19.9848 20.3333 17 23.318 17 26.9999V36.9999C17 40.6818 19.9848 43.6666 23.6667 43.6666H33.6667C37.3486 43.6666 40.3333 40.6818 40.3333 36.9999V26.9999C40.3333 23.318 37.3486 20.3333 33.6667 20.3333H23.6667Z" fill="white"/>
<path fill-rule="evenodd" clip-rule="evenodd" d="M38.6667 29.5873L43.6667 26.4055V37.5943L38.6667 34.4125V38.3636L41.8771 40.4066C44.0962 41.8187 47 40.2246 47 37.5943V26.4055C47 23.7752 44.0962 22.1812 41.8771 23.5933L38.6667 25.6363V29.5873Z" fill="white"/>
<path d="M23.6667 28.6666C23.6667 27.7461 24.4129 26.9999 25.3333 26.9999H28.6667C29.5871 26.9999 30.3333 27.7461 30.3333 28.6666C30.3333 29.5871 29.5871 30.3333 28.6667 30.3333H25.3333C24.4129 30.3333 23.6667 29.5871 23.6667 28.6666Z" fill="white"/>
</svg>
