<svg width="216" height="64" viewBox="0 0 216 64" fill="none" xmlns="http://www.w3.org/2000/svg">
<path d="M95.3636 27.8068L92.2841 28.3522C92.1553 27.9583 91.9507 27.5833 91.6704 27.2272C91.3977 26.8712 91.0265 26.5795 90.5568 26.3522C90.0871 26.125 89.5 26.0113 88.7954 26.0113C87.8333 26.0113 87.0303 26.2272 86.3864 26.659C85.7424 27.0833 85.4204 27.6325 85.4204 28.3068C85.4204 28.8901 85.6364 29.3598 86.0682 29.7159C86.5 30.0719 87.197 30.3636 88.1591 30.5909L90.9318 31.2272C92.5379 31.5984 93.7348 32.1704 94.5227 32.9431C95.3106 33.7159 95.7045 34.7197 95.7045 35.9545C95.7045 37 95.4015 37.9318 94.7954 38.75C94.197 39.5606 93.3598 40.1969 92.2841 40.659C91.2159 41.1212 89.9773 41.3522 88.5682 41.3522C86.6136 41.3522 85.0189 40.9356 83.7841 40.1022C82.5492 39.2613 81.7917 38.0681 81.5114 36.5227L84.7954 36.0227C85 36.8787 85.4204 37.5265 86.0568 37.9659C86.6932 38.3977 87.5227 38.6136 88.5454 38.6136C89.6591 38.6136 90.5492 38.3825 91.2159 37.9204C91.8826 37.4507 92.2159 36.8787 92.2159 36.2045C92.2159 35.659 92.0114 35.2007 91.6023 34.8295C91.2007 34.4583 90.5833 34.178 89.75 33.9886L86.7954 33.3409C85.1667 32.9697 83.9621 32.3787 83.1818 31.5681C82.4091 30.7575 82.0227 29.731 82.0227 28.4886C82.0227 27.4583 82.3106 26.5568 82.8864 25.784C83.4621 25.0113 84.2576 24.409 85.2727 23.9772C86.2879 23.5378 87.4507 23.3181 88.7614 23.3181C90.6477 23.3181 92.1326 23.7272 93.2159 24.5454C94.2992 25.356 95.0151 26.4431 95.3636 27.8068Z" fill="white"/>
<path d="M106.793 41.3522C105.156 41.3522 103.728 40.9772 102.509 40.2272C101.289 39.4772 100.342 38.428 99.6676 37.0795C98.9934 35.731 98.6562 34.1553 98.6562 32.3522C98.6562 30.5416 98.9934 28.9583 99.6676 27.6022C100.342 26.2462 101.289 25.1931 102.509 24.4431C103.728 23.6931 105.156 23.3181 106.793 23.3181C108.429 23.3181 109.857 23.6931 111.077 24.4431C112.296 25.1931 113.243 26.2462 113.918 27.6022C114.592 28.9583 114.929 30.5416 114.929 32.3522C114.929 34.1553 114.592 35.731 113.918 37.0795C113.243 38.428 112.296 39.4772 111.077 40.2272C109.857 40.9772 108.429 41.3522 106.793 41.3522ZM106.804 38.5C107.865 38.5 108.743 38.2197 109.44 37.659C110.137 37.0984 110.652 36.3522 110.986 35.4204C111.327 34.4886 111.497 33.4621 111.497 32.3409C111.497 31.2272 111.327 30.2045 110.986 29.2727C110.652 28.3333 110.137 27.5795 109.44 27.0113C108.743 26.4431 107.865 26.159 106.804 26.159C105.736 26.159 104.849 26.4431 104.145 27.0113C103.448 27.5795 102.929 28.3333 102.588 29.2727C102.255 30.2045 102.088 31.2272 102.088 32.3409C102.088 33.4621 102.255 34.4886 102.588 35.4204C102.929 36.3522 103.448 37.0984 104.145 37.659C104.849 38.2197 105.736 38.5 106.804 38.5Z" fill="white"/>
<path d="M133.06 23.5454L126.73 41H123.094L116.753 23.5454H120.401L124.821 36.9772H125.003L129.412 23.5454H133.06Z" fill="white"/>
<path d="M139.651 17.7272V41H136.253V17.7272H139.651Z" fill="white"/>
<path d="M144.222 41V23.5454H147.619V41H144.222ZM145.937 20.8522C145.347 20.8522 144.839 20.6553 144.415 20.2613C143.998 19.8598 143.79 19.3825 143.79 18.8295C143.79 18.2689 143.998 17.7916 144.415 17.3977C144.839 16.9962 145.347 16.7954 145.937 16.7954C146.528 16.7954 147.032 16.9962 147.449 17.3977C147.873 17.7916 148.085 18.2689 148.085 18.8295C148.085 19.3825 147.873 19.8598 147.449 20.2613C147.032 20.6553 146.528 20.8522 145.937 20.8522Z" fill="white"/>
<path d="M163.247 33.7613V23.5454H166.656V41H163.315V37.9772H163.134C162.732 38.909 162.088 39.6856 161.202 40.3068C160.323 40.9204 159.228 41.2272 157.918 41.2272C156.796 41.2272 155.804 40.981 154.94 40.4886C154.084 39.9886 153.41 39.25 152.918 38.2727C152.433 37.2954 152.19 36.0871 152.19 34.6477V23.5454H155.588V34.2386C155.588 35.428 155.918 36.375 156.577 37.0795C157.236 37.784 158.092 38.1363 159.145 38.1363C159.781 38.1363 160.414 37.9772 161.043 37.659C161.679 37.3409 162.205 36.8598 162.622 36.2159C163.046 35.5719 163.255 34.7537 163.247 33.7613Z" fill="white"/>
<path d="M171.222 41V23.5454H174.483V26.3863H174.699C175.062 25.4242 175.657 24.6742 176.483 24.1363C177.309 23.5909 178.297 23.3181 179.449 23.3181C180.616 23.3181 181.593 23.5909 182.381 24.1363C183.176 24.6818 183.763 25.4318 184.142 26.3863H184.324C184.741 25.4545 185.403 24.7121 186.312 24.159C187.222 23.5984 188.305 23.3181 189.562 23.3181C191.146 23.3181 192.437 23.8144 193.437 24.8068C194.445 25.7992 194.949 27.2954 194.949 29.2954V41H191.551V29.6136C191.551 28.4318 191.229 27.5757 190.585 27.0454C189.941 26.5151 189.172 26.25 188.278 26.25C187.172 26.25 186.312 26.5909 185.699 27.2727C185.085 27.9469 184.778 28.8144 184.778 29.875V41H181.392V29.3977C181.392 28.4507 181.097 27.6893 180.506 27.1136C179.915 26.5378 179.146 26.25 178.199 26.25C177.555 26.25 176.96 26.4204 176.415 26.7613C175.877 27.0947 175.441 27.5606 175.108 28.159C174.782 28.7575 174.619 29.4507 174.619 30.2386V41H171.222Z" fill="white"/>
<g clip-path="url(#clip0_7950_5694)">
<rect width="64" height="64" rx="16" fill="white"/>
<path d="M0 16C0 7.16344 7.16344 0 16 0H48C56.8366 0 64 7.16344 64 16V48C64 56.8366 56.8366 64 48 64H16C7.16344 64 0 56.8366 0 48V16Z" fill="#4554C9"/>
<path d="M24.384 33.4048C24.527 32.8716 25.0754 32.5552 25.6086 32.6978L40.0979 36.5806L40.1955 36.6118C40.6692 36.7919 40.9389 37.3051 40.8049 37.8052C40.6707 38.3048 40.1809 38.6145 39.6809 38.5337L39.5803 38.5122L36.6819 37.7349L29.6448 63.9995H27.5744L34.7502 37.2183L29.9201 35.9234L22.3987 63.9995H20.3274L27.9885 35.4058L25.091 34.6294C24.558 34.4863 24.2414 33.938 24.384 33.4048ZM39.053 48.2056C39.196 47.6723 39.7452 47.3556 40.2785 47.4986C40.8118 47.6416 41.1285 48.1908 40.9856 48.7241L36.8918 63.9995H34.8215L39.053 48.2056ZM18.2864 42.6411C18.4294 42.1079 18.9776 41.7912 19.511 41.9341C20.0442 42.0771 20.3607 42.6254 20.218 43.1587L14.7824 63.4439C14.7302 63.6383 14.6233 63.8032 14.4836 63.9282C13.9713 63.8801 13.4661 63.8077 12.969 63.7124C12.828 63.4858 12.7765 63.2043 12.8508 62.9263L18.2864 42.6411ZM15.9983 22.0571C16.8087 22.0685 17.3222 22.2433 18.0891 22.4487L51.7453 31.4185C52.4118 31.597 53.0449 31.7298 53.7532 32.1255C54.5466 32.5688 55.4148 33.2364 56.1614 34.1587C57.6843 36.0404 58.6299 38.8959 57.5793 42.8169C56.4914 46.8766 53.4255 48.8844 50.2463 49.1392C47.1331 49.3885 43.8379 47.9569 42.2444 45.1265C41.179 43.234 41.491 40.8375 42.5891 39.0523C43.7082 37.233 45.7593 35.8607 48.3479 36.2114C50.997 36.5705 52.2749 38.5996 52.4367 40.5591C52.589 42.4044 51.7496 44.6331 49.7043 45.2183L49.6047 45.2417C49.1059 45.3312 48.6105 45.0294 48.468 44.5318C48.3162 44.0009 48.6237 43.4474 49.1545 43.2954L49.2942 43.2456C49.9886 42.9508 50.5472 41.9793 50.4436 40.7232C50.3422 39.4975 49.6115 38.4005 48.0793 38.1929C46.4305 37.9695 45.0866 38.8105 44.2932 40.1001C43.4791 41.4238 43.361 43.032 43.9875 44.145C45.1394 46.1908 47.6226 47.3432 50.0862 47.146C52.4838 46.9539 54.7944 45.4834 55.6477 42.2993C56.5379 38.9767 55.7143 36.785 54.6067 35.4165C54.0379 34.714 53.3744 34.2051 52.7776 33.8716C52.3232 33.6177 51.8107 33.5051 51.3117 33.3736L17.4924 24.3589C16.9686 24.2233 16.528 24.065 15.9699 24.0571C15.2863 24.0476 14.4574 24.1569 13.6135 24.481C11.97 25.1124 10.161 26.5988 9.27073 29.9214C8.41789 33.1054 9.68394 35.5338 11.6643 36.8989C13.6992 38.3014 16.4261 38.5449 18.4465 37.3491C19.5455 36.6984 20.2475 35.2471 20.2043 33.6939C20.1621 32.1804 19.4185 30.78 17.8791 30.1489C16.4484 29.5627 15.2663 30.1469 14.5657 31.1577C13.848 32.1936 13.8463 33.3139 14.3 33.9165L14.3967 34.0298L14.4641 34.107C14.7776 34.5048 14.8716 35.1395 14.5002 35.4995C14.1281 35.8594 13.4208 35.8175 13.0334 35.4907L12.9592 35.4204L12.8254 35.2749C11.5046 33.7451 11.9005 31.4935 12.9221 30.0191C14.042 28.403 16.1632 27.2847 18.6369 28.2984C21.0541 29.2889 22.1438 31.5031 22.2033 33.6382C22.2616 35.7333 21.3339 37.9646 19.4651 39.0708C16.6698 40.7252 13.1 40.318 10.5285 38.5454C7.90271 36.7353 6.25163 33.4634 7.33909 29.4038C8.3898 25.4825 10.6368 23.4819 12.8967 22.6138C14.0044 22.1883 15.0895 22.0444 15.9983 22.0571ZM14.3547 16.7417C14.4887 16.2416 14.9794 15.9322 15.4797 16.0132L15.5803 16.0347L56.6321 27.0347L56.7287 27.0659C57.2027 27.2458 57.4731 27.7591 57.3391 28.2593C57.2049 28.7592 56.7143 29.0689 56.2141 28.9878L56.1145 28.9663L15.0627 17.9663L14.9651 17.9351C14.4913 17.7552 14.221 17.2418 14.3547 16.7417Z" fill="white"/>
</g>
<defs>
<clipPath id="clip0_7950_5694">
<rect width="64" height="64" rx="16" fill="white"/>
</clipPath>
</defs>
</svg>
