<svg width="216" height="64" viewBox="0 0 216 64" fill="none" xmlns="http://www.w3.org/2000/svg">
<path d="M95.3636 27.8068L92.2841 28.3522C92.1553 27.9583 91.9507 27.5833 91.6704 27.2272C91.3977 26.8712 91.0265 26.5795 90.5568 26.3522C90.0871 26.125 89.5 26.0113 88.7954 26.0113C87.8333 26.0113 87.0303 26.2272 86.3864 26.659C85.7424 27.0833 85.4204 27.6325 85.4204 28.3068C85.4204 28.8901 85.6364 29.3598 86.0682 29.7159C86.5 30.0719 87.197 30.3636 88.1591 30.5909L90.9318 31.2272C92.5379 31.5984 93.7348 32.1704 94.5227 32.9431C95.3106 33.7159 95.7045 34.7197 95.7045 35.9545C95.7045 37 95.4015 37.9318 94.7954 38.75C94.197 39.5606 93.3598 40.1969 92.2841 40.659C91.2159 41.1212 89.9773 41.3522 88.5682 41.3522C86.6136 41.3522 85.0189 40.9356 83.7841 40.1022C82.5492 39.2613 81.7917 38.0681 81.5114 36.5227L84.7954 36.0227C85 36.8787 85.4204 37.5265 86.0568 37.9659C86.6932 38.3977 87.5227 38.6136 88.5454 38.6136C89.6591 38.6136 90.5492 38.3825 91.2159 37.9204C91.8826 37.4507 92.2159 36.8787 92.2159 36.2045C92.2159 35.659 92.0114 35.2007 91.6023 34.8295C91.2007 34.4583 90.5833 34.178 89.75 33.9886L86.7954 33.3409C85.1667 32.9697 83.9621 32.3787 83.1818 31.5681C82.4091 30.7575 82.0227 29.731 82.0227 28.4886C82.0227 27.4583 82.3106 26.5568 82.8864 25.784C83.4621 25.0113 84.2576 24.409 85.2727 23.9772C86.2879 23.5378 87.4507 23.3181 88.7614 23.3181C90.6477 23.3181 92.1326 23.7272 93.2159 24.5454C94.2992 25.356 95.0151 26.4431 95.3636 27.8068Z" fill="white"/>
<path d="M106.793 41.3522C105.156 41.3522 103.728 40.9772 102.509 40.2272C101.289 39.4772 100.342 38.428 99.6676 37.0795C98.9934 35.731 98.6562 34.1553 98.6562 32.3522C98.6562 30.5416 98.9934 28.9583 99.6676 27.6022C100.342 26.2462 101.289 25.1931 102.509 24.4431C103.728 23.6931 105.156 23.3181 106.793 23.3181C108.429 23.3181 109.857 23.6931 111.077 24.4431C112.296 25.1931 113.243 26.2462 113.918 27.6022C114.592 28.9583 114.929 30.5416 114.929 32.3522C114.929 34.1553 114.592 35.731 113.918 37.0795C113.243 38.428 112.296 39.4772 111.077 40.2272C109.857 40.9772 108.429 41.3522 106.793 41.3522ZM106.804 38.5C107.865 38.5 108.743 38.2197 109.44 37.659C110.137 37.0984 110.652 36.3522 110.986 35.4204C111.327 34.4886 111.497 33.4621 111.497 32.3409C111.497 31.2272 111.327 30.2045 110.986 29.2727C110.652 28.3333 110.137 27.5795 109.44 27.0113C108.743 26.4431 107.865 26.159 106.804 26.159C105.736 26.159 104.849 26.4431 104.145 27.0113C103.448 27.5795 102.929 28.3333 102.588 29.2727C102.255 30.2045 102.088 31.2272 102.088 32.3409C102.088 33.4621 102.255 34.4886 102.588 35.4204C102.929 36.3522 103.448 37.0984 104.145 37.659C104.849 38.2197 105.736 38.5 106.804 38.5Z" fill="white"/>
<path d="M133.06 23.5454L126.73 41H123.094L116.753 23.5454H120.401L124.821 36.9772H125.003L129.412 23.5454H133.06Z" fill="white"/>
<path d="M139.651 17.7272V41H136.253V17.7272H139.651Z" fill="white"/>
<path d="M144.222 41V23.5454H147.619V41H144.222ZM145.937 20.8522C145.347 20.8522 144.839 20.6553 144.415 20.2613C143.998 19.8598 143.79 19.3825 143.79 18.8295C143.79 18.2689 143.998 17.7916 144.415 17.3977C144.839 16.9962 145.347 16.7954 145.937 16.7954C146.528 16.7954 147.032 16.9962 147.449 17.3977C147.873 17.7916 148.085 18.2689 148.085 18.8295C148.085 19.3825 147.873 19.8598 147.449 20.2613C147.032 20.6553 146.528 20.8522 145.937 20.8522Z" fill="white"/>
<path d="M163.247 33.7613V23.5454H166.656V41H163.315V37.9772H163.134C162.732 38.909 162.088 39.6856 161.202 40.3068C160.323 40.9204 159.228 41.2272 157.918 41.2272C156.796 41.2272 155.804 40.981 154.94 40.4886C154.084 39.9886 153.41 39.25 152.918 38.2727C152.433 37.2954 152.19 36.0871 152.19 34.6477V23.5454H155.588V34.2386C155.588 35.428 155.918 36.375 156.577 37.0795C157.236 37.784 158.092 38.1363 159.145 38.1363C159.781 38.1363 160.414 37.9772 161.043 37.659C161.679 37.3409 162.205 36.8598 162.622 36.2159C163.046 35.5719 163.255 34.7537 163.247 33.7613Z" fill="white"/>
<path d="M171.222 41V23.5454H174.483V26.3863H174.699C175.062 25.4242 175.657 24.6742 176.483 24.1363C177.309 23.5909 178.297 23.3181 179.449 23.3181C180.616 23.3181 181.593 23.5909 182.381 24.1363C183.176 24.6818 183.763 25.4318 184.142 26.3863H184.324C184.741 25.4545 185.403 24.7121 186.312 24.159C187.222 23.5984 188.305 23.3181 189.562 23.3181C191.146 23.3181 192.437 23.8144 193.437 24.8068C194.445 25.7992 194.949 27.2954 194.949 29.2954V41H191.551V29.6136C191.551 28.4318 191.229 27.5757 190.585 27.0454C189.941 26.5151 189.172 26.25 188.278 26.25C187.172 26.25 186.312 26.5909 185.699 27.2727C185.085 27.9469 184.778 28.8144 184.778 29.875V41H181.392V29.3977C181.392 28.4507 181.097 27.6893 180.506 27.1136C179.915 26.5378 179.146 26.25 178.199 26.25C177.555 26.25 176.96 26.4204 176.415 26.7613C175.877 27.0947 175.441 27.5606 175.108 28.159C174.782 28.7575 174.619 29.4507 174.619 30.2386V41H171.222Z" fill="white"/>
<g clip-path="url(#clip0_7702_5677)">
<rect width="64" height="64" rx="16" fill="white"/>
<path d="M48 0C56.8366 0 64 7.16344 64 16V48C64 56.8366 56.8366 64 48 64H36.8916L40.9854 48.7236C41.1283 48.1903 40.8116 47.6411 40.2783 47.498C39.7451 47.3554 39.1958 47.672 39.0527 48.2051L34.8213 64H29.6445L36.6816 37.7344L39.5801 38.5117L39.6807 38.5332C40.1808 38.614 40.6706 38.3045 40.8047 37.8047C40.9387 37.3046 40.669 36.7914 40.1953 36.6113L40.0977 36.5801L25.6084 32.6973C25.0753 32.555 24.5267 32.8713 24.3838 33.4043C24.2409 33.9375 24.5579 34.4856 25.0908 34.6289L27.9883 35.4053L20.3271 64H16C15.4888 64 14.9833 63.9746 14.4844 63.9277C14.6238 63.8027 14.7301 63.6377 14.7822 63.4434L20.2178 43.1582C20.3604 42.6249 20.044 42.0766 19.5107 41.9336C18.9775 41.791 18.4292 42.1075 18.2861 42.6406L12.8506 62.9258C12.7763 63.2033 12.8276 63.4845 12.9678 63.7109C5.58137 62.2938 0 55.7997 0 48V16C0 7.16344 7.16344 0 16 0H48ZM34.75 37.2178L27.5742 64H22.3984L29.9199 35.9229L34.75 37.2178ZM15.998 22.0566C15.0894 22.0439 14.0041 22.1879 12.8965 22.6133C10.6366 23.4814 8.38956 25.4821 7.33887 29.4033C6.25124 33.4629 7.90261 36.7346 10.5283 38.5449C13.0998 40.3175 16.6695 40.7248 19.4648 39.0703C21.3338 37.964 22.2615 35.7329 22.2031 33.6377C22.1435 31.5026 21.0539 29.2884 18.6367 28.2979C16.1632 27.2845 14.0417 28.4026 12.9219 30.0186C11.9002 31.4929 11.5046 33.7445 12.8252 35.2744L12.959 35.4199L13.0332 35.4902C13.4205 35.8171 14.0008 35.8031 14.373 35.4434C14.7449 35.0834 14.7776 34.5044 14.4639 34.1064L14.3965 34.0293L14.2998 33.916C13.8463 33.3133 13.8477 32.1929 14.5654 31.1572C15.266 30.1465 16.4483 29.5624 17.8789 30.1484C19.4183 30.7795 20.1619 32.1799 20.2041 33.6934C20.2474 35.2467 19.5454 36.6978 18.4463 37.3486C16.4259 38.5444 13.699 38.301 11.6641 36.8984C9.68384 35.5332 8.4175 33.1049 9.27051 29.9209C10.1608 26.5983 11.9699 25.1119 13.6133 24.4805C14.457 24.1564 15.2861 24.0471 15.9697 24.0566C16.5277 24.0645 16.9685 24.2228 17.4922 24.3584L51.3115 33.373C51.8103 33.5045 52.3231 33.6174 52.7773 33.8711C53.3741 34.2046 54.0377 34.7136 54.6064 35.416C55.7141 36.7845 56.5377 38.9761 55.6475 42.2988C54.7942 45.4832 52.4837 46.9534 50.0859 47.1455C47.6224 47.3426 45.139 46.1904 43.9873 44.1445C43.3609 43.0314 43.4788 41.4232 44.293 40.0996C45.0863 38.8101 46.4305 37.9692 48.0791 38.1924C49.6112 38.4 50.3419 39.497 50.4434 40.7227C50.5471 41.979 49.9885 42.9503 49.2939 43.2451L49.1543 43.2949C48.6236 43.4469 48.3161 44.0005 48.4678 44.5312C48.6102 45.029 49.1056 45.3306 49.6045 45.2412L49.7041 45.2178C51.7495 44.6325 52.5889 42.4039 52.4365 40.5586C52.2746 38.5991 50.9967 36.5699 48.3477 36.2109C45.7592 35.8604 43.7079 37.2326 42.5889 39.0518C41.4908 40.837 41.1789 43.2335 42.2441 45.126C43.8376 47.9565 47.1329 49.3879 50.2461 49.1387C53.4254 48.8839 56.4912 46.8764 57.5791 42.8164C58.6297 38.8953 57.6842 36.0399 56.1611 34.1582C55.4146 33.236 54.5463 32.5683 53.7529 32.125C53.0449 31.7295 52.4114 31.5965 51.7451 31.418L18.0889 22.4482C17.3222 22.2428 16.8084 22.068 15.998 22.0566ZM15.4795 16.0127C14.9793 15.9319 14.4885 16.2413 14.3545 16.7412C14.2206 17.2412 14.4912 17.7545 14.9648 17.9346L15.0625 17.9658L56.1143 28.9658L56.2139 28.9873C56.7142 29.0684 57.2048 28.7589 57.3389 28.2588C57.4729 27.7586 57.2025 27.2453 56.7285 27.0654L56.6318 27.0342L15.5801 16.0342L15.4795 16.0127Z" fill="#4554C9"/>
</g>
<defs>
<clipPath id="clip0_7702_5677">
<rect width="64" height="64" rx="16" fill="white"/>
</clipPath>
</defs>
</svg>
