<svg xmlns="http://www.w3.org/2000/svg" fill="none" viewBox="0 0 64 64">
  <path fill="#4554C9" d="M34.75 37.218 27.574 64H25.6c-1.137 0-2.202 0-3.202-.004l7.522-28.073 4.83 1.295ZM38.4 0c8.96 0 13.441 0 16.864 1.744a16 16 0 0 1 6.992 6.992C64 12.16 64 16.64 64 25.6v12.8c0 8.96 0 13.441-1.744 16.864a16 16 0 0 1-6.992 6.992C51.84 64 47.36 64 38.4 64h-1.508l4.093-15.276a1.001 1.001 0 0 0-1.932-.519L34.82 64h-5.176l7.037-26.266 2.898.778.1.021a1 1 0 0 0 .515-1.922l-.097-.03-14.49-3.884a1 1 0 0 0-.517 1.932l2.897.776-7.656 28.575c-2.22-.026-4.08-.09-5.686-.24a.997.997 0 0 0 .136-.297l5.436-20.285a1 1 0 0 0-1.932-.517L12.85 62.926a.997.997 0 0 0 .024.596c-1.608-.258-2.938-.655-4.139-1.266a16 16 0 0 1-6.992-6.992C0 51.84 0 47.36 0 38.4V25.6c0-8.96 0-13.441 1.744-16.864a16 16 0 0 1 6.992-6.992C12.16 0 16.64 0 25.6 0h12.8ZM15.998 22.057a8.396 8.396 0 0 0-3.101.556c-2.26.868-4.507 2.87-5.558 6.79-1.088 4.06.564 7.332 3.19 9.142 2.57 1.773 6.14 2.18 8.936.525 1.869-1.106 2.797-3.337 2.738-5.432-.06-2.135-1.15-4.35-3.566-5.34-2.474-1.013-4.595.105-5.715 1.72-1.022 1.475-1.417 3.727-.097 5.256l.134.146.074.07a1.001 1.001 0 0 0 1.43-1.384l-.066-.077-.097-.113c-.454-.603-.452-1.723.265-2.759.701-1.01 1.883-1.595 3.314-1.009 1.54.631 2.283 2.032 2.325 3.545.043 1.554-.659 3.005-1.758 3.656-2.02 1.195-4.747.952-6.782-.45-1.98-1.366-3.246-3.794-2.393-6.978.89-3.323 2.699-4.81 4.342-5.44a6.397 6.397 0 0 1 2.357-.424c.558.008.998.166 1.522.301l33.82 9.015c.498.132 1.011.244 1.465.498a6.43 6.43 0 0 1 1.83 1.545c1.107 1.369 1.93 3.56 1.04 6.883-.853 3.184-3.163 4.654-5.561 4.846-2.464.198-4.947-.955-6.099-3-.626-1.114-.508-2.722.306-4.045.793-1.29 2.138-2.13 3.786-1.908 1.532.208 2.263 1.305 2.364 2.53.104 1.257-.454 2.228-1.15 2.523l-.139.05a1 1 0 0 0 .45 1.946l.1-.023c2.045-.586 2.885-2.814 2.733-4.66-.162-1.959-1.44-3.988-4.09-4.347-2.588-.35-4.64 1.022-5.758 2.84-1.098 1.786-1.41 4.182-.345 6.075 1.594 2.83 4.889 4.262 8.002 4.013 3.18-.255 6.245-2.263 7.333-6.323 1.05-3.92.105-6.776-1.418-8.658a8.397 8.397 0 0 0-2.408-2.033c-.708-.395-1.342-.529-2.008-.707l-33.656-8.97c-.767-.205-1.28-.38-2.091-.391Zm-.518-6.044a1.001 1.001 0 0 0-.515 1.922l.098.03 41.051 11 .1.022a1 1 0 0 0 .514-1.922l-.096-.03-41.052-11-.1-.022Z"/>
</svg>
