<svg width="216" height="64" viewBox="0 0 216 64" fill="none" xmlns="http://www.w3.org/2000/svg">
<path d="M95.3636 27.8082L92.2841 28.3537C92.1553 27.9598 91.9507 27.5848 91.6704 27.2287C91.3977 26.8726 91.0265 26.581 90.5568 26.3537C90.0871 26.1264 89.5 26.0128 88.7954 26.0128C87.8333 26.0128 87.0303 26.2287 86.3864 26.6605C85.7424 27.0848 85.4204 27.634 85.4204 28.3082C85.4204 28.8916 85.6364 29.3613 86.0682 29.7173C86.5 30.0734 87.197 30.3651 88.1591 30.5923L90.9318 31.2287C92.5379 31.5999 93.7348 32.1719 94.5227 32.9446C95.3106 33.7173 95.7045 34.7211 95.7045 35.956C95.7045 37.0014 95.4015 37.9332 94.7954 38.7514C94.197 39.562 93.3598 40.1984 92.2841 40.6605C91.2159 41.1226 89.9773 41.3537 88.5682 41.3537C86.6136 41.3537 85.0189 40.937 83.7841 40.1037C82.5492 39.2628 81.7917 38.0696 81.5114 36.5241L84.7954 36.0241C85 36.8802 85.4204 37.5279 86.0568 37.9673C86.6932 38.3991 87.5227 38.6151 88.5454 38.6151C89.6591 38.6151 90.5492 38.384 91.2159 37.9219C91.8826 37.4522 92.2159 36.8802 92.2159 36.206C92.2159 35.6605 92.0114 35.2022 91.6023 34.831C91.2007 34.4598 90.5833 34.1795 89.75 33.9901L86.7954 33.3423C85.1667 32.9711 83.9621 32.3802 83.1818 31.5696C82.4091 30.759 82.0227 29.7325 82.0227 28.4901C82.0227 27.4598 82.3106 26.5582 82.8864 25.7855C83.4621 25.0128 84.2576 24.4105 85.2727 23.9787C86.2879 23.5393 87.4507 23.3196 88.7614 23.3196C90.6477 23.3196 92.1326 23.7287 93.2159 24.5469C94.2992 25.3575 95.0151 26.4446 95.3636 27.8082Z" fill="white"/>
<path d="M106.793 41.3537C105.156 41.3537 103.728 40.9787 102.509 40.2287C101.289 39.4787 100.342 38.4295 99.6676 37.081C98.9934 35.7325 98.6562 34.1567 98.6562 32.3537C98.6562 30.5431 98.9934 28.9598 99.6676 27.6037C100.342 26.2476 101.289 25.1946 102.509 24.4446C103.728 23.6946 105.156 23.3196 106.793 23.3196C108.429 23.3196 109.857 23.6946 111.077 24.4446C112.296 25.1946 113.243 26.2476 113.918 27.6037C114.592 28.9598 114.929 30.5431 114.929 32.3537C114.929 34.1567 114.592 35.7325 113.918 37.081C113.243 38.4295 112.296 39.4787 111.077 40.2287C109.857 40.9787 108.429 41.3537 106.793 41.3537ZM106.804 38.5014C107.865 38.5014 108.743 38.2211 109.44 37.6605C110.137 37.0999 110.652 36.3537 110.986 35.4219C111.327 34.4901 111.497 33.4635 111.497 32.3423C111.497 31.2287 111.327 30.206 110.986 29.2741C110.652 28.3348 110.137 27.581 109.44 27.0128C108.743 26.4446 107.865 26.1605 106.804 26.1605C105.736 26.1605 104.849 26.4446 104.145 27.0128C103.448 27.581 102.929 28.3348 102.588 29.2741C102.255 30.206 102.088 31.2287 102.088 32.3423C102.088 33.4635 102.255 34.4901 102.588 35.4219C102.929 36.3537 103.448 37.0999 104.145 37.6605C104.849 38.2211 105.736 38.5014 106.804 38.5014Z" fill="white"/>
<path d="M133.06 23.5469L126.73 41.0014H123.094L116.753 23.5469H120.401L124.821 36.9787H125.003L129.412 23.5469H133.06Z" fill="white"/>
<path d="M139.651 17.7287V41.0014H136.253V17.7287H139.651Z" fill="white"/>
<path d="M144.222 41.0014V23.5469H147.619V41.0014H144.222ZM145.937 20.8537C145.347 20.8537 144.839 20.6567 144.415 20.2628C143.998 19.8613 143.79 19.384 143.79 18.831C143.79 18.2704 143.998 17.7931 144.415 17.3991C144.839 16.9976 145.347 16.7969 145.937 16.7969C146.528 16.7969 147.032 16.9976 147.449 17.3991C147.873 17.7931 148.085 18.2704 148.085 18.831C148.085 19.384 147.873 19.8613 147.449 20.2628C147.032 20.6567 146.528 20.8537 145.937 20.8537Z" fill="white"/>
<path d="M163.247 33.7628V23.5469H166.656V41.0014H163.315V37.9787H163.134C162.732 38.9105 162.088 39.687 161.202 40.3082C160.323 40.9219 159.228 41.2287 157.918 41.2287C156.796 41.2287 155.804 40.9825 154.94 40.4901C154.084 39.9901 153.41 39.2514 152.918 38.2741C152.433 37.2969 152.19 36.0885 152.19 34.6491V23.5469H155.588V34.2401C155.588 35.4295 155.918 36.3764 156.577 37.081C157.236 37.7855 158.092 38.1378 159.145 38.1378C159.781 38.1378 160.414 37.9787 161.043 37.6605C161.679 37.3423 162.205 36.8613 162.622 36.2173C163.046 35.5734 163.255 34.7552 163.247 33.7628Z" fill="white"/>
<path d="M171.222 41.0014V23.5469H174.483V26.3878H174.699C175.062 25.4257 175.657 24.6757 176.483 24.1378C177.309 23.5923 178.297 23.3196 179.449 23.3196C180.616 23.3196 181.593 23.5923 182.381 24.1378C183.176 24.6832 183.763 25.4332 184.142 26.3878H184.324C184.741 25.456 185.403 24.7135 186.312 24.1605C187.222 23.5999 188.305 23.3196 189.562 23.3196C191.146 23.3196 192.437 23.8158 193.437 24.8082C194.445 25.8007 194.949 27.2969 194.949 29.2969V41.0014H191.551V29.6151C191.551 28.4332 191.229 27.5772 190.585 27.0469C189.941 26.5166 189.172 26.2514 188.278 26.2514C187.172 26.2514 186.312 26.5923 185.699 27.2741C185.085 27.9484 184.778 28.8158 184.778 29.8764V41.0014H181.392V29.3991C181.392 28.4522 181.097 27.6908 180.506 27.1151C179.915 26.5393 179.146 26.2514 178.199 26.2514C177.555 26.2514 176.96 26.4219 176.415 26.7628C175.877 27.0961 175.441 27.562 175.108 28.1605C174.782 28.759 174.619 29.4522 174.619 30.2401V41.0014H171.222Z" fill="white"/>
<g clip-path="url(#clip0_6472_18785)">
<rect width="64" height="64" rx="16" fill="white"/>
<path d="M34.75 37.2178L27.5742 64H25.5996C24.4628 64 23.398 63.9997 22.3984 63.9961L29.9199 35.9229L34.75 37.2178ZM38.4004 0C47.3609 3.65342e-10 51.8411 0.000290612 55.2637 1.74414C58.2743 3.27811 60.7219 5.72573 62.2559 8.73633C63.9997 12.1589 64 16.6391 64 25.5996V38.4004C64 47.3609 63.9997 51.8411 62.2559 55.2637C60.7219 58.2743 58.2743 60.7219 55.2637 62.2559C51.8411 63.9997 47.3609 64 38.4004 64H36.8916L40.9854 48.7236C41.1283 48.1903 40.8116 47.6411 40.2783 47.498C39.7451 47.3554 39.1958 47.672 39.0527 48.2051L34.8213 64H29.6445L36.6816 37.7344L39.5801 38.5117L39.6807 38.5332C40.1808 38.614 40.6706 38.3045 40.8047 37.8047C40.9387 37.3046 40.669 36.7914 40.1953 36.6113L40.0977 36.5801L25.6084 32.6973C25.0753 32.555 24.5267 32.8713 24.3838 33.4043C24.2409 33.9375 24.5579 34.4856 25.0908 34.6289L27.9883 35.4053L20.332 63.9795C18.1126 63.9537 16.2515 63.8899 14.6465 63.7393C14.7057 63.6506 14.7531 63.552 14.7822 63.4434L20.2178 43.1582C20.3604 42.6249 20.044 42.0766 19.5107 41.9336C18.9775 41.791 18.4292 42.1075 18.2861 42.6406L12.8506 62.9258C12.796 63.1299 12.8087 63.3365 12.875 63.5215C11.267 63.2636 9.93658 62.8674 8.73633 62.2559C5.72573 60.7219 3.27811 58.2743 1.74414 55.2637C0.000290612 51.8411 3.65342e-10 47.3609 0 38.4004V25.5996C3.65342e-10 16.6391 0.000290998 12.1589 1.74414 8.73633C3.27811 5.72573 5.72573 3.27811 8.73633 1.74414C12.1589 0.000291122 16.6391 3.68932e-10 25.5996 0H38.4004ZM15.998 22.0566C15.0894 22.0439 14.0041 22.1879 12.8965 22.6133C10.6366 23.4814 8.38956 25.4821 7.33887 29.4033C6.25124 33.4629 7.90261 36.7346 10.5283 38.5449C13.0998 40.3175 16.6695 40.7248 19.4648 39.0703C21.3338 37.964 22.2615 35.7329 22.2031 33.6377C22.1435 31.5026 21.0539 29.2884 18.6367 28.2979C16.1632 27.2845 14.0417 28.4026 12.9219 30.0186C11.9002 31.4929 11.5046 33.7445 12.8252 35.2744L12.959 35.4199L13.0332 35.4902C13.4205 35.8171 14.0008 35.8031 14.373 35.4434C14.7449 35.0834 14.7776 34.5044 14.4639 34.1064L14.3965 34.0293L14.2998 33.916C13.8463 33.3133 13.8477 32.1929 14.5654 31.1572C15.266 30.1465 16.4483 29.5624 17.8789 30.1484C19.4183 30.7795 20.1619 32.1799 20.2041 33.6934C20.2474 35.2467 19.5454 36.6978 18.4463 37.3486C16.4259 38.5444 13.699 38.301 11.6641 36.8984C9.68384 35.5332 8.4175 33.1049 9.27051 29.9209C10.1608 26.5983 11.9699 25.1119 13.6133 24.4805C14.457 24.1564 15.2861 24.0471 15.9697 24.0566C16.5277 24.0645 16.9685 24.2228 17.4922 24.3584L51.3115 33.373C51.8103 33.5045 52.3231 33.6174 52.7773 33.8711C53.3741 34.2046 54.0377 34.7136 54.6064 35.416C55.7141 36.7845 56.5377 38.9761 55.6475 42.2988C54.7942 45.4832 52.4837 46.9534 50.0859 47.1455C47.6224 47.3426 45.139 46.1904 43.9873 44.1445C43.3609 43.0314 43.4788 41.4232 44.293 40.0996C45.0863 38.8101 46.4305 37.9692 48.0791 38.1924C49.6112 38.4 50.3419 39.497 50.4434 40.7227C50.5471 41.979 49.9885 42.9503 49.2939 43.2451L49.1543 43.2949C48.6236 43.4469 48.3161 44.0005 48.4678 44.5312C48.6102 45.029 49.1056 45.3306 49.6045 45.2412L49.7041 45.2178C51.7495 44.6325 52.5889 42.4039 52.4365 40.5586C52.2746 38.5991 50.9967 36.5699 48.3477 36.2109C45.7592 35.8604 43.7079 37.2326 42.5889 39.0518C41.4908 40.837 41.1789 43.2335 42.2441 45.126C43.8376 47.9565 47.1329 49.3879 50.2461 49.1387C53.4254 48.8839 56.4912 46.8764 57.5791 42.8164C58.6297 38.8953 57.6842 36.0399 56.1611 34.1582C55.4146 33.236 54.5463 32.5683 53.7529 32.125C53.0449 31.7295 52.4114 31.5965 51.7451 31.418L18.0889 22.4482C17.3222 22.2428 16.8084 22.068 15.998 22.0566ZM15.4795 16.0127C14.9793 15.9319 14.4885 16.2413 14.3545 16.7412C14.2206 17.2412 14.4912 17.7545 14.9648 17.9346L15.0625 17.9658L56.1143 28.9658L56.2139 28.9873C56.7142 29.0684 57.2048 28.7589 57.3389 28.2588C57.4729 27.7586 57.2025 27.2453 56.7285 27.0654L56.6318 27.0342L15.5801 16.0342L15.4795 16.0127Z" fill="#4554C9"/>
</g>
<defs>
<clipPath id="clip0_6472_18785">
<rect width="64" height="64" rx="16" fill="white"/>
</clipPath>
</defs>
</svg>
