<svg width="216" height="64" viewBox="0 0 216 64" fill="none" xmlns="http://www.w3.org/2000/svg">
<path d="M95.3637 27.8068L92.2842 28.3523C92.1554 27.9583 91.9509 27.5833 91.6706 27.2273C91.3978 26.8712 91.0266 26.5795 90.5569 26.3523C90.0872 26.125 89.5001 26.0113 88.7956 26.0113C87.8334 26.0113 87.0304 26.2273 86.3865 26.6591C85.7425 27.0833 85.4206 27.6326 85.4206 28.3068C85.4206 28.8901 85.6365 29.3598 86.0683 29.7159C86.5001 30.072 87.1971 30.3636 88.1592 30.5909L90.9319 31.2273C92.538 31.5985 93.735 32.1704 94.5228 32.9432C95.3107 33.7159 95.7047 34.7197 95.7047 35.9545C95.7047 37 95.4016 37.9318 94.7956 38.75C94.1971 39.5606 93.36 40.197 92.2842 40.6591C91.216 41.1212 89.9774 41.3523 88.5683 41.3523C86.6137 41.3523 85.0191 40.9356 83.7842 40.1023C82.5494 39.2613 81.7918 38.0682 81.5115 36.5227L84.7956 36.0227C85.0001 36.8788 85.4206 37.5265 86.0569 37.9659C86.6933 38.3977 87.5228 38.6136 88.5456 38.6136C89.6592 38.6136 90.5494 38.3826 91.216 37.9204C91.8827 37.4507 92.216 36.8788 92.216 36.2045C92.216 35.6591 92.0115 35.2007 91.6024 34.8295C91.2009 34.4583 90.5834 34.178 89.7501 33.9886L86.7956 33.3409C85.1668 32.9697 83.9622 32.3788 83.1819 31.5682C82.4092 30.7576 82.0228 29.731 82.0228 28.4886C82.0228 27.4583 82.3107 26.5568 82.8865 25.7841C83.4622 25.0113 84.2577 24.4091 85.2728 23.9773C86.288 23.5379 87.4509 23.3182 88.7615 23.3182C90.6478 23.3182 92.1327 23.7273 93.216 24.5454C94.2994 25.356 95.0153 26.4432 95.3637 27.8068Z" fill="white"/>
<path d="M106.793 41.3523C105.156 41.3523 103.728 40.9773 102.509 40.2273C101.289 39.4773 100.342 38.428 99.6677 37.0795C98.9935 35.731 98.6564 34.1553 98.6564 32.3523C98.6564 30.5417 98.9935 28.9583 99.6677 27.6023C100.342 26.2462 101.289 25.1932 102.509 24.4432C103.728 23.6932 105.156 23.3182 106.793 23.3182C108.429 23.3182 109.857 23.6932 111.077 24.4432C112.297 25.1932 113.243 26.2462 113.918 27.6023C114.592 28.9583 114.929 30.5417 114.929 32.3523C114.929 34.1553 114.592 35.731 113.918 37.0795C113.243 38.428 112.297 39.4773 111.077 40.2273C109.857 40.9773 108.429 41.3523 106.793 41.3523ZM106.804 38.5C107.865 38.5 108.743 38.2197 109.44 37.6591C110.137 37.0985 110.653 36.3523 110.986 35.4204C111.327 34.4886 111.497 33.4621 111.497 32.3409C111.497 31.2273 111.327 30.2045 110.986 29.2727C110.653 28.3333 110.137 27.5795 109.44 27.0113C108.743 26.4432 107.865 26.1591 106.804 26.1591C105.736 26.1591 104.85 26.4432 104.145 27.0113C103.448 27.5795 102.929 28.3333 102.588 29.2727C102.255 30.2045 102.088 31.2273 102.088 32.3409C102.088 33.4621 102.255 34.4886 102.588 35.4204C102.929 36.3523 103.448 37.0985 104.145 37.6591C104.85 38.2197 105.736 38.5 106.804 38.5Z" fill="white"/>
<path d="M133.06 23.5454L126.73 41H123.094L116.753 23.5454H120.401L124.821 36.9773H125.003L129.412 23.5454H133.06Z" fill="white"/>
<path d="M139.651 17.7273V41H136.253V17.7273H139.651Z" fill="white"/>
<path d="M144.222 41V23.5454H147.619V41H144.222ZM145.938 20.8523C145.347 20.8523 144.839 20.6553 144.415 20.2613C143.998 19.8598 143.79 19.3826 143.79 18.8295C143.79 18.2689 143.998 17.7917 144.415 17.3977C144.839 16.9962 145.347 16.7954 145.938 16.7954C146.529 16.7954 147.032 16.9962 147.449 17.3977C147.873 17.7917 148.085 18.2689 148.085 18.8295C148.085 19.3826 147.873 19.8598 147.449 20.2613C147.032 20.6553 146.529 20.8523 145.938 20.8523Z" fill="white"/>
<path d="M163.247 33.7614V23.5454H166.656V41H163.315V37.9773H163.134C162.732 38.9091 162.088 39.6856 161.202 40.3068C160.323 40.9204 159.228 41.2273 157.918 41.2273C156.797 41.2273 155.804 40.981 154.94 40.4886C154.084 39.9886 153.41 39.25 152.918 38.2727C152.433 37.2954 152.19 36.0871 152.19 34.6477V23.5454H155.588V34.2386C155.588 35.428 155.918 36.375 156.577 37.0795C157.236 37.7841 158.092 38.1364 159.145 38.1364C159.781 38.1364 160.414 37.9773 161.043 37.6591C161.679 37.3409 162.206 36.8598 162.622 36.2159C163.047 35.572 163.255 34.7538 163.247 33.7614Z" fill="white"/>
<path d="M171.222 41V23.5454H174.483V26.3863H174.699C175.063 25.4242 175.657 24.6742 176.483 24.1364C177.309 23.5909 178.297 23.3182 179.449 23.3182C180.616 23.3182 181.593 23.5909 182.381 24.1364C183.176 24.6818 183.763 25.4318 184.142 26.3863H184.324C184.741 25.4545 185.404 24.7121 186.313 24.1591C187.222 23.5985 188.305 23.3182 189.563 23.3182C191.146 23.3182 192.438 23.8144 193.438 24.8068C194.445 25.7992 194.949 27.2954 194.949 29.2954V41H191.551V29.6136C191.551 28.4318 191.229 27.5757 190.585 27.0454C189.941 26.5151 189.172 26.25 188.279 26.25C187.172 26.25 186.313 26.5909 185.699 27.2727C185.085 27.947 184.779 28.8144 184.779 29.875V41H181.392V29.3977C181.392 28.4507 181.097 27.6894 180.506 27.1136C179.915 26.5379 179.146 26.25 178.199 26.25C177.555 26.25 176.96 26.4204 176.415 26.7613C175.877 27.0947 175.441 27.5606 175.108 28.1591C174.782 28.7576 174.619 29.4507 174.619 30.2386V41H171.222Z" fill="white"/>
<g clip-path="url(#clip0_1824_283)">
<path d="M0 16C0 7.16344 7.16344 0 16 0H48C56.8366 0 64 7.16344 64 16V48C64 56.8366 56.8366 64 48 64H16C7.16344 64 0 56.8366 0 48V16Z" fill="#4554C9"/>
<path d="M24.3759 33.4044C24.5189 32.8714 25.0667 32.555 25.5996 32.6974L40.082 36.5802L40.1796 36.6114C40.6531 36.7914 40.9228 37.3048 40.789 37.8048C40.655 38.3046 40.1649 38.6141 39.665 38.5333L39.5644 38.5118L36.6679 37.7345L29.6337 64.0001H27.5654L34.7373 37.2179L29.9091 35.9229L22.3906 64.0001H20.3212L27.9785 35.4054L25.083 34.629C24.55 34.4859 24.2331 33.9377 24.3759 33.4044ZM39.038 48.2052C39.1811 47.672 39.7296 47.3553 40.2626 47.4981C40.7956 47.6412 41.1124 48.1904 40.9697 48.7237L36.8779 64.0001H34.8076L39.038 48.2052ZM18.2812 42.6407C18.4243 42.1077 18.9719 41.791 19.5048 41.9337C20.0378 42.0766 20.3544 42.625 20.2119 43.1583L14.7792 63.4435C14.7272 63.6376 14.6206 63.8028 14.4814 63.9278C13.9683 63.8796 13.4626 63.8066 12.9648 63.711C12.8247 63.4846 12.7744 63.2034 12.8486 62.9259L18.2812 42.6407ZM15.9941 22.0567C16.8042 22.0681 17.3174 22.2428 18.0839 22.4483L51.7236 31.4181C52.3896 31.5966 53.0227 31.7296 53.7304 32.1251C54.5234 32.5684 55.3914 33.236 56.1376 34.1583C57.66 36.0399 58.6056 38.8955 57.5556 42.8165C56.4683 46.8765 53.4033 48.884 50.2255 49.1388C47.1137 49.3881 43.8202 47.9567 42.2275 45.1261C41.1627 43.2335 41.4746 40.8371 42.5722 39.0519C43.6908 37.2326 45.7408 35.8603 48.3281 36.211C50.9759 36.57 52.2532 38.5992 52.415 40.5587C52.5673 42.404 51.7279 44.6326 49.6835 45.2179L49.5839 45.2413C49.0853 45.3307 48.5905 45.0291 48.4482 44.5313C48.2965 44.0004 48.6041 43.4469 49.1347 43.295L49.2744 43.2452C49.9684 42.9502 50.5265 41.9789 50.4228 40.7228C50.3214 39.4971 49.5909 38.4001 48.0595 38.1925C46.4116 37.9692 45.0683 38.8102 44.2753 40.0997C43.4615 41.4233 43.3435 43.0315 43.9697 44.1446C45.1209 46.1906 47.6029 47.3428 50.0654 47.1456C52.462 46.9535 54.7711 45.4833 55.624 42.2989C56.5138 38.9762 55.6911 36.7846 54.5839 35.4161C54.0154 34.7136 53.3524 34.2047 52.7558 33.8712C52.3018 33.6174 51.7896 33.5046 51.291 33.3731L17.4873 24.3585C16.9638 24.2229 16.5235 24.0646 15.9658 24.0567C15.2824 24.0472 14.4538 24.1564 13.6103 24.4806C11.9676 25.1119 10.1594 26.5983 9.26948 29.921C8.41686 33.1051 9.68268 35.5333 11.6621 36.8985C13.6961 38.3011 16.4219 38.5447 18.4414 37.3487C19.5398 36.6979 20.2415 35.2467 20.1982 33.6935C20.156 32.18 19.4126 30.7796 17.874 30.1485C16.4441 29.5624 15.2628 30.1466 14.5625 31.1573C13.8449 32.1932 13.8433 33.3134 14.2968 33.9161L14.3935 34.0294L14.4609 34.1065C14.7745 34.5045 14.8678 35.1401 14.496 35.5001C14.124 35.8598 13.4173 35.8172 13.0302 35.4903L12.957 35.42L12.8232 35.2745C11.5029 33.7446 11.8986 31.4931 12.9199 30.0187C14.0393 28.4028 16.1594 27.2843 18.6318 28.2979C21.0476 29.2885 22.1367 31.5028 22.1962 33.6378C22.2546 35.733 21.327 37.9641 19.4589 39.0704C16.665 40.7249 13.0975 40.3176 10.5273 38.545C7.90264 36.7348 6.25166 33.4632 7.33882 29.4034C8.38906 25.482 10.6356 23.4814 12.8945 22.6134C14.0015 22.188 15.0859 22.044 15.9941 22.0567ZM14.3515 16.7413C14.4855 16.2414 14.9756 15.9319 15.4755 16.0128L15.5761 16.0343L56.6084 27.0343L56.705 27.0655C57.1788 27.2454 57.4492 27.7587 57.3154 28.2589C57.1814 28.759 56.6905 29.0685 56.1904 28.9874L56.0908 28.9659L15.0585 17.9659L14.9619 17.9347C14.4882 17.7548 14.2176 17.2415 14.3515 16.7413Z" fill="white"/>
</g>
<defs>
<clipPath id="clip0_1824_283">
<rect width="64" height="64" fill="white"/>
</clipPath>
</defs>
</svg>
