<svg xmlns="http://www.w3.org/2000/svg" fill="none" viewBox="0 0 114 26">
  <path fill="#0F0F11" d="m14.364 11.808-3.08.546a3.65 3.65 0 0 0-.614-1.125c-.272-.356-.643-.648-1.113-.875-.47-.228-1.057-.341-1.762-.341-.962 0-1.765.216-2.409.648-.644.424-.966.973-.966 1.647 0 .584.216 1.053.648 1.41.432.355 1.129.647 2.091.874l2.773.637c1.606.37 2.803.943 3.59 1.716.789.772 1.182 1.776 1.182 3.011a4.575 4.575 0 0 1-.909 2.795c-.598.811-1.435 1.447-2.51 1.91-1.07.462-2.308.693-3.717.693-1.954 0-3.55-.417-4.784-1.25C1.55 23.263.792 22.07.511 20.524l3.284-.5c.205.856.625 1.504 1.262 1.943.636.432 1.466.648 2.488.648 1.114 0 2.004-.231 2.67-.693.668-.47 1-1.042 1-1.716 0-.546-.204-1.004-.613-1.375-.401-.371-1.019-.651-1.852-.84l-2.955-.649c-1.628-.37-2.833-.962-3.613-1.772-.773-.811-1.16-1.838-1.16-3.08 0-1.03.289-1.932.864-2.704.576-.773 1.372-1.375 2.387-1.807 1.015-.44 2.178-.66 3.488-.66 1.887 0 3.372.41 4.455 1.228 1.083.81 1.8 1.898 2.148 3.261Zm11.429 13.546c-1.637 0-3.065-.375-4.284-1.125-1.22-.75-2.167-1.8-2.841-3.148-.675-1.348-1.012-2.924-1.012-4.727 0-1.81.337-3.394 1.012-4.75.674-1.356 1.62-2.41 2.84-3.16 1.22-.75 2.648-1.124 4.285-1.124 1.636 0 3.064.375 4.284 1.125 1.22.75 2.166 1.803 2.84 3.159.675 1.356 1.012 2.94 1.012 4.75 0 1.803-.337 3.379-1.011 4.727-.675 1.349-1.622 2.398-2.841 3.148-1.22.75-2.648 1.125-4.284 1.125Zm.011-2.853c1.06 0 1.94-.28 2.636-.84.697-.561 1.212-1.307 1.546-2.24.34-.93.511-1.957.511-3.079 0-1.113-.17-2.136-.511-3.068-.334-.94-.849-1.693-1.546-2.261-.697-.568-1.575-.852-2.636-.852-1.068 0-1.955.284-2.66.852-.696.568-1.215 1.322-1.556 2.261-.333.932-.5 1.955-.5 3.068 0 1.122.167 2.148.5 3.08.341.932.86 1.678 1.557 2.238.704.561 1.59.841 2.659.841ZM52.06 7.547 45.73 25h-3.636L35.753 7.547H39.4l4.42 13.432h.182l4.409-13.432h3.648Zm6.59-5.818V25h-3.397V1.73h3.398Zm4.572 23.272V7.547h3.397V25h-3.397Zm1.715-20.147a2.16 2.16 0 0 1-1.522-.591c-.417-.402-.625-.879-.625-1.432 0-.56.208-1.038.625-1.432a2.138 2.138 0 0 1 1.523-.602c.59 0 1.094.2 1.51.602.425.394.637.871.637 1.432 0 .553-.212 1.03-.636 1.432a2.12 2.12 0 0 1-1.511.59Zm17.31 12.909V7.547h3.41V25h-3.342v-3.02h-.181c-.402.931-1.046 1.708-1.932 2.33-.88.613-1.974.92-3.284.92-1.122 0-2.114-.246-2.978-.739-.856-.5-1.53-1.239-2.022-2.216-.485-.977-.728-2.186-.728-3.625V7.547h3.398V18.24c0 1.19.33 2.136.989 2.841.659.704 1.515 1.057 2.568 1.057.636 0 1.269-.16 1.898-.478.636-.318 1.162-.799 1.58-1.443.423-.644.632-1.462.624-2.454Zm7.975 7.238V7.547h3.26v2.84h.217c.364-.961.958-1.711 1.784-2.25.826-.545 1.814-.817 2.966-.817 1.166 0 2.144.272 2.932.818.795.545 1.382 1.295 1.761 2.25h.182c.417-.932 1.079-1.674 1.988-2.227.91-.561 1.993-.841 3.25-.841 1.584 0 2.875.496 3.875 1.488 1.008.993 1.512 2.489 1.512 4.489V25h-3.398V13.615c0-1.182-.322-2.038-.966-2.568-.644-.53-1.413-.796-2.307-.796-1.106 0-1.966.341-2.579 1.023-.614.674-.921 1.542-.921 2.602v11.125h-3.386V13.4c0-.947-.295-1.708-.886-2.284-.591-.576-1.36-.864-2.307-.864-.644 0-1.239.17-1.784.512a3.744 3.744 0 0 0-1.307 1.398c-.326.598-.489 1.291-.489 2.08V25h-3.397Z"/>
</svg>
