<svg xmlns="http://www.w3.org/2000/svg" fill="none" viewBox="0 0 114 26">
  <path fill="#fff" d="m14.364 11.807-3.08.545a3.65 3.65 0 0 0-.614-1.125c-.272-.356-.643-.648-1.113-.875-.47-.227-1.057-.34-1.762-.34-.962 0-1.765.215-2.409.647-.644.424-.966.973-.966 1.648 0 .583.216 1.053.648 1.409.432.356 1.129.648 2.091.875l2.773.636c1.606.371 2.803.943 3.59 1.716.789.773 1.182 1.777 1.182 3.011 0 1.046-.303 1.978-.909 2.796-.598.81-1.435 1.447-2.51 1.909-1.07.462-2.308.693-3.717.693-1.954 0-3.55-.416-4.784-1.25-1.235-.84-1.992-2.034-2.273-3.58l3.284-.5c.205.857.625 1.505 1.262 1.944.636.432 1.466.648 2.488.648 1.114 0 2.004-.232 2.67-.694.668-.47 1-1.041 1-1.716 0-.545-.204-1.003-.613-1.375-.401-.37-1.019-.651-1.852-.84l-2.955-.648c-1.628-.371-2.833-.962-3.613-1.773-.773-.81-1.16-1.837-1.16-3.08 0-1.03.289-1.931.864-2.704.576-.773 1.372-1.375 2.387-1.807 1.015-.44 2.178-.659 3.488-.659 1.887 0 3.372.41 4.455 1.227 1.083.811 1.8 1.898 2.148 3.262Zm11.429 13.545c-1.637 0-3.065-.375-4.284-1.125-1.22-.75-2.167-1.799-2.841-3.148-.675-1.348-1.012-2.924-1.012-4.727 0-1.81.337-3.394 1.012-4.75.674-1.356 1.62-2.409 2.84-3.159 1.22-.75 2.648-1.125 4.285-1.125 1.636 0 3.064.375 4.284 1.125 1.22.75 2.166 1.803 2.84 3.16.675 1.355 1.012 2.939 1.012 4.75 0 1.802-.337 3.378-1.011 4.726-.675 1.349-1.622 2.398-2.841 3.148-1.22.75-2.648 1.125-4.284 1.125Zm.011-2.852c1.06 0 1.94-.28 2.636-.841.697-.56 1.212-1.307 1.546-2.239.34-.931.511-1.958.511-3.08 0-1.113-.17-2.136-.511-3.067-.334-.94-.849-1.694-1.546-2.262-.697-.568-1.575-.852-2.636-.852-1.068 0-1.955.284-2.66.852-.696.569-1.215 1.322-1.556 2.262-.333.931-.5 1.954-.5 3.068 0 1.121.167 2.148.5 3.08.341.931.86 1.677 1.557 2.238.704.56 1.59.841 2.659.841ZM52.06 7.545 45.73 25h-3.636L35.753 7.545H39.4l4.42 13.432h.182l4.409-13.432h3.648Zm6.59-5.818V25h-3.397V1.727h3.398ZM63.222 25V7.545h3.397V25h-3.397Zm1.715-20.148a2.16 2.16 0 0 1-1.522-.59c-.417-.402-.625-.88-.625-1.432 0-.561.208-1.038.625-1.432a2.138 2.138 0 0 1 1.523-.603c.59 0 1.094.201 1.51.603.425.394.637.87.637 1.431 0 .554-.212 1.03-.636 1.432a2.12 2.12 0 0 1-1.511.591Zm17.31 12.909V7.545h3.41V25h-3.342v-3.023h-.181c-.402.932-1.046 1.709-1.932 2.33-.88.613-1.974.92-3.284.92-1.122 0-2.114-.246-2.978-.738-.856-.5-1.53-1.239-2.022-2.216-.485-.978-.728-2.186-.728-3.625V7.545h3.398V18.24c0 1.189.33 2.136.989 2.84.659.705 1.515 1.057 2.568 1.057.636 0 1.269-.159 1.898-.477.636-.318 1.162-.8 1.58-1.443.423-.644.632-1.462.624-2.455ZM90.222 25V7.545h3.26v2.841h.217c.364-.962.958-1.712 1.784-2.25.826-.545 1.814-.818 2.966-.818 1.166 0 2.144.273 2.932.818.795.546 1.382 1.296 1.761 2.25h.182c.417-.931 1.079-1.674 1.988-2.227.91-.56 1.993-.84 3.25-.84 1.584 0 2.875.495 3.875 1.488 1.008.992 1.512 2.488 1.512 4.488V25h-3.398V13.614c0-1.182-.322-2.038-.966-2.569-.644-.53-1.413-.795-2.307-.795-1.106 0-1.966.34-2.579 1.023-.614.674-.921 1.541-.921 2.602V25h-3.386V13.398c0-.947-.295-1.709-.886-2.284-.591-.576-1.36-.864-2.307-.864a3.3 3.3 0 0 0-1.784.511 3.76 3.76 0 0 0-1.307 1.398c-.326.598-.489 1.292-.489 2.08V25h-3.397Z"/>
</svg>
