<svg width="202" height="24" viewBox="0 0 202 24" fill="none" xmlns="http://www.w3.org/2000/svg">
<path d="M13.0352 7.46041L18.6721 0.563049H26.0704L16.5583 11.7889L26.0704 23.437H19.3767L13.0352 15.9413L6.69376 23.437H0L9.51219 11.7889L0 0.563049H7.39837L13.0352 7.46041Z" fill="#101010"/>
<path d="M33.8321 0.563049V23.437H28.1953V0.563049H33.8321Z" fill="#101010"/>
<path d="M60.9691 0.563049V5.84164H43.0016V9.53666H58.503V14.4633H43.0016V18.1584H60.9691V23.437H37.3648V0.563049H60.9691Z" fill="#101010"/>
<path d="M87.0409 0.563049V5.84164H70.1303V9.53666H83.8702V14.4633H70.1303V23.437H64.4935V0.563049H87.0409Z" fill="#101010"/>
<path d="M113.103 0.563049V5.84164H96.1925V9.53666H109.932V14.4633H96.1925V23.437H90.5557V0.563049H113.103Z" fill="#101010"/>
<path d="M140.222 0.563049V5.84164H122.255V9.53666H137.756V14.4633H122.255V18.1584H140.222V23.437H116.618V0.563049H140.222Z" fill="#101010"/>
<path d="M156.604 24C153.974 24 151.602 23.5308 149.488 22.5924C147.397 21.654 145.742 20.2815 144.52 18.4751C143.299 16.6452 142.688 14.4868 142.688 12C142.688 9.5132 143.299 7.36657 144.52 5.56012C145.742 3.7302 147.397 2.34604 149.488 1.40762C151.602 0.469208 153.974 0 156.604 0C159.775 0 162.57 0.668621 164.989 2.00586C167.432 3.31965 169.052 5.16129 169.851 7.53079L164.496 8.48094C164.238 7.65982 163.815 7.02639 163.228 6.58064C162.664 6.11144 161.854 5.78299 160.797 5.59531C159.763 5.38416 158.366 5.27859 156.604 5.27859C153.739 5.27859 151.637 5.81818 150.298 6.89736C148.983 7.95308 148.325 9.65396 148.325 12C148.325 14.346 148.983 16.0587 150.298 17.1378C151.637 18.1935 153.739 18.7214 156.604 18.7214C158.366 18.7214 159.763 18.6276 160.797 18.4399C161.854 18.2287 162.664 17.9003 163.228 17.4545C163.815 16.9853 164.238 16.3402 164.496 15.5191L169.851 16.4692C169.052 18.8387 167.432 20.6921 164.989 22.0293C162.57 23.3431 159.775 24 156.604 24Z" fill="#101010"/>
<path d="M195.923 5.84164H186.235V23.437H180.598V5.84164H170.91V0.563049H195.923V5.84164Z" fill="#101010"/>
<path d="M197.241 24C195.996 24 194.939 23.566 194.07 22.6979C193.201 21.8299 192.766 20.7742 192.766 19.5308C192.766 18.7097 192.966 17.9589 193.365 17.2786C193.764 16.5982 194.305 16.0587 194.986 15.6598C195.667 15.2375 196.418 15.0264 197.241 15.0264C198.039 15.0264 198.779 15.2375 199.46 15.6598C200.165 16.0587 200.717 16.61 201.116 17.3138C201.539 17.9941 201.75 18.7331 201.75 19.5308C201.75 20.3519 201.539 21.1026 201.116 21.783C200.717 22.4633 200.176 23.0029 199.495 23.4018C198.814 23.8006 198.063 24 197.241 24Z" fill="#445AFF"/>
</svg>
