<svg width="187" height="64" viewBox="0 0 187 64" fill="none" xmlns="http://www.w3.org/2000/svg">
<g filter="url(#filter0_ii_264_1695)">
<rect width="64" height="64" rx="16" fill="#445AFF"/>
<g clip-path="url(#clip0_264_1695)">
<g filter="url(#filter1_di_264_1695)">
<path fill-rule="evenodd" clip-rule="evenodd" d="M43.6667 24.2678C43.6667 23.2379 42.7419 22.4545 41.726 22.6238L27 25.0782V35.5878L41.726 38.0421C42.7419 38.2114 43.6667 37.428 43.6667 36.3981V24.2678ZM41.178 19.3359L25.1954 21.9996H20.3333C18.4924 21.9996 17 23.492 17 25.333V35.333C17 37.1739 18.4924 38.6663 20.3333 38.6663V40.333C20.3333 43.0944 22.5719 45.333 25.3333 45.333H27C29.7614 45.333 32 43.0944 32 40.333V39.8004L41.178 41.3301C44.2257 41.838 47 39.4878 47 36.3981V24.2678C47 21.1781 44.2257 18.8279 41.178 19.3359ZM28.6667 39.2449L25.1954 38.6663H23.6667V40.333C23.6667 41.2534 24.4129 41.9996 25.3333 41.9996H27C27.9205 41.9996 28.6667 41.2534 28.6667 40.333V39.2449ZM20.3333 25.333H23.6667V35.333H20.3333V25.333Z" fill="white"/>
</g>
</g>
</g>
<path d="M91.321 47.4119C89.3703 47.4119 87.6894 47.0568 86.2784 46.3466C84.8769 45.6364 83.7973 44.6705 83.0398 43.4489C82.2822 42.2178 81.9034 40.8258 81.9034 39.2727C81.9034 38.089 82.1496 37.0379 82.642 36.1193C83.1345 35.1913 83.821 34.3343 84.7017 33.5483C85.5824 32.7623 86.6004 31.9716 87.7557 31.1761L92.4432 27.8665C93.2386 27.3456 93.8589 26.7964 94.304 26.2188C94.7491 25.6316 94.9716 24.9072 94.9716 24.0455C94.9716 23.3636 94.678 22.7102 94.0909 22.0852C93.5038 21.4602 92.7178 21.1477 91.733 21.1477C91.0511 21.1477 90.4498 21.3134 89.929 21.6449C89.4176 21.9763 89.0152 22.4025 88.7216 22.9233C88.4375 23.4347 88.2955 23.9744 88.2955 24.5426C88.2955 25.2055 88.4754 25.8731 88.8352 26.5455C89.2045 27.2178 89.678 27.9138 90.2557 28.6335C90.8333 29.3437 91.4394 30.0824 92.0739 30.8494L105.582 47H100.781L89.6023 33.8608C88.6648 32.7528 87.7936 31.7112 86.9886 30.7358C86.1837 29.7509 85.5303 28.7566 85.0284 27.7528C84.536 26.7396 84.2898 25.6458 84.2898 24.4716C84.2898 23.1364 84.5928 21.9527 85.1989 20.9205C85.8144 19.8788 86.6714 19.0644 87.7699 18.4773C88.8684 17.8902 90.1562 17.5966 91.6335 17.5966C93.1297 17.5966 94.4129 17.8902 95.483 18.4773C96.5625 19.0549 97.3911 19.8267 97.9688 20.7926C98.5559 21.7491 98.8494 22.7955 98.8494 23.9318C98.8494 25.3144 98.5038 26.536 97.8125 27.5966C97.1307 28.6477 96.1884 29.6136 94.9858 30.4943L89.1477 34.7983C88.0114 35.6316 87.2206 36.4555 86.7756 37.2699C86.34 38.0748 86.1222 38.7045 86.1222 39.1591C86.1222 39.9924 86.3352 40.7642 86.7614 41.4744C87.197 42.1847 87.803 42.7528 88.5795 43.179C89.3655 43.6051 90.2841 43.8182 91.3352 43.8182C92.4148 43.8182 93.4659 43.5862 94.4886 43.1222C95.5208 42.6487 96.4536 41.9716 97.2869 41.0909C98.1297 40.2102 98.7973 39.1544 99.2898 37.9233C99.7822 36.6922 100.028 35.3144 100.028 33.7898H103.864C103.864 35.6648 103.651 37.2509 103.224 38.5483C102.798 39.8362 102.282 40.8873 101.676 41.7017C101.08 42.5066 100.516 43.1364 99.9858 43.5909C99.8153 43.7424 99.6544 43.8939 99.5028 44.0455C99.3513 44.197 99.1903 44.3485 99.0199 44.5C98.035 45.4943 96.8419 46.2282 95.4403 46.7017C94.0483 47.1752 92.6752 47.4119 91.321 47.4119Z" fill="#888888"/>
<g filter="url(#filter2_ii_264_1695)">
<rect x="123" width="64" height="64" rx="16" fill="#445AFF"/>
<g clip-path="url(#clip1_264_1695)">
<g filter="url(#filter3_di_264_1695)">
<path fill-rule="evenodd" clip-rule="evenodd" d="M151.667 16.9997C151.667 16.0792 150.92 15.333 150 15.333C149.08 15.333 148.333 16.0792 148.333 16.9997C143.731 16.9997 140 20.7306 140 25.333V38.6663C140 43.2687 143.731 46.9997 148.333 46.9997H161.667C166.269 46.9997 170 43.2687 170 38.6663V25.333C170 20.7306 166.269 16.9997 161.667 16.9997C161.667 16.0792 160.92 15.333 160 15.333C159.08 15.333 158.333 16.0792 158.333 16.9997H151.667ZM166.667 26.9997V25.333C166.667 22.5716 164.428 20.333 161.667 20.333V21.9997C161.667 22.9201 160.92 23.6663 160 23.6663C159.08 23.6663 158.333 22.9201 158.333 21.9997V20.333H151.667V21.9997C151.667 22.9201 150.92 23.6663 150 23.6663C149.08 23.6663 148.333 22.9201 148.333 21.9997V20.333C145.572 20.333 143.333 22.5716 143.333 25.333V26.9997H166.667ZM143.333 30.333V38.6663C143.333 41.4278 145.572 43.6663 148.333 43.6663H161.667C164.428 43.6663 166.667 41.4278 166.667 38.6663V30.333H143.333Z" fill="white"/>
</g>
</g>
</g>
<defs>
<filter id="filter0_ii_264_1695" x="-12" y="-12" width="88" height="88" filterUnits="userSpaceOnUse" color-interpolation-filters="sRGB">
<feFlood flood-opacity="0" result="BackgroundImageFix"/>
<feBlend mode="normal" in="SourceGraphic" in2="BackgroundImageFix" result="shape"/>
<feColorMatrix in="SourceAlpha" type="matrix" values="0 0 0 0 0 0 0 0 0 0 0 0 0 0 0 0 0 0 127 0" result="hardAlpha"/>
<feOffset dx="-12" dy="-12"/>
<feGaussianBlur stdDeviation="6"/>
<feComposite in2="hardAlpha" operator="arithmetic" k2="-1" k3="1"/>
<feColorMatrix type="matrix" values="0 0 0 0 0.105882 0 0 0 0 0.105882 0 0 0 0 0.105882 0 0 0 0.15 0"/>
<feBlend mode="normal" in2="shape" result="effect1_innerShadow_264_1695"/>
<feColorMatrix in="SourceAlpha" type="matrix" values="0 0 0 0 0 0 0 0 0 0 0 0 0 0 0 0 0 0 127 0" result="hardAlpha"/>
<feOffset dx="12" dy="12"/>
<feGaussianBlur stdDeviation="6"/>
<feComposite in2="hardAlpha" operator="arithmetic" k2="-1" k3="1"/>
<feColorMatrix type="matrix" values="0 0 0 0 1 0 0 0 0 1 0 0 0 0 1 0 0 0 0.15 0"/>
<feBlend mode="normal" in2="effect1_innerShadow_264_1695" result="effect2_innerShadow_264_1695"/>
</filter>
<filter id="filter1_di_264_1695" x="5" y="7.2666" width="54" height="50.0664" filterUnits="userSpaceOnUse" color-interpolation-filters="sRGB">
<feFlood flood-opacity="0" result="BackgroundImageFix"/>
<feColorMatrix in="SourceAlpha" type="matrix" values="0 0 0 0 0 0 0 0 0 0 0 0 0 0 0 0 0 0 127 0" result="hardAlpha"/>
<feOffset/>
<feGaussianBlur stdDeviation="6"/>
<feColorMatrix type="matrix" values="0 0 0 0 0.105882 0 0 0 0 0.105882 0 0 0 0 0.105882 0 0 0 0.15 0"/>
<feBlend mode="normal" in2="BackgroundImageFix" result="effect1_dropShadow_264_1695"/>
<feBlend mode="normal" in="SourceGraphic" in2="effect1_dropShadow_264_1695" result="shape"/>
<feColorMatrix in="SourceAlpha" type="matrix" values="0 0 0 0 0 0 0 0 0 0 0 0 0 0 0 0 0 0 127 0" result="hardAlpha"/>
<feOffset dx="-2" dy="-2"/>
<feGaussianBlur stdDeviation="3"/>
<feComposite in2="hardAlpha" operator="arithmetic" k2="-1" k3="1"/>
<feColorMatrix type="matrix" values="0 0 0 0 0.105882 0 0 0 0 0.105882 0 0 0 0 0.105882 0 0 0 0.15 0"/>
<feBlend mode="normal" in2="shape" result="effect2_innerShadow_264_1695"/>
</filter>
<filter id="filter2_ii_264_1695" x="111" y="-12" width="88" height="88" filterUnits="userSpaceOnUse" color-interpolation-filters="sRGB">
<feFlood flood-opacity="0" result="BackgroundImageFix"/>
<feBlend mode="normal" in="SourceGraphic" in2="BackgroundImageFix" result="shape"/>
<feColorMatrix in="SourceAlpha" type="matrix" values="0 0 0 0 0 0 0 0 0 0 0 0 0 0 0 0 0 0 127 0" result="hardAlpha"/>
<feOffset dx="-12" dy="-12"/>
<feGaussianBlur stdDeviation="6"/>
<feComposite in2="hardAlpha" operator="arithmetic" k2="-1" k3="1"/>
<feColorMatrix type="matrix" values="0 0 0 0 0.105882 0 0 0 0 0.105882 0 0 0 0 0.105882 0 0 0 0.15 0"/>
<feBlend mode="normal" in2="shape" result="effect1_innerShadow_264_1695"/>
<feColorMatrix in="SourceAlpha" type="matrix" values="0 0 0 0 0 0 0 0 0 0 0 0 0 0 0 0 0 0 127 0" result="hardAlpha"/>
<feOffset dx="12" dy="12"/>
<feGaussianBlur stdDeviation="6"/>
<feComposite in2="hardAlpha" operator="arithmetic" k2="-1" k3="1"/>
<feColorMatrix type="matrix" values="0 0 0 0 1 0 0 0 0 1 0 0 0 0 1 0 0 0 0.15 0"/>
<feBlend mode="normal" in2="effect1_innerShadow_264_1695" result="effect2_innerShadow_264_1695"/>
</filter>
<filter id="filter3_di_264_1695" x="128" y="3.33301" width="54" height="55.6665" filterUnits="userSpaceOnUse" color-interpolation-filters="sRGB">
<feFlood flood-opacity="0" result="BackgroundImageFix"/>
<feColorMatrix in="SourceAlpha" type="matrix" values="0 0 0 0 0 0 0 0 0 0 0 0 0 0 0 0 0 0 127 0" result="hardAlpha"/>
<feOffset/>
<feGaussianBlur stdDeviation="6"/>
<feColorMatrix type="matrix" values="0 0 0 0 0.105882 0 0 0 0 0.105882 0 0 0 0 0.105882 0 0 0 0.15 0"/>
<feBlend mode="normal" in2="BackgroundImageFix" result="effect1_dropShadow_264_1695"/>
<feBlend mode="normal" in="SourceGraphic" in2="effect1_dropShadow_264_1695" result="shape"/>
<feColorMatrix in="SourceAlpha" type="matrix" values="0 0 0 0 0 0 0 0 0 0 0 0 0 0 0 0 0 0 127 0" result="hardAlpha"/>
<feOffset dx="-2" dy="-2"/>
<feGaussianBlur stdDeviation="3"/>
<feComposite in2="hardAlpha" operator="arithmetic" k2="-1" k3="1"/>
<feColorMatrix type="matrix" values="0 0 0 0 0.105882 0 0 0 0 0.105882 0 0 0 0 0.105882 0 0 0 0.15 0"/>
<feBlend mode="normal" in2="shape" result="effect2_innerShadow_264_1695"/>
</filter>
<clipPath id="clip0_264_1695">
<rect width="40" height="40" fill="white" transform="translate(12 12)"/>
</clipPath>
<clipPath id="clip1_264_1695">
<rect width="40" height="40" fill="white" transform="translate(135 12)"/>
</clipPath>
</defs>
</svg>
