<svg width="389" height="311" viewBox="0 0 389 311" fill="none" xmlns="http://www.w3.org/2000/svg">
<g filter="url(#filter0_dd_389_8249)">
<rect x="22.9662" y="24.0039" width="226.304" height="179.944" rx="11.1069" fill="white" shape-rendering="crispEdges"/>
<path d="M40.4234 47.1113V39.0336H43.5157C44.0994 39.0336 44.5845 39.1256 44.9711 39.3096C45.3602 39.4911 45.6508 39.7396 45.8427 40.0551C46.0373 40.3706 46.1346 40.7283 46.1346 41.1279C46.1346 41.4566 46.0715 41.738 45.9453 41.972C45.8191 42.2034 45.6495 42.3914 45.4365 42.536C45.2235 42.6806 44.9855 42.7845 44.7226 42.8476V42.9265C45.0092 42.9423 45.284 43.0304 45.5469 43.1908C45.8125 43.3485 46.0294 43.572 46.1977 43.8613C46.366 44.1505 46.4502 44.5003 46.4502 44.9104C46.4502 45.3285 46.3489 45.7046 46.1465 46.0385C45.944 46.3698 45.639 46.6314 45.2314 46.8234C44.8238 47.0154 44.3111 47.1113 43.6931 47.1113H40.4234ZM41.8867 45.8886H43.4604C43.9916 45.8886 44.3742 45.7874 44.6082 45.5849C44.8449 45.3798 44.9632 45.1169 44.9632 44.7961C44.9632 44.5568 44.904 44.3412 44.7857 44.1492C44.6674 43.9546 44.4991 43.8021 44.2808 43.6917C44.0626 43.5786 43.8023 43.5221 43.4999 43.5221H41.8867V45.8886ZM41.8867 42.469H43.3342C43.5867 42.469 43.8141 42.423 44.0166 42.3309C44.219 42.2363 44.3781 42.1035 44.4938 41.9326C44.6122 41.759 44.6713 41.5539 44.6713 41.3173C44.6713 41.0044 44.5609 40.7467 44.34 40.5442C44.1218 40.3417 43.797 40.2405 43.3658 40.2405H41.8867V42.469ZM50.9298 39.0336V47.1113H49.4665V40.4574H49.4192L47.5299 41.6644V40.3233L49.5375 39.0336H50.9298ZM53.4314 47.1981C53.1922 47.1981 52.9871 47.114 52.8161 46.9457C52.6452 46.7774 52.5611 46.5723 52.5637 46.3304C52.5611 46.0937 52.6452 45.8912 52.8161 45.723C52.9871 45.5547 53.1922 45.4705 53.4314 45.4705C53.6628 45.4705 53.864 45.5547 54.0349 45.723C54.2085 45.8912 54.2965 46.0937 54.2992 46.3304C54.2965 46.4908 54.2545 46.6367 54.173 46.7682C54.0941 46.8997 53.9889 47.0048 53.8574 47.0837C53.7286 47.16 53.5866 47.1981 53.4314 47.1981ZM55.7575 47.1113V46.0543L58.5619 43.3051C58.8301 43.0343 59.0536 42.7937 59.2324 42.5834C59.4112 42.373 59.5453 42.1692 59.6347 41.972C59.7241 41.7748 59.7688 41.5644 59.7688 41.3409C59.7688 41.0859 59.711 40.8676 59.5953 40.6862C59.4796 40.5021 59.3205 40.3601 59.118 40.2602C58.9156 40.1603 58.6855 40.1103 58.4278 40.1103C58.1622 40.1103 57.9295 40.1655 57.7297 40.276C57.5298 40.3838 57.3747 40.5376 57.2642 40.7375C57.1564 40.9373 57.1025 41.1753 57.1025 41.4514H55.7102C55.7102 40.9386 55.8272 40.4929 56.0613 40.1143C56.2953 39.7356 56.6174 39.4424 57.0276 39.2347C57.4404 39.027 57.9137 38.9231 58.4475 38.9231C58.9892 38.9231 59.4651 39.0243 59.8753 39.2268C60.2855 39.4293 60.6037 39.7067 60.8298 40.0591C61.0586 40.4114 61.173 40.8137 61.173 41.266C61.173 41.5684 61.1151 41.8655 60.9994 42.1574C60.8837 42.4493 60.6799 42.7727 60.3881 43.1277C60.0988 43.4826 59.6926 43.9126 59.1693 44.4174L57.777 45.8334V45.8886H61.2952V47.1113H55.7575Z" fill="#282828"/>
<path d="M41.3384 54.0433V61.1113H40.4825V54.0433H41.3384ZM43.7586 57.9224V61.1113H42.9441V55.8103H43.731V56.6386H43.8C43.9243 56.3694 44.1129 56.1531 44.366 55.9898C44.6191 55.8241 44.9458 55.7413 45.3461 55.7413C45.7051 55.7413 46.0191 55.8149 46.2883 55.9621C46.5575 56.1071 46.7669 56.328 46.9164 56.6248C47.066 56.9193 47.1408 57.292 47.1408 57.743V61.1113H46.3263V57.7982C46.3263 57.3817 46.2181 57.0573 46.0019 56.8249C45.7856 56.5903 45.4888 56.4729 45.1115 56.4729C44.8515 56.4729 44.6191 56.5293 44.4143 56.642C44.2119 56.7548 44.0519 56.9193 43.9346 57.1355C43.8173 57.3518 43.7586 57.6141 43.7586 57.9224ZM50.9345 55.8103V56.5005H48.1873V55.8103H50.9345ZM48.988 54.5402H49.8025V59.5928C49.8025 59.8229 49.8359 59.9954 49.9026 60.1105C49.9716 60.2232 50.059 60.2991 50.1649 60.3383C50.273 60.3751 50.3869 60.3935 50.5065 60.3935C50.5963 60.3935 50.6699 60.3889 50.7274 60.3797C50.7849 60.3682 50.831 60.359 50.8655 60.3521L51.0311 61.0837C50.9759 61.1044 50.8988 61.1251 50.7999 61.1458C50.701 61.1688 50.5756 61.1804 50.4237 61.1804C50.1936 61.1804 49.9682 61.1309 49.7473 61.032C49.5287 60.933 49.3469 60.7823 49.202 60.5798C49.0593 60.3774 48.988 60.122 48.988 59.8137V54.5402ZM54.3253 61.2218C53.8145 61.2218 53.3739 61.109 53.0035 60.8835C52.6354 60.6558 52.3512 60.3383 52.151 59.931C51.9532 59.5215 51.8542 59.0452 51.8542 58.5022C51.8542 57.9592 51.9532 57.4807 52.151 57.0665C52.3512 56.6501 52.6296 56.3257 52.9862 56.0933C53.3452 55.8586 53.7639 55.7413 54.2425 55.7413C54.5186 55.7413 54.7912 55.7873 55.0604 55.8793C55.3296 55.9713 55.5746 56.1209 55.7955 56.328C56.0164 56.5327 56.1924 56.8042 56.3235 57.1425C56.4547 57.4807 56.5203 57.8971 56.5203 58.3918V58.7369H52.434V58.0329H55.692C55.692 57.7338 55.6322 57.4669 55.5125 57.2322C55.3952 56.9975 55.2272 56.8123 55.0086 56.6765C54.7924 56.5408 54.537 56.4729 54.2425 56.4729C53.9181 56.4729 53.6374 56.5534 53.4004 56.7145C53.1657 56.8733 52.9851 57.0803 52.8585 57.3357C52.732 57.5911 52.6687 57.8649 52.6687 58.1571V58.6265C52.6687 59.0268 52.7377 59.3662 52.8758 59.6446C53.0161 59.9207 53.2106 60.1312 53.459 60.2761C53.7075 60.4188 53.9963 60.4901 54.3253 60.4901C54.5393 60.4901 54.7325 60.4602 54.9051 60.4004C55.08 60.3383 55.2307 60.2462 55.3572 60.1243C55.4838 60 55.5815 59.8459 55.6506 59.6618L56.4374 59.8827C56.3546 60.1496 56.2154 60.3843 56.0198 60.5867C55.8243 60.7869 55.5827 60.9434 55.2951 61.0561C55.0075 61.1665 54.6842 61.2218 54.3253 61.2218ZM57.7592 61.1113V55.8103H58.5461V56.611H58.6013C58.698 56.3487 58.8728 56.1359 59.1259 55.9725C59.379 55.8091 59.6643 55.7275 59.9818 55.7275C60.0416 55.7275 60.1164 55.7286 60.2061 55.7309C60.2959 55.7332 60.3637 55.7367 60.4098 55.7413V56.5696C60.3822 56.5626 60.3189 56.5523 60.2199 56.5385C60.1233 56.5224 60.0209 56.5143 59.9128 56.5143C59.6551 56.5143 59.425 56.5684 59.2226 56.6765C59.0224 56.7824 58.8636 56.9296 58.7463 57.1183C58.6312 57.3047 58.5737 57.5175 58.5737 57.7568V61.1113H57.7592ZM61.3752 61.1113V55.8103H62.1621V56.6386H62.2311C62.3416 56.3556 62.5199 56.1359 62.7661 55.9794C63.0123 55.8206 63.3079 55.7413 63.653 55.7413C64.0027 55.7413 64.2938 55.8206 64.5262 55.9794C64.7609 56.1359 64.9438 56.3556 65.0749 56.6386H65.1301C65.2659 56.3648 65.4695 56.1474 65.741 55.9863C66.0125 55.8229 66.3381 55.7413 66.7177 55.7413C67.1917 55.7413 67.5793 55.8897 67.8807 56.1865C68.1821 56.481 68.3329 56.94 68.3329 57.5635V61.1113H67.5184V57.5635C67.5184 57.1724 67.4114 56.8928 67.1974 56.7249C66.9834 56.5569 66.7315 56.4729 66.4416 56.4729C66.0689 56.4729 65.7801 56.5857 65.5753 56.8111C65.3706 57.0343 65.2682 57.3173 65.2682 57.6601V61.1113H64.4399V57.4807C64.4399 57.1793 64.3421 56.9365 64.1465 56.7525C63.951 56.5661 63.699 56.4729 63.3907 56.4729C63.1791 56.4729 62.9812 56.5293 62.7971 56.642C62.6154 56.7548 62.4681 56.9112 62.3554 57.1114C62.2449 57.3093 62.1897 57.5382 62.1897 57.7982V61.1113H61.3752ZM72.0446 61.2218C71.5338 61.2218 71.0932 61.109 70.7228 60.8835C70.3547 60.6558 70.0705 60.3383 69.8704 59.931C69.6725 59.5215 69.5736 59.0452 69.5736 58.5022C69.5736 57.9592 69.6725 57.4807 69.8704 57.0665C70.0705 56.6501 70.3489 56.3257 70.7055 56.0933C71.0645 55.8586 71.4832 55.7413 71.9618 55.7413C72.2379 55.7413 72.5105 55.7873 72.7797 55.8793C73.0489 55.9713 73.2939 56.1209 73.5148 56.328C73.7357 56.5327 73.9117 56.8042 74.0429 57.1425C74.174 57.4807 74.2396 57.8971 74.2396 58.3918V58.7369H70.1534V58.0329H73.4113C73.4113 57.7338 73.3515 57.4669 73.2318 57.2322C73.1145 56.9975 72.9465 56.8123 72.728 56.6765C72.5117 56.5408 72.2563 56.4729 71.9618 56.4729C71.6374 56.4729 71.3567 56.5534 71.1197 56.7145C70.885 56.8733 70.7044 57.0803 70.5779 57.3357C70.4513 57.5911 70.388 57.8649 70.388 58.1571V58.6265C70.388 59.0268 70.4571 59.3662 70.5951 59.6446C70.7355 59.9207 70.9299 60.1312 71.1784 60.2761C71.4268 60.4188 71.7156 60.4901 72.0446 60.4901C72.2586 60.4901 72.4519 60.4602 72.6244 60.4004C72.7993 60.3383 72.95 60.2462 73.0765 60.1243C73.2031 60 73.3009 59.8459 73.3699 59.6618L74.1567 59.8827C74.0739 60.1496 73.9347 60.3843 73.7392 60.5867C73.5436 60.7869 73.302 60.9434 73.0144 61.0561C72.7268 61.1665 72.4035 61.2218 72.0446 61.2218ZM77.4803 61.2218C77.0385 61.2218 76.6485 61.1102 76.3103 60.887C75.9721 60.6615 75.7075 60.344 75.5165 59.9345C75.3256 59.5226 75.2301 59.036 75.2301 58.4746C75.2301 57.9178 75.3256 57.4347 75.5165 57.0251C75.7075 56.6156 75.9732 56.2992 76.3137 56.076C76.6543 55.8529 77.0477 55.7413 77.4941 55.7413C77.8392 55.7413 78.1118 55.7988 78.312 55.9138C78.5145 56.0266 78.6686 56.1554 78.7745 56.3004C78.8826 56.443 78.9666 56.5603 79.0264 56.6524H79.0954V54.0433H79.9099V61.1113H79.123V60.2968H79.0264C78.9666 60.3935 78.8814 60.5154 78.771 60.6627C78.6606 60.8076 78.503 60.9376 78.2982 61.0527C78.0934 61.1654 77.8208 61.2218 77.4803 61.2218ZM77.5907 60.4901C77.9174 60.4901 78.1935 60.405 78.419 60.2347C78.6445 60.0622 78.8159 59.824 78.9332 59.5203C79.0505 59.2143 79.1092 58.8611 79.1092 58.4608C79.1092 58.0651 79.0517 57.7188 78.9367 57.422C78.8216 57.1229 78.6514 56.8905 78.4259 56.7249C78.2004 56.5569 77.922 56.4729 77.5907 56.4729C77.2456 56.4729 76.958 56.5615 76.7279 56.7387C76.5001 56.9135 76.3287 57.1517 76.2137 57.4531C76.1009 57.7522 76.0446 58.0881 76.0446 58.4608C76.0446 58.8381 76.1021 59.181 76.2171 59.4893C76.3345 59.7953 76.507 60.0392 76.7348 60.2209C76.9649 60.4004 77.2502 60.4901 77.5907 60.4901ZM81.5147 61.1113V55.8103H82.3292V61.1113H81.5147ZM81.9288 54.9268C81.7701 54.9268 81.6332 54.8727 81.5182 54.7646C81.4054 54.6564 81.349 54.5264 81.349 54.3746C81.349 54.2227 81.4054 54.0927 81.5182 53.9846C81.6332 53.8765 81.7701 53.8224 81.9288 53.8224C82.0876 53.8224 82.2233 53.8765 82.3361 53.9846C82.4511 54.0927 82.5086 54.2227 82.5086 54.3746C82.5086 54.5264 82.4511 54.6564 82.3361 54.7646C82.2233 54.8727 82.0876 54.9268 81.9288 54.9268ZM85.3809 61.2356C85.045 61.2356 84.7401 61.1723 84.4663 61.0458C84.1925 60.9169 83.9751 60.7317 83.8141 60.4901C83.653 60.2462 83.5725 59.9517 83.5725 59.6066C83.5725 59.3029 83.6323 59.0567 83.7519 58.868C83.8716 58.6771 84.0315 58.5275 84.2317 58.4194C84.4318 58.3113 84.6527 58.2307 84.8943 58.1778C85.1382 58.1226 85.3832 58.0789 85.6294 58.0467C85.9515 58.0052 86.2126 57.9742 86.4128 57.9535C86.6153 57.9305 86.7625 57.8925 86.8546 57.8396C86.9489 57.7867 86.9961 57.6946 86.9961 57.5635V57.5359C86.9961 57.1954 86.9029 56.9308 86.7165 56.7421C86.5325 56.5534 86.2529 56.4591 85.8779 56.4591C85.489 56.4591 85.1842 56.5442 84.9633 56.7145C84.7424 56.8848 84.5871 57.0665 84.4974 57.2598L83.7243 56.9837C83.8624 56.6616 84.0464 56.4108 84.2765 56.2313C84.5089 56.0496 84.762 55.923 85.0358 55.8517C85.3119 55.7781 85.5834 55.7413 85.8503 55.7413C86.0205 55.7413 86.2161 55.762 86.437 55.8034C86.6601 55.8425 86.8753 55.9242 87.0823 56.0484C87.2917 56.1727 87.4654 56.3602 87.6035 56.611C87.7415 56.8618 87.8105 57.1977 87.8105 57.6187V61.1113H86.9961V60.3935H86.9547C86.8994 60.5085 86.8074 60.6316 86.6786 60.7628C86.5497 60.8939 86.3783 61.0055 86.1643 61.0975C85.9504 61.1896 85.6892 61.2356 85.3809 61.2356ZM85.5051 60.5039C85.8273 60.5039 86.0988 60.4406 86.3196 60.3141C86.5428 60.1876 86.7108 60.0242 86.8235 59.824C86.9385 59.6239 86.9961 59.4133 86.9961 59.1925V58.447C86.9616 58.4884 86.8856 58.5264 86.7683 58.5609C86.6532 58.5931 86.5198 58.6219 86.3679 58.6472C86.2184 58.6702 86.0723 58.6909 85.9296 58.7093C85.7893 58.7254 85.6754 58.7392 85.588 58.7507C85.3763 58.7783 85.1784 58.8232 84.9944 58.8853C84.8126 58.9451 84.6654 59.036 84.5526 59.1579C84.4422 59.2776 84.387 59.4409 84.387 59.648C84.387 59.931 84.4916 60.145 84.701 60.2899C84.9127 60.4326 85.1807 60.5039 85.5051 60.5039ZM91.6026 55.8103V56.5005H88.8554V55.8103H91.6026ZM89.6561 54.5402H90.4706V59.5928C90.4706 59.8229 90.5039 59.9954 90.5706 60.1105C90.6397 60.2232 90.7271 60.2991 90.8329 60.3383C90.9411 60.3751 91.055 60.3935 91.1746 60.3935C91.2643 60.3935 91.338 60.3889 91.3955 60.3797C91.453 60.3682 91.499 60.359 91.5335 60.3521L91.6992 61.0837C91.644 61.1044 91.5669 61.1251 91.468 61.1458C91.369 61.1688 91.2436 61.1804 91.0918 61.1804C90.8617 61.1804 90.6362 61.1309 90.4153 61.032C90.1968 60.933 90.015 60.7823 89.8701 60.5798C89.7274 60.3774 89.6561 60.122 89.6561 59.8137V54.5402ZM94.9934 61.2218C94.4826 61.2218 94.042 61.109 93.6715 60.8835C93.3034 60.6558 93.0193 60.3383 92.8191 59.931C92.6212 59.5215 92.5223 59.0452 92.5223 58.5022C92.5223 57.9592 92.6212 57.4807 92.8191 57.0665C93.0193 56.6501 93.2977 56.3257 93.6543 56.0933C94.0132 55.8586 94.432 55.7413 94.9105 55.7413C95.1866 55.7413 95.4593 55.7873 95.7285 55.8793C95.9977 55.9713 96.2427 56.1209 96.4636 56.328C96.6844 56.5327 96.8605 56.8042 96.9916 57.1425C97.1227 57.4807 97.1883 57.8971 97.1883 58.3918V58.7369H93.1021V58.0329H96.36C96.36 57.7338 96.3002 57.4669 96.1806 57.2322C96.0632 56.9975 95.8953 56.8123 95.6767 56.6765C95.4604 56.5408 95.205 56.4729 94.9105 56.4729C94.5861 56.4729 94.3054 56.5534 94.0684 56.7145C93.8338 56.8733 93.6531 57.0803 93.5266 57.3357C93.4001 57.5911 93.3368 57.8649 93.3368 58.1571V58.6265C93.3368 59.0268 93.4058 59.3662 93.5439 59.6446C93.6842 59.9207 93.8786 60.1312 94.1271 60.2761C94.3756 60.4188 94.6643 60.4901 94.9934 60.4901C95.2073 60.4901 95.4006 60.4602 95.5732 60.4004C95.748 60.3383 95.8987 60.2462 96.0253 60.1243C96.1518 60 96.2496 59.8459 96.3186 59.6618L97.1055 59.8827C97.0227 60.1496 96.8835 60.3843 96.6879 60.5867C96.4923 60.7869 96.2507 60.9434 95.9631 61.0561C95.6755 61.1665 95.3523 61.2218 94.9934 61.2218Z" fill="#282828"/>
<rect x="34.0732" y="73.4414" width="204.09" height="27.7674" rx="5.55347" fill="#EDEFFF"/>
<path fill-rule="evenodd" clip-rule="evenodd" d="M52.8161 84.1046C52.8161 83.6756 52.431 83.3493 52.0078 83.4198L45.8743 84.4421V88.8194L52.0078 89.8417C52.431 89.9122 52.8161 89.5859 52.8161 89.1569V84.1046ZM51.7796 82.0503L45.1227 83.1598H43.0976C42.3308 83.1598 41.7092 83.7814 41.7092 84.5482V88.7133C41.7092 89.4801 42.3308 90.1017 43.0976 90.1017V90.7958C43.0976 91.946 44.03 92.8784 45.1801 92.8784H45.8743C47.0245 92.8784 47.9569 91.946 47.9569 90.7958V90.574L51.7796 91.2111C53.049 91.4227 54.2045 90.4438 54.2045 89.1569V84.1046C54.2045 82.8177 53.049 81.8388 51.7796 82.0503ZM46.5685 90.3426L45.1227 90.1017H44.4859V90.7958C44.4859 91.1792 44.7967 91.49 45.1801 91.49H45.8743C46.2577 91.49 46.5685 91.1792 46.5685 90.7958V90.3426ZM43.0976 84.5482H44.4859V88.7133H43.0976V84.5482Z" fill="#445AFF"/>
<path d="M68.6601 86.7902C68.6601 87.5357 68.5255 88.1799 68.2563 88.7229C67.9871 89.2659 67.6178 89.6846 67.1485 89.9791C66.6791 90.2736 66.143 90.4209 65.5402 90.4209C64.9374 90.4209 64.4013 90.2736 63.932 89.9791C63.4626 89.6846 63.0933 89.2659 62.8241 88.7229C62.5549 88.1799 62.4203 87.5357 62.4203 86.7902C62.4203 86.0447 62.5549 85.4005 62.8241 84.8575C63.0933 84.3145 63.4626 83.8958 63.932 83.6013C64.4013 83.3068 64.9374 83.1595 65.5402 83.1595C66.143 83.1595 66.6791 83.3068 67.1485 83.6013C67.6178 83.8958 67.9871 84.3145 68.2563 84.8575C68.5255 85.4005 68.6601 86.0447 68.6601 86.7902ZM67.8318 86.7902C67.8318 86.1782 67.7294 85.6617 67.5247 85.2406C67.3222 84.8196 67.0472 84.5009 66.6998 84.2846C66.3547 84.0683 65.9682 83.9602 65.5402 83.9602C65.1123 83.9602 64.7246 84.0683 64.3772 84.2846C64.032 84.5009 63.7571 84.8196 63.5523 85.2406C63.3499 85.6617 63.2486 86.1782 63.2486 86.7902C63.2486 87.4022 63.3499 87.9187 63.5523 88.3398C63.7571 88.7608 64.032 89.0795 64.3772 89.2958C64.7246 89.512 65.1123 89.6202 65.5402 89.6202C65.9682 89.6202 66.3547 89.512 66.6998 89.2958C67.0472 89.0795 67.3222 88.7608 67.5247 88.3398C67.7294 87.9187 67.8318 87.4022 67.8318 86.7902ZM73.9232 83.0353L74.3373 83.5323C74.1763 83.6887 73.9899 83.798 73.7782 83.8601C73.5666 83.9222 73.3273 83.9602 73.0604 83.974C72.7935 83.9878 72.4967 84.0016 72.17 84.0154C71.8018 84.0292 71.497 84.119 71.2554 84.2846C71.0138 84.4503 70.8274 84.6896 70.6963 85.0025C70.5652 85.3154 70.4812 85.6996 70.4444 86.1552H70.5134C70.6929 85.8239 70.9413 85.58 71.2588 85.4235C71.5764 85.2671 71.9169 85.1888 72.2804 85.1888C72.6945 85.1888 73.0673 85.2855 73.3986 85.4787C73.7299 85.672 73.9922 85.9585 74.1855 86.3381C74.3787 86.7177 74.4754 87.1859 74.4754 87.7427C74.4754 88.2972 74.3764 88.7758 74.1786 89.1784C73.983 89.5811 73.708 89.8917 73.3537 90.1102C73.0017 90.3265 72.5887 90.4347 72.1147 90.4347C71.6408 90.4347 71.2255 90.3231 70.8689 90.0999C70.5122 89.8744 70.235 89.5408 70.0371 89.099C69.8393 88.655 69.7403 88.1062 69.7403 87.4528V86.8868C69.7403 85.7065 69.9405 84.8115 70.3408 84.2018C70.7435 83.5921 71.3486 83.2769 72.1562 83.2562C72.4415 83.247 72.6957 83.2447 72.9189 83.2493C73.1421 83.2539 73.3365 83.2435 73.5021 83.2182C73.6678 83.1929 73.8081 83.1319 73.9232 83.0353ZM72.1147 89.703C72.4346 89.703 72.7095 89.6225 72.9396 89.4614C73.172 89.3004 73.3503 89.0737 73.4745 88.7815C73.5988 88.487 73.6609 88.1408 73.6609 87.7427C73.6609 87.3562 73.5976 87.0272 73.4711 86.7557C73.3468 86.4842 73.1685 86.2771 72.9361 86.1345C72.7038 85.9918 72.4254 85.9205 72.1009 85.9205C71.864 85.9205 71.6511 85.9608 71.4625 86.0413C71.2738 86.1218 71.1127 86.2403 70.9793 86.3968C70.8459 86.5532 70.7423 86.7442 70.6687 86.9697C70.5974 87.1951 70.5594 87.4528 70.5548 87.7427C70.5548 88.3363 70.694 88.8114 70.9724 89.1681C71.2508 89.5247 71.6316 89.703 72.1147 89.703ZM76.3692 85.0232V85.7824H74.8921V85.0232H76.3692ZM77.0733 86.942H78.5918C79.213 86.942 79.6881 87.0996 80.0171 87.4149C80.3461 87.7301 80.5106 88.1293 80.5106 88.6124C80.5106 88.9299 80.437 89.2187 80.2898 89.4787C80.1425 89.7364 79.9262 89.9423 79.6409 90.0964C79.3556 90.2483 79.0059 90.3242 78.5918 90.3242H76.3692V85.0232H77.1837V89.565H78.5918C78.9139 89.565 79.1785 89.4798 79.3856 89.3096C79.5926 89.1393 79.6962 88.9207 79.6962 88.6538C79.6962 88.3731 79.5926 88.1442 79.3856 87.9671C79.1785 87.7899 78.9139 87.7013 78.5918 87.7013H77.0733V86.942ZM84.9463 90.3242V85.7686H83.5382C83.2207 85.7686 82.9711 85.8423 82.7893 85.9895C82.6075 86.1368 82.5167 86.3392 82.5167 86.5969C82.5167 86.85 82.5983 87.049 82.7617 87.194C82.9274 87.3389 83.154 87.4114 83.4416 87.4114H85.1534V88.1707H83.4416C83.0827 88.1707 82.7732 88.1074 82.5132 87.9809C82.2532 87.8543 82.053 87.6737 81.9127 87.439C81.7724 87.202 81.7022 86.9213 81.7022 86.5969C81.7022 86.2702 81.7758 85.9895 81.9231 85.7548C82.0703 85.5202 82.2808 85.3395 82.5546 85.213C82.8307 85.0865 83.1586 85.0232 83.5382 85.0232H85.7194V90.3242H84.9463ZM81.4123 90.3242L82.917 87.6875H83.8005L82.2958 90.3242H81.4123ZM87.2146 90.3242V85.0232H89.382C89.9526 85.0232 90.4058 85.152 90.7417 85.4097C91.0776 85.6674 91.2456 86.0079 91.2456 86.4313C91.2456 86.7534 91.1501 87.003 90.9592 87.1802C90.7682 87.355 90.5232 87.4735 90.224 87.5357C90.4196 87.5633 90.6094 87.6323 90.7935 87.7427C90.9799 87.8532 91.134 88.005 91.256 88.1983C91.3779 88.3892 91.4389 88.6239 91.4389 88.9023C91.4389 89.1738 91.3698 89.4166 91.2318 89.6305C91.0937 89.8445 90.8959 90.0136 90.6382 90.1379C90.3805 90.2621 90.0722 90.3242 89.7133 90.3242H87.2146ZM87.9877 89.5788H89.7133C89.994 89.5788 90.2137 89.512 90.3724 89.3786C90.5312 89.2451 90.6106 89.0634 90.6106 88.8333C90.6106 88.5595 90.5312 88.3444 90.3724 88.1879C90.2137 88.0292 89.994 87.9498 89.7133 87.9498H87.9877V89.5788ZM87.9877 87.2458H89.382C89.6005 87.2458 89.788 87.2158 89.9445 87.156C90.101 87.0939 90.2206 87.0065 90.3034 86.8937C90.3886 86.7787 90.4311 86.6429 90.4311 86.4865C90.4311 86.2633 90.3379 86.0884 90.1516 85.9619C89.9652 85.8331 89.7087 85.7686 89.382 85.7686H87.9877V87.2458ZM92.2024 90.3242V89.565H92.3957C92.5545 89.565 92.6868 89.5339 92.7926 89.4718C92.8984 89.4074 92.9836 89.2958 93.048 89.137C93.1147 88.976 93.1653 88.7528 93.1998 88.4675C93.2367 88.1799 93.2631 87.814 93.2792 87.37L93.3759 85.0232H96.9099V90.3242H96.0954V85.7824H94.1489L94.0661 87.6737C94.0477 88.1085 94.0086 88.4916 93.9488 88.8229C93.8912 89.152 93.8027 89.4281 93.683 89.6512C93.5657 89.8744 93.4092 90.0424 93.2136 90.1551C93.0181 90.2678 92.773 90.3242 92.4785 90.3242H92.2024ZM100.627 90.4347C100.116 90.4347 99.6754 90.3219 99.305 90.0964C98.9369 89.8687 98.6527 89.5512 98.4526 89.1439C98.2547 88.7344 98.1558 88.2581 98.1558 87.7151C98.1558 87.1721 98.2547 86.6936 98.4526 86.2794C98.6527 85.863 98.9311 85.5386 99.2878 85.3062C99.6467 85.0715 100.065 84.9542 100.544 84.9542C100.82 84.9542 101.093 85.0002 101.362 85.0922C101.631 85.1842 101.876 85.3338 102.097 85.5409C102.318 85.7456 102.494 86.0171 102.625 86.3553C102.756 86.6936 102.822 87.11 102.822 87.6047V87.9498H98.7356V87.2458H101.993C101.993 86.9466 101.934 86.6798 101.814 86.4451C101.697 86.2104 101.529 86.0252 101.31 85.8894C101.094 85.7537 100.838 85.6858 100.544 85.6858C100.22 85.6858 99.9389 85.7663 99.7019 85.9274C99.4672 86.0861 99.2866 86.2932 99.1601 86.5486C99.0335 86.804 98.9702 87.0778 98.9702 87.37V87.8394C98.9702 88.2397 99.0393 88.5791 99.1773 88.8575C99.3177 89.1336 99.5121 89.3441 99.7606 89.489C100.009 89.6317 100.298 89.703 100.627 89.703C100.841 89.703 101.034 89.6731 101.207 89.6133C101.381 89.5512 101.532 89.4591 101.659 89.3372C101.785 89.2129 101.883 89.0588 101.952 88.8747L102.739 89.0956C102.656 89.3625 102.517 89.5972 102.321 89.7996C102.126 89.9998 101.884 90.1563 101.597 90.269C101.309 90.3794 100.986 90.4347 100.627 90.4347ZM107.609 87.301V88.0602H104.682V87.301H107.609ZM104.875 85.0232V90.3242H104.061V85.0232H104.875ZM108.23 85.0232V90.3242H107.415V85.0232H108.23ZM110.532 89.1232L113.086 85.0232H114.024V90.3242H113.21V86.2242L110.67 90.3242H109.717V85.0232H110.532V89.1232ZM118.705 90.3242V85.7686H117.297C116.979 85.7686 116.73 85.8423 116.548 85.9895C116.366 86.1368 116.275 86.3392 116.275 86.5969C116.275 86.85 116.357 87.049 116.52 87.194C116.686 87.3389 116.913 87.4114 117.2 87.4114H118.912V88.1707H117.2C116.841 88.1707 116.532 88.1074 116.272 87.9809C116.012 87.8543 115.812 87.6737 115.671 87.439C115.531 87.202 115.461 86.9213 115.461 86.5969C115.461 86.2702 115.535 85.9895 115.682 85.7548C115.829 85.5202 116.04 85.3395 116.313 85.213C116.589 85.0865 116.917 85.0232 117.297 85.0232H119.478V90.3242H118.705ZM115.171 90.3242L116.676 87.6875H117.559L116.055 90.3242H115.171Z" fill="#445AFF"/>
<path d="M224.623 82.6977C225.195 82.7158 225.567 83.0365 225.763 83.641L225.794 83.7443L225.818 83.8369C225.827 83.8725 225.838 83.9105 225.851 83.9499L225.878 84.0268L225.894 84.035L225.927 84.024L225.99 83.9993L226.064 83.9666C226.734 83.649 227.249 83.7079 227.668 84.1775L227.728 84.2474L228.116 84.7379C228.463 85.2022 228.452 85.6985 228.114 86.2342L228.055 86.3239L228 86.4011C227.977 86.4311 227.955 86.4644 227.932 86.5001L227.899 86.5554L227.883 86.5831L227.885 86.5928L227.928 86.622L227.988 86.6588L228.061 86.6991C228.719 87.0411 228.99 87.4909 228.886 88.1158L228.868 88.2063L228.752 88.7169C228.678 89.0473 228.619 89.2038 228.387 89.4184C228.162 89.6269 227.906 89.713 227.567 89.7416L227.463 89.7485L227.369 89.7515C227.332 89.7522 227.293 89.7545 227.252 89.7584L227.167 89.7687L227.173 89.8374L227.179 89.8836L227.194 89.9699C227.348 90.706 227.175 91.2041 226.632 91.5149L226.551 91.558L225.995 91.8333C225.473 92.0724 225 91.9504 224.564 91.4947L224.491 91.4156L224.43 91.3432C224.406 91.3142 224.379 91.284 224.35 91.2533L224.304 91.2071L224.28 91.1849L224.237 91.227L224.187 91.2791L224.131 91.3432C223.68 91.8902 223.204 92.0866 222.627 91.8579L222.543 91.8223L222.045 91.5758L221.897 91.4986C221.672 91.3732 221.545 91.2531 221.422 90.9871C221.291 90.707 221.283 90.432 221.346 90.0784L221.367 89.9699C221.374 89.9337 221.381 89.8944 221.386 89.8529L221.395 89.7702L221.393 89.7682L221.344 89.7615L221.275 89.7552L221.192 89.7515C220.454 89.7379 220.016 89.4549 219.841 88.8455L219.818 88.7562L219.68 88.1419C219.568 87.5699 219.791 87.1285 220.325 86.7978L220.417 86.7437L220.5 86.6991C220.533 86.6821 220.567 86.6625 220.603 86.6406L220.676 86.5918L220.678 86.5827L220.648 86.5306L220.61 86.4702L220.562 86.4011C220.117 85.7999 220.067 85.2743 220.431 84.7587L220.485 84.6851L220.876 84.196C221.25 83.7545 221.728 83.6618 222.313 83.8869L222.411 83.9273L222.497 83.9666C222.529 83.9818 222.565 83.9969 222.602 84.0114L222.667 84.0345L222.684 84.0263L222.7 83.9835L222.721 83.917L222.743 83.8369C222.913 83.1438 223.256 82.7546 223.875 82.7024L223.965 82.6973L224.623 82.6977ZM224.596 83.5658H223.965L223.899 83.5707C223.763 83.5887 223.675 83.6632 223.59 83.972L223.57 84.0475L223.543 84.1468C223.494 84.3169 223.418 84.5083 223.322 84.6941C223.13 84.7641 222.948 84.8544 222.778 84.9634C222.578 84.9222 222.388 84.8617 222.229 84.7948L222.063 84.72C221.945 84.6686 221.857 84.6423 221.787 84.6359L221.747 84.6344C221.663 84.6362 221.607 84.6714 221.553 84.7274L221.521 84.7633L221.147 85.2324L221.103 85.2929C221.016 85.4205 221.003 85.5342 221.195 85.8118L221.303 85.9642C221.403 86.1137 221.504 86.2979 221.586 86.4957C221.525 86.6811 221.482 86.8749 221.458 87.0754C221.3 87.2148 221.132 87.3343 220.978 87.4231L220.816 87.5115C220.524 87.6752 220.486 87.7832 220.51 87.9367L220.516 87.9729L220.649 88.5618L220.668 88.635C220.713 88.7833 220.793 88.8637 221.126 88.8804L221.31 88.8874C221.485 88.8987 221.688 88.9308 221.889 88.9858C221.996 89.1542 222.119 89.3106 222.257 89.4526C222.265 89.7067 222.242 89.9544 222.201 90.1499C222.106 90.6079 222.194 90.6816 222.383 90.7769L222.916 91.0412C222.973 91.0671 223.023 91.0845 223.076 91.0838L223.107 91.0811C223.193 91.0678 223.288 91.0031 223.425 90.8473L223.547 90.705C223.669 90.5705 223.824 90.4278 223.996 90.3011L224.138 90.3118L224.281 90.3154L224.424 90.3118L224.565 90.3007C224.737 90.4277 224.892 90.5705 225.014 90.705L225.136 90.8473C225.29 91.0226 225.391 91.0826 225.486 91.0838L225.517 91.0821C225.545 91.0788 225.572 91.0709 225.601 91.0599L225.645 91.0412L226.179 90.7769L226.244 90.7414C226.386 90.6572 226.444 90.5506 226.36 90.1499C226.319 89.9544 226.296 89.7067 226.305 89.4526C226.442 89.3106 226.566 89.1542 226.672 88.985C226.874 88.9306 227.076 88.8986 227.251 88.8874L227.435 88.8804C227.819 88.8612 227.867 88.757 227.912 88.5618L228.037 88.0111C228.08 87.8151 228.082 87.7004 227.745 87.5115L227.583 87.4231C227.43 87.3343 227.261 87.2147 227.103 87.075C227.08 86.8749 227.036 86.6811 226.975 86.4953C227.057 86.2978 227.158 86.1137 227.258 85.9642L227.366 85.8118C227.558 85.5342 227.545 85.4205 227.459 85.2929L227.437 85.2632L227.064 84.7932C226.998 84.7105 226.942 84.6513 226.85 84.6375L226.814 84.6344C226.739 84.6328 226.64 84.6583 226.498 84.72L226.332 84.7947C226.174 84.8616 225.983 84.922 225.784 84.9627C225.613 84.8543 225.431 84.7638 225.239 84.6946C225.146 84.5158 225.074 84.3322 225.024 84.1673L224.97 83.9673C224.879 83.6404 224.784 83.5792 224.632 83.5677L224.596 83.5658ZM224.281 85.5867C225.275 85.5867 226.081 86.4077 226.081 87.4203C226.081 88.433 225.275 89.2539 224.281 89.2539C223.286 89.2539 222.48 88.433 222.48 87.4203C222.48 86.4077 223.286 85.5867 224.281 85.5867ZM224.281 86.4553C223.757 86.4553 223.333 86.8873 223.333 87.4203C223.333 87.9533 223.757 88.3853 224.281 88.3853C224.804 88.3853 225.228 87.9533 225.228 87.4203C225.228 86.8873 224.804 86.4553 224.281 86.4553Z" fill="#697BFF"/>
<path fill-rule="evenodd" clip-rule="evenodd" d="M50.7336 113.009H45.1801C44.03 113.009 43.0976 113.942 43.0976 115.092V120.645C43.0976 121.796 44.03 122.728 45.1801 122.728H50.7336C51.8838 122.728 52.8162 121.796 52.8162 120.645V115.092C52.8162 113.942 51.8838 113.009 50.7336 113.009ZM45.1801 111.621C43.2632 111.621 41.7092 113.175 41.7092 115.092V120.645C41.7092 122.562 43.2632 124.116 45.1801 124.116H50.7336C52.6505 124.116 54.2045 122.562 54.2045 120.645V115.092C54.2045 113.175 52.6505 111.621 50.7336 111.621H45.1801ZM45.671 117.403C45.9421 117.132 46.3816 117.132 46.6527 117.403L47.1435 117.894L49.107 115.931C49.3781 115.659 49.8176 115.659 50.0887 115.931C50.3598 116.202 50.3598 116.641 50.0887 116.912L47.6446 119.356C47.6412 119.36 47.6378 119.363 47.6344 119.367C47.3633 119.638 46.9238 119.638 46.6527 119.367L45.671 118.385C45.3999 118.114 45.3999 117.674 45.671 117.403Z" fill="#282828"/>
<path d="M64.9604 120.966C64.5049 120.966 64.0988 120.888 63.7421 120.731C63.3878 120.575 63.106 120.357 62.8966 120.079C62.6895 119.798 62.5768 119.473 62.5584 119.102H63.4281C63.4465 119.33 63.5247 119.527 63.6628 119.692C63.8008 119.856 63.9814 119.982 64.2046 120.072C64.4278 120.162 64.6751 120.207 64.9466 120.207C65.2503 120.207 65.5195 120.154 65.7542 120.048C65.9889 119.942 66.1729 119.795 66.3064 119.606C66.4398 119.417 66.5066 119.199 66.5066 118.95C66.5066 118.69 66.4421 118.461 66.3133 118.263C66.1844 118.063 65.9958 117.907 65.7473 117.794C65.4988 117.681 65.1951 117.625 64.8362 117.625H64.2702V116.866H64.8362C65.1169 116.866 65.3631 116.815 65.5747 116.714C65.7887 116.613 65.9555 116.47 66.0752 116.286C66.1971 116.102 66.2581 115.886 66.2581 115.637C66.2581 115.398 66.2051 115.19 66.0993 115.012C65.9935 114.835 65.8439 114.697 65.6507 114.598C65.4597 114.499 65.2342 114.45 64.9742 114.45C64.7303 114.45 64.5003 114.495 64.284 114.585C64.07 114.672 63.8951 114.8 63.7594 114.968C63.6236 115.133 63.55 115.333 63.5385 115.568H62.7102C62.724 115.198 62.8356 114.873 63.045 114.595C63.2544 114.314 63.5282 114.096 63.8664 113.939C64.2069 113.783 64.5808 113.704 64.988 113.704C65.4252 113.704 65.8002 113.793 66.1131 113.97C66.426 114.145 66.6665 114.376 66.8344 114.664C67.0024 114.951 67.0864 115.262 67.0864 115.596C67.0864 115.994 66.9817 116.333 66.7723 116.614C66.5652 116.895 66.2834 117.089 65.9267 117.197V117.252C66.3731 117.326 66.7217 117.516 66.9725 117.822C67.2232 118.125 67.3486 118.502 67.3486 118.95C67.3486 119.335 67.244 119.68 67.0346 119.986C66.8275 120.289 66.5445 120.529 66.1856 120.703C65.8267 120.878 65.4183 120.966 64.9604 120.966ZM70.3339 120.993C69.998 120.993 69.6932 120.93 69.4194 120.804C69.1456 120.675 68.9281 120.49 68.7671 120.248C68.606 120.004 68.5255 119.71 68.5255 119.364C68.5255 119.061 68.5853 118.815 68.705 118.626C68.8246 118.435 68.9845 118.285 69.1847 118.177C69.3848 118.069 69.6057 117.989 69.8473 117.936C70.0912 117.88 70.3362 117.837 70.5824 117.804C70.9045 117.763 71.1657 117.732 71.3658 117.711C71.5683 117.688 71.7156 117.65 71.8076 117.597C71.9019 117.544 71.9491 117.452 71.9491 117.321V117.294C71.9491 116.953 71.8559 116.689 71.6695 116.5C71.4855 116.311 71.2059 116.217 70.8309 116.217C70.4421 116.217 70.1372 116.302 69.9163 116.472C69.6955 116.643 69.5402 116.824 69.4504 117.018L68.6774 116.742C68.8154 116.419 68.9995 116.169 69.2295 115.989C69.4619 115.807 69.715 115.681 69.9888 115.61C70.2649 115.536 70.5364 115.499 70.8033 115.499C70.9736 115.499 71.1691 115.52 71.39 115.561C71.6132 115.6 71.8283 115.682 72.0354 115.806C72.2447 115.93 72.4185 116.118 72.5565 116.369C72.6945 116.62 72.7636 116.955 72.7636 117.377V120.869H71.9491V120.151H71.9077C71.8525 120.266 71.7604 120.389 71.6316 120.521C71.5027 120.652 71.3313 120.763 71.1174 120.855C70.9034 120.947 70.6422 120.993 70.3339 120.993ZM70.4582 120.262C70.7803 120.262 71.0518 120.198 71.2727 120.072C71.4958 119.945 71.6638 119.782 71.7765 119.582C71.8916 119.382 71.9491 119.171 71.9491 118.95V118.205C71.9146 118.246 71.8387 118.284 71.7213 118.319C71.6063 118.351 71.4728 118.38 71.321 118.405C71.1714 118.428 71.0253 118.449 70.8827 118.467C70.7423 118.483 70.6284 118.497 70.541 118.509C70.3293 118.536 70.1315 118.581 69.9474 118.643C69.7656 118.703 69.6184 118.794 69.5056 118.916C69.3952 119.035 69.34 119.199 69.34 119.406C69.34 119.689 69.4447 119.903 69.654 120.048C69.8657 120.19 70.1338 120.262 70.4582 120.262ZM73.6842 122.388V120.11H74.1259C74.2341 119.997 74.3273 119.875 74.4055 119.744C74.4837 119.613 74.5516 119.458 74.6091 119.278C74.6689 119.096 74.7195 118.875 74.761 118.616C74.8024 118.353 74.8392 118.037 74.8714 117.666L75.0509 115.568H78.4192V120.11H79.2337V122.388H78.4192V120.869H74.4987V122.388H73.6842ZM75.0509 120.11H77.6047V116.327H75.8101L75.6721 117.666C75.6145 118.221 75.5432 118.705 75.4581 119.119C75.373 119.534 75.2372 119.864 75.0509 120.11ZM81.8747 120.993C81.5388 120.993 81.234 120.93 80.9602 120.804C80.6864 120.675 80.4689 120.49 80.3079 120.248C80.1468 120.004 80.0663 119.71 80.0663 119.364C80.0663 119.061 80.1261 118.815 80.2458 118.626C80.3654 118.435 80.5253 118.285 80.7255 118.177C80.9257 118.069 81.1465 117.989 81.3881 117.936C81.632 117.88 81.877 117.837 82.1232 117.804C82.4453 117.763 82.7065 117.732 82.9066 117.711C83.1091 117.688 83.2564 117.65 83.3484 117.597C83.4427 117.544 83.4899 117.452 83.4899 117.321V117.294C83.4899 116.953 83.3967 116.689 83.2103 116.5C83.0263 116.311 82.7467 116.217 82.3717 116.217C81.9829 116.217 81.678 116.302 81.4571 116.472C81.2363 116.643 81.081 116.824 80.9912 117.018L80.2182 116.742C80.3562 116.419 80.5403 116.169 80.7704 115.989C81.0027 115.807 81.2558 115.681 81.5296 115.61C81.8057 115.536 82.0772 115.499 82.3441 115.499C82.5144 115.499 82.7099 115.52 82.9308 115.561C83.154 115.6 83.3691 115.682 83.5762 115.806C83.7855 115.93 83.9593 116.118 84.0973 116.369C84.2354 116.62 84.3044 116.955 84.3044 117.377V120.869H83.4899V120.151H83.4485C83.3933 120.266 83.3012 120.389 83.1724 120.521C83.0435 120.652 82.8721 120.763 82.6582 120.855C82.4442 120.947 82.183 120.993 81.8747 120.993ZM81.999 120.262C82.3211 120.262 82.5926 120.198 82.8135 120.072C83.0366 119.945 83.2046 119.782 83.3173 119.582C83.4324 119.382 83.4899 119.171 83.4899 118.95V118.205C83.4554 118.246 83.3795 118.284 83.2621 118.319C83.1471 118.351 83.0136 118.38 82.8618 118.405C82.7122 118.428 82.5661 118.449 82.4235 118.467C82.2831 118.483 82.1692 118.497 82.0818 118.509C81.8701 118.536 81.6723 118.581 81.4882 118.643C81.3064 118.703 81.1592 118.794 81.0464 118.916C80.936 119.035 80.8808 119.199 80.8808 119.406C80.8808 119.689 80.9855 119.903 81.1948 120.048C81.4065 120.19 81.6746 120.262 81.999 120.262ZM89.3388 117.846V118.605H86.4122V117.846H89.3388ZM86.6055 115.568V120.869H85.791V115.568H86.6055ZM89.96 115.568V120.869H89.1455V115.568H89.96ZM92.262 119.668L94.8159 115.568H95.7546V120.869H94.9401V116.769L92.4 120.869H91.4475V115.568H92.262V119.668ZM100.435 120.869V116.314H99.0272C98.7097 116.314 98.46 116.387 98.2783 116.534C98.0965 116.682 98.0056 116.884 98.0056 117.142C98.0056 117.395 98.0873 117.594 98.2507 117.739C98.4163 117.884 98.643 117.956 98.9306 117.956H100.642V118.716H98.9306C98.5716 118.716 98.2622 118.652 98.0022 118.526C97.7422 118.399 97.542 118.219 97.4017 117.984C97.2613 117.747 97.1912 117.466 97.1912 117.142C97.1912 116.815 97.2648 116.534 97.412 116.3C97.5593 116.065 97.7698 115.884 98.0436 115.758C98.3197 115.631 98.6476 115.568 99.0272 115.568H101.208V120.869H100.435ZM96.9013 120.869L98.406 118.232H99.2895L97.7848 120.869H96.9013Z" fill="#282828"/>
<path fill-rule="evenodd" clip-rule="evenodd" d="M50.7336 151.883H44.7956L43.0976 152.901V145.635C43.0976 144.485 44.03 143.552 45.1801 143.552H50.7336C51.8838 143.552 52.8162 144.485 52.8162 145.635V149.8C52.8162 150.95 51.8838 151.883 50.7336 151.883ZM50.7336 153.271H45.1801L42.7606 154.723C42.2979 155 41.7092 154.667 41.7092 154.127V145.635C41.7092 143.718 43.2632 142.164 45.1801 142.164H50.7336C52.6505 142.164 54.2045 143.718 54.2045 145.635V149.8C54.2045 151.717 52.6505 153.271 50.7336 153.271ZM44.4859 147.891C44.4859 147.412 44.8744 147.023 45.3537 147.023C45.8329 147.023 46.2214 147.412 46.2214 147.891C46.2214 148.37 45.8329 148.759 45.3537 148.759C44.8744 148.759 44.4859 148.37 44.4859 147.891ZM47.0891 147.891C47.0891 147.412 47.4776 147.023 47.9569 147.023C48.4361 147.023 48.8246 147.412 48.8246 147.891C48.8246 148.37 48.4361 148.759 47.9569 148.759C47.4776 148.759 47.0891 148.37 47.0891 147.891ZM50.5601 147.023C50.0808 147.023 49.6923 147.412 49.6923 147.891C49.6923 148.37 50.0808 148.759 50.5601 148.759C51.0393 148.759 51.4278 148.37 51.4278 147.891C51.4278 147.412 51.0393 147.023 50.5601 147.023Z" fill="#282828"/>
<path d="M62.7655 144.344H63.6213V146.705C63.6213 147.054 63.6823 147.329 63.8043 147.53C63.9262 147.727 64.0988 147.868 64.3219 147.951C64.5451 148.031 64.8086 148.071 65.1123 148.071C65.3032 148.071 65.4884 148.064 65.6679 148.051C65.8474 148.035 66.0222 148.013 66.1925 147.985C66.3651 147.957 66.533 147.924 66.6964 147.885C66.862 147.846 67.0242 147.802 67.183 147.754V148.527C67.0288 148.575 66.8758 148.619 66.724 148.658C66.5744 148.697 66.418 148.731 66.2546 148.758C66.0936 148.786 65.9198 148.808 65.7335 148.824C65.5471 148.838 65.34 148.844 65.1123 148.844C64.6245 148.844 64.2046 148.774 63.8526 148.634C63.5029 148.494 63.2337 148.267 63.045 147.954C62.8586 147.641 62.7655 147.225 62.7655 146.705V144.344ZM67.0725 144.344H67.9284V151.412H67.0725V144.344ZM71.0932 151.536C70.7573 151.536 70.4524 151.473 70.1786 151.347C69.9048 151.218 69.6874 151.032 69.5263 150.791C69.3653 150.547 69.2848 150.253 69.2848 149.907C69.2848 149.604 69.3446 149.357 69.4642 149.169C69.5839 148.978 69.7438 148.828 69.9439 148.72C70.1441 148.612 70.365 148.532 70.6066 148.479C70.8505 148.423 71.0955 148.38 71.3417 148.347C71.6638 148.306 71.9249 148.275 72.1251 148.254C72.3276 148.231 72.4748 148.193 72.5669 148.14C72.6612 148.087 72.7084 147.995 72.7084 147.864V147.837C72.7084 147.496 72.6152 147.232 72.4288 147.043C72.2447 146.854 71.9652 146.76 71.5902 146.76C71.2013 146.76 70.8965 146.845 70.6756 147.015C70.4547 147.186 70.2994 147.367 70.2097 147.561L69.4366 147.284C69.5747 146.962 69.7587 146.712 69.9888 146.532C70.2212 146.35 70.4743 146.224 70.7481 146.152C71.0242 146.079 71.2957 146.042 71.5626 146.042C71.7328 146.042 71.9284 146.063 72.1493 146.104C72.3724 146.143 72.5876 146.225 72.7946 146.349C73.004 146.473 73.1777 146.661 73.3158 146.912C73.4538 147.163 73.5228 147.498 73.5228 147.919V151.412H72.7084V150.694H72.6669C72.6117 150.809 72.5197 150.932 72.3908 151.064C72.262 151.195 72.0906 151.306 71.8766 151.398C71.6626 151.49 71.4015 151.536 71.0932 151.536ZM71.2174 150.805C71.5395 150.805 71.811 150.741 72.0319 150.615C72.2551 150.488 72.4231 150.325 72.5358 150.125C72.6508 149.925 72.7084 149.714 72.7084 149.493V148.748C72.6738 148.789 72.5979 148.827 72.4806 148.862C72.3655 148.894 72.2321 148.923 72.0802 148.948C71.9307 148.971 71.7846 148.992 71.6419 149.01C71.5016 149.026 71.3877 149.04 71.3003 149.051C71.0886 149.079 70.8907 149.124 70.7067 149.186C70.5249 149.246 70.3776 149.337 70.2649 149.459C70.1545 149.578 70.0992 149.742 70.0992 149.949C70.0992 150.232 70.2039 150.446 70.4133 150.591C70.625 150.733 70.893 150.805 71.2174 150.805ZM74.2881 146.87V146.111H78.5952V146.87H76.8558V151.412H76.0413V146.87H74.2881ZM84.6702 151.523C84.1732 151.523 83.7453 151.405 83.3864 151.171C83.0274 150.936 82.7513 150.613 82.5581 150.201C82.3648 149.789 82.2682 149.318 82.2682 148.789C82.2682 148.251 82.3671 147.776 82.565 147.364C82.7651 146.95 83.0435 146.626 83.4002 146.394C83.7591 146.159 84.1778 146.042 84.6564 146.042C85.0291 146.042 85.365 146.111 85.6641 146.249C85.9633 146.387 86.2083 146.58 86.3993 146.829C86.5902 147.077 86.7087 147.367 86.7547 147.699H85.9402C85.8781 147.457 85.7401 147.243 85.5261 147.057C85.3144 146.868 85.0291 146.774 84.6702 146.774C84.3527 146.774 84.0743 146.857 83.835 147.022C83.598 147.186 83.4128 147.417 83.2794 147.716C83.1482 148.013 83.0827 148.361 83.0827 148.762C83.0827 149.171 83.1471 149.528 83.2759 149.831C83.4071 150.135 83.5911 150.371 83.8281 150.539C84.0674 150.707 84.3481 150.791 84.6702 150.791C84.8819 150.791 85.074 150.754 85.2466 150.68C85.4191 150.607 85.5652 150.501 85.6849 150.363C85.8045 150.225 85.8896 150.059 85.9402 149.866H86.7547C86.7087 150.179 86.5948 150.461 86.4131 150.712C86.2336 150.96 85.9955 151.158 85.6987 151.305C85.4042 151.45 85.0613 151.523 84.6702 151.523ZM90.0989 151.523C89.6204 151.523 89.2005 151.409 88.8393 151.181C88.4803 150.953 88.1996 150.634 87.9972 150.225C87.797 149.815 87.6969 149.337 87.6969 148.789C87.6969 148.237 87.797 147.755 87.9972 147.343C88.1996 146.931 88.4803 146.611 88.8393 146.384C89.2005 146.156 89.6204 146.042 90.0989 146.042C90.5775 146.042 90.9962 146.156 91.3552 146.384C91.7164 146.611 91.9971 146.931 92.1973 147.343C92.3997 147.755 92.501 148.237 92.501 148.789C92.501 149.337 92.3997 149.815 92.1973 150.225C91.9971 150.634 91.7164 150.953 91.3552 151.181C90.9962 151.409 90.5775 151.523 90.0989 151.523ZM90.0989 150.791C90.4625 150.791 90.7616 150.698 90.9962 150.511C91.2309 150.325 91.4046 150.08 91.5174 149.776C91.6301 149.473 91.6865 149.144 91.6865 148.789C91.6865 148.435 91.6301 148.105 91.5174 147.799C91.4046 147.493 91.2309 147.245 90.9962 147.057C90.7616 146.868 90.4625 146.774 90.0989 146.774C89.7354 146.774 89.4363 146.868 89.2016 147.057C88.9669 147.245 88.7932 147.493 88.6805 147.799C88.5678 148.105 88.5114 148.435 88.5114 148.789C88.5114 149.144 88.5678 149.473 88.6805 149.776C88.7932 150.08 88.9669 150.325 89.2016 150.511C89.4363 150.698 89.7354 150.791 90.0989 150.791ZM98.6312 151.523C98.1342 151.523 97.7062 151.405 97.3473 151.171C96.9884 150.936 96.7123 150.613 96.519 150.201C96.3258 149.789 96.2291 149.318 96.2291 148.789C96.2291 148.251 96.3281 147.776 96.5259 147.364C96.7261 146.95 97.0045 146.626 97.3611 146.394C97.72 146.159 98.1388 146.042 98.6174 146.042C98.9901 146.042 99.326 146.111 99.6251 146.249C99.9242 146.387 100.169 146.58 100.36 146.829C100.551 147.077 100.67 147.367 100.716 147.699H99.9012C99.8391 147.457 99.701 147.243 99.4871 147.057C99.2754 146.868 98.9901 146.774 98.6312 146.774C98.3137 146.774 98.0353 146.857 97.796 147.022C97.559 147.186 97.3738 147.417 97.2403 147.716C97.1092 148.013 97.0436 148.361 97.0436 148.762C97.0436 149.171 97.108 149.528 97.2369 149.831C97.368 150.135 97.5521 150.371 97.7891 150.539C98.0284 150.707 98.3091 150.791 98.6312 150.791C98.8428 150.791 99.035 150.754 99.2075 150.68C99.3801 150.607 99.5262 150.501 99.6458 150.363C99.7655 150.225 99.8506 150.059 99.9012 149.866H100.716C100.67 150.179 100.556 150.461 100.374 150.712C100.195 150.96 99.9564 151.158 99.6596 151.305C99.3651 151.45 99.0223 151.523 98.6312 151.523ZM101.489 146.87V146.111H105.796V146.87H104.056V151.412H103.242V146.87H101.489ZM107.509 153.4C107.37 153.4 107.247 153.388 107.139 153.365C107.031 153.345 106.956 153.324 106.915 153.303L107.122 152.586C107.32 152.636 107.495 152.655 107.647 152.641C107.798 152.627 107.933 152.559 108.05 152.437C108.17 152.317 108.279 152.123 108.378 151.854L108.53 151.44L106.57 146.111H107.453L108.917 150.335H108.972L110.435 146.111H111.319L109.068 152.185C108.967 152.459 108.842 152.686 108.692 152.865C108.543 153.047 108.369 153.181 108.171 153.269C107.976 153.356 107.755 153.4 107.509 153.4ZM111.382 152.931V150.653H111.823C111.932 150.54 112.025 150.418 112.103 150.287C112.181 150.156 112.249 150.001 112.307 149.821C112.366 149.639 112.417 149.418 112.458 149.158C112.5 148.896 112.537 148.58 112.569 148.209L112.748 146.111H116.117V150.653H116.931V152.931H116.117V151.412H112.196V152.931H111.382ZM112.748 150.653H115.302V146.87H113.508L113.37 148.209C113.312 148.764 113.241 149.248 113.156 149.662C113.07 150.076 112.935 150.407 112.748 150.653ZM120.235 151.523C119.724 151.523 119.283 151.41 118.913 151.184C118.545 150.957 118.261 150.639 118.061 150.232C117.863 149.822 117.764 149.346 117.764 148.803C117.764 148.26 117.863 147.781 118.061 147.367C118.261 146.951 118.539 146.626 118.896 146.394C119.255 146.159 119.673 146.042 120.152 146.042C120.428 146.042 120.701 146.088 120.97 146.18C121.239 146.272 121.484 146.422 121.705 146.629C121.926 146.834 122.102 147.105 122.233 147.443C122.364 147.781 122.43 148.198 122.43 148.693V149.038H118.344V148.334H121.601C121.601 148.035 121.542 147.768 121.422 147.533C121.305 147.298 121.137 147.113 120.918 146.977C120.702 146.842 120.446 146.774 120.152 146.774C119.828 146.774 119.547 146.854 119.31 147.015C119.075 147.174 118.895 147.381 118.768 147.636C118.641 147.892 118.578 148.166 118.578 148.458V148.927C118.578 149.328 118.647 149.667 118.785 149.945C118.926 150.221 119.12 150.432 119.369 150.577C119.617 150.72 119.906 150.791 120.235 150.791C120.449 150.791 120.642 150.761 120.815 150.701C120.989 150.639 121.14 150.547 121.267 150.425C121.393 150.301 121.491 150.147 121.56 149.963L122.347 150.183C122.264 150.45 122.125 150.685 121.929 150.888C121.734 151.088 121.492 151.244 121.205 151.357C120.917 151.467 120.594 151.523 120.235 151.523ZM127.217 148.389V149.148H124.29V148.389H127.217ZM124.483 146.111V151.412H123.669V146.111H124.483ZM127.838 146.111V151.412H127.023V146.111H127.838ZM128.604 146.87V146.111H132.911V146.87H131.172V151.412H130.357V146.87H128.604ZM135.384 151.536C135.048 151.536 134.743 151.473 134.469 151.347C134.195 151.218 133.978 151.032 133.817 150.791C133.656 150.547 133.575 150.253 133.575 149.907C133.575 149.604 133.635 149.357 133.755 149.169C133.875 148.978 134.034 148.828 134.235 148.72C134.435 148.612 134.656 148.532 134.897 148.479C135.141 148.423 135.386 148.38 135.632 148.347C135.954 148.306 136.216 148.275 136.416 148.254C136.618 148.231 136.765 148.193 136.857 148.14C136.952 148.087 136.999 147.995 136.999 147.864V147.837C136.999 147.496 136.906 147.232 136.719 147.043C136.535 146.854 136.256 146.76 135.881 146.76C135.492 146.76 135.187 146.845 134.966 147.015C134.745 147.186 134.59 147.367 134.5 147.561L133.727 147.284C133.865 146.962 134.049 146.712 134.279 146.532C134.512 146.35 134.765 146.224 135.039 146.152C135.315 146.079 135.586 146.042 135.853 146.042C136.023 146.042 136.219 146.063 136.44 146.104C136.663 146.143 136.878 146.225 137.085 146.349C137.295 146.473 137.468 146.661 137.606 146.912C137.744 147.163 137.813 147.498 137.813 147.919V151.412H136.999V150.694H136.958C136.902 150.809 136.81 150.932 136.681 151.064C136.553 151.195 136.381 151.306 136.167 151.398C135.953 151.49 135.692 151.536 135.384 151.536ZM135.508 150.805C135.83 150.805 136.102 150.741 136.323 150.615C136.546 150.488 136.714 150.325 136.826 150.125C136.941 149.925 136.999 149.714 136.999 149.493V148.748C136.964 148.789 136.889 148.827 136.771 148.862C136.656 148.894 136.523 148.923 136.371 148.948C136.221 148.971 136.075 148.992 135.933 149.01C135.792 149.026 135.678 149.04 135.591 149.051C135.379 149.079 135.181 149.124 134.997 149.186C134.816 149.246 134.668 149.337 134.556 149.459C134.445 149.578 134.39 149.742 134.39 149.949C134.39 150.232 134.495 150.446 134.704 150.591C134.916 150.733 135.184 150.805 135.508 150.805ZM142.199 150.308L144.049 146.111H144.822L142.53 151.412H141.868L139.618 146.111H140.377L142.199 150.308ZM140.115 146.111V151.412H139.3V146.111H140.115ZM144.284 151.412V146.111H145.098V151.412H144.284ZM147.403 150.211L149.957 146.111H150.896V151.412H150.082V147.312L147.542 151.412H146.589V146.111H147.403V150.211Z" fill="#282828"/>
<path fill-rule="evenodd" clip-rule="evenodd" d="M48.6511 175.488H44.4859C43.7192 175.488 43.0976 176.11 43.0976 176.876V181.041C43.0976 181.808 43.7192 182.43 44.4859 182.43H48.6511C49.4178 182.43 50.0394 181.808 50.0394 181.041V176.876C50.0394 176.11 49.4178 175.488 48.6511 175.488ZM44.4859 174.1C42.9524 174.1 41.7092 175.343 41.7092 176.876V181.041C41.7092 182.575 42.9524 183.818 44.4859 183.818H48.6511C49.865 183.818 50.8969 183.039 51.2744 181.954L52.0708 182.461C52.995 183.049 54.2045 182.385 54.2045 181.289V176.629C54.2045 175.534 52.995 174.87 52.0708 175.458L51.2746 175.964C50.8973 174.879 49.8652 174.1 48.6511 174.1H44.4859ZM52.8161 181.289L51.4278 180.406V177.513L52.8161 176.629V181.289ZM45.1801 176.876C44.7967 176.876 44.4859 177.187 44.4859 177.571C44.4859 177.954 44.7967 178.265 45.1801 178.265H46.5685C46.9519 178.265 47.2627 177.954 47.2627 177.571C47.2627 177.187 46.9519 176.876 46.5685 176.876H45.1801Z" fill="#282828"/>
<path d="M62.6964 181.957V174.889H65.1675C65.6599 174.889 66.0659 174.974 66.3858 175.144C66.7056 175.312 66.9437 175.539 67.1002 175.824C67.2566 176.107 67.3348 176.421 67.3348 176.766C67.3348 177.07 67.2808 177.321 67.1726 177.519C67.0668 177.717 66.9264 177.873 66.7516 177.988C66.579 178.103 66.3915 178.188 66.189 178.244V178.313C66.4053 178.326 66.6227 178.402 66.8413 178.54C67.0599 178.678 67.2428 178.876 67.3901 179.134C67.5373 179.392 67.6109 179.707 67.6109 180.08C67.6109 180.434 67.5304 180.753 67.3693 181.036C67.2083 181.319 66.9541 181.543 66.6066 181.709C66.2592 181.874 65.8071 181.957 65.2503 181.957H62.6964ZM63.5523 181.198H65.2503C65.8094 181.198 66.2063 181.09 66.441 180.873C66.678 180.655 66.7965 180.39 66.7965 180.08C66.7965 179.84 66.7355 179.619 66.6135 179.417C66.4916 179.212 66.3179 179.049 66.0924 178.927C65.8669 178.803 65.6 178.741 65.2917 178.741H63.5523V181.198ZM63.5523 177.995H65.1399C65.3976 177.995 65.6299 177.944 65.837 177.843C66.0464 177.742 66.212 177.599 66.334 177.415C66.4582 177.231 66.5204 177.015 66.5204 176.766C66.5204 176.456 66.4122 176.192 66.1959 175.976C65.9797 175.758 65.6368 175.648 65.1675 175.648H63.5523V177.995ZM69.7213 180.756L72.2752 176.656H73.214V181.957H72.3995V177.857L69.8594 181.957H68.9069V176.656H69.7213V180.756ZM74.1397 183.476V181.198H74.5815C74.6896 181.085 74.7828 180.963 74.861 180.832C74.9393 180.701 75.0071 180.545 75.0647 180.366C75.1245 180.184 75.1751 179.963 75.2165 179.703C75.2579 179.441 75.2947 179.125 75.3269 178.754L75.5064 176.656H78.8748V181.198H79.6893V183.476H78.8748V181.957H74.9542V183.476H74.1397ZM75.5064 181.198H78.0603V177.415H76.2657L76.1276 178.754C76.0701 179.309 75.9988 179.793 75.9137 180.207C75.8285 180.621 75.6928 180.952 75.5064 181.198ZM82.9929 182.067C82.4821 182.067 82.0415 181.955 81.6711 181.729C81.303 181.501 81.0188 181.184 80.8187 180.777C80.6208 180.367 80.5219 179.891 80.5219 179.348C80.5219 178.805 80.6208 178.326 80.8187 177.912C81.0188 177.496 81.2972 177.171 81.6539 176.939C82.0128 176.704 82.4315 176.587 82.9101 176.587C83.1862 176.587 83.4588 176.633 83.728 176.725C83.9972 176.817 84.2423 176.967 84.4631 177.174C84.684 177.378 84.86 177.65 84.9912 177.988C85.1223 178.326 85.1879 178.743 85.1879 179.237V179.583H81.1017V178.879H84.3596C84.3596 178.579 84.2998 178.313 84.1801 178.078C84.0628 177.843 83.8948 177.658 83.6763 177.522C83.46 177.386 83.2046 177.319 82.9101 177.319C82.5857 177.319 82.305 177.399 82.068 177.56C81.8333 177.719 81.6527 177.926 81.5262 178.181C81.3996 178.437 81.3363 178.711 81.3363 179.003V179.472C81.3363 179.873 81.4054 180.212 81.5434 180.49C81.6838 180.766 81.8782 180.977 82.1267 181.122C82.3752 181.264 82.6639 181.336 82.9929 181.336C83.2069 181.336 83.4002 181.306 83.5727 181.246C83.7476 181.184 83.8983 181.092 84.0248 180.97C84.1514 180.846 84.2492 180.692 84.3182 180.508L85.1051 180.728C85.0222 180.995 84.883 181.23 84.6875 181.432C84.4919 181.633 84.2503 181.789 83.9627 181.902C83.6751 182.012 83.3518 182.067 82.9929 182.067ZM88.5804 182.067C88.1018 182.067 87.682 181.954 87.3207 181.726C86.9618 181.498 86.6811 181.179 86.4786 180.77C86.2785 180.36 86.1784 179.882 86.1784 179.334C86.1784 178.782 86.2785 178.3 86.4786 177.888C86.6811 177.476 86.9618 177.156 87.3207 176.929C87.682 176.701 88.1018 176.587 88.5804 176.587C89.059 176.587 89.4777 176.701 89.8366 176.929C90.1979 177.156 90.4786 177.476 90.6787 177.888C90.8812 178.3 90.9824 178.782 90.9824 179.334C90.9824 179.882 90.8812 180.36 90.6787 180.77C90.4786 181.179 90.1979 181.498 89.8366 181.726C89.4777 181.954 89.059 182.067 88.5804 182.067ZM88.5804 181.336C88.9439 181.336 89.243 181.243 89.4777 181.056C89.7124 180.87 89.8861 180.625 89.9989 180.321C90.1116 180.017 90.168 179.688 90.168 179.334C90.168 178.98 90.1116 178.65 89.9989 178.344C89.8861 178.038 89.7124 177.79 89.4777 177.602C89.243 177.413 88.9439 177.319 88.5804 177.319C88.2169 177.319 87.9178 177.413 87.6831 177.602C87.4484 177.79 87.2747 178.038 87.162 178.344C87.0492 178.65 86.9929 178.98 86.9929 179.334C86.9929 179.688 87.0492 180.017 87.162 180.321C87.2747 180.625 87.4484 180.87 87.6831 181.056C87.9178 181.243 88.2169 181.336 88.5804 181.336ZM92.2257 181.957V176.656H93.0402V178.961H93.5786L95.4837 176.656H96.5328L94.3931 179.21L96.5604 181.957H95.5113L93.7719 179.721H93.0402V181.957H92.2257ZM99.3809 182.067C98.9024 182.067 98.4825 181.954 98.1212 181.726C97.7623 181.498 97.4816 181.179 97.2792 180.77C97.079 180.36 96.9789 179.882 96.9789 179.334C96.9789 178.782 97.079 178.3 97.2792 177.888C97.4816 177.476 97.7623 177.156 98.1212 176.929C98.4825 176.701 98.9024 176.587 99.3809 176.587C99.8595 176.587 100.278 176.701 100.637 176.929C100.998 177.156 101.279 177.476 101.479 177.888C101.682 178.3 101.783 178.782 101.783 179.334C101.783 179.882 101.682 180.36 101.479 180.77C101.279 181.179 100.998 181.498 100.637 181.726C100.278 181.954 99.8595 182.067 99.3809 182.067ZM99.3809 181.336C99.7445 181.336 100.044 181.243 100.278 181.056C100.513 180.87 100.687 180.625 100.799 180.321C100.912 180.017 100.968 179.688 100.968 179.334C100.968 178.98 100.912 178.65 100.799 178.344C100.687 178.038 100.513 177.79 100.278 177.602C100.044 177.413 99.7445 177.319 99.3809 177.319C99.0174 177.319 98.7183 177.413 98.4836 177.602C98.2489 177.79 98.0752 178.038 97.9625 178.344C97.8498 178.65 97.7934 178.98 97.7934 179.334C97.7934 179.688 97.8498 180.017 97.9625 180.321C98.0752 180.625 98.2489 180.87 98.4836 181.056C98.7183 181.243 99.0174 181.336 99.3809 181.336ZM106.574 178.934V179.693H103.647V178.934H106.574ZM103.841 176.656V181.957H103.026V176.656H103.841ZM107.195 176.656V181.957H106.381V176.656H107.195ZM110.836 183.765V174.889H111.651V183.765H110.836ZM110.836 182.067C110.477 182.067 110.151 182.003 109.856 181.874C109.562 181.743 109.309 181.558 109.097 181.319C108.885 181.077 108.722 180.788 108.607 180.452C108.492 180.116 108.434 179.744 108.434 179.334C108.434 178.92 108.492 178.545 108.607 178.209C108.722 177.871 108.885 177.581 109.097 177.339C109.309 177.098 109.562 176.913 109.856 176.784C110.151 176.653 110.477 176.587 110.836 176.587H111.085V182.067H110.836ZM110.836 181.336H110.974V177.319H110.836C110.565 177.319 110.329 177.374 110.129 177.484C109.929 177.592 109.763 177.741 109.632 177.929C109.503 178.116 109.406 178.33 109.342 178.571C109.28 178.813 109.249 179.067 109.249 179.334C109.249 179.688 109.305 180.017 109.418 180.321C109.531 180.625 109.704 180.87 109.939 181.056C110.174 181.243 110.473 181.336 110.836 181.336ZM111.651 182.067H111.402V176.587H111.651C112.01 176.587 112.336 176.653 112.631 176.784C112.925 176.913 113.179 177.098 113.39 177.339C113.602 177.581 113.765 177.871 113.88 178.209C113.995 178.545 114.053 178.92 114.053 179.334C114.053 179.744 113.995 180.116 113.88 180.452C113.765 180.788 113.602 181.077 113.39 181.319C113.179 181.558 112.925 181.743 112.631 181.874C112.336 182.003 112.01 182.067 111.651 182.067ZM111.651 181.336C111.925 181.336 112.16 181.283 112.358 181.177C112.558 181.069 112.723 180.922 112.852 180.735C112.983 180.547 113.08 180.333 113.142 180.093C113.206 179.852 113.238 179.599 113.238 179.334C113.238 178.98 113.182 178.65 113.069 178.344C112.957 178.038 112.783 177.79 112.548 177.602C112.313 177.413 112.014 177.319 111.651 177.319H111.513V181.336H111.651ZM117.52 182.067C117.01 182.067 116.569 181.955 116.199 181.729C115.83 181.501 115.546 181.184 115.346 180.777C115.148 180.367 115.049 179.891 115.049 179.348C115.049 178.805 115.148 178.326 115.346 177.912C115.546 177.496 115.825 177.171 116.181 176.939C116.54 176.704 116.959 176.587 117.438 176.587C117.714 176.587 117.986 176.633 118.256 176.725C118.525 176.817 118.77 176.967 118.991 177.174C119.212 177.378 119.388 177.65 119.519 177.988C119.65 178.326 119.715 178.743 119.715 179.237V179.583H115.629V178.879H118.887C118.887 178.579 118.827 178.313 118.708 178.078C118.59 177.843 118.422 177.658 118.204 177.522C117.987 177.386 117.732 177.319 117.438 177.319C117.113 177.319 116.832 177.399 116.596 177.56C116.361 177.719 116.18 177.926 116.054 178.181C115.927 178.437 115.864 178.711 115.864 179.003V179.472C115.864 179.873 115.933 180.212 116.071 180.49C116.211 180.766 116.406 180.977 116.654 181.122C116.903 181.264 117.191 181.336 117.52 181.336C117.734 181.336 117.928 181.306 118.1 181.246C118.275 181.184 118.426 181.092 118.552 180.97C118.679 180.846 118.777 180.692 118.846 180.508L119.633 180.728C119.55 180.995 119.411 181.23 119.215 181.432C119.019 181.633 118.778 181.789 118.49 181.902C118.203 182.012 117.879 182.067 117.52 182.067ZM120.954 183.945V176.656H121.741V177.498H121.838C121.898 177.406 121.981 177.289 122.086 177.146C122.195 177.001 122.349 176.872 122.549 176.76C122.751 176.644 123.025 176.587 123.37 176.587C123.817 176.587 124.21 176.699 124.551 176.922C124.891 177.145 125.157 177.461 125.348 177.871C125.539 178.28 125.634 178.764 125.634 179.32C125.634 179.882 125.539 180.368 125.348 180.78C125.157 181.19 124.892 181.507 124.554 181.733C124.216 181.956 123.826 182.067 123.384 182.067C123.043 182.067 122.771 182.011 122.566 181.898C122.361 181.783 122.204 181.653 122.093 181.508C121.983 181.361 121.898 181.239 121.838 181.143H121.769V183.945H120.954ZM121.755 179.307C121.755 179.707 121.814 180.06 121.931 180.366C122.048 180.67 122.22 180.908 122.445 181.08C122.671 181.251 122.947 181.336 123.274 181.336C123.614 181.336 123.898 181.246 124.126 181.067C124.356 180.885 124.529 180.641 124.644 180.335C124.761 180.027 124.82 179.684 124.82 179.307C124.82 178.934 124.762 178.598 124.647 178.299C124.534 177.997 124.363 177.759 124.133 177.584C123.905 177.407 123.619 177.319 123.274 177.319C122.942 177.319 122.664 177.403 122.438 177.571C122.213 177.736 122.043 177.969 121.928 178.268C121.813 178.565 121.755 178.911 121.755 179.307ZM129.099 182.067C128.588 182.067 128.148 181.955 127.777 181.729C127.409 181.501 127.125 181.184 126.925 180.777C126.727 180.367 126.628 179.891 126.628 179.348C126.628 178.805 126.727 178.326 126.925 177.912C127.125 177.496 127.404 177.171 127.76 176.939C128.119 176.704 128.538 176.587 129.016 176.587C129.292 176.587 129.565 176.633 129.834 176.725C130.104 176.817 130.349 176.967 130.569 177.174C130.79 177.378 130.966 177.65 131.097 177.988C131.229 178.326 131.294 178.743 131.294 179.237V179.583H127.208V178.879H130.466C130.466 178.579 130.406 178.313 130.286 178.078C130.169 177.843 130.001 177.658 129.783 177.522C129.566 177.386 129.311 177.319 129.016 177.319C128.692 177.319 128.411 177.399 128.174 177.56C127.94 177.719 127.759 177.926 127.632 178.181C127.506 178.437 127.443 178.711 127.443 179.003V179.472C127.443 179.873 127.512 180.212 127.65 180.49C127.79 180.766 127.984 180.977 128.233 181.122C128.481 181.264 128.77 181.336 129.099 181.336C129.313 181.336 129.506 181.306 129.679 181.246C129.854 181.184 130.005 181.092 130.131 180.97C130.258 180.846 130.355 180.692 130.424 180.508L131.211 180.728C131.129 180.995 130.989 181.23 130.794 181.432C130.598 181.633 130.357 181.789 130.069 181.902C129.781 182.012 129.458 182.067 129.099 182.067ZM136.081 178.934V179.693H133.154V178.934H136.081ZM133.348 176.656V181.957H132.533V176.656H133.348ZM136.702 176.656V181.957H135.888V176.656H136.702ZM142.359 176.656V181.198H143.104V183.669H142.29V181.957H138.19V176.656H139.004V181.198H141.544V176.656H142.359ZM145.173 180.756L147.727 176.656H148.666V181.957H147.851V177.857L145.311 181.957H144.359V176.656H145.173V180.756ZM153.346 181.957V177.401H151.938C151.621 177.401 151.371 177.475 151.189 177.622C151.008 177.77 150.917 177.972 150.917 178.23C150.917 178.483 150.998 178.682 151.162 178.827C151.328 178.972 151.554 179.044 151.842 179.044H153.554V179.803H151.842C151.483 179.803 151.173 179.74 150.913 179.614C150.653 179.487 150.453 179.307 150.313 179.072C150.173 178.835 150.102 178.554 150.102 178.23C150.102 177.903 150.176 177.622 150.323 177.388C150.47 177.153 150.681 176.972 150.955 176.846C151.231 176.719 151.559 176.656 151.938 176.656H154.12V181.957H153.346ZM149.812 181.957L151.317 179.32H152.201L150.696 181.957H149.812Z" fill="#282828"/>
</g>
<g filter="url(#filter1_dd_389_8249)">
<rect x="186.099" y="112.859" width="152.72" height="25.1069" rx="2.77674" fill="white" shape-rendering="crispEdges"/>
<rect x="194.43" y="119.859" width="11.1069" height="11.1069" rx="5.55347" fill="#8208E1"/>
<path d="M215.012 128.412H214.115L216.71 121.344H217.594L220.189 128.412H219.292L217.18 122.462H217.125L215.012 128.412ZM215.344 125.651H218.961V126.41H215.344V125.651ZM220.614 129.931V127.653H221.056C221.164 127.54 221.257 127.418 221.335 127.287C221.413 127.156 221.481 127.001 221.539 126.821C221.599 126.639 221.649 126.418 221.691 126.158C221.732 125.896 221.769 125.58 221.801 125.209L221.98 123.111H225.349V127.653H226.163V129.931H225.349V128.412H221.428V129.931H220.614ZM221.98 127.653H224.534V123.87H222.74L222.602 125.209C222.544 125.764 222.473 126.248 222.388 126.662C222.303 127.076 222.167 127.407 221.98 127.653ZM230.143 127.308L231.993 123.111H232.766L230.475 128.412H229.812L227.562 123.111H228.321L230.143 127.308ZM228.059 123.111V128.412H227.244V123.111H228.059ZM232.228 128.412V123.111H233.042V128.412H232.228ZM235.348 127.211L237.902 123.111H238.84V128.412H238.026V124.312L235.486 128.412H234.533V123.111H235.348V127.211ZM243.88 125.389V126.148H240.953V125.389H243.88ZM241.147 123.111V128.412H240.332V123.111H241.147ZM244.501 123.111V128.412H243.687V123.111H244.501ZM246.803 127.211L249.357 123.111H250.296V128.412H249.481V124.312L246.941 128.412H245.989V123.111H246.803V127.211ZM253.941 128.523C253.444 128.523 253.016 128.405 252.657 128.171C252.298 127.936 252.022 127.613 251.829 127.201C251.636 126.789 251.539 126.318 251.539 125.789C251.539 125.251 251.638 124.776 251.836 124.364C252.036 123.95 252.314 123.626 252.671 123.394C253.03 123.159 253.449 123.042 253.927 123.042C254.3 123.042 254.636 123.111 254.935 123.249C255.234 123.387 255.479 123.58 255.67 123.829C255.861 124.077 255.98 124.367 256.026 124.699H255.211C255.149 124.457 255.011 124.243 254.797 124.057C254.585 123.868 254.3 123.774 253.941 123.774C253.624 123.774 253.345 123.857 253.106 124.022C252.869 124.186 252.684 124.417 252.55 124.716C252.419 125.013 252.354 125.361 252.354 125.762C252.354 126.171 252.418 126.528 252.547 126.831C252.678 127.135 252.862 127.371 253.099 127.539C253.338 127.707 253.619 127.791 253.941 127.791C254.153 127.791 254.345 127.754 254.517 127.68C254.69 127.607 254.836 127.501 254.956 127.363C255.075 127.225 255.161 127.059 255.211 126.866H256.026C255.98 127.179 255.866 127.461 255.684 127.712C255.505 127.96 255.266 128.158 254.97 128.305C254.675 128.45 254.332 128.523 253.941 128.523ZM256.799 123.87V123.111H261.106V123.87H259.366V128.412H258.552V123.87H256.799ZM262.294 130.4V123.111H263.081V123.953H263.177C263.237 123.861 263.32 123.744 263.426 123.601C263.534 123.456 263.688 123.327 263.888 123.215C264.091 123.1 264.365 123.042 264.71 123.042C265.156 123.042 265.55 123.154 265.89 123.377C266.231 123.6 266.496 123.916 266.687 124.326C266.878 124.735 266.974 125.219 266.974 125.775C266.974 126.337 266.878 126.823 266.687 127.235C266.496 127.645 266.232 127.962 265.893 128.188C265.555 128.411 265.165 128.523 264.724 128.523C264.383 128.523 264.11 128.466 263.906 128.353C263.701 128.238 263.543 128.108 263.433 127.963C263.322 127.816 263.237 127.694 263.177 127.598H263.108V130.4H262.294ZM263.095 125.762C263.095 126.162 263.153 126.515 263.271 126.821C263.388 127.125 263.559 127.363 263.785 127.536C264.01 127.706 264.286 127.791 264.613 127.791C264.954 127.791 265.238 127.701 265.466 127.522C265.696 127.34 265.868 127.096 265.983 126.79C266.101 126.482 266.159 126.139 266.159 125.762C266.159 125.389 266.102 125.053 265.987 124.754C265.874 124.452 265.703 124.214 265.472 124.039C265.245 123.862 264.958 123.774 264.613 123.774C264.282 123.774 264.003 123.858 263.778 124.026C263.552 124.191 263.382 124.424 263.267 124.723C263.152 125.02 263.095 125.366 263.095 125.762ZM269.776 128.536C269.44 128.536 269.135 128.473 268.862 128.347C268.588 128.218 268.37 128.032 268.209 127.791C268.048 127.547 267.968 127.253 267.968 126.907C267.968 126.604 268.027 126.357 268.147 126.169C268.267 125.978 268.427 125.828 268.627 125.72C268.827 125.612 269.048 125.532 269.289 125.479C269.533 125.423 269.778 125.38 270.025 125.347C270.347 125.306 270.608 125.275 270.808 125.254C271.01 125.231 271.158 125.193 271.25 125.14C271.344 125.087 271.391 124.995 271.391 124.864V124.837C271.391 124.496 271.298 124.232 271.112 124.043C270.928 123.854 270.648 123.76 270.273 123.76C269.884 123.76 269.579 123.845 269.358 124.015C269.138 124.186 268.982 124.367 268.893 124.561L268.12 124.284C268.258 123.962 268.442 123.712 268.672 123.532C268.904 123.35 269.157 123.224 269.431 123.152C269.707 123.079 269.979 123.042 270.245 123.042C270.416 123.042 270.611 123.063 270.832 123.104C271.055 123.143 271.27 123.225 271.478 123.349C271.687 123.473 271.861 123.661 271.999 123.912C272.137 124.163 272.206 124.498 272.206 124.919V128.412H271.391V127.694H271.35C271.295 127.809 271.203 127.932 271.074 128.064C270.945 128.195 270.773 128.306 270.559 128.398C270.346 128.49 270.084 128.536 269.776 128.536ZM269.9 127.805C270.222 127.805 270.494 127.741 270.715 127.615C270.938 127.488 271.106 127.325 271.219 127.125C271.334 126.925 271.391 126.714 271.391 126.493V125.748C271.357 125.789 271.281 125.827 271.163 125.862C271.048 125.894 270.915 125.923 270.763 125.948C270.614 125.971 270.467 125.992 270.325 126.01C270.184 126.026 270.071 126.04 269.983 126.051C269.771 126.079 269.574 126.124 269.39 126.186C269.208 126.246 269.061 126.337 268.948 126.459C268.837 126.578 268.782 126.742 268.782 126.949C268.782 127.232 268.887 127.446 269.096 127.591C269.308 127.733 269.576 127.805 269.9 127.805ZM272.971 123.87V123.111H277.278V123.87H275.539V128.412H274.724V123.87H272.971ZM280.345 128.523C279.866 128.523 279.446 128.409 279.085 128.181C278.726 127.953 278.445 127.634 278.243 127.225C278.043 126.815 277.942 126.337 277.942 125.789C277.942 125.237 278.043 124.755 278.243 124.343C278.445 123.931 278.726 123.611 279.085 123.384C279.446 123.156 279.866 123.042 280.345 123.042C280.823 123.042 281.242 123.156 281.601 123.384C281.962 123.611 282.243 123.931 282.443 124.343C282.645 124.755 282.747 125.237 282.747 125.789C282.747 126.337 282.645 126.815 282.443 127.225C282.243 127.634 281.962 127.953 281.601 128.181C281.242 128.409 280.823 128.523 280.345 128.523ZM280.345 127.791C280.708 127.791 281.007 127.698 281.242 127.511C281.476 127.325 281.65 127.08 281.763 126.776C281.876 126.473 281.932 126.144 281.932 125.789C281.932 125.435 281.876 125.105 281.763 124.799C281.65 124.493 281.476 124.245 281.242 124.057C281.007 123.868 280.708 123.774 280.345 123.774C279.981 123.774 279.682 123.868 279.447 124.057C279.213 124.245 279.039 124.493 278.926 124.799C278.813 125.105 278.757 125.435 278.757 125.789C278.757 126.144 278.813 126.473 278.926 126.776C279.039 127.08 279.213 127.325 279.447 127.511C279.682 127.698 279.981 127.791 280.345 127.791ZM283.99 130.4V123.111H284.777V123.953H284.873C284.933 123.861 285.016 123.744 285.122 123.601C285.23 123.456 285.384 123.327 285.584 123.215C285.787 123.1 286.061 123.042 286.406 123.042C286.852 123.042 287.245 123.154 287.586 123.377C287.927 123.6 288.192 123.916 288.383 124.326C288.574 124.735 288.67 125.219 288.67 125.775C288.67 126.337 288.574 126.823 288.383 127.235C288.192 127.645 287.928 127.962 287.589 128.188C287.251 128.411 286.861 128.523 286.419 128.523C286.079 128.523 285.806 128.466 285.602 128.353C285.397 128.238 285.239 128.108 285.129 127.963C285.018 127.816 284.933 127.694 284.873 127.598H284.804V130.4H283.99ZM284.791 125.762C284.791 126.162 284.849 126.515 284.967 126.821C285.084 127.125 285.255 127.363 285.481 127.536C285.706 127.706 285.982 127.791 286.309 127.791C286.65 127.791 286.934 127.701 287.161 127.522C287.392 127.34 287.564 127.096 287.679 126.79C287.797 126.482 287.855 126.139 287.855 125.762C287.855 125.389 287.798 125.053 287.683 124.754C287.57 124.452 287.398 124.214 287.168 124.039C286.941 123.862 286.654 123.774 286.309 123.774C285.978 123.774 285.699 123.858 285.474 124.026C285.248 124.191 285.078 124.424 284.963 124.723C284.848 125.02 284.791 125.366 284.791 125.762Z" fill="#101010"/>
</g>
<g filter="url(#filter2_dd_389_8249)">
<rect x="191.653" y="143.52" width="152.72" height="25.1069" rx="2.77674" fill="white"/>
<rect x="199.983" y="150.52" width="11.1069" height="11.1069" rx="5.55347" fill="#445AFF"/>
<path d="M225.563 152.004V159.072H224.707V152.763H221.146V159.072H220.29V152.004H225.563ZM227.179 161.06V153.771H227.966V154.613H228.063C228.123 154.521 228.205 154.404 228.311 154.261C228.419 154.116 228.574 153.988 228.774 153.875C228.976 153.76 229.25 153.702 229.595 153.702C230.041 153.702 230.435 153.814 230.775 154.037C231.116 154.26 231.382 154.577 231.573 154.986C231.764 155.396 231.859 155.879 231.859 156.436C231.859 156.997 231.764 157.484 231.573 157.895C231.382 158.305 231.117 158.622 230.779 158.848C230.441 159.071 230.051 159.183 229.609 159.183C229.268 159.183 228.996 159.126 228.791 159.014C228.586 158.899 228.429 158.769 228.318 158.624C228.208 158.476 228.123 158.354 228.063 158.258H227.994V161.06H227.179ZM227.98 156.422C227.98 156.822 228.039 157.175 228.156 157.481C228.273 157.785 228.445 158.023 228.67 158.196C228.896 158.366 229.172 158.451 229.498 158.451C229.839 158.451 230.123 158.361 230.351 158.182C230.581 158 230.754 157.756 230.869 157.45C230.986 157.142 231.045 156.799 231.045 156.422C231.045 156.049 230.987 155.713 230.872 155.414C230.759 155.113 230.588 154.874 230.358 154.7C230.13 154.522 229.844 154.434 229.498 154.434C229.167 154.434 228.889 154.518 228.663 154.686C228.438 154.851 228.268 155.084 228.153 155.383C228.037 155.68 227.98 156.026 227.98 156.422ZM235.324 159.183C234.813 159.183 234.373 159.07 234.002 158.844C233.634 158.617 233.35 158.299 233.15 157.892C232.952 157.482 232.853 157.006 232.853 156.463C232.853 155.92 232.952 155.442 233.15 155.027C233.35 154.611 233.628 154.287 233.985 154.054C234.344 153.82 234.763 153.702 235.241 153.702C235.517 153.702 235.79 153.748 236.059 153.84C236.328 153.932 236.573 154.082 236.794 154.289C237.015 154.494 237.191 154.765 237.322 155.103C237.454 155.442 237.519 155.858 237.519 156.353V156.698H233.433V155.994H236.691C236.691 155.695 236.631 155.428 236.511 155.193C236.394 154.958 236.226 154.773 236.007 154.637C235.791 154.502 235.536 154.434 235.241 154.434C234.917 154.434 234.636 154.514 234.399 154.675C234.165 154.834 233.984 155.041 233.857 155.297C233.731 155.552 233.668 155.826 233.668 156.118V156.587C233.668 156.988 233.737 157.327 233.875 157.606C234.015 157.882 234.209 158.092 234.458 158.237C234.706 158.38 234.995 158.451 235.324 158.451C235.538 158.451 235.731 158.421 235.904 158.361C236.079 158.299 236.229 158.207 236.356 158.085C236.483 157.961 236.58 157.807 236.649 157.623L237.436 157.844C237.353 158.111 237.214 158.345 237.019 158.548C236.823 158.748 236.582 158.904 236.294 159.017C236.006 159.127 235.683 159.183 235.324 159.183ZM238.758 159.072V153.771H242.927V159.072H242.113V154.53H239.573V159.072H238.758ZM246.568 159.183C246.09 159.183 245.67 159.069 245.308 158.841C244.95 158.613 244.669 158.295 244.466 157.885C244.266 157.476 244.166 156.997 244.166 156.449C244.166 155.897 244.266 155.415 244.466 155.003C244.669 154.591 244.95 154.272 245.308 154.044C245.67 153.816 246.09 153.702 246.568 153.702C247.047 153.702 247.465 153.816 247.824 154.044C248.186 154.272 248.466 154.591 248.666 155.003C248.869 155.415 248.97 155.897 248.97 156.449C248.97 156.997 248.869 157.476 248.666 157.885C248.466 158.295 248.186 158.613 247.824 158.841C247.465 159.069 247.047 159.183 246.568 159.183ZM246.568 158.451C246.932 158.451 247.231 158.358 247.465 158.172C247.7 157.985 247.874 157.74 247.987 157.436C248.099 157.133 248.156 156.804 248.156 156.449C248.156 156.095 248.099 155.765 247.987 155.459C247.874 155.153 247.7 154.906 247.465 154.717C247.231 154.528 246.932 154.434 246.568 154.434C246.205 154.434 245.905 154.528 245.671 154.717C245.436 154.906 245.262 155.153 245.15 155.459C245.037 155.765 244.981 156.095 244.981 156.449C244.981 156.804 245.037 157.133 245.15 157.436C245.262 157.74 245.436 157.985 245.671 158.172C245.905 158.358 246.205 158.451 246.568 158.451ZM249.647 160.591V158.313H250.089C250.197 158.2 250.291 158.078 250.369 157.947C250.447 157.816 250.515 157.661 250.572 157.481C250.632 157.3 250.683 157.079 250.724 156.819C250.766 156.556 250.802 156.24 250.835 155.87L251.014 153.771H254.382V158.313H255.197V160.591H254.382V159.072H250.462V160.591H249.647ZM251.014 158.313H253.568V154.53H251.773L251.635 155.87C251.578 156.424 251.506 156.908 251.421 157.323C251.336 157.737 251.2 158.067 251.014 158.313ZM257.838 159.197C257.502 159.197 257.197 159.133 256.923 159.007C256.65 158.878 256.432 158.693 256.271 158.451C256.11 158.207 256.03 157.913 256.03 157.568C256.03 157.264 256.089 157.018 256.209 156.829C256.329 156.638 256.489 156.488 256.689 156.38C256.889 156.272 257.11 156.192 257.351 156.139C257.595 156.084 257.84 156.04 258.086 156.008C258.409 155.966 258.67 155.935 258.87 155.914C259.072 155.891 259.22 155.853 259.312 155.801C259.406 155.748 259.453 155.656 259.453 155.524V155.497C259.453 155.156 259.36 154.892 259.174 154.703C258.99 154.514 258.71 154.42 258.335 154.42C257.946 154.42 257.641 154.505 257.42 154.675C257.2 154.846 257.044 155.027 256.955 155.221L256.181 154.945C256.319 154.623 256.504 154.372 256.734 154.192C256.966 154.011 257.219 153.884 257.493 153.813C257.769 153.739 258.04 153.702 258.307 153.702C258.478 153.702 258.673 153.723 258.894 153.764C259.117 153.803 259.332 153.885 259.539 154.009C259.749 154.134 259.923 154.321 260.061 154.572C260.199 154.823 260.268 155.159 260.268 155.58V159.072H259.453V158.354H259.412C259.357 158.469 259.265 158.593 259.136 158.724C259.007 158.855 258.835 158.966 258.621 159.058C258.407 159.15 258.146 159.197 257.838 159.197ZM257.962 158.465C258.284 158.465 258.556 158.402 258.777 158.275C259 158.148 259.168 157.985 259.281 157.785C259.396 157.585 259.453 157.374 259.453 157.153V156.408C259.419 156.449 259.343 156.487 259.225 156.522C259.11 156.554 258.977 156.583 258.825 156.608C258.675 156.631 258.529 156.652 258.387 156.67C258.246 156.686 258.133 156.7 258.045 156.712C257.833 156.739 257.636 156.784 257.451 156.846C257.27 156.906 257.122 156.997 257.01 157.119C256.899 157.239 256.844 157.402 256.844 157.609C256.844 157.892 256.949 158.106 257.158 158.251C257.37 158.394 257.638 158.465 257.962 158.465ZM261.754 159.072V153.771H263.922C264.492 153.771 264.945 153.9 265.281 154.158C265.617 154.415 265.785 154.756 265.785 155.179C265.785 155.501 265.69 155.751 265.499 155.928C265.308 156.103 265.063 156.222 264.764 156.284C264.959 156.311 265.149 156.38 265.333 156.491C265.52 156.601 265.674 156.753 265.796 156.946C265.918 157.137 265.979 157.372 265.979 157.65C265.979 157.922 265.909 158.165 265.771 158.379C265.633 158.593 265.436 158.762 265.178 158.886C264.92 159.01 264.612 159.072 264.253 159.072H261.754ZM262.527 158.327H264.253C264.534 158.327 264.753 158.26 264.912 158.127C265.071 157.993 265.15 157.811 265.15 157.581C265.15 157.308 265.071 157.092 264.912 156.936C264.753 156.777 264.534 156.698 264.253 156.698H262.527V158.327ZM262.527 155.994H263.922C264.14 155.994 264.328 155.964 264.484 155.904C264.641 155.842 264.76 155.755 264.843 155.642C264.928 155.527 264.971 155.391 264.971 155.235C264.971 155.011 264.878 154.836 264.691 154.71C264.505 154.581 264.248 154.517 263.922 154.517H262.527V155.994ZM268.771 159.197C268.435 159.197 268.131 159.133 267.857 159.007C267.583 158.878 267.366 158.693 267.205 158.451C267.044 158.207 266.963 157.913 266.963 157.568C266.963 157.264 267.023 157.018 267.142 156.829C267.262 156.638 267.422 156.488 267.622 156.38C267.822 156.272 268.043 156.192 268.285 156.139C268.529 156.084 268.774 156.04 269.02 156.008C269.342 155.966 269.603 155.935 269.803 155.914C270.006 155.891 270.153 155.853 270.245 155.801C270.339 155.748 270.387 155.656 270.387 155.524V155.497C270.387 155.156 270.293 154.892 270.107 154.703C269.923 154.514 269.643 154.42 269.268 154.42C268.88 154.42 268.575 154.505 268.354 154.675C268.133 154.846 267.978 155.027 267.888 155.221L267.115 154.945C267.253 154.623 267.437 154.372 267.667 154.192C267.899 154.011 268.152 153.884 268.426 153.813C268.702 153.739 268.974 153.702 269.241 153.702C269.411 153.702 269.607 153.723 269.827 153.764C270.051 153.803 270.266 153.885 270.473 154.009C270.682 154.134 270.856 154.321 270.994 154.572C271.132 154.823 271.201 155.159 271.201 155.58V159.072H270.387V158.354H270.345C270.29 158.469 270.198 158.593 270.069 158.724C269.94 158.855 269.769 158.966 269.555 159.058C269.341 159.15 269.08 159.197 268.771 159.197ZM268.896 158.465C269.218 158.465 269.489 158.402 269.71 158.275C269.933 158.148 270.101 157.985 270.214 157.785C270.329 157.585 270.387 157.374 270.387 157.153V156.408C270.352 156.449 270.276 156.487 270.159 156.522C270.044 156.554 269.91 156.583 269.758 156.608C269.609 156.631 269.463 156.652 269.32 156.67C269.18 156.686 269.066 156.7 268.978 156.712C268.767 156.739 268.569 156.784 268.385 156.846C268.203 156.906 268.056 156.997 267.943 157.119C267.833 157.239 267.777 157.402 267.777 157.609C267.777 157.892 267.882 158.106 268.092 158.251C268.303 158.394 268.571 158.465 268.896 158.465ZM271.966 154.53V153.771H276.273V154.53H274.534V159.072H273.72V154.53H271.966ZM279.409 159.183C278.898 159.183 278.457 159.07 278.087 158.844C277.719 158.617 277.435 158.299 277.235 157.892C277.037 157.482 276.938 157.006 276.938 156.463C276.938 155.92 277.037 155.442 277.235 155.027C277.435 154.611 277.713 154.287 278.07 154.054C278.429 153.82 278.847 153.702 279.326 153.702C279.602 153.702 279.875 153.748 280.144 153.84C280.413 153.932 280.658 154.082 280.879 154.289C281.1 154.494 281.276 154.765 281.407 155.103C281.538 155.442 281.604 155.858 281.604 156.353V156.698H277.518V155.994H280.776C280.776 155.695 280.716 155.428 280.596 155.193C280.479 154.958 280.311 154.773 280.092 154.637C279.876 154.502 279.621 154.434 279.326 154.434C279.002 154.434 278.721 154.514 278.484 154.675C278.249 154.834 278.069 155.041 277.942 155.297C277.816 155.552 277.752 155.826 277.752 156.118V156.587C277.752 156.988 277.821 157.327 277.959 157.606C278.1 157.882 278.294 158.092 278.543 158.237C278.791 158.38 279.08 158.451 279.409 158.451C279.623 158.451 279.816 158.421 279.989 158.361C280.164 158.299 280.314 158.207 280.441 158.085C280.567 157.961 280.665 157.807 280.734 157.623L281.521 157.844C281.438 158.111 281.299 158.345 281.103 158.548C280.908 158.748 280.666 158.904 280.379 159.017C280.091 159.127 279.768 159.183 279.409 159.183ZM282.373 159.072V158.313H282.567C282.725 158.313 282.858 158.282 282.964 158.22C283.069 158.155 283.155 158.044 283.219 157.885C283.286 157.724 283.336 157.501 283.371 157.216C283.408 156.928 283.434 156.562 283.45 156.118L283.547 153.771H287.081V159.072H286.266V154.53H284.32L284.237 156.422C284.219 156.857 284.18 157.24 284.12 157.571C284.062 157.9 283.974 158.176 283.854 158.399C283.737 158.622 283.58 158.79 283.385 158.903C283.189 159.016 282.944 159.072 282.65 159.072H282.373ZM289.279 155.69H290.798C291.419 155.69 291.894 155.848 292.223 156.163C292.552 156.478 292.717 156.877 292.717 157.36C292.717 157.678 292.643 157.967 292.496 158.227C292.349 158.484 292.132 158.69 291.847 158.844C291.562 158.996 291.212 159.072 290.798 159.072H288.575V153.771H289.39V158.313H290.798C291.12 158.313 291.385 158.228 291.592 158.058C291.799 157.887 291.902 157.669 291.902 157.402C291.902 157.121 291.799 156.892 291.592 156.715C291.385 156.538 291.12 156.449 290.798 156.449H289.279V155.69Z" fill="#101010"/>
</g>
<g filter="url(#filter3_dd_389_8249)">
<rect x="197.206" y="174.18" width="152.72" height="25.1069" rx="2.77674" fill="white"/>
<rect x="205.536" y="181.18" width="11.1069" height="11.1069" rx="5.55347" fill="#029127"/>
<path d="M226.202 189.831V189.03H226.644C226.814 189.03 226.957 188.997 227.072 188.93C227.189 188.864 227.286 188.777 227.362 188.671C227.44 188.566 227.504 188.455 227.555 188.34L227.665 188.078L225.222 182.666H226.147L228.093 187.056L229.874 182.666H230.785L228.342 188.589C228.245 188.809 228.135 189.014 228.011 189.203C227.889 189.392 227.722 189.543 227.51 189.658C227.301 189.773 227.017 189.831 226.658 189.831H226.202ZM235.177 184.433V189.734H234.363V184.433H235.177ZM234.859 186.96V187.719C234.675 187.788 234.493 187.849 234.311 187.902C234.129 187.952 233.938 187.993 233.738 188.023C233.538 188.05 233.318 188.064 233.079 188.064C232.478 188.064 231.996 187.902 231.633 187.577C231.271 187.253 231.091 186.766 231.091 186.118V184.42H231.905V186.118C231.905 186.389 231.957 186.612 232.061 186.787C232.164 186.962 232.304 187.092 232.482 187.177C232.659 187.262 232.858 187.305 233.079 187.305C233.424 187.305 233.736 187.274 234.014 187.212C234.295 187.147 234.576 187.063 234.859 186.96ZM238.894 189.845C238.383 189.845 237.943 189.732 237.572 189.507C237.204 189.279 236.92 188.961 236.72 188.554C236.522 188.145 236.423 187.668 236.423 187.125C236.423 186.582 236.522 186.104 236.72 185.69C236.92 185.273 237.198 184.949 237.555 184.716C237.914 184.482 238.333 184.364 238.811 184.364C239.087 184.364 239.36 184.41 239.629 184.502C239.898 184.594 240.143 184.744 240.364 184.951C240.585 185.156 240.761 185.427 240.892 185.765C241.023 186.104 241.089 186.52 241.089 187.015V187.36H237.003V186.656H240.261C240.261 186.357 240.201 186.09 240.081 185.855C239.964 185.621 239.796 185.435 239.577 185.3C239.361 185.164 239.106 185.096 238.811 185.096C238.487 185.096 238.206 185.176 237.969 185.338C237.734 185.496 237.554 185.703 237.427 185.959C237.301 186.214 237.237 186.488 237.237 186.78V187.25C237.237 187.65 237.306 187.989 237.444 188.268C237.585 188.544 237.779 188.754 238.028 188.899C238.276 189.042 238.565 189.113 238.894 189.113C239.108 189.113 239.301 189.083 239.474 189.023C239.649 188.961 239.799 188.869 239.926 188.747C240.052 188.623 240.15 188.469 240.219 188.285L241.006 188.506C240.923 188.773 240.784 189.007 240.588 189.21C240.393 189.41 240.151 189.566 239.864 189.679C239.576 189.79 239.253 189.845 238.894 189.845ZM245.876 186.711V187.47H242.949V186.711H245.876ZM243.142 184.433V189.734H242.328V184.433H243.142ZM246.497 184.433V189.734H245.682V184.433H246.497ZM248.799 188.533L251.353 184.433H252.291V189.734H251.477V185.634L248.937 189.734H247.984V184.433H248.799V188.533ZM253.783 189.734V184.433H254.598V186.739H255.136L257.041 184.433H258.09L255.951 186.987L258.118 189.734H257.069L255.329 187.498H254.598V189.734H253.783Z" fill="#101010"/>
</g>
<g filter="url(#filter4_dd_389_8249)">
<rect x="202.76" y="204.84" width="152.72" height="25.1069" rx="2.77674" fill="white"/>
<rect x="211.09" y="211.84" width="11.1069" height="11.1069" rx="5.55347" fill="#DD0D0C"/>
<path d="M231.383 220.393V213.325H233.771C234.326 213.325 234.779 213.425 235.131 213.625C235.485 213.823 235.748 214.091 235.918 214.429C236.088 214.767 236.173 215.144 236.173 215.561C236.173 215.977 236.088 216.356 235.918 216.696C235.75 217.037 235.49 217.308 235.138 217.511C234.786 217.711 234.335 217.811 233.785 217.811H232.073V217.052H233.757C234.137 217.052 234.442 216.986 234.672 216.855C234.902 216.724 235.069 216.547 235.172 216.324C235.278 216.098 235.331 215.844 235.331 215.561C235.331 215.278 235.278 215.025 235.172 214.802C235.069 214.578 234.901 214.404 234.669 214.277C234.436 214.148 234.128 214.084 233.744 214.084H232.239V220.393H231.383ZM239.538 220.503C239.06 220.503 238.64 220.389 238.278 220.161C237.92 219.934 237.639 219.615 237.436 219.205C237.236 218.796 237.136 218.317 237.136 217.77C237.136 217.217 237.236 216.735 237.436 216.324C237.639 215.912 237.92 215.592 238.278 215.364C238.64 215.136 239.06 215.023 239.538 215.023C240.017 215.023 240.435 215.136 240.794 215.364C241.156 215.592 241.436 215.912 241.636 216.324C241.839 216.735 241.94 217.217 241.94 217.77C241.94 218.317 241.839 218.796 241.636 219.205C241.436 219.615 241.156 219.934 240.794 220.161C240.435 220.389 240.017 220.503 239.538 220.503ZM239.538 219.771C239.902 219.771 240.201 219.678 240.435 219.492C240.67 219.305 240.844 219.06 240.957 218.757C241.069 218.453 241.126 218.124 241.126 217.77C241.126 217.415 241.069 217.085 240.957 216.779C240.844 216.473 240.67 216.226 240.435 216.037C240.201 215.849 239.902 215.754 239.538 215.754C239.175 215.754 238.876 215.849 238.641 216.037C238.406 216.226 238.232 216.473 238.12 216.779C238.007 217.085 237.951 217.415 237.951 217.77C237.951 218.124 238.007 218.453 238.12 218.757C238.232 219.06 238.406 219.305 238.641 219.492C238.876 219.678 239.175 219.771 239.538 219.771ZM242.617 221.911V219.633H243.059C243.167 219.521 243.261 219.399 243.339 219.267C243.417 219.136 243.485 218.981 243.542 218.802C243.602 218.62 243.653 218.399 243.694 218.139C243.736 217.877 243.772 217.56 243.805 217.19L243.984 215.092H247.353V219.633H248.167V221.911H247.353V220.393H243.432V221.911H242.617ZM243.984 219.633H246.538V215.851H244.743L244.605 217.19C244.548 217.744 244.477 218.229 244.391 218.643C244.306 219.057 244.171 219.387 243.984 219.633ZM250.063 219.192L252.616 215.092H253.555V220.393H252.741V216.293L250.201 220.393H249.248V215.092H250.063V219.192ZM254.326 215.851V215.092H258.633V215.851H256.893V220.393H256.079V215.851H254.326ZM261.768 220.503C261.257 220.503 260.817 220.39 260.446 220.165C260.078 219.937 259.794 219.62 259.594 219.212C259.396 218.803 259.297 218.326 259.297 217.783C259.297 217.24 259.396 216.762 259.594 216.348C259.794 215.931 260.072 215.607 260.429 215.375C260.788 215.14 261.207 215.023 261.685 215.023C261.961 215.023 262.234 215.069 262.503 215.161C262.772 215.253 263.018 215.402 263.238 215.609C263.459 215.814 263.635 216.085 263.766 216.424C263.898 216.762 263.963 217.178 263.963 217.673V218.018H259.877V217.314H263.135C263.135 217.015 263.075 216.748 262.955 216.513C262.838 216.279 262.67 216.094 262.452 215.958C262.235 215.822 261.98 215.754 261.685 215.754C261.361 215.754 261.08 215.835 260.843 215.996C260.609 216.155 260.428 216.362 260.301 216.617C260.175 216.872 260.112 217.146 260.112 217.438V217.908C260.112 218.308 260.181 218.647 260.319 218.926C260.459 219.202 260.653 219.412 260.902 219.557C261.15 219.7 261.439 219.771 261.768 219.771C261.982 219.771 262.175 219.741 262.348 219.682C262.523 219.62 262.674 219.527 262.8 219.406C262.927 219.281 263.024 219.127 263.093 218.943L263.88 219.164C263.797 219.431 263.658 219.666 263.463 219.868C263.267 220.068 263.026 220.225 262.738 220.337C262.45 220.448 262.127 220.503 261.768 220.503ZM264.733 220.393V219.633H264.926C265.085 219.633 265.217 219.602 265.323 219.54C265.429 219.476 265.514 219.364 265.578 219.205C265.645 219.044 265.696 218.821 265.73 218.536C265.767 218.248 265.793 217.882 265.81 217.438L265.906 215.092H269.44V220.393H268.626V215.851H266.679L266.596 217.742C266.578 218.177 266.539 218.56 266.479 218.891C266.422 219.22 266.333 219.496 266.213 219.72C266.096 219.943 265.94 220.111 265.744 220.223C265.548 220.336 265.303 220.393 265.009 220.393H264.733ZM271.639 217.01H273.157C273.778 217.01 274.253 217.168 274.582 217.483C274.911 217.798 275.076 218.198 275.076 218.681C275.076 218.998 275.002 219.287 274.855 219.547C274.708 219.805 274.492 220.011 274.206 220.165C273.921 220.317 273.571 220.393 273.157 220.393H270.935V215.092H271.749V219.633H273.157C273.479 219.633 273.744 219.548 273.951 219.378C274.158 219.208 274.262 218.989 274.262 218.722C274.262 218.442 274.158 218.213 273.951 218.035C273.744 217.858 273.479 217.77 273.157 217.77H271.639V217.01Z" fill="#101010"/>
</g>
<g filter="url(#filter5_dd_389_8249)">
<rect x="208.313" y="235.502" width="152.72" height="25.1069" rx="2.77674" fill="white"/>
<rect x="216.643" y="242.502" width="11.1069" height="11.1069" rx="5.55347" fill="#9F9F9F"/>
<path d="M241.202 243.987V244.746H237.792V251.055H236.936V243.987H241.202ZM243.801 251.165C243.322 251.165 242.902 251.051 242.541 250.823C242.182 250.596 241.902 250.277 241.699 249.867C241.499 249.458 241.399 248.979 241.399 248.432C241.399 247.88 241.499 247.398 241.699 246.986C241.902 246.574 242.182 246.254 242.541 246.026C242.902 245.799 243.322 245.685 243.801 245.685C244.279 245.685 244.698 245.799 245.057 246.026C245.418 246.254 245.699 246.574 245.899 246.986C246.102 247.398 246.203 247.88 246.203 248.432C246.203 248.979 246.102 249.458 245.899 249.867C245.699 250.277 245.418 250.596 245.057 250.823C244.698 251.051 244.279 251.165 243.801 251.165ZM243.801 250.433C244.164 250.433 244.463 250.34 244.698 250.154C244.933 249.968 245.107 249.723 245.219 249.419C245.332 249.115 245.388 248.786 245.388 248.432C245.388 248.077 245.332 247.747 245.219 247.441C245.107 247.135 244.933 246.888 244.698 246.699C244.463 246.511 244.164 246.416 243.801 246.416C243.437 246.416 243.138 246.511 242.904 246.699C242.669 246.888 242.495 247.135 242.382 247.441C242.27 247.747 242.213 248.077 242.213 248.432C242.213 248.786 242.27 249.115 242.382 249.419C242.495 249.723 242.669 249.968 242.904 250.154C243.138 250.34 243.437 250.433 243.801 250.433ZM249.6 251.165C249.103 251.165 248.675 251.048 248.316 250.813C247.957 250.578 247.681 250.255 247.488 249.843C247.294 249.431 247.198 248.961 247.198 248.432C247.198 247.893 247.297 247.418 247.495 247.006C247.695 246.592 247.973 246.269 248.33 246.037C248.689 245.802 249.107 245.685 249.586 245.685C249.959 245.685 250.295 245.754 250.594 245.892C250.893 246.03 251.138 246.223 251.329 246.471C251.52 246.72 251.638 247.01 251.684 247.341H250.87C250.808 247.1 250.67 246.886 250.456 246.699C250.244 246.511 249.959 246.416 249.6 246.416C249.282 246.416 249.004 246.499 248.765 246.665C248.528 246.828 248.342 247.059 248.209 247.358C248.078 247.655 248.012 248.004 248.012 248.404C248.012 248.814 248.077 249.17 248.205 249.474C248.337 249.778 248.521 250.014 248.758 250.182C248.997 250.349 249.278 250.433 249.6 250.433C249.811 250.433 250.004 250.397 250.176 250.323C250.349 250.249 250.495 250.144 250.614 250.006C250.734 249.867 250.819 249.702 250.87 249.509H251.684C251.638 249.821 251.524 250.103 251.343 250.354C251.163 250.603 250.925 250.8 250.628 250.948C250.334 251.093 249.991 251.165 249.6 251.165ZM252.457 246.513V245.754H256.764V246.513H255.025V251.055H254.211V246.513H252.457ZM258.657 247.673H260.175C260.796 247.673 261.271 247.83 261.6 248.145C261.929 248.461 262.094 248.86 262.094 249.343C262.094 249.66 262.02 249.949 261.873 250.209C261.726 250.467 261.51 250.673 261.224 250.827C260.939 250.979 260.589 251.055 260.175 251.055H257.953V245.754H258.767V250.295H260.175C260.497 250.295 260.762 250.21 260.969 250.04C261.176 249.87 261.279 249.651 261.279 249.384C261.279 249.104 261.176 248.875 260.969 248.698C260.762 248.52 260.497 248.432 260.175 248.432H258.657V247.673Z" fill="#101010"/>
</g>
<defs>
<filter id="filter0_dd_389_8249" x="0.75235" y="18.4504" width="270.732" height="224.371" filterUnits="userSpaceOnUse" color-interpolation-filters="sRGB">
<feFlood flood-opacity="0" result="BackgroundImageFix"/>
<feColorMatrix in="SourceAlpha" type="matrix" values="0 0 0 0 0 0 0 0 0 0 0 0 0 0 0 0 0 0 127 0" result="hardAlpha"/>
<feOffset dy="16.6604"/>
<feGaussianBlur stdDeviation="11.1069"/>
<feComposite in2="hardAlpha" operator="out"/>
<feColorMatrix type="matrix" values="0 0 0 0 0.0627451 0 0 0 0 0.0627451 0 0 0 0 0.0627451 0 0 0 0.08 0"/>
<feBlend mode="normal" in2="BackgroundImageFix" result="effect1_dropShadow_389_8249"/>
<feColorMatrix in="SourceAlpha" type="matrix" values="0 0 0 0 0 0 0 0 0 0 0 0 0 0 0 0 0 0 127 0" result="hardAlpha"/>
<feOffset dy="11.1069"/>
<feGaussianBlur stdDeviation="5.55347"/>
<feComposite in2="hardAlpha" operator="out"/>
<feColorMatrix type="matrix" values="0 0 0 0 0.0627451 0 0 0 0 0.0627451 0 0 0 0 0.0627451 0 0 0 0.08 0"/>
<feBlend mode="normal" in2="effect1_dropShadow_389_8249" result="effect2_dropShadow_389_8249"/>
<feBlend mode="normal" in="SourceGraphic" in2="effect2_dropShadow_389_8249" result="shape"/>
</filter>
<filter id="filter1_dd_389_8249" x="158.332" y="107.306" width="208.255" height="80.6421" filterUnits="userSpaceOnUse" color-interpolation-filters="sRGB">
<feFlood flood-opacity="0" result="BackgroundImageFix"/>
<feColorMatrix in="SourceAlpha" type="matrix" values="0 0 0 0 0 0 0 0 0 0 0 0 0 0 0 0 0 0 127 0" result="hardAlpha"/>
<feOffset dy="22.2139"/>
<feGaussianBlur stdDeviation="13.8837"/>
<feComposite in2="hardAlpha" operator="out"/>
<feColorMatrix type="matrix" values="0 0 0 0 0.0627451 0 0 0 0 0.0627451 0 0 0 0 0.0627451 0 0 0 0.08 0"/>
<feBlend mode="normal" in2="BackgroundImageFix" result="effect1_dropShadow_389_8249"/>
<feColorMatrix in="SourceAlpha" type="matrix" values="0 0 0 0 0 0 0 0 0 0 0 0 0 0 0 0 0 0 127 0" result="hardAlpha"/>
<feOffset dy="13.8837"/>
<feGaussianBlur stdDeviation="6.94184"/>
<feComposite in2="hardAlpha" operator="out"/>
<feColorMatrix type="matrix" values="0 0 0 0 0.0627451 0 0 0 0 0.0627451 0 0 0 0 0.0627451 0 0 0 0.08 0"/>
<feBlend mode="normal" in2="effect1_dropShadow_389_8249" result="effect2_dropShadow_389_8249"/>
<feBlend mode="normal" in="SourceGraphic" in2="effect2_dropShadow_389_8249" result="shape"/>
</filter>
<filter id="filter2_dd_389_8249" x="158.332" y="137.966" width="213.809" height="80.6421" filterUnits="userSpaceOnUse" color-interpolation-filters="sRGB">
<feFlood flood-opacity="0" result="BackgroundImageFix"/>
<feColorMatrix in="SourceAlpha" type="matrix" values="0 0 0 0 0 0 0 0 0 0 0 0 0 0 0 0 0 0 127 0" result="hardAlpha"/>
<feOffset dy="22.2139"/>
<feGaussianBlur stdDeviation="13.8837"/>
<feComposite in2="hardAlpha" operator="out"/>
<feColorMatrix type="matrix" values="0 0 0 0 0.0627451 0 0 0 0 0.0627451 0 0 0 0 0.0627451 0 0 0 0.08 0"/>
<feBlend mode="normal" in2="BackgroundImageFix" result="effect1_dropShadow_389_8249"/>
<feColorMatrix in="SourceAlpha" type="matrix" values="0 0 0 0 0 0 0 0 0 0 0 0 0 0 0 0 0 0 127 0" result="hardAlpha"/>
<feOffset dy="13.8837"/>
<feGaussianBlur stdDeviation="6.94184"/>
<feComposite in2="hardAlpha" operator="out"/>
<feColorMatrix type="matrix" values="0 0 0 0 0.0627451 0 0 0 0 0.0627451 0 0 0 0 0.0627451 0 0 0 0.08 0"/>
<feBlend mode="normal" in2="effect1_dropShadow_389_8249" result="effect2_dropShadow_389_8249"/>
<feBlend mode="normal" in="SourceGraphic" in2="effect2_dropShadow_389_8249" result="shape"/>
</filter>
<filter id="filter3_dd_389_8249" x="158.332" y="168.626" width="219.362" height="80.6421" filterUnits="userSpaceOnUse" color-interpolation-filters="sRGB">
<feFlood flood-opacity="0" result="BackgroundImageFix"/>
<feColorMatrix in="SourceAlpha" type="matrix" values="0 0 0 0 0 0 0 0 0 0 0 0 0 0 0 0 0 0 127 0" result="hardAlpha"/>
<feOffset dy="22.2139"/>
<feGaussianBlur stdDeviation="13.8837"/>
<feComposite in2="hardAlpha" operator="out"/>
<feColorMatrix type="matrix" values="0 0 0 0 0.0627451 0 0 0 0 0.0627451 0 0 0 0 0.0627451 0 0 0 0.08 0"/>
<feBlend mode="normal" in2="BackgroundImageFix" result="effect1_dropShadow_389_8249"/>
<feColorMatrix in="SourceAlpha" type="matrix" values="0 0 0 0 0 0 0 0 0 0 0 0 0 0 0 0 0 0 127 0" result="hardAlpha"/>
<feOffset dy="13.8837"/>
<feGaussianBlur stdDeviation="6.94184"/>
<feComposite in2="hardAlpha" operator="out"/>
<feColorMatrix type="matrix" values="0 0 0 0 0.0627451 0 0 0 0 0.0627451 0 0 0 0 0.0627451 0 0 0 0.08 0"/>
<feBlend mode="normal" in2="effect1_dropShadow_389_8249" result="effect2_dropShadow_389_8249"/>
<feBlend mode="normal" in="SourceGraphic" in2="effect2_dropShadow_389_8249" result="shape"/>
</filter>
<filter id="filter4_dd_389_8249" x="158.332" y="199.286" width="224.916" height="80.6421" filterUnits="userSpaceOnUse" color-interpolation-filters="sRGB">
<feFlood flood-opacity="0" result="BackgroundImageFix"/>
<feColorMatrix in="SourceAlpha" type="matrix" values="0 0 0 0 0 0 0 0 0 0 0 0 0 0 0 0 0 0 127 0" result="hardAlpha"/>
<feOffset dy="22.2139"/>
<feGaussianBlur stdDeviation="13.8837"/>
<feComposite in2="hardAlpha" operator="out"/>
<feColorMatrix type="matrix" values="0 0 0 0 0.0627451 0 0 0 0 0.0627451 0 0 0 0 0.0627451 0 0 0 0.08 0"/>
<feBlend mode="normal" in2="BackgroundImageFix" result="effect1_dropShadow_389_8249"/>
<feColorMatrix in="SourceAlpha" type="matrix" values="0 0 0 0 0 0 0 0 0 0 0 0 0 0 0 0 0 0 127 0" result="hardAlpha"/>
<feOffset dy="13.8837"/>
<feGaussianBlur stdDeviation="6.94184"/>
<feComposite in2="hardAlpha" operator="out"/>
<feColorMatrix type="matrix" values="0 0 0 0 0.0627451 0 0 0 0 0.0627451 0 0 0 0 0.0627451 0 0 0 0.08 0"/>
<feBlend mode="normal" in2="effect1_dropShadow_389_8249" result="effect2_dropShadow_389_8249"/>
<feBlend mode="normal" in="SourceGraphic" in2="effect2_dropShadow_389_8249" result="shape"/>
</filter>
<filter id="filter5_dd_389_8249" x="158.332" y="229.948" width="230.469" height="80.6421" filterUnits="userSpaceOnUse" color-interpolation-filters="sRGB">
<feFlood flood-opacity="0" result="BackgroundImageFix"/>
<feColorMatrix in="SourceAlpha" type="matrix" values="0 0 0 0 0 0 0 0 0 0 0 0 0 0 0 0 0 0 127 0" result="hardAlpha"/>
<feOffset dy="22.2139"/>
<feGaussianBlur stdDeviation="13.8837"/>
<feComposite in2="hardAlpha" operator="out"/>
<feColorMatrix type="matrix" values="0 0 0 0 0.0627451 0 0 0 0 0.0627451 0 0 0 0 0.0627451 0 0 0 0.08 0"/>
<feBlend mode="normal" in2="BackgroundImageFix" result="effect1_dropShadow_389_8249"/>
<feColorMatrix in="SourceAlpha" type="matrix" values="0 0 0 0 0 0 0 0 0 0 0 0 0 0 0 0 0 0 127 0" result="hardAlpha"/>
<feOffset dy="13.8837"/>
<feGaussianBlur stdDeviation="6.94184"/>
<feComposite in2="hardAlpha" operator="out"/>
<feColorMatrix type="matrix" values="0 0 0 0 0.0627451 0 0 0 0 0.0627451 0 0 0 0 0.0627451 0 0 0 0.08 0"/>
<feBlend mode="normal" in2="effect1_dropShadow_389_8249" result="effect2_dropShadow_389_8249"/>
<feBlend mode="normal" in="SourceGraphic" in2="effect2_dropShadow_389_8249" result="shape"/>
</filter>
</defs>
</svg>
