<svg width="64" height="64" viewBox="0 0 64 64" fill="none" xmlns="http://www.w3.org/2000/svg">
<g filter="url(#filter0_ii_385_7410)">
<rect width="64" height="64" rx="16" fill="#445AFF"/>
<g clip-path="url(#clip0_385_7410)">
<g filter="url(#filter1_di_385_7410)">
<path fill-rule="evenodd" clip-rule="evenodd" d="M38.6667 40.3333H24.4101L20.3333 42.7794V25.3333C20.3333 22.5719 22.5719 20.3333 25.3333 20.3333H38.6667C41.4281 20.3333 43.6667 22.5719 43.6667 25.3333V35.3333C43.6667 38.0948 41.4281 40.3333 38.6667 40.3333ZM38.6667 43.6667H25.3333L19.5242 47.1522C18.4133 47.8187 17 47.0185 17 45.723V25.3333C17 20.731 20.731 17 25.3333 17H38.6667C43.269 17 47 20.731 47 25.3333V35.3333C47 39.9357 43.269 43.6667 38.6667 43.6667ZM23.6667 30.7501C23.6667 29.5995 24.5994 28.6667 25.75 28.6667C26.9006 28.6667 27.8333 29.5995 27.8333 30.7501C27.8333 31.9007 26.9006 32.8334 25.75 32.8334C24.5994 32.8334 23.6667 31.9007 23.6667 30.7501ZM29.9167 30.7501C29.9167 29.5995 30.8494 28.6667 32 28.6667C33.1506 28.6667 34.0833 29.5995 34.0833 30.7501C34.0833 31.9007 33.1506 32.8334 32 32.8334C30.8494 32.8334 29.9167 31.9007 29.9167 30.7501ZM38.25 28.6667C37.0994 28.6667 36.1667 29.5995 36.1667 30.7501C36.1667 31.9007 37.0994 32.8334 38.25 32.8334C39.4006 32.8334 40.3333 31.9007 40.3333 30.7501C40.3333 29.5995 39.4006 28.6667 38.25 28.6667Z" fill="white"/>
</g>
</g>
</g>
<defs>
<filter id="filter0_ii_385_7410" x="-12" y="-12" width="88" height="88" filterUnits="userSpaceOnUse" color-interpolation-filters="sRGB">
<feFlood flood-opacity="0" result="BackgroundImageFix"/>
<feBlend mode="normal" in="SourceGraphic" in2="BackgroundImageFix" result="shape"/>
<feColorMatrix in="SourceAlpha" type="matrix" values="0 0 0 0 0 0 0 0 0 0 0 0 0 0 0 0 0 0 127 0" result="hardAlpha"/>
<feOffset dx="-12" dy="-12"/>
<feGaussianBlur stdDeviation="6"/>
<feComposite in2="hardAlpha" operator="arithmetic" k2="-1" k3="1"/>
<feColorMatrix type="matrix" values="0 0 0 0 0.105882 0 0 0 0 0.105882 0 0 0 0 0.105882 0 0 0 0.15 0"/>
<feBlend mode="normal" in2="shape" result="effect1_innerShadow_385_7410"/>
<feColorMatrix in="SourceAlpha" type="matrix" values="0 0 0 0 0 0 0 0 0 0 0 0 0 0 0 0 0 0 127 0" result="hardAlpha"/>
<feOffset dx="12" dy="12"/>
<feGaussianBlur stdDeviation="6"/>
<feComposite in2="hardAlpha" operator="arithmetic" k2="-1" k3="1"/>
<feColorMatrix type="matrix" values="0 0 0 0 1 0 0 0 0 1 0 0 0 0 1 0 0 0 0.15 0"/>
<feBlend mode="normal" in2="effect1_innerShadow_385_7410" result="effect2_innerShadow_385_7410"/>
</filter>
<filter id="filter1_di_385_7410" x="5" y="5" width="54" height="54.3921" filterUnits="userSpaceOnUse" color-interpolation-filters="sRGB">
<feFlood flood-opacity="0" result="BackgroundImageFix"/>
<feColorMatrix in="SourceAlpha" type="matrix" values="0 0 0 0 0 0 0 0 0 0 0 0 0 0 0 0 0 0 127 0" result="hardAlpha"/>
<feOffset/>
<feGaussianBlur stdDeviation="6"/>
<feColorMatrix type="matrix" values="0 0 0 0 0.105882 0 0 0 0 0.105882 0 0 0 0 0.105882 0 0 0 0.15 0"/>
<feBlend mode="normal" in2="BackgroundImageFix" result="effect1_dropShadow_385_7410"/>
<feBlend mode="normal" in="SourceGraphic" in2="effect1_dropShadow_385_7410" result="shape"/>
<feColorMatrix in="SourceAlpha" type="matrix" values="0 0 0 0 0 0 0 0 0 0 0 0 0 0 0 0 0 0 127 0" result="hardAlpha"/>
<feOffset dx="-2" dy="-2"/>
<feGaussianBlur stdDeviation="3"/>
<feComposite in2="hardAlpha" operator="arithmetic" k2="-1" k3="1"/>
<feColorMatrix type="matrix" values="0 0 0 0 0.105882 0 0 0 0 0.105882 0 0 0 0 0.105882 0 0 0 0.15 0"/>
<feBlend mode="normal" in2="shape" result="effect2_innerShadow_385_7410"/>
</filter>
<clipPath id="clip0_385_7410">
<rect width="40" height="40" fill="white" transform="translate(12 12)"/>
</clipPath>
</defs>
</svg>
