<svg width="81" height="81" viewBox="0 0 81 81" fill="none" xmlns="http://www.w3.org/2000/svg">
<rect x="0.446198" y="0.335938" width="79.9324" height="79.9324" rx="39.9662" fill="#445AFF"/>
<path d="M32.3643 36.2193L37.2959 30.1973H43.7685L35.4465 39.9985L43.7685 50.1684H37.9123L32.3643 43.624L26.8163 50.1684H20.9601L29.2821 39.9985L20.9601 30.1973H27.4327L32.3643 36.2193Z" fill="white"/>
<path d="M50.5591 30.1973V50.1684H45.6275V30.1973H50.5591Z" fill="white"/>
<path d="M56.0218 50.66C54.9328 50.66 54.0081 50.281 53.2478 49.5231C52.4875 48.7653 52.1074 47.8435 52.1074 46.7579C52.1074 46.041 52.2821 45.3855 52.6314 44.7915C52.9807 44.1975 53.4533 43.7264 54.0492 43.3782C54.6451 43.0095 55.3026 42.8251 56.0218 42.8251C56.7205 42.8251 57.3677 43.0095 57.9636 43.3782C58.5801 43.7264 59.063 44.2078 59.4123 44.8223C59.7821 45.4163 59.9671 46.0615 59.9671 46.7579C59.9671 47.4748 59.7821 48.1303 59.4123 48.7243C59.063 49.3183 58.5903 49.7894 57.9944 50.1376C57.3985 50.4859 56.741 50.66 56.0218 50.66Z" fill="white"/>
</svg>
