<svg width="282" height="96" viewBox="0 0 282 96" fill="none" xmlns="http://www.w3.org/2000/svg">
<g filter="url(#filter0_ii_736_9670)">
<rect width="96" height="96" rx="32" fill="#445AFF"/>
<g filter="url(#filter1_di_736_9670)">
<path d="M40.5 34.25C39.8096 34.25 39.25 34.8096 39.25 35.5V38C39.25 38.6904 39.8096 39.25 40.5 39.25H55.5C56.1904 39.25 56.75 38.6904 56.75 38V35.5C56.75 34.8096 56.1904 34.25 55.5 34.25H40.5Z" fill="white"/>
<path d="M39.25 43C39.25 42.3096 39.8096 41.75 40.5 41.75H55.5C56.1904 41.75 56.75 42.3096 56.75 43V45.5C56.75 46.1904 56.1904 46.75 55.5 46.75H40.5C39.8096 46.75 39.25 46.1904 39.25 45.5V43Z" fill="white"/>
<path d="M40.5 49.25C39.8096 49.25 39.25 49.8096 39.25 50.5V53C39.25 53.6904 39.8096 54.25 40.5 54.25H55.5C56.1904 54.25 56.75 53.6904 56.75 53V50.5C56.75 49.8096 56.1904 49.25 55.5 49.25H40.5Z" fill="white"/>
<path d="M39.25 58C39.25 57.3096 39.8096 56.75 40.5 56.75H48C48.6904 56.75 49.25 57.3096 49.25 58V60.5C49.25 61.1904 48.6904 61.75 48 61.75H40.5C39.8096 61.75 39.25 61.1904 39.25 60.5V58Z" fill="white"/>
<path fill-rule="evenodd" clip-rule="evenodd" d="M30.5 33C30.5 28.8579 33.8579 25.5 38 25.5H58C62.1421 25.5 65.5 28.8579 65.5 33V63C65.5 67.1421 62.1421 70.5 58 70.5H38C33.8579 70.5 30.5 67.1421 30.5 63V33ZM38 30.5H58C59.3807 30.5 60.5 31.6193 60.5 33V63C60.5 64.3807 59.3807 65.5 58 65.5H38C36.6193 65.5 35.5 64.3807 35.5 63V33C35.5 31.6193 36.6193 30.5 38 30.5Z" fill="white"/>
</g>
</g>
<path d="M138.114 72.1591C134.992 72.1591 132.303 71.5909 130.045 70.4545C127.803 69.3182 126.076 67.7727 124.864 65.8182C123.652 63.8485 123.045 61.6212 123.045 59.1364C123.045 57.2424 123.439 55.5606 124.227 54.0909C125.015 52.6061 126.114 51.2348 127.523 49.9773C128.932 48.7197 130.561 47.4545 132.409 46.1818L139.909 40.8864C141.182 40.053 142.174 39.1742 142.886 38.25C143.598 37.3106 143.955 36.1515 143.955 34.7727C143.955 33.6818 143.485 32.6364 142.545 31.6364C141.606 30.6364 140.348 30.1364 138.773 30.1364C137.682 30.1364 136.72 30.4015 135.886 30.9318C135.068 31.4621 134.424 32.1439 133.955 32.9773C133.5 33.7955 133.273 34.6591 133.273 35.5682C133.273 36.6288 133.561 37.697 134.136 38.7727C134.727 39.8485 135.485 40.9621 136.409 42.1136C137.333 43.25 138.303 44.4318 139.318 45.6591L160.932 71.5H153.25L135.364 50.4773C133.864 48.7045 132.47 47.0379 131.182 45.4773C129.894 43.9015 128.848 42.3106 128.045 40.7045C127.258 39.0833 126.864 37.3333 126.864 35.4545C126.864 33.3182 127.348 31.4242 128.318 29.7727C129.303 28.1061 130.674 26.803 132.432 25.8636C134.189 24.9242 136.25 24.4545 138.614 24.4545C141.008 24.4545 143.061 24.9242 144.773 25.8636C146.5 26.7879 147.826 28.0227 148.75 29.5682C149.689 31.0985 150.159 32.7727 150.159 34.5909C150.159 36.803 149.606 38.7576 148.5 40.4545C147.409 42.1364 145.902 43.6818 143.977 45.0909L134.636 51.9773C132.818 53.3106 131.553 54.6288 130.841 55.9318C130.144 57.2197 129.795 58.2273 129.795 58.9545C129.795 60.2879 130.136 61.5227 130.818 62.6591C131.515 63.7955 132.485 64.7045 133.727 65.3864C134.985 66.0682 136.455 66.4091 138.136 66.4091C139.864 66.4091 141.545 66.0379 143.182 65.2955C144.833 64.5379 146.326 63.4545 147.659 62.0455C149.008 60.6364 150.076 58.947 150.864 56.9773C151.652 55.0076 152.045 52.803 152.045 50.3636H158.182C158.182 53.3636 157.841 55.9015 157.159 57.9773C156.477 60.0379 155.652 61.7197 154.682 63.0227C153.727 64.3106 152.826 65.3182 151.977 66.0455C151.705 66.2879 151.447 66.5303 151.205 66.7727C150.962 67.0152 150.705 67.2576 150.432 67.5C148.856 69.0909 146.947 70.2652 144.705 71.0227C142.477 71.7803 140.28 72.1591 138.114 72.1591Z" fill="#888888"/>
<g filter="url(#filter2_ii_736_9670)">
<rect x="186" width="96" height="96" rx="32" fill="#445AFF"/>
<g clip-path="url(#clip0_736_9670)">
<g filter="url(#filter3_di_736_9670)">
<path fill-rule="evenodd" clip-rule="evenodd" d="M244 30.5H224C219.858 30.5 216.5 33.8579 216.5 38V58C216.5 62.1421 219.858 65.5 224 65.5H244C248.142 65.5 251.5 62.1421 251.5 58V38C251.5 33.8579 248.142 30.5 244 30.5ZM224 25.5C217.096 25.5 211.5 31.0964 211.5 38V58C211.5 64.9036 217.096 70.5 224 70.5H244C250.904 70.5 256.5 64.9036 256.5 58V38C256.5 31.0964 250.904 25.5 244 25.5H224ZM225.768 46.3211C226.744 45.3448 228.327 45.3448 229.303 46.3211L231.071 48.0889L238.142 41.0178C239.118 40.0415 240.701 40.0415 241.678 41.0178C242.654 41.9941 242.654 43.577 241.678 44.5533L232.845 53.3863C232.843 53.3883 232.841 53.3902 232.839 53.3922C231.862 54.3685 230.28 54.3685 229.303 53.3922L225.768 49.8566C224.791 48.8803 224.791 47.2974 225.768 46.3211Z" fill="white"/>
</g>
</g>
</g>
<defs>
<filter id="filter0_ii_736_9670" x="-12" y="-12" width="120" height="120" filterUnits="userSpaceOnUse" color-interpolation-filters="sRGB">
<feFlood flood-opacity="0" result="BackgroundImageFix"/>
<feBlend mode="normal" in="SourceGraphic" in2="BackgroundImageFix" result="shape"/>
<feColorMatrix in="SourceAlpha" type="matrix" values="0 0 0 0 0 0 0 0 0 0 0 0 0 0 0 0 0 0 127 0" result="hardAlpha"/>
<feOffset dx="-12" dy="-12"/>
<feGaussianBlur stdDeviation="6"/>
<feComposite in2="hardAlpha" operator="arithmetic" k2="-1" k3="1"/>
<feColorMatrix type="matrix" values="0 0 0 0 0.105882 0 0 0 0 0.105882 0 0 0 0 0.105882 0 0 0 0.15 0"/>
<feBlend mode="normal" in2="shape" result="effect1_innerShadow_736_9670"/>
<feColorMatrix in="SourceAlpha" type="matrix" values="0 0 0 0 0 0 0 0 0 0 0 0 0 0 0 0 0 0 127 0" result="hardAlpha"/>
<feOffset dx="12" dy="12"/>
<feGaussianBlur stdDeviation="6"/>
<feComposite in2="hardAlpha" operator="arithmetic" k2="-1" k3="1"/>
<feColorMatrix type="matrix" values="0 0 0 0 1 0 0 0 0 1 0 0 0 0 1 0 0 0 0.15 0"/>
<feBlend mode="normal" in2="effect1_innerShadow_736_9670" result="effect2_innerShadow_736_9670"/>
</filter>
<filter id="filter1_di_736_9670" x="18.5" y="13.5" width="59" height="69" filterUnits="userSpaceOnUse" color-interpolation-filters="sRGB">
<feFlood flood-opacity="0" result="BackgroundImageFix"/>
<feColorMatrix in="SourceAlpha" type="matrix" values="0 0 0 0 0 0 0 0 0 0 0 0 0 0 0 0 0 0 127 0" result="hardAlpha"/>
<feOffset/>
<feGaussianBlur stdDeviation="6"/>
<feColorMatrix type="matrix" values="0 0 0 0 0.105882 0 0 0 0 0.105882 0 0 0 0 0.105882 0 0 0 0.15 0"/>
<feBlend mode="normal" in2="BackgroundImageFix" result="effect1_dropShadow_736_9670"/>
<feBlend mode="normal" in="SourceGraphic" in2="effect1_dropShadow_736_9670" result="shape"/>
<feColorMatrix in="SourceAlpha" type="matrix" values="0 0 0 0 0 0 0 0 0 0 0 0 0 0 0 0 0 0 127 0" result="hardAlpha"/>
<feOffset dx="-2" dy="-2"/>
<feGaussianBlur stdDeviation="3"/>
<feComposite in2="hardAlpha" operator="arithmetic" k2="-1" k3="1"/>
<feColorMatrix type="matrix" values="0 0 0 0 0.105882 0 0 0 0 0.105882 0 0 0 0 0.105882 0 0 0 0.15 0"/>
<feBlend mode="normal" in2="shape" result="effect2_innerShadow_736_9670"/>
</filter>
<filter id="filter2_ii_736_9670" x="174" y="-12" width="120" height="120" filterUnits="userSpaceOnUse" color-interpolation-filters="sRGB">
<feFlood flood-opacity="0" result="BackgroundImageFix"/>
<feBlend mode="normal" in="SourceGraphic" in2="BackgroundImageFix" result="shape"/>
<feColorMatrix in="SourceAlpha" type="matrix" values="0 0 0 0 0 0 0 0 0 0 0 0 0 0 0 0 0 0 127 0" result="hardAlpha"/>
<feOffset dx="-12" dy="-12"/>
<feGaussianBlur stdDeviation="6"/>
<feComposite in2="hardAlpha" operator="arithmetic" k2="-1" k3="1"/>
<feColorMatrix type="matrix" values="0 0 0 0 0.105882 0 0 0 0 0.105882 0 0 0 0 0.105882 0 0 0 0.15 0"/>
<feBlend mode="normal" in2="shape" result="effect1_innerShadow_736_9670"/>
<feColorMatrix in="SourceAlpha" type="matrix" values="0 0 0 0 0 0 0 0 0 0 0 0 0 0 0 0 0 0 127 0" result="hardAlpha"/>
<feOffset dx="12" dy="12"/>
<feGaussianBlur stdDeviation="6"/>
<feComposite in2="hardAlpha" operator="arithmetic" k2="-1" k3="1"/>
<feColorMatrix type="matrix" values="0 0 0 0 1 0 0 0 0 1 0 0 0 0 1 0 0 0 0.15 0"/>
<feBlend mode="normal" in2="effect1_innerShadow_736_9670" result="effect2_innerShadow_736_9670"/>
</filter>
<filter id="filter3_di_736_9670" x="199.5" y="13.5" width="69" height="69" filterUnits="userSpaceOnUse" color-interpolation-filters="sRGB">
<feFlood flood-opacity="0" result="BackgroundImageFix"/>
<feColorMatrix in="SourceAlpha" type="matrix" values="0 0 0 0 0 0 0 0 0 0 0 0 0 0 0 0 0 0 127 0" result="hardAlpha"/>
<feOffset/>
<feGaussianBlur stdDeviation="6"/>
<feColorMatrix type="matrix" values="0 0 0 0 0.105882 0 0 0 0 0.105882 0 0 0 0 0.105882 0 0 0 0.15 0"/>
<feBlend mode="normal" in2="BackgroundImageFix" result="effect1_dropShadow_736_9670"/>
<feBlend mode="normal" in="SourceGraphic" in2="effect1_dropShadow_736_9670" result="shape"/>
<feColorMatrix in="SourceAlpha" type="matrix" values="0 0 0 0 0 0 0 0 0 0 0 0 0 0 0 0 0 0 127 0" result="hardAlpha"/>
<feOffset dx="-2" dy="-2"/>
<feGaussianBlur stdDeviation="3"/>
<feComposite in2="hardAlpha" operator="arithmetic" k2="-1" k3="1"/>
<feColorMatrix type="matrix" values="0 0 0 0 0.105882 0 0 0 0 0.105882 0 0 0 0 0.105882 0 0 0 0.15 0"/>
<feBlend mode="normal" in2="shape" result="effect2_innerShadow_736_9670"/>
</filter>
<clipPath id="clip0_736_9670">
<rect width="60" height="60" fill="white" transform="translate(204 18)"/>
</clipPath>
</defs>
</svg>
