<svg width="64" height="64" viewBox="0 0 64 64" fill="none" xmlns="http://www.w3.org/2000/svg">
<g filter="url(#filter0_ii_385_7403)">
<rect width="64" height="64" rx="16" fill="#445AFF"/>
<g clip-path="url(#clip0_385_7403)">
<g filter="url(#filter1_di_385_7403)">
<path fill-rule="evenodd" clip-rule="evenodd" d="M33.6667 23.6668H23.6667C21.8257 23.6668 20.3333 25.1592 20.3333 27.0002V37.0002C20.3333 38.8411 21.8257 40.3335 23.6667 40.3335H33.6667C35.5076 40.3335 37 38.8411 37 37.0002V27.0002C37 25.1592 35.5076 23.6668 33.6667 23.6668ZM23.6667 20.3335C19.9848 20.3335 17 23.3183 17 27.0002V37.0002C17 40.6821 19.9848 43.6668 23.6667 43.6668H33.6667C36.5814 43.6668 39.0592 41.7963 39.9653 39.1902L41.8771 40.4068C44.0961 41.8189 47 40.2249 47 37.5946V26.4058C47 23.7755 44.0961 22.1814 41.8771 23.5936L39.9653 24.8101C39.0592 22.204 36.5814 20.3335 33.6667 20.3335H23.6667ZM43.6666 37.5946L40.3333 35.4734V28.527L43.6666 26.4058V37.5946ZM25.3333 27.0002C24.4129 27.0002 23.6667 27.7464 23.6667 28.6669C23.6667 29.5874 24.4129 30.3336 25.3333 30.3336H28.6667C29.5871 30.3336 30.3333 29.5874 30.3333 28.6669C30.3333 27.7464 29.5871 27.0002 28.6667 27.0002H25.3333Z" fill="white"/>
</g>
</g>
</g>
<defs>
<filter id="filter0_ii_385_7403" x="-12" y="-12" width="88" height="88" filterUnits="userSpaceOnUse" color-interpolation-filters="sRGB">
<feFlood flood-opacity="0" result="BackgroundImageFix"/>
<feBlend mode="normal" in="SourceGraphic" in2="BackgroundImageFix" result="shape"/>
<feColorMatrix in="SourceAlpha" type="matrix" values="0 0 0 0 0 0 0 0 0 0 0 0 0 0 0 0 0 0 127 0" result="hardAlpha"/>
<feOffset dx="-12" dy="-12"/>
<feGaussianBlur stdDeviation="6"/>
<feComposite in2="hardAlpha" operator="arithmetic" k2="-1" k3="1"/>
<feColorMatrix type="matrix" values="0 0 0 0 0.105882 0 0 0 0 0.105882 0 0 0 0 0.105882 0 0 0 0.15 0"/>
<feBlend mode="normal" in2="shape" result="effect1_innerShadow_385_7403"/>
<feColorMatrix in="SourceAlpha" type="matrix" values="0 0 0 0 0 0 0 0 0 0 0 0 0 0 0 0 0 0 127 0" result="hardAlpha"/>
<feOffset dx="12" dy="12"/>
<feGaussianBlur stdDeviation="6"/>
<feComposite in2="hardAlpha" operator="arithmetic" k2="-1" k3="1"/>
<feColorMatrix type="matrix" values="0 0 0 0 1 0 0 0 0 1 0 0 0 0 1 0 0 0 0.15 0"/>
<feBlend mode="normal" in2="effect1_innerShadow_385_7403" result="effect2_innerShadow_385_7403"/>
</filter>
<filter id="filter1_di_385_7403" x="5" y="8.3335" width="54" height="47.3333" filterUnits="userSpaceOnUse" color-interpolation-filters="sRGB">
<feFlood flood-opacity="0" result="BackgroundImageFix"/>
<feColorMatrix in="SourceAlpha" type="matrix" values="0 0 0 0 0 0 0 0 0 0 0 0 0 0 0 0 0 0 127 0" result="hardAlpha"/>
<feOffset/>
<feGaussianBlur stdDeviation="6"/>
<feColorMatrix type="matrix" values="0 0 0 0 0.105882 0 0 0 0 0.105882 0 0 0 0 0.105882 0 0 0 0.15 0"/>
<feBlend mode="normal" in2="BackgroundImageFix" result="effect1_dropShadow_385_7403"/>
<feBlend mode="normal" in="SourceGraphic" in2="effect1_dropShadow_385_7403" result="shape"/>
<feColorMatrix in="SourceAlpha" type="matrix" values="0 0 0 0 0 0 0 0 0 0 0 0 0 0 0 0 0 0 127 0" result="hardAlpha"/>
<feOffset dx="-2" dy="-2"/>
<feGaussianBlur stdDeviation="3"/>
<feComposite in2="hardAlpha" operator="arithmetic" k2="-1" k3="1"/>
<feColorMatrix type="matrix" values="0 0 0 0 0.105882 0 0 0 0 0.105882 0 0 0 0 0.105882 0 0 0 0.15 0"/>
<feBlend mode="normal" in2="shape" result="effect2_innerShadow_385_7403"/>
</filter>
<clipPath id="clip0_385_7403">
<rect width="40" height="40" fill="white" transform="translate(12 12)"/>
</clipPath>
</defs>
</svg>
