<svg width="466" height="191" viewBox="0 0 466 191" fill="none" xmlns="http://www.w3.org/2000/svg">
<path d="M170.188 38.9062C170.167 39.2396 170.031 39.5312 169.781 39.7812C169.552 40.0104 169.271 40.125 168.938 40.125C168.583 40.125 168.281 40 168.031 39.75C167.781 39.5 167.667 39.1979 167.688 38.8438C167.792 35.8438 168.01 30.9271 168.344 24.0938L165.344 30.4062L162.656 36.0625C162.552 36.3125 162.385 36.5104 162.156 36.6562C161.927 36.8021 161.688 36.875 161.438 36.875C161.167 36.875 160.917 36.8021 160.688 36.6562C160.458 36.5104 160.292 36.2917 160.188 36C159.792 34.8542 159.094 32.9167 158.094 30.1875C157.115 27.4375 156.26 25.1042 155.531 23.1875C155.177 25.5833 154.823 28.5521 154.469 32.0938C154.115 35.6354 153.875 38.3646 153.75 40.2812C153.708 40.6146 153.573 40.8854 153.344 41.0938C153.115 41.3229 152.833 41.4375 152.5 41.4375C152.146 41.4375 151.844 41.3021 151.594 41.0312C151.344 40.7604 151.229 40.4479 151.25 40.0938C151.458 37.1146 151.833 33.1979 152.375 28.3438C152.917 23.4688 153.385 20.3229 153.781 18.9062C153.885 18.5521 154.052 18.2917 154.281 18.125C154.531 17.9375 154.792 17.8438 155.062 17.8438C155.292 17.8438 155.521 17.9167 155.75 18.0625C155.979 18.2083 156.167 18.4167 156.312 18.6875C157.042 20.0208 158.802 24.6146 161.594 32.4688L168.594 17.7812C168.719 17.5312 168.885 17.3438 169.094 17.2188C169.323 17.0938 169.562 17.0312 169.812 17.0312C170.167 17.0312 170.469 17.1562 170.719 17.4062C170.969 17.6354 171.094 17.9479 171.094 18.3438L170.812 24.2812C170.75 25.8438 170.635 28.3438 170.469 31.7812C170.302 35.1979 170.208 37.5729 170.188 38.9062ZM184.469 31.625C184.552 30.9583 184.594 30.4167 184.594 30C184.594 28.9167 184.385 28.0312 183.969 27.3438C183.552 26.6562 182.833 26.3646 181.812 26.4688C180.75 26.5938 179.75 27.1146 178.812 28.0312C177.896 28.9271 177.167 30.0208 176.625 31.3125C176.083 32.5833 175.812 33.7708 175.812 34.875C175.812 35.8333 176.031 36.6042 176.469 37.1875C176.906 37.7708 177.573 38.0625 178.469 38.0625C180.052 38.0625 181.365 37.5417 182.406 36.5C183.469 35.4375 184.156 33.8125 184.469 31.625ZM178.469 40.5625C176.823 40.5625 175.594 40.0625 174.781 39.0625C173.99 38.0625 173.594 36.7604 173.594 35.1562C173.594 33.5938 173.948 31.9688 174.656 30.2812C175.365 28.5938 176.323 27.1667 177.531 26C178.74 24.8125 180.062 24.1354 181.5 23.9688C181.667 23.9479 181.917 23.9375 182.25 23.9375C183.5 23.9375 184.521 24.3125 185.312 25.0625C185.333 24.9792 185.344 24.8542 185.344 24.6875C185.365 24.3542 185.49 24.0729 185.719 23.8438C185.969 23.6146 186.26 23.5 186.594 23.5C186.948 23.5 187.25 23.6354 187.5 23.9062C187.75 24.1562 187.865 24.4479 187.844 24.7812C187.802 26.0104 187.594 27.8854 187.219 30.4062C186.823 32.9688 186.625 34.8542 186.625 36.0625C186.625 37.25 186.781 38.1562 187.094 38.7812C187.177 38.9271 187.219 39.1042 187.219 39.3125C187.219 39.6458 187.094 39.9375 186.844 40.1875C186.615 40.4375 186.333 40.5625 186 40.5625C185.75 40.5625 185.521 40.4896 185.312 40.3438C185.104 40.2188 184.948 40.0417 184.844 39.8125C184.635 39.3333 184.458 38.7292 184.312 38C183.542 38.8333 182.646 39.4688 181.625 39.9062C180.625 40.3438 179.573 40.5625 178.469 40.5625ZM197.5 38.9062C197.458 39.2188 197.323 39.4896 197.094 39.7188C196.865 39.9271 196.583 40.0312 196.25 40.0312C195.875 40.0312 195.562 39.8958 195.312 39.625C195.062 39.3333 194.958 39.0104 195 38.6562L196.406 25.875L190.906 26.25C190.552 26.2917 190.24 26.1875 189.969 25.9375C189.719 25.6667 189.594 25.3542 189.594 25C189.594 24.6667 189.698 24.3854 189.906 24.1562C190.135 23.9271 190.417 23.8021 190.75 23.7812L203.938 22.8438C204.292 22.8021 204.594 22.9167 204.844 23.1875C205.115 23.4375 205.25 23.7396 205.25 24.0938C205.25 24.4271 205.135 24.7083 204.906 24.9375C204.698 25.1667 204.427 25.2917 204.094 25.3125L198.938 25.6875L197.5 38.9062ZM214.281 36.2188C214.51 36.0312 214.771 35.9375 215.062 35.9375C215.417 35.9375 215.708 36.0625 215.938 36.3125C216.188 36.5417 216.312 36.8333 216.312 37.1875C216.312 37.5833 216.156 37.9062 215.844 38.1562C215.156 38.7188 214.438 39.1771 213.688 39.5312C212.958 39.8646 212.125 40.1354 211.188 40.3438C210.625 40.4688 210.104 40.5312 209.625 40.5312C207.771 40.5312 206.51 39.7708 205.844 38.25C205.198 36.7292 204.917 35.0417 205 33.1875C205.062 32 205.302 30.75 205.719 29.4375C206.135 28.125 206.688 26.9792 207.375 26C208.062 25 208.792 24.3438 209.562 24.0312C210.396 23.6979 211.26 23.5312 212.156 23.5312C213.323 23.5312 214.312 23.8229 215.125 24.4062C215.938 24.9688 216.344 25.8229 216.344 26.9688C216.344 27.4479 216.271 27.9375 216.125 28.4375C215.625 30.2917 214.552 31.8125 212.906 33C211.26 34.1875 209.49 35.0938 207.594 35.7188C207.844 37.2396 208.573 38 209.781 38C210.031 38 210.312 37.9688 210.625 37.9062C211.417 37.7396 212.083 37.5312 212.625 37.2812C213.167 37.0104 213.719 36.6562 214.281 36.2188ZM207.5 33.0938C208.979 32.5521 210.292 31.8542 211.438 31C212.604 30.125 213.354 29.0625 213.688 27.8125C213.75 27.5625 213.781 27.3333 213.781 27.125C213.781 26.3333 213.302 25.9375 212.344 25.9375C211.802 25.9375 211.188 26.0729 210.5 26.3438C210.083 26.5104 209.656 26.9479 209.219 27.6562C208.781 28.3646 208.396 29.2083 208.062 30.1875C207.75 31.1667 207.562 32.1354 207.5 33.0938ZM221.344 47.3438C221.302 47.6771 221.167 47.9479 220.938 48.1562C220.708 48.3854 220.427 48.5 220.094 48.5C219.74 48.5 219.438 48.3646 219.188 48.0938C218.938 47.8229 218.823 47.5104 218.844 47.1562C218.865 46.6562 218.896 46.0521 218.938 45.3438C219 44.6562 219.062 43.8333 219.125 42.875C219.729 33.2083 220.208 27.1354 220.562 24.6562C220.604 24.3438 220.74 24.0833 220.969 23.875C221.198 23.6667 221.469 23.5625 221.781 23.5625C222.073 23.5625 222.323 23.6458 222.531 23.8125C222.74 23.9792 222.885 24.1979 222.969 24.4688C224.031 24.1354 225 23.9688 225.875 23.9688C227.333 23.9688 228.49 24.3854 229.344 25.2188C230.198 26.0312 230.781 27.0208 231.094 28.1875C231.427 29.3542 231.562 30.4792 231.5 31.5625C231.312 34.8333 230.271 37.1458 228.375 38.5C226.5 39.8333 224.312 40.6042 221.812 40.8125H221.781L221.344 47.3438ZM221.938 38.2812C226.667 37.9271 229.031 35.4583 229.031 30.875C229.031 29.6458 228.781 28.6146 228.281 27.7812C227.781 26.9479 226.938 26.5312 225.75 26.5312C224.917 26.5312 223.958 26.75 222.875 27.1875C222.833 27.1875 222.802 27.1979 222.781 27.2188C222.51 29.9271 222.229 33.6146 221.938 38.2812ZM245.531 38.9688C245.49 39.3021 245.354 39.5833 245.125 39.8125C244.896 40.0208 244.615 40.125 244.281 40.125C243.906 40.125 243.594 39.9896 243.344 39.7188C243.094 39.4479 242.99 39.1354 243.031 38.7812L243.812 28.8125L236.75 39.5312C236.396 40.0521 235.948 40.3125 235.406 40.3125C234.99 40.3125 234.635 40.1562 234.344 39.8438C234.073 39.5312 233.958 39.1458 234 38.6875L235.469 25.4375C235.51 25.125 235.646 24.8646 235.875 24.6562C236.104 24.4271 236.385 24.3125 236.719 24.3125C237.094 24.3125 237.406 24.4583 237.656 24.75C237.906 25.0208 238.01 25.3333 237.969 25.6875L236.969 34.6875L243.781 24.3125C243.927 24.1042 244.062 23.9479 244.188 23.8438L244.219 23.4688C244.281 23.5521 244.354 23.625 244.438 23.6875C244.688 23.5625 244.948 23.5 245.219 23.5C245.635 23.5 245.979 23.6354 246.25 23.9062C246.542 24.1771 246.667 24.5521 246.625 25.0312L245.531 38.9688ZM260 31.625C260.083 30.9583 260.125 30.4167 260.125 30C260.125 28.9167 259.917 28.0312 259.5 27.3438C259.083 26.6562 258.365 26.3646 257.344 26.4688C256.281 26.5938 255.281 27.1146 254.344 28.0312C253.427 28.9271 252.698 30.0208 252.156 31.3125C251.615 32.5833 251.344 33.7708 251.344 34.875C251.344 35.8333 251.562 36.6042 252 37.1875C252.438 37.7708 253.104 38.0625 254 38.0625C255.583 38.0625 256.896 37.5417 257.938 36.5C259 35.4375 259.688 33.8125 260 31.625ZM254 40.5625C252.354 40.5625 251.125 40.0625 250.312 39.0625C249.521 38.0625 249.125 36.7604 249.125 35.1562C249.125 33.5938 249.479 31.9688 250.188 30.2812C250.896 28.5938 251.854 27.1667 253.062 26C254.271 24.8125 255.594 24.1354 257.031 23.9688C257.198 23.9479 257.448 23.9375 257.781 23.9375C259.031 23.9375 260.052 24.3125 260.844 25.0625C260.865 24.9792 260.875 24.8542 260.875 24.6875C260.896 24.3542 261.021 24.0729 261.25 23.8438C261.5 23.6146 261.792 23.5 262.125 23.5C262.479 23.5 262.781 23.6354 263.031 23.9062C263.281 24.1562 263.396 24.4479 263.375 24.7812C263.333 26.0104 263.125 27.8854 262.75 30.4062C262.354 32.9688 262.156 34.8542 262.156 36.0625C262.156 37.25 262.312 38.1562 262.625 38.7812C262.708 38.9271 262.75 39.1042 262.75 39.3125C262.75 39.6458 262.625 39.9375 262.375 40.1875C262.146 40.4375 261.865 40.5625 261.531 40.5625C261.281 40.5625 261.052 40.4896 260.844 40.3438C260.635 40.2188 260.479 40.0417 260.375 39.8125C260.167 39.3333 259.99 38.7292 259.844 38C259.073 38.8333 258.177 39.4688 257.156 39.9062C256.156 40.3438 255.104 40.5625 254 40.5625ZM275.312 38.4688C275.333 38.5521 275.344 38.6667 275.344 38.8125C275.344 39.1458 275.219 39.4375 274.969 39.6875C274.74 39.9375 274.458 40.0625 274.125 40.0625C273.833 40.0625 273.573 39.9792 273.344 39.8125C273.135 39.625 272.99 39.3958 272.906 39.125L269.75 28.625L266.344 40.375C266.26 40.6458 266.104 40.8646 265.875 41.0312C265.667 41.1979 265.417 41.2812 265.125 41.2812C264.771 41.2812 264.469 41.1562 264.219 40.9062C263.99 40.6562 263.875 40.3542 263.875 40C263.875 39.875 263.885 39.7812 263.906 39.7188L268.281 24.6562C268.385 24.3021 268.573 24.0312 268.844 23.8438C269.115 23.6562 269.406 23.5625 269.719 23.5625C270.052 23.5625 270.354 23.6562 270.625 23.8438C270.896 24.0312 271.073 24.3021 271.156 24.6562L275.312 38.4688ZM270.719 25.3125V25.3438V25.3125ZM291.219 24.0625C291.427 23.8333 291.698 23.6979 292.031 23.6562C292.094 23.6354 292.198 23.625 292.344 23.625C292.719 23.625 293.031 23.7708 293.281 24.0625C293.531 24.3333 293.635 24.6562 293.594 25.0312L291.25 39.0625C291.208 39.375 291.062 39.6354 290.812 39.8438C290.583 40.0312 290.312 40.125 290 40.125C289.625 40.125 289.312 39.9896 289.062 39.7188C288.812 39.4271 288.708 39.0938 288.75 38.7188L290.5 28.1562C288.875 29.4062 287.031 30.1667 284.969 30.4375C286.74 31.7708 287.625 33.3333 287.625 35.125C287.625 35.6875 287.51 36.3333 287.281 37.0625C286.99 37.9792 286.385 38.7812 285.469 39.4688C284.573 40.1354 283.479 40.4688 282.188 40.4688C280.667 40.4688 279.562 40.0417 278.875 39.1875C278.188 38.3333 277.844 37.25 277.844 35.9375C277.844 35.3125 277.906 34.7083 278.031 34.125C278.344 32.5417 278.917 29.9896 279.75 26.4688L280.219 24.5625C280.281 24.2708 280.427 24.0417 280.656 23.875C280.885 23.6875 281.146 23.5938 281.438 23.5938C281.792 23.5938 282.083 23.7188 282.312 23.9688C282.562 24.1979 282.688 24.4896 282.688 24.8438C282.688 24.9688 282.677 25.0625 282.656 25.125L281.969 28.0625C283.365 28.1042 284.542 28.0312 285.5 27.8438C286.479 27.6354 287.427 27.2396 288.344 26.6562C289.26 26.0729 290.219 25.2083 291.219 24.0625ZM280.469 34.625C280.344 35.25 280.281 35.7917 280.281 36.25C280.281 36.8333 280.427 37.2708 280.719 37.5625C281.01 37.8333 281.5 37.9688 282.188 37.9688C283.625 37.9688 284.531 37.4167 284.906 36.3125C285.052 35.8333 285.125 35.4375 285.125 35.125C285.125 33.5208 283.833 32.1875 281.25 31.125L280.969 32.3125C280.906 32.625 280.823 32.9688 280.719 33.3438C280.635 33.7188 280.552 34.1458 280.469 34.625Z" fill="#0F0F11"/>
<path d="M34.8438 113.062C34.8021 113.375 34.6667 113.635 34.4375 113.844C34.2083 114.031 33.9271 114.125 33.5938 114.125C33.1979 114.125 32.875 113.979 32.625 113.688C32.3958 113.396 32.3125 113.073 32.375 112.719C32.7292 110.323 33.0417 107.635 33.3125 104.656C29.9583 105.24 26.8958 105.646 24.125 105.875C23.9792 108.688 23.8854 111.458 23.8438 114.188C23.8438 114.542 23.7188 114.833 23.4688 115.062C23.2396 115.312 22.9479 115.438 22.5938 115.438C22.2604 115.438 21.9688 115.312 21.7188 115.062C21.4688 114.833 21.3438 114.542 21.3438 114.188C21.3646 111.854 21.4479 109.135 21.5938 106.031L20.7188 106.062C20.3854 106.062 20.0938 105.948 19.8438 105.719C19.6146 105.469 19.5 105.177 19.5 104.844C19.5 104.49 19.6146 104.198 19.8438 103.969C20.0938 103.719 20.3854 103.594 20.7188 103.594L21.75 103.562C22.0625 99.125 22.4375 95.6146 22.875 93.0312C22.9167 92.7396 23.0521 92.4896 23.2812 92.2812C23.5312 92.0729 23.8021 91.9688 24.0938 91.9688C24.4896 91.9688 24.8125 92.125 25.0625 92.4375C25.3125 92.7292 25.4062 93.0625 25.3438 93.4375C24.9062 96.1042 24.5521 99.4167 24.2812 103.375C26.6562 103.146 29.7292 102.729 33.5 102.125C33.6667 99.6042 33.7812 96.4792 33.8438 92.75C33.8438 92.3958 33.9688 92.1042 34.2188 91.875C34.4688 91.625 34.7604 91.5 35.0938 91.5C35.4479 91.5 35.7396 91.625 35.9688 91.875C36.2188 92.1042 36.3438 92.3958 36.3438 92.75C36.3229 95.7292 36.2188 98.8542 36.0312 102.125C35.8438 105.375 35.4479 109.021 34.8438 113.062ZM49.7188 105.625C49.8021 104.958 49.8438 104.417 49.8438 104C49.8438 102.917 49.6354 102.031 49.2188 101.344C48.8021 100.656 48.0833 100.365 47.0625 100.469C46 100.594 45 101.115 44.0625 102.031C43.1458 102.927 42.4167 104.021 41.875 105.312C41.3333 106.583 41.0625 107.771 41.0625 108.875C41.0625 109.833 41.2812 110.604 41.7188 111.188C42.1562 111.771 42.8229 112.062 43.7188 112.062C45.3021 112.062 46.6146 111.542 47.6562 110.5C48.7188 109.438 49.4062 107.812 49.7188 105.625ZM43.7188 114.562C42.0729 114.562 40.8438 114.062 40.0312 113.062C39.2396 112.062 38.8438 110.76 38.8438 109.156C38.8438 107.594 39.1979 105.969 39.9062 104.281C40.6146 102.594 41.5729 101.167 42.7812 100C43.9896 98.8125 45.3125 98.1354 46.75 97.9688C46.9167 97.9479 47.1667 97.9375 47.5 97.9375C48.75 97.9375 49.7708 98.3125 50.5625 99.0625C50.5833 98.9792 50.5938 98.8542 50.5938 98.6875C50.6146 98.3542 50.7396 98.0729 50.9688 97.8438C51.2188 97.6146 51.5104 97.5 51.8438 97.5C52.1979 97.5 52.5 97.6354 52.75 97.9062C53 98.1562 53.1146 98.4479 53.0938 98.7812C53.0521 100.01 52.8438 101.885 52.4688 104.406C52.0729 106.969 51.875 108.854 51.875 110.062C51.875 111.25 52.0312 112.156 52.3438 112.781C52.4271 112.927 52.4688 113.104 52.4688 113.312C52.4688 113.646 52.3438 113.938 52.0938 114.188C51.8646 114.438 51.5833 114.562 51.25 114.562C51 114.562 50.7708 114.49 50.5625 114.344C50.3542 114.219 50.1979 114.042 50.0938 113.812C49.8854 113.333 49.7083 112.729 49.5625 112C48.7917 112.833 47.8958 113.469 46.875 113.906C45.875 114.344 44.8229 114.562 43.7188 114.562ZM62.75 112.906C62.7083 113.219 62.5729 113.49 62.3438 113.719C62.1146 113.927 61.8333 114.031 61.5 114.031C61.125 114.031 60.8125 113.896 60.5625 113.625C60.3125 113.333 60.2083 113.01 60.25 112.656L61.6562 99.875L56.1562 100.25C55.8021 100.292 55.4896 100.188 55.2188 99.9375C54.9688 99.6667 54.8438 99.3542 54.8438 99C54.8438 98.6667 54.9479 98.3854 55.1562 98.1562C55.3854 97.9271 55.6667 97.8021 56 97.7812L69.1875 96.8438C69.5417 96.8021 69.8438 96.9167 70.0938 97.1875C70.3646 97.4375 70.5 97.7396 70.5 98.0938C70.5 98.4271 70.3854 98.7083 70.1562 98.9375C69.9479 99.1667 69.6771 99.2917 69.3438 99.3125L64.1875 99.6875L62.75 112.906ZM73.4062 123.125C73.2188 123.25 73 123.312 72.75 123.312C72.4167 123.312 72.125 123.188 71.875 122.938C71.625 122.708 71.5 122.417 71.5 122.062C71.5 121.604 71.6979 121.25 72.0938 121C73.8438 119.938 75.3125 118.75 76.5 117.438C77.6875 116.146 78.6771 114.667 79.4688 113C78.5104 111.938 77.7396 111.021 77.1562 110.25C76.5938 109.479 75.9688 108.292 75.2812 106.688C74.6146 105.083 74.0625 103.062 73.625 100.625C73.6042 100.562 73.5938 100.479 73.5938 100.375C73.5938 100.021 73.7188 99.7292 73.9688 99.5C74.2188 99.25 74.5104 99.125 74.8438 99.125C75.1562 99.125 75.4271 99.2292 75.6562 99.4375C75.8854 99.625 76.0208 99.8646 76.0625 100.156C76.5625 102.781 77.1771 104.833 77.9062 106.312C78.6562 107.792 79.5417 109.146 80.5625 110.375C81.0625 108.896 81.5208 107.271 81.9375 105.5C82.3542 103.729 82.8333 101.438 83.375 98.625C83.4167 98.3333 83.5521 98.0938 83.7812 97.9062C84.0312 97.6979 84.3021 97.5938 84.5938 97.5938C84.9896 97.5938 85.3125 97.75 85.5625 98.0625C85.8125 98.375 85.8958 98.7188 85.8125 99.0938C84.8958 103.781 84.0625 107.417 83.3125 110C82.5625 112.583 81.4167 114.99 79.875 117.219C78.3333 119.469 76.1771 121.438 73.4062 123.125ZM90.8438 121.344C90.8021 121.677 90.6667 121.948 90.4375 122.156C90.2083 122.385 89.9271 122.5 89.5938 122.5C89.2396 122.5 88.9375 122.365 88.6875 122.094C88.4375 121.823 88.3229 121.51 88.3438 121.156C88.3646 120.656 88.3958 120.052 88.4375 119.344C88.5 118.656 88.5625 117.833 88.625 116.875C89.2292 107.208 89.7083 101.135 90.0625 98.6562C90.1042 98.3438 90.2396 98.0833 90.4688 97.875C90.6979 97.6667 90.9688 97.5625 91.2812 97.5625C91.5729 97.5625 91.8229 97.6458 92.0312 97.8125C92.2396 97.9792 92.3854 98.1979 92.4688 98.4688C93.5312 98.1354 94.5 97.9688 95.375 97.9688C96.8333 97.9688 97.9896 98.3854 98.8438 99.2188C99.6979 100.031 100.281 101.021 100.594 102.188C100.927 103.354 101.062 104.479 101 105.562C100.812 108.833 99.7708 111.146 97.875 112.5C96 113.833 93.8125 114.604 91.3125 114.812H91.2812L90.8438 121.344ZM91.4375 112.281C96.1667 111.927 98.5312 109.458 98.5312 104.875C98.5312 103.646 98.2812 102.615 97.7812 101.781C97.2812 100.948 96.4375 100.531 95.25 100.531C94.4167 100.531 93.4583 100.75 92.375 101.188C92.3333 101.188 92.3021 101.198 92.2812 101.219C92.0104 103.927 91.7292 107.615 91.4375 112.281ZM114.375 105.625C114.458 104.958 114.5 104.417 114.5 104C114.5 102.917 114.292 102.031 113.875 101.344C113.458 100.656 112.74 100.365 111.719 100.469C110.656 100.594 109.656 101.115 108.719 102.031C107.802 102.927 107.073 104.021 106.531 105.312C105.99 106.583 105.719 107.771 105.719 108.875C105.719 109.833 105.938 110.604 106.375 111.188C106.812 111.771 107.479 112.062 108.375 112.062C109.958 112.062 111.271 111.542 112.312 110.5C113.375 109.438 114.062 107.812 114.375 105.625ZM108.375 114.562C106.729 114.562 105.5 114.062 104.688 113.062C103.896 112.062 103.5 110.76 103.5 109.156C103.5 107.594 103.854 105.969 104.562 104.281C105.271 102.594 106.229 101.167 107.438 100C108.646 98.8125 109.969 98.1354 111.406 97.9688C111.573 97.9479 111.823 97.9375 112.156 97.9375C113.406 97.9375 114.427 98.3125 115.219 99.0625C115.24 98.9792 115.25 98.8542 115.25 98.6875C115.271 98.3542 115.396 98.0729 115.625 97.8438C115.875 97.6146 116.167 97.5 116.5 97.5C116.854 97.5 117.156 97.6354 117.406 97.9062C117.656 98.1562 117.771 98.4479 117.75 98.7812C117.708 100.01 117.5 101.885 117.125 104.406C116.729 106.969 116.531 108.854 116.531 110.062C116.531 111.25 116.688 112.156 117 112.781C117.083 112.927 117.125 113.104 117.125 113.312C117.125 113.646 117 113.938 116.75 114.188C116.521 114.438 116.24 114.562 115.906 114.562C115.656 114.562 115.427 114.49 115.219 114.344C115.01 114.219 114.854 114.042 114.75 113.812C114.542 113.333 114.365 112.729 114.219 112C113.448 112.833 112.552 113.469 111.531 113.906C110.531 114.344 109.479 114.562 108.375 114.562ZM129.688 112.469C129.708 112.552 129.719 112.667 129.719 112.812C129.719 113.146 129.594 113.438 129.344 113.688C129.115 113.938 128.833 114.062 128.5 114.062C128.208 114.062 127.948 113.979 127.719 113.812C127.51 113.625 127.365 113.396 127.281 113.125L124.125 102.625L120.719 114.375C120.635 114.646 120.479 114.865 120.25 115.031C120.042 115.198 119.792 115.281 119.5 115.281C119.146 115.281 118.844 115.156 118.594 114.906C118.365 114.656 118.25 114.354 118.25 114C118.25 113.875 118.26 113.781 118.281 113.719L122.656 98.6562C122.76 98.3021 122.948 98.0312 123.219 97.8438C123.49 97.6562 123.781 97.5625 124.094 97.5625C124.427 97.5625 124.729 97.6562 125 97.8438C125.271 98.0312 125.448 98.3021 125.531 98.6562L129.688 112.469ZM125.094 99.3125V99.3438V99.3125ZM132.844 104.219C132.594 104.135 132.385 103.99 132.219 103.781C132.052 103.552 131.969 103.302 131.969 103.031C131.969 102.677 132.094 102.385 132.344 102.156C132.594 101.906 132.885 101.781 133.219 101.781C133.323 101.781 133.458 101.802 133.625 101.844H133.656C133.906 100.719 134.198 99.5938 134.531 98.4688C134.615 98.1979 134.76 97.9792 134.969 97.8125C135.198 97.6458 135.448 97.5625 135.719 97.5625C136.073 97.5625 136.365 97.6875 136.594 97.9375C136.844 98.1875 136.969 98.4896 136.969 98.8438C136.969 98.9896 136.958 99.1042 136.938 99.1875C136.604 100.271 136.302 101.458 136.031 102.75C138.01 103.625 139.49 104.583 140.469 105.625C141.469 106.667 141.969 107.833 141.969 109.125C141.969 109.771 141.865 110.417 141.656 111.062C141.365 111.979 140.76 112.781 139.844 113.469C138.948 114.135 137.854 114.469 136.562 114.469C135.042 114.469 133.938 114.042 133.25 113.188C132.562 112.333 132.219 111.25 132.219 109.938C132.219 109.312 132.281 108.708 132.406 108.125C132.573 107.354 132.812 106.083 133.125 104.312L132.844 104.219ZM134.844 108.625C134.719 109.25 134.656 109.792 134.656 110.25C134.656 110.833 134.802 111.271 135.094 111.562C135.385 111.833 135.875 111.969 136.562 111.969C138 111.969 138.906 111.417 139.281 110.312C139.427 109.833 139.5 109.438 139.5 109.125C139.5 108.354 139.188 107.656 138.562 107.031C137.938 106.406 136.927 105.802 135.531 105.219L134.844 108.625ZM155.125 113C155.083 113.312 154.948 113.583 154.719 113.812C154.49 114.021 154.208 114.125 153.875 114.125C153.5 114.125 153.188 113.99 152.938 113.719C152.688 113.448 152.583 113.125 152.625 112.75L153.156 107.719L147.938 108.25L147.406 113.062C147.365 113.375 147.229 113.646 147 113.875C146.771 114.083 146.49 114.188 146.156 114.188C145.781 114.188 145.469 114.052 145.219 113.781C144.969 113.49 144.865 113.167 144.906 112.812L145.375 108.438C145.125 108.354 144.917 108.208 144.75 108C144.583 107.771 144.5 107.51 144.5 107.219C144.5 106.885 144.604 106.604 144.812 106.375C145.042 106.146 145.312 106.01 145.625 105.969H145.656L146.375 99.375C146.417 99.0625 146.552 98.8021 146.781 98.5938C147.01 98.3646 147.292 98.25 147.625 98.25C148 98.25 148.312 98.3958 148.562 98.6875C148.812 98.9583 148.917 99.2708 148.875 99.625L148.219 105.719L153.406 105.188L154.062 98.875C154.104 98.5625 154.24 98.3021 154.469 98.0938C154.698 97.8646 154.979 97.75 155.312 97.75C155.688 97.75 156 97.8854 156.25 98.1562C156.5 98.4271 156.604 98.75 156.562 99.125L155.125 113ZM172.438 98.0625C172.646 97.8333 172.917 97.6979 173.25 97.6562C173.312 97.6354 173.417 97.625 173.562 97.625C173.938 97.625 174.25 97.7708 174.5 98.0625C174.75 98.3333 174.854 98.6562 174.812 99.0312L172.469 113.062C172.427 113.375 172.281 113.635 172.031 113.844C171.802 114.031 171.531 114.125 171.219 114.125C170.844 114.125 170.531 113.99 170.281 113.719C170.031 113.427 169.927 113.094 169.969 112.719L171.719 102.156C170.094 103.406 168.25 104.167 166.188 104.438C167.958 105.771 168.844 107.333 168.844 109.125C168.844 109.688 168.729 110.333 168.5 111.062C168.208 111.979 167.604 112.781 166.688 113.469C165.792 114.135 164.698 114.469 163.406 114.469C161.885 114.469 160.781 114.042 160.094 113.188C159.406 112.333 159.062 111.25 159.062 109.938C159.062 109.312 159.125 108.708 159.25 108.125C159.562 106.542 160.135 103.99 160.969 100.469L161.438 98.5625C161.5 98.2708 161.646 98.0417 161.875 97.875C162.104 97.6875 162.365 97.5938 162.656 97.5938C163.01 97.5938 163.302 97.7188 163.531 97.9688C163.781 98.1979 163.906 98.4896 163.906 98.8438C163.906 98.9688 163.896 99.0625 163.875 99.125L163.188 102.062C164.583 102.104 165.76 102.031 166.719 101.844C167.698 101.635 168.646 101.24 169.562 100.656C170.479 100.073 171.438 99.2083 172.438 98.0625ZM161.688 108.625C161.562 109.25 161.5 109.792 161.5 110.25C161.5 110.833 161.646 111.271 161.938 111.562C162.229 111.833 162.719 111.969 163.406 111.969C164.844 111.969 165.75 111.417 166.125 110.312C166.271 109.833 166.344 109.438 166.344 109.125C166.344 107.521 165.052 106.188 162.469 105.125L162.188 106.312C162.125 106.625 162.042 106.969 161.938 107.344C161.854 107.719 161.771 108.146 161.688 108.625ZM186.594 110.219C186.823 110.031 187.083 109.938 187.375 109.938C187.729 109.938 188.021 110.062 188.25 110.312C188.5 110.542 188.625 110.833 188.625 111.188C188.625 111.583 188.469 111.906 188.156 112.156C187.469 112.719 186.75 113.177 186 113.531C185.271 113.865 184.438 114.135 183.5 114.344C182.938 114.469 182.417 114.531 181.938 114.531C180.083 114.531 178.823 113.771 178.156 112.25C177.51 110.729 177.229 109.042 177.312 107.188C177.375 106 177.615 104.75 178.031 103.438C178.448 102.125 179 100.979 179.688 100C180.375 99 181.104 98.3438 181.875 98.0312C182.708 97.6979 183.573 97.5312 184.469 97.5312C185.635 97.5312 186.625 97.8229 187.438 98.4062C188.25 98.9688 188.656 99.8229 188.656 100.969C188.656 101.448 188.583 101.938 188.438 102.438C187.938 104.292 186.865 105.812 185.219 107C183.573 108.188 181.802 109.094 179.906 109.719C180.156 111.24 180.885 112 182.094 112C182.344 112 182.625 111.969 182.938 111.906C183.729 111.74 184.396 111.531 184.938 111.281C185.479 111.01 186.031 110.656 186.594 110.219ZM179.812 107.094C181.292 106.552 182.604 105.854 183.75 105C184.917 104.125 185.667 103.062 186 101.812C186.062 101.562 186.094 101.333 186.094 101.125C186.094 100.333 185.615 99.9375 184.656 99.9375C184.115 99.9375 183.5 100.073 182.812 100.344C182.396 100.51 181.969 100.948 181.531 101.656C181.094 102.365 180.708 103.208 180.375 104.188C180.062 105.167 179.875 106.135 179.812 107.094Z" fill="#0F0F11"/>
<path d="M77.9688 181.469C77.9688 181.823 77.8438 182.115 77.5938 182.344C77.3646 182.594 77.0729 182.719 76.7188 182.719C76.3854 182.719 76.0938 182.594 75.8438 182.344C75.6146 182.115 75.5 181.833 75.5 181.5C75.4792 180.875 75.5104 180.104 75.5938 179.188C72.6146 179.083 69.8854 179.031 67.4062 179.031C65.0729 179.031 63.2708 179.073 62 179.156L62.0312 181.219C62.0312 181.573 61.9062 181.865 61.6562 182.094C61.4271 182.344 61.1354 182.469 60.7812 182.469C60.4479 182.469 60.1667 182.354 59.9375 182.125C59.6875 181.896 59.5521 181.615 59.5312 181.281C59.5104 180.552 59.5 179.49 59.5 178.094C59.5 177.74 59.625 177.438 59.875 177.188C60.125 176.938 60.4271 176.792 60.7812 176.75L62.0312 176.656L62.0938 176.469C62.5104 175.427 63.3229 173.042 64.5312 169.312C65.5104 166.208 66.3646 163.646 67.0938 161.625C67.8229 159.604 68.5 158.062 69.125 157C69.3958 156.521 69.8021 156.281 70.3438 156.281C70.6146 156.281 70.8542 156.354 71.0625 156.5C71.2917 156.646 71.4688 156.865 71.5938 157.156C72.0729 158.26 72.4896 159.812 72.8438 161.812C73.1979 163.812 73.6042 166.458 74.0625 169.75C74.4792 173.021 74.8333 175.323 75.125 176.656L76.9062 176.719C77.3438 176.74 77.6667 176.896 77.875 177.188C78.0833 177.479 78.1875 177.771 78.1875 178.062C78.1875 178.354 78.1562 178.771 78.0938 179.312C78.0104 180.271 77.9688 180.99 77.9688 181.469ZM64.7188 176.562C65.3229 176.542 66.2708 176.531 67.5625 176.531C68.625 176.531 70.2812 176.552 72.5312 176.594C72.2812 175.219 71.9688 173.073 71.5938 170.156C71.3021 167.99 71.0417 166.167 70.8125 164.688C70.6042 163.208 70.3646 161.906 70.0938 160.781C69.6771 161.844 69.1875 163.198 68.625 164.844C68.0833 166.469 67.5521 168.083 67.0312 169.688C65.9271 173.146 65.1562 175.438 64.7188 176.562ZM87.2188 175.219C87.4479 175.031 87.7083 174.938 88 174.938C88.3542 174.938 88.6458 175.062 88.875 175.312C89.125 175.542 89.25 175.833 89.25 176.188C89.25 176.583 89.0938 176.906 88.7812 177.156C88.0938 177.719 87.375 178.177 86.625 178.531C85.8958 178.865 85.0625 179.135 84.125 179.344C83.5625 179.469 83.0417 179.531 82.5625 179.531C80.7083 179.531 79.4479 178.771 78.7812 177.25C78.1354 175.729 77.8542 174.042 77.9375 172.188C78 171 78.2396 169.75 78.6562 168.438C79.0729 167.125 79.625 165.979 80.3125 165C81 164 81.7292 163.344 82.5 163.031C83.3333 162.698 84.1979 162.531 85.0938 162.531C86.2604 162.531 87.25 162.823 88.0625 163.406C88.875 163.969 89.2812 164.823 89.2812 165.969C89.2812 166.448 89.2083 166.938 89.0625 167.438C88.5625 169.292 87.4896 170.812 85.8438 172C84.1979 173.188 82.4271 174.094 80.5312 174.719C80.7812 176.24 81.5104 177 82.7188 177C82.9688 177 83.25 176.969 83.5625 176.906C84.3542 176.74 85.0208 176.531 85.5625 176.281C86.1042 176.01 86.6562 175.656 87.2188 175.219ZM80.4375 172.094C81.9167 171.552 83.2292 170.854 84.375 170C85.5417 169.125 86.2917 168.062 86.625 166.812C86.6875 166.562 86.7188 166.333 86.7188 166.125C86.7188 165.333 86.2396 164.938 85.2812 164.938C84.7396 164.938 84.125 165.073 83.4375 165.344C83.0208 165.51 82.5938 165.948 82.1562 166.656C81.7188 167.365 81.3333 168.208 81 169.188C80.6875 170.167 80.5 171.135 80.4375 172.094ZM94.2812 186.344C94.2396 186.677 94.1042 186.948 93.875 187.156C93.6458 187.385 93.3646 187.5 93.0312 187.5C92.6771 187.5 92.375 187.365 92.125 187.094C91.875 186.823 91.7604 186.51 91.7812 186.156C91.8021 185.656 91.8333 185.052 91.875 184.344C91.9375 183.656 92 182.833 92.0625 181.875C92.6667 172.208 93.1458 166.135 93.5 163.656C93.5417 163.344 93.6771 163.083 93.9062 162.875C94.1354 162.667 94.4062 162.562 94.7188 162.562C95.0104 162.562 95.2604 162.646 95.4688 162.812C95.6771 162.979 95.8229 163.198 95.9062 163.469C96.9688 163.135 97.9375 162.969 98.8125 162.969C100.271 162.969 101.427 163.385 102.281 164.219C103.135 165.031 103.719 166.021 104.031 167.188C104.365 168.354 104.5 169.479 104.438 170.562C104.25 173.833 103.208 176.146 101.312 177.5C99.4375 178.833 97.25 179.604 94.75 179.812H94.7188L94.2812 186.344ZM94.875 177.281C99.6042 176.927 101.969 174.458 101.969 169.875C101.969 168.646 101.719 167.615 101.219 166.781C100.719 165.948 99.875 165.531 98.6875 165.531C97.8542 165.531 96.8958 165.75 95.8125 166.188C95.7708 166.188 95.7396 166.198 95.7188 166.219C95.4479 168.927 95.1667 172.615 94.875 177.281ZM116.219 175.219C116.448 175.031 116.708 174.938 117 174.938C117.354 174.938 117.646 175.062 117.875 175.312C118.125 175.542 118.25 175.833 118.25 176.188C118.25 176.583 118.094 176.906 117.781 177.156C117.094 177.719 116.375 178.177 115.625 178.531C114.896 178.865 114.062 179.135 113.125 179.344C112.562 179.469 112.042 179.531 111.562 179.531C109.708 179.531 108.448 178.771 107.781 177.25C107.135 175.729 106.854 174.042 106.938 172.188C107 171 107.24 169.75 107.656 168.438C108.073 167.125 108.625 165.979 109.312 165C110 164 110.729 163.344 111.5 163.031C112.333 162.698 113.198 162.531 114.094 162.531C115.26 162.531 116.25 162.823 117.062 163.406C117.875 163.969 118.281 164.823 118.281 165.969C118.281 166.448 118.208 166.938 118.062 167.438C117.562 169.292 116.49 170.812 114.844 172C113.198 173.188 111.427 174.094 109.531 174.719C109.781 176.24 110.51 177 111.719 177C111.969 177 112.25 176.969 112.562 176.906C113.354 176.74 114.021 176.531 114.562 176.281C115.104 176.01 115.656 175.656 116.219 175.219ZM109.438 172.094C110.917 171.552 112.229 170.854 113.375 170C114.542 169.125 115.292 168.062 115.625 166.812C115.688 166.562 115.719 166.333 115.719 166.125C115.719 165.333 115.24 164.938 114.281 164.938C113.74 164.938 113.125 165.073 112.438 165.344C112.021 165.51 111.594 165.948 111.156 166.656C110.719 167.365 110.333 168.208 110 169.188C109.688 170.167 109.5 171.135 109.438 172.094ZM124.781 169.594C124.677 169.594 124.562 169.573 124.438 169.531L124.312 169.625C124 171.688 123.844 173.25 123.844 174.312C123.844 175.958 124.146 176.833 124.75 176.938C125.104 177.021 125.5 176.917 125.938 176.625C126.375 176.312 126.792 175.844 127.188 175.219C127.583 174.573 127.896 173.802 128.125 172.906C128.229 172.573 128.281 172.198 128.281 171.781C128.281 171.073 128 170.531 127.438 170.156C126.896 169.781 126.01 169.594 124.781 169.594ZM120.781 169.5C120.781 169.271 120.833 169.062 120.938 168.875C121.062 168.667 121.219 168.51 121.406 168.406L122 168.062C122.375 165.229 123.021 162.562 123.938 160.062C124.875 157.542 126.354 156.281 128.375 156.281C129.562 156.281 130.448 156.656 131.031 157.406C131.615 158.135 131.906 159.073 131.906 160.219C131.906 161.26 131.688 162.281 131.25 163.281C130.708 164.552 129.427 165.969 127.406 167.531C128.51 167.906 129.344 168.49 129.906 169.281C130.49 170.073 130.781 170.979 130.781 172C130.781 172.396 130.708 172.906 130.562 173.531C130.271 174.656 129.823 175.667 129.219 176.562C128.615 177.458 127.927 178.167 127.156 178.688C126.406 179.188 125.646 179.438 124.875 179.438C124.75 179.438 124.542 179.417 124.25 179.375C122.354 179 121.406 177.156 121.406 173.844C121.406 172.906 121.479 171.854 121.625 170.688C121.375 170.583 121.167 170.427 121 170.219C120.854 170.01 120.781 169.771 120.781 169.5ZM124.812 166.312C127.062 164.771 128.438 163.427 128.938 162.281C129.312 161.469 129.5 160.74 129.5 160.094C129.5 159.219 129.125 158.781 128.375 158.781C127.5 158.781 126.771 159.521 126.188 161C125.625 162.479 125.167 164.25 124.812 166.312ZM137.406 170.969C137.531 173.052 137.792 174.635 138.188 175.719C138.583 176.781 139.323 177.312 140.406 177.312C141.281 177.312 142.073 176.875 142.781 176C143.51 175.104 144.094 173.917 144.531 172.438C144.865 171.354 145.031 170.281 145.031 169.219C145.031 168.219 144.865 167.385 144.531 166.719C144.198 166.052 143.708 165.635 143.062 165.469C142.688 165.365 142.354 165.312 142.062 165.312C141.167 165.312 140.344 165.74 139.594 166.594C138.844 167.448 138.125 168.885 137.438 170.906L137.406 170.969ZM134.406 165.969C134.385 165.906 134.375 165.823 134.375 165.719C134.375 165.365 134.5 165.073 134.75 164.844C135 164.594 135.292 164.469 135.625 164.469C135.938 164.469 136.208 164.562 136.438 164.75C136.667 164.938 136.812 165.177 136.875 165.469L137 166.125C138.479 163.917 140.208 162.812 142.188 162.812C142.604 162.812 143.104 162.885 143.688 163.031C144.958 163.365 145.906 164.125 146.531 165.312C147.156 166.479 147.469 167.854 147.469 169.438C147.469 170.708 147.281 171.958 146.906 173.188C146.365 174.979 145.51 176.531 144.344 177.844C143.198 179.156 141.875 179.812 140.375 179.812C140.021 179.812 139.604 179.76 139.125 179.656C137.938 179.323 137.031 178.656 136.406 177.656C135.802 176.656 135.406 175.542 135.219 174.312C135.031 173.083 134.885 171.542 134.781 169.688C134.76 169.521 134.719 169.021 134.656 168.188C134.615 167.333 134.531 166.594 134.406 165.969Z" fill="#3140AA"/>
<path d="M317.094 177.719C317.115 178.073 317 178.385 316.75 178.656C316.5 178.906 316.198 179.031 315.844 179.031C315.51 179.031 315.219 178.917 314.969 178.688C314.74 178.458 314.615 178.177 314.594 177.844C314.385 174.094 314.281 169.771 314.281 164.875C314.281 162.583 314.312 160.719 314.375 159.281C314.229 159.302 314.021 159.312 313.75 159.312C313.417 159.312 313.125 159.188 312.875 158.938C312.625 158.688 312.5 158.396 312.5 158.062C312.5 157.729 312.615 157.448 312.844 157.219C313.073 156.969 313.354 156.833 313.688 156.812C314.917 156.75 317.031 156.719 320.031 156.719H326.344C326.698 156.719 326.99 156.844 327.219 157.094C327.469 157.323 327.594 157.615 327.594 157.969C327.594 158.302 327.469 158.594 327.219 158.844C326.99 159.094 326.698 159.219 326.344 159.219H324.375H320.656C318.948 159.219 317.688 159.229 316.875 159.25C316.833 160.917 316.812 162.552 316.812 164.156V166.406C317.083 166.385 317.5 166.375 318.062 166.375C319.812 166.375 321.427 166.615 322.906 167.094C324.406 167.573 325.615 168.302 326.531 169.281C327.448 170.24 327.906 171.417 327.906 172.812C327.906 175.083 327 176.771 325.188 177.875C323.375 178.979 321.198 179.604 318.656 179.75C318.302 179.771 317.99 179.656 317.719 179.406C317.469 179.156 317.344 178.854 317.344 178.5C317.344 178.167 317.458 177.885 317.688 177.656C317.917 177.406 318.198 177.271 318.531 177.25C320.531 177.167 322.167 176.781 323.438 176.094C324.729 175.385 325.375 174.302 325.375 172.844C325.375 171.573 324.729 170.583 323.438 169.875C322.146 169.167 320.49 168.812 318.469 168.812C317.927 168.812 317.375 168.844 316.812 168.906C316.875 172.24 316.969 175.177 317.094 177.719ZM339.656 175.219C339.885 175.031 340.146 174.938 340.438 174.938C340.792 174.938 341.083 175.062 341.312 175.312C341.562 175.542 341.688 175.833 341.688 176.188C341.688 176.583 341.531 176.906 341.219 177.156C340.531 177.719 339.812 178.177 339.062 178.531C338.333 178.865 337.5 179.135 336.562 179.344C336 179.469 335.479 179.531 335 179.531C333.146 179.531 331.885 178.771 331.219 177.25C330.573 175.729 330.292 174.042 330.375 172.188C330.438 171 330.677 169.75 331.094 168.438C331.51 167.125 332.062 165.979 332.75 165C333.438 164 334.167 163.344 334.938 163.031C335.771 162.698 336.635 162.531 337.531 162.531C338.698 162.531 339.688 162.823 340.5 163.406C341.312 163.969 341.719 164.823 341.719 165.969C341.719 166.448 341.646 166.938 341.5 167.438C341 169.292 339.927 170.812 338.281 172C336.635 173.188 334.865 174.094 332.969 174.719C333.219 176.24 333.948 177 335.156 177C335.406 177 335.688 176.969 336 176.906C336.792 176.74 337.458 176.531 338 176.281C338.542 176.01 339.094 175.656 339.656 175.219ZM332.875 172.094C334.354 171.552 335.667 170.854 336.812 170C337.979 169.125 338.729 168.062 339.062 166.812C339.125 166.562 339.156 166.333 339.156 166.125C339.156 165.333 338.677 164.938 337.719 164.938C337.177 164.938 336.562 165.073 335.875 165.344C335.458 165.51 335.031 165.948 334.594 166.656C334.156 167.365 333.771 168.208 333.438 169.188C333.125 170.167 332.938 171.135 332.875 172.094ZM351.375 177.906C351.333 178.219 351.198 178.49 350.969 178.719C350.74 178.927 350.458 179.031 350.125 179.031C349.75 179.031 349.438 178.896 349.188 178.625C348.938 178.333 348.833 178.01 348.875 177.656L350.281 164.875L344.781 165.25C344.427 165.292 344.115 165.188 343.844 164.938C343.594 164.667 343.469 164.354 343.469 164C343.469 163.667 343.573 163.385 343.781 163.156C344.01 162.927 344.292 162.802 344.625 162.781L357.812 161.844C358.167 161.802 358.469 161.917 358.719 162.188C358.99 162.438 359.125 162.74 359.125 163.094C359.125 163.427 359.01 163.708 358.781 163.938C358.573 164.167 358.302 164.292 357.969 164.312L352.812 164.688L351.375 177.906ZM361.906 170.969C362.031 173.052 362.292 174.635 362.688 175.719C363.083 176.781 363.823 177.312 364.906 177.312C365.781 177.312 366.573 176.875 367.281 176C368.01 175.104 368.594 173.917 369.031 172.438C369.365 171.354 369.531 170.281 369.531 169.219C369.531 168.219 369.365 167.385 369.031 166.719C368.698 166.052 368.208 165.635 367.562 165.469C367.188 165.365 366.854 165.312 366.562 165.312C365.667 165.312 364.844 165.74 364.094 166.594C363.344 167.448 362.625 168.885 361.938 170.906L361.906 170.969ZM358.906 165.969C358.885 165.906 358.875 165.823 358.875 165.719C358.875 165.365 359 165.073 359.25 164.844C359.5 164.594 359.792 164.469 360.125 164.469C360.438 164.469 360.708 164.562 360.938 164.75C361.167 164.938 361.312 165.177 361.375 165.469L361.5 166.125C362.979 163.917 364.708 162.812 366.688 162.812C367.104 162.812 367.604 162.885 368.188 163.031C369.458 163.365 370.406 164.125 371.031 165.312C371.656 166.479 371.969 167.854 371.969 169.438C371.969 170.708 371.781 171.958 371.406 173.188C370.865 174.979 370.01 176.531 368.844 177.844C367.698 179.156 366.375 179.812 364.875 179.812C364.521 179.812 364.104 179.76 363.625 179.656C362.438 179.323 361.531 178.656 360.906 177.656C360.302 176.656 359.906 175.542 359.719 174.312C359.531 173.083 359.385 171.542 359.281 169.688C359.26 169.521 359.219 169.021 359.156 168.188C359.115 167.333 359.031 166.594 358.906 165.969ZM385.094 178C385.052 178.312 384.917 178.583 384.688 178.812C384.458 179.021 384.177 179.125 383.844 179.125C383.469 179.125 383.156 178.99 382.906 178.719C382.656 178.448 382.552 178.125 382.594 177.75L383.125 172.719L377.906 173.25L377.375 178.062C377.333 178.375 377.198 178.646 376.969 178.875C376.74 179.083 376.458 179.188 376.125 179.188C375.75 179.188 375.438 179.052 375.188 178.781C374.938 178.49 374.833 178.167 374.875 177.812L375.344 173.438C375.094 173.354 374.885 173.208 374.719 173C374.552 172.771 374.469 172.51 374.469 172.219C374.469 171.885 374.573 171.604 374.781 171.375C375.01 171.146 375.281 171.01 375.594 170.969H375.625L376.344 164.375C376.385 164.062 376.521 163.802 376.75 163.594C376.979 163.365 377.26 163.25 377.594 163.25C377.969 163.25 378.281 163.396 378.531 163.688C378.781 163.958 378.885 164.271 378.844 164.625L378.188 170.719L383.375 170.188L384.031 163.875C384.073 163.562 384.208 163.302 384.438 163.094C384.667 162.865 384.948 162.75 385.281 162.75C385.656 162.75 385.969 162.885 386.219 163.156C386.469 163.427 386.573 163.75 386.531 164.125L385.094 178Z" fill="#3140AA"/>
<path d="M270.25 112.938C270.229 113.271 270.094 113.552 269.844 113.781C269.615 114.01 269.333 114.125 269 114.125C268.646 114.125 268.344 114 268.094 113.75C267.844 113.479 267.729 113.167 267.75 112.812C267.875 110.458 268.031 108.156 268.219 105.906C268.51 101.844 268.698 98.7604 268.781 96.6562C267.073 100.24 265.479 103.469 264 106.344C262.521 109.198 260.969 111.99 259.344 114.719C259.01 115.281 258.521 115.562 257.875 115.562C257.396 115.562 256.99 115.406 256.656 115.094C256.323 114.802 256.188 114.406 256.25 113.906C256.562 111.24 256.823 108.396 257.031 105.375C257.24 102.354 257.479 98.5208 257.75 93.875L257.781 93.25C257.802 92.9167 257.927 92.6354 258.156 92.4062C258.406 92.1771 258.698 92.0625 259.031 92.0625C259.385 92.0625 259.688 92.1979 259.938 92.4688C260.188 92.7188 260.302 93.0208 260.281 93.375C259.927 100.292 259.562 105.854 259.188 110.062C260.667 107.417 262.073 104.74 263.406 102.031C264.76 99.3229 266.344 96.0417 268.156 92.1875C268.281 91.8958 268.49 91.6667 268.781 91.5C269.094 91.3333 269.417 91.25 269.75 91.25C270.188 91.25 270.562 91.375 270.875 91.625C271.208 91.875 271.375 92.2188 271.375 92.6562C271.375 94.5104 271.323 96.375 271.219 98.25C271.115 100.125 270.948 102.729 270.719 106.062C270.531 108.354 270.375 110.646 270.25 112.938ZM282 110.562C282.25 110.271 282.573 110.125 282.969 110.125C283.323 110.125 283.615 110.25 283.844 110.5C284.094 110.729 284.219 111.021 284.219 111.375C284.219 111.667 284.125 111.927 283.938 112.156C283.208 113.031 282.365 113.708 281.406 114.188C280.469 114.667 279.302 114.854 277.906 114.75C276.531 114.625 275.51 114.062 274.844 113.062C274.198 112.042 273.875 110.719 273.875 109.094C273.875 108.219 273.948 107.354 274.094 106.5C274.406 104.562 275.125 102.885 276.25 101.469C277.375 100.052 278.875 98.9583 280.75 98.1875C280.917 98.125 281.073 98.0938 281.219 98.0938C281.573 98.0938 281.865 98.2188 282.094 98.4688C282.344 98.6979 282.469 98.9792 282.469 99.3125C282.469 99.5625 282.396 99.7917 282.25 100C282.125 100.208 281.948 100.365 281.719 100.469C280.198 101.094 279.021 101.938 278.188 103C277.354 104.042 276.802 105.354 276.531 106.938C276.365 108 276.281 108.844 276.281 109.469C276.281 110.365 276.427 111.042 276.719 111.5C277.01 111.958 277.469 112.208 278.094 112.25L278.625 112.281C279.417 112.281 280.062 112.146 280.562 111.875C281.083 111.583 281.562 111.146 282 110.562ZM289.188 113.188C289.167 113.5 289.031 113.76 288.781 113.969C288.552 114.177 288.281 114.281 287.969 114.281C287.594 114.281 287.281 114.146 287.031 113.875C286.781 113.583 286.677 113.26 286.719 112.906L288.438 99.3438C288.458 99.0312 288.583 98.7708 288.812 98.5625C289.062 98.3542 289.344 98.25 289.656 98.25C290.031 98.25 290.344 98.3958 290.594 98.6875C290.844 98.9583 290.948 99.2708 290.906 99.625L290.469 103.031L295.281 98.4688C295.51 98.2396 295.802 98.125 296.156 98.125C296.51 98.125 296.802 98.25 297.031 98.5C297.281 98.7292 297.406 99.0208 297.406 99.375C297.406 99.6875 297.281 99.9896 297.031 100.281L290.969 106.062L296.25 112.312C296.458 112.562 296.562 112.844 296.562 113.156C296.562 113.49 296.438 113.781 296.188 114.031C295.958 114.281 295.667 114.406 295.312 114.406C294.958 114.406 294.635 114.26 294.344 113.969L289.781 108.562L289.188 113.188ZM300.062 123.125C299.875 123.25 299.656 123.312 299.406 123.312C299.073 123.312 298.781 123.188 298.531 122.938C298.281 122.708 298.156 122.417 298.156 122.062C298.156 121.604 298.354 121.25 298.75 121C300.5 119.938 301.969 118.75 303.156 117.438C304.344 116.146 305.333 114.667 306.125 113C305.167 111.938 304.396 111.021 303.812 110.25C303.25 109.479 302.625 108.292 301.938 106.688C301.271 105.083 300.719 103.062 300.281 100.625C300.26 100.562 300.25 100.479 300.25 100.375C300.25 100.021 300.375 99.7292 300.625 99.5C300.875 99.25 301.167 99.125 301.5 99.125C301.812 99.125 302.083 99.2292 302.312 99.4375C302.542 99.625 302.677 99.8646 302.719 100.156C303.219 102.781 303.833 104.833 304.562 106.312C305.312 107.792 306.198 109.146 307.219 110.375C307.719 108.896 308.177 107.271 308.594 105.5C309.01 103.729 309.49 101.438 310.031 98.625C310.073 98.3333 310.208 98.0938 310.438 97.9062C310.688 97.6979 310.958 97.5938 311.25 97.5938C311.646 97.5938 311.969 97.75 312.219 98.0625C312.469 98.375 312.552 98.7188 312.469 99.0938C311.552 103.781 310.719 107.417 309.969 110C309.219 112.583 308.073 114.99 306.531 117.219C304.99 119.469 302.833 121.438 300.062 123.125ZM323.125 110.562C323.375 110.271 323.698 110.125 324.094 110.125C324.448 110.125 324.74 110.25 324.969 110.5C325.219 110.729 325.344 111.021 325.344 111.375C325.344 111.667 325.25 111.927 325.062 112.156C324.333 113.031 323.49 113.708 322.531 114.188C321.594 114.667 320.427 114.854 319.031 114.75C317.656 114.625 316.635 114.062 315.969 113.062C315.323 112.042 315 110.719 315 109.094C315 108.219 315.073 107.354 315.219 106.5C315.531 104.562 316.25 102.885 317.375 101.469C318.5 100.052 320 98.9583 321.875 98.1875C322.042 98.125 322.198 98.0938 322.344 98.0938C322.698 98.0938 322.99 98.2188 323.219 98.4688C323.469 98.6979 323.594 98.9792 323.594 99.3125C323.594 99.5625 323.521 99.7917 323.375 100C323.25 100.208 323.073 100.365 322.844 100.469C321.323 101.094 320.146 101.938 319.312 103C318.479 104.042 317.927 105.354 317.656 106.938C317.49 108 317.406 108.844 317.406 109.469C317.406 110.365 317.552 111.042 317.844 111.5C318.135 111.958 318.594 112.208 319.219 112.25L319.75 112.281C320.542 112.281 321.188 112.146 321.688 111.875C322.208 111.583 322.688 111.146 323.125 110.562ZM335.969 110.562C336.219 110.271 336.542 110.125 336.938 110.125C337.292 110.125 337.583 110.25 337.812 110.5C338.062 110.729 338.188 111.021 338.188 111.375C338.188 111.667 338.094 111.927 337.906 112.156C337.177 113.031 336.333 113.708 335.375 114.188C334.438 114.667 333.271 114.854 331.875 114.75C330.5 114.625 329.479 114.062 328.812 113.062C328.167 112.042 327.844 110.719 327.844 109.094C327.844 108.219 327.917 107.354 328.062 106.5C328.375 104.562 329.094 102.885 330.219 101.469C331.344 100.052 332.844 98.9583 334.719 98.1875C334.885 98.125 335.042 98.0938 335.188 98.0938C335.542 98.0938 335.833 98.2188 336.062 98.4688C336.312 98.6979 336.438 98.9792 336.438 99.3125C336.438 99.5625 336.365 99.7917 336.219 100C336.094 100.208 335.917 100.365 335.688 100.469C334.167 101.094 332.99 101.938 332.156 103C331.323 104.042 330.771 105.354 330.5 106.938C330.333 108 330.25 108.844 330.25 109.469C330.25 110.365 330.396 111.042 330.688 111.5C330.979 111.958 331.438 112.208 332.062 112.25L332.594 112.281C333.385 112.281 334.031 112.146 334.531 111.875C335.052 111.583 335.531 111.146 335.969 110.562ZM347.844 112.906C347.802 113.219 347.667 113.49 347.438 113.719C347.208 113.927 346.927 114.031 346.594 114.031C346.219 114.031 345.906 113.896 345.656 113.625C345.406 113.333 345.302 113.01 345.344 112.656L346.75 99.875L341.25 100.25C340.896 100.292 340.583 100.188 340.312 99.9375C340.062 99.6667 339.938 99.3542 339.938 99C339.938 98.6667 340.042 98.3854 340.25 98.1562C340.479 97.9271 340.76 97.8021 341.094 97.7812L354.281 96.8438C354.635 96.8021 354.938 96.9167 355.188 97.1875C355.458 97.4375 355.594 97.7396 355.594 98.0938C355.594 98.4271 355.479 98.7083 355.25 98.9375C355.042 99.1667 354.771 99.2917 354.438 99.3125L349.281 99.6875L347.844 112.906ZM361.344 104.594C361.24 104.594 361.125 104.573 361 104.531L360.875 104.625C360.562 106.688 360.406 108.25 360.406 109.312C360.406 110.958 360.708 111.833 361.312 111.938C361.667 112.021 362.062 111.917 362.5 111.625C362.938 111.312 363.354 110.844 363.75 110.219C364.146 109.573 364.458 108.802 364.688 107.906C364.792 107.573 364.844 107.198 364.844 106.781C364.844 106.073 364.562 105.531 364 105.156C363.458 104.781 362.573 104.594 361.344 104.594ZM357.344 104.5C357.344 104.271 357.396 104.062 357.5 103.875C357.625 103.667 357.781 103.51 357.969 103.406L358.562 103.062C358.938 100.229 359.583 97.5625 360.5 95.0625C361.438 92.5417 362.917 91.2812 364.938 91.2812C366.125 91.2812 367.01 91.6562 367.594 92.4062C368.177 93.1354 368.469 94.0729 368.469 95.2188C368.469 96.2604 368.25 97.2812 367.812 98.2812C367.271 99.5521 365.99 100.969 363.969 102.531C365.073 102.906 365.906 103.49 366.469 104.281C367.052 105.073 367.344 105.979 367.344 107C367.344 107.396 367.271 107.906 367.125 108.531C366.833 109.656 366.385 110.667 365.781 111.562C365.177 112.458 364.49 113.167 363.719 113.688C362.969 114.188 362.208 114.438 361.438 114.438C361.312 114.438 361.104 114.417 360.812 114.375C358.917 114 357.969 112.156 357.969 108.844C357.969 107.906 358.042 106.854 358.188 105.688C357.938 105.583 357.729 105.427 357.562 105.219C357.417 105.01 357.344 104.771 357.344 104.5ZM361.375 101.312C363.625 99.7708 365 98.4271 365.5 97.2812C365.875 96.4688 366.062 95.7396 366.062 95.0938C366.062 94.2188 365.688 93.7812 364.938 93.7812C364.062 93.7812 363.333 94.5208 362.75 96C362.188 97.4792 361.729 99.25 361.375 101.312ZM380.219 110.219C380.448 110.031 380.708 109.938 381 109.938C381.354 109.938 381.646 110.062 381.875 110.312C382.125 110.542 382.25 110.833 382.25 111.188C382.25 111.583 382.094 111.906 381.781 112.156C381.094 112.719 380.375 113.177 379.625 113.531C378.896 113.865 378.062 114.135 377.125 114.344C376.562 114.469 376.042 114.531 375.562 114.531C373.708 114.531 372.448 113.771 371.781 112.25C371.135 110.729 370.854 109.042 370.938 107.188C371 106 371.24 104.75 371.656 103.438C372.073 102.125 372.625 100.979 373.312 100C374 99 374.729 98.3438 375.5 98.0312C376.333 97.6979 377.198 97.5312 378.094 97.5312C379.26 97.5312 380.25 97.8229 381.062 98.4062C381.875 98.9688 382.281 99.8229 382.281 100.969C382.281 101.448 382.208 101.938 382.062 102.438C381.562 104.292 380.49 105.812 378.844 107C377.198 108.188 375.427 109.094 373.531 109.719C373.781 111.24 374.51 112 375.719 112C375.969 112 376.25 111.969 376.562 111.906C377.354 111.74 378.021 111.531 378.562 111.281C379.104 111.01 379.656 110.656 380.219 110.219ZM373.438 107.094C374.917 106.552 376.229 105.854 377.375 105C378.542 104.125 379.292 103.062 379.625 101.812C379.688 101.562 379.719 101.333 379.719 101.125C379.719 100.333 379.24 99.9375 378.281 99.9375C377.74 99.9375 377.125 100.073 376.438 100.344C376.021 100.51 375.594 100.948 375.156 101.656C374.719 102.365 374.333 103.208 374 104.188C373.688 105.167 373.5 106.135 373.438 107.094ZM395.406 113C395.365 113.312 395.229 113.583 395 113.812C394.771 114.021 394.49 114.125 394.156 114.125C393.781 114.125 393.469 113.99 393.219 113.719C392.969 113.448 392.865 113.125 392.906 112.75L393.438 107.719L388.219 108.25L387.688 113.062C387.646 113.375 387.51 113.646 387.281 113.875C387.052 114.083 386.771 114.188 386.438 114.188C386.062 114.188 385.75 114.052 385.5 113.781C385.25 113.49 385.146 113.167 385.188 112.812L385.656 108.438C385.406 108.354 385.198 108.208 385.031 108C384.865 107.771 384.781 107.51 384.781 107.219C384.781 106.885 384.885 106.604 385.094 106.375C385.323 106.146 385.594 106.01 385.906 105.969H385.938L386.656 99.375C386.698 99.0625 386.833 98.8021 387.062 98.5938C387.292 98.3646 387.573 98.25 387.906 98.25C388.281 98.25 388.594 98.3958 388.844 98.6875C389.094 98.9583 389.198 99.2708 389.156 99.625L388.5 105.719L393.688 105.188L394.344 98.875C394.385 98.5625 394.521 98.3021 394.75 98.0938C394.979 97.8646 395.26 97.75 395.594 97.75C395.969 97.75 396.281 97.8854 396.531 98.1562C396.781 98.4271 396.885 98.75 396.844 99.125L395.406 113ZM409.969 113C409.927 113.312 409.792 113.583 409.562 113.812C409.333 114.021 409.052 114.125 408.719 114.125C408.344 114.125 408.031 113.99 407.781 113.719C407.531 113.448 407.427 113.125 407.469 112.75L408 107.719L402.781 108.25L402.25 113.062C402.208 113.375 402.073 113.646 401.844 113.875C401.615 114.083 401.333 114.188 401 114.188C400.625 114.188 400.312 114.052 400.062 113.781C399.812 113.49 399.708 113.167 399.75 112.812L400.219 108.438C399.969 108.354 399.76 108.208 399.594 108C399.427 107.771 399.344 107.51 399.344 107.219C399.344 106.885 399.448 106.604 399.656 106.375C399.885 106.146 400.156 106.01 400.469 105.969H400.5L401.219 99.375C401.26 99.0625 401.396 98.8021 401.625 98.5938C401.854 98.3646 402.135 98.25 402.469 98.25C402.844 98.25 403.156 98.3958 403.406 98.6875C403.656 98.9583 403.76 99.2708 403.719 99.625L403.062 105.719L408.25 105.188L408.906 98.875C408.948 98.5625 409.083 98.3021 409.312 98.0938C409.542 97.8646 409.823 97.75 410.156 97.75C410.531 97.75 410.844 97.8854 411.094 98.1562C411.344 98.4271 411.448 98.75 411.406 99.125L409.969 113ZM427.281 98.0625C427.49 97.8333 427.76 97.6979 428.094 97.6562C428.156 97.6354 428.26 97.625 428.406 97.625C428.781 97.625 429.094 97.7708 429.344 98.0625C429.594 98.3333 429.698 98.6562 429.656 99.0312L427.312 113.062C427.271 113.375 427.125 113.635 426.875 113.844C426.646 114.031 426.375 114.125 426.062 114.125C425.688 114.125 425.375 113.99 425.125 113.719C424.875 113.427 424.771 113.094 424.812 112.719L426.562 102.156C424.938 103.406 423.094 104.167 421.031 104.438C422.802 105.771 423.688 107.333 423.688 109.125C423.688 109.688 423.573 110.333 423.344 111.062C423.052 111.979 422.448 112.781 421.531 113.469C420.635 114.135 419.542 114.469 418.25 114.469C416.729 114.469 415.625 114.042 414.938 113.188C414.25 112.333 413.906 111.25 413.906 109.938C413.906 109.312 413.969 108.708 414.094 108.125C414.406 106.542 414.979 103.99 415.812 100.469L416.281 98.5625C416.344 98.2708 416.49 98.0417 416.719 97.875C416.948 97.6875 417.208 97.5938 417.5 97.5938C417.854 97.5938 418.146 97.7188 418.375 97.9688C418.625 98.1979 418.75 98.4896 418.75 98.8438C418.75 98.9688 418.74 99.0625 418.719 99.125L418.031 102.062C419.427 102.104 420.604 102.031 421.562 101.844C422.542 101.635 423.49 101.24 424.406 100.656C425.323 100.073 426.281 99.2083 427.281 98.0625ZM416.531 108.625C416.406 109.25 416.344 109.792 416.344 110.25C416.344 110.833 416.49 111.271 416.781 111.562C417.073 111.833 417.562 111.969 418.25 111.969C419.688 111.969 420.594 111.417 420.969 110.312C421.115 109.833 421.188 109.438 421.188 109.125C421.188 107.521 419.896 106.188 417.312 105.125L417.031 106.312C416.969 106.625 416.885 106.969 416.781 107.344C416.698 107.719 416.615 108.146 416.531 108.625ZM441.438 110.219C441.667 110.031 441.927 109.938 442.219 109.938C442.573 109.938 442.865 110.062 443.094 110.312C443.344 110.542 443.469 110.833 443.469 111.188C443.469 111.583 443.312 111.906 443 112.156C442.312 112.719 441.594 113.177 440.844 113.531C440.115 113.865 439.281 114.135 438.344 114.344C437.781 114.469 437.26 114.531 436.781 114.531C434.927 114.531 433.667 113.771 433 112.25C432.354 110.729 432.073 109.042 432.156 107.188C432.219 106 432.458 104.75 432.875 103.438C433.292 102.125 433.844 100.979 434.531 100C435.219 99 435.948 98.3438 436.719 98.0312C437.552 97.6979 438.417 97.5312 439.312 97.5312C440.479 97.5312 441.469 97.8229 442.281 98.4062C443.094 98.9688 443.5 99.8229 443.5 100.969C443.5 101.448 443.427 101.938 443.281 102.438C442.781 104.292 441.708 105.812 440.062 107C438.417 108.188 436.646 109.094 434.75 109.719C435 111.24 435.729 112 436.938 112C437.188 112 437.469 111.969 437.781 111.906C438.573 111.74 439.24 111.531 439.781 111.281C440.323 111.01 440.875 110.656 441.438 110.219ZM434.656 107.094C436.135 106.552 437.448 105.854 438.594 105C439.76 104.125 440.51 103.062 440.844 101.812C440.906 101.562 440.938 101.333 440.938 101.125C440.938 100.333 440.458 99.9375 439.5 99.9375C438.958 99.9375 438.344 100.073 437.656 100.344C437.24 100.51 436.812 100.948 436.375 101.656C435.938 102.365 435.552 103.208 435.219 104.188C434.906 105.167 434.719 106.135 434.656 107.094Z" fill="#0F0F11"/>
<path d="M223 1C249.162 1 272.807 4.29453 289.879 9.5957C298.42 12.2481 305.26 15.3856 309.942 18.8232C314.645 22.276 317 25.896 317 29.5C317 33.104 314.645 36.724 309.942 40.1768C305.26 43.6144 298.42 46.7519 289.879 49.4043C272.807 54.7055 249.162 58 223 58C196.838 58 173.193 54.7055 156.121 49.4043C147.58 46.7519 140.74 43.6144 136.058 40.1768C131.355 36.724 129 33.104 129 29.5C129 25.896 131.355 22.276 136.058 18.8232C140.74 15.3856 147.58 12.2481 156.121 9.5957C173.193 4.29453 196.838 1 223 1Z" stroke="#0F0F11" stroke-width="2"/>
<path d="M105 75C133.93 75 160.085 78.2961 178.976 83.6035C188.428 86.2592 196.005 89.4028 201.195 92.8506C206.424 96.3238 209 99.9424 209 103.5C209 107.058 206.424 110.676 201.195 114.149C196.005 117.597 188.428 120.741 178.976 123.396C160.085 128.704 133.93 132 105 132C76.0697 132 49.9151 128.704 31.0244 123.396C21.5721 120.741 13.9952 117.597 8.80469 114.149C3.57598 110.676 1 107.058 1 103.5C1 99.9424 3.57598 96.3238 8.80469 92.8506C13.9952 89.4028 21.5721 86.2592 31.0244 83.6035C49.9151 78.2961 76.0697 75 105 75Z" stroke="#0F0F11" stroke-width="2"/>
<path d="M350 75C381.974 75 410.888 78.2968 431.778 83.6094C442.231 86.2676 450.619 89.4165 456.369 92.874C462.182 96.3689 465 99.9904 465 103.5C465 107.01 462.182 110.631 456.369 114.126C450.619 117.583 442.231 120.732 431.778 123.391C410.888 128.703 381.974 132 350 132C318.026 132 289.112 128.703 268.222 123.391C257.769 120.732 249.381 117.583 243.631 114.126C237.818 110.631 235 107.01 235 103.5C235 99.9904 237.818 96.3689 243.631 92.874C249.381 89.4165 257.769 86.2676 268.222 83.6094C289.112 78.2968 318.026 75 350 75Z" stroke="#0F0F11" stroke-width="2"/>
<path d="M59 190C90.2187 183.983 110.478 183.332 148 183.5" stroke="#3140AA" stroke-width="2" stroke-linecap="round" stroke-linejoin="round"/>
<path d="M169 54C166 62 160 77.9 160 77.5C160 77.1 156.667 71.3333 155 68.5L162 75.5L172.5 68.5" stroke="#0F0F11" stroke-width="2" stroke-linecap="round" stroke-linejoin="round"/>
<path d="M282.5 54C285.5 62 291.5 77.9 291.5 77.5C291.5 77.1 294.833 71.3333 296.5 68.5L289.5 75.5L279 68.5" stroke="#0F0F11" stroke-width="2" stroke-linecap="round" stroke-linejoin="round"/>
</svg>
