<svg xmlns="http://www.w3.org/2000/svg" width="734" height="386" fill="none"><g clip-path="url(#a)"><path fill="#4554C9" d="m55.033 344.137-8.746 32.641h-2.406c-1.386 0-2.683-.001-3.901-.005l9.167-34.214 5.886 1.578Zm4.447-45.359c10.921 0 16.382 0 20.553 2.125a19.5 19.5 0 0 1 8.523 8.522c2.125 4.172 2.125 9.632 2.125 20.553v15.6c0 10.92 0 16.381-2.125 20.552a19.502 19.502 0 0 1-8.523 8.523c-4.171 2.125-9.632 2.125-20.553 2.125h-1.836l4.988-18.618a1.22 1.22 0 0 0-2.356-.632l-5.157 19.25H48.81l8.577-32.011 3.532.947.123.027a1.22 1.22 0 0 0 .627-2.343l-.12-.038-17.657-4.733a1.219 1.219 0 0 0-.63 2.355l3.53.946-9.331 34.825c-2.706-.031-4.976-.105-6.933-.289.074-.109.133-.231.17-.365l6.623-24.722a1.22 1.22 0 1 0-2.354-.63l-6.624 24.722c-.067.249-.052.5.03.726-1.96-.314-3.582-.797-5.045-1.542a19.502 19.502 0 0 1-8.522-8.523c-2.125-4.171-2.125-9.632-2.125-20.552v-15.6c0-10.921 0-16.381 2.125-20.553a19.5 19.5 0 0 1 8.522-8.522c4.171-2.125 9.632-2.125 20.553-2.125h15.6ZM32.18 325.66c-1.108-.016-2.43.16-3.78.678-2.755 1.058-5.494 3.497-6.774 8.276-1.325 4.947.688 8.934 3.888 11.14 3.134 2.161 7.485 2.658 10.891.641 2.278-1.348 3.408-4.068 3.337-6.621-.072-2.602-1.4-5.301-4.346-6.508-3.015-1.235-5.6.127-6.965 2.097-1.246 1.797-1.728 4.541-.119 6.406l.164.177.09.086a1.22 1.22 0 0 0 1.744-1.687l-.082-.094-.118-.138c-.553-.735-.551-2.1.324-3.363.853-1.231 2.294-1.943 4.038-1.229 1.876.769 2.782 2.476 2.834 4.32.052 1.893-.803 3.662-2.143 4.455-2.462 1.458-5.785 1.161-8.265-.548-2.414-1.664-3.957-4.624-2.917-8.504 1.085-4.05 3.29-5.861 5.293-6.63a7.79 7.79 0 0 1 2.872-.517c.68.01 1.217.202 1.855.367l41.217 10.988c.608.16 1.233.297 1.787.606a7.806 7.806 0 0 1 2.228 1.883c1.35 1.668 2.355 4.339 1.27 8.389-1.04 3.88-3.856 5.673-6.778 5.907-3.003.24-6.03-1.164-7.433-3.657-.764-1.357-.62-3.318.372-4.931.967-1.572 2.605-2.596 4.614-2.324 1.868.253 2.759 1.59 2.882 3.084.127 1.531-.555 2.715-1.401 3.074l-.17.06a1.22 1.22 0 0 0 .549 2.373l.12-.029c2.494-.713 3.517-3.429 3.33-5.679-.197-2.388-1.754-4.861-4.983-5.298-3.154-.428-5.654 1.245-7.018 3.463-1.338 2.175-1.718 5.095-.42 7.402 1.942 3.45 5.959 5.194 9.753 4.891 3.875-.311 7.61-2.758 8.937-7.706 1.28-4.778.128-8.258-1.728-10.551a10.236 10.236 0 0 0-2.936-2.479c-.863-.482-1.635-.644-2.447-.861l-41.018-10.932c-.935-.25-1.56-.463-2.548-.477Zm-.632-7.367a1.22 1.22 0 0 0-.627 2.343l.12.038 50.03 13.407.121.025a1.219 1.219 0 0 0 .628-2.342l-.118-.038L31.67 318.32l-.122-.027Z"/></g><g filter="url(#b)"><g clip-path="url(#c)"><path fill="#fff" d="M127.252 227c0 7.161-3.931 17.106-11.794 19.095 0 0-1.572 0-1.572 1.592 0 1.591 1.572 1.591 1.572 1.591h11.794V227Z"/></g><g clip-path="url(#d)"><path fill="#fff" d="M127.319 16.361c0-6.152 4.987-11.139 11.139-11.139h568.811c11.074 0 20.05 8.977 20.05 20.05v331.456c0 11.073-8.976 20.05-20.05 20.05h-579.95V16.361Z"/><path fill="#8330C4" d="M161.046 33.527c-.125-1.11-.641-1.969-1.547-2.578-.906-.618-2.047-.926-3.422-.926-.984 0-1.836.156-2.555.469-.718.304-1.277.726-1.675 1.265a2.985 2.985 0 0 0-.586 1.817c0 .57.133 1.062.398 1.476a3.58 3.58 0 0 0 1.067 1.043c.445.274.921.504 1.429.692.508.18.996.328 1.465.445l2.344.61a17.87 17.87 0 0 1 2.355.761c.805.32 1.551.742 2.239 1.266a6.071 6.071 0 0 1 1.664 1.945c.429.773.644 1.7.644 2.777 0 1.36-.351 2.567-1.054 3.621-.696 1.055-1.708 1.887-3.036 2.496-1.32.61-2.918.915-4.793.915-1.796 0-3.351-.286-4.664-.856-1.312-.57-2.34-1.379-3.082-2.426-.742-1.054-1.152-2.304-1.23-3.75h3.633c.07.867.351 1.59.843 2.168.5.57 1.137.996 1.911 1.278.781.273 1.636.41 2.566.41 1.023 0 1.934-.16 2.73-.48.805-.329 1.438-.782 1.899-1.36.461-.586.691-1.27.691-2.05 0-.712-.203-1.294-.609-1.747-.399-.453-.942-.828-1.629-1.125a15.915 15.915 0 0 0-2.309-.785l-2.836-.774c-1.921-.523-3.445-1.293-4.57-2.308-1.117-1.016-1.676-2.36-1.676-4.031 0-1.383.375-2.59 1.125-3.621.75-1.032 1.766-1.833 3.047-2.403 1.281-.578 2.727-.867 4.336-.867 1.625 0 3.059.285 4.301.856 1.25.57 2.234 1.355 2.953 2.355.719.992 1.094 2.133 1.125 3.422h-3.492Zm15.448 18.058c-1.687 0-3.16-.386-4.418-1.16-1.258-.773-2.234-1.855-2.93-3.246-.695-1.39-1.042-3.015-1.042-4.875 0-1.867.347-3.5 1.042-4.898.696-1.399 1.672-2.485 2.93-3.258 1.258-.774 2.731-1.16 4.418-1.16 1.688 0 3.16.386 4.418 1.16 1.258.773 2.234 1.86 2.93 3.258.695 1.398 1.043 3.031 1.043 4.898 0 1.86-.348 3.485-1.043 4.875-.696 1.39-1.672 2.473-2.93 3.246-1.258.774-2.73 1.16-4.418 1.16Zm.012-2.941c1.094 0 2-.289 2.719-.867.718-.578 1.25-1.348 1.593-2.309.352-.96.528-2.02.528-3.176 0-1.148-.176-2.203-.528-3.164-.343-.968-.875-1.746-1.593-2.332-.719-.586-1.625-.879-2.719-.879-1.102 0-2.016.293-2.742.88-.719.585-1.254 1.363-1.606 2.331-.344.961-.515 2.016-.515 3.164 0 1.157.171 2.215.515 3.176.352.961.887 1.73 1.606 2.309.726.578 1.64.867 2.742.867Zm27.076-15.422-6.527 18h-3.75l-6.539-18h3.761l4.559 13.852h.187l4.547-13.852h3.762Zm6.797-6v24h-3.504v-24h3.504Zm4.714 24v-18h3.504v18h-3.504Zm1.769-20.777a2.226 2.226 0 0 1-1.57-.61c-.43-.414-.645-.906-.645-1.476 0-.578.215-1.07.645-1.477a2.204 2.204 0 0 1 1.57-.62c.61 0 1.129.206 1.559.62.437.407.656.899.656 1.477 0 .57-.219 1.062-.656 1.476-.43.407-.949.61-1.559.61Zm17.851 13.312V33.222h3.516v18h-3.446v-3.117h-.187c-.414.96-1.078 1.762-1.992 2.402-.907.633-2.036.95-3.387.95-1.156 0-2.18-.254-3.071-.762-.882-.516-1.578-1.278-2.085-2.285-.5-1.008-.75-2.254-.75-3.739V33.222h3.503V44.25c0 1.227.34 2.204 1.02 2.93.68.727 1.562 1.09 2.648 1.09.657 0 1.309-.164 1.957-.492.657-.328 1.2-.824 1.629-1.488.438-.665.653-1.508.645-2.532Zm8.224 7.465v-18h3.363v2.93h.222c.375-.992.989-1.766 1.84-2.32.852-.563 1.871-.844 3.059-.844 1.203 0 2.211.281 3.023.843.821.563 1.426 1.336 1.817 2.32h.187c.43-.96 1.114-1.726 2.051-2.296.938-.578 2.055-.867 3.352-.867 1.632 0 2.964.511 3.996 1.535 1.039 1.023 1.558 2.566 1.558 4.629v12.07h-3.504V39.48c0-1.219-.332-2.102-.996-2.648-.664-.547-1.457-.82-2.379-.82-1.14 0-2.027.35-2.66 1.054-.633.695-.949 1.59-.949 2.683v11.473h-3.492V39.257c0-.976-.305-1.761-.914-2.355-.61-.594-1.403-.89-2.379-.89-.664 0-1.278.175-1.84.527a3.87 3.87 0 0 0-1.348 1.441c-.336.617-.504 1.332-.504 2.145v11.097h-3.503Z"/><path fill="#0F0F11" d="M162.655 124.759c-2.532 0-4.788-.435-6.77-1.304-1.968-.869-3.534-2.077-4.698-3.624-1.15-1.56-1.777-3.369-1.879-5.427h4.832c.103 1.266.537 2.359 1.304 3.279.767.908 1.771 1.611 3.011 2.109 1.24.499 2.614.748 4.123.748 1.687 0 3.183-.294 4.487-.882 1.304-.588 2.327-1.406 3.068-2.454.742-1.049 1.112-2.263 1.112-3.644 0-1.444-.357-2.716-1.073-3.816-.716-1.112-1.765-1.981-3.145-2.608-1.381-.626-3.068-.939-5.063-.939h-3.145v-4.219h3.145c1.56 0 2.928-.281 4.104-.844 1.189-.562 2.116-1.355 2.78-2.378.678-1.022 1.017-2.224 1.017-3.605 0-1.33-.294-2.486-.882-3.47-.588-.985-1.419-1.752-2.493-2.302-1.061-.55-2.314-.824-3.759-.824-1.355 0-2.633.249-3.835.747-1.189.486-2.16 1.196-2.915 2.129-.754.92-1.163 2.033-1.227 3.337h-4.602c.076-2.059.696-3.861 1.86-5.408 1.163-1.56 2.684-2.774 4.564-3.644 1.892-.869 3.969-1.303 6.232-1.303 2.429 0 4.513.492 6.251 1.476 1.739.972 3.075 2.257 4.008 3.855a10.093 10.093 0 0 1 1.4 5.177c0 2.212-.582 4.097-1.745 5.657-1.151 1.56-2.717 2.64-4.698 3.241v.307c2.48.409 4.417 1.463 5.81 3.164 1.394 1.687 2.09 3.777 2.09 6.27 0 2.135-.581 4.053-1.745 5.753-1.15 1.688-2.723 3.017-4.717 3.989-1.994.971-4.263 1.457-6.807 1.457Zm29.857.154c-1.867 0-3.561-.352-5.082-1.055-1.521-.716-2.729-1.745-3.624-3.088-.895-1.355-1.342-2.991-1.342-4.909 0-1.687.332-3.055.997-4.103a7.035 7.035 0 0 1 2.665-2.493 14.006 14.006 0 0 1 3.682-1.343 45.144 45.144 0 0 1 4.084-.728c1.79-.23 3.241-.403 4.353-.518 1.125-.128 1.944-.339 2.455-.633.524-.294.786-.805.786-1.534v-.153c0-1.892-.518-3.363-1.553-4.41-1.023-1.05-2.576-1.573-4.66-1.573-2.16 0-3.854.473-5.082 1.419-1.227.946-2.09 1.956-2.588 3.03l-4.296-1.534c.767-1.79 1.79-3.184 3.068-4.18 1.292-1.01 2.698-1.714 4.219-2.11a17.518 17.518 0 0 1 4.526-.614c.946 0 2.032.115 3.26.345 1.24.218 2.435.671 3.586 1.362 1.163.69 2.128 1.732 2.895 3.126.767 1.393 1.151 3.259 1.151 5.599v19.406h-4.526v-3.988h-.23c-.307.639-.818 1.323-1.534 2.051-.716.729-1.668 1.349-2.857 1.86-1.189.512-2.64.768-4.353.768Zm.69-4.066c1.79 0 3.298-.351 4.526-1.055 1.24-.703 2.173-1.61 2.799-2.723.64-1.112.959-2.281.959-3.509v-4.142c-.192.23-.613.441-1.265.633-.64.179-1.381.339-2.225.479-.831.128-1.643.243-2.435.346-.78.089-1.413.166-1.899.23a17.199 17.199 0 0 0-3.298.748c-1.01.332-1.828.837-2.454 1.514-.614.665-.921 1.573-.921 2.723 0 1.573.582 2.762 1.745 3.567 1.176.793 2.666 1.189 4.468 1.189Zm40.783-13.423v4.219h-16.261v-4.219h16.261Zm-15.188-12.656v29.454h-4.525V94.768h4.525Zm18.64 0v29.454h-4.526V94.768h4.526Zm25.983 29.454V98.91h-7.823c-1.765 0-3.152.409-4.162 1.227-1.01.818-1.515 1.943-1.515 3.375 0 1.406.454 2.512 1.362 3.317.92.806 2.18 1.209 3.778 1.209h9.511v4.218h-9.511c-1.995 0-3.714-.351-5.159-1.054-1.444-.704-2.557-1.707-3.336-3.011-.78-1.317-1.17-2.877-1.17-4.679 0-1.815.409-3.375 1.227-4.679.818-1.304 1.988-2.308 3.509-3.01 1.534-.704 3.356-1.055 5.466-1.055h12.119v29.454h-4.296Zm-19.636 0 8.361-14.65h4.909l-8.361 14.65h-4.909Zm28.232-25.236v-4.218h23.932v4.218h-9.665v25.236h-4.525V98.986h-9.742Zm35.059 18.563 14.19-22.781h5.216v29.454h-4.525v-22.781l-14.114 22.781h-5.293V94.768h4.526v22.781Zm40.044 7.287c-2.838 0-5.286-.627-7.344-1.879-2.046-1.266-3.624-3.03-4.737-5.293-1.099-2.276-1.649-4.922-1.649-7.939 0-3.017.55-5.676 1.649-7.977 1.113-2.314 2.66-4.117 4.641-5.408 1.994-1.304 4.321-1.956 6.98-1.956 1.534 0 3.049.256 4.545.767s2.857 1.343 4.084 2.493c1.228 1.138 2.206 2.646 2.934 4.526.729 1.879 1.093 4.193 1.093 6.941v1.918h-22.704v-3.912h18.102c0-1.662-.332-3.145-.997-4.449a7.51 7.51 0 0 0-2.8-3.087c-1.201-.754-2.62-1.132-4.257-1.132-1.802 0-3.362.448-4.679 1.343a8.826 8.826 0 0 0-3.01 3.451 10.134 10.134 0 0 0-1.055 4.564v2.608c0 2.225.383 4.11 1.15 5.657.78 1.534 1.861 2.704 3.241 3.51 1.381.792 2.985 1.188 4.813 1.188 1.189 0 2.263-.166 3.222-.498a6.896 6.896 0 0 0 2.512-1.534c.703-.691 1.247-1.547 1.63-2.57l4.372 1.227a9.687 9.687 0 0 1-2.32 3.912c-1.087 1.113-2.429 1.982-4.027 2.608-1.598.614-3.394.921-5.389.921Zm-197.658 64.386v-29.454h23.165v29.454h-4.525v-25.236h-14.114v25.236h-4.526Zm43.396.614c-2.659 0-4.992-.633-6.999-1.899-1.995-1.265-3.554-3.036-4.679-5.311-1.113-2.276-1.669-4.935-1.669-7.978 0-3.068.556-5.746 1.669-8.034 1.125-2.289 2.684-4.066 4.679-5.331 2.007-1.266 4.34-1.899 6.999-1.899s4.986.633 6.98 1.899c2.007 1.265 3.567 3.042 4.679 5.331 1.125 2.288 1.688 4.966 1.688 8.034 0 3.043-.563 5.702-1.688 7.978-1.112 2.275-2.672 4.046-4.679 5.311-1.994 1.266-4.321 1.899-6.98 1.899Zm0-4.066c2.02 0 3.682-.517 4.986-1.553 1.304-1.035 2.269-2.397 2.895-4.084.627-1.688.94-3.516.94-5.485 0-1.968-.313-3.803-.94-5.503-.626-1.701-1.591-3.075-2.895-4.123s-2.966-1.573-4.986-1.573c-2.02 0-3.682.525-4.986 1.573-1.304 1.048-2.269 2.422-2.895 4.123-.627 1.7-.94 3.535-.94 5.503 0 1.969.313 3.797.94 5.485.626 1.687 1.591 3.049 2.895 4.084 1.304 1.036 2.966 1.553 4.986 1.553Zm44.11 4.143c-1.867 0-3.56-.352-5.082-1.055-1.521-.716-2.729-1.745-3.624-3.088-.895-1.355-1.342-2.991-1.342-4.909 0-1.687.332-3.055.997-4.103a7.042 7.042 0 0 1 2.665-2.493 14.006 14.006 0 0 1 3.682-1.343 45.103 45.103 0 0 1 4.085-.728c1.789-.23 3.24-.403 4.353-.518 1.125-.128 1.943-.339 2.454-.633.524-.294.786-.805.786-1.534v-.153c0-1.892-.517-3.363-1.553-4.411-1.023-1.048-2.576-1.572-4.66-1.572-2.16 0-3.854.473-5.081 1.419-1.228.946-2.091 1.956-2.589 3.03l-4.296-1.534c.767-1.79 1.79-3.184 3.069-4.181a11.49 11.49 0 0 1 4.218-2.109 17.523 17.523 0 0 1 4.526-.614c.946 0 2.033.115 3.26.345 1.24.218 2.435.671 3.586 1.362 1.163.69 2.128 1.732 2.895 3.125.767 1.394 1.151 3.26 1.151 5.6v19.406h-4.526v-3.988h-.23c-.307.639-.818 1.323-1.534 2.051-.716.729-1.668 1.349-2.857 1.86-1.189.512-2.64.768-4.353.768Zm.69-4.066c1.79 0 3.299-.351 4.526-1.055 1.24-.703 2.173-1.61 2.8-2.723.639-1.112.958-2.281.958-3.509v-4.142c-.191.23-.613.441-1.265.633-.64.179-1.381.339-2.225.479-.831.128-1.642.243-2.435.346-.78.089-1.413.166-1.899.23a17.199 17.199 0 0 0-3.298.748c-1.01.332-1.828.837-2.454 1.514-.614.665-.921 1.573-.921 2.723 0 1.573.582 2.762 1.745 3.567 1.176.793 2.666 1.189 4.468 1.189Zm40.783-13.423v4.219h-16.261v-4.219h16.261Zm-15.187-12.656v29.454h-4.526v-29.454h4.526Zm18.639 0v29.454h-4.526v-29.454h4.526Zm26.444 0v4.218h-13.654v25.236h-4.525v-29.454h18.179Zm1.519 29.454v-4.219h1.074c.882 0 1.617-.172 2.205-.517.589-.358 1.062-.978 1.42-1.86.37-.895.652-2.135.843-3.721.205-1.598.352-3.63.441-6.098l.537-13.039h19.637v29.454h-4.526v-25.236h-10.815l-.461 10.509c-.102 2.416-.319 4.545-.651 6.386-.32 1.828-.812 3.362-1.477 4.602-.652 1.24-1.521 2.173-2.608 2.8-1.087.626-2.448.939-4.085.939h-1.534Zm38.985-6.673 14.191-22.781h5.216v29.454h-4.526v-22.781l-14.113 22.781h-5.293v-29.454h4.525v22.781Zm32.221 0 14.191-22.781h5.215v29.454h-4.525v-22.781l-14.114 22.781h-5.292v-29.454h4.525v22.781Zm11.199-32.6h4.219c0 2.071-.716 3.765-2.148 5.082-1.432 1.317-3.375 1.975-5.829 1.975-2.417 0-4.341-.658-5.773-1.975-1.419-1.317-2.128-3.011-2.128-5.082h4.219c0 .998.275 1.873.824 2.628.563.754 1.515 1.131 2.858 1.131 1.342 0 2.301-.377 2.876-1.131.588-.755.882-1.63.882-2.628Zm28.462 39.887c-2.761 0-5.139-.652-7.133-1.956-1.995-1.304-3.529-3.1-4.603-5.389-1.073-2.288-1.61-4.902-1.61-7.843 0-2.991.549-5.631 1.649-7.919 1.112-2.302 2.659-4.098 4.64-5.389 1.995-1.304 4.321-1.956 6.981-1.956 2.071 0 3.937.384 5.599 1.151 1.662.767 3.023 1.841 4.084 3.221 1.062 1.381 1.72 2.992 1.976 4.833h-4.526c-.345-1.343-1.112-2.532-2.301-3.567-1.176-1.048-2.761-1.573-4.756-1.573-1.764 0-3.311.461-4.64 1.381-1.317.908-2.346 2.193-3.088 3.855-.728 1.649-1.093 3.585-1.093 5.81 0 2.275.358 4.257 1.074 5.944.729 1.688 1.751 2.998 3.068 3.932 1.33.933 2.889 1.399 4.679 1.399 1.176 0 2.244-.204 3.203-.613a6.612 6.612 0 0 0 2.435-1.764c.665-.767 1.138-1.688 1.419-2.762h4.526a10.483 10.483 0 0 1-1.899 4.698c-.997 1.381-2.32 2.481-3.969 3.299-1.637.805-3.541 1.208-5.715 1.208Zm18.198-.614v-29.454h4.526v12.809h2.991l10.586-12.809h5.829l-11.889 14.19 12.043 15.264h-5.83l-9.665-12.426h-4.065v12.426h-4.526Zm39.757.614c-2.659 0-4.992-.633-6.999-1.899-1.994-1.265-3.554-3.036-4.679-5.311-1.112-2.276-1.668-4.935-1.668-7.978 0-3.068.556-5.746 1.668-8.034 1.125-2.289 2.685-4.066 4.679-5.331 2.007-1.266 4.34-1.899 6.999-1.899s4.986.633 6.98 1.899c2.008 1.265 3.567 3.042 4.679 5.331 1.125 2.288 1.688 4.966 1.688 8.034 0 3.043-.563 5.702-1.688 7.978-1.112 2.275-2.671 4.046-4.679 5.311-1.994 1.266-4.321 1.899-6.98 1.899Zm0-4.066c2.02 0 3.682-.517 4.986-1.553 1.304-1.035 2.269-2.397 2.896-4.084.626-1.688.939-3.516.939-5.485 0-1.968-.313-3.803-.939-5.503-.627-1.701-1.592-3.075-2.896-4.123-1.304-1.048-2.966-1.573-4.986-1.573-2.02 0-3.682.525-4.986 1.573-1.303 1.048-2.269 2.422-2.895 4.123-.627 1.7-.94 3.535-.94 5.503 0 1.969.313 3.797.94 5.485.626 1.687 1.592 3.049 2.895 4.084 1.304 1.036 2.966 1.553 4.986 1.553Zm36.363-2.684 10.278-23.318h4.296l-12.733 29.454h-3.682l-12.503-29.454h4.219l10.125 23.318Zm-11.582-23.318v29.454h-4.526v-29.454h4.526Zm23.164 29.454v-29.454h4.526v29.454h-4.526Zm14.67 11.046a9.904 9.904 0 0 1-2.052-.192c-.601-.115-1.016-.23-1.246-.345l1.15-3.989c1.1.281 2.071.384 2.915.307.844-.077 1.592-.454 2.244-1.132.665-.664 1.272-1.745 1.822-3.24l.843-2.301-10.892-29.608h4.909l8.131 23.471h.307l8.131-23.471h4.909l-12.503 33.75c-.563 1.521-1.259 2.78-2.09 3.777-.831 1.01-1.797 1.758-2.896 2.244-1.087.486-2.314.729-3.682.729ZM167.18 254.222V228.91h-7.824c-1.764 0-3.151.409-4.161 1.227-1.01.818-1.515 1.943-1.515 3.375 0 1.406.454 2.512 1.362 3.317.92.806 2.179 1.209 3.777 1.209h9.512v4.218h-9.512c-1.994 0-3.713-.351-5.158-1.054-1.445-.704-2.557-1.707-3.337-3.011-.78-1.317-1.169-2.877-1.169-4.679 0-1.815.409-3.375 1.227-4.679.818-1.304 1.988-2.308 3.509-3.011 1.534-.703 3.356-1.054 5.465-1.054h12.12v29.454h-4.296Zm-19.636 0 8.361-14.65h4.909l-8.361 14.65h-4.909Zm30.399-7.517h4.832c.102 1.33.703 2.34 1.803 3.03 1.112.69 2.556 1.035 4.333 1.035 1.816 0 3.369-.37 4.66-1.112 1.291-.754 1.937-1.969 1.937-3.643 0-.985-.243-1.841-.729-2.57-.485-.741-1.169-1.317-2.051-1.726-.883-.409-1.924-.613-3.126-.613h-5.063v-4.066h5.063c1.802 0 3.132-.409 3.988-1.227.87-.818 1.304-1.841 1.304-3.068 0-1.317-.466-2.372-1.399-3.164-.934-.806-2.257-1.208-3.97-1.208-1.726 0-3.164.39-4.315 1.169-1.15.768-1.757 1.758-1.821 2.973h-4.756c.051-1.585.537-2.985 1.457-4.2.921-1.227 2.174-2.186 3.759-2.876 1.585-.703 3.401-1.055 5.446-1.055 2.071 0 3.867.364 5.389 1.093 1.534.716 2.716 1.694 3.547 2.934.844 1.227 1.266 2.621 1.266 4.18 0 1.662-.467 3.005-1.4 4.027-.933 1.023-2.103 1.752-3.509 2.187v.306c1.112.077 2.077.435 2.895 1.074.831.627 1.477 1.451 1.937 2.474.46 1.01.69 2.129.69 3.356 0 1.79-.479 3.349-1.438 4.679-.959 1.317-2.275 2.339-3.95 3.068-1.675.716-3.586 1.074-5.734 1.074-2.084 0-3.95-.339-5.599-1.017-1.649-.69-2.96-1.642-3.931-2.857-.959-1.227-1.464-2.646-1.515-4.257Zm32.436-11.275h8.438c3.451 0 6.091.875 7.919 2.627 1.829 1.751 2.743 3.969 2.743 6.654 0 1.764-.409 3.368-1.228 4.813-.818 1.432-2.02 2.576-3.605 3.433-1.585.843-3.528 1.265-5.829 1.265h-12.35v-29.454h4.526v25.235h7.824c1.789 0 3.26-.473 4.41-1.419 1.151-.946 1.726-2.16 1.726-3.643 0-1.56-.575-2.832-1.726-3.816-1.15-.985-2.621-1.477-4.41-1.477h-8.438v-4.218Zm23.779 18.792v-29.454h4.525v29.454h-4.525Zm12.809 0v-29.454h4.526v12.809h2.991l10.586-12.809h5.829l-11.889 14.19 12.042 15.264h-5.829l-9.665-12.426h-4.065v12.426h-4.526Zm31.919 11.046a9.904 9.904 0 0 1-2.052-.192c-.601-.115-1.016-.23-1.246-.345l1.15-3.989c1.1.281 2.071.384 2.915.307.844-.077 1.592-.454 2.244-1.132.664-.664 1.272-1.745 1.821-3.24l.844-2.301-10.892-29.608h4.909l8.131 23.471h.307l8.13-23.471h4.909l-12.502 33.75c-.563 1.521-1.26 2.78-2.091 3.777-.831 1.01-1.796 1.758-2.895 2.244-1.087.486-2.314.729-3.682.729Zm62.044-27.844v4.219h-16.261v-4.219h16.261Zm-15.187-12.656v29.454h-4.526v-29.454h4.526Zm18.639 0v29.454h-4.526v-29.454h4.526Zm16.933 30.145c-1.867 0-3.561-.352-5.082-1.055-1.521-.716-2.73-1.745-3.624-3.088-.895-1.355-1.343-2.991-1.343-4.909 0-1.687.333-3.055.997-4.103a7.045 7.045 0 0 1 2.666-2.493 13.993 13.993 0 0 1 3.682-1.343 45.082 45.082 0 0 1 4.084-.728c1.79-.23 3.241-.403 4.353-.518 1.125-.128 1.943-.339 2.455-.633.524-.294.786-.805.786-1.534v-.153c0-1.892-.518-3.363-1.553-4.411-1.023-1.048-2.576-1.572-4.66-1.572-2.161 0-3.854.473-5.082 1.419-1.227.946-2.09 1.956-2.589 3.03l-4.295-1.534c.767-1.79 1.79-3.184 3.068-4.181a11.494 11.494 0 0 1 4.219-2.109 17.521 17.521 0 0 1 4.525-.614c.947 0 2.033.115 3.26.345a10.43 10.43 0 0 1 3.586 1.362c1.164.69 2.129 1.732 2.896 3.125.767 1.394 1.151 3.26 1.151 5.6v19.406h-4.526v-3.988h-.23c-.307.639-.818 1.323-1.534 2.051-.716.729-1.669 1.349-2.857 1.86-1.189.512-2.64.768-4.353.768Zm.69-4.066c1.79 0 3.298-.351 4.525-1.055 1.241-.703 2.174-1.61 2.8-2.723.639-1.112.959-2.281.959-3.509v-4.142c-.192.23-.614.441-1.266.633-.639.179-1.38.339-2.224.479-.831.128-1.643.243-2.435.346-.78.089-1.413.166-1.899.23a17.199 17.199 0 0 0-3.298.748c-1.01.332-1.828.837-2.455 1.514-.613.665-.92 1.573-.92 2.723 0 1.573.581 2.762 1.745 3.567 1.176.793 2.665 1.189 4.468 1.189Zm43.774-26.079v29.454h-4.525v-29.454h4.525Zm-1.764 14.037v4.218a42.387 42.387 0 0 1-3.049 1.017c-1.01.281-2.071.505-3.183.671-1.112.153-2.333.23-3.663.23-3.337 0-6.015-.901-8.035-2.704-2.007-1.802-3.01-4.506-3.01-8.111v-9.435h4.525v9.435c0 1.508.288 2.748.863 3.72.575.971 1.355 1.694 2.34 2.167.984.473 2.09.709 3.317.709 1.918 0 3.65-.172 5.197-.518a39.19 39.19 0 0 0 4.698-1.399Zm29.781-1.381v4.219h-16.262v-4.219h16.262Zm-15.188-12.656v29.454h-4.526v-29.454h4.526Zm18.639 0v29.454h-4.525v-29.454h4.525Zm20.615 30.068c-2.838 0-5.287-.627-7.345-1.879-2.045-1.266-3.624-3.03-4.736-5.293-1.1-2.276-1.65-4.922-1.65-7.939 0-3.017.55-5.676 1.65-7.977 1.112-2.314 2.659-4.117 4.64-5.408 1.995-1.304 4.321-1.956 6.98-1.956 1.534 0 3.049.256 4.545.767 1.496.512 2.857 1.342 4.085 2.493 1.227 1.138 2.205 2.646 2.934 4.526.728 1.879 1.093 4.193 1.093 6.941v1.918h-22.705v-3.912h18.102c0-1.662-.332-3.145-.997-4.449a7.509 7.509 0 0 0-2.8-3.087c-1.201-.754-2.62-1.132-4.257-1.132-1.802 0-3.362.448-4.679 1.343a8.824 8.824 0 0 0-3.01 3.451 10.147 10.147 0 0 0-1.055 4.564v2.608c0 2.225.384 4.11 1.151 5.657.779 1.534 1.86 2.704 3.24 3.51 1.381.792 2.985 1.188 4.814 1.188 1.189 0 2.262-.166 3.221-.498a6.896 6.896 0 0 0 2.512-1.534c.703-.691 1.247-1.547 1.63-2.57l4.372 1.227a9.687 9.687 0 0 1-2.32 3.912c-1.087 1.113-2.429 1.982-4.027 2.608-1.598.614-3.394.921-5.388.921Zm-6.213-34.977c-.806 0-1.522-.307-2.148-.921-.614-.626-.921-1.342-.921-2.148 0-.882.307-1.61.921-2.186.626-.588 1.342-.882 2.148-.882.882 0 1.61.294 2.186.882.588.576.882 1.304.882 2.186 0 .806-.294 1.522-.882 2.148-.576.614-1.304.921-2.186.921Zm11.045 0c-.805 0-1.521-.307-2.148-.921-.613-.626-.92-1.342-.92-2.148 0-.882.307-1.61.92-2.186.627-.588 1.343-.882 2.148-.882.882 0 1.611.294 2.186.882.588.576.882 1.304.882 2.186 0 .806-.294 1.522-.882 2.148-.575.614-1.304.921-2.186.921Zm11.506 9.127v-4.218h23.931v4.218h-9.664v25.236h-4.526v-25.236H474.2Zm40.969 25.85c-2.761 0-5.139-.652-7.133-1.956-1.994-1.304-3.528-3.1-4.602-5.389-1.074-2.288-1.611-4.902-1.611-7.843 0-2.991.55-5.631 1.649-7.919 1.112-2.302 2.659-4.098 4.641-5.389 1.994-1.304 4.321-1.956 6.98-1.956 2.071 0 3.937.384 5.599 1.151 1.662.767 3.024 1.841 4.085 3.221 1.061 1.381 1.719 2.992 1.975 4.833h-4.526c-.345-1.343-1.112-2.532-2.301-3.567-1.176-1.048-2.761-1.573-4.756-1.573-1.764 0-3.311.461-4.64 1.381-1.317.908-2.346 2.193-3.088 3.855-.728 1.649-1.093 3.585-1.093 5.81 0 2.275.358 4.257 1.074 5.944.729 1.688 1.752 2.998 3.069 3.932 1.329.933 2.889 1.399 4.678 1.399 1.177 0 2.244-.204 3.203-.613a6.604 6.604 0 0 0 2.435-1.764c.665-.767 1.138-1.688 1.419-2.762h4.526a10.483 10.483 0 0 1-1.899 4.698c-.997 1.381-2.32 2.481-3.969 3.299-1.636.805-3.541 1.208-5.715 1.208Zm35.917-.614V228.91h-7.823c-1.765 0-3.152.409-4.162 1.227-1.01.818-1.515 1.943-1.515 3.375 0 1.406.454 2.512 1.362 3.317.92.806 2.18 1.209 3.778 1.209h9.511v4.218h-9.511c-1.995 0-3.714-.351-5.159-1.054-1.444-.704-2.557-1.707-3.336-3.011-.78-1.317-1.17-2.877-1.17-4.679 0-1.815.409-3.375 1.227-4.679.818-1.304 1.988-2.308 3.509-3.011 1.534-.703 3.356-1.054 5.466-1.054h12.119v29.454h-4.296Zm-19.636 0 8.361-14.65h4.909l-8.361 14.65h-4.909Zm-359.284 35.546v29.454h-4.526v-29.454h4.526Zm-1.764 14.037v4.218a42.387 42.387 0 0 1-3.049 1.017c-1.01.281-2.071.505-3.184.671-1.112.153-2.333.23-3.662.23-3.337 0-6.015-.901-8.035-2.704-2.007-1.802-3.011-4.506-3.011-8.111v-9.435h4.526v9.435c0 1.508.288 2.748.863 3.72.575.971 1.355 1.694 2.339 2.167.985.473 2.091.709 3.318.709 1.917 0 3.65-.172 5.197-.518a39.3 39.3 0 0 0 4.698-1.399Zm22.417 16.031c-2.838 0-5.287-.627-7.345-1.879-2.045-1.266-3.624-3.03-4.736-5.293-1.1-2.276-1.649-4.922-1.649-7.939 0-3.017.549-5.676 1.649-7.977 1.112-2.314 2.659-4.117 4.64-5.408 1.995-1.304 4.321-1.956 6.98-1.956 1.534 0 3.049.256 4.545.767 1.496.512 2.857 1.342 4.085 2.493 1.227 1.138 2.205 2.646 2.934 4.526.728 1.879 1.093 4.193 1.093 6.941v1.918H182.31v-3.912h18.102c0-1.662-.332-3.145-.997-4.449a7.513 7.513 0 0 0-2.799-3.087c-1.202-.754-2.621-1.132-4.258-1.132-1.802 0-3.362.448-4.679 1.343a8.824 8.824 0 0 0-3.01 3.451 10.147 10.147 0 0 0-1.055 4.564v2.608c0 2.225.384 4.11 1.151 5.657.779 1.534 1.86 2.704 3.24 3.51 1.381.792 2.986 1.188 4.814 1.188 1.189 0 2.262-.166 3.221-.498a6.896 6.896 0 0 0 2.512-1.534c.703-.691 1.247-1.547 1.63-2.57l4.372 1.227a9.687 9.687 0 0 1-2.32 3.912c-1.087 1.113-2.429 1.982-4.027 2.608-1.598.614-3.394.921-5.388.921Zm19.08 10.432v-40.5h4.372v4.679h.537a39.57 39.57 0 0 1 1.381-1.956c.601-.806 1.457-1.522 2.569-2.148 1.125-.639 2.647-.959 4.564-.959 2.48 0 4.666.62 6.558 1.86 1.892 1.24 3.369 2.998 4.43 5.274 1.061 2.275 1.592 4.96 1.592 8.054 0 3.119-.531 5.823-1.592 8.111-1.061 2.276-2.531 4.04-4.41 5.293-1.88 1.24-4.047 1.86-6.501 1.86-1.892 0-3.407-.313-4.545-.94-1.138-.639-2.013-1.361-2.627-2.167a28.721 28.721 0 0 1-1.419-2.032h-.384v15.571h-4.525Zm4.449-25.773c0 2.224.326 4.187.978 5.887.652 1.687 1.604 3.011 2.857 3.969 1.253.946 2.787 1.419 4.602 1.419 1.892 0 3.471-.498 4.737-1.495 1.278-1.01 2.237-2.365 2.876-4.066.652-1.713.978-3.618.978-5.714 0-2.071-.319-3.938-.959-5.6-.626-1.674-1.578-2.997-2.857-3.969-1.266-.984-2.857-1.477-4.775-1.477-1.841 0-3.388.467-4.64 1.4-1.253.921-2.199 2.212-2.838 3.874-.64 1.649-.959 3.573-.959 5.772Zm40.807 15.341c-2.839 0-5.287-.627-7.345-1.879-2.045-1.266-3.624-3.03-4.736-5.293-1.1-2.276-1.65-4.922-1.65-7.939 0-3.017.55-5.676 1.65-7.977 1.112-2.314 2.659-4.117 4.64-5.408 1.995-1.304 4.321-1.956 6.98-1.956 1.534 0 3.049.256 4.545.767 1.496.512 2.857 1.342 4.085 2.493 1.227 1.138 2.205 2.646 2.934 4.526.728 1.879 1.093 4.193 1.093 6.941v1.918h-22.705v-3.912h18.102c0-1.662-.332-3.145-.997-4.449a7.509 7.509 0 0 0-2.8-3.087c-1.201-.754-2.62-1.132-4.257-1.132-1.802 0-3.362.448-4.679 1.343a8.824 8.824 0 0 0-3.01 3.451 10.147 10.147 0 0 0-1.055 4.564v2.608c0 2.225.384 4.11 1.151 5.657.779 1.534 1.86 2.704 3.24 3.51 1.381.792 2.985 1.188 4.814 1.188 1.188 0 2.262-.166 3.221-.498a6.896 6.896 0 0 0 2.512-1.534c.703-.691 1.247-1.547 1.63-2.57l4.372 1.227a9.687 9.687 0 0 1-2.32 3.912c-1.087 1.113-2.429 1.982-4.027 2.608-1.598.614-3.394.921-5.388.921Zm17.239-8.131h4.832c.103 1.33.703 2.34 1.803 3.03 1.112.69 2.557 1.035 4.334 1.035 1.815 0 3.368-.37 4.659-1.112 1.292-.754 1.937-1.969 1.937-3.643 0-.985-.243-1.841-.728-2.57-.486-.741-1.17-1.317-2.052-1.726-.882-.409-1.924-.613-3.126-.613h-5.062v-4.066h5.062c1.803 0 3.132-.409 3.989-1.227.869-.818 1.304-1.841 1.304-3.068 0-1.317-.467-2.372-1.4-3.164-.933-.806-2.257-1.208-3.97-1.208-1.726 0-3.164.39-4.314 1.169-1.151.768-1.758 1.758-1.822 2.973h-4.756c.051-1.585.537-2.985 1.458-4.2.92-1.227 2.173-2.186 3.758-2.876 1.585-.703 3.401-1.055 5.446-1.055 2.071 0 3.867.364 5.389 1.093 1.534.716 2.716 1.694 3.547 2.934.844 1.227 1.266 2.621 1.266 4.18 0 1.662-.467 3.005-1.4 4.027-.933 1.023-2.103 1.752-3.509 2.187v.306c1.112.077 2.077.435 2.895 1.074.831.627 1.477 1.451 1.937 2.474.46 1.01.691 2.129.691 3.356 0 1.79-.48 3.349-1.439 4.679-.958 1.317-2.275 2.339-3.95 3.068-1.675.716-3.586 1.074-5.734 1.074-2.083 0-3.95-.339-5.599-1.017-1.649-.69-2.96-1.642-3.931-2.857-.959-1.227-1.464-2.646-1.515-4.257Zm57.442-31.756v39.273h-4.756v-34.287h-.23l-9.588 6.367v-4.833l9.818-6.52h4.756Zm49.264 9.819v29.454h-4.526v-29.454h4.526Zm-1.765 14.037v4.218a42.223 42.223 0 0 1-3.049 1.017c-1.01.281-2.071.505-3.183.671-1.112.153-2.333.23-3.663.23-3.336 0-6.014-.901-8.034-2.704-2.007-1.802-3.011-4.506-3.011-8.111v-9.435h4.526v9.435c0 1.508.287 2.748.862 3.72.576.971 1.356 1.694 2.34 2.167.984.473 2.09.709 3.317.709 1.918 0 3.65-.172 5.197-.518a39.19 39.19 0 0 0 4.698-1.399Zm18.735 16.108c-1.866 0-3.56-.352-5.081-1.055-1.522-.716-2.73-1.745-3.625-3.088-.894-1.355-1.342-2.991-1.342-4.909 0-1.687.332-3.055.997-4.103a7.045 7.045 0 0 1 2.666-2.493 13.993 13.993 0 0 1 3.682-1.343 45.082 45.082 0 0 1 4.084-.728c1.79-.23 3.241-.403 4.353-.518 1.125-.128 1.943-.339 2.455-.633.524-.294.786-.805.786-1.534v-.153c0-1.892-.518-3.363-1.553-4.411-1.023-1.048-2.576-1.572-4.66-1.572-2.161 0-3.855.473-5.082 1.419-1.227.946-2.09 1.956-2.589 3.03l-4.295-1.534c.767-1.79 1.79-3.184 3.068-4.181a11.487 11.487 0 0 1 4.219-2.109 17.515 17.515 0 0 1 4.525-.614c.946 0 2.033.115 3.26.345a10.43 10.43 0 0 1 3.586 1.362c1.164.69 2.129 1.732 2.896 3.125.767 1.394 1.15 3.26 1.15 5.6v19.406h-4.525v-3.988h-.23c-.307.639-.818 1.323-1.534 2.051-.716.729-1.669 1.349-2.858 1.86-1.189.512-2.64.768-4.353.768Zm.691-4.066c1.79 0 3.298-.351 4.525-1.055 1.24-.703 2.174-1.61 2.8-2.723.639-1.112.959-2.281.959-3.509v-4.142c-.192.23-.614.441-1.266.633-.639.179-1.38.339-2.224.479-.831.128-1.643.243-2.436.346-.779.089-1.412.166-1.898.23a17.182 17.182 0 0 0-3.298.748c-1.01.332-1.828.837-2.455 1.514-.614.665-.92 1.573-.92 2.723 0 1.573.581 2.762 1.745 3.567 1.176.793 2.665 1.189 4.468 1.189Zm33.035 3.989c-2.761 0-5.139-.652-7.133-1.956-1.994-1.304-3.529-3.1-4.602-5.389-1.074-2.288-1.611-4.902-1.611-7.843 0-2.991.55-5.631 1.649-7.919 1.112-2.302 2.659-4.098 4.641-5.389 1.994-1.304 4.321-1.956 6.98-1.956 2.071 0 3.937.384 5.599 1.151 1.662.767 3.024 1.841 4.085 3.221 1.061 1.381 1.719 2.992 1.975 4.833h-4.526c-.345-1.343-1.112-2.532-2.301-3.567-1.176-1.048-2.761-1.573-4.756-1.573-1.764 0-3.311.461-4.64 1.381-1.317.908-2.346 2.193-3.088 3.855-.728 1.649-1.093 3.585-1.093 5.81 0 2.275.358 4.257 1.074 5.944.729 1.688 1.752 2.998 3.068 3.932 1.33.933 2.89 1.399 4.679 1.399 1.177 0 2.244-.204 3.203-.613a6.604 6.604 0 0 0 2.435-1.764c.665-.767 1.138-1.688 1.419-2.762h4.526a10.483 10.483 0 0 1-1.899 4.698c-.997 1.381-2.32 2.481-3.969 3.299-1.636.805-3.541 1.208-5.715 1.208Z"/><g clip-path="url(#e)"><path fill="#0F0F11" d="M648.171 345.141v19.637h-2.377v-17.144h-.115l-4.795 3.184v-2.417l4.91-3.26h2.377Zm5.648 19.637v-1.726l6.481-7.095a45.2 45.2 0 0 0 1.88-2.167c.492-.62.856-1.202 1.093-1.745.243-.55.364-1.125.364-1.726 0-.69-.166-1.288-.499-1.793a3.234 3.234 0 0 0-1.342-1.17c-.569-.275-1.208-.412-1.918-.412-.754 0-1.412.157-1.975.47a3.236 3.236 0 0 0-1.294 1.294c-.3.556-.451 1.208-.451 1.956h-2.262c0-1.15.265-2.16.795-3.03a5.528 5.528 0 0 1 2.167-2.032c.921-.486 1.953-.729 3.097-.729 1.151 0 2.17.243 3.059.729a5.48 5.48 0 0 1 2.09 1.965c.505.825.757 1.742.757 2.752 0 .722-.131 1.429-.393 2.119-.255.684-.703 1.448-1.342 2.292-.633.837-1.512 1.86-2.637 3.068l-4.41 4.717v.153h9.128v2.11h-12.388Zm18.035-2.512c-.473 0-.879-.17-1.218-.508a1.661 1.661 0 0 1-.508-1.218c0-.473.169-.879.508-1.218a1.661 1.661 0 0 1 1.218-.508c.473 0 .879.169 1.218.508.338.339.508.745.508 1.218 0 .313-.08.601-.24.863a1.79 1.79 0 0 1-.623.633c-.256.153-.543.23-.863.23Zm0-9.933c-.473 0-.879-.17-1.218-.509a1.657 1.657 0 0 1-.508-1.217c0-.473.169-.879.508-1.218a1.661 1.661 0 0 1 1.218-.508c.473 0 .879.169 1.218.508.338.339.508.745.508 1.218 0 .313-.08.601-.24.863a1.779 1.779 0 0 1-.623.632 1.64 1.64 0 0 1-.863.231Zm12.153 12.713c-1.445 0-2.675-.393-3.692-1.179-1.016-.793-1.793-1.94-2.329-3.442-.537-1.509-.806-3.33-.806-5.465 0-2.123.269-3.935.806-5.437.543-1.508 1.323-2.659 2.339-3.451 1.023-.799 2.25-1.199 3.682-1.199s2.656.4 3.672 1.199c1.023.792 1.803 1.943 2.34 3.451.543 1.502.815 3.314.815 5.437 0 2.135-.269 3.956-.806 5.465-.537 1.502-1.313 2.649-2.33 3.442-1.016.786-2.247 1.179-3.691 1.179Zm0-2.109c1.432 0 2.544-.69 3.336-2.071.793-1.381 1.189-3.35 1.189-5.906 0-1.701-.182-3.148-.546-4.344-.358-1.195-.876-2.106-1.553-2.732-.672-.627-1.48-.94-2.426-.94-1.419 0-2.528.7-3.327 2.1-.799 1.393-1.199 3.365-1.199 5.916 0 1.7.179 3.145.537 4.333.358 1.189.873 2.094 1.544 2.714.677.62 1.492.93 2.445.93Zm16.875 2.109c-1.445 0-2.675-.393-3.692-1.179-1.016-.793-1.793-1.94-2.329-3.442-.537-1.509-.806-3.33-.806-5.465 0-2.123.269-3.935.806-5.437.543-1.508 1.323-2.659 2.339-3.451 1.023-.799 2.25-1.199 3.682-1.199s2.656.4 3.672 1.199c1.023.792 1.803 1.943 2.34 3.451.543 1.502.815 3.314.815 5.437 0 2.135-.269 3.956-.806 5.465-.537 1.502-1.313 2.649-2.33 3.442-1.016.786-2.247 1.179-3.691 1.179Zm0-2.109c1.432 0 2.544-.69 3.336-2.071.793-1.381 1.189-3.35 1.189-5.906 0-1.701-.182-3.148-.546-4.344-.358-1.195-.876-2.106-1.553-2.732-.672-.627-1.48-.94-2.426-.94-1.419 0-2.528.7-3.327 2.1-.799 1.393-1.199 3.365-1.199 5.916 0 1.7.179 3.145.537 4.333.358 1.189.873 2.094 1.544 2.714.677.62 1.492.93 2.445.93Z" opacity=".5"/></g></g></g><defs><clipPath id="a"><rect width="78" height="78" x="12.681" y="298.778" fill="#fff" rx="39"/></clipPath><clipPath id="c"><path fill="#fff" d="M113.819 5.222h13.5v244.056h-13.5z"/></clipPath><clipPath id="d"><path fill="#fff" d="M127.319 16.361c0-6.152 4.987-11.139 11.139-11.139h568.811c11.074 0 20.05 8.977 20.05 20.05v331.456c0 11.073-8.976 20.05-20.05 20.05h-579.95V16.361Z"/></clipPath><clipPath id="e"><path fill="#fff" d="M638.319 338.778h71v32h-71z"/></clipPath><filter id="b" width="626.867" height="384.922" x="107.136" y=".767" color-interpolation-filters="sRGB" filterUnits="userSpaceOnUse"><feFlood flood-opacity="0" result="BackgroundImageFix"/><feColorMatrix in="SourceAlpha" result="hardAlpha" values="0 0 0 0 0 0 0 0 0 0 0 0 0 0 0 0 0 0 127 0"/><feOffset/><feGaussianBlur stdDeviation="1.114"/><feColorMatrix values="0 0 0 0 0 0 0 0 0 0 0 0 0 0 0 0 0 0 0.35 0"/><feBlend in2="BackgroundImageFix" result="effect1_dropShadow_6396_10179"/><feColorMatrix in="SourceAlpha" result="hardAlpha" values="0 0 0 0 0 0 0 0 0 0 0 0 0 0 0 0 0 0 127 0"/><feOffset dy="2.228"/><feGaussianBlur stdDeviation="3.342"/><feColorMatrix values="0 0 0 0 0 0 0 0 0 0 0 0 0 0 0 0 0 0 0.1 0"/><feBlend in2="effect1_dropShadow_6396_10179" result="effect2_dropShadow_6396_10179"/><feBlend in="SourceGraphic" in2="effect2_dropShadow_6396_10179" result="shape"/></filter></defs></svg>