<svg xmlns="http://www.w3.org/2000/svg" width="320" height="544" fill="none"><rect width="320" height="544" fill="#fff" rx="24"/><path fill="#E7E7E9" d="M312 144v-.5H8v1h304v-.5Z"/><path fill="#fff" d="M16 20a8 8 0 0 1 8-8h232a8 8 0 0 1 8 8v16a8 8 0 0 1-8 8H24a8 8 0 0 1-8-8V20Z"/><path fill="#3D3E43" d="M28.494 32.14c-.656 0-1.24-.114-1.755-.339a3.006 3.006 0 0 1-1.218-.94 2.526 2.526 0 0 1-.487-1.407h1.253c.026.329.14.612.338.85.199.236.459.418.78.548.322.129.678.194 1.07.194.437 0 .825-.077 1.163-.23a1.91 1.91 0 0 0 .795-.636c.192-.271.289-.586.289-.944 0-.375-.093-.704-.279-.99a1.844 1.844 0 0 0-.815-.676c-.358-.162-.796-.243-1.313-.243H27.5v-1.094h.815a2.44 2.44 0 0 0 1.064-.219c.308-.146.549-.351.721-.616.176-.265.264-.577.264-.935 0-.345-.077-.645-.23-.9a1.564 1.564 0 0 0-.645-.596 2.092 2.092 0 0 0-.975-.214 2.57 2.57 0 0 0-.994.194c-.308.126-.56.31-.756.552a1.437 1.437 0 0 0-.318.865h-1.193c.02-.534.18-1.001.482-1.402.302-.405.696-.72 1.183-.945a3.825 3.825 0 0 1 1.616-.338c.63 0 1.17.128 1.62.383.452.252.798.585 1.04 1 .242.413.363.86.363 1.341 0 .574-.151 1.063-.453 1.467a2.292 2.292 0 0 1-1.218.84v.08c.643.106 1.146.38 1.507.82.361.438.542.98.542 1.626 0 .553-.151 1.05-.453 1.491a3.073 3.073 0 0 1-1.223 1.034c-.517.252-1.105.378-1.765.378Zm7.741.039c-.484 0-.923-.091-1.317-.274a2.26 2.26 0 0 1-.94-.8c-.232-.351-.348-.776-.348-1.273 0-.437.086-.792.258-1.064.173-.275.403-.49.692-.646.288-.156.606-.272.954-.348.351-.08.704-.142 1.059-.189.464-.06.84-.104 1.129-.134.291-.033.503-.088.636-.164.136-.076.204-.209.204-.398v-.04c0-.49-.134-.871-.403-1.143-.265-.272-.668-.408-1.208-.408-.56 0-1 .123-1.318.368-.318.245-.541.507-.67.786l-1.114-.398c.199-.464.464-.825.795-1.084.335-.262.7-.444 1.094-.547a4.54 4.54 0 0 1 1.173-.159c.245 0 .527.03.845.09.322.056.632.174.93.353.302.179.552.449.75.81.2.361.3.845.3 1.452V32h-1.174v-1.034h-.06c-.08.166-.212.343-.398.532-.185.189-.432.35-.74.482-.309.133-.685.199-1.129.199Zm.18-1.054c.463 0 .854-.091 1.172-.273a1.862 1.862 0 0 0 .975-1.616v-1.074c-.05.06-.16.114-.328.164a5.553 5.553 0 0 1-.577.124 26.415 26.415 0 0 1-1.124.15c-.305.04-.59.104-.855.193a1.474 1.474 0 0 0-.636.393c-.16.172-.239.408-.239.706 0 .408.151.716.453.925.305.205.69.308 1.158.308Zm10.572-3.48v1.094h-4.215v-1.094h4.215Zm-3.937-3.281V32h-1.173v-7.636h1.173Zm4.832 0V32H46.71v-7.636h1.173ZM54.62 32v-6.563H52.59c-.457 0-.817.107-1.079.319-.261.212-.392.503-.392.875 0 .364.117.651.353.86.238.209.565.313.98.313h2.465v1.094h-2.466c-.517 0-.963-.091-1.337-.274a2 2 0 0 1-.865-.78c-.202-.342-.303-.746-.303-1.213 0-.471.106-.875.318-1.213.212-.338.515-.599.91-.78.397-.183.87-.274 1.416-.274h3.142V32H54.62Zm-5.091 0 2.168-3.798h1.272L50.801 32h-1.273Zm7.32-6.543v-1.093h6.204v1.093h-2.506V32h-1.173v-6.543h-2.526Zm9.089 4.813 3.679-5.906h1.352V32h-1.173v-5.906L66.135 32h-1.372v-7.636h1.174v5.906Zm10.382 1.89c-.736 0-1.371-.163-1.905-.488a3.27 3.27 0 0 1-1.228-1.372c-.285-.59-.427-1.276-.427-2.059 0-.782.142-1.471.427-2.068.289-.6.69-1.067 1.204-1.402.517-.338 1.12-.507 1.81-.507.397 0 .79.067 1.177.2.388.132.741.347 1.06.645.318.295.571.686.76 1.174.189.487.284 1.087.284 1.8v.497h-5.887v-1.015h4.693c0-.43-.086-.815-.258-1.153a1.95 1.95 0 0 0-.726-.8c-.312-.196-.68-.294-1.104-.294-.467 0-.871.116-1.213.348a2.29 2.29 0 0 0-.78.895 2.629 2.629 0 0 0-.274 1.183v.677c0 .576.1 1.065.299 1.466.202.398.482.701.84.91.358.205.774.308 1.248.308.308 0 .586-.043.835-.13.252-.089.469-.221.651-.397.182-.179.323-.4.423-.666l1.133.318c-.12.385-.32.723-.601 1.014-.282.289-.63.514-1.044.677-.415.159-.88.238-1.397.238Z"/><path fill="#6A6C76" fill-rule="evenodd" d="M244.197 25.94a.691.691 0 0 1 .951 0L248 28.687l2.852-2.747a.691.691 0 0 1 .951 0 .63.63 0 0 1 0 .915l-3.328 3.205a.685.685 0 0 1-.475.19.685.685 0 0 1-.475-.19l-3.328-3.205a.63.63 0 0 1 0-.915Z" clip-rule="evenodd"/><path fill="#fff" d="M272 20a8 8 0 0 1 8-8h16a8 8 0 0 1 8 8v16a8 8 0 0 1-8 8h-16a8 8 0 0 1-8-8V20Z"/><path fill="#6A6C76" d="M284 26.667a1.333 1.333 0 1 1 .001 2.667 1.333 1.333 0 0 1-.001-2.667ZM288 26.667a1.333 1.333 0 1 1 .001 2.667 1.333 1.333 0 0 1-.001-2.667ZM293.334 28a1.333 1.333 0 1 0-2.667 0 1.333 1.333 0 0 0 2.667 0Z"/><path fill="#fff" d="M16 64c0-6.627 5.373-12 12-12h264c6.627 0 12 5.373 12 12v24c0 6.627-5.373 12-12 12H28c-6.627 0-12-5.373-12-12V64Z"/><path fill="#3D3E43" d="M25.41 81V69.364h3.93c.914 0 1.66.164 2.24.494.583.326 1.015.767 1.295 1.324s.42 1.178.42 1.864c0 .685-.14 1.308-.42 1.869-.276.56-.705 1.007-1.284 1.34-.58.33-1.322.495-2.227.495h-2.819V75.5h2.773c.625 0 1.127-.108 1.506-.324a1.93 1.93 0 0 0 .824-.875 2.92 2.92 0 0 0 .261-1.255c0-.467-.087-.883-.261-1.25a1.864 1.864 0 0 0-.83-.864c-.382-.212-.89-.318-1.523-.318h-2.477V81H25.41Zm12.542.204a3.546 3.546 0 0 1-1.506-.312 2.584 2.584 0 0 1-1.074-.915c-.265-.401-.398-.886-.398-1.454 0-.5.099-.906.296-1.216.197-.315.46-.56.79-.739a4.15 4.15 0 0 1 1.09-.397c.402-.092.806-.163 1.21-.217.531-.068.961-.119 1.29-.153.334-.038.576-.1.728-.187.155-.088.233-.239.233-.455v-.045c0-.561-.154-.997-.46-1.307-.304-.31-.764-.466-1.381-.466-.64 0-1.142.14-1.506.42-.363.28-.62.58-.767.898l-1.273-.455c.228-.53.53-.943.91-1.238.382-.3.799-.508 1.25-.625a5.19 5.19 0 0 1 1.34-.182c.28 0 .603.034.966.102a3.09 3.09 0 0 1 1.063.404c.344.204.63.513.858.926.227.413.34.966.34 1.659V81h-1.34v-1.182h-.068a2.36 2.36 0 0 1-.455.608c-.212.216-.494.4-.846.551-.353.152-.783.227-1.29.227ZM38.156 80c.53 0 .977-.104 1.341-.313a2.127 2.127 0 0 0 1.114-1.846v-1.227c-.057.068-.182.13-.375.187-.19.053-.41.1-.66.142a29.81 29.81 0 0 1-1.283.17c-.349.046-.675.12-.978.222-.299.099-.541.248-.727.45-.182.196-.273.465-.273.806 0 .466.173.818.517 1.057.349.235.79.352 1.324.352Zm12.425-5.773-1.205.341a2.234 2.234 0 0 0-.335-.585 1.626 1.626 0 0 0-.59-.477c-.25-.125-.57-.188-.96-.188-.535 0-.98.123-1.336.37-.352.242-.529.55-.529.926 0 .333.122.596.364.79.242.193.621.354 1.136.482l1.296.319c.78.189 1.362.479 1.744.869.383.386.574.884.574 1.494 0 .5-.144.947-.432 1.341-.284.394-.682.705-1.193.932-.511.227-1.106.34-1.784.34-.89 0-1.627-.192-2.21-.579-.584-.386-.953-.95-1.108-1.693l1.273-.318c.12.47.35.822.687 1.057.34.235.786.352 1.335.352.625 0 1.121-.133 1.489-.398.371-.269.557-.59.557-.966 0-.303-.106-.556-.319-.761-.212-.208-.537-.364-.977-.466l-1.454-.34c-.8-.19-1.387-.484-1.762-.882-.37-.401-.556-.903-.556-1.505 0-.493.138-.928.414-1.307.28-.379.661-.676 1.142-.892.485-.216 1.034-.324 1.648-.324.864 0 1.542.19 2.034.568.496.38.849.88 1.057 1.5Zm5.973-1.954v1.136h-4.523v-1.136h4.523Zm-3.205-2.091h1.341V78.5c0 .379.055.663.165.852.114.186.258.31.432.375.178.06.366.091.562.091.148 0 .27-.007.364-.022l.227-.046.273 1.204c-.09.035-.218.069-.38.103-.163.038-.37.057-.62.057a2.7 2.7 0 0 1-1.114-.245 2.213 2.213 0 0 1-.897-.744c-.235-.333-.353-.754-.353-1.261v-8.682Zm16.268 2.09a1.784 1.784 0 0 0-.83-1.34c-.485-.318-1.08-.478-1.784-.478-.515 0-.966.084-1.352.25a2.161 2.161 0 0 0-.898.688 1.648 1.648 0 0 0-.318.994c0 .311.073.578.221.802.152.22.345.403.58.55.235.145.48.264.738.359.258.09.495.164.71.221l1.183.318c.302.08.64.19 1.01.33.376.14.734.331 1.075.574.344.238.629.545.852.92.224.375.335.836.335 1.38 0 .63-.165 1.198-.494 1.706-.326.507-.803.91-1.432 1.21-.625.299-1.384.448-2.278.448-.834 0-1.555-.134-2.165-.403-.606-.269-1.083-.644-1.432-1.125A3.21 3.21 0 0 1 62.753 78h1.454c.038.44.186.803.444 1.09a2.4 2.4 0 0 0 .988.637c.402.137.834.205 1.296.205.537 0 1.02-.087 1.448-.261.429-.179.768-.425 1.018-.74.25-.317.375-.689.375-1.113 0-.386-.108-.7-.324-.943-.216-.242-.5-.44-.853-.59a8.947 8.947 0 0 0-1.142-.399l-1.431-.409c-.91-.261-1.63-.634-2.16-1.119-.53-.485-.795-1.12-.795-1.904 0-.651.176-1.22.528-1.704a3.511 3.511 0 0 1 1.432-1.136c.602-.273 1.275-.41 2.017-.41.75 0 1.417.135 2 .404.584.265 1.046.629 1.387 1.09.344.463.526.988.545 1.575h-1.364ZM73.273 81v-8.727h1.341V81h-1.34Zm.682-10.182a.953.953 0 0 1-.676-.267.858.858 0 0 1-.279-.642c0-.25.093-.464.279-.642a.954.954 0 0 1 .676-.267c.261 0 .485.089.67.267a.85.85 0 0 1 .284.642.85.85 0 0 1-.284.642.934.934 0 0 1-.67.267ZM77.071 81v-8.727h1.296v1.363h.113c.182-.465.475-.827.88-1.085.406-.261.893-.392 1.461-.392.576 0 1.055.13 1.438.392.386.258.687.62.903 1.085h.09c.224-.45.56-.808 1.007-1.073.447-.27.983-.404 1.608-.404.78 0 1.418.244 1.914.733.496.485.745 1.24.745 2.267V81h-1.341v-5.84c0-.645-.177-1.105-.529-1.382a1.956 1.956 0 0 0-1.244-.414c-.614 0-1.09.185-1.426.556-.337.368-.506.834-.506 1.398V81h-1.364v-5.977c0-.496-.16-.896-.483-1.2-.321-.306-.736-.46-1.244-.46-.348 0-.674.093-.977.279-.3.186-.542.443-.727.773a2.28 2.28 0 0 0-.273 1.13V81H77.07Zm13.906 3.273v-12h1.296v1.386h.159c.098-.151.235-.345.409-.58.178-.238.432-.45.761-.636.334-.19.784-.284 1.352-.284.735 0 1.383.184 1.944.551.56.368.998.889 1.312 1.563.315.674.472 1.47.472 2.386 0 .924-.157 1.725-.472 2.403-.314.675-.75 1.198-1.307 1.569-.556.367-1.199.55-1.926.55-.56 0-1.01-.092-1.346-.278-.337-.189-.597-.403-.779-.642a8.63 8.63 0 0 1-.42-.602h-.114v4.614h-1.34Zm1.319-7.637c0 .66.096 1.24.29 1.745.192.5.475.892.846 1.176.371.28.826.42 1.364.42.56 0 1.028-.148 1.403-.443.379-.3.663-.7.852-1.205.193-.507.29-1.071.29-1.693 0-.613-.095-1.166-.284-1.659-.186-.496-.468-.888-.847-1.176-.375-.291-.846-.437-1.414-.437-.546 0-1.004.138-1.376.414-.37.273-.651.656-.84 1.148-.19.489-.284 1.059-.284 1.71Zm9.772-7.272V81h-1.341V69.364h1.341Zm6.115 11.818c-.841 0-1.566-.186-2.176-.557a3.733 3.733 0 0 1-1.403-1.568c-.326-.674-.489-1.459-.489-2.353 0-.893.163-1.681.489-2.363.329-.686.788-1.22 1.375-1.602.591-.387 1.28-.58 2.068-.58.454 0 .903.076 1.346.227.444.152.847.398 1.211.739.363.337.653.784.869 1.34.216.558.324 1.243.324 2.058v.568h-6.727v-1.16h5.363c0-.492-.098-.931-.295-1.317a2.225 2.225 0 0 0-.83-.915c-.356-.224-.776-.335-1.261-.335-.534 0-.996.132-1.386.397a2.618 2.618 0 0 0-.893 1.023c-.208.42-.312.871-.312 1.352v.773c0 .66.114 1.218.341 1.676.231.455.551.801.96 1.04.409.235.885.352 1.426.352a2.9 2.9 0 0 0 .955-.148c.288-.102.536-.253.744-.454.208-.204.369-.458.483-.761l1.296.363a2.88 2.88 0 0 1-.688 1.16c-.322.329-.72.587-1.193.772a4.43 4.43 0 0 1-1.597.273Z"/><rect width="109" height="28" x="24" y="108" fill="#ECF8EC" rx="8"/><path fill="#2E842E" d="M43.333 121.333a.667.667 0 1 0 0 1.334.667.667 0 0 0 0-1.334Z"/><path fill="#2E842E" fill-rule="evenodd" d="M36.107 116.667c-.351 0-.654 0-.904.02a2.037 2.037 0 0 0-.778.198 1.992 1.992 0 0 0-.874.874 2.033 2.033 0 0 0-.198.778c-.02.249-.02.553-.02.904v5.118c0 .352 0 .655.02.904.022.264.07.526.198.778.192.377.498.683.874.874.252.129.514.177.778.198.25.02.553.02.904.02h6.452c.351 0 .654 0 .904-.02a2.02 2.02 0 0 0 .778-.198c.376-.191.682-.497.874-.874.128-.252.176-.514.198-.778.02-.249.02-.552.02-.904v-.006a2 2 0 0 0 1.333-1.886v-1.334c0-.87-.556-1.611-1.333-1.886v-.006c0-.351 0-.655-.02-.904a2.033 2.033 0 0 0-.198-.778 1.992 1.992 0 0 0-.874-.874 2.037 2.037 0 0 0-.778-.198c-.25-.02-.553-.02-.904-.02h-6.452Zm5.893 8h2c0 .31-.003.522-.016.688-.015.181-.04.248-.057.281a.658.658 0 0 1-.291.291c-.033.017-.1.042-.282.057-.188.016-.437.016-.821.016h-6.4c-.384 0-.633 0-.821-.016-.181-.015-.249-.04-.282-.057a.658.658 0 0 1-.291-.291c-.017-.033-.042-.1-.057-.281a11.358 11.358 0 0 1-.016-.822v-5.066c0-.385 0-.633.016-.822.015-.181.04-.248.057-.281a.669.669 0 0 1 .291-.291c.033-.017.1-.042.282-.057.189-.015.437-.016.821-.016h6.4c.384 0 .633.001.822.016.18.015.248.04.28.057a.669.669 0 0 1 .292.291c.017.033.042.1.057.281.013.166.015.378.016.688h-2a2.667 2.667 0 0 0 0 5.334Zm0-4a1.333 1.333 0 1 0 0 2.666h2.666a.666.666 0 0 0 .667-.666v-1.334a.666.666 0 0 0-.667-.666H42Z" clip-rule="evenodd"/><path fill="#2E842E" d="M65.963 121.909c0 1.087-.199 2.022-.596 2.804-.398.779-.944 1.379-1.636 1.8-.69.417-1.473.626-2.352.626-.881 0-1.668-.209-2.361-.626-.69-.421-1.233-1.023-1.63-1.805-.399-.782-.597-1.715-.597-2.799 0-1.087.198-2.02.596-2.799.398-.782.941-1.382 1.63-1.8.694-.421 1.48-.631 2.362-.631.879 0 1.662.21 2.352.631.693.418 1.238 1.018 1.636 1.8.397.779.596 1.712.596 2.799Zm-1.521 0c0-.829-.134-1.526-.403-2.093-.265-.57-.63-1.001-1.094-1.293a2.841 2.841 0 0 0-1.566-.442 2.85 2.85 0 0 0-1.57.442c-.462.292-.826.723-1.094 1.293-.266.567-.398 1.264-.398 2.093s.132 1.528.398 2.098c.268.567.632.998 1.093 1.293.46.291.985.437 1.571.437a2.87 2.87 0 0 0 1.566-.437c.464-.295.829-.726 1.094-1.293.269-.57.403-1.269.403-2.098ZM67.759 127v-7.636h6.23V127h-1.457v-6.354h-3.326V127h-1.447Zm7.615 0-.005-1.288h.274c.212 0 .39-.044.532-.134.145-.093.265-.248.358-.467.093-.219.164-.521.213-.905.05-.388.087-.875.11-1.462l.134-3.38h5.33V127h-1.457v-6.354h-2.496l-.12 2.595c-.029.63-.094 1.18-.193 1.651-.096.471-.237.863-.423 1.178a1.83 1.83 0 0 1-.716.701c-.291.153-.646.229-1.063.229h-.478Zm11.15.169c-.484 0-.921-.089-1.312-.268a2.215 2.215 0 0 1-.93-.791c-.225-.345-.338-.767-.338-1.268 0-.431.083-.785.249-1.064.165-.278.39-.498.67-.661.282-.162.597-.285.945-.368a9.343 9.343 0 0 1 1.064-.189l1.114-.129c.285-.036.492-.094.621-.174.13-.079.194-.209.194-.388v-.034c0-.435-.122-.771-.368-1.01-.242-.238-.603-.358-1.083-.358-.5 0-.895.111-1.184.333-.285.219-.482.463-.591.731l-1.397-.318c.166-.464.407-.838.726-1.124a2.944 2.944 0 0 1 1.108-.626 4.315 4.315 0 0 1 1.318-.199c.305 0 .628.037.97.11.344.069.665.198.964.387.301.189.548.459.74.811.193.348.289.8.289 1.357V127H88.84v-1.044h-.06c-.096.192-.24.381-.432.567-.192.185-.44.339-.74.462-.302.123-.664.184-1.085.184Zm.323-1.193c.412 0 .763-.081 1.055-.244.294-.162.518-.374.67-.636.156-.265.234-.549.234-.85v-.985c-.053.053-.156.103-.308.15-.15.043-.32.081-.512.114-.192.03-.38.058-.562.084l-.457.06a3.669 3.669 0 0 0-.79.184 1.35 1.35 0 0 0-.567.373c-.14.159-.21.371-.21.636 0 .368.137.647.408.835.272.186.619.279 1.04.279Zm11.556-6.612V127H96.95v-7.636h1.452Zm-.632 3.544v1.283c-.228.093-.47.176-.725.249a6.415 6.415 0 0 1-1.685.223c-.945 0-1.696-.23-2.253-.691-.557-.464-.835-1.173-.835-2.128v-2.495h1.447v2.495c0 .362.066.655.198.88.133.226.322.392.567.498.245.106.537.159.875.159.448 0 .86-.042 1.238-.125a9.626 9.626 0 0 0 1.173-.348Zm5.9 4.246c-.752 0-1.4-.161-1.944-.482a3.275 3.275 0 0 1-1.252-1.367c-.292-.59-.438-1.281-.438-2.073 0-.783.146-1.472.438-2.069a3.403 3.403 0 0 1 1.233-1.397c.53-.334 1.15-.502 1.859-.502.431 0 .848.071 1.253.214.404.143.767.366 1.089.671.321.305.575.701.76 1.188.186.484.279 1.073.279 1.765v.527h-6.071v-1.113h4.614c0-.391-.08-.738-.239-1.039a1.801 1.801 0 0 0-.671-.721 1.873 1.873 0 0 0-1.004-.264c-.418 0-.782.103-1.094.308a2.079 2.079 0 0 0-.716.796 2.306 2.306 0 0 0-.248 1.059v.87c0 .51.089.944.268 1.302.182.358.436.632.761.821a2.26 2.26 0 0 0 1.138.278c.282 0 .539-.04.771-.119a1.589 1.589 0 0 0 .989-.97l1.407.254a2.562 2.562 0 0 1-.606 1.089 2.961 2.961 0 0 1-1.089.721c-.434.169-.93.253-1.487.253Zm10.101-4.614v1.288h-4.136v-1.288h4.136Zm-3.718-3.176V127h-1.457v-7.636h1.457Zm4.757 0V127h-1.451v-7.636h1.451Zm5.206 7.79c-.716 0-1.341-.164-1.875-.492a3.313 3.313 0 0 1-1.242-1.377c-.295-.59-.443-1.28-.443-2.068 0-.793.148-1.485.443-2.079a3.315 3.315 0 0 1 1.242-1.382c.534-.328 1.159-.492 1.875-.492s1.34.164 1.874.492c.534.329.948.789 1.243 1.382.295.594.442 1.286.442 2.079 0 .788-.147 1.478-.442 2.068a3.315 3.315 0 0 1-1.243 1.377c-.534.328-1.158.492-1.874.492Zm.005-1.248c.464 0 .848-.122 1.153-.368.305-.245.53-.571.676-.979a3.9 3.9 0 0 0 .224-1.347c0-.488-.075-.935-.224-1.343a2.188 2.188 0 0 0-.676-.989c-.305-.249-.689-.373-1.153-.373-.468 0-.855.124-1.164.373a2.22 2.22 0 0 0-.681.989 3.958 3.958 0 0 0-.219 1.343c0 .49.073.939.219 1.347.149.408.376.734.681.979.309.246.696.368 1.164.368Z"/><rect width="138" height="28" x="149" y="108" fill="#FAEFEA" rx="8"/><path fill="#B85727" d="M164.384 122.255a.646.646 0 0 1-.051-.253V118a.667.667 0 1 1 1.333 0v3.724l1.691 1.69a.668.668 0 0 1-.943.943l-1.885-1.885-.005-.005a.647.647 0 0 1-.14-.212Z"/><path fill="#B85727" fill-rule="evenodd" d="M171.666 122a6.666 6.666 0 1 1-13.333 0 6.667 6.667 0 0 1 13.333 0ZM165 127.333a5.333 5.333 0 1 0 0-10.667 5.333 5.333 0 0 0 0 10.667Z" clip-rule="evenodd"/><path fill="#B85727" d="M182.119 127v-10.182h1.536v4.425h5.076v-4.425h1.541V127h-1.541v-4.44h-5.076V127h-1.536Zm13.562.154c-.752 0-1.4-.161-1.944-.482a3.278 3.278 0 0 1-1.253-1.367c-.291-.59-.437-1.281-.437-2.073 0-.783.146-1.472.437-2.069a3.403 3.403 0 0 1 1.233-1.397c.531-.334 1.15-.502 1.86-.502.431 0 .848.071 1.253.214.404.143.767.366 1.088.671.322.305.575.701.761 1.188.186.484.278 1.073.278 1.765v.527h-6.07v-1.113h4.614c0-.391-.08-.738-.239-1.039a1.801 1.801 0 0 0-.671-.721 1.873 1.873 0 0 0-1.004-.264c-.418 0-.783.103-1.094.308a2.079 2.079 0 0 0-.716.796 2.294 2.294 0 0 0-.249 1.059v.87c0 .51.09.944.269 1.302.182.358.436.632.761.821.324.185.704.278 1.138.278.282 0 .539-.04.771-.119a1.6 1.6 0 0 0 .989-.97l1.407.254a2.554 2.554 0 0 1-.607 1.089 2.949 2.949 0 0 1-1.088.721c-.435.169-.93.253-1.487.253Zm8.631-.154v-7.636h6.229V127h-1.456v-6.354h-3.326V127h-1.447Zm8.217 2.864v-10.5h1.451v1.238h.125c.086-.16.21-.343.372-.552.163-.209.388-.391.677-.547.288-.159.669-.239 1.143-.239a2.98 2.98 0 0 1 1.651.468c.484.311.863.76 1.138 1.347.279.586.418 1.292.418 2.118 0 .825-.138 1.533-.413 2.123-.275.586-.653 1.039-1.133 1.357a2.937 2.937 0 0 1-1.646.472c-.464 0-.844-.078-1.139-.234a2.164 2.164 0 0 1-.686-.546 4.185 4.185 0 0 1-.382-.557h-.09v4.052h-1.486Zm1.456-6.682c0 .537.078 1.007.234 1.412.156.404.381.721.676.949.295.226.656.338 1.084.338.444 0 .815-.117 1.114-.353a2.19 2.19 0 0 0 .676-.969c.155-.408.233-.867.233-1.377 0-.504-.076-.956-.228-1.357a2.084 2.084 0 0 0-.677-.95c-.298-.232-.671-.348-1.118-.348-.431 0-.796.111-1.094.333-.295.222-.519.532-.671.93-.153.397-.229.862-.229 1.392Zm10.401 3.972c-.716 0-1.341-.164-1.874-.492a3.315 3.315 0 0 1-1.243-1.377c-.295-.59-.443-1.28-.443-2.068 0-.793.148-1.485.443-2.079a3.317 3.317 0 0 1 1.243-1.382c.533-.328 1.158-.492 1.874-.492.716 0 1.341.164 1.874.492.534.329.948.789 1.243 1.382.295.594.442 1.286.442 2.079 0 .788-.147 1.478-.442 2.068a3.315 3.315 0 0 1-1.243 1.377c-.533.328-1.158.492-1.874.492Zm.005-1.248c.464 0 .848-.122 1.153-.368.305-.245.531-.571.676-.979a3.9 3.9 0 0 0 .224-1.347c0-.488-.075-.935-.224-1.343a2.18 2.18 0 0 0-.676-.989c-.305-.249-.689-.373-1.153-.373-.468 0-.855.124-1.164.373a2.229 2.229 0 0 0-.681.989 3.982 3.982 0 0 0-.218 1.343c0 .49.073.939.218 1.347.149.408.377.734.681.979.309.246.696.368 1.164.368Zm5.214 1.094v-7.636h3.167c.861 0 1.544.184 2.048.551.504.365.756.861.756 1.487 0 .447-.143.802-.428 1.064-.285.262-.663.437-1.133.527.341.04.654.142.939.308.285.163.514.381.686.656.176.275.264.604.264.985 0 .404-.105.762-.313 1.074-.209.308-.513.55-.91.725-.395.173-.87.259-1.427.259h-3.649Zm1.397-1.243h2.252c.368 0 .656-.088.865-.263.209-.176.313-.415.313-.716 0-.355-.104-.633-.313-.836-.209-.205-.497-.308-.865-.308h-2.252v2.123Zm0-3.212h1.785c.278 0 .517-.039.715-.119.203-.079.357-.192.463-.338a.87.87 0 0 0 .164-.527.792.792 0 0 0-.363-.691c-.242-.166-.573-.249-.994-.249h-1.77v1.924Zm9.824 4.609c-.753 0-1.401-.161-1.944-.482a3.278 3.278 0 0 1-1.253-1.367c-.292-.59-.438-1.281-.438-2.073 0-.783.146-1.472.438-2.069a3.403 3.403 0 0 1 1.233-1.397c.53-.334 1.15-.502 1.859-.502.431 0 .849.071 1.253.214.404.143.767.366 1.089.671.321.305.575.701.761 1.188.185.484.278 1.073.278 1.765v.527h-6.07v-1.113h4.613c0-.391-.079-.738-.238-1.039a1.797 1.797 0 0 0-.672-.721 1.87 1.87 0 0 0-1.004-.264c-.417 0-.782.103-1.094.308a2.076 2.076 0 0 0-.715.796 2.294 2.294 0 0 0-.249 1.059v.87c0 .51.089.944.268 1.302.183.358.436.632.761.821.325.185.704.278 1.139.278.281 0 .538-.04.77-.119a1.587 1.587 0 0 0 .989-.97l1.407.254a2.541 2.541 0 0 1-.606 1.089 2.945 2.945 0 0 1-1.089.721c-.434.169-.93.253-1.486.253Zm4.18 2.048v-3.49h.621c.159-.145.293-.319.403-.522.112-.202.207-.442.283-.721.08-.278.146-.603.199-.974.053-.374.099-.802.139-1.283l.239-2.848h5.19v6.348h1.173v3.49h-1.451V127h-5.325v2.202h-1.471Zm2.212-3.49h3.41v-5.076h-2.406l-.159 1.576a21.489 21.489 0 0 1-.288 2.088c-.116.587-.302 1.058-.557 1.412Zm10.78 1.442c-.753 0-1.401-.161-1.944-.482a3.271 3.271 0 0 1-1.253-1.367c-.292-.59-.438-1.281-.438-2.073 0-.783.146-1.472.438-2.069a3.403 3.403 0 0 1 1.233-1.397c.53-.334 1.15-.502 1.859-.502.431 0 .849.071 1.253.214.404.143.767.366 1.089.671.321.305.575.701.76 1.188.186.484.279 1.073.279 1.765v.527h-6.071v-1.113h4.614c0-.391-.079-.738-.239-1.039a1.794 1.794 0 0 0-.671-.721 1.87 1.87 0 0 0-1.004-.264c-.418 0-.782.103-1.094.308a2.079 2.079 0 0 0-.716.796 2.306 2.306 0 0 0-.248 1.059v.87c0 .51.089.944.268 1.302.183.358.436.632.761.821a2.26 2.26 0 0 0 1.138.278c.282 0 .539-.04.771-.119a1.587 1.587 0 0 0 .989-.97l1.407.254a2.552 2.552 0 0 1-.606 1.089 2.953 2.953 0 0 1-1.089.721c-.434.169-.93.253-1.486.253Zm10.101-4.614v1.288h-4.137v-1.288h4.137Zm-3.719-3.176V127h-1.457v-7.636h1.457Zm4.758 0V127h-1.452v-7.636h1.452Zm5.205 7.79c-.716 0-1.341-.164-1.874-.492a3.315 3.315 0 0 1-1.243-1.377c-.295-.59-.443-1.28-.443-2.068 0-.793.148-1.485.443-2.079a3.317 3.317 0 0 1 1.243-1.382c.533-.328 1.158-.492 1.874-.492.716 0 1.341.164 1.874.492.534.329.948.789 1.243 1.382.295.594.443 1.286.443 2.079 0 .788-.148 1.478-.443 2.068a3.315 3.315 0 0 1-1.243 1.377c-.533.328-1.158.492-1.874.492Zm.005-1.248c.464 0 .848-.122 1.153-.368.305-.245.531-.571.676-.979.15-.408.224-.857.224-1.347 0-.488-.074-.935-.224-1.343a2.18 2.18 0 0 0-.676-.989c-.305-.249-.689-.373-1.153-.373-.467 0-.855.124-1.164.373a2.237 2.237 0 0 0-.681.989 3.982 3.982 0 0 0-.218 1.343c0 .49.073.939.218 1.347a2.2 2.2 0 0 0 .681.979c.309.246.697.368 1.164.368Z"/><path fill="#E7E7E9" d="M312 340v-.5H8v1h304v-.5Z"/><path fill="#0F0F11" d="m31.219 167-3.5-4.673h-1.253V167h-1.233v-10.182h1.233v4.415h.537l4.076-4.415h1.472l-4.116 4.475L32.69 167H31.22Zm5.153.179c-.484 0-.923-.091-1.318-.273a2.265 2.265 0 0 1-.94-.801c-.231-.351-.347-.775-.347-1.273 0-.437.086-.792.258-1.064.173-.275.403-.49.691-.646.289-.156.607-.272.955-.348.351-.079.704-.142 1.059-.189.464-.059.84-.104 1.128-.134.292-.033.504-.088.637-.164.136-.076.204-.209.204-.398v-.04c0-.49-.135-.871-.403-1.143-.265-.272-.668-.408-1.208-.408-.56 0-1 .123-1.318.368-.318.245-.542.507-.67.786l-1.115-.398c.2-.464.465-.825.796-1.084.335-.262.7-.444 1.094-.547a4.544 4.544 0 0 1 1.173-.159c.245 0 .527.03.845.09.322.056.632.174.93.353.301.179.552.449.75.81.2.361.299.845.299 1.452V167h-1.173v-1.034h-.06c-.08.166-.212.343-.398.532-.185.189-.432.35-.74.482-.309.133-.685.199-1.13.199Zm.179-1.054c.464 0 .855-.091 1.173-.273.322-.183.564-.418.726-.706.166-.289.248-.592.248-.91v-1.074c-.05.06-.159.114-.328.164a5.527 5.527 0 0 1-.576.124c-.216.033-.426.063-.632.09-.202.023-.366.043-.492.059-.305.04-.59.105-.855.194a1.47 1.47 0 0 0-.636.393c-.16.172-.239.408-.239.706 0 .408.15.716.452.925.305.205.691.308 1.159.308Zm11.13-9.625.597.716c-.233.225-.501.383-.806.472-.305.09-.65.144-1.034.164-.384.02-.812.04-1.283.06-.53.02-.97.149-1.317.388-.348.238-.617.583-.806 1.034-.188.451-.31 1.004-.362 1.66h.099a2.429 2.429 0 0 1 1.074-1.054 3.29 3.29 0 0 1 1.471-.338c.597 0 1.134.139 1.611.418.478.278.855.691 1.134 1.238.278.547.417 1.221.417 2.023 0 .799-.142 1.488-.427 2.068a3.154 3.154 0 0 1-1.188 1.343c-.508.311-1.102.467-1.785.467-.683 0-1.281-.161-1.795-.482-.514-.325-.913-.806-1.198-1.442-.285-.64-.428-1.43-.428-2.371v-.816c0-1.7.289-2.989.865-3.868.58-.878 1.452-1.332 2.615-1.362a22.05 22.05 0 0 1 1.1-.01c.32.007.6-.008.84-.045.238-.036.44-.124.606-.263Zm-2.605 9.605c.46 0 .857-.116 1.188-.348.335-.232.592-.558.77-.979.18-.425.27-.923.27-1.497 0-.557-.092-1.031-.274-1.422a1.991 1.991 0 0 0-.77-.895c-.336-.205-.737-.308-1.204-.308-.341 0-.648.058-.92.174a1.87 1.87 0 0 0-.696.512 2.413 2.413 0 0 0-.447.826 3.894 3.894 0 0 0-.164 1.113c0 .855.2 1.54.601 2.054.401.513.95.77 1.646.77Zm6.368-.835 3.68-5.906h1.352V167h-1.174v-5.906L51.643 167h-1.372v-7.636h1.173v5.906Zm12.291-2.625v1.094H59.52v-1.094h4.215Zm-3.937-3.281V167h-1.173v-7.636h1.173Zm4.832 0V167h-1.173v-7.636h1.173Zm5.345 7.795c-.736 0-1.37-.162-1.904-.487a3.273 3.273 0 0 1-1.228-1.372c-.285-.59-.428-1.276-.428-2.059 0-.782.143-1.471.428-2.068.288-.6.69-1.067 1.203-1.402.517-.338 1.12-.507 1.81-.507.397 0 .79.066 1.178.199.387.133.74.348 1.059.646.318.295.571.686.76 1.174.19.487.284 1.087.284 1.799v.498H67.25v-1.015h4.694a2.5 2.5 0 0 0-.259-1.153 1.944 1.944 0 0 0-.726-.8c-.311-.196-.68-.294-1.103-.294-.468 0-.872.116-1.214.348a2.29 2.29 0 0 0-.78.895 2.628 2.628 0 0 0-.274 1.183v.676c0 .577.1 1.066.299 1.467.202.398.482.701.84.91.358.205.774.308 1.248.308.308 0 .586-.043.835-.129a1.79 1.79 0 0 0 .651-.398c.183-.179.323-.401.423-.666l1.133.318c-.119.385-.32.723-.601 1.014-.282.289-.63.514-1.044.676-.415.16-.88.239-1.397.239Zm4.236-6.702v-1.093h6.204v1.093H77.91V167h-1.173v-6.543h-2.525Z"/><path fill="#fff" d="M16 188a8 8 0 0 1 8-8h272a8 8 0 0 1 8 8v16a8 8 0 0 1-8 8H24a8 8 0 0 1-8-8v-16Z"/><path fill="#6A6C76" fill-rule="evenodd" d="M26.593 199.003c.795-1.717 2.507-3.67 5.407-3.67s4.613 1.953 5.407 3.67l.012.026c.072.156.16.346.208.554.057.245.055.483.01.752-.046.264-.18.531-.307.73a2.076 2.076 0 0 1-.535.584c-.513.353-.999.352-1.521.351h-6.548c-.522.001-1.008.002-1.521-.351a2.078 2.078 0 0 1-.535-.584c-.127-.199-.261-.466-.306-.73a1.854 1.854 0 0 1 .009-.752c.048-.208.136-.398.208-.554l.012-.026ZM32 196.667c-2.19 0-3.527 1.447-4.196 2.896-.09.194-.118.261-.132.321a.546.546 0 0 0 .007.228c0-.001 0-.001 0 0 0 .004.007.028.027.073a1.316 1.316 0 0 0 .198.309c.032.037.051.053.055.056.144.098.222.117.841.117h6.4c.62 0 .697-.018.841-.117.004-.003.023-.019.056-.056a1.2 1.2 0 0 0 .224-.382c0-.001 0-.001 0 0a.546.546 0 0 0 .007-.228 1.856 1.856 0 0 0-.131-.321c-.67-1.449-2.008-2.896-4.197-2.896Z" clip-rule="evenodd"/><path fill="#6A6C76" fill-rule="evenodd" d="M32 195.333a2 2 0 1 0 0-4 2 2 0 0 0 0 4Zm0 1.334a3.334 3.334 0 1 0-.001-6.668 3.334 3.334 0 0 0 .001 6.668Z" clip-rule="evenodd"/><path fill="#3D3E43" d="M49.65 200h-1.292l3.739-10.182h1.272L57.108 200h-1.293l-3.042-8.571h-.08L49.651 200Zm.478-3.977h5.21v1.093h-5.21v-1.093Zm13.518-.378v1.094H59.43v-1.094h4.216Zm-3.938-3.281V200h-1.173v-7.636h1.173Zm4.832 0V200h-1.173v-7.636h1.173Zm7.254 3.281v1.094h-4.216v-1.094h4.216Zm-3.938-3.281V200h-1.173v-7.636h1.173Zm4.833 0V200h-1.173v-7.636h1.173Zm4.39 7.815c-.484 0-.923-.091-1.318-.273a2.265 2.265 0 0 1-.94-.801c-.231-.351-.347-.775-.347-1.273 0-.437.086-.792.258-1.064.173-.275.403-.49.691-.646.289-.156.607-.272.955-.348a12.03 12.03 0 0 1 1.059-.189c.464-.059.84-.104 1.128-.134.292-.033.504-.088.637-.164.136-.076.204-.209.204-.398v-.04c0-.49-.135-.871-.403-1.143-.265-.272-.668-.408-1.208-.408-.56 0-1 .123-1.318.368-.318.245-.542.507-.67.786l-1.115-.398c.2-.464.465-.825.796-1.084.335-.262.7-.444 1.094-.547a4.543 4.543 0 0 1 1.173-.159c.245 0 .527.03.845.09.322.056.632.174.93.353.301.179.552.449.75.81.2.361.299.845.299 1.452V200h-1.173v-1.034h-.06c-.08.166-.212.343-.398.532-.185.189-.432.35-.74.482-.309.133-.685.199-1.13.199Zm.179-1.054c.464 0 .855-.091 1.173-.273.322-.183.564-.418.726-.706.166-.289.249-.592.249-.91v-1.074c-.05.06-.16.114-.329.164a5.521 5.521 0 0 1-.576.124c-.216.033-.426.063-.632.09-.202.023-.366.043-.492.059-.305.04-.59.105-.855.194a1.47 1.47 0 0 0-.636.393c-.16.172-.239.408-.239.706 0 .408.15.716.452.925.305.205.691.308 1.159.308ZM95.01 193h-1.233a2.567 2.567 0 0 0-1.039-1.611 2.78 2.78 0 0 0-.85-.417 3.39 3.39 0 0 0-.975-.14c-.616 0-1.174.156-1.675.468-.497.311-.893.77-1.188 1.377-.292.606-.438 1.35-.438 2.232 0 .882.146 1.626.438 2.232.295.607.69 1.066 1.188 1.377.5.312 1.06.468 1.675.468.339 0 .663-.047.975-.139.311-.093.595-.231.85-.413a2.611 2.611 0 0 0 1.04-1.616h1.232a4.102 4.102 0 0 1-.507 1.397c-.245.411-.55.761-.915 1.049a4.003 4.003 0 0 1-1.228.651c-.45.15-.933.224-1.447.224-.868 0-1.64-.212-2.316-.636-.676-.424-1.208-1.028-1.596-1.81-.388-.782-.582-1.71-.582-2.784 0-1.074.194-2.002.582-2.784.388-.782.92-1.385 1.596-1.81.676-.424 1.448-.636 2.317-.636.513 0 .995.075 1.446.224.454.149.864.368 1.228.656.365.285.67.633.915 1.044.245.408.414.873.507 1.397Zm6.01 5.409 2.664-6.045h1.114L101.497 200h-.955l-3.241-7.636h1.093l2.626 6.045Zm-3.003-6.045V200h-1.174v-7.636h1.174Zm6.005 7.636v-7.636h1.174V200h-1.174Zm4.495-1.73 3.679-5.906h1.352V200h-1.173v-5.906L108.716 200h-1.373v-7.636h1.174v5.906Zm7.18 4.594v-10.5h1.133v1.213h.14c.086-.133.205-.302.358-.507.155-.209.377-.395.666-.557.291-.166.686-.249 1.183-.249.643 0 1.21.161 1.7.482.491.322.874.778 1.149 1.368.275.59.412 1.286.412 2.088 0 .808-.137 1.509-.412 2.103-.275.59-.657 1.047-1.144 1.372-.487.321-1.049.482-1.685.482-.491 0-.883-.081-1.178-.244a2.182 2.182 0 0 1-.681-.561 7.195 7.195 0 0 1-.368-.527h-.1v4.037h-1.173Zm1.153-6.682c0 .577.085 1.085.254 1.526.169.438.416.781.741 1.029.324.245.722.368 1.193.368.49 0 .9-.129 1.228-.388.331-.262.58-.613.746-1.054.169-.444.253-.938.253-1.481 0-.537-.083-1.021-.248-1.452a2.252 2.252 0 0 0-.741-1.029c-.328-.255-.741-.383-1.238-.383-.477 0-.878.121-1.203.363-.325.239-.57.573-.736 1.004-.166.428-.249.927-.249 1.497Zm12.489-.537v1.094h-4.216v-1.094h4.216Zm-3.938-3.281V200h-1.173v-7.636h1.173Zm4.833 0V200h-1.173v-7.636h1.173Zm5.245 7.795c-.69 0-1.294-.164-1.815-.492a3.345 3.345 0 0 1-1.213-1.377c-.288-.59-.432-1.28-.432-2.068 0-.796.144-1.49.432-2.084a3.347 3.347 0 0 1 1.213-1.382c.521-.328 1.125-.492 1.815-.492.689 0 1.292.164 1.81.492.52.329.924.789 1.213 1.382.291.594.437 1.288.437 2.084 0 .788-.146 1.478-.437 2.068a3.303 3.303 0 0 1-1.213 1.377c-.518.328-1.121.492-1.81.492Zm0-1.054c.524 0 .954-.134 1.292-.403a2.36 2.36 0 0 0 .751-1.059c.163-.437.244-.911.244-1.421 0-.511-.081-.986-.244-1.427a2.395 2.395 0 0 0-.751-1.069c-.338-.272-.768-.408-1.292-.408s-.955.136-1.293.408a2.401 2.401 0 0 0-.75 1.069 4.081 4.081 0 0 0-.244 1.427c0 .51.081.984.244 1.421.162.438.412.791.75 1.059.338.269.769.403 1.293.403Zm5.251.895v-7.636h3.122c.822 0 1.475.185 1.959.556.484.372.726.862.726 1.472 0 .464-.138.824-.413 1.079-.275.252-.628.422-1.059.512.282.04.556.139.821.298.268.159.49.378.666.657.176.275.263.613.263 1.014 0 .391-.099.74-.298 1.049a2.048 2.048 0 0 1-.855.731c-.371.179-.815.268-1.332.268h-3.6Zm1.114-1.074h2.486c.404 0 .72-.096.949-.288.229-.192.343-.454.343-.786 0-.394-.114-.704-.343-.929-.229-.229-.545-.343-.949-.343h-2.486v2.346Zm0-3.361h2.008c.315 0 .585-.043.811-.129.225-.089.397-.215.517-.378a.96.96 0 0 0 .184-.586.866.866 0 0 0-.403-.756c-.269-.186-.638-.278-1.109-.278h-2.008v2.127Zm8.995 4.614c-.484 0-.923-.091-1.318-.273a2.275 2.275 0 0 1-.94-.801c-.232-.351-.348-.775-.348-1.273 0-.437.087-.792.259-1.064.172-.275.403-.49.691-.646.288-.156.607-.272.955-.348.351-.079.704-.142 1.059-.189.464-.059.84-.104 1.128-.134.292-.033.504-.088.636-.164.136-.076.204-.209.204-.398v-.04c0-.49-.134-.871-.402-1.143-.266-.272-.668-.408-1.208-.408-.561 0-1 .123-1.318.368-.318.245-.542.507-.671.786l-1.114-.398c.199-.464.464-.825.796-1.084a2.977 2.977 0 0 1 1.093-.547 4.547 4.547 0 0 1 1.174-.159c.245 0 .527.03.845.09.321.056.631.174.93.353.301.179.551.449.75.81.199.361.299.845.299 1.452V200h-1.174v-1.034h-.059c-.08.166-.212.343-.398.532-.186.189-.433.35-.741.482-.308.133-.684.199-1.128.199Zm.179-1.054c.464 0 .855-.091 1.173-.273.321-.183.563-.418.726-.706.165-.289.248-.592.248-.91v-1.074c-.049.06-.159.114-.328.164a5.534 5.534 0 0 1-.577.124 29 29 0 0 1-.631.09c-.202.023-.366.043-.492.059-.305.04-.59.105-.855.194a1.475 1.475 0 0 0-.637.393c-.159.172-.238.408-.238.706 0 .408.151.716.452.925.305.205.691.308 1.159.308Z"/><path fill="#6A6C76" d="M160.835 195.705c0-1.253.163-2.405.487-3.456a10.818 10.818 0 0 1 1.402-2.908h1.035a6.378 6.378 0 0 0-.672 1.213 11.939 11.939 0 0 0-.542 1.576c-.155.57-.278 1.16-.367 1.77-.087.61-.13 1.211-.13 1.805 0 .788.077 1.589.229 2.401.152.812.358 1.566.616 2.262.259.696.547 1.263.866 1.7h-1.035a10.846 10.846 0 0 1-1.402-2.903c-.324-1.054-.487-2.208-.487-3.46Zm5.828 2.565 3.679-5.906h1.352V200h-1.173v-5.906L166.862 200h-1.372v-7.636h1.173v5.906Zm12.291-2.625v1.094h-4.216v-1.094h4.216Zm-3.937-3.281V200h-1.174v-7.636h1.174Zm4.832 0V200h-1.173v-7.636h1.173Zm1.327 9.824v-3.282h.637c.156-.162.29-.338.403-.527.112-.189.21-.412.293-.671.086-.262.159-.58.219-.954.059-.378.112-.834.159-1.368l.258-3.022h4.853v6.542h1.173v3.282h-1.173V200h-5.648v2.188h-1.174Zm1.969-3.282h3.679v-5.449h-2.585l-.199 1.929a21.49 21.49 0 0 1-.308 2.093c-.123.597-.318 1.073-.587 1.427Zm8.756-.636 3.679-5.906h1.353V200h-1.174v-5.906L192.1 200h-1.372v-7.636h1.173v5.906Zm7.181 1.73v-7.636h3.122c.822 0 1.475.185 1.959.556.484.372.725.862.725 1.472 0 .464-.137.824-.412 1.079-.275.252-.628.422-1.059.512.282.04.555.139.82.298.269.159.491.378.666.657.176.275.264.613.264 1.014 0 .391-.1.74-.298 1.049a2.045 2.045 0 0 1-.856.731c-.371.179-.815.268-1.332.268h-3.599Zm1.113-1.074h2.486c.404 0 .721-.096.95-.288.228-.192.343-.454.343-.786 0-.394-.115-.704-.343-.929-.229-.229-.546-.343-.95-.343h-2.486v2.346Zm0-3.361h2.009c.315 0 .585-.043.81-.129.226-.089.398-.215.517-.378a.954.954 0 0 0 .184-.586.864.864 0 0 0-.403-.756c-.268-.186-.638-.278-1.108-.278h-2.009v2.127Zm7.921 2.705 3.679-5.906h1.353V200h-1.174v-5.906L208.315 200h-1.372v-7.636h1.173v5.906Zm6.365 3.918v-3.282h.637a2.906 2.906 0 0 0 .696-1.198c.086-.262.159-.58.218-.954.06-.378.113-.834.159-1.368l.259-3.022h4.852v6.542h1.173v3.282h-1.173V200h-5.648v2.188h-1.173Zm1.969-3.282h3.679v-5.449h-2.585l-.199 1.929a21.802 21.802 0 0 1-.308 2.093c-.123.597-.319 1.073-.587 1.427Zm8.339 3.958c-.199 0-.377-.017-.532-.05a1.41 1.41 0 0 1-.324-.09l.299-1.034c.285.073.537.1.755.08a.909.909 0 0 0 .582-.293c.172-.173.33-.453.472-.841l.219-.596-2.824-7.676h1.273l2.108 6.085h.079l2.108-6.085h1.273l-3.241 8.75a3.32 3.32 0 0 1-.542.979 2.036 2.036 0 0 1-.751.582c-.282.126-.6.189-.954.189Zm9.052-2.685c-.484 0-.924-.091-1.318-.273a2.269 2.269 0 0 1-.94-.801c-.232-.351-.348-.775-.348-1.273 0-.437.087-.792.259-1.064.172-.275.403-.49.691-.646.288-.156.607-.272.955-.348.351-.079.704-.142 1.059-.189.464-.059.84-.104 1.128-.134.292-.033.504-.088.636-.164.136-.076.204-.209.204-.398v-.04c0-.49-.134-.871-.402-1.143-.266-.272-.668-.408-1.209-.408-.56 0-.999.123-1.317.368-.318.245-.542.507-.671.786l-1.114-.398c.199-.464.464-.825.796-1.084a2.977 2.977 0 0 1 1.093-.547 4.547 4.547 0 0 1 1.174-.159c.245 0 .527.03.845.09.321.056.631.174.93.353.301.179.551.449.75.81.199.361.299.845.299 1.452V200h-1.174v-1.034h-.059c-.08.166-.213.343-.398.532-.186.189-.433.35-.741.482-.308.133-.684.199-1.128.199Zm.179-1.054c.464 0 .855-.091 1.173-.273.321-.183.563-.418.726-.706.165-.289.248-.592.248-.91v-1.074c-.049.06-.159.114-.328.164a5.534 5.534 0 0 1-.577.124 29 29 0 0 1-.631.09c-.202.023-.366.043-.492.059-.305.04-.59.105-.855.194a1.475 1.475 0 0 0-.637.393c-.159.172-.238.408-.238.706 0 .408.151.716.452.925.305.205.691.308 1.159.308Zm4.786.875v-1.094h.278c.229 0 .42-.044.572-.134.153-.093.275-.254.368-.482.096-.232.169-.554.219-.965.053-.414.091-.941.114-1.581l.139-3.38h5.091V200h-1.173v-6.543h-2.804l-.119 2.725a12.458 12.458 0 0 1-.169 1.655c-.083.474-.211.872-.383 1.194a1.755 1.755 0 0 1-.676.725c-.282.163-.635.244-1.059.244h-.398Zm9.948-4.872h2.188c.894 0 1.579.227 2.053.681.474.454.711 1.029.711 1.725 0 .457-.106.873-.318 1.248a2.317 2.317 0 0 1-.935.89c-.411.219-.915.328-1.511.328h-3.202v-7.636h1.173v6.542h2.029c.464 0 .845-.122 1.143-.368.298-.245.447-.56.447-.944 0-.405-.149-.734-.447-.99-.298-.255-.679-.382-1.143-.382h-2.188v-1.094Zm11.849.517v1.094h-4.216v-1.094h4.216Zm-3.938-3.281V200h-1.173v-7.636h1.173Zm4.833 0V200h-1.174v-7.636h1.174Zm5.245 7.795c-.69 0-1.295-.164-1.815-.492a3.345 3.345 0 0 1-1.213-1.377c-.289-.59-.433-1.28-.433-2.068 0-.796.144-1.49.433-2.084a3.347 3.347 0 0 1 1.213-1.382c.52-.328 1.125-.492 1.815-.492.689 0 1.292.164 1.809.492.521.329.925.789 1.213 1.382.292.594.438 1.288.438 2.084 0 .788-.146 1.478-.438 2.068a3.29 3.29 0 0 1-1.213 1.377c-.517.328-1.12.492-1.809.492Zm0-1.054c.523 0 .954-.134 1.292-.403.338-.268.588-.621.751-1.059.162-.437.243-.911.243-1.421 0-.511-.081-.986-.243-1.427a2.411 2.411 0 0 0-.751-1.069c-.338-.272-.769-.408-1.292-.408-.524 0-.955.136-1.293.408a2.411 2.411 0 0 0-.751 1.069 4.104 4.104 0 0 0-.243 1.427c0 .51.081.984.243 1.421.163.438.413.791.751 1.059.338.269.769.403 1.293.403Zm7.592-3.4c0 1.252-.164 2.406-.492 3.46a10.684 10.684 0 0 1-1.397 2.903h-1.034c.239-.328.461-.732.666-1.213.209-.477.391-1.001.547-1.571a14.41 14.41 0 0 0 .363-1.775c.09-.613.134-1.214.134-1.804 0-.789-.076-1.59-.228-2.402a13.815 13.815 0 0 0-.617-2.262c-.258-.696-.547-1.263-.865-1.7h1.034a10.659 10.659 0 0 1 1.397 2.908c.328 1.051.492 2.203.492 3.456Z"/><path fill="#6A6C76" fill-rule="evenodd" d="M284.197 193.94a.69.69 0 0 1 .951 0l2.852 2.747 2.852-2.747a.69.69 0 0 1 .951 0 .63.63 0 0 1 0 .915l-3.328 3.205a.683.683 0 0 1-.475.19.683.683 0 0 1-.475-.19l-3.328-3.205a.63.63 0 0 1 0-.915Z" clip-rule="evenodd"/><path fill="#fff" d="M16 228a8 8 0 0 1 8-8h272a8 8 0 0 1 8 8v16a8 8 0 0 1-8 8H24a8 8 0 0 1-8-8v-16Z"/><path fill="#6A6C76" d="M29.334 232.667c0-.369.298-.667.666-.667h4a.666.666 0 1 1 0 1.333h-4a.666.666 0 0 1-.666-.666ZM30 234.667A.666.666 0 1 0 30 236h4a.667.667 0 0 0 0-1.333h-4Z"/><path fill="#6A6C76" fill-rule="evenodd" d="M29.334 229.333A2.667 2.667 0 0 0 26.667 232v8c0 .736.597 1.333 1.333 1.333h6.667c.736 0 1.333-.597 1.333-1.333v-1.024a2.664 2.664 0 0 0 1.334-2.309V232a2.667 2.667 0 0 0-2.667-2.667h-5.333Zm5.333 10h-5.333a.667.667 0 0 0-.667.667h6v-.667ZM28 238.509a1.991 1.991 0 0 1 1.334-.509h5.333c.736 0 1.333-.597 1.333-1.333V232c0-.736-.597-1.333-1.333-1.333h-5.333c-.737 0-1.334.597-1.334 1.333v6.509Z" clip-rule="evenodd"/><path fill="#B4B5BC" d="M56.85 229.818V240h-1.233v-9.088h-5.131V240h-1.233v-10.182h7.596Zm2.327 13.046v-10.5h1.134v1.213h.14c.085-.133.205-.302.357-.507a2.09 2.09 0 0 1 .666-.557c.292-.166.686-.249 1.184-.249.642 0 1.21.161 1.7.482.49.322.873.778 1.148 1.368.275.59.413 1.286.413 2.088 0 .808-.138 1.509-.413 2.103-.275.59-.656 1.047-1.143 1.372-.487.321-1.05.482-1.686.482-.49 0-.883-.081-1.178-.244a2.183 2.183 0 0 1-.681-.561 7.55 7.55 0 0 1-.368-.527h-.1v4.037h-1.173Zm1.154-6.682c0 .577.084 1.085.253 1.526.17.438.416.781.741 1.029.325.245.723.368 1.193.368.49 0 .9-.129 1.228-.388.332-.262.58-.613.746-1.054.169-.444.254-.938.254-1.481a4.02 4.02 0 0 0-.249-1.452 2.244 2.244 0 0 0-.74-1.029c-.329-.255-.742-.383-1.239-.383-.477 0-.878.121-1.203.363-.325.239-.57.573-.736 1.004-.165.428-.248.927-.248 1.497Zm10.58 3.977c-.737 0-1.371-.162-1.905-.487a3.273 3.273 0 0 1-1.228-1.372c-.285-.59-.427-1.276-.427-2.059 0-.782.142-1.471.427-2.068.289-.6.69-1.067 1.203-1.402.517-.338 1.12-.507 1.81-.507.398 0 .79.066 1.178.199.388.133.741.348 1.06.646.317.295.571.686.76 1.174.189.487.283 1.087.283 1.799v.498h-5.886v-1.015h4.693c0-.431-.086-.815-.258-1.153a1.944 1.944 0 0 0-.726-.8c-.312-.196-.68-.294-1.104-.294-.467 0-.872.116-1.213.348a2.291 2.291 0 0 0-.78.895 2.628 2.628 0 0 0-.274 1.183v.676c0 .577.1 1.066.298 1.467.202.398.483.701.84.91.358.205.774.308 1.248.308.309 0 .587-.043.836-.129a1.79 1.79 0 0 0 .65-.398c.183-.179.324-.401.423-.666l1.134.318c-.12.385-.32.723-.602 1.014-.281.289-.63.514-1.044.676-.414.16-.88.239-1.397.239Zm4.13 2.029v-3.282h.637a2.905 2.905 0 0 0 .696-1.198c.086-.262.16-.58.219-.954.06-.378.113-.834.159-1.368l.258-3.022h4.853v6.542h1.173v3.282h-1.173V240h-5.648v2.188h-1.173Zm1.97-3.282h3.678v-5.449h-2.585l-.199 1.929a21.545 21.545 0 0 1-.308 2.093c-.122.597-.318 1.073-.587 1.427Zm11.758-.497 2.665-6.045h1.114L89.247 240h-.955l-3.241-7.636h1.093l2.625 6.045Zm-3.002-6.045V240h-1.174v-7.636h1.174ZM91.772 240v-7.636h1.174V240h-1.174Zm6.523.159c-.736 0-1.37-.162-1.904-.487a3.273 3.273 0 0 1-1.228-1.372c-.285-.59-.428-1.276-.428-2.059 0-.782.143-1.471.428-2.068.288-.6.69-1.067 1.203-1.402.517-.338 1.12-.507 1.81-.507.397 0 .79.066 1.178.199.388.133.741.348 1.059.646.318.295.572.686.761 1.174.189.487.283 1.087.283 1.799v.498h-5.886v-1.015h4.693c0-.431-.086-.815-.259-1.153a1.941 1.941 0 0 0-.725-.8c-.312-.196-.68-.294-1.104-.294-.468 0-.872.116-1.213.348a2.29 2.29 0 0 0-.78.895 2.628 2.628 0 0 0-.274 1.183v.676c0 .577.1 1.066.298 1.467.202.398.482.701.84.91.358.205.774.308 1.248.308.308 0 .587-.043.835-.129a1.79 1.79 0 0 0 .652-.398c.182-.179.323-.401.422-.666l1.134.318a2.51 2.51 0 0 1-.602 1.014c-.282.289-.63.514-1.044.676-.414.16-.88.239-1.397.239Zm4.236-6.702v-1.093h6.204v1.093h-2.505V240h-1.174v-6.543h-2.525Z"/><path fill="#fff" d="M16 268a8 8 0 0 1 8-8h272a8 8 0 0 1 8 8v16a8 8 0 0 1-8 8H24a8 8 0 0 1-8-8v-16Z"/><path fill="#6A6C76" d="M35.333 275.333a.667.667 0 1 0 0 1.334.667.667 0 0 0 0-1.334Z"/><path fill="#6A6C76" fill-rule="evenodd" d="M28.107 270.667c-.351 0-.654 0-.904.02a2.037 2.037 0 0 0-.778.198 1.992 1.992 0 0 0-.874.874 2.033 2.033 0 0 0-.198.778c-.02.249-.02.553-.02.904v5.118c0 .352 0 .655.02.904.022.264.07.526.198.778.192.377.498.683.874.874.252.129.514.177.778.198.25.02.553.02.904.02h6.452c.351 0 .654 0 .904-.02a2.02 2.02 0 0 0 .778-.198c.376-.191.682-.497.874-.874.128-.252.176-.514.198-.778.02-.249.02-.552.02-.904v-.006a2 2 0 0 0 1.333-1.886v-1.334c0-.87-.556-1.611-1.333-1.886v-.006c0-.351 0-.655-.02-.904a2.033 2.033 0 0 0-.198-.778 1.992 1.992 0 0 0-.874-.874 2.037 2.037 0 0 0-.778-.198c-.25-.02-.553-.02-.904-.02h-6.452Zm5.893 8h2c0 .31-.003.522-.016.688-.015.181-.04.248-.057.281a.658.658 0 0 1-.291.291c-.033.017-.1.042-.282.057-.188.016-.437.016-.821.016h-6.4c-.384 0-.633 0-.821-.016-.181-.015-.249-.04-.282-.057a.658.658 0 0 1-.291-.291c-.017-.033-.042-.1-.057-.281a11.358 11.358 0 0 1-.016-.822v-5.066c0-.385 0-.633.016-.822.015-.181.04-.248.057-.281a.669.669 0 0 1 .291-.291c.033-.017.1-.042.282-.057.188-.015.437-.016.821-.016h6.4c.384 0 .633.001.822.016.18.015.248.04.28.057a.669.669 0 0 1 .292.291c.017.033.042.1.057.281.013.166.015.378.016.688h-2a2.667 2.667 0 0 0 0 5.334Zm0-4a1.333 1.333 0 1 0 0 2.666h2.666a.666.666 0 0 0 .667-.666v-1.334a.666.666 0 0 0-.667-.666H34Z" clip-rule="evenodd"/><path fill="#3D3E43" d="M52.494 280.139c-.656 0-1.24-.112-1.755-.338a3.002 3.002 0 0 1-1.218-.939 2.53 2.53 0 0 1-.487-1.407h1.253c.026.328.14.611.338.85.199.235.459.417.78.547.322.129.678.193 1.07.193a2.81 2.81 0 0 0 1.163-.228c.338-.153.603-.365.795-.637a1.59 1.59 0 0 0 .289-.944c0-.375-.093-.705-.279-.99a1.85 1.85 0 0 0-.815-.676c-.358-.162-.796-.243-1.313-.243H51.5v-1.094h.815c.405 0 .76-.073 1.064-.219a1.71 1.71 0 0 0 .721-.616c.176-.265.264-.577.264-.935a1.72 1.72 0 0 0-.23-.9 1.56 1.56 0 0 0-.645-.596 2.086 2.086 0 0 0-.975-.214c-.351 0-.683.064-.994.194-.308.126-.56.31-.756.552a1.436 1.436 0 0 0-.318.865h-1.193c.02-.534.18-1.001.482-1.402.302-.405.696-.72 1.183-.945a3.83 3.83 0 0 1 1.616-.338c.63 0 1.17.128 1.62.383.452.252.798.585 1.04.999.242.414.363.862.363 1.342 0 .574-.151 1.063-.453 1.467a2.296 2.296 0 0 1-1.218.84v.08c.643.106 1.145.379 1.507.82.361.438.542.979.542 1.626 0 .553-.151 1.05-.453 1.491a3.07 3.07 0 0 1-1.223 1.034c-.517.252-1.105.378-1.765.378Zm7.741.04c-.484 0-.923-.091-1.317-.273a2.265 2.265 0 0 1-.94-.801c-.232-.351-.348-.775-.348-1.273 0-.437.086-.792.258-1.064.173-.275.403-.49.692-.646.288-.156.606-.272.954-.348.351-.079.704-.142 1.059-.189.464-.059.84-.104 1.129-.134.291-.033.503-.088.636-.164.136-.076.204-.209.204-.398v-.04c0-.49-.134-.871-.403-1.143-.265-.272-.668-.408-1.208-.408-.56 0-1 .123-1.318.368-.318.245-.541.507-.67.786l-1.114-.398c.199-.464.464-.825.795-1.084.335-.262.7-.444 1.094-.547a4.544 4.544 0 0 1 1.173-.159c.245 0 .527.03.845.09.322.056.632.174.93.353.302.179.552.449.75.81.2.361.3.845.3 1.452V280h-1.174v-1.034h-.06c-.08.166-.212.343-.398.532-.185.189-.432.35-.74.482-.309.133-.685.199-1.129.199Zm.18-1.054c.463 0 .854-.091 1.172-.273.322-.183.564-.418.726-.706.166-.289.249-.592.249-.91v-1.074c-.05.06-.16.114-.328.164a5.532 5.532 0 0 1-.577.124c-.215.033-.426.063-.631.09-.203.023-.367.043-.493.059-.305.04-.59.105-.855.194a1.47 1.47 0 0 0-.636.393c-.16.172-.239.408-.239.706 0 .408.151.716.453.925.305.205.69.308 1.158.308Zm10.572-3.48v1.094h-4.215v-1.094h4.215Zm-3.937-3.281V280h-1.173v-7.636h1.173Zm4.832 0V280H70.71v-7.636h1.173ZM78.62 280v-6.562H76.59c-.457 0-.817.106-1.079.318-.261.212-.392.503-.392.875 0 .364.117.651.353.86.238.209.565.313.98.313h2.465v1.094h-2.466c-.517 0-.963-.091-1.337-.274a1.998 1.998 0 0 1-.865-.78c-.202-.342-.303-.746-.303-1.213 0-.471.106-.875.318-1.213.212-.338.515-.599.91-.781.397-.182.87-.273 1.416-.273h3.142V280H78.62Zm-5.091 0 2.167-3.798h1.273L74.801 280h-1.273Zm7.32-6.543v-1.093h6.204v1.093h-2.506V280h-1.173v-6.543h-2.526Zm9.089 4.813 3.679-5.906h1.352V280h-1.173v-5.906L90.135 280h-1.372v-7.636h1.174v5.906Zm10.382 1.889c-.736 0-1.371-.162-1.905-.487a3.273 3.273 0 0 1-1.228-1.372c-.285-.59-.427-1.276-.427-2.059 0-.782.142-1.471.427-2.068.289-.6.69-1.067 1.204-1.402.517-.338 1.12-.507 1.809-.507.398 0 .791.066 1.178.199.388.133.741.348 1.059.646.319.295.572.686.761 1.174.189.487.283 1.087.283 1.799v.498h-5.886v-1.015h4.693c0-.431-.086-.815-.258-1.153a1.943 1.943 0 0 0-.726-.8c-.312-.196-.68-.294-1.104-.294-.467 0-.871.116-1.213.348a2.29 2.29 0 0 0-.78.895 2.628 2.628 0 0 0-.274 1.183v.676c0 .577.1 1.066.299 1.467.202.398.482.701.84.91.358.205.774.308 1.248.308.308 0 .586-.043.835-.129.252-.09.469-.222.651-.398a1.82 1.82 0 0 0 .423-.666l1.133.318c-.119.385-.32.723-.601 1.014-.282.289-.63.514-1.044.676-.415.16-.88.239-1.397.239Zm13.995-4.514v1.094h-4.216v-1.094h4.216Zm-3.938-3.281V280h-1.173v-7.636h1.173Zm4.832 0V280h-1.173v-7.636h1.173Zm4.39 7.815c-.484 0-.923-.091-1.317-.273a2.263 2.263 0 0 1-.94-.801c-.232-.351-.348-.775-.348-1.273 0-.437.086-.792.259-1.064a1.82 1.82 0 0 1 .691-.646c.288-.156.606-.272.954-.348.352-.079.705-.142 1.059-.189.464-.059.841-.104 1.129-.134.292-.033.504-.088.636-.164.136-.076.204-.209.204-.398v-.04c0-.49-.134-.871-.403-1.143-.265-.272-.667-.408-1.208-.408-.56 0-.999.123-1.317.368-.318.245-.542.507-.671.786l-1.114-.398c.199-.464.464-.825.795-1.084.335-.262.7-.444 1.094-.547a4.547 4.547 0 0 1 1.174-.159c.245 0 .526.03.845.09.321.056.631.174.929.353.302.179.552.449.751.81.199.361.298.845.298 1.452V280h-1.173v-1.034h-.06a2.059 2.059 0 0 1-.397.532c-.186.189-.433.35-.741.482-.308.133-.685.199-1.129.199Zm.179-1.054c.464 0 .855-.091 1.174-.273a1.867 1.867 0 0 0 .974-1.616v-1.074c-.05.06-.159.114-.328.164a5.534 5.534 0 0 1-.577.124c-.215.033-.426.063-.631.09-.202.023-.366.043-.492.059-.305.04-.59.105-.855.194a1.475 1.475 0 0 0-.637.393c-.159.172-.238.408-.238.706 0 .408.15.716.452.925.305.205.691.308 1.158.308Zm12.761 1.014a3.811 3.811 0 0 1-1.253-.238 3.016 3.016 0 0 1-1.143-.771c-.345-.365-.622-.857-.83-1.477-.209-.623-.314-1.405-.314-2.346 0-.902.085-1.7.254-2.396.169-.7.414-1.288.736-1.765a3.304 3.304 0 0 1 1.163-1.094 3.18 3.18 0 0 1 1.546-.373c.57 0 1.077.114 1.522.343.447.225.812.54 1.093.945.282.404.464.87.547 1.397h-1.213a2.25 2.25 0 0 0-.656-1.139c-.325-.301-.756-.452-1.293-.452-.789 0-1.41.343-1.864 1.029-.451.686-.678 1.649-.681 2.888h.079a3.004 3.004 0 0 1 1.517-1.188 2.97 2.97 0 0 1 .989-.164c.583 0 1.117.146 1.601.438.484.288.872.687 1.163 1.198.292.507.438 1.088.438 1.745 0 .629-.141 1.206-.423 1.73-.282.52-.678.935-1.188 1.243-.507.305-1.104.454-1.79.447Zm0-1.094c.418 0 .792-.104 1.124-.313.335-.209.598-.489.79-.84.196-.351.294-.742.294-1.173 0-.421-.095-.804-.284-1.149a2.16 2.16 0 0 0-.77-.83 2.043 2.043 0 0 0-1.114-.308c-.315 0-.608.063-.88.189-.272.122-.51.291-.716.507a2.44 2.44 0 0 0-.477.741 2.354 2.354 0 0 0 .109 2.003c.192.351.454.635.786.85a2.05 2.05 0 0 0 1.138.323Zm8.677 1.094c-.749 0-1.387-.204-1.914-.611-.527-.411-.93-1.006-1.208-1.785-.279-.782-.418-1.727-.418-2.834 0-1.1.139-2.04.418-2.819.281-.782.686-1.379 1.213-1.79.53-.414 1.166-.621 1.909-.621.742 0 1.377.207 1.904.621.53.411.935 1.008 1.213 1.79.282.779.423 1.719.423 2.819 0 1.107-.14 2.052-.418 2.834-.278.779-.681 1.374-1.208 1.785-.527.407-1.165.611-1.914.611Zm0-1.094c.742 0 1.319-.358 1.73-1.073.411-.716.616-1.737.616-3.063 0-.882-.094-1.632-.283-2.252-.186-.62-.454-1.092-.805-1.417a1.778 1.778 0 0 0-1.258-.487c-.736 0-1.311.363-1.725 1.089-.415.722-.622 1.745-.622 3.067 0 .882.093 1.631.279 2.247.185.617.452 1.086.8 1.407a1.81 1.81 0 0 0 1.268.482Zm13.562-.636 2.665-6.045h1.114L155.255 280h-.955l-3.241-7.636h1.093l2.625 6.045Zm-3.002-6.045V280h-1.174v-7.636h1.174ZM157.78 280v-7.636h1.173V280h-1.173Zm4.495-1.73 3.678-5.906h1.353V280h-1.174v-5.906L162.473 280h-1.372v-7.636h1.174v5.906Zm12.291-2.625v1.094h-4.216v-1.094h4.216Zm-3.938-3.281V280h-1.173v-7.636h1.173Zm4.832 0V280h-1.173v-7.636h1.173Zm2.625 10.5c-.198 0-.376-.017-.532-.05a1.413 1.413 0 0 1-.323-.09l.299-1.034c.285.073.537.1.755.08a.909.909 0 0 0 .582-.293c.172-.173.33-.453.472-.841l.219-.596-2.824-7.676h1.273l2.108 6.085h.079l2.108-6.085h1.273l-3.241 8.75a3.32 3.32 0 0 1-.542.979 2.036 2.036 0 0 1-.751.582c-.282.126-.6.189-.955.189Zm6.6-9.407v-1.093h6.205v1.093h-2.506V280h-1.173v-6.543h-2.526Z"/><path fill="#3D3E43" fill-rule="evenodd" d="M284.197 273.94a.69.69 0 0 1 .951 0l2.852 2.747 2.852-2.747a.69.69 0 0 1 .951 0 .63.63 0 0 1 0 .915l-3.328 3.205a.683.683 0 0 1-.475.19.683.683 0 0 1-.475-.19l-3.328-3.205a.63.63 0 0 1 0-.915Z" clip-rule="evenodd"/><path fill="#fff" d="M16 308a8 8 0 0 1 8-8h272a8 8 0 0 1 8 8v16a8 8 0 0 1-8 8H24a8 8 0 0 1-8-8v-16Z"/><path fill="#6A6C76" fill-rule="evenodd" d="M32 310.667a5.333 5.333 0 1 0-.001 10.666 5.333 5.333 0 0 0 0-10.666ZM25.333 316a6.667 6.667 0 1 1 13.334 0 6.667 6.667 0 0 1-13.334 0Zm5.967-2.667c0-.368.298-.666.666-.666h.067c.368 0 .666.298.666.666v.067a.667.667 0 0 1-.665.667h-.066a.669.669 0 0 1-.668-.667v-.067Zm.7 1.334c.368 0 .666.298.666.666v3.334a.666.666 0 0 1-1.333 0v-3.334c0-.368.299-.666.667-.666Z" clip-rule="evenodd"/><path fill="#B4B5BC" d="M57.824 314.909c0 1.074-.194 2.002-.582 2.784-.388.782-.92 1.386-1.596 1.81-.676.424-1.448.636-2.316.636-.869 0-1.641-.212-2.317-.636-.676-.424-1.208-1.028-1.596-1.81-.388-.782-.582-1.71-.582-2.784 0-1.074.194-2.002.582-2.784.388-.782.92-1.385 1.596-1.81.676-.424 1.448-.636 2.317-.636.868 0 1.64.212 2.316.636.676.425 1.208 1.028 1.596 1.81.388.782.582 1.71.582 2.784Zm-1.193 0c0-.882-.148-1.626-.443-2.232-.291-.607-.688-1.066-1.188-1.377a3.078 3.078 0 0 0-1.67-.468c-.617 0-1.175.156-1.676.468-.497.311-.893.77-1.188 1.377-.292.606-.438 1.35-.438 2.232 0 .882.146 1.626.438 2.232.295.607.691 1.066 1.188 1.377.5.312 1.06.468 1.675.468.617 0 1.174-.156 1.671-.468.5-.311.897-.77 1.188-1.377.295-.606.443-1.35.443-2.232ZM59.738 320v-7.636h6.006V320H64.57v-6.543h-3.659V320h-1.173Zm9.322-1.73 3.679-5.906h1.352V320h-1.173v-5.906L69.258 320h-1.372v-7.636h1.174v5.906Zm10.282 1.889c-.716 0-1.332-.169-1.85-.507a3.306 3.306 0 0 1-1.193-1.397c-.278-.593-.417-1.271-.417-2.033 0-.776.142-1.46.427-2.054a3.384 3.384 0 0 1 1.204-1.397c.517-.338 1.12-.507 1.81-.507.536 0 1.02.1 1.451.298.43.199.784.478 1.059.836.275.358.446.775.512 1.253h-1.173c-.09-.348-.289-.657-.597-.925-.305-.272-.716-.408-1.233-.408-.457 0-.858.119-1.203.358-.341.235-.608.569-.8.999-.19.428-.284.93-.284 1.507 0 .59.093 1.104.279 1.541.188.438.454.777.795 1.019.345.242.75.363 1.213.363.305 0 .582-.053.83-.159.249-.106.46-.258.632-.457s.295-.438.368-.716h1.173c-.066.45-.23.856-.492 1.218a2.749 2.749 0 0 1-1.03.855c-.424.209-.917.313-1.48.313Zm6.965.02c-.484 0-.923-.091-1.317-.273a2.266 2.266 0 0 1-.94-.801c-.232-.351-.348-.775-.348-1.273 0-.437.086-.792.259-1.064.172-.275.403-.49.69-.646.29-.156.607-.272.955-.348.352-.079.705-.142 1.06-.189.463-.059.84-.104 1.128-.134.291-.033.504-.088.636-.164.136-.076.204-.209.204-.398v-.04c0-.49-.134-.871-.403-1.143-.265-.272-.667-.408-1.208-.408-.56 0-.999.123-1.317.368-.318.245-.542.507-.671.786l-1.114-.398c.199-.464.464-.825.795-1.084.335-.262.7-.444 1.094-.547a4.543 4.543 0 0 1 1.174-.159c.245 0 .526.03.845.09.321.056.631.174.93.353.301.179.551.449.75.81.199.361.298.845.298 1.452V320h-1.173v-1.034h-.06c-.08.166-.212.343-.397.532-.186.189-.433.35-.741.482-.308.133-.685.199-1.129.199Zm.18-1.054c.463 0 .854-.091 1.173-.273.321-.183.563-.418.725-.706.166-.289.25-.592.25-.91v-1.074c-.05.06-.16.114-.33.164a5.521 5.521 0 0 1-.576.124c-.215.033-.426.063-.631.09-.202.023-.366.043-.492.059-.305.04-.59.105-.855.194a1.47 1.47 0 0 0-.637.393c-.159.172-.239.408-.239.706 0 .408.151.716.453.925.305.205.691.308 1.158.308Zm10.573-3.48v1.094h-4.216v-1.094h4.216Zm-3.938-3.281V320H91.95v-7.636h1.173Zm4.832 0V320h-1.173v-7.636h1.173Zm3.317 5.906 3.679-5.906h1.352V320h-1.173v-5.906l-3.66 5.906h-1.372v-7.636h1.174v5.906Zm10.382 1.889c-.736 0-1.371-.162-1.905-.487a3.28 3.28 0 0 1-1.228-1.372c-.285-.59-.427-1.276-.427-2.059 0-.782.142-1.471.427-2.068.289-.6.69-1.067 1.204-1.402.517-.338 1.12-.507 1.809-.507.398 0 .791.066 1.178.199.388.133.741.348 1.059.646.319.295.572.686.761 1.174.189.487.283 1.087.283 1.799v.498h-5.886v-1.015h4.693c0-.431-.086-.815-.258-1.153a1.943 1.943 0 0 0-.726-.8c-.312-.196-.68-.294-1.104-.294-.467 0-.871.116-1.213.348a2.288 2.288 0 0 0-.78.895 2.62 2.62 0 0 0-.274 1.183v.676c0 .577.1 1.066.298 1.467.203.398.483.701.841.91.358.205.774.308 1.248.308.308 0 .586-.043.835-.129.252-.09.469-.222.651-.398a1.82 1.82 0 0 0 .423-.666l1.133.318c-.119.385-.32.723-.601 1.014-.282.289-.63.514-1.044.676-.415.16-.88.239-1.397.239Z"/><path fill="#0F0F11" d="M25.233 363v-10.182h3.56c.709 0 1.294.123 1.755.368.46.242.803.568 1.029.979.225.408.338.861.338 1.358 0 .437-.078.798-.234 1.084a1.82 1.82 0 0 1-.606.676 2.791 2.791 0 0 1-.81.368v.099c.31.02.624.129.939.328.315.199.578.484.79.855.212.371.319.826.319 1.362 0 .511-.117.97-.349 1.378-.231.407-.598.73-1.098.969-.5.239-1.152.358-1.954.358h-3.679Zm1.233-1.094h2.446c.805 0 1.377-.156 1.715-.467a1.5 1.5 0 0 0 .512-1.144c0-.344-.088-.662-.263-.954a1.91 1.91 0 0 0-.751-.706c-.325-.179-.71-.269-1.153-.269h-2.506v3.54Zm0-4.613h2.287c.371 0 .706-.073 1.004-.219.302-.146.54-.351.716-.617.179-.265.268-.576.268-.934a1.55 1.55 0 0 0-.467-1.139c-.311-.315-.805-.472-1.481-.472h-2.327v3.381Zm7.713 8.571v-10.5h1.134v1.213h.14c.085-.133.205-.302.357-.507.156-.209.378-.395.666-.557.292-.166.686-.249 1.183-.249.643 0 1.21.161 1.7.482.491.322.874.778 1.15 1.368.274.59.412 1.286.412 2.088 0 .808-.138 1.509-.413 2.103-.275.59-.656 1.047-1.143 1.372-.488.321-1.05.482-1.686.482-.49 0-.883-.081-1.178-.244a2.182 2.182 0 0 1-.681-.561 7.516 7.516 0 0 1-.368-.527h-.1v4.037H34.18Zm1.154-6.682c0 .577.084 1.085.253 1.526.17.438.416.781.741 1.029.325.245.723.368 1.193.368.49 0 .9-.129 1.228-.388.332-.262.58-.613.746-1.054.169-.444.254-.938.254-1.481 0-.537-.083-1.021-.25-1.452a2.245 2.245 0 0 0-.74-1.029c-.328-.255-.74-.383-1.238-.383-.477 0-.878.121-1.203.363-.325.239-.57.573-.736 1.004-.165.428-.248.927-.248 1.497Zm10.58 3.977c-.736 0-1.371-.162-1.905-.487a3.273 3.273 0 0 1-1.228-1.372c-.285-.59-.427-1.276-.427-2.059 0-.782.142-1.471.427-2.068.288-.6.69-1.067 1.203-1.402.517-.338 1.12-.507 1.81-.507.398 0 .79.066 1.178.199.388.133.741.348 1.06.646.317.295.57.686.76 1.174.189.487.283 1.087.283 1.799v.498h-5.886v-1.015h4.693a2.5 2.5 0 0 0-.258-1.153 1.944 1.944 0 0 0-.726-.8c-.312-.196-.68-.294-1.104-.294-.467 0-.872.116-1.213.348a2.29 2.29 0 0 0-.78.895 2.628 2.628 0 0 0-.274 1.183v.676c0 .577.1 1.066.298 1.467.202.398.483.701.84.91.358.205.774.308 1.248.308.309 0 .587-.043.836-.129a1.79 1.79 0 0 0 .65-.398c.183-.179.324-.401.423-.666l1.134.318c-.12.385-.32.723-.602 1.014-.281.289-.63.514-1.044.676-.414.16-.88.239-1.397.239Zm9.122-1.75 2.665-6.045h1.114L55.512 363h-.954l-3.242-7.636h1.094l2.625 6.045Zm-3.003-6.045V363H50.86v-7.636h1.173ZM58.038 363v-7.636h1.173V363h-1.173Zm7.915 0v-6.562h-2.029c-.457 0-.817.106-1.078.318-.262.212-.393.503-.393.875 0 .364.117.651.353.86.238.209.565.313.98.313h2.465v1.094h-2.466c-.517 0-.963-.091-1.337-.274a1.999 1.999 0 0 1-.865-.78c-.202-.342-.303-.746-.303-1.213 0-.471.105-.875.318-1.213.212-.338.515-.599.91-.781.397-.182.87-.273 1.416-.273h3.142V363h-1.113Zm-5.091 0 2.167-3.798h1.273L62.135 363h-1.273Z"/><path fill="#fff" d="M16 384a8 8 0 0 1 8-8h124a8 8 0 0 1 8 8v16a8 8 0 0 1-8 8H24a8 8 0 0 1-8-8v-16Z"/><path fill="#6A6C76" d="M31.384 392.255a.662.662 0 0 1-.051-.253V388a.667.667 0 0 1 1.333 0v3.724l1.69 1.69a.667.667 0 0 1-.942.943l-1.885-1.885-.005-.005a.666.666 0 0 1-.14-.212Z"/><path fill="#6A6C76" fill-rule="evenodd" d="M38.666 392a6.667 6.667 0 1 1-13.333 0 6.667 6.667 0 0 1 13.333 0ZM32 397.333a5.333 5.333 0 1 0 0-10.666 5.333 5.333 0 0 0 0 10.666Z" clip-rule="evenodd"/><path fill="#3D3E43" d="M48.633 386.818V397h-1.232v-8.889h-.06l-2.486 1.65v-1.252l2.546-1.691h1.232ZM51.88 397l4.554-9.009v-.079h-5.25v-1.094h6.523v1.154L53.173 397H51.88Zm8.076-1.303a.86.86 0 0 1-.631-.263.862.862 0 0 1-.264-.631c0-.246.088-.456.264-.632a.864.864 0 0 1 .631-.263c.246 0 .456.088.632.263a.862.862 0 0 1 .263.632.928.928 0 0 1-.447.775.849.849 0 0 1-.448.119Zm0-5.15a.86.86 0 0 1-.631-.264.86.86 0 0 1-.264-.631.86.86 0 0 1 .264-.631.86.86 0 0 1 .631-.264.86.86 0 0 1 .632.264.86.86 0 0 1 .263.631.84.84 0 0 1-.124.447.93.93 0 0 1-.323.329.858.858 0 0 1-.448.119Zm6.421 6.592c-.656 0-1.241-.112-1.755-.338a3.002 3.002 0 0 1-1.218-.939 2.53 2.53 0 0 1-.487-1.407h1.253c.026.328.139.611.338.85.199.235.459.417.78.547.322.129.678.193 1.07.193a2.81 2.81 0 0 0 1.163-.228c.338-.153.603-.365.795-.637a1.59 1.59 0 0 0 .288-.944c0-.375-.092-.705-.278-.99a1.85 1.85 0 0 0-.815-.676c-.358-.162-.796-.243-1.313-.243h-.815v-1.094h.815c.405 0 .76-.073 1.064-.219a1.71 1.71 0 0 0 .721-.616c.176-.265.263-.577.263-.935 0-.345-.076-.645-.228-.9a1.56 1.56 0 0 0-.647-.596 2.086 2.086 0 0 0-.974-.214c-.351 0-.683.064-.994.194-.309.126-.56.31-.756.552a1.436 1.436 0 0 0-.318.865h-1.193c.02-.534.18-1.001.482-1.402.301-.405.696-.72 1.183-.945a3.83 3.83 0 0 1 1.616-.338c.63 0 1.17.128 1.62.383.451.252.798.585 1.04.999.242.414.363.862.363 1.342 0 .574-.151 1.063-.453 1.467a2.296 2.296 0 0 1-1.218.84v.08c.643.106 1.145.379 1.507.82.36.438.541.979.541 1.626 0 .553-.15 1.05-.452 1.491a3.07 3.07 0 0 1-1.223 1.034c-.517.252-1.105.378-1.765.378Zm8.795 0c-.75 0-1.387-.204-1.914-.611-.527-.411-.93-1.006-1.208-1.785-.279-.782-.418-1.727-.418-2.834 0-1.1.14-2.04.418-2.819.281-.782.686-1.379 1.213-1.79.53-.414 1.166-.621 1.909-.621.742 0 1.377.207 1.904.621.53.411.935 1.008 1.213 1.79.282.779.423 1.719.423 2.819 0 1.107-.14 2.052-.418 2.834-.278.779-.681 1.374-1.208 1.785-.527.407-1.165.611-1.914.611Zm0-1.094c.742 0 1.319-.358 1.73-1.073.411-.716.617-1.737.617-3.063 0-.882-.095-1.632-.284-2.252-.186-.62-.454-1.092-.805-1.417a1.777 1.777 0 0 0-1.258-.487c-.736 0-1.311.363-1.725 1.089-.415.722-.622 1.745-.622 3.067 0 .882.093 1.631.279 2.247.185.617.452 1.086.8 1.407a1.81 1.81 0 0 0 1.268.482Z"/><path fill="#fff" d="M164 384a8 8 0 0 1 8-8h124a8 8 0 0 1 8 8v16a8 8 0 0 1-8 8H172a8 8 0 0 1-8-8v-16Z"/><path fill="#6A6C76" fill-rule="evenodd" d="M180.196 387.529a.665.665 0 0 1 .942 0l4 4a.666.666 0 0 1 0 .943l-4 4a.666.666 0 1 1-.942-.943l2.862-2.862h-7.724a.667.667 0 1 1 0-1.334h7.724l-2.862-2.861a.666.666 0 0 1 0-.943Z" clip-rule="evenodd"/><path fill="#3D3E43" d="M196.634 386.818V397h-1.233v-8.889h-.06l-2.486 1.65v-1.252l2.546-1.691h1.233Zm6.189 10.321c-.683 0-1.286-.121-1.81-.363-.52-.245-.926-.581-1.218-1.009a2.542 2.542 0 0 1-.432-1.472c-.003-.43.081-.828.253-1.193.173-.368.408-.674.706-.919a2.168 2.168 0 0 1 1.01-.473v-.059a1.968 1.968 0 0 1-1.164-.821 2.48 2.48 0 0 1-.427-1.446c-.004-.518.127-.98.393-1.388a2.764 2.764 0 0 1 1.093-.964c.468-.235 1-.353 1.596-.353.59 0 1.117.118 1.581.353.464.235.829.557 1.094.964.268.408.404.87.408 1.388a2.522 2.522 0 0 1-.443 1.446 1.963 1.963 0 0 1-1.148.821v.059a2.1 2.1 0 0 1 .994.473c.295.245.53.551.706.919.176.365.265.763.268 1.193a2.569 2.569 0 0 1-.447 1.472c-.292.428-.698.764-1.218 1.009-.517.242-1.115.363-1.795.363Zm0-1.094c.461 0 .859-.074 1.193-.223.335-.149.594-.36.776-.632a1.7 1.7 0 0 0 .278-.954 1.823 1.823 0 0 0-.298-1.019 2.026 2.026 0 0 0-.8-.696 2.517 2.517 0 0 0-1.149-.254c-.434 0-.822.085-1.163.254a2.029 2.029 0 0 0-.801.696 1.798 1.798 0 0 0-.283 1.019c-.003.364.085.683.263.954.183.272.443.483.781.632.338.149.739.223 1.203.223Zm0-4.832c.365 0 .688-.073.97-.219.285-.146.508-.349.671-.611.162-.262.245-.569.248-.92a1.695 1.695 0 0 0-.243-.9 1.584 1.584 0 0 0-.661-.596 2.15 2.15 0 0 0-.985-.214 2.2 2.2 0 0 0-.999.214 1.538 1.538 0 0 0-.661.596 1.661 1.661 0 0 0-.229.9 1.71 1.71 0 0 0 .234.92c.162.262.386.465.671.611.285.146.613.219.984.219Zm6.241 4.484a.86.86 0 0 1-.632-.263.864.864 0 0 1-.263-.631c0-.246.088-.456.263-.632a.864.864 0 0 1 .632-.263c.245 0 .455.088.631.263a.861.861 0 0 1 .264.632.842.842 0 0 1-.125.447.923.923 0 0 1-.323.328.847.847 0 0 1-.447.119Zm0-5.15a.861.861 0 0 1-.632-.264.862.862 0 0 1-.263-.631c0-.245.088-.456.263-.631a.861.861 0 0 1 .632-.264.86.86 0 0 1 .631.264.859.859 0 0 1 .264.631.84.84 0 0 1-.125.447.925.925 0 0 1-.323.329.856.856 0 0 1-.447.119Zm6.421 6.592c-.657 0-1.242-.112-1.755-.338a2.994 2.994 0 0 1-1.218-.939 2.529 2.529 0 0 1-.488-1.407h1.253c.027.328.139.611.338.85.199.235.459.417.781.547.321.129.678.193 1.069.193a2.81 2.81 0 0 0 1.163-.228c.338-.153.603-.365.795-.637.193-.271.289-.586.289-.944a1.77 1.77 0 0 0-.279-.99c-.185-.288-.457-.513-.815-.676-.358-.162-.795-.243-1.312-.243h-.816v-1.094h.816c.404 0 .759-.073 1.063-.219a1.651 1.651 0 0 0 .985-1.551c0-.345-.076-.645-.229-.9a1.56 1.56 0 0 0-.646-.596 2.087 2.087 0 0 0-.975-.214c-.351 0-.682.064-.994.194-.308.126-.56.31-.756.552a1.441 1.441 0 0 0-.318.865h-1.193c.02-.534.181-1.001.482-1.402.302-.405.696-.72 1.184-.945a3.826 3.826 0 0 1 1.615-.338c.63 0 1.17.128 1.621.383.451.252.797.585 1.039.999.242.414.363.862.363 1.342 0 .574-.151 1.063-.452 1.467a2.301 2.301 0 0 1-1.218.84v.08c.643.106 1.145.379 1.506.82.361.438.542.979.542 1.626 0 .553-.151 1.05-.453 1.491a3.061 3.061 0 0 1-1.223 1.034c-.517.252-1.105.378-1.764.378Zm8.794 0c-.749 0-1.387-.204-1.914-.611-.527-.411-.929-1.006-1.208-1.785-.278-.782-.417-1.727-.417-2.834 0-1.1.139-2.04.417-2.819.282-.782.686-1.379 1.213-1.79.531-.414 1.167-.621 1.909-.621.743 0 1.377.207 1.904.621.531.411.935 1.008 1.213 1.79.282.779.423 1.719.423 2.819 0 1.107-.139 2.052-.418 2.834-.278.779-.681 1.374-1.208 1.785-.527.407-1.165.611-1.914.611Zm0-1.094c.743 0 1.319-.358 1.73-1.073.411-.716.617-1.737.617-3.063 0-.882-.095-1.632-.283-2.252-.186-.62-.455-1.092-.806-1.417a1.776 1.776 0 0 0-1.258-.487c-.735 0-1.311.363-1.725 1.089-.414.722-.621 1.745-.621 3.067 0 .882.093 1.631.278 2.247.186.617.453 1.086.801 1.407.351.322.773.482 1.267.482Z"/><path fill="#6A6C76" d="M241.634 386.818V397h-1.233v-8.889h-.06l-2.486 1.65v-1.252l2.546-1.691h1.233Zm8.834 2.546V397h-1.173v-7.636h1.173Zm-.457 3.639v1.094c-.265.099-.529.187-.791.263a6.83 6.83 0 0 1-.825.174c-.288.04-.605.06-.95.06-.865 0-1.559-.234-2.083-.701-.52-.468-.78-1.169-.78-2.103v-2.446h1.173v2.446c0 .391.075.712.224.964.149.252.351.439.606.562.255.123.542.184.86.184.497 0 .947-.045 1.348-.134.404-.093.81-.214 1.218-.363Z"/><path fill="#fff" d="M16 424a8 8 0 0 1 8-8h124a8 8 0 0 1 8 8v16a8 8 0 0 1-8 8H24a8 8 0 0 1-8-8v-16Z"/><path fill="#6A6C76" fill-rule="evenodd" d="M30.667 426a.667.667 0 0 0-1.334 0A3.334 3.334 0 0 0 26 429.333v5.334A3.333 3.333 0 0 0 29.333 438h5.334A3.333 3.333 0 0 0 38 434.667v-5.334A3.334 3.334 0 0 0 34.667 426a.667.667 0 0 0-1.334 0h-2.666Zm2.666 2v-.667h-2.666V428a.667.667 0 0 1-1.334 0v-.667a2 2 0 0 0-2 2V430h9.334v-.667a2 2 0 0 0-2-2V428a.667.667 0 0 1-1.334 0Zm3.334 3.333h-9.334v3.334a2 2 0 0 0 2 2h5.334a2 2 0 0 0 2-2v-3.334Z" clip-rule="evenodd"/><path fill="#3D3E43" d="M45.233 437v-10.182h3.56c.709 0 1.294.123 1.755.368.46.242.803.568 1.029.979.225.408.338.861.338 1.358 0 .437-.078.798-.234 1.084a1.82 1.82 0 0 1-.606.676 2.791 2.791 0 0 1-.81.368v.099c.31.02.624.129.939.328.315.199.578.484.79.855.212.371.319.826.319 1.362 0 .511-.117.97-.349 1.378-.231.407-.598.73-1.098.969-.5.239-1.152.358-1.954.358h-3.679Zm1.233-1.094h2.446c.805 0 1.377-.156 1.715-.467a1.5 1.5 0 0 0 .512-1.144c0-.344-.088-.662-.263-.954a1.91 1.91 0 0 0-.751-.706c-.325-.179-.71-.269-1.153-.269h-2.506v3.54Zm0-4.613h2.287c.371 0 .706-.073 1.004-.219.302-.146.54-.351.716-.617.179-.265.269-.576.269-.934a1.55 1.55 0 0 0-.468-1.139c-.311-.315-.805-.472-1.481-.472h-2.327v3.381Zm7.276-.836v-1.093h6.204v1.093h-2.505V437h-1.174v-6.543h-2.525Zm15.413-3.639V437h-1.233v-8.889h-.06l-2.485 1.65v-1.252l2.545-1.691h1.233Zm6.508 0V437H74.43v-8.889h-.06l-2.486 1.65v-1.252l2.546-1.691h1.233Zm9.988 12.787v-12.787h1.173v12.787h-1.173Zm0-2.446c-.517 0-.988-.093-1.412-.278a3.157 3.157 0 0 1-1.094-.801 3.674 3.674 0 0 1-.706-1.248 4.944 4.944 0 0 1-.248-1.61c0-.597.082-1.137.248-1.621a3.67 3.67 0 0 1 .706-1.253c.305-.348.67-.615 1.094-.8a3.432 3.432 0 0 1 1.412-.284h.358v7.895h-.358Zm0-1.054h.199v-5.787h-.2c-.39 0-.73.08-1.018.239a2.043 2.043 0 0 0-.716.641 2.953 2.953 0 0 0-.418.925 4.4 4.4 0 0 0-.134 1.099c0 .51.081.984.243 1.421.163.438.413.791.751 1.059.338.269.77.403 1.293.403Zm1.173 1.054h-.358v-7.895h.358c.517 0 .988.095 1.412.284.424.185.789.452 1.094.8.305.348.54.766.706 1.253.165.484.248 1.024.248 1.621 0 .59-.083 1.126-.248 1.61-.166.484-.401.9-.706 1.248-.305.345-.67.612-1.094.801a3.496 3.496 0 0 1-1.412.278Zm0-1.054c.395 0 .734-.076 1.02-.229.288-.155.525-.367.71-.636.19-.272.328-.58.418-.925.093-.348.139-.712.139-1.093 0-.511-.081-.986-.244-1.427a2.406 2.406 0 0 0-.75-1.069c-.338-.272-.77-.408-1.293-.408h-.199v5.787h.199Zm8.456 1.054c-.736 0-1.371-.162-1.905-.487a3.273 3.273 0 0 1-1.228-1.372c-.285-.59-.427-1.276-.427-2.059 0-.782.142-1.471.427-2.068.289-.6.69-1.067 1.203-1.402.518-.338 1.12-.507 1.81-.507.398 0 .79.066 1.178.199.388.133.741.348 1.06.646.318.295.571.686.76 1.174.189.487.283 1.087.283 1.799v.498h-5.886v-1.015h4.693a2.5 2.5 0 0 0-.258-1.153 1.944 1.944 0 0 0-.726-.8c-.312-.196-.68-.294-1.104-.294-.467 0-.871.116-1.213.348a2.29 2.29 0 0 0-.78.895 2.63 2.63 0 0 0-.274 1.183v.676c0 .577.1 1.066.298 1.467.203.398.483.701.84.91.359.205.774.308 1.248.308.309 0 .587-.043.836-.129a1.79 1.79 0 0 0 .651-.398c.182-.179.323-.401.423-.666l1.133.318c-.12.385-.32.723-.602 1.014-.281.289-.63.514-1.043.676-.415.16-.88.239-1.398.239Zm4.946-.159v-7.636h3.122c.822 0 1.475.185 1.959.556.484.372.726.862.726 1.472 0 .464-.138.824-.413 1.079-.275.252-.628.422-1.059.512.282.04.556.139.821.298.268.159.49.378.666.657.176.275.263.613.263 1.014 0 .391-.099.74-.298 1.049a2.048 2.048 0 0 1-.855.731c-.371.179-.815.268-1.332.268h-3.6Zm1.114-1.074h2.486c.404 0 .721-.096.949-.288.229-.192.343-.454.343-.786 0-.394-.114-.704-.343-.929-.228-.229-.545-.343-.949-.343h-2.486v2.346Zm0-3.361h2.008c.315 0 .585-.043.811-.129.225-.089.397-.215.517-.378a.96.96 0 0 0 .184-.586.866.866 0 0 0-.403-.756c-.268-.186-.638-.278-1.109-.278h-2.008v2.127Zm6.748 7.299v-10.5h1.133v1.213h.139c.086-.133.206-.302.358-.507.156-.209.378-.395.666-.557.292-.166.686-.249 1.184-.249.643 0 1.209.161 1.7.482.49.322.873.778 1.148 1.368.275.59.413 1.286.413 2.088 0 .808-.138 1.509-.413 2.103-.275.59-.656 1.047-1.143 1.372-.487.321-1.049.482-1.685.482-.491 0-.884-.081-1.179-.244a2.182 2.182 0 0 1-.681-.561 7.523 7.523 0 0 1-.368-.527h-.099v4.037h-1.173Zm1.153-6.682c0 .577.084 1.085.253 1.526.17.438.416.781.741 1.029.325.245.723.368 1.193.368.491 0 .9-.129 1.228-.388a2.37 2.37 0 0 0 .746-1.054c.169-.444.254-.938.254-1.481 0-.537-.083-1.021-.249-1.452a2.238 2.238 0 0 0-.741-1.029c-.328-.255-.74-.383-1.238-.383-.477 0-.878.121-1.203.363-.324.239-.57.573-.735 1.004-.166.428-.249.927-.249 1.497Zm9.625 3.997c-.484 0-.923-.091-1.318-.273a2.266 2.266 0 0 1-.939-.801c-.232-.351-.348-.775-.348-1.273 0-.437.086-.792.258-1.064.173-.275.403-.49.691-.646.289-.156.607-.272.955-.348.351-.079.704-.142 1.059-.189.464-.059.84-.104 1.128-.134.292-.033.504-.088.637-.164.136-.076.204-.209.204-.398v-.04c0-.49-.135-.871-.403-1.143-.265-.272-.668-.408-1.208-.408-.56 0-.999.123-1.318.368-.318.245-.542.507-.671.786l-1.113-.398c.198-.464.464-.825.795-1.084a2.981 2.981 0 0 1 1.094-.547 4.546 4.546 0 0 1 1.173-.159c.245 0 .527.03.845.09.322.056.632.174.93.353.302.179.552.449.751.81.199.361.298.845.298 1.452V437h-1.173v-1.034h-.06c-.08.166-.212.343-.398.532a2.27 2.27 0 0 1-.741.482c-.308.133-.684.199-1.128.199Zm.179-1.054c.464 0 .855-.091 1.173-.273a1.863 1.863 0 0 0 .975-1.616v-1.074c-.05.06-.159.114-.328.164a5.534 5.534 0 0 1-.577.124c-.216.033-.426.063-.632.09-.202.023-.366.043-.492.059-.305.04-.59.105-.855.194a1.465 1.465 0 0 0-.636.393c-.159.172-.239.408-.239.706 0 .408.151.716.453.925.304.205.691.308 1.158.308Zm4.786.875v-1.094h.279c.228 0 .419-.044.571-.134.153-.093.276-.254.368-.482.096-.232.169-.554.219-.965.053-.414.091-.941.114-1.581l.14-3.38h5.091V437h-1.174v-6.543h-2.804l-.119 2.725a12.458 12.458 0 0 1-.169 1.655c-.083.474-.211.872-.383 1.194a1.749 1.749 0 0 1-.676.725c-.282.163-.635.244-1.059.244h-.398Zm13.528 0v-6.562h-2.028c-.458 0-.817.106-1.079.318-.262.212-.393.503-.393.875 0 .364.118.651.353.86.239.209.565.313.979.313h2.466v1.094h-2.466c-.517 0-.962-.091-1.337-.274a2 2 0 0 1-.865-.78c-.202-.342-.303-.746-.303-1.213 0-.471.106-.875.318-1.213.212-.338.515-.599.91-.781.397-.182.87-.273 1.417-.273h3.142V437h-1.114Zm-5.091 0 2.168-3.798h1.272L133.541 437h-1.273Z"/><path fill="#fff" d="M16 464a8 8 0 0 1 8-8h272a8 8 0 0 1 8 8v16a8 8 0 0 1-8 8H24a8 8 0 0 1-8-8v-16Z"/><path fill="#6A6C76" fill-rule="evenodd" d="M36.666 465.333c.369 0 .667.299.667.667v3.333a.666.666 0 0 1-.666.667h-3.334a.666.666 0 1 1 0-1.333h1.933a4.66 4.66 0 0 0-4.731-1.097 4.664 4.664 0 0 0-2.23 7.281 4.664 4.664 0 0 0 5.333 1.519 4.67 4.67 0 0 0 2.276-1.828.666.666 0 1 1 1.118.726 5.997 5.997 0 0 1-6.676 2.502 5.995 5.995 0 0 1-4.355-5.644A6 6 0 0 1 36 467.528V466c0-.368.298-.667.666-.667Z" clip-rule="evenodd"/><path fill="#B4B5BC" d="M56.85 465.818V476h-1.233v-9.088h-5.131V476h-1.233v-10.182h7.596Zm5.43 10.341c-.69 0-1.295-.164-1.815-.492a3.342 3.342 0 0 1-1.213-1.377c-.288-.59-.433-1.28-.433-2.068 0-.796.145-1.49.433-2.084a3.344 3.344 0 0 1 1.213-1.382c.52-.328 1.125-.492 1.815-.492.689 0 1.292.164 1.81.492.52.329.924.789 1.212 1.382.292.594.438 1.288.438 2.084 0 .788-.146 1.478-.438 2.068a3.297 3.297 0 0 1-1.213 1.377c-.517.328-1.12.492-1.81.492Zm0-1.054c.523 0 .954-.134 1.292-.403a2.37 2.37 0 0 0 .751-1.059 4.05 4.05 0 0 0 .244-1.421c0-.511-.082-.986-.244-1.427a2.406 2.406 0 0 0-.75-1.069c-.339-.272-.77-.408-1.293-.408-.524 0-.955.136-1.293.408a2.406 2.406 0 0 0-.75 1.069 4.095 4.095 0 0 0-.244 1.427c0 .51.08.984.243 1.421.163.438.413.791.751 1.059.338.269.769.403 1.293.403Zm5.25.895v-7.636h3.123c.822 0 1.475.185 1.959.556.484.372.726.862.726 1.472 0 .464-.138.824-.413 1.079-.275.252-.628.422-1.059.512.282.04.555.139.82.298.269.159.491.378.667.657.175.275.263.613.263 1.014 0 .391-.1.74-.298 1.049a2.046 2.046 0 0 1-.855.731c-.371.179-.816.268-1.333.268h-3.6Zm1.114-1.074h2.486c.405 0 .721-.096.95-.288.229-.192.343-.454.343-.786 0-.394-.114-.704-.343-.929-.229-.229-.545-.343-.95-.343h-2.486v2.346Zm0-3.361h2.01c.314 0 .584-.043.81-.129.225-.089.397-.215.517-.378a.957.957 0 0 0 .183-.586.864.864 0 0 0-.402-.756c-.269-.186-.638-.278-1.109-.278h-2.009v2.127Zm6.31-2.108v-1.093h6.205v1.093h-2.505V476H77.48v-6.543h-2.525Zm10.623 6.702c-.69 0-1.295-.164-1.815-.492a3.343 3.343 0 0 1-1.213-1.377c-.289-.59-.433-1.28-.433-2.068 0-.796.144-1.49.433-2.084a3.345 3.345 0 0 1 1.213-1.382c.52-.328 1.125-.492 1.814-.492.69 0 1.293.164 1.81.492a3.3 3.3 0 0 1 1.213 1.382c.292.594.438 1.288.438 2.084 0 .788-.146 1.478-.438 2.068a3.297 3.297 0 0 1-1.213 1.377c-.517.328-1.12.492-1.81.492Zm0-1.054c.523 0 .954-.134 1.292-.403a2.37 2.37 0 0 0 .75-1.059 4.05 4.05 0 0 0 .245-1.421c0-.511-.082-.986-.244-1.427a2.406 2.406 0 0 0-.75-1.069c-.339-.272-.77-.408-1.294-.408-.523 0-.954.136-1.292.408a2.405 2.405 0 0 0-.75 1.069 4.095 4.095 0 0 0-.244 1.427c0 .51.08.984.243 1.421.163.438.413.791.75 1.059.339.269.77.403 1.293.403Zm5.25 3.759v-10.5h1.134v1.213h.14c.086-.133.205-.302.358-.507a2.09 2.09 0 0 1 .666-.557c.291-.166.686-.249 1.183-.249.643 0 1.21.161 1.7.482.49.322.874.778 1.149 1.368.275.59.412 1.286.412 2.088 0 .808-.137 1.509-.412 2.103-.275.59-.657 1.047-1.144 1.372-.487.321-1.049.482-1.685.482-.49 0-.883-.081-1.178-.244a2.183 2.183 0 0 1-.682-.561 7.55 7.55 0 0 1-.368-.527h-.099v4.037h-1.173Zm1.154-6.682c0 .577.085 1.085.254 1.526.169.438.416.781.74 1.029.325.245.723.368 1.194.368.49 0 .9-.129 1.228-.388.331-.262.58-.613.745-1.054.17-.444.254-.938.254-1.481a4.02 4.02 0 0 0-.249-1.452 2.245 2.245 0 0 0-.74-1.029c-.328-.255-.741-.383-1.238-.383-.478 0-.879.121-1.203.363-.325.239-.57.573-.736 1.004-.166.428-.249.927-.249 1.497ZM103.953 476v-6.562h-2.029c-.457 0-.817.106-1.078.318-.262.212-.393.503-.393.875 0 .364.117.651.353.86.238.209.565.313.979.313h2.466v1.094h-2.466c-.517 0-.963-.091-1.337-.274a1.997 1.997 0 0 1-.865-.78c-.202-.342-.303-.746-.303-1.213 0-.471.105-.875.318-1.213.212-.338.515-.599.909-.781.398-.182.87-.273 1.417-.273h3.142V476h-1.113Zm-5.091 0 2.167-3.798h1.273L100.135 476h-1.273Zm7.319-6.543v-1.093h6.205v1.093h-2.506V476h-1.173v-6.543h-2.526Zm8.931 1.671h2.187c.895 0 1.579.227 2.053.681.474.454.711 1.029.711 1.725 0 .457-.106.873-.318 1.248a2.31 2.31 0 0 1-.935.89c-.411.219-.914.328-1.511.328h-3.202v-7.636h1.174v6.542h2.028c.464 0 .845-.122 1.143-.368.299-.245.448-.56.448-.944 0-.405-.149-.734-.448-.99-.298-.255-.679-.382-1.143-.382h-2.187v-1.094Z"/><path fill="#F3F4FC" d="M16 504a8 8 0 0 1 8-8h272a8 8 0 0 1 8 8v16a8 8 0 0 1-8 8H24a8 8 0 0 1-8-8v-16Z"/><path fill="#3140AA" d="M106.619 516v-10.182h1.536v4.425h5.076v-4.425h1.541V516h-1.541v-4.44h-5.076V516h-1.536Zm12.493.169c-.484 0-.921-.089-1.312-.268a2.218 2.218 0 0 1-.93-.791c-.225-.345-.338-.767-.338-1.268 0-.431.083-.785.249-1.064.165-.278.389-.498.671-.661a3.51 3.51 0 0 1 .944-.368 9.352 9.352 0 0 1 1.064-.189l1.114-.129c.285-.036.492-.094.621-.174.13-.079.194-.209.194-.388v-.034c0-.435-.122-.771-.368-1.01-.242-.238-.603-.358-1.083-.358-.501 0-.895.111-1.184.333-.285.219-.482.463-.591.731l-1.397-.318c.165-.464.407-.838.725-1.124a2.954 2.954 0 0 1 1.109-.626 4.319 4.319 0 0 1 1.318-.199c.305 0 .628.037.969.11.345.069.666.198.965.387.301.189.548.459.74.811.193.348.289.8.289 1.357V516h-1.452v-1.044h-.06c-.096.192-.24.381-.432.567a2.308 2.308 0 0 1-.741.462c-.302.123-.663.184-1.084.184Zm.323-1.193c.411 0 .763-.081 1.054-.244.295-.162.519-.374.672-.636.155-.265.233-.549.233-.85v-.985c-.053.053-.156.103-.308.15-.149.043-.32.081-.512.114-.192.03-.38.058-.562.084l-.457.06a3.67 3.67 0 0 0-.791.184c-.235.086-.424.21-.567.373-.139.159-.208.371-.208.636 0 .368.136.647.407.835.272.186.618.279 1.039.279Zm11.556-6.612V516h-1.452v-7.636h1.452Zm-.632 3.544v1.283c-.228.093-.47.176-.726.249a6.416 6.416 0 0 1-1.685.223c-.945 0-1.695-.23-2.252-.691-.557-.464-.835-1.173-.835-2.128v-2.495h1.446v2.495c0 .362.067.655.199.88.133.226.322.392.567.498.245.106.537.159.875.159.447 0 .86-.042 1.238-.125a9.632 9.632 0 0 0 1.173-.348Zm4.831 4.261c-.484 0-.921-.089-1.312-.268a2.218 2.218 0 0 1-.93-.791c-.225-.345-.338-.767-.338-1.268 0-.431.083-.785.249-1.064.165-.278.389-.498.671-.661.282-.162.596-.285.944-.368a9.352 9.352 0 0 1 1.064-.189l1.114-.129c.285-.036.492-.094.621-.174.13-.079.194-.209.194-.388v-.034c0-.435-.122-.771-.368-1.01-.242-.238-.603-.358-1.083-.358-.501 0-.895.111-1.184.333-.285.219-.482.463-.591.731l-1.397-.318c.165-.464.407-.838.726-1.124a2.943 2.943 0 0 1 1.108-.626 4.319 4.319 0 0 1 1.318-.199c.305 0 .628.037.969.11.345.069.666.198.965.387.301.189.548.459.74.811.193.348.289.8.289 1.357V516h-1.452v-1.044h-.06c-.096.192-.24.381-.432.567a2.308 2.308 0 0 1-.741.462c-.301.123-.663.184-1.084.184Zm.323-1.193c.411 0 .763-.081 1.054-.244.295-.162.519-.374.672-.636.155-.265.233-.549.233-.85v-.985c-.053.053-.155.103-.308.15-.149.043-.32.081-.512.114-.192.03-.38.058-.562.084l-.457.06a3.67 3.67 0 0 0-.791.184c-.235.086-.424.21-.566.373-.14.159-.209.371-.209.636 0 .368.136.647.407.835.272.186.619.279 1.039.279Zm4.479-5.33v-1.282h6.443v1.282h-2.491V516h-1.452v-6.354h-2.5Zm9.134 1.343h2.217c.935 0 1.654.232 2.158.696.503.464.755 1.062.755 1.794 0 .478-.112.907-.338 1.288a2.365 2.365 0 0 1-.989.905c-.434.219-.963.328-1.586.328h-3.336v-7.636h1.457v6.353h1.879c.428 0 .779-.111 1.054-.333.275-.225.413-.512.413-.86 0-.368-.138-.668-.413-.9-.275-.235-.626-.353-1.054-.353h-2.217v-1.282Zm10.05 2.993h1.521c.02.311.161.551.423.72.265.169.608.254 1.029.254.427 0 .792-.091 1.094-.273.301-.186.452-.473.452-.861 0-.232-.058-.434-.174-.606a1.102 1.102 0 0 0-.482-.408 1.715 1.715 0 0 0-.731-.144h-1.243v-1.168h1.243c.421 0 .736-.096.944-.289a.937.937 0 0 0 .314-.72.932.932 0 0 0-.338-.751c-.222-.192-.532-.289-.93-.289-.404 0-.741.092-1.009.274-.269.179-.41.411-.423.696h-1.501c.01-.428.139-.802.387-1.124.252-.324.59-.576 1.015-.755.427-.183.913-.274 1.456-.274.567 0 1.058.091 1.472.274.414.182.734.434.959.755.229.322.344.691.344 1.109 0 .421-.126.766-.378 1.034a2.11 2.11 0 0 1-.975.572v.079c.295.02.557.11.786.269.228.159.407.369.537.631.129.262.194.559.194.89 0 .467-.13.872-.388 1.213-.255.342-.61.605-1.064.791-.451.182-.966.273-1.546.273a4.14 4.14 0 0 1-1.517-.263c-.444-.179-.797-.431-1.059-.756a1.915 1.915 0 0 1-.412-1.153Zm9.743 2.187a3.12 3.12 0 0 1-1.313-.268 2.21 2.21 0 0 1-.929-.791c-.226-.345-.338-.767-.338-1.268 0-.431.082-.785.248-1.064.166-.278.39-.498.671-.661a3.53 3.53 0 0 1 .945-.368 9.352 9.352 0 0 1 1.064-.189l1.114-.129c.285-.036.492-.094.621-.174.129-.079.194-.209.194-.388v-.034c0-.435-.123-.771-.368-1.01-.242-.238-.603-.358-1.084-.358-.5 0-.895.111-1.183.333-.285.219-.482.463-.592.731l-1.397-.318c.166-.464.408-.838.726-1.124a2.947 2.947 0 0 1 1.109-.626 4.313 4.313 0 0 1 1.317-.199c.305 0 .628.037.97.11.344.069.666.198.964.387.302.189.549.459.741.811.192.348.288.8.288 1.357V516h-1.451v-1.044h-.06a2.11 2.11 0 0 1-.433.567 2.314 2.314 0 0 1-.74.462c-.302.123-.663.184-1.084.184Zm.323-1.193c.411 0 .762-.081 1.054-.244.295-.162.519-.374.671-.636a1.65 1.65 0 0 0 .234-.85v-.985c-.053.053-.156.103-.308.15-.15.043-.32.081-.512.114-.193.03-.38.058-.562.084l-.458.06a3.66 3.66 0 0 0-.79.184c-.235.086-.424.21-.567.373-.139.159-.209.371-.209.636 0 .368.136.647.408.835.272.186.618.279 1.039.279Zm10.601-3.436v1.288h-4.137v-1.288h4.137Zm-3.719-3.176V516h-1.457v-7.636h1.457Zm4.758 0V516h-1.452v-7.636h1.452Zm6.542 7.636v-6.369h-1.829c-.434 0-.772.101-1.014.304a.985.985 0 0 0-.363.795c0 .325.111.587.333.786.225.195.54.293.944.293h2.362v1.203h-2.362c-.563 0-1.05-.093-1.461-.278a2.182 2.182 0 0 1-.945-.801c-.219-.344-.328-.752-.328-1.223 0-.48.113-.895.338-1.243.229-.351.555-.623.979-.815.428-.192.933-.288 1.517-.288h3.226V516h-1.397Zm-5.011 0 2.153-3.858h1.521L183.934 516h-1.521Zm7.44-6.354v-1.282h6.443v1.282h-2.491V516h-1.451v-6.354h-2.501Zm9.472 4.271 3.366-5.553h1.601V516h-1.457v-5.558L199.484 516h-1.616v-7.636h1.457v5.553Zm10.256 2.237c-.752 0-1.4-.161-1.943-.482a3.271 3.271 0 0 1-1.253-1.367c-.292-.59-.438-1.281-.438-2.073 0-.783.146-1.472.438-2.069a3.403 3.403 0 0 1 1.233-1.397c.53-.334 1.15-.502 1.859-.502.431 0 .849.071 1.253.214.404.143.767.366 1.089.671.321.305.575.701.76 1.188.186.484.279 1.073.279 1.765v.527h-6.071v-1.113h4.614c0-.391-.079-.738-.239-1.039a1.794 1.794 0 0 0-.671-.721 1.87 1.87 0 0 0-1.004-.264c-.418 0-.782.103-1.094.308a2.079 2.079 0 0 0-.716.796 2.306 2.306 0 0 0-.248 1.059v.87c0 .51.089.944.268 1.302.183.358.436.632.761.821a2.26 2.26 0 0 0 1.138.278c.282 0 .539-.04.771-.119a1.587 1.587 0 0 0 .989-.97l1.407.254a2.552 2.552 0 0 1-.606 1.089 2.953 2.953 0 0 1-1.089.721c-.434.169-.93.253-1.487.253Z"/></svg>