<svg xmlns="http://www.w3.org/2000/svg" width="480" height="324" fill="none"><rect width="480" height="324" fill="#fff" rx="16"/><path fill="#E7E7E9" d="M480 150v-.75H0v1.5h480V150Z"/><path fill="#fff" d="M12 18c0-6.627 5.373-12 12-12h372c6.627 0 12 5.373 12 12v24c0 6.627-5.373 12-12 12H24c-6.627 0-12-5.373-12-12V18Z"/><path fill="#3D3E43" d="M38.736 28.864c0 1.61-.291 3.002-.873 4.176-.581 1.173-1.38 2.078-2.394 2.714-1.014.637-2.172.955-3.475.955-1.302 0-2.46-.318-3.475-.955-1.014-.636-1.812-1.54-2.394-2.714-.581-1.174-.872-2.566-.872-4.176 0-1.611.29-3.003.872-4.177.582-1.173 1.38-2.078 2.394-2.714 1.014-.636 2.173-.954 3.475-.954 1.303 0 2.461.318 3.475.954 1.015.636 1.813 1.541 2.394 2.715.582 1.173.873 2.565.873 4.176Zm-1.79 0c0-1.323-.221-2.439-.664-3.349-.437-.91-1.031-1.598-1.782-2.065-.746-.468-1.581-.701-2.506-.701-.924 0-1.762.233-2.513.7-.746.468-1.34 1.156-1.782 2.066-.438.91-.656 2.026-.656 3.349 0 1.322.218 2.438.656 3.348.442.91 1.036 1.598 1.782 2.066a4.66 4.66 0 0 0 2.513.7c.925 0 1.76-.233 2.506-.7.75-.468 1.345-1.156 1.782-2.066.443-.91.664-2.026.664-3.348Zm4.005-2.178v-1.64h9.306v1.64H46.5V36.5h-1.76v-9.814h-3.788Zm9.687 13.095V34.86h.954c.234-.243.435-.507.604-.79.17-.284.316-.62.44-1.007.13-.393.239-.87.328-1.432.09-.566.17-1.25.24-2.05l.387-4.534h7.278v9.813h1.76v4.922h-1.76V36.5h-8.471v3.281h-1.76Zm2.953-4.922h5.518v-8.173h-3.878l-.298 2.893a32.41 32.41 0 0 1-.462 3.14c-.184.895-.477 1.608-.88 2.14Zm12.896-5.667h3.28c1.343 0 2.37.34 3.08 1.021.712.681 1.067 1.544 1.067 2.588 0 .686-.159 1.31-.477 1.872-.318.557-.786 1.002-1.402 1.335-.617.328-1.372.492-2.267.492h-4.803V25.046h1.76v9.813h3.043c.696 0 1.268-.184 1.715-.552.447-.367.671-.84.671-1.416 0-.607-.224-1.102-.671-1.484-.447-.383-1.02-.575-1.715-.575h-3.281v-1.64Zm9.247 7.308V25.046h1.76V36.5h-1.76Zm6.294-11.454 2.744 4.683 2.744-4.683h2.029l-3.699 5.727 3.699 5.727h-2.029l-2.744-4.445-2.744 4.445h-2.029l3.64-5.727-3.64-5.727h2.029Z"/><path fill="#6A6C76" fill-rule="evenodd" d="M378.295 26.91a1.037 1.037 0 0 1 1.427 0L384 31.03l4.278-4.12a1.037 1.037 0 0 1 1.427 0 .947.947 0 0 1 0 1.373l-4.992 4.807a1.029 1.029 0 0 1-.713.285c-.267 0-.524-.102-.713-.285l-4.992-4.807a.947.947 0 0 1 0-1.373Z" clip-rule="evenodd"/><path fill="#fff" d="M420 18c0-6.627 5.373-12 12-12h24c6.627 0 12 5.373 12 12v24c0 6.627-5.373 12-12 12h-24c-6.627 0-12-5.373-12-12V18Z"/><path fill="#6A6C76" d="M438 28a2 2 0 1 1 0 4 2 2 0 0 1 0-4ZM444 28a2 2 0 1 1 0 4 2 2 0 0 1 0-4ZM452 30a2 2 0 1 0-4 0 2 2 0 0 0 4 0Z"/><path fill="#fff" d="M12 84c0-9.941 8.059-18 18-18h420c9.941 0 18 8.059 18 18v36c0 9.941-8.059 18-18 18H30c-9.941 0-18-8.059-18-18V84Z"/><path fill="#3D3E43" d="M26.114 91.546h2.08v13.738h.17l9.545-13.739h2.046V109H37.84V95.296h-.17L28.158 109h-2.045V91.546Zm8.59-4.364h1.876c0 .92-.319 1.673-.955 2.258-.636.586-1.5.878-2.59.878-1.075 0-1.93-.292-2.566-.878-.63-.585-.946-1.338-.946-2.258h1.875c0 .443.122.832.366 1.167.25.336.674.503 1.27.503.597 0 1.023-.167 1.279-.503.26-.335.392-.724.392-1.167Zm14.525 22.091c-1.181 0-2.218-.282-3.11-.844-.887-.563-1.58-1.349-2.08-2.361-.494-1.011-.741-2.193-.741-3.545 0-1.364.247-2.554.741-3.571.5-1.017 1.193-1.807 2.08-2.37.892-.562 1.929-.843 3.11-.843 1.182 0 2.216.28 3.103.843.892.563 1.585 1.353 2.08 2.37.5 1.017.75 2.207.75 3.571 0 1.352-.25 2.534-.75 3.545-.495 1.012-1.188 1.798-2.08 2.361-.887.562-1.92.844-3.103.844Zm0-1.807c.898 0 1.637-.23 2.216-.69.58-.461 1.009-1.066 1.287-1.816.279-.75.418-1.562.418-2.437 0-.875-.14-1.691-.418-2.446-.278-.756-.707-1.367-1.287-1.833-.58-.466-1.318-.698-2.216-.698-.897 0-1.636.232-2.215.698-.58.466-1.009 1.077-1.287 1.833a7.018 7.018 0 0 0-.418 2.446c0 .875.14 1.687.418 2.437.278.75.707 1.355 1.287 1.816.579.46 1.318.69 2.215.69Zm17.082-11.557v1.875h-6.068V109H58.23V95.91h8.08Zm6.109 13.398c-.83 0-1.583-.156-2.259-.469a3.88 3.88 0 0 1-1.61-1.372c-.398-.602-.597-1.33-.597-2.182 0-.75.148-1.358.443-1.824.295-.471.69-.841 1.185-1.108a6.202 6.202 0 0 1 1.636-.596 19.521 19.521 0 0 1 1.815-.324c.796-.102 1.44-.179 1.935-.23.5-.057.864-.151 1.09-.282.234-.13.35-.358.35-.681v-.069c0-.84-.23-1.494-.69-1.96-.455-.466-1.145-.699-2.071-.699-.96 0-1.713.21-2.259.631-.545.42-.928.87-1.15 1.347l-1.91-.682c.342-.796.796-1.415 1.364-1.858a5.109 5.109 0 0 1 1.876-.938 7.78 7.78 0 0 1 2.01-.272c.421 0 .904.05 1.45.153a4.635 4.635 0 0 1 1.593.605c.517.307.947.77 1.287 1.39.341.619.512 1.448.512 2.488V109h-2.012v-1.773h-.102c-.136.284-.364.588-.682.912-.318.324-.741.6-1.27.827-.528.227-1.173.341-1.934.341Zm.307-1.807c.795 0 1.465-.156 2.01-.469.552-.312.967-.716 1.245-1.21a3.083 3.083 0 0 0 .426-1.56v-1.841c-.085.103-.272.196-.562.282a9.77 9.77 0 0 1-.989.213c-.37.057-.73.108-1.082.153-.347.04-.628.074-.844.102a7.7 7.7 0 0 0-1.466.333c-.449.148-.812.372-1.09.673-.273.296-.41.699-.41 1.21 0 .699.259 1.228.776 1.586.522.352 1.184.528 1.986.528Z"/><path fill="#0F0F11" d="M25.85 185v-15.273h5.339c1.064 0 1.941.184 2.632.552.691.363 1.206.853 1.544 1.469.338.612.507 1.29.507 2.036 0 .656-.117 1.198-.35 1.626a2.734 2.734 0 0 1-.91 1.014 4.122 4.122 0 0 1-1.216.552v.149c.468.03.938.194 1.41.492s.867.726 1.186 1.283c.318.557.477 1.238.477 2.043 0 .766-.174 1.454-.522 2.066-.348.611-.898 1.096-1.648 1.454-.751.358-1.728.537-2.931.537h-5.519Zm1.849-1.641h3.669c1.208 0 2.066-.233 2.573-.701.512-.472.768-1.044.768-1.715 0-.517-.132-.994-.395-1.432a2.867 2.867 0 0 0-1.127-1.059c-.487-.268-1.063-.402-1.73-.402H27.7v5.309Zm0-6.92h3.43c.557 0 1.06-.109 1.507-.328.452-.219.81-.527 1.073-.925.269-.398.403-.865.403-1.402 0-.671-.233-1.24-.7-1.708-.468-.472-1.209-.708-2.223-.708h-3.49v5.071Zm11.57 12.856v-15.75h1.7v1.82h.21c.128-.199.307-.452.536-.761.234-.313.567-.591 1-.835.437-.248 1.028-.373 1.774-.373.965 0 1.815.241 2.55.724.736.482 1.31 1.166 1.723 2.05.413.885.62 1.929.62 3.133 0 1.213-.207 2.264-.62 3.154-.412.885-.984 1.571-1.715 2.058-.73.483-1.573.724-2.528.724-.736 0-1.325-.122-1.767-.366-.443-.248-.783-.529-1.022-.842a11.45 11.45 0 0 1-.552-.791h-.15v6.055H39.27Zm1.73-10.022c0 .865.127 1.628.38 2.289.254.656.624 1.171 1.112 1.544.487.368 1.083.552 1.79.552.735 0 1.35-.194 1.841-.582.498-.393.87-.92 1.119-1.581.254-.666.38-1.407.38-2.222 0-.806-.124-1.532-.373-2.178-.243-.651-.614-1.166-1.11-1.544-.493-.382-1.112-.574-1.858-.574-.715 0-1.317.182-1.804.545-.487.358-.855.86-1.104 1.506-.249.641-.373 1.39-.373 2.245Zm15.87 5.966c-1.104 0-2.056-.244-2.857-.731-.795-.492-1.41-1.178-1.842-2.058-.427-.885-.641-1.914-.641-3.088 0-1.173.214-2.207.641-3.102.433-.9 1.034-1.601 1.805-2.103.776-.507 1.68-.761 2.715-.761.596 0 1.185.1 1.767.299a4.373 4.373 0 0 1 1.588.969c.478.443.858 1.029 1.141 1.76.284.731.425 1.631.425 2.7v.745h-8.83v-1.521h7.04c0-.646-.129-1.223-.387-1.73a2.928 2.928 0 0 0-1.089-1.201c-.467-.293-1.02-.44-1.655-.44-.701 0-1.308.174-1.82.522a3.434 3.434 0 0 0-1.171 1.343 3.939 3.939 0 0 0-.41 1.774v1.015c0 .865.149 1.598.447 2.2.304.596.724 1.051 1.26 1.364.538.309 1.161.463 1.872.463.463 0 .88-.065 1.253-.194.378-.134.704-.333.977-.597.274-.268.485-.601.634-.999l1.7.477a3.764 3.764 0 0 1-.902 1.521 4.4 4.4 0 0 1-1.566 1.015c-.621.238-1.32.358-2.096.358Zm13.684-2.625 3.997-9.069h1.67L71.27 185h-1.432l-4.862-11.455h1.64l3.938 9.069Zm-4.504-9.069V185h-1.76v-11.455h1.76ZM75.056 185v-11.455h1.76V185h-1.76Zm11.872 0v-9.844h-3.043c-.685 0-1.225.159-1.618.478-.392.318-.589.755-.589 1.312 0 .547.177.977.53 1.29.358.313.847.47 1.469.47h3.699v1.641h-3.7c-.775 0-1.444-.137-2.005-.411a2.998 2.998 0 0 1-1.298-1.17c-.303-.512-.455-1.119-.455-1.82 0-.706.16-1.312.478-1.82.318-.507.773-.897 1.364-1.17.597-.274 1.305-.411 2.126-.411H88.6V185h-1.67Zm-7.636 0 3.251-5.697h1.91L81.201 185h-1.91Z"/><path fill="#fff" d="M12 216c0-6.627 5.373-12 12-12h198c6.627 0 12 5.373 12 12v24c0 6.627-5.373 12-12 12H24c-6.627 0-12-5.373-12-12v-24Z"/><path fill="#6A6C76" d="M35.076 228.383a.999.999 0 0 1-.076-.38V222a1 1 0 0 1 2 0v5.586l2.535 2.535a1 1 0 0 1-1.414 1.415l-2.827-2.828-.008-.007a1.007 1.007 0 0 1-.21-.318Z"/><path fill="#6A6C76" fill-rule="evenodd" d="M46 228c0 5.523-4.477 10-10 10s-10-4.477-10-10 4.477-10 10-10 10 4.477 10 10Zm-10 8a8 8 0 1 0 0-16 8 8 0 0 0 0 16Z" clip-rule="evenodd"/><path fill="#3D3E43" d="M60.95 220.727V236H59.1v-13.334h-.089l-3.728 2.476v-1.879l3.818-2.536h1.85ZM65.343 236v-1.342l5.04-5.519a35.024 35.024 0 0 0 1.463-1.685c.382-.482.666-.935.85-1.357.189-.428.283-.875.283-1.343 0-.537-.13-1.002-.388-1.394a2.516 2.516 0 0 0-1.044-.91 3.381 3.381 0 0 0-1.491-.321c-.587 0-1.099.122-1.537.366a2.513 2.513 0 0 0-1.006 1.006c-.234.433-.35.94-.35 1.522h-1.76c0-.895.206-1.681.618-2.357a4.302 4.302 0 0 1 1.686-1.581c.716-.378 1.519-.567 2.408-.567.895 0 1.688.189 2.38.567a4.266 4.266 0 0 1 1.625 1.529c.393.641.59 1.355.59 2.14 0 .562-.103 1.111-.307 1.648-.199.532-.547 1.126-1.044 1.783-.492.651-1.175 1.446-2.05 2.386l-3.43 3.669v.119h7.099V236h-9.635Zm14.027-1.954c-.368 0-.684-.132-.947-.395a1.292 1.292 0 0 1-.395-.947c0-.368.131-.684.395-.947a1.29 1.29 0 0 1 .947-.395c.368 0 .684.131.947.395.264.263.395.579.395.947 0 .243-.062.467-.186.671-.12.204-.281.368-.485.492-.199.12-.422.179-.671.179Zm0-7.726a1.29 1.29 0 0 1-.947-.395 1.29 1.29 0 0 1-.395-.947c0-.368.131-.684.395-.947a1.29 1.29 0 0 1 .947-.395c.368 0 .684.131.947.395.264.263.395.579.395.947 0 .244-.062.467-.186.671-.12.204-.281.368-.485.492-.199.12-.422.179-.671.179Zm9.452 9.889c-1.123 0-2.08-.306-2.87-.917-.791-.617-1.395-1.509-1.813-2.678-.418-1.173-.626-2.59-.626-4.25 0-1.651.208-3.06.626-4.229.423-1.173 1.03-2.068 1.82-2.684.795-.622 1.75-.933 2.863-.933 1.114 0 2.066.311 2.856.933.796.616 1.402 1.511 1.82 2.684.423 1.169.634 2.578.634 4.229 0 1.66-.209 3.077-.627 4.25-.417 1.169-1.021 2.061-1.812 2.678-.79.611-1.747.917-2.87.917Zm0-1.641c1.114 0 1.979-.537 2.595-1.611.617-1.073.925-2.605.925-4.593 0-1.323-.141-2.449-.425-3.379-.278-.929-.681-1.638-1.208-2.125-.522-.487-1.15-.731-1.887-.731-1.103 0-1.966.545-2.587 1.633-.622 1.084-.933 2.618-.933 4.602 0 1.322.14 2.446.418 3.37.278.925.679 1.629 1.2 2.111.528.482 1.162.723 1.902.723Zm13.125 1.641c-1.123 0-2.08-.306-2.87-.917-.791-.617-1.395-1.509-1.813-2.678-.418-1.173-.626-2.59-.626-4.25 0-1.651.208-3.06.626-4.229.423-1.173 1.03-2.068 1.82-2.684.795-.622 1.75-.933 2.863-.933 1.114 0 2.066.311 2.856.933.796.616 1.402 1.511 1.82 2.684.423 1.169.634 2.578.634 4.229 0 1.66-.209 3.077-.626 4.25-.418 1.169-1.022 2.061-1.813 2.678-.79.611-1.747.917-2.871.917Zm0-1.641c1.114 0 1.979-.537 2.595-1.611.617-1.073.925-2.605.925-4.593 0-1.323-.142-2.449-.425-3.379-.278-.929-.681-1.638-1.208-2.125-.522-.487-1.151-.731-1.887-.731-1.103 0-1.966.545-2.587 1.633-.622 1.084-.933 2.618-.933 4.602 0 1.322.14 2.446.418 3.37.278.925.679 1.629 1.201 2.111.527.482 1.16.723 1.901.723Z"/><path fill="#fff" d="M246 216c0-6.627 5.373-12 12-12h198c6.627 0 12 5.373 12 12v24c0 6.627-5.373 12-12 12H258c-6.627 0-12-5.373-12-12v-24Z"/><path fill="#6A6C76" fill-rule="evenodd" d="M270.293 221.293a.999.999 0 0 1 1.414 0l6 6a.999.999 0 0 1 0 1.414l-6 6a.999.999 0 1 1-1.414-1.414l4.293-4.293H263a1 1 0 0 1 0-2h11.586l-4.293-4.293a.999.999 0 0 1 0-1.414Z" clip-rule="evenodd"/><path fill="#3D3E43" d="M294.95 220.727V236h-1.849v-13.334h-.09l-3.728 2.476v-1.879l3.818-2.536h1.849Zm9.553 15.482c-.984 0-1.862-.169-2.632-.507-.766-.338-1.375-.808-1.827-1.41-.448-.606-.691-1.31-.731-2.11h1.879c.04.492.209.917.507 1.275.299.353.689.626 1.171.82a4.26 4.26 0 0 0 1.603.291c.657 0 1.238-.114 1.745-.343.507-.229.905-.547 1.194-.954.288-.408.432-.88.432-1.417 0-.562-.139-1.057-.418-1.484-.278-.433-.686-.771-1.223-1.015-.536-.243-1.193-.365-1.968-.365h-1.223v-1.641h1.223c.606 0 1.138-.109 1.596-.328a2.565 2.565 0 0 0 1.081-.924c.263-.398.395-.865.395-1.402 0-.517-.114-.967-.343-1.35a2.351 2.351 0 0 0-.969-.895c-.413-.214-.9-.321-1.462-.321-.527 0-1.024.097-1.491.291a2.774 2.774 0 0 0-1.134.828c-.293.358-.452.79-.477 1.297h-1.79c.03-.8.271-1.501.723-2.103a4.56 4.56 0 0 1 1.775-1.416c.736-.339 1.544-.508 2.424-.508.944 0 1.755.192 2.431.575.676.378 1.196.877 1.559 1.499a3.93 3.93 0 0 1 .544 2.013c0 .86-.226 1.594-.679 2.2-.447.607-1.056 1.027-1.827 1.26v.12c.965.159 1.718.569 2.26 1.23.542.656.813 1.469.813 2.439 0 .83-.226 1.576-.679 2.237-.447.656-1.059 1.173-1.834 1.551-.776.378-1.658.567-2.648.567Zm9.523-2.163c-.368 0-.683-.132-.947-.395a1.294 1.294 0 0 1-.395-.947c0-.368.132-.684.395-.947a1.29 1.29 0 0 1 .947-.395c.368 0 .684.131.947.395.264.263.396.579.396.947 0 .243-.063.467-.187.671a1.385 1.385 0 0 1-.485.492 1.27 1.27 0 0 1-.671.179Zm0-7.726a1.29 1.29 0 0 1-.947-.395 1.293 1.293 0 0 1-.395-.947c0-.368.132-.684.395-.947a1.29 1.29 0 0 1 .947-.395c.368 0 .684.131.947.395.264.263.396.579.396.947 0 .244-.063.467-.187.671a1.385 1.385 0 0 1-.485.492 1.27 1.27 0 0 1-.671.179Zm9.631 9.889c-.984 0-1.861-.169-2.632-.507-.766-.338-1.375-.808-1.827-1.41-.447-.606-.691-1.31-.731-2.11h1.879c.04.492.209.917.508 1.275.298.353.688.626 1.17.82a4.265 4.265 0 0 0 1.604.291c.656 0 1.238-.114 1.745-.343.507-.229.905-.547 1.193-.954.288-.408.432-.88.432-1.417 0-.562-.139-1.057-.417-1.484-.279-.433-.686-.771-1.223-1.015-.537-.243-1.193-.365-1.969-.365h-1.223v-1.641h1.223c.607 0 1.139-.109 1.596-.328a2.559 2.559 0 0 0 1.081-.924c.264-.398.395-.865.395-1.402 0-.517-.114-.967-.343-1.35a2.339 2.339 0 0 0-.969-.895c-.413-.214-.9-.321-1.462-.321-.527 0-1.024.097-1.491.291a2.78 2.78 0 0 0-1.134.828c-.293.358-.452.79-.477 1.297h-1.79c.03-.8.271-1.501.724-2.103a4.552 4.552 0 0 1 1.775-1.416c.735-.339 1.543-.508 2.423-.508.945 0 1.755.192 2.431.575.676.378 1.196.877 1.559 1.499a3.92 3.92 0 0 1 .544 2.013c0 .86-.226 1.594-.678 2.2-.448.607-1.057 1.027-1.827 1.26v.12c.964.159 1.717.569 2.259 1.23.542.656.813 1.469.813 2.439 0 .83-.226 1.576-.679 2.237-.447.656-1.059 1.173-1.834 1.551-.776.378-1.658.567-2.648.567Zm13.193 0c-1.124 0-2.081-.306-2.871-.917-.791-.617-1.395-1.509-1.813-2.678-.417-1.173-.626-2.59-.626-4.25 0-1.651.209-3.06.626-4.229.423-1.173 1.029-2.068 1.82-2.684.795-.622 1.75-.933 2.864-.933 1.113 0 2.065.311 2.856.933.795.616 1.402 1.511 1.819 2.684.423 1.169.634 2.578.634 4.229 0 1.66-.209 3.077-.626 4.25-.418 1.169-1.022 2.061-1.812 2.678-.791.611-1.748.917-2.871.917Zm0-1.641c1.113 0 1.978-.537 2.595-1.611.616-1.073.924-2.605.924-4.593 0-1.323-.141-2.449-.425-3.379-.278-.929-.681-1.638-1.208-2.125-.522-.487-1.151-.731-1.886-.731-1.104 0-1.967.545-2.588 1.633-.622 1.084-.932 2.618-.932 4.602 0 1.322.139 2.446.417 3.37.279.925.679 1.629 1.201 2.111.527.482 1.161.723 1.902.723Z"/><path fill="#6A6C76" d="M362.95 220.727V236h-1.849v-13.334h-.09l-3.728 2.476v-1.879l3.818-2.536h1.849Zm13.252 3.818V236h-1.76v-11.455h1.76Zm-.686 5.459v1.641c-.398.149-.793.281-1.186.395-.392.11-.805.197-1.238.261-.432.06-.907.09-1.424.09-1.298 0-2.339-.351-3.125-1.052-.78-.701-1.17-1.752-1.17-3.154v-3.669h1.759v3.669c0 .586.112 1.069.336 1.446.224.378.527.659.91.843.383.184.813.276 1.29.276.746 0 1.419-.067 2.021-.201.606-.14 1.215-.321 1.827-.545Zm14.952 6.205c-.984 0-1.862-.169-2.632-.507-.766-.338-1.375-.808-1.827-1.41-.448-.606-.692-1.31-.731-2.11h1.879c.04.492.209.917.507 1.275a2.93 2.93 0 0 0 1.171.82 4.26 4.26 0 0 0 1.603.291c.656 0 1.238-.114 1.745-.343.507-.229.905-.547 1.193-.954.289-.408.433-.88.433-1.417 0-.562-.139-1.057-.418-1.484-.278-.433-.686-.771-1.223-1.015-.537-.243-1.193-.365-1.968-.365h-1.223v-1.641h1.223c.606 0 1.138-.109 1.595-.328a2.562 2.562 0 0 0 1.082-.924c.263-.398.395-.865.395-1.402 0-.517-.114-.967-.343-1.35a2.351 2.351 0 0 0-.969-.895c-.413-.214-.9-.321-1.462-.321-.527 0-1.024.097-1.492.291-.462.189-.84.465-1.133.828-.293.358-.453.79-.477 1.297h-1.79c.03-.8.271-1.501.723-2.103a4.56 4.56 0 0 1 1.775-1.416c.736-.339 1.544-.508 2.424-.508.944 0 1.755.192 2.431.575.676.378 1.195.877 1.558 1.499.363.621.545 1.292.545 2.013 0 .86-.226 1.594-.679 2.2-.447.607-1.056 1.027-1.827 1.26v.12c.965.159 1.718.569 2.26 1.23.542.656.813 1.469.813 2.439 0 .83-.227 1.576-.679 2.237-.448.656-1.059 1.173-1.835 1.551-.775.378-1.658.567-2.647.567Zm13.192 0c-1.123 0-2.08-.306-2.871-.917-.79-.617-1.394-1.509-1.812-2.678-.418-1.173-.627-2.59-.627-4.25 0-1.651.209-3.06.627-4.229.423-1.173 1.029-2.068 1.82-2.684.795-.622 1.75-.933 2.863-.933 1.114 0 2.066.311 2.856.933.796.616 1.402 1.511 1.82 2.684.423 1.169.634 2.578.634 4.229 0 1.66-.209 3.077-.627 4.25-.417 1.169-1.021 2.061-1.812 2.678-.79.611-1.747.917-2.871.917Zm0-1.641c1.114 0 1.979-.537 2.595-1.611.617-1.073.925-2.605.925-4.593 0-1.323-.142-2.449-.425-3.379-.278-.929-.681-1.638-1.208-2.125-.522-.487-1.151-.731-1.887-.731-1.104 0-1.966.545-2.588 1.633-.621 1.084-.932 2.618-.932 4.602 0 1.322.139 2.446.418 3.37.278.925.679 1.629 1.201 2.111.527.482 1.16.723 1.901.723Zm14.438-.954 3.997-9.069h1.67L418.814 236h-1.432l-4.862-11.455h1.64l3.938 9.069Zm-4.505-9.069V236h-1.76v-11.455h1.76ZM422.602 236v-11.455h1.76V236h-1.76Z"/><path fill="#fff" d="M12 276c0-6.627 5.373-12 12-12h198c6.627 0 12 5.373 12 12v24c0 6.627-5.373 12-12 12H24c-6.627 0-12-5.373-12-12v-24Z"/><path fill="#6A6C76" fill-rule="evenodd" d="M34 279a1 1 0 0 0-2 0 5 5 0 0 0-5 5v8a5 5 0 0 0 5 5h8a5 5 0 0 0 5-5v-8a5 5 0 0 0-5-5 1 1 0 0 0-2 0h-4Zm4 3v-1h-4v1a1 1 0 0 1-2 0v-1a3 3 0 0 0-3 3v1h14v-1a3 3 0 0 0-3-3v1a1 1 0 0 1-2 0Zm5 5H29v5a3 3 0 0 0 3 3h8a3 3 0 0 0 3-3v-5Z" clip-rule="evenodd"/><path fill="#3D3E43" d="M68.14 285.5h-1.85a3.848 3.848 0 0 0-1.559-2.416 4.184 4.184 0 0 0-1.275-.627 5.1 5.1 0 0 0-1.462-.208c-.924 0-1.762.233-2.513.701-.746.467-1.34 1.155-1.782 2.065-.438.91-.656 2.026-.656 3.349 0 1.322.218 2.438.656 3.348.442.91 1.036 1.598 1.782 2.066.75.467 1.589.701 2.513.701a5.1 5.1 0 0 0 1.462-.209 4.283 4.283 0 0 0 1.275-.619 3.914 3.914 0 0 0 1.559-2.424h1.85a6.166 6.166 0 0 1-.761 2.096 5.725 5.725 0 0 1-1.373 1.573 5.985 5.985 0 0 1-1.842.977c-.676.224-1.4.336-2.17.336-1.302 0-2.46-.318-3.475-.955-1.014-.636-1.812-1.541-2.394-2.714-.581-1.174-.872-2.566-.872-4.176 0-1.611.29-3.003.872-4.176.582-1.174 1.38-2.079 2.394-2.715 1.014-.636 2.173-.955 3.475-.955.77 0 1.494.112 2.17.336a5.939 5.939 0 0 1 1.842.984c.547.428 1.005.95 1.373 1.566a6.09 6.09 0 0 1 .76 2.096Zm2.75 14.795v-15.75h1.7v1.82h.208c.13-.199.308-.452.537-.761.234-.313.567-.591 1-.835.437-.248 1.029-.373 1.774-.373.965 0 1.815.241 2.55.724.736.482 1.31 1.166 1.723 2.05.413.885.62 1.929.62 3.133 0 1.213-.207 2.264-.62 3.154-.412.885-.984 1.571-1.715 2.058-.73.483-1.573.724-2.528.724-.736 0-1.325-.122-1.767-.366-.443-.248-.783-.529-1.022-.842a11.422 11.422 0 0 1-.552-.791h-.149v6.055h-1.76Zm1.73-10.022c0 .865.126 1.628.38 2.289.253.656.624 1.171 1.11 1.544.488.368 1.085.552 1.79.552.736 0 1.35-.194 1.843-.582.497-.393.87-.92 1.118-1.581.254-.666.38-1.407.38-2.222 0-.806-.124-1.532-.373-2.178-.243-.651-.614-1.166-1.11-1.544-.493-.382-1.112-.574-1.858-.574-.715 0-1.317.182-1.804.545-.487.358-.855.86-1.104 1.506-.249.641-.373 1.39-.373 2.245ZM89.561 296v-1.342l5.042-5.519a35.089 35.089 0 0 0 1.461-1.685c.383-.482.666-.935.85-1.357.19-.428.284-.875.284-1.343 0-.537-.13-1.002-.388-1.394a2.517 2.517 0 0 0-1.044-.91 3.382 3.382 0 0 0-1.492-.321c-.586 0-1.098.122-1.536.366a2.513 2.513 0 0 0-1.007 1.006c-.233.433-.35.94-.35 1.522h-1.76c0-.895.206-1.681.619-2.357a4.303 4.303 0 0 1 1.685-1.581c.716-.378 1.52-.567 2.41-.567.894 0 1.687.189 2.378.567a4.267 4.267 0 0 1 1.626 1.529c.392.641.589 1.355.589 2.14 0 .562-.102 1.111-.306 1.648-.199.532-.547 1.126-1.044 1.783-.492.651-1.176 1.446-2.05 2.386l-3.431 3.669v.119h7.1V296h-9.636Zm17.607.209c-1.024 0-1.929-.182-2.714-.545-.781-.367-1.39-.872-1.827-1.513-.438-.647-.654-1.383-.649-2.208a4.068 4.068 0 0 1 .38-1.79 3.916 3.916 0 0 1 1.059-1.379 3.252 3.252 0 0 1 1.514-.709v-.089a2.948 2.948 0 0 1-1.745-1.231c-.432-.636-.646-1.359-.641-2.17-.005-.775.191-1.469.589-2.08a4.146 4.146 0 0 1 1.64-1.447c.701-.353 1.499-.53 2.394-.53.885 0 1.676.177 2.372.53.696.353 1.243.835 1.64 1.447.403.611.607 1.305.612 2.08-.005.811-.226 1.534-.664 2.17a2.943 2.943 0 0 1-1.722 1.231v.089c.551.1 1.049.336 1.491.709.442.368.795.828 1.059 1.379.263.547.398 1.144.403 1.79-.005.825-.229 1.561-.672 2.208-.437.641-1.046 1.146-1.827 1.513-.775.363-1.673.545-2.692.545Zm0-1.641c.691 0 1.288-.112 1.79-.335.502-.224.89-.54 1.163-.947.274-.408.413-.885.418-1.432a2.749 2.749 0 0 0-.447-1.529 3.034 3.034 0 0 0-1.201-1.044c-.502-.254-1.076-.38-1.723-.38-.651 0-1.233.126-1.745.38a3.024 3.024 0 0 0-1.2 1.044c-.289.442-.43.952-.425 1.529-.005.547.126 1.024.395 1.432.273.407.664.723 1.171.947.507.223 1.108.335 1.804.335Zm0-7.248c.547 0 1.032-.11 1.454-.329a2.482 2.482 0 0 0 1.007-.917c.244-.393.368-.852.373-1.379-.005-.517-.127-.967-.365-1.35a2.377 2.377 0 0 0-.992-.895c-.423-.214-.915-.321-1.477-.321-.571 0-1.071.107-1.499.321a2.31 2.31 0 0 0-.991.895c-.234.383-.348.833-.344 1.35-.004.527.112.986.351 1.379.244.393.579.699 1.007.917.427.219.919.329 1.476.329Zm20.249 6.294 3.997-9.069h1.671L128.134 296h-1.432l-4.862-11.455h1.64l3.938 9.069Zm-4.504-9.069V296h-1.76v-11.455h1.76ZM131.922 296v-11.455h1.76V296h-1.76Zm8.353.268c-.726 0-1.385-.136-1.977-.41a3.39 3.39 0 0 1-1.409-1.2c-.348-.527-.522-1.164-.522-1.909 0-.657.129-1.189.388-1.596a2.737 2.737 0 0 1 1.036-.97c.433-.233.91-.407 1.432-.522a17.32 17.32 0 0 1 1.588-.283c.696-.09 1.261-.157 1.693-.202.438-.049.756-.131.955-.246.204-.114.306-.313.306-.596v-.06c0-.736-.202-1.307-.604-1.715-.398-.408-1.002-.612-1.813-.612-.84 0-1.499.184-1.976.552-.477.368-.813.761-1.007 1.179l-1.67-.597c.298-.696.696-1.238 1.193-1.626a4.463 4.463 0 0 1 1.641-.82 6.812 6.812 0 0 1 1.76-.239c.368 0 .79.045 1.267.135.483.084.948.261 1.395.529.452.268.828.674 1.126 1.216.298.541.448 1.267.448 2.177V296h-1.76v-1.551h-.09c-.119.248-.318.514-.597.798-.278.283-.648.524-1.111.723-.462.199-1.026.298-1.692.298Zm.268-1.58c.696 0 1.283-.137 1.76-.411.482-.273.845-.626 1.089-1.059.248-.432.373-.887.373-1.364v-1.611c-.075.089-.239.171-.493.246-.248.07-.537.132-.865.186-.323.05-.639.095-.947.135-.303.034-.549.064-.738.089-.457.06-.885.157-1.283.291a2.212 2.212 0 0 0-.954.589c-.239.259-.358.612-.358 1.059 0 .612.226 1.074.678 1.387.458.308 1.037.463 1.738.463ZM155.627 296v-9.844h-3.042c-.686 0-1.226.159-1.618.478-.393.318-.59.755-.59 1.312 0 .547.177.977.53 1.29.358.313.848.47 1.469.47h3.699v1.641h-3.699c-.776 0-1.444-.137-2.006-.411a3.002 3.002 0 0 1-1.298-1.17c-.303-.512-.455-1.119-.455-1.82 0-.706.16-1.312.478-1.82.318-.507.773-.897 1.364-1.17.597-.274 1.305-.411 2.126-.411h4.713V296h-1.671Zm-7.636 0 3.251-5.697h1.91L149.9 296h-1.909Z"/></svg>