<svg width="757" height="394" fill="none" xmlns="http://www.w3.org/2000/svg"><path d="M504.072 27.419c-55.904-8.38-65.685 111.94-121.584 103.525-34.292-5.162-35.981-58.773-70.306-53.835-32.743 4.71-25.721 46.83-52.74 65.771C185.202 194.927 92.707.618 34.597 83.08-49.798 202.839 238.105 209.963 189.19 302.6c-26.701 50.566-132.712 24.129-123.056 80.403 14.52 84.631 158.182-30.2 212.723 33.306 36.475 42.471-15.326 116.275 36.377 138.239 60.227 25.586 59.773-92.34 121.121-115.157 109.399-40.688 186.543 199.384 272.992 121.418 86.655-78.151-140.794-173.231-97.703-281.257 20.903-52.401 124.18-52.197 103.276-104.598-22.163-55.555-113.286 27.364-164.01-4.853-50.415-32.021 12.353-133.81-46.839-142.682Z" stroke="#fff" stroke-width="53.872" stroke-dasharray="3.59 3.59"/></svg>