<svg width="493" height="442" fill="none" xmlns="http://www.w3.org/2000/svg"><path d="M242.786-11.4 219.017-135m66.355 90.84 15.351-62.049m-15.351 372.291 32.683 160.333m-75.269-111.191-10.399 67.013M383.419 70.859 478 21.362M121.96 70.86 15 3.492m60.413 92.329h-50.51m120.826 123.6-91.61 76.941m339.699-101.547 72.793 37.052M256.785 70.859l76.58-67.367-22.84 105.093 92.702 26.273-92.702 26.273 22.84 70.736-69.19-37.052L197 286.434l8.061-109.135-129.648-22.904 109.931-45.81-21.26-99.703 92.701 61.977Z" stroke="#fff" stroke-width="29.823" stroke-linecap="round" stroke-linejoin="round"/></svg>