<svg width="197" height="61" fill="none" xmlns="http://www.w3.org/2000/svg"><path d="M29.977 60.545c-4.773 0-9.015-.651-12.727-1.954-3.697-1.288-6.818-3.19-9.364-5.705-2.545-2.5-4.477-5.553-5.795-9.159C.773 40.121.106 36 .09 31.364c.015-4.53.69-8.614 2.023-12.25 1.333-3.652 3.28-6.773 5.84-9.364 2.561-2.606 5.69-4.606 9.387-6 3.697-1.394 7.901-2.09 12.613-2.09 4.44 0 8.372.673 11.796 2.022 3.44 1.348 6.34 3.227 8.705 5.636 2.378 2.394 4.174 5.197 5.386 8.41 1.227 3.196 1.84 6.666 1.84 10.408 0 2.591-.196 5.046-.59 7.364-.394 2.303-1.068 4.349-2.023 6.136-.94 1.788-2.22 3.212-3.84 4.273-1.622 1.046-3.652 1.614-6.092 1.705-1.53.075-2.87-.069-4.022-.432-1.152-.364-2.084-.932-2.796-1.705-.697-.788-1.136-1.75-1.318-2.886h-.273c-.348.909-1.007 1.742-1.977 2.5-.955.742-2.136 1.326-3.546 1.75-1.409.409-2.977.576-4.704.5-1.849-.091-3.56-.515-5.136-1.273a12.707 12.707 0 0 1-4.091-3.227c-1.152-1.394-2.046-3.076-2.682-5.046-.636-1.97-.955-4.204-.955-6.704 0-2.44.349-4.591 1.046-6.455.697-1.863 1.629-3.454 2.795-4.772 1.182-1.319 2.515-2.349 4-3.091a14.223 14.223 0 0 1 4.591-1.455c1.636-.227 3.174-.204 4.614.068 1.44.273 2.636.69 3.59 1.25.97.561 1.577 1.175 1.819 1.841h.318v-2.545h6.341v21.636c.015 1.137.288 2.053.818 2.75.546.697 1.303 1.046 2.273 1.046 1.212 0 2.19-.478 2.932-1.432.757-.97 1.303-2.455 1.636-4.455.349-2.015.515-4.59.5-7.727.015-2.576-.326-4.91-1.023-7-.681-2.106-1.651-3.954-2.909-5.546a16.736 16.736 0 0 0-4.522-3.977c-1.743-1.075-3.682-1.886-5.819-2.432-2.136-.545-4.416-.818-6.84-.818-3.713 0-6.978.568-9.796 1.705-2.818 1.121-5.182 2.72-7.09 4.795-1.895 2.076-3.327 4.538-4.296 7.387-.955 2.833-1.432 5.97-1.432 9.409 0 3.682.5 6.947 1.5 9.795 1.015 2.834 2.5 5.22 4.454 7.16 1.955 1.939 4.372 3.408 7.25 4.408 2.894 1 6.22 1.5 9.978 1.5a31.06 31.06 0 0 0 5.068-.409 43.506 43.506 0 0 0 4.454-.954c1.319-.364 2.334-.682 3.046-.955l1.932 5.773c-.94.485-2.212.954-3.819 1.409-1.59.455-3.348.826-5.272 1.114a38.81 38.81 0 0 1-5.796.431Zm-1.59-19.727c1.924 0 3.462-.371 4.613-1.113 1.151-.758 1.977-1.88 2.477-3.364.5-1.485.743-3.333.728-5.546 0-2.06-.258-3.75-.773-5.068-.515-1.318-1.341-2.295-2.477-2.931-1.137-.637-2.644-.955-4.523-.955-1.697 0-3.144.386-4.341 1.159-1.182.773-2.091 1.84-2.727 3.204-.622 1.349-.932 2.887-.932 4.614 0 1.727.25 3.356.75 4.887.515 1.515 1.348 2.75 2.5 3.704 1.167.94 2.735 1.41 4.704 1.41Zm44.505-13.772V47.5h-8.227V.955h8.045v17.568h.41c.817-1.97 2.083-3.523 3.795-4.66 1.727-1.15 3.924-1.727 6.59-1.727 2.425 0 4.539.508 6.342 1.523s3.197 2.5 4.181 4.455c1 1.954 1.5 4.34 1.5 7.159V47.5h-8.227V26.546c0-2.349-.606-4.175-1.818-5.478-1.197-1.318-2.879-1.977-5.046-1.977-1.454 0-2.757.318-3.909.954-1.136.622-2.03 1.523-2.681 2.705-.637 1.182-.955 2.614-.955 4.296Zm46.477 21.136c-3.5 0-6.522-.727-9.068-2.182-2.53-1.47-4.477-3.545-5.841-6.227-1.363-2.697-2.045-5.872-2.045-9.523 0-3.59.682-6.742 2.045-9.454 1.379-2.728 3.303-4.849 5.773-6.364 2.47-1.53 5.371-2.296 8.705-2.296 2.151 0 4.181.349 6.09 1.046a13.754 13.754 0 0 1 5.091 3.182c1.485 1.439 2.652 3.272 3.5 5.5.849 2.212 1.273 4.848 1.273 7.909v2.522h-28.614V26.75h20.728c-.015-1.576-.356-2.977-1.023-4.204a7.444 7.444 0 0 0-2.795-2.932c-1.182-.713-2.561-1.069-4.137-1.069-1.682 0-3.159.41-4.432 1.228a8.461 8.461 0 0 0-2.977 3.181c-.697 1.304-1.053 2.735-1.068 4.296v4.84c0 2.031.371 3.774 1.114 5.228.742 1.44 1.78 2.546 3.113 3.318 1.333.758 2.894 1.137 4.682 1.137 1.197 0 2.28-.167 3.25-.5a7.209 7.209 0 0 0 2.523-1.523c.712-.667 1.25-1.492 1.613-2.477l7.682.863c-.485 2.03-1.409 3.803-2.773 5.319-1.348 1.5-3.075 2.666-5.181 3.5-2.106.818-4.516 1.227-7.228 1.227Zm22.483-.682V12.59h7.978v5.82h.363c.637-2.016 1.727-3.57 3.273-4.66 1.561-1.106 3.341-1.66 5.341-1.66.454 0 .962.024 1.523.07.575.03 1.053.082 1.431.158v7.568c-.348-.12-.901-.227-1.659-.318a15.254 15.254 0 0 0-2.159-.159c-1.5 0-2.848.326-4.045.977a7.152 7.152 0 0 0-2.796 2.66c-.682 1.136-1.022 2.446-1.022 3.931V47.5h-8.228Zm39.392.682c-3.5 0-6.522-.727-9.068-2.182-2.53-1.47-4.477-3.545-5.841-6.227-1.363-2.697-2.045-5.872-2.045-9.523 0-3.59.682-6.742 2.045-9.454 1.379-2.728 3.303-4.849 5.773-6.364 2.47-1.53 5.371-2.296 8.704-2.296 2.152 0 4.182.349 6.091 1.046a13.754 13.754 0 0 1 5.091 3.182c1.485 1.439 2.652 3.272 3.5 5.5.849 2.212 1.273 4.848 1.273 7.909v2.522h-28.614V26.75h20.728c-.015-1.576-.356-2.977-1.023-4.204a7.44 7.44 0 0 0-2.796-2.932c-1.181-.713-2.56-1.069-4.136-1.069-1.682 0-3.159.41-4.432 1.228a8.461 8.461 0 0 0-2.977 3.181c-.697 1.304-1.053 2.735-1.068 4.296v4.84c0 2.031.371 3.774 1.113 5.228.743 1.44 1.781 2.546 3.114 3.318 1.333.758 2.894 1.137 4.682 1.137 1.197 0 2.28-.167 3.25-.5a7.209 7.209 0 0 0 2.523-1.523c.712-.667 1.25-1.492 1.613-2.477l7.682.863c-.485 2.03-1.409 3.803-2.773 5.319-1.348 1.5-3.075 2.666-5.181 3.5-2.106.818-4.516 1.227-7.228 1.227Z" fill="#CB4C0E"/></svg>