<svg width="128" height="128" fill="none" xmlns="http://www.w3.org/2000/svg"><rect width="128" height="128" rx="32" fill="url(#a)"/><path fill-rule="evenodd" clip-rule="evenodd" d="M74.603 44.076 43.351 75.328l-2.263 9.806 9.805-2.262 31.253-31.253-7.543-7.543Zm5.029-5.028 7.542 7.542 1.967-1.967a5.333 5.333 0 0 0-7.542-7.542l-1.967 1.967Zm-42.03 31.974a3.54 3.54 0 0 0-.95 1.715L32.88 89.079a3.555 3.555 0 0 0 4.264 4.264l16.342-3.772a3.539 3.539 0 0 0 1.753-.988l38.93-38.931c4.86-4.86 4.86-12.74 0-17.6-4.86-4.86-12.739-4.86-17.598 0L37.6 71.022Z" fill="#EDEFFF"/><defs><linearGradient id="a" x1="0" y1="0" x2="128" y2="128" gradientUnits="userSpaceOnUse"><stop stop-color="#445AFF"/><stop offset="1" stop-color="#697BFF"/></linearGradient></defs></svg>