<svg width="872" height="650" viewBox="0 -70 872 650" fill="none" xmlns="http://www.w3.org/2000/svg"><path d="M148.23 591.79c-43.145-43.441-85.828-88.911-111.025-145.534-20.539-46.115-28.068-99.71-11.839-147.548 16.23-47.838 59.086-87.891 109.388-92.526 36.31-3.348 72.751 11.615 100.364 35.421 27.613 23.807 47.106 55.793 61.434 89.319 40.841 95.539 45.212 210.18 115.52 286.688 45.565 49.572 122.247 74.708 182.933 45.565 47.169-22.653 76.289-73.129 85.538-124.624 11.183-62.348-2.699-126.336-20.173-187.226-17.474-60.889-38.759-121.499-42.777-184.712-4.018-63.213 12.019-131.246 58.606-174.158 20.278-18.69 46.078-31.921 73.501-34.686 27.423-2.764 56.361 5.64 76.261 24.74 23.448 22.527 32.119 57.462 28.141 89.738-3.979 32.277-19.211 62.147-37.74 88.86C753.069 252.42 600.415 456.991 499.5 503.5" stroke="url(#a)" stroke-width="32" stroke-miterlimit="10" stroke-linecap="round"/><defs><linearGradient id="a" x1="-22.5" y1="67.999" x2="864.5" y2="77.499" gradientUnits="userSpaceOnUse"><stop stop-color="#445AFF"/><stop offset="1" stop-color="#8208E1"/></linearGradient></defs></svg>