<svg width="128" height="128" fill="none" xmlns="http://www.w3.org/2000/svg"><rect width="128" height="128" rx="64" fill="#101010"/><rect x="8" y="8" width="112" height="112" rx="56" fill="#101010"/><rect x="8" y="8" width="112" height="112" rx="56" stroke="#33B956" stroke-width="5.333"/><path d="M65.666 53.918a2.666 2.666 0 0 0-3.332 0l-8 6.4a2.667 2.667 0 0 0 3.332 4.164l3.668-2.934V72a2.667 2.667 0 1 0 5.333 0V61.548l3.667 2.934a2.667 2.667 0 0 0 3.332-4.164l-8-6.4Z" fill="#fff"/><path fill-rule="evenodd" clip-rule="evenodd" d="M37.334 50.667C37.334 44.776 42.108 40 48 40h32c5.891 0 10.667 4.776 10.667 10.667v26.666C90.667 83.224 85.89 88 80 88H48c-5.89 0-10.666-4.776-10.666-10.667V50.667ZM48 45.333h32a5.333 5.333 0 0 1 5.334 5.334v26.666A5.333 5.333 0 0 1 80 82.667H48a5.333 5.333 0 0 1-5.333-5.334V50.667A5.333 5.333 0 0 1 48 45.333Z" fill="#fff"/></svg>