<svg width="128" height="128" fill="none" xmlns="http://www.w3.org/2000/svg"><rect width="128" height="128" rx="64" fill="url(#a)"/><path fill-rule="evenodd" clip-rule="evenodd" d="M64 32c-1.44 0-2.489 1.127-2.489 2.37v25.68a3.555 3.555 0 1 1-7.11 0V38.32c0-1.242-1.048-2.37-2.49-2.37-1.44 0-2.488 1.128-2.488 2.37v33.581a3.556 3.556 0 0 1-7.111 0v-9.876c0-1.244-1.048-2.37-2.49-2.37-1.44 0-2.488 1.126-2.488 2.37v7.9C37.334 84.26 49.206 96 64 96c14.795 0 26.667-11.74 26.667-26.074V50.173c0-1.243-1.047-2.37-2.489-2.37-1.441 0-2.489 1.127-2.489 2.37v9.876a3.555 3.555 0 1 1-7.11 0V38.321c0-1.243-1.048-2.37-2.49-2.37-1.441 0-2.489 1.127-2.489 2.37v21.728a3.555 3.555 0 1 1-7.11 0V34.37c0-1.243-1.048-2.37-2.49-2.37Zm8.305-2.393A9.64 9.64 0 0 0 64 24.889a9.64 9.64 0 0 0-8.305 4.718 9.671 9.671 0 0 0-3.784-.768c-5.235 0-9.6 4.18-9.6 9.482v14.545a9.7 9.7 0 0 0-2.488-.323c-5.236 0-9.6 4.179-9.6 9.482v7.9c0 18.394 15.19 33.186 33.777 33.186 18.589 0 33.778-14.792 33.778-33.185V50.173c0-5.303-4.365-9.482-9.6-9.482a9.7 9.7 0 0 0-2.489.323v-2.693c0-5.303-4.364-9.482-9.6-9.482a9.672 9.672 0 0 0-3.784.768Z" fill="#fff"/><defs><linearGradient id="a" x1="0" y1="0" x2="128" y2="128" gradientUnits="userSpaceOnUse"><stop stop-color="#445AFF"/><stop offset="1" stop-color="#697BFF"/></linearGradient></defs></svg>