<svg xmlns="http://www.w3.org/2000/svg" width="489" height="636" fill="none"><g filter="url(#a)"><rect width="425" height="856" x="32" y="8" fill="#fff" rx="16"/><rect width="423" height="854" x="33" y="9" stroke="#E7E7E9" stroke-width="2" rx="15"/><path fill="#3D3E43" d="M59.422 47.189v-2.705h12.742v2.705h-4.75v12.81h-3.242V47.19h-4.75ZM73.055 50.901v-2.538H83.6v2.538h-3.75v9.098h-3.076v-9.098h-3.72ZM105.352 43.824v-2.188h15.273v2.188h-6.403V62h-2.466V43.824h-6.404Zm22.949 18.494c-1.471 0-2.741-.325-3.808-.974-1.061-.657-1.879-1.571-2.456-2.745-.57-1.18-.855-2.552-.855-4.116 0-1.564.285-2.943.855-4.136.577-1.2 1.379-2.135 2.406-2.804 1.034-.676 2.241-1.015 3.619-1.015.796 0 1.581.133 2.357.398a5.833 5.833 0 0 1 2.118 1.293c.636.59 1.143 1.372 1.521 2.346.378.975.567 2.175.567 3.6v.994h-11.773v-2.028h9.387c0-.862-.173-1.631-.517-2.307a3.894 3.894 0 0 0-1.452-1.601c-.623-.391-1.359-.587-2.208-.587-.934 0-1.743.232-2.426.696a4.583 4.583 0 0 0-1.561 1.79 5.266 5.266 0 0 0-.547 2.367v1.352c0 1.153.199 2.131.597 2.933.404.796.964 1.402 1.68 1.82.716.41 1.548.616 2.496.616.617 0 1.173-.086 1.671-.258a3.574 3.574 0 0 0 1.302-.796 3.61 3.61 0 0 0 .845-1.332l2.267.636a5.012 5.012 0 0 1-1.203 2.029c-.563.576-1.259 1.027-2.088 1.352-.828.318-1.76.477-2.794.477Zm9.894-.318V46.727h2.346v6.642h1.551l5.489-6.642h3.023l-6.165 7.358L150.683 62h-3.022l-5.012-6.443h-2.108V62h-2.346Zm20.614.318c-1.432 0-2.664-.338-3.699-1.014-1.034-.676-1.829-1.608-2.386-2.794-.557-1.187-.835-2.542-.835-4.067 0-1.551.285-2.92.855-4.106.577-1.194 1.379-2.125 2.406-2.794 1.034-.676 2.241-1.015 3.62-1.015 1.073 0 2.041.2 2.903.597a5.556 5.556 0 0 1 2.118 1.67c.55.716.891 1.552 1.024 2.506h-2.347c-.179-.696-.576-1.312-1.193-1.85-.61-.543-1.432-.815-2.466-.815-.914 0-1.717.239-2.406.716-.683.47-1.216 1.137-1.601 1.999-.378.855-.567 1.86-.567 3.013 0 1.18.186 2.207.557 3.082.378.875.908 1.555 1.591 2.038.69.484 1.498.726 2.426.726a4.19 4.19 0 0 0 1.661-.318 3.43 3.43 0 0 0 1.263-.915c.344-.397.59-.875.735-1.431h2.347a5.448 5.448 0 0 1-.984 2.435c-.517.716-1.204 1.286-2.059 1.71-.848.418-1.836.627-2.963.627Zm8.233-13.403v-2.188h12.409v2.188h-5.011V62h-2.347V48.915h-5.051ZM60.016 124v-15.516h3.28v6.402h6.659v-6.402h3.273V124h-3.273v-6.41h-6.66V124h-3.28ZM82.591 108.484V124h-3.28v-12.402h-.09l-3.554 2.227v-2.909l3.841-2.432h3.083ZM112.989 126.278c-1.313 0-2.483-.225-3.51-.676-1.021-.45-1.833-1.077-2.436-1.879-.597-.809-.922-1.747-.975-2.814h2.506c.053.656.278 1.223.676 1.7.398.471.918.836 1.561 1.094.643.259 1.356.388 2.138.388.875 0 1.65-.153 2.327-.457.676-.305 1.206-.73 1.59-1.273.385-.544.577-1.173.577-1.889 0-.749-.185-1.409-.557-1.979-.371-.577-.914-1.028-1.63-1.352-.716-.325-1.591-.488-2.625-.488H111v-2.187h1.631c.808 0 1.518-.146 2.128-.438.616-.291 1.097-.702 1.441-1.233.352-.53.527-1.153.527-1.869 0-.689-.152-1.289-.457-1.8a3.13 3.13 0 0 0-1.293-1.193c-.55-.285-1.2-.427-1.949-.427-.702 0-1.365.129-1.988.387a3.71 3.71 0 0 0-1.512 1.104c-.391.477-.603 1.054-.636 1.73h-2.386c.039-1.067.361-2.002.964-2.804.603-.808 1.392-1.438 2.367-1.889.981-.451 2.058-.676 3.231-.676 1.26 0 2.34.255 3.242.766.901.503 1.594 1.17 2.078 1.998.484.829.726 1.724.726 2.685 0 1.147-.302 2.124-.905 2.933-.597.809-1.409 1.369-2.436 1.68v.16c1.286.212 2.29.759 3.013 1.64.722.875 1.083 1.959 1.083 3.252 0 1.107-.301 2.101-.905 2.983-.596.875-1.411 1.564-2.446 2.068-1.034.504-2.21.755-3.529.755Zm15.481.08c-.968 0-1.846-.182-2.635-.547a4.519 4.519 0 0 1-1.879-1.601c-.464-.702-.696-1.551-.696-2.545 0-.875.172-1.585.517-2.128.345-.55.805-.981 1.382-1.293a7.306 7.306 0 0 1 1.909-.696 23.38 23.38 0 0 1 2.118-.378c.928-.119 1.68-.208 2.257-.268.584-.066 1.008-.176 1.273-.328.272-.153.408-.418.408-.796v-.079c0-.981-.269-1.744-.806-2.287-.53-.544-1.336-.815-2.416-.815-1.12 0-1.999.245-2.635.735-.636.491-1.084 1.015-1.342 1.571l-2.228-.795c.398-.928.928-1.651 1.591-2.168a5.968 5.968 0 0 1 2.188-1.093 9.044 9.044 0 0 1 2.346-.319c.491 0 1.054.06 1.691.179a5.409 5.409 0 0 1 1.859.706c.603.358 1.104.899 1.502 1.621.397.723.596 1.69.596 2.904V126h-2.346v-2.068h-.12c-.159.331-.424.686-.795 1.064-.371.378-.865.699-1.482.964-.616.265-1.369.398-2.257.398Zm.358-2.108c.928 0 1.71-.182 2.347-.547.643-.364 1.127-.835 1.451-1.412a3.593 3.593 0 0 0 .498-1.819v-2.148c-.1.119-.319.229-.657.328-.331.093-.716.176-1.153.249-.431.066-.852.126-1.263.179-.404.046-.732.086-.984.119-.61.079-1.18.209-1.71.388-.524.172-.948.434-1.273.785-.318.345-.477.815-.477 1.412 0 .815.301 1.432.904 1.85.61.411 1.382.616 2.317.616Zm20.351-13.523v2.188H142.1V126h-2.347v-15.273h9.426Zm8.837 15.591c-1.378 0-2.588-.328-3.629-.984-1.034-.656-1.843-1.575-2.426-2.754-.577-1.18-.865-2.559-.865-4.137 0-1.591.288-2.979.865-4.166.583-1.187 1.392-2.108 2.426-2.764 1.041-.656 2.251-.985 3.629-.985 1.379 0 2.586.329 3.62.985 1.04.656 1.849 1.577 2.426 2.764.583 1.187.875 2.575.875 4.166 0 1.578-.292 2.957-.875 4.137-.577 1.179-1.386 2.098-2.426 2.754-1.034.656-2.241.984-3.62.984Zm0-2.108c1.048 0 1.909-.268 2.586-.805.676-.537 1.176-1.243 1.501-2.118a8.105 8.105 0 0 0 .487-2.844 8.19 8.19 0 0 0-.487-2.854c-.325-.881-.825-1.594-1.501-2.137-.677-.544-1.538-.816-2.586-.816-1.047 0-1.909.272-2.585.816-.676.543-1.177 1.256-1.501 2.137a8.19 8.19 0 0 0-.488 2.854c0 1.021.163 1.969.488 2.844.324.875.825 1.581 1.501 2.118.676.537 1.538.805 2.585.805Zm9.151 1.79v-2.188h.556c.458 0 .839-.089 1.144-.268.305-.186.55-.507.736-.964.192-.464.338-1.107.437-1.929.106-.829.182-1.883.229-3.162l.278-6.762h10.182V126h-2.347v-13.085h-5.607l-.239 5.449c-.053 1.252-.166 2.356-.338 3.311-.166.948-.421 1.743-.766 2.386-.338.643-.789 1.127-1.352 1.452-.564.325-1.27.487-2.118.487h-.795Zm24.072.318c-1.379 0-2.589-.328-3.629-.984-1.034-.656-1.843-1.575-2.426-2.754-.577-1.18-.865-2.559-.865-4.137 0-1.591.288-2.979.865-4.166.583-1.187 1.392-2.108 2.426-2.764 1.04-.656 2.25-.985 3.629-.985s2.585.329 3.619.985c1.041.656 1.85 1.577 2.426 2.764.584 1.187.875 2.575.875 4.166 0 1.578-.291 2.957-.875 4.137-.576 1.179-1.385 2.098-2.426 2.754-1.034.656-2.24.984-3.619.984Zm0-2.108c1.047 0 1.909-.268 2.585-.805.676-.537 1.177-1.243 1.502-2.118a8.128 8.128 0 0 0 .487-2.844 8.212 8.212 0 0 0-.487-2.854c-.325-.881-.826-1.594-1.502-2.137-.676-.544-1.538-.816-2.585-.816s-1.909.272-2.585.816c-.676.543-1.177 1.256-1.502 2.137a8.212 8.212 0 0 0-.487 2.854c0 1.021.163 1.969.487 2.844.325.875.826 1.581 1.502 2.118.676.537 1.538.805 2.585.805Zm10.502 1.79v-15.273h6.245c1.644 0 2.95.371 3.917 1.114.968.742 1.452 1.723 1.452 2.943 0 .928-.275 1.647-.825 2.158-.55.504-1.256.845-2.118 1.024.563.079 1.11.278 1.641.596a3.95 3.95 0 0 1 1.332 1.313c.351.55.527 1.226.527 2.028 0 .783-.199 1.482-.597 2.098-.397.617-.967 1.104-1.71 1.462-.742.358-1.631.537-2.665.537h-7.199Zm2.228-2.148h4.971c.809 0 1.442-.192 1.899-.576.458-.385.687-.909.687-1.571 0-.789-.229-1.409-.687-1.86-.457-.457-1.09-.686-1.899-.686h-4.971v4.693Zm0-6.721h4.017c.63 0 1.17-.086 1.621-.259.45-.179.795-.431 1.034-.756.245-.331.368-.722.368-1.173 0-.643-.269-1.147-.806-1.511-.537-.371-1.276-.557-2.217-.557h-4.017v4.256Zm19.7 9.187c-1.379 0-2.589-.328-3.63-.984-1.034-.656-1.842-1.575-2.426-2.754-.576-1.18-.865-2.559-.865-4.137 0-1.591.289-2.979.865-4.166.584-1.187 1.392-2.108 2.426-2.764 1.041-.656 2.251-.985 3.63-.985 1.378 0 2.585.329 3.619.985 1.041.656 1.849 1.577 2.426 2.764.583 1.187.875 2.575.875 4.166 0 1.578-.292 2.957-.875 4.137-.577 1.179-1.385 2.098-2.426 2.754-1.034.656-2.241.984-3.619.984Zm0-2.108c1.047 0 1.909-.268 2.585-.805.676-.537 1.177-1.243 1.501-2.118a8.105 8.105 0 0 0 .488-2.844 8.19 8.19 0 0 0-.488-2.854c-.324-.881-.825-1.594-1.501-2.137-.676-.544-1.538-.816-2.585-.816-1.048 0-1.909.272-2.586.816-.676.543-1.176 1.256-1.501 2.137a8.19 8.19 0 0 0-.487 2.854c0 1.021.162 1.969.487 2.844.325.875.825 1.581 1.501 2.118.677.537 1.538.805 2.586.805Zm10.502 1.79v-15.273h2.347v6.642h1.551l5.489-6.642h3.022l-6.165 7.358L246.66 126h-3.023l-5.011-6.443h-2.108V126h-2.347Zm30.034-20.364V126h-2.466v-17.778h-.12l-4.971 3.301v-2.506l5.091-3.381h2.466ZM58.68 188v-15.515h3.28v6.401h6.66v-6.401h3.272V188h-3.273v-6.409H61.96V188h-3.28ZM74.505 188v-2.364l5.523-5.114c.47-.454.864-.863 1.182-1.227.323-.363.568-.72.735-1.068a2.65 2.65 0 0 0 .25-1.144c0-.454-.104-.846-.31-1.174a2.029 2.029 0 0 0-.85-.765 2.657 2.657 0 0 0-1.219-.273c-.475 0-.889.096-1.242.288a1.983 1.983 0 0 0-.819.826c-.191.358-.287.785-.287 1.28h-3.114c0-1.015.23-1.897.69-2.644.459-.748 1.103-1.326 1.931-1.735.828-.409 1.783-.614 2.864-.614 1.11 0 2.078.197 2.901.591.829.389 1.473.93 1.932 1.622.46.692.69 1.484.69 2.378 0 .586-.117 1.165-.349 1.735-.227.571-.634 1.205-1.22 1.902-.586.692-1.411 1.522-2.477 2.492l-2.265 2.22v.106h6.515V188h-11.06ZM112.989 190.278c-1.313 0-2.483-.225-3.51-.676-1.021-.45-1.833-1.077-2.436-1.879-.597-.809-.922-1.747-.975-2.814h2.506c.053.656.278 1.223.676 1.7.398.471.918.836 1.561 1.094.643.259 1.356.388 2.138.388.875 0 1.65-.153 2.327-.457.676-.305 1.206-.73 1.59-1.273.385-.544.577-1.173.577-1.889 0-.749-.185-1.409-.557-1.979-.371-.577-.914-1.028-1.63-1.352-.716-.325-1.591-.488-2.625-.488H111v-2.187h1.631c.808 0 1.518-.146 2.128-.438.616-.291 1.097-.702 1.441-1.233.352-.53.527-1.153.527-1.869 0-.689-.152-1.289-.457-1.8a3.13 3.13 0 0 0-1.293-1.193c-.55-.285-1.2-.427-1.949-.427-.702 0-1.365.129-1.988.387a3.71 3.71 0 0 0-1.512 1.104c-.391.477-.603 1.054-.636 1.73h-2.386c.039-1.067.361-2.002.964-2.804.603-.808 1.392-1.438 2.367-1.889.981-.451 2.058-.676 3.231-.676 1.26 0 2.34.255 3.242.766.901.503 1.594 1.17 2.078 1.998.484.829.726 1.724.726 2.685 0 1.147-.302 2.124-.905 2.933-.597.809-1.409 1.369-2.436 1.68v.16c1.286.212 2.29.759 3.013 1.64.722.875 1.083 1.959 1.083 3.252 0 1.107-.301 2.101-.905 2.983-.596.875-1.411 1.564-2.446 2.068-1.034.504-2.21.755-3.529.755Zm15.481.08c-.968 0-1.846-.182-2.635-.547a4.519 4.519 0 0 1-1.879-1.601c-.464-.702-.696-1.551-.696-2.545 0-.875.172-1.585.517-2.128.345-.55.805-.981 1.382-1.293a7.306 7.306 0 0 1 1.909-.696 23.38 23.38 0 0 1 2.118-.378c.928-.119 1.68-.208 2.257-.268.584-.066 1.008-.176 1.273-.328.272-.153.408-.418.408-.796v-.079c0-.981-.269-1.744-.806-2.287-.53-.544-1.336-.815-2.416-.815-1.12 0-1.999.245-2.635.735-.636.491-1.084 1.015-1.342 1.571l-2.228-.795c.398-.928.928-1.651 1.591-2.168a5.968 5.968 0 0 1 2.188-1.093 9.044 9.044 0 0 1 2.346-.319c.491 0 1.054.06 1.691.179a5.409 5.409 0 0 1 1.859.706c.603.358 1.104.899 1.502 1.621.397.723.596 1.69.596 2.904V190h-2.346v-2.068h-.12c-.159.331-.424.686-.795 1.064-.371.378-.865.699-1.482.964-.616.265-1.369.398-2.257.398Zm.358-2.108c.928 0 1.71-.182 2.347-.547.643-.364 1.127-.835 1.451-1.412a3.593 3.593 0 0 0 .498-1.819v-2.148c-.1.119-.319.229-.657.328-.331.093-.716.176-1.153.249-.431.066-.852.126-1.263.179-.404.046-.732.086-.984.119-.61.079-1.18.209-1.71.388-.524.172-.948.434-1.273.785-.318.345-.477.815-.477 1.412 0 .815.301 1.432.904 1.85.61.411 1.382.616 2.317.616Zm20.351-13.523v2.188H142.1V190h-2.347v-15.273h9.426Zm8.837 15.591c-1.378 0-2.588-.328-3.629-.984-1.034-.656-1.843-1.575-2.426-2.754-.577-1.18-.865-2.559-.865-4.137 0-1.591.288-2.979.865-4.166.583-1.187 1.392-2.108 2.426-2.764 1.041-.656 2.251-.985 3.629-.985 1.379 0 2.586.329 3.62.985 1.04.656 1.849 1.577 2.426 2.764.583 1.187.875 2.575.875 4.166 0 1.578-.292 2.957-.875 4.137-.577 1.179-1.386 2.098-2.426 2.754-1.034.656-2.241.984-3.62.984Zm0-2.108c1.048 0 1.909-.268 2.586-.805.676-.537 1.176-1.243 1.501-2.118a8.105 8.105 0 0 0 .487-2.844 8.19 8.19 0 0 0-.487-2.854c-.325-.881-.825-1.594-1.501-2.137-.677-.544-1.538-.816-2.586-.816-1.047 0-1.909.272-2.585.816-.676.543-1.177 1.256-1.501 2.137a8.19 8.19 0 0 0-.488 2.854c0 1.021.163 1.969.488 2.844.324.875.825 1.581 1.501 2.118.676.537 1.538.805 2.585.805Zm9.151 1.79v-2.188h.556c.458 0 .839-.089 1.144-.268.305-.186.55-.507.736-.964.192-.464.338-1.107.437-1.929.106-.829.182-1.883.229-3.162l.278-6.762h10.182V190h-2.347v-13.085h-5.607l-.239 5.449c-.053 1.252-.166 2.356-.338 3.311-.166.948-.421 1.743-.766 2.386-.338.643-.789 1.127-1.352 1.452-.564.325-1.27.487-2.118.487h-.795Zm24.072.318c-1.379 0-2.589-.328-3.629-.984-1.034-.656-1.843-1.575-2.426-2.754-.577-1.18-.865-2.559-.865-4.137 0-1.591.288-2.979.865-4.166.583-1.187 1.392-2.108 2.426-2.764 1.04-.656 2.25-.985 3.629-.985s2.585.329 3.619.985c1.041.656 1.85 1.577 2.426 2.764.584 1.187.875 2.575.875 4.166 0 1.578-.291 2.957-.875 4.137-.576 1.179-1.385 2.098-2.426 2.754-1.034.656-2.24.984-3.619.984Zm0-2.108c1.047 0 1.909-.268 2.585-.805.676-.537 1.177-1.243 1.502-2.118a8.128 8.128 0 0 0 .487-2.844 8.212 8.212 0 0 0-.487-2.854c-.325-.881-.826-1.594-1.502-2.137-.676-.544-1.538-.816-2.585-.816s-1.909.272-2.585.816c-.676.543-1.177 1.256-1.502 2.137a8.212 8.212 0 0 0-.487 2.854c0 1.021.163 1.969.487 2.844.325.875.826 1.581 1.502 2.118.676.537 1.538.805 2.585.805Zm10.502 1.79v-15.273h6.245c1.644 0 2.95.371 3.917 1.114.968.742 1.452 1.723 1.452 2.943 0 .928-.275 1.647-.825 2.158-.55.504-1.256.845-2.118 1.024.563.079 1.11.278 1.641.596a3.95 3.95 0 0 1 1.332 1.313c.351.55.527 1.226.527 2.028 0 .783-.199 1.482-.597 2.098-.397.617-.967 1.104-1.71 1.462-.742.358-1.631.537-2.665.537h-7.199Zm2.228-2.148h4.971c.809 0 1.442-.192 1.899-.576.458-.385.687-.909.687-1.571 0-.789-.229-1.409-.687-1.86-.457-.457-1.09-.686-1.899-.686h-4.971v4.693Zm0-6.721h4.017c.63 0 1.17-.086 1.621-.259.45-.179.795-.431 1.034-.756.245-.331.368-.722.368-1.173 0-.643-.269-1.147-.806-1.511-.537-.371-1.276-.557-2.217-.557h-4.017v4.256Zm19.7 9.187c-1.379 0-2.589-.328-3.63-.984-1.034-.656-1.842-1.575-2.426-2.754-.576-1.18-.865-2.559-.865-4.137 0-1.591.289-2.979.865-4.166.584-1.187 1.392-2.108 2.426-2.764 1.041-.656 2.251-.985 3.63-.985 1.378 0 2.585.329 3.619.985 1.041.656 1.849 1.577 2.426 2.764.583 1.187.875 2.575.875 4.166 0 1.578-.292 2.957-.875 4.137-.577 1.179-1.385 2.098-2.426 2.754-1.034.656-2.241.984-3.619.984Zm0-2.108c1.047 0 1.909-.268 2.585-.805.676-.537 1.177-1.243 1.501-2.118a8.105 8.105 0 0 0 .488-2.844 8.19 8.19 0 0 0-.488-2.854c-.324-.881-.825-1.594-1.501-2.137-.676-.544-1.538-.816-2.585-.816-1.048 0-1.909.272-2.586.816-.676.543-1.176 1.256-1.501 2.137a8.19 8.19 0 0 0-.487 2.854c0 1.021.162 1.969.487 2.844.325.875.825 1.581 1.501 2.118.677.537 1.538.805 2.586.805Zm10.502 1.79v-15.273h2.347v6.642h1.551l5.489-6.642h3.022l-6.165 7.358L246.66 190h-3.023l-5.011-6.443h-2.108V190h-2.347Zm22.874 0v-1.79l6.722-7.358a46.768 46.768 0 0 0 1.949-2.247c.51-.643.888-1.246 1.133-1.81.252-.57.378-1.166.378-1.789 0-.716-.172-1.336-.517-1.86a3.358 3.358 0 0 0-1.392-1.213c-.59-.285-1.253-.427-1.988-.427-.783 0-1.465.162-2.049.487a3.359 3.359 0 0 0-1.342 1.342c-.312.577-.467 1.253-.467 2.029h-2.347c0-1.194.275-2.241.825-3.142a5.73 5.73 0 0 1 2.247-2.108c.955-.504 2.026-.756 3.212-.756 1.193 0 2.251.252 3.172.756a5.684 5.684 0 0 1 2.168 2.038c.523.855.785 1.806.785 2.854 0 .749-.136 1.481-.408 2.197-.265.709-.729 1.502-1.392 2.377-.656.868-1.567 1.929-2.734 3.181l-4.574 4.892v.159h9.466V190h-12.847ZM58.016 252v-15.515h3.28v6.401h6.659v-6.401h3.273V252h-3.273v-6.409h-6.66V252h-3.28ZM79.576 252.212c-1.131 0-2.139-.195-3.022-.583-.88-.394-1.574-.935-2.084-1.622-.505-.692-.765-1.49-.78-2.394h3.303c.02.379.144.712.371 1 .232.283.54.503.924.659.384.157.816.235 1.296.235.5 0 .942-.088 1.326-.265.383-.177.684-.422.901-.735.217-.313.326-.674.326-1.083 0-.414-.116-.78-.349-1.099-.227-.323-.555-.575-.984-.757-.425-.182-.93-.273-1.516-.273h-1.447v-2.409h1.447c.495 0 .932-.086 1.311-.257.384-.172.682-.41.894-.713.212-.308.318-.666.318-1.075 0-.389-.093-.73-.28-1.023a1.853 1.853 0 0 0-.773-.697c-.328-.167-.712-.25-1.151-.25-.445 0-.852.081-1.22.242a2.136 2.136 0 0 0-.886.675c-.223.293-.341.636-.357 1.03H74c.016-.894.27-1.682.766-2.364.495-.682 1.161-1.214 2-1.598.843-.389 1.795-.584 2.856-.584 1.07 0 2.007.195 2.81.584.803.389 1.427.914 1.871 1.576a3.78 3.78 0 0 1 .667 2.212c.005.868-.265 1.593-.81 2.174-.54.581-1.245.949-2.114 1.106v.121c1.141.147 2.01.543 2.606 1.19.601.641.899 1.444.894 2.409A3.785 3.785 0 0 1 84.78 250c-.51.687-1.215 1.227-2.114 1.621-.899.394-1.93.591-3.09.591ZM112.989 254.278c-1.313 0-2.483-.225-3.51-.676-1.021-.45-1.833-1.077-2.436-1.879-.597-.809-.922-1.747-.975-2.814h2.506c.053.656.278 1.223.676 1.7.398.471.918.836 1.561 1.094.643.259 1.356.388 2.138.388.875 0 1.65-.153 2.327-.457.676-.305 1.206-.73 1.59-1.273.385-.544.577-1.173.577-1.889 0-.749-.185-1.409-.557-1.979-.371-.577-.914-1.028-1.63-1.352-.716-.325-1.591-.488-2.625-.488H111v-2.187h1.631c.808 0 1.518-.146 2.128-.438.616-.291 1.097-.702 1.441-1.233.352-.53.527-1.153.527-1.869 0-.689-.152-1.289-.457-1.8a3.13 3.13 0 0 0-1.293-1.193c-.55-.285-1.2-.427-1.949-.427-.702 0-1.365.129-1.988.387a3.71 3.71 0 0 0-1.512 1.104c-.391.477-.603 1.054-.636 1.73h-2.386c.039-1.067.361-2.002.964-2.804.603-.808 1.392-1.438 2.367-1.889.981-.451 2.058-.676 3.231-.676 1.26 0 2.34.255 3.242.766.901.503 1.594 1.17 2.078 1.998.484.829.726 1.724.726 2.685 0 1.147-.302 2.124-.905 2.933-.597.809-1.409 1.369-2.436 1.68v.16c1.286.212 2.29.759 3.013 1.64.722.875 1.083 1.959 1.083 3.252 0 1.107-.301 2.101-.905 2.983-.596.875-1.411 1.564-2.446 2.068-1.034.504-2.21.755-3.529.755Zm15.481.08c-.968 0-1.846-.182-2.635-.547a4.519 4.519 0 0 1-1.879-1.601c-.464-.702-.696-1.551-.696-2.545 0-.875.172-1.585.517-2.128.345-.55.805-.981 1.382-1.293a7.306 7.306 0 0 1 1.909-.696 23.38 23.38 0 0 1 2.118-.378c.928-.119 1.68-.208 2.257-.268.584-.066 1.008-.176 1.273-.328.272-.153.408-.418.408-.796v-.079c0-.981-.269-1.744-.806-2.287-.53-.544-1.336-.815-2.416-.815-1.12 0-1.999.245-2.635.735-.636.491-1.084 1.015-1.342 1.571l-2.228-.795c.398-.928.928-1.651 1.591-2.168a5.968 5.968 0 0 1 2.188-1.093 9.044 9.044 0 0 1 2.346-.319c.491 0 1.054.06 1.691.179a5.409 5.409 0 0 1 1.859.706c.603.358 1.104.899 1.502 1.621.397.723.596 1.69.596 2.904V254h-2.346v-2.068h-.12c-.159.331-.424.686-.795 1.064-.371.378-.865.699-1.482.964-.616.265-1.369.398-2.257.398Zm.358-2.108c.928 0 1.71-.182 2.347-.547.643-.364 1.127-.835 1.451-1.412a3.593 3.593 0 0 0 .498-1.819v-2.148c-.1.119-.319.229-.657.328-.331.093-.716.176-1.153.249-.431.066-.852.126-1.263.179-.404.046-.732.086-.984.119-.61.079-1.18.209-1.71.388-.524.172-.948.434-1.273.785-.318.345-.477.815-.477 1.412 0 .815.301 1.432.904 1.85.61.411 1.382.616 2.317.616Zm20.351-13.523v2.188H142.1V254h-2.347v-15.273h9.426Zm8.837 15.591c-1.378 0-2.588-.328-3.629-.984-1.034-.656-1.843-1.575-2.426-2.754-.577-1.18-.865-2.559-.865-4.137 0-1.591.288-2.979.865-4.166.583-1.187 1.392-2.108 2.426-2.764 1.041-.656 2.251-.985 3.629-.985 1.379 0 2.586.329 3.62.985 1.04.656 1.849 1.577 2.426 2.764.583 1.187.875 2.575.875 4.166 0 1.578-.292 2.957-.875 4.137-.577 1.179-1.386 2.098-2.426 2.754-1.034.656-2.241.984-3.62.984Zm0-2.108c1.048 0 1.909-.268 2.586-.805.676-.537 1.176-1.243 1.501-2.118a8.105 8.105 0 0 0 .487-2.844 8.19 8.19 0 0 0-.487-2.854c-.325-.881-.825-1.594-1.501-2.137-.677-.544-1.538-.816-2.586-.816-1.047 0-1.909.272-2.585.816-.676.543-1.177 1.256-1.501 2.137a8.19 8.19 0 0 0-.488 2.854c0 1.021.163 1.969.488 2.844.324.875.825 1.581 1.501 2.118.676.537 1.538.805 2.585.805Zm9.151 1.79v-2.188h.556c.458 0 .839-.089 1.144-.268.305-.186.55-.507.736-.964.192-.464.338-1.107.437-1.929.106-.829.182-1.883.229-3.162l.278-6.762h10.182V254h-2.347v-13.085h-5.607l-.239 5.449c-.053 1.252-.166 2.356-.338 3.311-.166.948-.421 1.743-.766 2.386-.338.643-.789 1.127-1.352 1.452-.564.325-1.27.487-2.118.487h-.795Zm24.072.318c-1.379 0-2.589-.328-3.629-.984-1.034-.656-1.843-1.575-2.426-2.754-.577-1.18-.865-2.559-.865-4.137 0-1.591.288-2.979.865-4.166.583-1.187 1.392-2.108 2.426-2.764 1.04-.656 2.25-.985 3.629-.985s2.585.329 3.619.985c1.041.656 1.85 1.577 2.426 2.764.584 1.187.875 2.575.875 4.166 0 1.578-.291 2.957-.875 4.137-.576 1.179-1.385 2.098-2.426 2.754-1.034.656-2.24.984-3.619.984Zm0-2.108c1.047 0 1.909-.268 2.585-.805.676-.537 1.177-1.243 1.502-2.118a8.128 8.128 0 0 0 .487-2.844 8.212 8.212 0 0 0-.487-2.854c-.325-.881-.826-1.594-1.502-2.137-.676-.544-1.538-.816-2.585-.816s-1.909.272-2.585.816c-.676.543-1.177 1.256-1.502 2.137a8.212 8.212 0 0 0-.487 2.854c0 1.021.163 1.969.487 2.844.325.875.826 1.581 1.502 2.118.676.537 1.538.805 2.585.805Zm10.502 1.79v-15.273h6.245c1.644 0 2.95.371 3.917 1.114.968.742 1.452 1.723 1.452 2.943 0 .928-.275 1.647-.825 2.158-.55.504-1.256.845-2.118 1.024.563.079 1.11.278 1.641.596a3.95 3.95 0 0 1 1.332 1.313c.351.55.527 1.226.527 2.028 0 .783-.199 1.482-.597 2.098-.397.617-.967 1.104-1.71 1.462-.742.358-1.631.537-2.665.537h-7.199Zm2.228-2.148h4.971c.809 0 1.442-.192 1.899-.576.458-.385.687-.909.687-1.571 0-.789-.229-1.409-.687-1.86-.457-.457-1.09-.686-1.899-.686h-4.971v4.693Zm0-6.721h4.017c.63 0 1.17-.086 1.621-.259.45-.179.795-.431 1.034-.756.245-.331.368-.722.368-1.173 0-.643-.269-1.147-.806-1.511-.537-.371-1.276-.557-2.217-.557h-4.017v4.256Zm19.7 9.187c-1.379 0-2.589-.328-3.63-.984-1.034-.656-1.842-1.575-2.426-2.754-.576-1.18-.865-2.559-.865-4.137 0-1.591.289-2.979.865-4.166.584-1.187 1.392-2.108 2.426-2.764 1.041-.656 2.251-.985 3.63-.985 1.378 0 2.585.329 3.619.985 1.041.656 1.849 1.577 2.426 2.764.583 1.187.875 2.575.875 4.166 0 1.578-.292 2.957-.875 4.137-.577 1.179-1.385 2.098-2.426 2.754-1.034.656-2.241.984-3.619.984Zm0-2.108c1.047 0 1.909-.268 2.585-.805.676-.537 1.177-1.243 1.501-2.118a8.105 8.105 0 0 0 .488-2.844 8.19 8.19 0 0 0-.488-2.854c-.324-.881-.825-1.594-1.501-2.137-.676-.544-1.538-.816-2.585-.816-1.048 0-1.909.272-2.586.816-.676.543-1.176 1.256-1.501 2.137a8.19 8.19 0 0 0-.487 2.854c0 1.021.162 1.969.487 2.844.325.875.825 1.581 1.501 2.118.677.537 1.538.805 2.586.805Zm10.502 1.79v-15.273h2.347v6.642h1.551l5.489-6.642h3.022l-6.165 7.358L246.66 254h-3.023l-5.011-6.443h-2.108V254h-2.347Zm29.755.278c-1.312 0-2.482-.225-3.51-.676-1.021-.45-1.833-1.077-2.436-1.879-.596-.809-.921-1.747-.974-2.814h2.505c.053.656.279 1.223.677 1.7.397.471.918.836 1.561 1.094.643.259 1.355.388 2.137.388.875 0 1.651-.153 2.327-.457.676-.305 1.207-.73 1.591-1.273.384-.544.577-1.173.577-1.889 0-.749-.186-1.409-.557-1.979-.371-.577-.915-1.028-1.631-1.352-.716-.325-1.591-.488-2.625-.488h-1.63v-2.187h1.63c.809 0 1.518-.146 2.128-.438a3.407 3.407 0 0 0 1.442-1.233c.351-.53.527-1.153.527-1.869 0-.689-.153-1.289-.458-1.8a3.128 3.128 0 0 0-1.292-1.193c-.55-.285-1.2-.427-1.949-.427-.703 0-1.366.129-1.989.387-.616.252-1.12.62-1.511 1.104-.391.477-.603 1.054-.636 1.73h-2.387c.04-1.067.361-2.002.965-2.804.603-.808 1.392-1.438 2.366-1.889.981-.451 2.058-.676 3.232-.676 1.259 0 2.34.255 3.241.766.902.503 1.594 1.17 2.078 1.998.484.829.726 1.724.726 2.685 0 1.147-.301 2.124-.905 2.933-.596.809-1.408 1.369-2.436 1.68v.16c1.286.212 2.29.759 3.013 1.64.723.875 1.084 1.959 1.084 3.252 0 1.107-.302 2.101-.905 2.983-.597.875-1.412 1.564-2.446 2.068-1.034.504-2.211.755-3.53.755ZM69.338 300.484V316h-3.28v-12.402h-.09l-3.554 2.227v-2.909l3.841-2.432h3.083ZM74.11 316.196c-.5 0-.93-.176-1.289-.53a1.769 1.769 0 0 1-.53-1.288c0-.495.177-.919.53-1.272a1.768 1.768 0 0 1 1.288-.531c.485 0 .91.177 1.273.531.364.353.545.777.545 1.272 0 .334-.086.639-.257.917a1.959 1.959 0 0 1-.66.659 1.732 1.732 0 0 1-.9.242ZM80.463 316.196c-.5 0-.929-.176-1.288-.53a1.77 1.77 0 0 1-.53-1.288c0-.495.177-.919.53-1.272a1.769 1.769 0 0 1 1.288-.531c.485 0 .91.177 1.273.531.364.353.545.777.545 1.272 0 .334-.085.639-.257.917a1.96 1.96 0 0 1-.66.659 1.732 1.732 0 0 1-.9.242ZM106.466 318v-20.364h2.466v9.069h10.858v-9.069h2.466V318h-2.466v-9.108h-10.858V318h-2.466Zm21.92 5.727c-.398 0-.753-.033-1.064-.099-.312-.06-.527-.119-.647-.179l.597-2.068c.57.146 1.074.199 1.511.159.438-.04.826-.236 1.164-.587.344-.345.659-.905.944-1.68l.438-1.193-5.648-15.353h2.546l4.215 12.171h.16l4.215-12.171h2.546l-6.483 17.5c-.292.789-.653 1.442-1.084 1.959a4.048 4.048 0 0 1-1.501 1.163c-.564.252-1.2.378-1.909.378Zm22.426-8.909 5.33-12.091h2.227L151.767 318h-1.909l-6.483-15.273h2.187l5.25 12.091Zm-6.005-12.091V318h-2.347v-15.273h2.347ZM156.818 318v-15.273h2.347V318h-2.347Zm13.046.318c-1.472 0-2.741-.325-3.809-.974-1.06-.656-1.879-1.571-2.456-2.745-.57-1.179-.855-2.552-.855-4.116 0-1.564.285-2.943.855-4.136.577-1.2 1.379-2.135 2.407-2.804 1.034-.677 2.24-1.015 3.619-1.015a7.25 7.25 0 0 1 2.357.398 5.83 5.83 0 0 1 2.117 1.293c.637.59 1.144 1.372 1.522 2.346.378.975.567 2.175.567 3.6v.994h-11.773v-2.028h9.386c0-.862-.172-1.631-.517-2.307a3.895 3.895 0 0 0-1.452-1.601c-.623-.391-1.359-.587-2.207-.587-.935 0-1.743.232-2.426.696a4.578 4.578 0 0 0-1.561 1.79 5.255 5.255 0 0 0-.547 2.367v1.352c0 1.153.199 2.131.597 2.933.404.796.964 1.402 1.68 1.82.716.411 1.548.616 2.496.616.616 0 1.173-.086 1.67-.258a3.572 3.572 0 0 0 1.303-.796c.364-.358.646-.802.845-1.332l2.267.636a5.042 5.042 0 0 1-1.203 2.029c-.564.576-1.26 1.027-2.088 1.352-.829.318-1.76.477-2.794.477Zm9.893 5.409v-21h2.267v2.426h.279c.172-.265.411-.603.715-1.014.312-.417.756-.789 1.333-1.113.583-.332 1.372-.498 2.366-.498 1.286 0 2.42.322 3.401.965.981.643 1.747 1.554 2.297 2.734s.825 2.572.825 4.176c0 1.618-.275 3.02-.825 4.206-.55 1.18-1.313 2.095-2.287 2.745-.975.643-2.098.964-3.371.964-.981 0-1.766-.162-2.356-.487-.59-.331-1.044-.706-1.363-1.124a14.747 14.747 0 0 1-.735-1.054h-.199v8.074h-2.347Zm2.307-13.363c0 1.153.169 2.171.507 3.052.338.875.832 1.561 1.482 2.058.649.491 1.445.736 2.386.736.981 0 1.8-.258 2.456-.775.663-.524 1.16-1.227 1.491-2.108.338-.889.507-1.876.507-2.963 0-1.074-.165-2.042-.497-2.904-.325-.868-.818-1.554-1.481-2.058-.656-.51-1.482-.766-2.476-.766-.955 0-1.757.242-2.406.726-.65.477-1.14 1.147-1.472 2.009-.331.855-.497 1.852-.497 2.993Zm20.96 7.954c-1.379 0-2.588-.328-3.629-.984-1.034-.656-1.843-1.575-2.426-2.754-.577-1.18-.865-2.559-.865-4.137 0-1.591.288-2.979.865-4.166.583-1.187 1.392-2.108 2.426-2.764 1.041-.656 2.25-.985 3.629-.985s2.585.329 3.619.985c1.041.656 1.85 1.577 2.427 2.764.583 1.187.875 2.575.875 4.166 0 1.578-.292 2.957-.875 4.137-.577 1.179-1.386 2.098-2.427 2.754-1.034.656-2.24.984-3.619.984Zm0-2.108c1.047 0 1.909-.268 2.585-.805.677-.537 1.177-1.243 1.502-2.118a8.105 8.105 0 0 0 .487-2.844 8.19 8.19 0 0 0-.487-2.854c-.325-.881-.825-1.594-1.502-2.137-.676-.544-1.538-.816-2.585-.816s-1.909.272-2.585.816c-.676.543-1.177 1.256-1.501 2.137a8.19 8.19 0 0 0-.488 2.854c0 1.021.163 1.969.488 2.844.324.875.825 1.581 1.501 2.118.676.537 1.538.805 2.585.805Zm10.503 1.79v-15.273h6.244c1.644 0 2.95.371 3.918 1.114.967.742 1.451 1.723 1.451 2.943 0 .928-.275 1.647-.825 2.158-.55.504-1.256.845-2.118 1.024a4.35 4.35 0 0 1 1.641.596c.537.319.981.756 1.332 1.313.351.55.527 1.226.527 2.028 0 .783-.199 1.482-.597 2.098-.397.617-.967 1.104-1.71 1.462-.742.358-1.63.537-2.665.537h-7.198Zm2.227-2.148h4.971c.809 0 1.442-.192 1.9-.576.457-.385.686-.909.686-1.571 0-.789-.229-1.409-.686-1.86-.458-.457-1.091-.686-1.9-.686h-4.971v4.693Zm0-6.721h4.017c.63 0 1.17-.086 1.621-.259.45-.179.795-.431 1.034-.756.245-.331.368-.722.368-1.173 0-.643-.269-1.147-.806-1.511-.537-.371-1.276-.557-2.217-.557h-4.017v4.256Zm17.99 9.227c-.968 0-1.847-.182-2.635-.547a4.522 4.522 0 0 1-1.88-1.601c-.464-.702-.696-1.551-.696-2.545 0-.875.173-1.585.517-2.128.345-.55.806-.981 1.383-1.293a7.293 7.293 0 0 1 1.909-.696 23.257 23.257 0 0 1 2.118-.378c.928-.119 1.68-.208 2.257-.268.583-.066 1.007-.176 1.272-.328.272-.153.408-.418.408-.796v-.079c0-.981-.268-1.744-.805-2.287-.531-.544-1.336-.815-2.417-.815-1.12 0-1.998.245-2.635.735-.636.491-1.083 1.015-1.342 1.571l-2.227-.795c.398-.928.928-1.651 1.591-2.168a5.956 5.956 0 0 1 2.187-1.093 9.052 9.052 0 0 1 2.347-.319c.49 0 1.054.06 1.69.179a5.421 5.421 0 0 1 1.86.706c.603.358 1.103.899 1.501 1.621.398.723.597 1.69.597 2.904V318h-2.347v-2.068h-.119c-.159.331-.425.686-.796 1.064-.371.378-.865.699-1.481.964-.617.265-1.369.398-2.257.398Zm.358-2.108c.928 0 1.71-.182 2.346-.547.643-.364 1.127-.835 1.452-1.412a3.602 3.602 0 0 0 .497-1.819v-2.148c-.099.119-.318.229-.656.328a11.05 11.05 0 0 1-1.154.249c-.431.066-.851.126-1.262.179-.405.046-.733.086-.985.119-.61.079-1.18.209-1.71.388-.524.172-.948.434-1.273.785-.318.345-.477.815-.477 1.412 0 .815.302 1.432.905 1.85.61.411 1.382.616 2.317.616Zm21.146-6.96v2.187h-8.432v-2.187h8.432Zm-7.875-6.563V318h-2.346v-15.273h2.346Zm9.665 0V318h-2.347v-15.273h2.347Zm14.507 6.563v2.187h-8.432v-2.187h8.432Zm-7.875-6.563V318h-2.346v-15.273h2.346Zm9.665 0V318h-2.347v-15.273h2.347Zm6.314 5.529h4.375c1.79 0 3.158.454 4.106 1.362.948.908 1.422 2.058 1.422 3.45 0 .915-.212 1.747-.636 2.496-.424.742-1.048 1.336-1.869 1.78-.822.437-1.83.656-3.023.656h-6.404v-15.273h2.347v13.085h4.057c.928 0 1.69-.245 2.287-.735.596-.491.895-1.121.895-1.889 0-.809-.299-1.469-.895-1.979-.597-.511-1.359-.766-2.287-.766h-4.375v-2.187ZM291.978 318v-15.273h2.347V318h-2.347Zm8.989-3.46 7.358-11.813h2.704V318h-2.346v-11.812L301.365 318h-2.745v-15.273h2.347v11.813Zm5.807-16.904h2.187c0 1.074-.371 1.953-1.113 2.635-.743.683-1.75 1.024-3.023 1.024-1.253 0-2.251-.341-2.993-1.024-.736-.682-1.104-1.561-1.104-2.635h2.188c0 .517.142.971.427 1.363.292.391.786.586 1.482.586s1.193-.195 1.491-.586c.305-.392.458-.846.458-1.363Zm22.633 20.682c-1.432 0-2.665-.338-3.699-1.014-1.034-.676-1.829-1.608-2.386-2.794-.557-1.187-.835-2.542-.835-4.067 0-1.551.285-2.92.855-4.106.576-1.194 1.378-2.125 2.406-2.794 1.034-.677 2.24-1.015 3.619-1.015 1.074 0 2.042.199 2.904.597a5.571 5.571 0 0 1 2.117 1.67c.551.716.892 1.552 1.025 2.506h-2.347c-.179-.696-.577-1.312-1.193-1.849-.61-.544-1.432-.816-2.466-.816-.915 0-1.717.239-2.406.716-.683.471-1.217 1.137-1.601 1.999-.378.855-.567 1.859-.567 3.013 0 1.18.186 2.207.557 3.082.378.875.908 1.554 1.591 2.038.689.484 1.498.726 2.426.726.61 0 1.163-.106 1.66-.318a3.41 3.41 0 0 0 1.263-.915 3.5 3.5 0 0 0 .736-1.432h2.347a5.442 5.442 0 0 1-.985 2.437c-.517.715-1.203 1.286-2.058 1.71-.848.417-1.836.626-2.963.626Zm9.436-.318v-15.273h12.011V318h-2.346v-13.085h-7.318V318h-2.347Zm18.644-3.46 7.357-11.813h2.705V318h-2.347v-11.812L357.884 318h-2.744v-15.273h2.347v11.813Zm20.564 3.778c-1.431 0-2.664-.338-3.698-1.014-1.034-.676-1.83-1.608-2.387-2.794-.557-1.187-.835-2.542-.835-4.067 0-1.551.285-2.92.855-4.106.577-1.194 1.379-2.125 2.406-2.794 1.034-.677 2.241-1.015 3.62-1.015 1.074 0 2.041.199 2.903.597a5.567 5.567 0 0 1 2.118 1.67c.55.716.892 1.552 1.024 2.506h-2.346c-.179-.696-.577-1.312-1.194-1.849-.609-.544-1.431-.816-2.466-.816-.914 0-1.716.239-2.406.716-.683.471-1.216 1.137-1.601 1.999-.377.855-.566 1.859-.566 3.013 0 1.18.185 2.207.556 3.082.378.875.909 1.554 1.591 2.038.69.484 1.498.726 2.426.726.61 0 1.164-.106 1.661-.318a3.426 3.426 0 0 0 1.263-.915c.344-.397.59-.875.736-1.432h2.346a5.44 5.44 0 0 1-.984 2.437c-.517.715-1.203 1.286-2.058 1.71-.849.417-1.837.626-2.964.626Zm15.641 0c-1.379 0-2.588-.328-3.629-.984-1.034-.656-1.843-1.575-2.426-2.754-.577-1.18-.865-2.559-.865-4.137 0-1.591.288-2.979.865-4.166.583-1.187 1.392-2.108 2.426-2.764 1.041-.656 2.25-.985 3.629-.985s2.585.329 3.619.985c1.041.656 1.85 1.577 2.427 2.764.583 1.187.875 2.575.875 4.166 0 1.578-.292 2.957-.875 4.137-.577 1.179-1.386 2.098-2.427 2.754-1.034.656-2.24.984-3.619.984Zm0-2.108c1.047 0 1.909-.268 2.585-.805.676-.537 1.177-1.243 1.502-2.118a8.105 8.105 0 0 0 .487-2.844 8.19 8.19 0 0 0-.487-2.854c-.325-.881-.826-1.594-1.502-2.137-.676-.544-1.538-.816-2.585-.816s-1.909.272-2.585.816c-.676.543-1.177 1.256-1.502 2.137a8.212 8.212 0 0 0-.487 2.854c0 1.021.163 1.969.487 2.844.325.875.826 1.581 1.502 2.118.676.537 1.538.805 2.585.805Zm10.503 1.79v-15.273h2.346v6.642h1.551l5.489-6.642h3.023l-6.165 7.358 6.244 7.915h-3.022l-5.012-6.443h-2.108V318h-2.346ZM76 372a4 4 0 1 1-8 0 4 4 0 0 1 8 0ZM106.466 361.636h2.943l6.921 16.904h.238l6.921-16.904h2.943V382h-2.307v-15.472h-.199L117.562 382h-2.227l-6.363-15.472h-.199V382h-2.307v-20.364Zm29.086 20.722c-.968 0-1.846-.182-2.635-.547a4.519 4.519 0 0 1-1.879-1.601c-.464-.702-.696-1.551-.696-2.545 0-.875.172-1.585.517-2.128.345-.55.805-.981 1.382-1.293a7.306 7.306 0 0 1 1.909-.696 23.38 23.38 0 0 1 2.118-.378 99.408 99.408 0 0 1 2.257-.268c.584-.066 1.008-.176 1.273-.328.272-.153.408-.418.408-.796v-.079c0-.981-.269-1.744-.806-2.287-.53-.544-1.335-.815-2.416-.815-1.12 0-1.999.245-2.635.735-.636.491-1.084 1.015-1.342 1.571l-2.228-.795c.398-.928.929-1.651 1.591-2.168a5.968 5.968 0 0 1 2.188-1.093 9.044 9.044 0 0 1 2.346-.319c.491 0 1.054.06 1.691.179a5.409 5.409 0 0 1 1.859.706c.603.358 1.104.899 1.502 1.621.397.723.596 1.69.596 2.904V382h-2.346v-2.068h-.12c-.159.331-.424.686-.795 1.064-.371.378-.865.699-1.482.964-.616.265-1.369.398-2.257.398Zm.358-2.108c.928 0 1.71-.182 2.347-.547.643-.364 1.127-.835 1.451-1.412a3.593 3.593 0 0 0 .498-1.819v-2.148c-.1.119-.319.229-.657.328-.331.093-.716.176-1.153.249-.431.066-.852.126-1.263.179-.404.046-.732.086-.984.119-.61.079-1.18.209-1.71.388-.524.172-.948.434-1.273.785-.318.345-.477.815-.477 1.412 0 .815.301 1.432.904 1.85.61.411 1.382.616 2.317.616Zm10.925 7.477v-21h2.267v2.426h.279c.172-.265.411-.603.716-1.014.311-.417.755-.789 1.332-1.113.583-.332 1.372-.498 2.366-.498 1.286 0 2.42.322 3.401.965.981.643 1.747 1.554 2.297 2.734s.825 2.572.825 4.176c0 1.618-.275 3.02-.825 4.206-.55 1.18-1.313 2.095-2.287 2.745-.974.643-2.098.964-3.371.964-.981 0-1.766-.162-2.356-.487-.59-.331-1.044-.706-1.363-1.124a14.747 14.747 0 0 1-.735-1.054h-.199v8.074h-2.347Zm2.307-13.363c0 1.153.169 2.171.507 3.052.338.875.832 1.561 1.482 2.058.649.491 1.445.736 2.386.736.981 0 1.8-.258 2.456-.775.663-.524 1.16-1.227 1.491-2.108.339-.889.508-1.876.508-2.963 0-1.074-.166-2.042-.498-2.904-.324-.868-.818-1.554-1.481-2.058-.656-.51-1.482-.766-2.476-.766-.954 0-1.757.242-2.406.726-.65.477-1.14 1.147-1.472 2.009-.331.855-.497 1.852-.497 2.993ZM163.898 382v-15.273h2.346v6.642h1.551l5.489-6.642h3.023l-6.165 7.358 6.244 7.915h-3.022l-5.012-6.443h-2.108V382h-2.346Zm17.385-3.46 7.358-11.813h2.705V382h-2.347v-11.812L181.681 382h-2.744v-15.273h2.346v11.813Zm14.361 9.187v-21h2.267v2.426h.278c.173-.265.411-.603.716-1.014.312-.417.756-.789 1.333-1.113.583-.332 1.372-.498 2.366-.498 1.286 0 2.42.322 3.401.965.981.643 1.746 1.554 2.296 2.734.551 1.18.826 2.572.826 4.176 0 1.618-.275 3.02-.826 4.206-.55 1.18-1.312 2.095-2.286 2.745-.975.643-2.098.964-3.371.964-.981 0-1.767-.162-2.357-.487-.59-.331-1.044-.706-1.362-1.124a15.152 15.152 0 0 1-.736-1.054h-.199v8.074h-2.346Zm2.307-13.363c0 1.153.169 2.171.507 3.052.338.875.832 1.561 1.481 2.058.65.491 1.445.736 2.387.736.981 0 1.799-.258 2.456-.775.662-.524 1.16-1.227 1.491-2.108.338-.889.507-1.876.507-2.963 0-1.074-.166-2.042-.497-2.904-.325-.868-.819-1.554-1.482-2.058-.656-.51-1.481-.766-2.475-.766-.955 0-1.757.242-2.407.726-.649.477-1.14 1.147-1.471 2.009-.332.855-.497 1.852-.497 2.993Zm20.96 7.954c-1.379 0-2.589-.328-3.629-.984-1.034-.656-1.843-1.575-2.427-2.754-.576-1.18-.865-2.559-.865-4.137 0-1.591.289-2.979.865-4.166.584-1.187 1.393-2.108 2.427-2.764 1.04-.656 2.25-.985 3.629-.985s2.585.329 3.619.985c1.041.656 1.85 1.577 2.426 2.764.584 1.187.875 2.575.875 4.166 0 1.578-.291 2.957-.875 4.137-.576 1.179-1.385 2.098-2.426 2.754-1.034.656-2.24.984-3.619.984Zm0-2.108c1.047 0 1.909-.268 2.585-.805.676-.537 1.177-1.243 1.502-2.118a8.128 8.128 0 0 0 .487-2.844 8.212 8.212 0 0 0-.487-2.854c-.325-.881-.826-1.594-1.502-2.137-.676-.544-1.538-.816-2.585-.816s-1.909.272-2.585.816c-.676.543-1.177 1.256-1.502 2.137a8.19 8.19 0 0 0-.487 2.854c0 1.021.162 1.969.487 2.844.325.875.826 1.581 1.502 2.118.676.537 1.538.805 2.585.805Zm10.502 1.79v-15.273h6.245c1.644 0 2.949.371 3.917 1.114.968.742 1.452 1.723 1.452 2.943 0 .928-.275 1.647-.825 2.158-.55.504-1.256.845-2.118 1.024.563.079 1.11.278 1.64.596.537.319.981.756 1.333 1.313.351.55.527 1.226.527 2.028 0 .783-.199 1.482-.597 2.098-.398.617-.968 1.104-1.71 1.462-.742.358-1.631.537-2.665.537h-7.199Zm2.228-2.148h4.971c.809 0 1.442-.192 1.899-.576.458-.385.686-.909.686-1.571 0-.789-.228-1.409-.686-1.86-.457-.457-1.09-.686-1.899-.686h-4.971v4.693Zm0-6.721h4.017c.629 0 1.17-.086 1.62-.259.451-.179.796-.431 1.034-.756.246-.331.368-.722.368-1.173 0-.643-.268-1.147-.805-1.511-.537-.371-1.276-.557-2.217-.557h-4.017v4.256Zm17.989 9.227c-.967 0-1.846-.182-2.635-.547a4.525 4.525 0 0 1-1.879-1.601c-.464-.702-.696-1.551-.696-2.545 0-.875.172-1.585.517-2.128.345-.55.806-.981 1.382-1.293a7.306 7.306 0 0 1 1.909-.696 23.38 23.38 0 0 1 2.118-.378 99.408 99.408 0 0 1 2.257-.268c.584-.066 1.008-.176 1.273-.328.272-.153.408-.418.408-.796v-.079c0-.981-.269-1.744-.806-2.287-.53-.544-1.335-.815-2.416-.815-1.12 0-1.998.245-2.635.735-.636.491-1.084 1.015-1.342 1.571l-2.227-.795c.397-.928.928-1.651 1.591-2.168a5.956 5.956 0 0 1 2.187-1.093 9.046 9.046 0 0 1 2.347-.319c.49 0 1.054.06 1.69.179a5.409 5.409 0 0 1 1.859.706c.604.358 1.104.899 1.502 1.621.397.723.596 1.69.596 2.904V382h-2.346v-2.068h-.12c-.159.331-.424.686-.795 1.064-.371.378-.865.699-1.482.964-.616.265-1.368.398-2.257.398Zm.358-2.108c.928 0 1.711-.182 2.347-.547.643-.364 1.127-.835 1.452-1.412a3.602 3.602 0 0 0 .497-1.819v-2.148c-.1.119-.318.229-.657.328a10.97 10.97 0 0 1-1.153.249c-.431.066-.852.126-1.263.179-.404.046-.732.086-.984.119-.61.079-1.18.209-1.71.388-.524.172-.948.434-1.273.785-.318.345-.477.815-.477 1.412 0 .815.301 1.432.905 1.85.609.411 1.382.616 2.316.616Zm21.147-6.96v2.187h-8.432v-2.187h8.432Zm-7.875-6.563V382h-2.347v-15.273h2.347Zm9.665 0V382h-2.347v-15.273h2.347Zm14.507 6.563v2.187H279v-2.187h8.432Zm-7.875-6.563V382h-2.347v-15.273h2.347Zm9.665 0V382h-2.347v-15.273h2.347Zm6.314 5.529h4.375c1.789 0 3.158.454 4.106 1.362.948.908 1.422 2.058 1.422 3.45 0 .915-.212 1.747-.636 2.496-.425.742-1.048 1.336-1.87 1.78-.822.437-1.829.656-3.022.656h-6.404v-15.273h2.347v13.085h4.057c.928 0 1.69-.245 2.286-.735.597-.491.895-1.121.895-1.889 0-.809-.298-1.469-.895-1.979-.596-.511-1.358-.766-2.286-.766h-4.375v-2.187ZM307.865 382v-15.273h2.347V382h-2.347Zm8.989-3.46 7.358-11.813h2.704V382h-2.346v-11.812L317.251 382h-2.744v-15.273h2.347v11.813Zm5.807-16.904h2.187c0 1.074-.371 1.953-1.114 2.635-.742.683-1.75 1.024-3.022 1.024-1.253 0-2.251-.341-2.993-1.024-.736-.682-1.104-1.561-1.104-2.635h2.188c0 .517.142.971.427 1.363.292.391.786.586 1.482.586s1.193-.195 1.491-.586c.305-.392.458-.846.458-1.363Zm22.633 20.682c-1.432 0-2.665-.338-3.699-1.014-1.034-.676-1.83-1.608-2.387-2.794-.556-1.187-.835-2.542-.835-4.067 0-1.551.285-2.92.855-4.106.577-1.194 1.379-2.125 2.407-2.794 1.034-.677 2.24-1.015 3.619-1.015 1.074 0 2.042.199 2.903.597a5.567 5.567 0 0 1 2.118 1.67c.55.716.892 1.552 1.024 2.506h-2.346c-.179-.696-.577-1.312-1.193-1.849-.61-.544-1.432-.816-2.466-.816-.915 0-1.717.239-2.407.716-.682.471-1.216 1.137-1.6 1.999-.378.855-.567 1.859-.567 3.013 0 1.18.185 2.207.557 3.082.377.875.908 1.554 1.591 2.038.689.484 1.498.726 2.426.726.61 0 1.163-.106 1.66-.318a3.426 3.426 0 0 0 1.263-.915 3.5 3.5 0 0 0 .736-1.432h2.346a5.429 5.429 0 0 1-.984 2.437c-.517.715-1.203 1.286-2.058 1.71-.849.417-1.836.626-2.963.626Zm9.436-.318v-15.273h12.011V382h-2.346v-13.085h-7.319V382h-2.346Zm18.643-3.46 7.358-11.813h2.705V382h-2.347v-11.812L373.771 382h-2.744v-15.273h2.346v11.813Zm20.565 3.778c-1.432 0-2.665-.338-3.699-1.014-1.034-.676-1.829-1.608-2.386-2.794-.557-1.187-.835-2.542-.835-4.067 0-1.551.285-2.92.855-4.106.577-1.194 1.379-2.125 2.406-2.794 1.034-.677 2.241-1.015 3.619-1.015 1.074 0 2.042.199 2.904.597a5.567 5.567 0 0 1 2.118 1.67c.55.716.891 1.552 1.024 2.506h-2.347c-.179-.696-.576-1.312-1.193-1.849-.61-.544-1.432-.816-2.466-.816-.915 0-1.717.239-2.406.716-.683.471-1.216 1.137-1.601 1.999-.378.855-.567 1.859-.567 3.013 0 1.18.186 2.207.557 3.082.378.875.908 1.554 1.591 2.038.689.484 1.498.726 2.426.726.61 0 1.164-.106 1.661-.318a3.426 3.426 0 0 0 1.263-.915 3.51 3.51 0 0 0 .735-1.432h2.347a5.451 5.451 0 0 1-.984 2.437c-.518.715-1.204 1.286-2.059 1.71-.848.417-1.836.626-2.963.626Zm15.641 0c-1.379 0-2.589-.328-3.629-.984-1.035-.656-1.843-1.575-2.427-2.754-.576-1.18-.865-2.559-.865-4.137 0-1.591.289-2.979.865-4.166.584-1.187 1.392-2.108 2.427-2.764 1.04-.656 2.25-.985 3.629-.985s2.585.329 3.619.985c1.041.656 1.85 1.577 2.426 2.764.584 1.187.875 2.575.875 4.166 0 1.578-.291 2.957-.875 4.137-.576 1.179-1.385 2.098-2.426 2.754-1.034.656-2.24.984-3.619.984Zm0-2.108c1.047 0 1.909-.268 2.585-.805.676-.537 1.177-1.243 1.501-2.118a8.105 8.105 0 0 0 .488-2.844 8.19 8.19 0 0 0-.488-2.854c-.324-.881-.825-1.594-1.501-2.137-.676-.544-1.538-.816-2.585-.816-1.048 0-1.909.272-2.585.816-.677.543-1.177 1.256-1.502 2.137a8.19 8.19 0 0 0-.487 2.854c0 1.021.162 1.969.487 2.844.325.875.825 1.581 1.502 2.118.676.537 1.537.805 2.585.805Zm10.502 1.79v-15.273h2.347v6.642h1.551l5.489-6.642h3.022l-6.164 7.358L432.57 382h-3.023l-5.011-6.443h-2.108V382h-2.347ZM60 439.145v-2.123c0-.603.124-1.219.372-1.848a7.932 7.932 0 0 1 .983-1.778A7.008 7.008 0 0 1 62.678 432l1.944 1.091a9.51 9.51 0 0 0-.951 1.808c-.241.629-.362 1.33-.362 2.103v2.143H60Zm5.222 0v-2.123c0-.603.124-1.219.372-1.848a7.936 7.936 0 0 1 .983-1.778A7.01 7.01 0 0 1 67.9 432l1.945 1.091a9.51 9.51 0 0 0-.952 1.808c-.241.629-.362 1.33-.362 2.103v2.143h-3.309ZM78.799 432.855v2.123c0 .603-.125 1.219-.373 1.848A7.733 7.733 0 0 1 76.12 440l-1.944-1.091c.345-.518.648-1.091.91-1.72.269-.629.403-1.359.403-2.191v-2.143h3.31Zm5.201 0v2.123c0 .603-.124 1.219-.372 1.848a7.737 7.737 0 0 1-.972 1.769A7.34 7.34 0 0 1 81.31 440l-1.944-1.091a9.676 9.676 0 0 0 .92-1.72c.27-.629.404-1.359.404-2.191v-2.143H84ZM123.767 443.653l-.278 7.159h-2.546V446h-1.432v-2.347h4.256ZM106.466 446v-20.364h2.346v18.097h10.5v-18.097h2.347V446h-15.193Zm23.056-3.46 7.358-11.813h2.704V446h-2.346v-11.812L129.919 446h-2.744v-15.273h2.347v11.813Zm12.282-9.625v-2.188h12.409v2.188h-5.011V446h-2.347v-13.085h-5.051Zm19.533 13.443c-.967 0-1.846-.182-2.635-.547a4.525 4.525 0 0 1-1.879-1.601c-.464-.702-.696-1.551-.696-2.545 0-.875.172-1.585.517-2.128.345-.55.806-.981 1.382-1.293a7.306 7.306 0 0 1 1.909-.696 23.38 23.38 0 0 1 2.118-.378 99.408 99.408 0 0 1 2.257-.268c.584-.066 1.008-.176 1.273-.328.272-.153.408-.418.408-.796v-.079c0-.981-.269-1.744-.806-2.287-.53-.544-1.335-.815-2.416-.815-1.12 0-1.998.245-2.635.735-.636.491-1.084 1.015-1.342 1.571l-2.227-.795c.397-.928.928-1.651 1.591-2.168a5.956 5.956 0 0 1 2.187-1.093 9.046 9.046 0 0 1 2.347-.319c.49 0 1.054.06 1.69.179a5.409 5.409 0 0 1 1.859.706c.604.358 1.104.899 1.502 1.621.397.723.596 1.69.596 2.904V446h-2.346v-2.068h-.12c-.159.331-.424.686-.795 1.064-.371.378-.865.699-1.482.964-.616.265-1.368.398-2.257.398Zm.358-2.108c.928 0 1.711-.182 2.347-.547.643-.364 1.127-.835 1.452-1.412a3.602 3.602 0 0 0 .497-1.819v-2.148c-.1.119-.318.229-.656.328a11.05 11.05 0 0 1-1.154.249c-.431.066-.852.126-1.263.179-.404.046-.732.086-.984.119-.61.079-1.18.209-1.71.388-.524.172-.948.434-1.273.785-.318.345-.477.815-.477 1.412 0 .815.301 1.432.905 1.85.609.411 1.382.616 2.316.616Zm8.847-11.335v-2.188h12.409v2.188h-5.011V446h-2.347v-13.085h-5.051Zm19.534 13.443c-.968 0-1.846-.182-2.635-.547a4.522 4.522 0 0 1-1.88-1.601c-.464-.702-.696-1.551-.696-2.545 0-.875.173-1.585.517-2.128.345-.55.806-.981 1.383-1.293a7.293 7.293 0 0 1 1.909-.696 23.257 23.257 0 0 1 2.118-.378c.928-.119 1.68-.208 2.257-.268.583-.066 1.007-.176 1.272-.328.272-.153.408-.418.408-.796v-.079c0-.981-.268-1.744-.805-2.287-.531-.544-1.336-.815-2.417-.815-1.12 0-1.998.245-2.634.735-.637.491-1.084 1.015-1.343 1.571l-2.227-.795c.398-.928.928-1.651 1.591-2.168a5.956 5.956 0 0 1 2.187-1.093 9.052 9.052 0 0 1 2.347-.319c.49 0 1.054.06 1.69.179a5.421 5.421 0 0 1 1.86.706c.603.358 1.103.899 1.501 1.621.398.723.597 1.69.597 2.904V446h-2.347v-2.068h-.119c-.159.331-.425.686-.796 1.064-.371.378-.865.699-1.481.964-.617.265-1.369.398-2.257.398Zm.358-2.108c.928 0 1.71-.182 2.346-.547.643-.364 1.127-.835 1.452-1.412a3.602 3.602 0 0 0 .497-1.819v-2.148c-.099.119-.318.229-.656.328a11.05 11.05 0 0 1-1.154.249c-.43.066-.851.126-1.262.179-.405.046-.733.086-.985.119-.61.079-1.18.209-1.71.388-.524.172-.948.434-1.273.785-.318.345-.477.815-.477 1.412 0 .815.302 1.432.905 1.85.61.411 1.382.616 2.317.616Z"/><path fill="#3D3E43" fill-rule="evenodd" d="M71.997 489.334c-3.979 0-6.666 3.314-6.666 6.666 0 1.559.774 2.925 1.776 4.427.09.137.185.276.28.418.398.59.823 1.22 1.156 1.829.417.766.788 1.666.788 2.66v1.333h5.333v-1.333c0-.994.37-1.894.788-2.66.332-.609.757-1.239 1.155-1.829l.281-.418c1.001-1.502 1.776-2.868 1.776-4.427 0-3.352-2.688-6.666-6.667-6.666ZM62.664 496c0-4.648 3.711-9.333 9.333-9.333 5.623 0 9.334 4.685 9.334 9.333 0 2.441-1.225 4.409-2.224 5.907-.112.168-.22.329-.325.483-.39.578-.723 1.073-.99 1.561-.332.61-.461 1.043-.461 1.383v1.333a2.667 2.667 0 0 1-2.667 2.667h-5.333a2.667 2.667 0 0 1-2.667-2.667v-1.333c0-.34-.13-.773-.462-1.383-.266-.488-.6-.983-.99-1.561a84.383 84.383 0 0 1-.324-.483c-.999-1.498-2.224-3.466-2.224-5.907ZM66.664 512c0-.736.597-1.333 1.333-1.333h8a1.333 1.333 0 1 1 0 2.667h-8A1.333 1.333 0 0 1 66.664 512Z" clip-rule="evenodd"/><path fill="#3D3E43" d="M122.852 496h-2.466a5.122 5.122 0 0 0-.765-1.869 5.11 5.11 0 0 0-1.313-1.353 5.58 5.58 0 0 0-1.7-.835 6.812 6.812 0 0 0-1.949-.278c-1.233 0-2.35.311-3.351.934-.994.624-1.786 1.542-2.376 2.755-.584 1.213-.875 2.701-.875 4.464 0 1.763.291 3.252.875 4.465.59 1.213 1.382 2.131 2.376 2.754 1.001.623 2.118.935 3.351.935.676 0 1.326-.093 1.949-.279a5.697 5.697 0 0 0 1.7-.825 5.237 5.237 0 0 0 1.313-1.362c.364-.544.62-1.167.765-1.87h2.466c-.185 1.041-.523 1.972-1.014 2.794a7.618 7.618 0 0 1-1.829 2.098 8.02 8.02 0 0 1-2.456 1.303 9.166 9.166 0 0 1-2.894.447c-1.737 0-3.281-.424-4.633-1.272-1.353-.849-2.417-2.055-3.192-3.62-.776-1.564-1.164-3.42-1.164-5.568 0-2.148.388-4.004 1.164-5.568.775-1.564 1.839-2.771 3.192-3.619 1.352-.849 2.896-1.273 4.633-1.273 1.028 0 1.992.149 2.894.447a7.917 7.917 0 0 1 2.456 1.313 7.49 7.49 0 0 1 1.829 2.088c.491.815.829 1.747 1.014 2.794Zm9.871 14.318c-1.378 0-2.588-.328-3.629-.984-1.034-.656-1.843-1.575-2.426-2.754-.577-1.18-.865-2.559-.865-4.137 0-1.591.288-2.979.865-4.166.583-1.187 1.392-2.108 2.426-2.764 1.041-.656 2.251-.985 3.629-.985 1.379 0 2.586.329 3.62.985 1.04.656 1.849 1.577 2.426 2.764.583 1.187.875 2.575.875 4.166 0 1.578-.292 2.957-.875 4.137-.577 1.179-1.386 2.098-2.426 2.754-1.034.656-2.241.984-3.62.984Zm0-2.108c1.048 0 1.909-.268 2.586-.805.676-.537 1.176-1.243 1.501-2.118a8.105 8.105 0 0 0 .487-2.844 8.19 8.19 0 0 0-.487-2.854c-.325-.881-.825-1.594-1.501-2.137-.677-.544-1.538-.816-2.586-.816-1.047 0-1.909.272-2.585.816-.676.543-1.176 1.256-1.501 2.137a8.19 8.19 0 0 0-.487 2.854c0 1.021.162 1.969.487 2.844.325.875.825 1.581 1.501 2.118.676.537 1.538.805 2.585.805Zm10.503 1.79v-15.273h6.244c1.644 0 2.95.371 3.918 1.114.968.742 1.451 1.723 1.451 2.943 0 .928-.275 1.647-.825 2.158-.55.504-1.256.845-2.118 1.024a4.343 4.343 0 0 1 1.641.596c.537.319.981.756 1.332 1.313.352.55.527 1.226.527 2.028 0 .783-.199 1.482-.596 2.098-.398.617-.968 1.104-1.711 1.462-.742.358-1.63.537-2.664.537h-7.199Zm2.227-2.148h4.972c.808 0 1.441-.192 1.899-.576.457-.385.686-.909.686-1.571 0-.789-.229-1.409-.686-1.86-.458-.457-1.091-.686-1.899-.686h-4.972v4.693Zm0-6.721h4.017c.63 0 1.17-.086 1.621-.259.451-.179.795-.431 1.034-.756.245-.331.368-.722.368-1.173 0-.643-.269-1.147-.805-1.511-.537-.371-1.277-.557-2.218-.557h-4.017v4.256Zm19.899 9.187c-1.472 0-2.741-.325-3.808-.974-1.061-.656-1.88-1.571-2.456-2.745-.57-1.179-.855-2.552-.855-4.116 0-1.564.285-2.943.855-4.136.576-1.2 1.379-2.135 2.406-2.804 1.034-.677 2.24-1.015 3.619-1.015.796 0 1.581.133 2.357.398a5.843 5.843 0 0 1 2.118 1.293c.636.59 1.143 1.372 1.521 2.346.378.975.567 2.175.567 3.6v.994h-11.773v-2.028h9.386c0-.862-.172-1.631-.517-2.307a3.9 3.9 0 0 0-1.451-1.601c-.623-.391-1.359-.587-2.208-.587-.934 0-1.743.232-2.426.696a4.586 4.586 0 0 0-1.561 1.79 5.255 5.255 0 0 0-.547 2.367v1.352c0 1.153.199 2.131.597 2.933.404.796.964 1.402 1.68 1.82.716.411 1.548.616 2.496.616.616 0 1.173-.086 1.67-.258a3.572 3.572 0 0 0 1.303-.796c.365-.358.646-.802.845-1.332l2.267.636a5.03 5.03 0 0 1-1.203 2.029c-.563.576-1.259 1.027-2.088 1.352-.829.318-1.76.477-2.794.477Zm8.472-13.403v-2.188h12.409v2.188h-5.012V510h-2.346v-13.085h-5.051Z"/><path fill="#3D3E43" fill-rule="evenodd" d="M61.336 564c0-.736.597-1.333 1.333-1.333h18.667a1.333 1.333 0 1 1 0 2.667H62.669A1.334 1.334 0 0 1 61.336 564Z" clip-rule="evenodd"/><path fill="#3D3E43" d="M106.466 574v-20.364h6.881c1.597 0 2.903.289 3.917.865 1.021.57 1.777 1.343 2.267 2.317.491.975.736 2.062.736 3.262 0 1.199-.245 2.29-.736 3.271-.484.981-1.233 1.763-2.247 2.346-1.014.577-2.313.865-3.898.865h-4.931v-2.187h4.852c1.094 0 1.972-.189 2.635-.567.663-.378 1.143-.888 1.442-1.531.304-.65.457-1.382.457-2.197 0-.816-.153-1.545-.457-2.188-.299-.643-.783-1.147-1.452-1.511-.67-.372-1.558-.557-2.665-.557h-4.335V574h-2.466Zm21.949.358c-.967 0-1.846-.182-2.634-.547a4.522 4.522 0 0 1-1.88-1.601c-.464-.702-.696-1.551-.696-2.545 0-.875.173-1.585.517-2.128.345-.55.806-.981 1.382-1.293a7.306 7.306 0 0 1 1.909-.696 23.38 23.38 0 0 1 2.118-.378 99.408 99.408 0 0 1 2.257-.268c.584-.066 1.008-.176 1.273-.328.272-.153.408-.418.408-.796v-.079c0-.981-.269-1.744-.806-2.287-.53-.544-1.335-.815-2.416-.815-1.12 0-1.998.245-2.635.735-.636.491-1.083 1.015-1.342 1.571l-2.227-.795c.397-.928.928-1.651 1.591-2.168a5.956 5.956 0 0 1 2.187-1.093 9.052 9.052 0 0 1 2.347-.319c.49 0 1.054.06 1.69.179a5.409 5.409 0 0 1 1.859.706c.604.358 1.104.899 1.502 1.621.398.723.596 1.69.596 2.904V574h-2.346v-2.068h-.119c-.16.331-.425.686-.796 1.064-.371.378-.865.699-1.481.964-.617.265-1.369.398-2.258.398Zm.358-2.108c.928 0 1.711-.182 2.347-.547.643-.364 1.127-.835 1.452-1.412a3.602 3.602 0 0 0 .497-1.819v-2.148c-.1.119-.318.229-.656.328a11.05 11.05 0 0 1-1.154.249c-.431.066-.852.126-1.263.179-.404.046-.732.086-.984.119-.61.079-1.18.209-1.71.388-.524.172-.948.434-1.273.785-.318.345-.477.815-.477 1.412 0 .815.301 1.432.905 1.85.61.411 1.382.616 2.316.616Zm9.971-2.148h2.506c.053.69.364 1.213.934 1.571.577.358 1.326.537 2.247.537.942 0 1.747-.192 2.417-.576.669-.392 1.004-1.021 1.004-1.89 0-.51-.126-.954-.378-1.332a2.48 2.48 0 0 0-1.064-.895c-.457-.212-.997-.318-1.621-.318h-2.625v-2.108h2.625c.935 0 1.624-.212 2.069-.636.45-.425.676-.955.676-1.591 0-.683-.242-1.23-.726-1.641-.484-.418-1.17-.626-2.058-.626-.895 0-1.641.202-2.238.606-.596.398-.911.912-.944 1.541h-2.466a3.702 3.702 0 0 1 .756-2.177c.477-.637 1.126-1.134 1.948-1.492.822-.364 1.764-.547 2.824-.547 1.074 0 2.006.189 2.794.567.796.371 1.409.878 1.84 1.521a3.74 3.74 0 0 1 .656 2.168c0 .862-.242 1.558-.726 2.088s-1.09.908-1.819 1.134v.159c.576.04 1.077.225 1.501.557a3.22 3.22 0 0 1 1.004 1.282c.239.524.358 1.104.358 1.74 0 .928-.248 1.737-.745 2.426-.498.683-1.18 1.214-2.049 1.591-.868.372-1.859.557-2.973.557-1.08 0-2.048-.175-2.903-.527-.855-.358-1.535-.852-2.039-1.481a3.681 3.681 0 0 1-.785-2.208Zm13.16 8.273v-6.563h1.272c.312-.324.581-.676.806-1.053.225-.378.421-.826.587-1.343.172-.523.318-1.16.437-1.909.119-.756.225-1.667.318-2.734l.517-6.046h9.705v13.085h2.346v6.563h-2.346V574H154.25v4.375h-2.346Zm3.937-6.563h7.358v-10.897h-5.17l-.398 3.858c-.166 1.597-.371 2.993-.616 4.186-.246 1.193-.637 2.144-1.174 2.853Zm21.57 2.506c-1.472 0-2.741-.325-3.809-.974-1.06-.656-1.879-1.571-2.456-2.745-.57-1.179-.855-2.552-.855-4.116 0-1.564.285-2.943.855-4.136.577-1.2 1.379-2.135 2.407-2.804 1.034-.677 2.24-1.015 3.619-1.015a7.24 7.24 0 0 1 2.356.398 5.826 5.826 0 0 1 2.118 1.293c.637.59 1.144 1.372 1.522 2.346.377.975.566 2.175.566 3.6v.994h-11.772v-2.028h9.386c0-.862-.172-1.631-.517-2.307a3.895 3.895 0 0 0-1.452-1.601c-.623-.391-1.359-.587-2.207-.587-.935 0-1.743.232-2.426.696a4.578 4.578 0 0 0-1.561 1.79 5.255 5.255 0 0 0-.547 2.367v1.352c0 1.153.199 2.131.596 2.933.405.796.965 1.402 1.681 1.82.716.411 1.548.616 2.496.616.616 0 1.173-.086 1.67-.258a3.572 3.572 0 0 0 1.303-.796c.364-.358.646-.802.845-1.332l2.267.636a5.042 5.042 0 0 1-1.203 2.029c-.564.576-1.26 1.027-2.088 1.352-.829.318-1.76.477-2.794.477Zm8.541-.318v-2.188h.557c.457 0 .838-.089 1.143-.268.305-.186.55-.507.736-.964.192-.464.338-1.107.437-1.929.106-.829.183-1.883.229-3.162l.278-6.762h10.182V574h-2.346v-13.085h-5.608l-.239 5.449c-.053 1.252-.166 2.356-.338 3.311-.166.948-.421 1.743-.766 2.386-.338.643-.788 1.127-1.352 1.452-.563.325-1.269.487-2.118.487h-.795Zm20.214-3.46 7.358-11.813h2.705V574h-2.347v-11.812L206.564 574h-2.744v-15.273h2.346v11.813Zm12.283-9.625v-2.188h12.409v2.188h-5.012V574H223.5v-13.085h-5.051Zm21.442 13.403c-1.472 0-2.741-.325-3.808-.974-1.061-.656-1.88-1.571-2.456-2.745-.57-1.179-.855-2.552-.855-4.116 0-1.564.285-2.943.855-4.136.576-1.2 1.379-2.135 2.406-2.804 1.034-.677 2.241-1.015 3.619-1.015.796 0 1.581.133 2.357.398a5.843 5.843 0 0 1 2.118 1.293c.636.59 1.143 1.372 1.521 2.346.378.975.567 2.175.567 3.6v.994h-11.773v-2.028h9.386c0-.862-.172-1.631-.517-2.307a3.9 3.9 0 0 0-1.451-1.601c-.623-.391-1.359-.587-2.208-.587-.934 0-1.743.232-2.426.696a4.586 4.586 0 0 0-1.561 1.79 5.268 5.268 0 0 0-.547 2.367v1.352c0 1.153.199 2.131.597 2.933.404.796.964 1.402 1.68 1.82.716.411 1.548.616 2.496.616.616 0 1.173-.086 1.67-.258a3.572 3.572 0 0 0 1.303-.796c.365-.358.646-.802.845-1.332l2.267.636a5.02 5.02 0 0 1-1.203 2.029c-.563.576-1.259 1.027-2.088 1.352-.829.318-1.76.477-2.794.477Zm8.541-.318v-2.188h.557c.457 0 .839-.089 1.143-.268.305-.186.551-.507.736-.964.192-.464.338-1.107.438-1.929.106-.829.182-1.883.228-3.162l.279-6.762h10.182V574h-2.347v-13.085h-5.608l-.239 5.449c-.053 1.252-.165 2.356-.338 3.311-.165.948-.421 1.743-.765 2.386-.338.643-.789 1.127-1.352 1.452-.564.325-1.27.487-2.118.487h-.796Zm19.896-9.744h4.375c1.79 0 3.159.454 4.107 1.362.948.908 1.422 2.058 1.422 3.45 0 .915-.212 1.747-.636 2.496-.425.742-1.048 1.336-1.87 1.78-.822.437-1.829.656-3.023.656H266.3v-15.273h2.347v13.085h4.056c.929 0 1.691-.245 2.287-.735.597-.491.895-1.121.895-1.889 0-.809-.298-1.469-.895-1.979-.596-.511-1.358-.766-2.287-.766h-4.375v-2.187Z"/><path fill="#101010" stroke="#3D3E43" stroke-width="2" d="M66.343 617h11.31c1.088 0 1.927.001 2.599.056.687.056 1.23.171 1.713.417a4.33 4.33 0 0 1 1.726 1.594l.167.299c.216.422.33.89.393 1.461l.023.252c.056.672.057 1.512.057 2.6v8.642c0 .816 0 1.493-.024 2.063l-.033.537c-.049.602-.142 1.093-.33 1.529l-.086.184a4.33 4.33 0 0 1-1.594 1.726l-.3.167c-.482.246-1.025.361-1.712.417-.672.055-1.511.056-2.6.056h-11.31c-1.087 0-1.927-.001-2.599-.056-.687-.056-1.23-.171-1.713-.417a4.33 4.33 0 0 1-1.726-1.594l-.167-.299c-.215-.422-.33-.89-.393-1.461l-.024-.252c-.055-.672-.056-1.512-.056-2.6v-8.642c0-.816 0-1.493.023-2.063l.033-.537c.049-.602.142-1.093.33-1.529l.087-.184a4.328 4.328 0 0 1 1.893-1.893c.483-.246 1.026-.361 1.713-.417.672-.055 1.512-.056 2.6-.056Zm.88 9.748-6.573 7.669-.288.336.055.438c.06.477.157.832.313 1.139v.002c.352.69.913 1.25 1.602 1.602l.001.001c.373.189.819.292 1.465.345.65.053 1.475.053 2.6.053h11.2c1.125 0 1.949 0 2.6-.053.645-.053 1.09-.156 1.463-.345l.001-.001a3.676 3.676 0 0 0 1.501-1.417l.347-.593-.429-.536-3.747-4.683-.698-.873-.79.79-1.913 1.915a1.667 1.667 0 0 1-2.46-.112l-4.722-5.666-.757-.909-.77.898Zm-.826-9.081c-1.124 0-1.949 0-2.6.053-.645.053-1.09.156-1.464.345l-.001.001a3.672 3.672 0 0 0-1.602 1.602v.001c-.19.373-.294.819-.346 1.465-.053.65-.053 1.474-.053 2.599v10.033l1.759-2.053 4.628-5.399a1.667 1.667 0 0 1 2.546.018l4.721 5.666.701.842 2.689-2.689a1.667 1.667 0 0 1 2.48.137l2.028 2.535 1.781 2.227v-11.317c0-1.125 0-1.949-.054-2.599-.052-.646-.156-1.092-.345-1.465v-.001l-.142-.252a3.676 3.676 0 0 0-1.46-1.35l-.002-.001c-.373-.189-.818-.292-1.464-.345-.65-.053-1.474-.053-2.6-.053h-11.2Zm10.934 4.666a1.667 1.667 0 1 1-.002 3.334 1.667 1.667 0 0 1 .002-3.334Z"/><path fill="#3D3E43" d="M106.466 617.636h2.426v16.029h.199l11.136-16.029h2.387V638h-2.466v-15.989h-.199L108.852 638h-2.386v-20.364Zm19.809 16.466h2.506c.053.69.364 1.213.935 1.571.576.358 1.325.537 2.247.537.941 0 1.746-.192 2.416-.576.669-.392 1.004-1.021 1.004-1.89 0-.51-.126-.954-.378-1.332a2.48 2.48 0 0 0-1.064-.895c-.457-.212-.997-.318-1.62-.318h-2.625v-2.108h2.625c.934 0 1.624-.212 2.068-.636.451-.425.676-.955.676-1.591 0-.683-.242-1.23-.726-1.641-.484-.418-1.17-.626-2.058-.626-.895 0-1.641.202-2.237.606-.597.398-.912.912-.945 1.541h-2.466a3.716 3.716 0 0 1 .756-2.177c.477-.637 1.127-1.134 1.949-1.492.822-.364 1.763-.547 2.824-.547 1.073 0 2.005.189 2.794.567.795.371 1.408.878 1.839 1.521.438.637.656 1.359.656 2.168 0 .862-.242 1.558-.726 2.088-.483.53-1.09.908-1.819 1.134v.159c.577.04 1.077.225 1.501.557a3.23 3.23 0 0 1 1.005 1.282 4.16 4.16 0 0 1 .358 1.74c0 .928-.249 1.737-.746 2.426-.497.683-1.18 1.214-2.049 1.591-.868.372-1.859.557-2.973.557-1.08 0-2.048-.175-2.903-.527-.855-.358-1.534-.852-2.038-1.481a3.689 3.689 0 0 1-.786-2.208Zm20.995 4.216c-1.379 0-2.588-.328-3.629-.984-1.034-.656-1.843-1.575-2.426-2.754-.577-1.18-.865-2.559-.865-4.137 0-1.591.288-2.979.865-4.166.583-1.187 1.392-2.108 2.426-2.764 1.041-.656 2.25-.985 3.629-.985s2.585.329 3.62.985c1.04.656 1.849 1.577 2.426 2.764.583 1.187.875 2.575.875 4.166 0 1.578-.292 2.957-.875 4.137-.577 1.179-1.386 2.098-2.426 2.754-1.035.656-2.241.984-3.62.984Zm0-2.108c1.048 0 1.909-.268 2.585-.805.677-.537 1.177-1.243 1.502-2.118a8.105 8.105 0 0 0 .487-2.844 8.19 8.19 0 0 0-.487-2.854c-.325-.881-.825-1.594-1.502-2.137-.676-.544-1.537-.816-2.585-.816-1.047 0-1.909.272-2.585.816-.676.543-1.177 1.256-1.501 2.137a8.19 8.19 0 0 0-.488 2.854c0 1.021.163 1.969.488 2.844.324.875.825 1.581 1.501 2.118.676.537 1.538.805 2.585.805ZM169.108 617l1.193 1.432a3.825 3.825 0 0 1-1.611.944 9.018 9.018 0 0 1-2.068.329c-.769.039-1.624.079-2.565.119-1.061.04-1.939.298-2.635.775-.696.478-1.233 1.167-1.611 2.069-.378.901-.62 2.008-.726 3.321h.199c.517-.955 1.233-1.658 2.148-2.108a6.567 6.567 0 0 1 2.943-.676c1.193 0 2.267.278 3.222.835.954.557 1.71 1.382 2.267 2.476.556 1.093.835 2.442.835 4.046 0 1.598-.285 2.977-.855 4.137-.564 1.16-1.356 2.055-2.377 2.685-1.014.623-2.204.934-3.569.934-1.366 0-2.562-.321-3.59-.964-1.027-.65-1.826-1.611-2.396-2.884-.57-1.279-.855-2.86-.855-4.743v-1.63c0-3.401.577-5.98 1.73-7.736 1.16-1.757 2.903-2.665 5.23-2.725a42.905 42.905 0 0 1 2.197-.02 9.842 9.842 0 0 0 1.681-.089 2.412 2.412 0 0 0 1.213-.527Zm-5.21 19.21c.921 0 1.713-.232 2.376-.696.67-.464 1.183-1.117 1.541-1.959.358-.848.537-1.846.537-2.993 0-1.113-.182-2.061-.547-2.843-.358-.782-.871-1.379-1.541-1.79-.669-.411-1.471-.617-2.406-.617-.683 0-1.296.117-1.84.349a3.737 3.737 0 0 0-1.392 1.024c-.384.45-.682 1.001-.894 1.65-.206.65-.315 1.392-.329 2.227 0 1.711.401 3.08 1.204 4.107.802 1.027 1.899 1.541 3.291 1.541Zm10.39 7.517v-21h2.267v2.426h.279c.172-.265.411-.603.716-1.014.311-.417.755-.789 1.332-1.113.583-.332 1.372-.498 2.367-.498 1.286 0 2.419.322 3.4.965.981.643 1.747 1.554 2.297 2.734s.825 2.572.825 4.176c0 1.618-.275 3.02-.825 4.206-.55 1.18-1.312 2.095-2.287 2.745-.974.643-2.098.964-3.371.964-.981 0-1.766-.162-2.356-.487-.59-.331-1.044-.706-1.362-1.124a14.488 14.488 0 0 1-.736-1.054h-.199v8.074h-2.347Zm2.307-13.363c0 1.153.169 2.171.507 3.052.338.875.832 1.561 1.482 2.058.649.491 1.445.736 2.386.736.981 0 1.8-.258 2.456-.775.663-.524 1.16-1.227 1.492-2.108.338-.889.507-1.876.507-2.963 0-1.074-.166-2.042-.497-2.904-.325-.868-.819-1.554-1.482-2.058-.656-.51-1.482-.766-2.476-.766-.954 0-1.756.242-2.406.726-.65.477-1.14 1.147-1.472 2.009-.331.855-.497 1.852-.497 2.993Zm19.25 7.994c-.968 0-1.846-.182-2.635-.547a4.519 4.519 0 0 1-1.879-1.601c-.464-.702-.696-1.551-.696-2.545 0-.875.172-1.585.517-2.128.345-.55.805-.981 1.382-1.293a7.306 7.306 0 0 1 1.909-.696 23.38 23.38 0 0 1 2.118-.378c.928-.119 1.68-.208 2.257-.268.584-.066 1.008-.176 1.273-.328.272-.153.408-.418.408-.796v-.079c0-.981-.269-1.744-.806-2.287-.53-.544-1.336-.815-2.416-.815-1.12 0-1.999.245-2.635.735-.636.491-1.084 1.015-1.342 1.571l-2.228-.795c.398-.928.928-1.651 1.591-2.168a5.968 5.968 0 0 1 2.188-1.093 9.044 9.044 0 0 1 2.346-.319c.491 0 1.054.06 1.691.179a5.409 5.409 0 0 1 1.859.706c.603.358 1.104.899 1.502 1.621.397.723.596 1.69.596 2.904V638h-2.346v-2.068h-.12c-.159.331-.424.686-.795 1.064-.371.378-.865.699-1.482.964-.616.265-1.369.398-2.257.398Zm.358-2.108c.928 0 1.71-.182 2.347-.547.643-.364 1.127-.835 1.451-1.412a3.593 3.593 0 0 0 .498-1.819v-2.148c-.1.119-.319.229-.657.328-.331.093-.716.176-1.153.249-.431.066-.852.126-1.263.179-.404.046-.732.086-.984.119-.61.079-1.18.209-1.71.388-.524.172-.948.434-1.273.785-.318.345-.477.815-.477 1.412 0 .815.301 1.432.904 1.85.61.411 1.382.616 2.317.616Zm9.971 1.75 6.204-7.756-6.125-7.517h2.784l5.091 6.523h1.273v-6.523h2.347v6.523h1.232l5.091-6.523h2.784l-6.085 7.517 6.165 7.756h-2.824l-5.17-6.562h-1.193V638h-2.347v-6.562h-1.193l-5.21 6.562h-2.824Zm29.889.318c-1.472 0-2.741-.325-3.808-.974-1.061-.656-1.88-1.571-2.456-2.745-.57-1.179-.855-2.552-.855-4.116 0-1.564.285-2.943.855-4.136.576-1.2 1.378-2.135 2.406-2.804 1.034-.677 2.24-1.015 3.619-1.015.796 0 1.581.133 2.357.398a5.843 5.843 0 0 1 2.118 1.293c.636.59 1.143 1.372 1.521 2.346.378.975.567 2.175.567 3.6v.994h-11.773v-2.028H240c0-.862-.172-1.631-.517-2.307a3.9 3.9 0 0 0-1.451-1.601c-.624-.391-1.359-.587-2.208-.587-.934 0-1.743.232-2.426.696a4.586 4.586 0 0 0-1.561 1.79 5.255 5.255 0 0 0-.547 2.367v1.352c0 1.153.199 2.131.597 2.933.404.796.964 1.402 1.68 1.82.716.411 1.548.616 2.496.616.616 0 1.173-.086 1.67-.258a3.572 3.572 0 0 0 1.303-.796c.364-.358.646-.802.845-1.332l2.267.636a5.042 5.042 0 0 1-1.203 2.029c-.563.576-1.26 1.027-2.088 1.352-.829.318-1.76.477-2.794.477Zm20.115-9.028v2.187h-8.432v-2.187h8.432Zm-7.875-6.563V638h-2.347v-15.273h2.347Zm9.665 0V638h-2.347v-15.273h2.347Zm6.632 11.813 7.358-11.813h2.704V638h-2.346v-11.812L264.998 638h-2.745v-15.273h2.347v11.813Zm20.764 3.778c-1.472 0-2.741-.325-3.809-.974-1.06-.656-1.879-1.571-2.456-2.745-.57-1.179-.855-2.552-.855-4.116 0-1.564.285-2.943.855-4.136.577-1.2 1.379-2.135 2.407-2.804 1.034-.677 2.24-1.015 3.619-1.015a7.25 7.25 0 0 1 2.357.398 5.83 5.83 0 0 1 2.117 1.293c.637.59 1.144 1.372 1.522 2.346.378.975.567 2.175.567 3.6v.994h-11.773v-2.028h9.386c0-.862-.172-1.631-.517-2.307a3.895 3.895 0 0 0-1.452-1.601c-.623-.391-1.359-.587-2.207-.587-.935 0-1.743.232-2.426.696a4.578 4.578 0 0 0-1.561 1.79 5.255 5.255 0 0 0-.547 2.367v1.352c0 1.153.199 2.131.597 2.933.404.796.964 1.402 1.68 1.82.716.411 1.548.616 2.496.616.616 0 1.173-.086 1.67-.258a3.572 3.572 0 0 0 1.303-.796c.364-.358.646-.802.845-1.332l2.267.636a5.042 5.042 0 0 1-1.203 2.029c-.564.576-1.26 1.027-2.088 1.352-.829.318-1.76.477-2.794.477Z"/></g><defs><filter id="a" width="489" height="920" x="0" y="0" color-interpolation-filters="sRGB" filterUnits="userSpaceOnUse"><feFlood flood-opacity="0" result="BackgroundImageFix"/><feColorMatrix in="SourceAlpha" result="hardAlpha" values="0 0 0 0 0 0 0 0 0 0 0 0 0 0 0 0 0 0 127 0"/><feOffset dy="24"/><feGaussianBlur stdDeviation="16"/><feComposite in2="hardAlpha" operator="out"/><feColorMatrix values="0 0 0 0 0.0627451 0 0 0 0 0.0627451 0 0 0 0 0.0627451 0 0 0 0.04 0"/><feBlend in2="BackgroundImageFix" result="effect1_dropShadow_6425_15835"/><feColorMatrix in="SourceAlpha" result="hardAlpha" values="0 0 0 0 0 0 0 0 0 0 0 0 0 0 0 0 0 0 127 0"/><feOffset dy="16"/><feGaussianBlur stdDeviation="8"/><feComposite in2="hardAlpha" operator="out"/><feColorMatrix values="0 0 0 0 0.0627451 0 0 0 0 0.0627451 0 0 0 0 0.0627451 0 0 0 0.04 0"/><feBlend in2="effect1_dropShadow_6425_15835" result="effect2_dropShadow_6425_15835"/><feBlend in="SourceGraphic" in2="effect2_dropShadow_6425_15835" result="shape"/></filter></defs></svg>