<svg xmlns="http://www.w3.org/2000/svg" width="604" height="450" fill="none"><g clip-path="url(#a)"><path fill="#fff" d="M0 16C0 7.163 7.163 0 16 0h776a8 8 0 0 1 8 8v426c0 8.837-7.163 16-16 16H16c-8.837 0-16-7.163-16-16V16Z"/><g clip-path="url(#b)"><path fill="#fff" d="M0 0h800v450H0z"/><path fill="#fff" d="M0 0h800v26.667H0z"/><path fill="#fff" d="M6.666 10a5 5 0 0 1 5-5h6.667a5 5 0 0 1 5 5v6.667a5 5 0 0 1-5 5h-6.667a5 5 0 0 1-5-5V10Z"/><path fill="#0F0F11" d="M11.666 11.25c0-.23.187-.416.417-.416h5.833a.417.417 0 1 1 0 .833h-5.833a.417.417 0 0 1-.417-.417ZM11.666 13.334c0-.23.187-.417.417-.417h5.833a.417.417 0 0 1 0 .833h-5.833a.417.417 0 0 1-.417-.416ZM12.083 15a.417.417 0 1 0 0 .834h5.833a.417.417 0 0 0 0-.834h-5.833ZM56.534 12.46l-.641.114a.762.762 0 0 0-.128-.235.632.632 0 0 0-.232-.182.84.84 0 0 0-.367-.071c-.2 0-.368.045-.502.135-.134.088-.201.203-.201.343 0 .122.045.22.135.294.09.074.235.135.435.182l.578.133c.335.077.584.196.748.357a.84.84 0 0 1 .246.628.954.954 0 0 1-.189.582 1.24 1.24 0 0 1-.523.398c-.223.096-.48.144-.774.144-.408 0-.74-.087-.997-.26a1.101 1.101 0 0 1-.474-.746l.685-.104c.042.178.13.313.262.404.133.09.306.135.519.135.232 0 .417-.048.556-.144.14-.098.209-.217.209-.357a.372.372 0 0 0-.128-.287c-.084-.077-.213-.136-.386-.175l-.616-.135c-.339-.077-.59-.2-.753-.37a.893.893 0 0 1-.241-.64c0-.216.06-.403.18-.564.12-.161.286-.287.497-.377.212-.091.454-.137.727-.137.393 0 .702.085.928.256.226.168.375.395.447.679ZM58.915 15.282a1.67 1.67 0 0 1-.892-.234 1.58 1.58 0 0 1-.592-.656c-.14-.281-.21-.61-.21-.985 0-.377.07-.707.21-.99.14-.282.338-.502.592-.658a1.67 1.67 0 0 1 .892-.234c.341 0 .639.078.893.234.254.156.451.376.592.658.14.283.21.613.21.99 0 .376-.07.704-.21.985-.14.28-.338.5-.592.656a1.669 1.669 0 0 1-.893.234Zm.003-.594a.848.848 0 0 0 .549-.175c.145-.117.252-.273.322-.467.071-.194.106-.408.106-.641 0-.232-.035-.445-.106-.64a1.041 1.041 0 0 0-.322-.47.841.841 0 0 0-.55-.178.854.854 0 0 0-.553.177 1.058 1.058 0 0 0-.325.471c-.069.195-.104.408-.104.64 0 .233.035.447.104.641.071.194.18.35.325.467a.862.862 0 0 0 .554.175ZM64.388 11.572l-1.319 3.637h-.758l-1.32-3.637h.76l.92 2.799h.038l.919-2.799h.76ZM65.76 10.36v4.849h-.707V10.36h.708ZM66.713 15.209v-3.637h.708v3.637h-.708Zm.358-4.198a.45.45 0 0 1-.318-.123.4.4 0 0 1-.13-.298c0-.117.043-.216.13-.299a.445.445 0 0 1 .317-.125c.124 0 .229.042.315.125a.392.392 0 0 1 .133.299.397.397 0 0 1-.133.298.442.442 0 0 1-.315.123ZM70.677 13.7v-2.128h.71v3.637h-.696v-.63h-.038a1.136 1.136 0 0 1-.402.485c-.184.128-.412.192-.685.192a1.23 1.23 0 0 1-.62-.154 1.082 1.082 0 0 1-.421-.462c-.101-.203-.152-.455-.152-.755v-2.313h.708V13.8c0 .248.069.445.206.592a.7.7 0 0 0 .535.22.868.868 0 0 0 .724-.4.898.898 0 0 0 .13-.511ZM72.338 15.209v-3.637h.68v.592h.044a.94.94 0 0 1 .372-.469c.172-.113.378-.17.618-.17.243 0 .447.057.61.17a1 1 0 0 1 .368.47h.038c.087-.195.225-.35.414-.465.19-.117.415-.175.677-.175.33 0 .599.103.807.31.21.207.315.518.315.935v2.439h-.708v-2.373c0-.246-.067-.424-.2-.535a.733.733 0 0 0-.481-.165c-.23 0-.41.07-.538.213a.774.774 0 0 0-.192.542v2.318h-.705V12.79a.634.634 0 0 0-.185-.475.66.66 0 0 0-.48-.18.688.688 0 0 0-.372.106.783.783 0 0 0-.272.291.893.893 0 0 0-.102.434v2.242h-.708Z"/><g clip-path="url(#c)"><path fill="#4554C9" d="M43.907 14.42 42.412 20h-.411c-.237 0-.459-.003-.667-.003l1.567-5.846 1.006.27Zm.761-7.753c1.866 0 2.8 0 3.513.363.627.32 1.137.83 1.457 1.457C50 9.2 50 10.133 50 11.999v2.667c0 1.867 0 2.801-.363 3.514a3.333 3.333 0 0 1-1.457 1.456c-.713.364-1.646.364-3.513.364h-.315l.853-3.182a.209.209 0 1 0-.402-.108L43.922 20h-1.08l1.468-5.472.604.162.02.005a.209.209 0 0 0 .108-.4l-.02-.007-3.02-.809a.208.208 0 0 0-.108.402l.605.162-1.596 5.952c-.462-.006-.85-.02-1.184-.051a.207.207 0 0 0 .028-.06l1.133-4.226a.209.209 0 0 0-.403-.108l-1.132 4.226a.208.208 0 0 0 .006.124 2.857 2.857 0 0 1-.864-.264 3.333 3.333 0 0 1-1.456-1.456c-.363-.713-.363-1.647-.363-3.514V12c0-1.866 0-2.8.363-3.512a3.334 3.334 0 0 1 1.456-1.457c.713-.364 1.647-.364 3.514-.364h2.667Zm-4.667 4.595a1.748 1.748 0 0 0-.646.115c-.471.181-.94.598-1.159 1.415-.226.846.118 1.528.665 1.905.536.369 1.28.454 1.862.11.389-.231.582-.696.57-1.133-.012-.444-.239-.906-.742-1.112-.516-.211-.958.022-1.192.358-.212.307-.294.776-.02 1.095l.028.03.016.015a.209.209 0 0 0 .298-.288l-.034-.04c-.095-.125-.094-.358.055-.574.146-.21.392-.332.69-.21.321.131.476.423.485.738.009.324-.137.626-.366.762-.421.249-.99.198-1.413-.094-.413-.284-.677-.79-.5-1.454.186-.692.563-1.001.906-1.133.176-.067.349-.09.491-.089.116.002.208.035.317.064l7.045 1.878c.104.027.211.05.306.103.124.07.263.176.38.322.232.286.403.742.218 1.434-.178.663-.659.97-1.159 1.01-.513.04-1.03-.2-1.27-.625-.13-.232-.106-.567.063-.843.166-.269.446-.444.79-.398.319.044.47.273.492.528.021.261-.095.464-.24.525l-.029.01a.208.208 0 0 0 .094.406l.02-.005c.427-.121.601-.586.57-.97-.034-.409-.3-.832-.852-.907-.54-.073-.967.213-1.2.592-.229.372-.293.872-.071 1.266.332.59 1.018.888 1.667.836.662-.053 1.3-.472 1.527-1.318.219-.816.022-1.411-.295-1.803a1.749 1.749 0 0 0-.502-.423c-.147-.082-.279-.11-.418-.148l-7.011-1.869c-.16-.043-.267-.078-.436-.08Zm-.108-1.26a.208.208 0 0 0-.107.4l.02.008 8.552 2.292.02.004a.209.209 0 0 0 .108-.4l-.02-.008-8.552-2.29-.021-.006Z"/></g><path fill="#fff" d="M278.333 6.875h243.334c1.726 0 3.125 1.399 3.125 3.125v6.666a3.125 3.125 0 0 1-3.125 3.125H278.333a3.125 3.125 0 0 1-3.125-3.125V10a3.125 3.125 0 0 1 3.125-3.125Z"/><path stroke="#B4B5BC" stroke-width=".417" d="M278.333 6.875h243.334c1.726 0 3.125 1.399 3.125 3.125v6.666a3.125 3.125 0 0 1-3.125 3.125H278.333a3.125 3.125 0 0 1-3.125-3.125V10a3.125 3.125 0 0 1 3.125-3.125Z"/><path fill="#6A6C76" fill-rule="evenodd" d="M281.388 14.167a1.389 1.389 0 1 0 0-2.778 1.389 1.389 0 0 0 0 2.778Zm0 .555a1.944 1.944 0 1 0 0-3.888 1.944 1.944 0 0 0 0 3.888Z" clip-rule="evenodd"/><path fill="#6A6C76" d="M282.418 14.478a.277.277 0 1 1 .392-.393l.891.89a.278.278 0 0 1-.393.393l-.89-.89Z"/><path fill="#B4B5BC" d="M290.353 10.508v4.242h-.513v-3.787h-2.138v3.787h-.514v-4.242h3.165Zm2.263 4.308c-.287 0-.539-.068-.756-.205a1.394 1.394 0 0 1-.506-.574 1.943 1.943 0 0 1-.18-.861c0-.332.06-.621.18-.868.122-.248.29-.44.506-.576.217-.137.469-.205.756-.205.287 0 .538.068.754.205.217.136.385.329.505.576.122.247.183.536.183.868 0 .328-.061.616-.183.861a1.37 1.37 0 0 1-.505.574 1.379 1.379 0 0 1-.754.205Zm0-.439a.836.836 0 0 0 .538-.168.983.983 0 0 0 .313-.44c.068-.183.102-.38.102-.593a1.7 1.7 0 0 0-.102-.595.996.996 0 0 0-.313-.445.83.83 0 0 0-.538-.17.834.834 0 0 0-.539.17 1.004 1.004 0 0 0-.313.445 1.722 1.722 0 0 0-.101.595c0 .212.034.41.101.592a.99.99 0 0 0 .313.441.84.84 0 0 0 .539.168Zm2.677-.348 1.533-2.46h.563v3.181h-.489v-2.46l-1.524 2.46h-.572v-3.182h.489v2.461Zm4.284.787c-.298 0-.555-.07-.77-.211a1.375 1.375 0 0 1-.498-.582 1.972 1.972 0 0 1-.174-.847c0-.324.06-.609.179-.856.12-.248.287-.443.501-.582.215-.14.467-.211.754-.211.224 0 .425.041.605.124.179.083.326.199.441.348.115.15.186.323.213.522h-.489a.758.758 0 0 0-.248-.385c-.127-.113-.298-.17-.514-.17-.19 0-.358.05-.501.15a.973.973 0 0 0-.334.415 1.555 1.555 0 0 0-.118.628c0 .246.039.46.116.642a.98.98 0 0 0 .332.425c.143.1.312.151.505.151a.875.875 0 0 0 .346-.066.71.71 0 0 0 .416-.489h.489a1.126 1.126 0 0 1-.634.864c-.176.087-.382.13-.617.13Zm1.966-.066v-3.182h.489v1.384h.323l1.143-1.384h.63l-1.284 1.533 1.301 1.649h-.63l-1.044-1.342h-.439v1.342h-.489Zm4.774 0v-3.182h2.502v3.182h-.489v-2.726h-1.524v2.726h-.489Zm4.688.066a1.39 1.39 0 0 1-.757-.205 1.399 1.399 0 0 1-.505-.574 1.943 1.943 0 0 1-.18-.861c0-.332.06-.621.18-.868.122-.248.29-.44.505-.576a1.39 1.39 0 0 1 .757-.205c.287 0 .538.068.754.205.216.136.385.329.505.576.122.247.182.536.182.868 0 .328-.06.616-.182.861-.12.246-.289.438-.505.574a1.379 1.379 0 0 1-.754.205Zm0-.439a.838.838 0 0 0 .538-.168.99.99 0 0 0 .313-.44c.068-.183.101-.38.101-.593a1.7 1.7 0 0 0-.101-.595 1.004 1.004 0 0 0-.313-.445.831.831 0 0 0-.538-.17.832.832 0 0 0-.539.17 1.004 1.004 0 0 0-.313.445 1.7 1.7 0 0 0-.101.595c0 .212.033.41.101.592a.99.99 0 0 0 .313.441c.141.112.32.168.539.168Zm3.828.373v-3.182h.489v1.384h.323l1.144-1.384h.629l-1.284 1.533 1.301 1.649h-.63l-1.044-1.342h-.439v1.342h-.489Zm4.07.075a1.29 1.29 0 0 1-.549-.114.941.941 0 0 1-.392-.334.946.946 0 0 1-.145-.53c0-.182.036-.33.108-.444a.763.763 0 0 1 .288-.269c.12-.065.253-.113.398-.145.146-.033.293-.06.441-.079.193-.024.35-.043.47-.055a.717.717 0 0 0 .265-.069c.057-.031.085-.087.085-.165v-.017c0-.204-.056-.363-.168-.476-.11-.114-.278-.17-.503-.17-.233 0-.416.05-.549.153a.905.905 0 0 0-.28.327l-.464-.165c.083-.194.194-.344.332-.452a1.24 1.24 0 0 1 .455-.228c.166-.044.329-.066.489-.066.103 0 .22.012.353.037.133.024.263.072.387.147.126.075.23.187.313.338.083.15.124.352.124.605v2.096h-.489v-.43h-.025a.86.86 0 0 1-.165.22.97.97 0 0 1-.309.202 1.189 1.189 0 0 1-.47.083Zm.074-.44a.968.968 0 0 0 .489-.114.78.78 0 0 0 .406-.673v-.447c-.021.025-.066.047-.137.068-.069.02-.149.037-.24.052a10.63 10.63 0 0 1-.468.062 1.858 1.858 0 0 0-.356.08.62.62 0 0 0-.266.165.418.418 0 0 0-.099.294c0 .17.063.298.189.385a.843.843 0 0 0 .482.128Zm4.638-4.01.248.298a.792.792 0 0 1-.335.197c-.127.037-.271.06-.431.068-.16.009-.338.017-.535.025a1.015 1.015 0 0 0-.548.162.953.953 0 0 0-.336.43 2.261 2.261 0 0 0-.151.693h.041a1.01 1.01 0 0 1 .448-.44c.19-.093.395-.14.613-.14.248 0 .472.058.671.174.199.116.356.288.472.515.116.228.174.51.174.844 0 .332-.059.62-.178.861a1.309 1.309 0 0 1-.495.56c-.211.13-.459.194-.744.194-.284 0-.533-.067-.748-.2a1.33 1.33 0 0 1-.499-.601c-.118-.267-.178-.596-.178-.989v-.34c0-.708.12-1.245.361-1.61.241-.367.604-.556 1.089-.568.171-.006.324-.007.458-.005.134.003.251-.003.35-.018a.504.504 0 0 0 .253-.11Zm-1.086 4.002a.84.84 0 0 0 .495-.145.911.911 0 0 0 .321-.408c.075-.177.112-.385.112-.623 0-.232-.038-.43-.114-.593a.821.821 0 0 0-.321-.373.937.937 0 0 0-.501-.128.965.965 0 0 0-.383.072.778.778 0 0 0-.29.214c-.08.093-.142.208-.187.343-.042.136-.065.29-.068.464 0 .357.084.642.251.856a.821.821 0 0 0 .685.321Zm2.654-.348 1.533-2.46h.563v3.181h-.489v-2.46l-1.524 2.46h-.572v-3.182h.489v2.461Zm5.121-1.094v.456h-1.756v-.456h1.756Zm-1.64-1.367v3.182h-.489v-3.182h.489Zm2.013 0v3.182h-.489v-3.182h.489Zm2.227 3.248a1.5 1.5 0 0 1-.794-.203 1.366 1.366 0 0 1-.511-.572 1.946 1.946 0 0 1-.178-.857c0-.326.059-.613.178-.862.12-.25.287-.444.501-.584.216-.14.467-.211.754-.211.166 0 .33.027.491.083.162.055.309.145.441.269.133.123.239.286.317.489.079.203.118.453.118.75v.207h-2.452v-.423h1.955c0-.18-.036-.34-.108-.48a.81.81 0 0 0-.762-.456.875.875 0 0 0-.505.145.955.955 0 0 0-.326.373 1.107 1.107 0 0 0-.113.493v.281c0 .24.041.445.124.612a.896.896 0 0 0 .35.379c.149.085.322.128.52.128.128 0 .244-.018.348-.054a.745.745 0 0 0 .271-.165.747.747 0 0 0 .176-.278l.473.132c-.05.16-.134.302-.251.423-.117.12-.262.214-.435.282-.173.066-.367.1-.582.1Zm1.765-2.792v-.456h2.585v.456h-1.044v2.726h-.489v-2.726h-1.052Zm4.069 2.8c-.201 0-.384-.037-.549-.113a.938.938 0 0 1-.391-.334.938.938 0 0 1-.145-.53c0-.182.036-.33.108-.444a.753.753 0 0 1 .287-.269c.121-.065.253-.113.398-.145.147-.033.294-.06.441-.079.194-.024.35-.043.471-.055a.723.723 0 0 0 .265-.069c.056-.031.085-.087.085-.165v-.017c0-.204-.056-.363-.168-.476-.111-.114-.278-.17-.503-.17-.234 0-.417.05-.549.153a.905.905 0 0 0-.28.327l-.464-.165c.083-.194.193-.344.331-.452.14-.11.292-.185.456-.228.166-.044.329-.066.489-.066.102 0 .22.012.352.037.134.024.263.072.387.147.126.075.23.187.313.338.083.15.125.352.125.605v2.096h-.489v-.43h-.025a.866.866 0 0 1-.166.22.948.948 0 0 1-.309.202 1.186 1.186 0 0 1-.47.083Zm.075-.439a.973.973 0 0 0 .489-.114.776.776 0 0 0 .406-.673v-.447c-.021.025-.067.047-.137.068-.069.02-.149.037-.24.052a11.347 11.347 0 0 1-.468.062 1.869 1.869 0 0 0-.357.08.616.616 0 0 0-.265.165.418.418 0 0 0-.099.294c0 .17.062.298.188.385a.846.846 0 0 0 .483.128Zm4.016-.298 1.11-2.519h.464l-1.375 3.182h-.398l-1.351-3.182h.456l1.094 2.52Zm-1.251-2.519v3.182h-.489v-3.182h.489Zm2.502 3.182v-3.182h.489v3.182h-.489Z"/><path fill="#fff" d="M0 26.666h30V450H0z"/><path fill="#3D3E43" fill-rule="evenodd" d="M12.917 37.917h4.166c.46 0 .834-.373.834-.834V34.5a.833.833 0 0 0-.28-.623l-2.083-1.852a.833.833 0 0 0-1.108 0l-2.083 1.852a.833.833 0 0 0-.28.623v2.584c0 .46.373.834.834.834Zm4.166.833h-4.166c-.92 0-1.667-.746-1.667-1.667V34.5c0-.477.204-.93.56-1.246l2.083-1.852a1.667 1.667 0 0 1 2.214 0l2.084 1.852c.355.316.559.77.559 1.245v2.585c0 .92-.746 1.667-1.667 1.667Z" clip-rule="evenodd"/><path fill="#3D3E43" fill-rule="evenodd" d="M14.583 35.833a.417.417 0 0 0-.416.417v2.083h-.834V36.25c0-.69.56-1.25 1.25-1.25h.834c.69 0 1.25.56 1.25 1.25v2.083h-.834V36.25a.417.417 0 0 0-.416-.417h-.834ZM14.167 49.584a.417.417 0 1 0-.834 0c-1.15 0-2.083.932-2.083 2.083V55c0 1.15.933 2.084 2.083 2.084h3.334c1.15 0 2.083-.933 2.083-2.084v-3.333c0-1.15-.933-2.083-2.083-2.083a.417.417 0 1 0-.834 0h-1.666Zm1.666 1.25v-.417h-1.666v.417a.417.417 0 0 1-.834 0v-.417c-.69 0-1.25.56-1.25 1.25v.417h5.834v-.417c0-.69-.56-1.25-1.25-1.25v.417a.417.417 0 0 1-.834 0Zm2.084 2.083h-5.834V55c0 .69.56 1.25 1.25 1.25h3.334c.69 0 1.25-.56 1.25-1.25v-2.083Z" clip-rule="evenodd"/><rect width="16.667" height="16.667" x="6.666" y="63.333" fill="#F3F4FC" rx="3.333"/><g fill="#4554C9" fill-rule="evenodd" clip-path="url(#d)" clip-rule="evenodd"><path d="M14.167 71.25a1.25 1.25 0 1 0 0-2.5 1.25 1.25 0 0 0 0 2.5Zm0 .833a2.083 2.083 0 1 0 0-4.167 2.083 2.083 0 0 0 0 4.167Z"/><path d="M10.788 73.543c.496-1.073 1.566-2.293 3.379-2.293s2.883 1.22 3.379 2.293l.008.017c.045.097.1.216.13.346.035.153.034.301.005.47a1.298 1.298 0 0 1-.191.456c-.08.124-.196.27-.334.365-.321.22-.625.22-.951.22H12.12c-.327 0-.63 0-.951-.22a1.3 1.3 0 0 1-.334-.365 1.301 1.301 0 0 1-.192-.456 1.159 1.159 0 0 1 .006-.47c.03-.13.085-.249.13-.346l.008-.017Zm3.379-1.46c-1.369 0-2.204.905-2.623 1.81a1.162 1.162 0 0 0-.082.201.338.338 0 0 0 .004.142.758.758 0 0 0 .175.274c.09.062.139.073.526.073h4c.387 0 .435-.011.526-.073a.774.774 0 0 0 .158-.228c.012-.028.016-.043.017-.046a.342.342 0 0 0 .004-.142 1.175 1.175 0 0 0-.082-.2c-.419-.906-1.255-1.81-2.623-1.81Z"/><path d="M18.36 74.51c-.068.046-.112.064-.29.07-.054.19-.146.358-.221.476-.068.107-.167.241-.295.36h.326c.326.001.63.002.95-.219.14-.095.255-.24.335-.365a1.3 1.3 0 0 0 .191-.456c.029-.169.03-.317-.006-.47-.03-.13-.085-.249-.13-.346l-.007-.017c-.35-.757-.987-1.588-1.968-2.011a2.083 2.083 0 0 0-1.672-3.6c.354.242.642.57.834.957a1.25 1.25 0 0 1 0 2.222c-.05.102-.108.2-.172.294.55.34.979.797 1.297 1.268.416.337.72.778.924 1.22.056.122.074.164.083.201a.34.34 0 0 1-.005.142.782.782 0 0 1-.175.274Z"/></g><g fill="#3D3E43" fill-rule="evenodd" clip-path="url(#e)" clip-rule="evenodd"><path d="M15 88.125c.23 0 .417.186.417.416v4.376a.417.417 0 1 1-.833 0V88.54c0-.23.187-.416.417-.416Z"/><path d="M10.834 88.333c0-.92.746-1.666 1.667-1.666h.416a.417.417 0 0 1 0 .833h-.416a.833.833 0 0 0-.834.833v3.334c0 .46.373.833.834.833h5c.46 0 .833-.373.833-.834v-3.333a.833.833 0 0 0-.833-.833h-.417a.417.417 0 1 1 0-.834h.417c.92 0 1.666.747 1.666 1.667v3.334c0 .92-.746 1.666-1.666 1.666h-5c-.92 0-1.667-.746-1.667-1.666v-3.334Z"/><path d="M12.5 87.083c0-.23.187-.416.417-.416.657 0 1.283.106 1.753.442.126.09.236.193.33.309.095-.116.205-.22.331-.31.47-.335 1.096-.442 1.753-.442a.417.417 0 0 1 0 .834c-.593 0-1.009.101-1.268.287-.232.165-.399.44-.399.963h-.833c0-.522-.167-.798-.398-.963-.26-.186-.676-.287-1.269-.287a.417.417 0 0 1-.416-.417Z"/></g><g fill="#3D3E43" clip-path="url(#f)"><path d="M17.084 107.917a.417.417 0 1 0 0 .834.417.417 0 0 0 0-.834Z"/><path fill-rule="evenodd" d="M12.568 105c-.22 0-.41 0-.565.013a1.271 1.271 0 0 0-.486.124c-.236.12-.427.311-.547.546-.08.158-.11.321-.123.486-.013.156-.013.346-.013.565v3.199c0 .22 0 .409.013.565.013.165.043.329.123.487.12.235.311.426.546.546.158.08.322.11.487.123.156.013.345.013.565.013H16.6c.22 0 .41 0 .565-.013a1.27 1.27 0 0 0 .486-.123 1.25 1.25 0 0 0 .547-.546c.08-.158.11-.322.123-.487.013-.156.013-.345.013-.565v-.004a1.25 1.25 0 0 0 .833-1.179v-.833c0-.544-.348-1.007-.833-1.179v-.004c0-.219 0-.409-.013-.565a1.27 1.27 0 0 0-.123-.486 1.25 1.25 0 0 0-.547-.546 1.271 1.271 0 0 0-.486-.124C17.01 105 16.82 105 16.6 105h-4.032Zm3.683 5h1.25c0 .194-.002.327-.01.431a.467.467 0 0 1-.036.175.413.413 0 0 1-.182.182.453.453 0 0 1-.176.036c-.118.009-.273.01-.513.01h-4c-.24 0-.395-.001-.513-.01a.453.453 0 0 1-.176-.036.414.414 0 0 1-.182-.182.465.465 0 0 1-.036-.175 7.085 7.085 0 0 1-.01-.514v-3.167c0-.24 0-.395.01-.513a.48.48 0 0 1 .036-.176.42.42 0 0 1 .182-.182.486.486 0 0 1 .176-.035c.118-.01.273-.01.513-.01h4c.24 0 .395 0 .513.01a.485.485 0 0 1 .176.035c.079.04.142.104.182.182.01.021.026.063.036.176.008.104.01.236.01.43h-1.25a1.667 1.667 0 0 0 0 3.333Zm0-2.5a.834.834 0 0 0 0 1.667h1.666c.23 0 .417-.186.417-.417v-.833a.417.417 0 0 0-.417-.417h-1.666Z" clip-rule="evenodd"/></g><path fill="#82838E" fill-rule="evenodd" d="M10.989 416.412a359.565 359.565 0 0 1 4.473-1.926c2.13-.887 2.573-1.04 2.861-1.046a.504.504 0 0 1 .298.09c.137.111.137.35.122.509-.116 1.213-.615 4.157-.87 5.515-.107.575-.319.768-.524.787-.445.041-.783-.295-1.215-.578-.675-.442-1.056-.718-1.712-1.149-.757-.5-.266-.774.166-1.222.113-.117 2.075-1.903 2.113-2.065.005-.02.01-.095-.035-.135-.045-.04-.111-.026-.16-.016-.067.016-1.146.729-3.235 2.139-.306.21-.583.313-.832.307-.274-.006-.8-.155-1.192-.282-.48-.156-.862-.239-.829-.504.017-.138.208-.279.57-.424Z" clip-rule="evenodd"/><g clip-path="url(#g)"><path fill="#82838E" fill-rule="evenodd" d="M15 431.666a3.334 3.334 0 1 0 .002 6.668 3.334 3.334 0 0 0-.001-6.668ZM10.835 435a4.166 4.166 0 1 1 8.333-.001 4.166 4.166 0 0 1-8.333.001Zm3.906-2.48a1.668 1.668 0 0 1 .678 3.26v.053a.417.417 0 1 1-.834 0v-.417c0-.23.187-.416.417-.416a.836.836 0 0 0 .83-.899.836.836 0 0 0-.512-.705.832.832 0 0 0-1.111.513.417.417 0 1 1-.793-.257 1.666 1.666 0 0 1 1.325-1.132Zm-.177 4.563c0-.23.187-.417.417-.417h.041c.23 0 .417.187.417.417v.042a.416.416 0 0 1-.416.416h-.041a.413.413 0 0 1-.418-.416v-.042Z" clip-rule="evenodd"/></g><path fill="#fff" d="M36.666 31.666a5 5 0 0 1 5-5h6.667a5 5 0 0 1 5 5v6.667a5 5 0 0 1-5 5h-6.667a5 5 0 0 1-5-5v-6.666Z"/><path fill="#0F0F11" fill-rule="evenodd" d="M44.877 32.205a.417.417 0 0 1 0 .59l-1.788 1.788h4.827a.417.417 0 0 1 0 .833h-4.827l1.788 1.789a.417.417 0 0 1-.589.59l-2.5-2.5a.417.417 0 0 1 0-.59l2.5-2.5a.417.417 0 0 1 .59 0Z" clip-rule="evenodd"/><path fill="#0F0F11" d="M60.717 38v-7.273h1.318v3.08h3.37v-3.08h1.32V38h-1.32v-3.09h-3.37V38h-1.318Zm8.954.11c-.345 0-.656-.062-.933-.185a1.522 1.522 0 0 1-.654-.554c-.159-.243-.238-.544-.238-.902 0-.307.057-.562.17-.763.114-.201.27-.362.466-.483.196-.12.418-.212.664-.273a5.4 5.4 0 0 1 .77-.139c.32-.033.58-.063.778-.089.2-.028.343-.07.433-.128.093-.059.139-.15.139-.273V34.3c0-.268-.08-.475-.238-.622-.159-.146-.387-.22-.685-.22-.315 0-.565.069-.75.206-.182.137-.305.3-.369.487l-1.2-.17c.094-.332.25-.61.469-.832a2.04 2.04 0 0 1 .799-.504c.314-.114.662-.17 1.044-.17.262 0 .524.03.784.092.26.061.499.163.714.305.216.14.388.33.519.572.132.241.199.543.199.905V38h-1.236v-.75h-.043a1.567 1.567 0 0 1-.86.743c-.21.078-.457.117-.742.117Zm.334-.944c.258 0 .482-.051.672-.153a1.13 1.13 0 0 0 .436-.412 1.05 1.05 0 0 0 .156-.558v-.642a.605.605 0 0 1-.205.092 2.92 2.92 0 0 1-.32.075c-.118.02-.236.04-.352.056l-.301.043a2.248 2.248 0 0 0-.515.128.856.856 0 0 0-.359.248.608.608 0 0 0-.131.405c0 .237.086.416.259.536.173.121.393.181.66.181Zm3.537-.661h1.275a.575.575 0 0 0 .274.472c.17.112.391.167.664.167.277 0 .51-.06.7-.18.191-.124.287-.31.287-.558a.687.687 0 0 0-.11-.387.716.716 0 0 0-.31-.263 1.103 1.103 0 0 0-.468-.093h-.835v-.912h.835c.268 0 .47-.062.607-.185a.594.594 0 0 0 .21-.465.614.614 0 0 0-.22-.49c-.145-.126-.345-.188-.6-.188a1.11 1.11 0 0 0-.64.174.552.552 0 0 0-.263.447h-1.267c.005-.317.1-.593.284-.827a1.84 1.84 0 0 1 .753-.547c.317-.13.674-.196 1.072-.196.426 0 .794.064 1.104.192.31.128.55.307.718.536.168.228.252.495.252.803 0 .296-.092.54-.277.735-.185.192-.433.33-.746.412v.057c.216.012.41.073.583.184.172.11.31.257.412.444.101.187.152.404.152.65 0 .334-.096.623-.287.867a1.824 1.824 0 0 1-.792.557 3.14 3.14 0 0 1-1.147.195c-.42 0-.795-.062-1.126-.188a1.845 1.845 0 0 1-.785-.55 1.408 1.408 0 0 1-.309-.863ZM79 38v-5.455h2.29c.647 0 1.157.13 1.531.387.377.259.565.618.565 1.08a.968.968 0 0 1-.32.75c-.21.191-.498.32-.862.386.286.024.537.096.752.217.218.12.389.28.512.476.123.196.184.422.184.678 0 .3-.079.562-.238.785-.156.22-.384.392-.685.515-.298.12-.66.181-1.087.181H79Zm1.204-1.012h1.438c.237 0 .423-.056.558-.167a.572.572 0 0 0 .202-.462c0-.224-.067-.4-.202-.529-.135-.13-.32-.195-.558-.195h-1.438v1.353Zm0-2.184h1.112c.175 0 .325-.025.45-.075a.65.65 0 0 0 .288-.216.573.573 0 0 0 .1-.338.507.507 0 0 0-.231-.44c-.152-.106-.362-.16-.632-.16h-1.087v1.229Zm6.079 3.306c-.346 0-.657-.062-.934-.185a1.524 1.524 0 0 1-.654-.554c-.158-.243-.237-.544-.237-.902 0-.307.056-.562.17-.763a1.32 1.32 0 0 1 .465-.483c.197-.12.418-.212.664-.273.249-.064.506-.11.77-.139.32-.033.58-.063.779-.089.198-.028.343-.07.433-.128.092-.059.138-.15.138-.273V34.3c0-.268-.079-.475-.238-.622-.158-.146-.387-.22-.685-.22-.315 0-.565.069-.75.206-.182.137-.305.3-.369.487l-1.2-.17c.095-.332.251-.61.469-.832a2.04 2.04 0 0 1 .799-.504c.315-.114.663-.17 1.044-.17.263 0 .524.03.785.092.26.061.498.163.713.305.216.14.389.33.519.572.133.241.199.543.199.905V38h-1.236v-.75h-.043a1.569 1.569 0 0 1-.33.427c-.14.13-.316.235-.529.316-.21.078-.458.117-.742.117Zm.334-.944c.258 0 .481-.051.67-.153a1.13 1.13 0 0 0 .438-.412 1.05 1.05 0 0 0 .156-.558v-.642a.606.606 0 0 1-.206.092 2.914 2.914 0 0 1-.32.075c-.118.02-.235.04-.351.056l-.302.043a2.246 2.246 0 0 0-.515.128.856.856 0 0 0-.359.248.608.608 0 0 0-.131.405c0 .237.086.416.26.536.172.121.392.181.66.181Zm7.585-2.426v1.055h-2.905V34.74h2.905Zm-2.507-2.195V38h-1.24v-5.455h1.24Zm3.349 0V38h-1.236v-5.455h1.235Zm2.54 3.715 2.183-3.715h1.321V38h-1.242v-3.718L97.668 38h-1.325v-5.455h1.24v3.715Zm7.239 1.846c-.547 0-1.019-.113-1.417-.34a2.309 2.309 0 0 1-.912-.973c-.213-.422-.32-.918-.32-1.488 0-.561.107-1.054.32-1.478.215-.426.516-.757.902-.994.386-.239.839-.359 1.36-.359.336 0 .653.055.952.164.3.106.565.272.795.497.232.225.414.511.547.86.132.345.199.757.199 1.235v.394h-4.471v-.866h3.239a1.392 1.392 0 0 0-.16-.657 1.16 1.16 0 0 0-.437-.458 1.228 1.228 0 0 0-.646-.167c-.263 0-.494.064-.693.192a1.318 1.318 0 0 0-.465.497 1.425 1.425 0 0 0-.167.67v.757c0 .318.058.59.174.817.116.225.278.398.487.519.208.118.452.177.731.177.187 0 .356-.026.508-.078a1.13 1.13 0 0 0 .394-.238.996.996 0 0 0 .252-.387l1.2.135c-.075.317-.22.594-.433.83-.21.235-.48.418-.809.548a3.106 3.106 0 0 1-1.13.191Zm5.692-1.601h1.275a.576.576 0 0 0 .273.472c.171.112.392.167.664.167.277 0 .51-.06.7-.18.192-.124.287-.31.287-.558a.682.682 0 0 0-.11-.387.712.712 0 0 0-.309-.263 1.098 1.098 0 0 0-.468-.093h-.835v-.912h.835c.267 0 .47-.062.607-.185a.592.592 0 0 0 .209-.465.613.613 0 0 0-.22-.49c-.144-.126-.344-.188-.6-.188s-.469.058-.639.174a.553.553 0 0 0-.263.447h-1.268c.005-.317.1-.593.284-.827.188-.235.438-.417.753-.547.318-.13.675-.196 1.073-.196.426 0 .794.064 1.104.192.31.128.549.307.718.536.168.228.252.495.252.803 0 .296-.093.54-.277.735a1.57 1.57 0 0 1-.746.412v.057a1.181 1.181 0 0 1 .994.629c.102.186.153.403.153.65 0 .333-.096.622-.288.866a1.816 1.816 0 0 1-.792.557c-.333.13-.716.195-1.147.195-.419 0-.794-.062-1.125-.188a1.846 1.846 0 0 1-.785-.55 1.41 1.41 0 0 1-.309-.863Zm7.028 1.605c-.346 0-.657-.062-.934-.185a1.523 1.523 0 0 1-.654-.554c-.158-.243-.238-.544-.238-.902 0-.307.057-.562.171-.763a1.31 1.31 0 0 1 .465-.483c.196-.12.418-.212.664-.273.249-.064.505-.11.771-.139.319-.033.578-.063.777-.089.199-.028.344-.07.434-.128.092-.059.138-.15.138-.273V34.3c0-.268-.079-.475-.238-.622-.158-.146-.387-.22-.685-.22-.315 0-.565.069-.75.206-.182.137-.305.3-.369.487l-1.2-.17c.095-.332.251-.61.469-.832.217-.225.484-.393.799-.504.315-.114.663-.17 1.044-.17.262 0 .524.03.784.092.261.061.499.163.714.305.216.14.389.33.519.572.132.241.199.543.199.905V38h-1.236v-.75h-.043a1.566 1.566 0 0 1-.859.743 2.134 2.134 0 0 1-.742.117Zm.333-.944c.258 0 .482-.051.672-.153.189-.104.335-.242.436-.412.105-.17.157-.356.157-.558v-.642a.613.613 0 0 1-.206.092 2.96 2.96 0 0 1-.32.075c-.118.02-.236.04-.352.056l-.301.043a2.238 2.238 0 0 0-.515.128.856.856 0 0 0-.359.248.605.605 0 0 0-.131.405c0 .237.086.416.259.536.173.121.393.181.66.181Zm6.978-.661 1.62-3.96h1.037L125.305 38h-.898l-2.156-5.455h1.027l1.576 3.96Zm-1.899-3.96V38h-1.24v-5.455h1.24ZM126.808 38v-5.455h1.228V38h-1.228Zm4.939.106c-.547 0-1.019-.113-1.417-.34a2.309 2.309 0 0 1-.912-.973c-.213-.422-.32-.918-.32-1.488 0-.561.107-1.054.32-1.478.215-.426.516-.757.902-.994.385-.239.839-.359 1.36-.359.336 0 .653.055.951.164.301.106.566.272.796.497.232.225.414.511.547.86.132.345.199.757.199 1.235v.394h-4.471v-.866h3.238a1.38 1.38 0 0 0-.159-.657 1.167 1.167 0 0 0-.437-.458 1.229 1.229 0 0 0-.647-.167c-.262 0-.493.064-.692.192a1.318 1.318 0 0 0-.465.497 1.425 1.425 0 0 0-.167.67v.757c0 .318.058.59.174.817.116.225.278.398.486.519.209.118.453.177.732.177.187 0 .356-.026.508-.078a1.13 1.13 0 0 0 .394-.238.996.996 0 0 0 .252-.387l1.2.135c-.075.317-.22.594-.433.83a2.116 2.116 0 0 1-.81.548 3.1 3.1 0 0 1-1.129.191Zm3.059-4.506v-1.055h4.772V33.6h-1.765V38h-1.243v-4.4h-1.764Zm5.796 4.4v-5.455h1.285v2.202h.469l1.641-2.202h1.548l-2.021 2.678L145.566 38h-1.555l-1.495-2.056h-.629V38h-1.285Zm6.933-1.74 2.184-3.715h1.321V38h-1.243v-3.718L147.62 38h-1.325v-5.455h1.24v3.715Z"/><path fill="#6A6C76" d="M157.594 35.083h-.514a1.08 1.08 0 0 0-.433-.67 1.162 1.162 0 0 0-.354-.175 1.414 1.414 0 0 0-.406-.058c-.257 0-.49.065-.698.195a1.35 1.35 0 0 0-.496.574c-.121.252-.182.562-.182.93 0 .367.061.677.182.93.123.253.288.444.496.574.208.13.441.194.698.194.141 0 .276-.019.406-.058.129-.038.248-.096.354-.172a1.078 1.078 0 0 0 .433-.673h.514c-.039.217-.11.411-.212.582a1.584 1.584 0 0 1-.893.709 1.9 1.9 0 0 1-.602.093c-.362 0-.684-.088-.966-.265a1.828 1.828 0 0 1-.665-.754c-.161-.326-.242-.713-.242-1.16 0-.448.081-.834.242-1.16.162-.326.384-.578.665-.754.282-.177.604-.265.966-.265.214 0 .415.03.602.093.19.062.36.153.512.273.152.119.279.264.381.435.102.17.173.364.212.582Zm2.097 2.983c-.306 0-.571-.067-.793-.203a1.368 1.368 0 0 1-.512-.572 1.96 1.96 0 0 1-.178-.857c0-.326.06-.613.178-.862.121-.25.288-.445.502-.584.215-.14.467-.211.754-.211.165 0 .329.027.491.083.161.055.308.145.441.269.133.123.238.286.317.489.079.203.118.453.118.75v.207h-2.453v-.423h1.956c0-.18-.036-.34-.108-.48a.81.81 0 0 0-.762-.456.88.88 0 0 0-.506.145.953.953 0 0 0-.325.373 1.095 1.095 0 0 0-.114.493v.282c0 .24.042.444.124.61a.898.898 0 0 0 .351.38c.149.085.322.128.519.128.129 0 .245-.018.348-.054a.749.749 0 0 0 .272-.165.747.747 0 0 0 .176-.278l.472.133c-.049.16-.133.3-.25.422-.118.12-.263.214-.435.282a1.62 1.62 0 0 1-.583.1Zm2.062 1.127v-4.375h.472v.506h.058c.036-.056.086-.126.149-.212a.88.88 0 0 1 .278-.232c.121-.069.286-.103.493-.103.268 0 .504.067.708.2.205.135.364.325.479.57.114.246.172.536.172.87 0 .337-.058.63-.172.877a1.361 1.361 0 0 1-.477.571c-.203.134-.437.201-.702.201a1.02 1.02 0 0 1-.491-.101.919.919 0 0 1-.284-.234 3.255 3.255 0 0 1-.153-.22h-.042v1.682h-.488Zm.48-2.784c0 .24.035.452.106.636.07.182.173.325.309.429a.8.8 0 0 0 .497.153.799.799 0 0 0 .511-.161.989.989 0 0 0 .311-.44c.07-.185.106-.39.106-.617 0-.224-.035-.425-.104-.605a.932.932 0 0 0-.309-.429.812.812 0 0 0-.515-.16.819.819 0 0 0-.502.152.909.909 0 0 0-.306.419 1.72 1.72 0 0 0-.104.623Zm5.038-1.59v.455h-1.475V38h-.489v-3.182h1.964Zm1.883 3.247a1.5 1.5 0 0 1-.794-.203 1.36 1.36 0 0 1-.511-.572 1.946 1.946 0 0 1-.179-.857c0-.326.06-.613.179-.862.12-.25.287-.445.501-.584.215-.14.467-.211.754-.211.166 0 .329.027.491.083.161.055.308.145.441.269.133.123.238.286.317.489.079.203.118.453.118.75v.207h-2.453v-.423h1.956c0-.18-.036-.34-.108-.48a.81.81 0 0 0-.762-.456.88.88 0 0 0-.506.145.96.96 0 0 0-.325.373 1.095 1.095 0 0 0-.114.493v.282c0 .24.042.444.125.61a.89.89 0 0 0 .35.38c.149.085.322.128.52.128.128 0 .244-.018.348-.054a.745.745 0 0 0 .271-.165.747.747 0 0 0 .176-.278l.472.133c-.049.16-.133.3-.25.422-.118.12-.263.214-.435.282-.173.066-.367.1-.582.1Zm2.55-.787 1.532-2.46h.564V38h-.489v-2.46L171.786 38h-.571v-3.182h.489v2.461Zm1.209-3.521h.456a.71.71 0 0 1-.232.548c-.155.143-.365.214-.63.214-.261 0-.469-.071-.623-.214a.713.713 0 0 1-.23-.548h.456c0 .107.029.202.089.283.06.082.163.123.308.123s.249-.041.311-.123a.446.446 0 0 0 .095-.283Zm6.663 0V38h-.514v-3.787h-2.138V38h-.513v-4.242h3.165Zm2.304 4.308a1.5 1.5 0 0 1-.794-.203 1.36 1.36 0 0 1-.511-.572 1.946 1.946 0 0 1-.178-.857c0-.326.059-.613.178-.862.12-.25.287-.445.501-.584.215-.14.467-.211.754-.211.166 0 .329.027.491.083.162.055.309.145.441.269.133.123.238.286.317.489.079.203.118.453.118.75v.207h-2.452v-.423h1.955c0-.18-.036-.34-.108-.48a.81.81 0 0 0-.762-.456.875.875 0 0 0-.505.145.955.955 0 0 0-.326.373 1.095 1.095 0 0 0-.114.493v.282c0 .24.042.444.125.61a.896.896 0 0 0 .35.38c.149.085.322.128.52.128.128 0 .244-.018.348-.054a.745.745 0 0 0 .271-.165.747.747 0 0 0 .176-.278l.473.133c-.05.16-.134.3-.251.422-.117.12-.262.214-.435.282-.173.066-.367.1-.582.1Zm1.765-2.792v-.456h2.585v.456h-1.044V38h-.489v-2.726h-1.052Zm3.298 3.92v-4.376h.472v.506h.058c.036-.056.086-.126.149-.212a.88.88 0 0 1 .278-.232c.122-.069.286-.103.493-.103.268 0 .504.067.709.2.204.135.363.325.478.57.115.246.172.536.172.87 0 .337-.057.63-.172.877a1.36 1.36 0 0 1-.476.571c-.203.134-.437.201-.703.201a1.02 1.02 0 0 1-.491-.101.914.914 0 0 1-.283-.234 2.984 2.984 0 0 1-.154-.22h-.041v1.682h-.489Zm.481-2.785c0 .24.035.452.105.636a.967.967 0 0 0 .309.429.8.8 0 0 0 .497.153.804.804 0 0 0 .512-.161.987.987 0 0 0 .31-.44c.071-.185.106-.39.106-.617 0-.224-.034-.425-.103-.605a.939.939 0 0 0-.309-.429.817.817 0 0 0-.516-.16.814.814 0 0 0-.501.152.903.903 0 0 0-.307.419 1.721 1.721 0 0 0-.103.623Zm4.366 1.657c-.287 0-.539-.068-.756-.205a1.392 1.392 0 0 1-.505-.574 1.943 1.943 0 0 1-.18-.861c0-.332.06-.621.18-.868.121-.248.29-.44.505-.576.217-.137.469-.205.756-.205.288 0 .539.068.754.205.217.136.386.328.506.576.121.247.182.536.182.868 0 .328-.061.616-.182.861-.12.246-.289.438-.506.574a1.374 1.374 0 0 1-.754.205Zm0-.439a.839.839 0 0 0 .539-.168.99.99 0 0 0 .313-.44c.067-.183.101-.38.101-.593 0-.213-.034-.411-.101-.595a1.004 1.004 0 0 0-.313-.445.832.832 0 0 0-.539-.17.831.831 0 0 0-.538.17 1.004 1.004 0 0 0-.313.445 1.7 1.7 0 0 0-.102.595c0 .212.034.41.102.592a.99.99 0 0 0 .313.441c.141.112.32.168.538.168Zm2.188.373v-3.182h1.301c.343 0 .615.078.816.232a.735.735 0 0 1 .303.613c0 .194-.057.344-.172.45a.917.917 0 0 1-.441.213.914.914 0 0 1 .342.124.771.771 0 0 1 .387.696.795.795 0 0 1-.481.742 1.263 1.263 0 0 1-.555.112h-1.5Zm.464-.447h1.036c.169 0 .3-.04.396-.12a.406.406 0 0 0 .143-.328.52.52 0 0 0-.143-.387.536.536 0 0 0-.396-.143h-1.036v.978Zm0-1.4h.837a.95.95 0 0 0 .338-.055.472.472 0 0 0 .215-.157.4.4 0 0 0 .077-.245.36.36 0 0 0-.168-.314c-.112-.078-.266-.116-.462-.116h-.837v.886Z"/><rect width="770" height="400" x="30" y="50" fill="#fff" rx="3.333"/><path fill="#B4B5BC" d="M249.53 79.334V67.212h4.64c.876 0 1.604.138 2.184.415.584.272 1.02.645 1.308 1.118.292.474.438 1.01.438 1.61 0 .493-.095.915-.284 1.267-.19.347-.444.629-.764.846-.32.217-.677.373-1.071.468v.118c.43.024.842.156 1.237.396.398.237.724.573.976 1.007.253.434.379.958.379 1.574 0 .627-.152 1.191-.456 1.693-.303.497-.761.89-1.373 1.177-.611.288-1.381.433-2.308.433h-4.906Zm2.195-1.835h2.362c.797 0 1.371-.152 1.722-.456.355-.308.533-.702.533-1.184 0-.359-.089-.682-.267-.97a1.827 1.827 0 0 0-.757-.687c-.328-.17-.718-.254-1.172-.254h-2.421v3.55Zm0-5.132h2.172c.379 0 .721-.069 1.024-.207.304-.142.543-.341.716-.598.178-.26.267-.568.267-.923 0-.47-.166-.856-.497-1.16-.328-.304-.815-.456-1.462-.456h-2.22v3.344Zm8.664 6.966v-9.09h3.817c1.077 0 1.928.215 2.551.645.627.43.941 1.03.941 1.799 0 .509-.178.925-.533 1.249-.351.32-.83.534-1.438.645.478.04.896.16 1.255.36.363.202.647.466.852.794.205.328.308.704.308 1.13 0 .502-.132.938-.397 1.309-.26.366-.641.652-1.142.858-.497.2-1.101.302-1.811.302h-4.403Zm2.006-1.686h2.397c.395 0 .704-.093.929-.279.225-.189.338-.445.338-.769 0-.375-.113-.669-.338-.882-.225-.217-.534-.325-.929-.325h-2.397v2.255Zm0-3.64h1.853c.291 0 .542-.042.751-.125.209-.086.369-.207.48-.36a.959.959 0 0 0 .165-.563.846.846 0 0 0-.384-.734c-.253-.177-.604-.266-1.054-.266h-1.811v2.048Zm11.54 5.504c-.912 0-1.699-.19-2.362-.568a3.847 3.847 0 0 1-1.521-1.622c-.355-.702-.533-1.529-.533-2.48 0-.935.178-1.755.533-2.462.359-.71.86-1.262 1.503-1.657.644-.398 1.399-.598 2.267-.598.561 0 1.089.091 1.586.273a3.58 3.58 0 0 1 1.326.828c.387.375.691.852.912 1.432.221.576.331 1.263.331 2.06v.657h-7.451V73.93h5.397a2.3 2.3 0 0 0-.266-1.095 1.938 1.938 0 0 0-.728-.764 2.048 2.048 0 0 0-1.077-.278c-.438 0-.823.107-1.154.32-.332.209-.59.485-.776.829a2.39 2.39 0 0 0-.278 1.118v1.26c0 .53.097.983.29 1.362.194.375.464.663.811.864.347.197.754.296 1.219.296.312 0 .594-.043.847-.13.252-.09.471-.223.657-.397a1.66 1.66 0 0 0 .42-.645l2 .225c-.126.529-.367.99-.722 1.385-.351.39-.801.694-1.349.912-.549.213-1.176.32-1.882.32Zm5.05 2.462V77.57h.722a1.77 1.77 0 0 0 .485-.61c.13-.26.237-.566.32-.917.087-.355.158-.752.213-1.19.055-.442.104-.917.148-1.426l.26-3.184h6.57v7.327h1.408v4.403h-2.071v-2.64h-5.948v2.64h-2.107Zm2.923-4.403h3.747v-5.6h-2.663l-.142 1.457a24.14 24.14 0 0 1-.314 2.474c-.13.686-.339 1.243-.628 1.669Zm10.868-1.137 3.64-6.19h2.202v9.09h-2.071v-6.196l-3.629 6.197h-2.207v-9.091h2.065v6.19ZM299.8 72v-1.757h7.955V72h-2.942v7.334h-2.071V72H299.8Zm13.311 7.511c-.911 0-1.698-.19-2.361-.568a3.847 3.847 0 0 1-1.521-1.622c-.356-.702-.533-1.529-.533-2.48 0-.935.177-1.755.533-2.462.359-.71.86-1.262 1.503-1.657.643-.398 1.399-.598 2.267-.598.56 0 1.089.091 1.586.273.501.177.943.453 1.326.828.386.375.69.852.911 1.432.221.576.332 1.263.332 2.06v.657h-7.452V73.93h5.398a2.301 2.301 0 0 0-.267-1.095 1.931 1.931 0 0 0-.728-.764 2.043 2.043 0 0 0-1.077-.278c-.438 0-.822.107-1.154.32a2.2 2.2 0 0 0-.775.829c-.182.339-.274.712-.278 1.118v1.26c0 .53.096.983.29 1.362.193.375.463.663.811.864.347.197.753.296 1.219.296.311 0 .594-.043.846-.13a1.87 1.87 0 0 0 .657-.397c.185-.173.326-.388.42-.645l2.001.225c-.127.529-.367.99-.722 1.385-.351.39-.801.694-1.35.912-.548.213-1.176.32-1.882.32Zm16.233-5.61v1.757h-4.841V73.9h4.841Zm-4.178-3.658v9.09H323.1v-9.09h2.066Zm5.581 0v9.09h-2.06v-9.09h2.06Zm4.784 9.274a3.796 3.796 0 0 1-1.557-.308 2.537 2.537 0 0 1-1.089-.923c-.264-.407-.396-.908-.396-1.503 0-.513.094-.938.284-1.273a2.19 2.19 0 0 1 .775-.805 3.897 3.897 0 0 1 1.107-.456 8.985 8.985 0 0 1 1.284-.23c.533-.056.965-.105 1.296-.148.332-.048.572-.119.722-.213.154-.099.231-.251.231-.456v-.036c0-.445-.132-.79-.396-1.035-.265-.245-.646-.367-1.143-.367-.525 0-.941.114-1.249.343-.303.229-.509.5-.615.81l-2.001-.283a3.197 3.197 0 0 1 .782-1.385 3.402 3.402 0 0 1 1.331-.84 5.096 5.096 0 0 1 1.74-.285c.438 0 .874.052 1.308.154.434.103.831.272 1.19.51.359.232.647.55.864.952.221.402.332.906.332 1.51v6.084h-2.06v-1.25h-.071a2.61 2.61 0 0 1-.551.71 2.637 2.637 0 0 1-.881.528c-.352.13-.764.195-1.237.195Zm.556-1.574c.43 0 .803-.085 1.119-.255.315-.174.558-.402.728-.686.173-.284.26-.594.26-.93v-1.07a1.012 1.012 0 0 1-.343.153 4.899 4.899 0 0 1-.533.124c-.197.036-.393.067-.586.095l-.503.071c-.32.043-.606.114-.858.213a1.422 1.422 0 0 0-.598.414c-.146.174-.219.399-.219.675 0 .395.144.693.432.894.288.201.655.302 1.101.302Zm5.895-1.101h2.125c.019.34.171.602.455.787.284.185.653.278 1.107.278.462 0 .85-.1 1.166-.302.32-.205.479-.515.479-.929 0-.245-.061-.46-.183-.645a1.193 1.193 0 0 0-.515-.438 1.838 1.838 0 0 0-.781-.154h-1.391v-1.521h1.391c.446 0 .783-.103 1.012-.308a.988.988 0 0 0 .349-.775c0-.335-.122-.608-.367-.817-.241-.209-.574-.314-1-.314-.426 0-.781.097-1.065.29-.281.194-.427.442-.438.746h-2.113c.008-.528.165-.988.473-1.379.312-.39.73-.694 1.255-.911.529-.217 1.124-.326 1.787-.326.711 0 1.324.107 1.841.32.517.213.915.51 1.196.894.28.378.42.824.42 1.337 0 .493-.154.902-.462 1.225-.308.32-.722.549-1.243.687v.094c.359.02.683.123.971.308.288.182.517.428.686.74.17.312.255.673.255 1.083 0 .556-.16 1.038-.479 1.444-.32.403-.76.713-1.32.93-.557.216-1.194.325-1.912.325-.698 0-1.324-.105-1.876-.314-.549-.213-.985-.519-1.308-.917-.324-.398-.495-.878-.515-1.438Zm9.097 2.492v-9.091h3.817c1.077 0 1.928.215 2.551.645.627.43.941 1.03.941 1.799 0 .509-.177.925-.533 1.249-.351.32-.83.534-1.438.645.478.04.896.16 1.255.36.363.202.647.466.852.794.205.328.308.704.308 1.13 0 .502-.132.938-.397 1.309-.26.366-.641.652-1.142.858-.497.2-1.101.302-1.811.302h-4.403Zm2.006-1.687h2.397c.395 0 .704-.093.929-.279.225-.189.338-.445.338-.769 0-.375-.113-.669-.338-.882-.225-.217-.534-.325-.929-.325h-2.397v2.255Zm0-3.64h1.853c.292 0 .542-.042.751-.125.209-.086.369-.207.48-.36a.959.959 0 0 0 .165-.563.846.846 0 0 0-.384-.734c-.253-.177-.604-.266-1.054-.266h-1.811v2.048Zm10.131 5.51a3.788 3.788 0 0 1-1.556-.308 2.537 2.537 0 0 1-1.089-.923c-.265-.407-.397-.908-.397-1.503 0-.513.095-.938.284-1.273.19-.335.448-.604.775-.805a3.92 3.92 0 0 1 1.107-.456 9.024 9.024 0 0 1 1.285-.23c.532-.056.964-.105 1.296-.148.331-.048.572-.119.722-.213.154-.099.231-.251.231-.456v-.036c0-.445-.133-.79-.397-1.035-.264-.245-.645-.367-1.142-.367-.525 0-.941.114-1.249.343-.304.229-.509.5-.616.81l-2-.283a3.196 3.196 0 0 1 .781-1.385 3.399 3.399 0 0 1 1.332-.84 5.096 5.096 0 0 1 1.74-.285c.438 0 .874.052 1.308.154.434.103.831.272 1.19.51.359.232.647.55.864.952.221.402.331.906.331 1.51v6.084h-2.06v-1.25h-.071c-.13.253-.313.49-.55.71a2.652 2.652 0 0 1-.882.528c-.351.13-.763.195-1.237.195Zm.557-1.574c.43 0 .802-.085 1.118-.255.316-.174.558-.402.728-.686.174-.284.261-.594.261-.93v-1.07a1.02 1.02 0 0 1-.344.153 4.878 4.878 0 0 1-.532.124c-.198.036-.393.067-.586.095l-.503.071c-.32.043-.606.114-.859.213a1.425 1.425 0 0 0-.597.414c-.146.174-.219.399-.219.675 0 .395.144.693.432.894.288.201.655.302 1.101.302Zm12.642-4.043v1.758h-4.842V73.9h4.842Zm-4.179-3.657v9.09h-2.066v-9.09h2.066Zm5.581 0v9.09h-2.059v-9.09h2.059Zm4.234 6.19 3.639-6.19h2.202v9.09h-2.071v-6.196l-3.628 6.197h-2.208v-9.091h2.066v6.19Zm12.066 3.078c-.911 0-1.699-.19-2.362-.568a3.86 3.86 0 0 1-1.521-1.622c-.355-.702-.532-1.529-.532-2.48 0-.935.177-1.755.532-2.462a4.03 4.03 0 0 1 1.504-1.657c.643-.398 1.398-.598 2.267-.598.56 0 1.089.091 1.586.273.501.177.943.453 1.325.828.387.375.691.852.912 1.432.221.576.331 1.263.331 2.06v.657h-7.451V73.93h5.398a2.301 2.301 0 0 0-.267-1.095 1.931 1.931 0 0 0-.728-.764 2.045 2.045 0 0 0-1.077-.278c-.438 0-.823.107-1.154.32a2.2 2.2 0 0 0-.775.829c-.182.339-.275.712-.278 1.118v1.26c0 .53.096.983.29 1.362.193.375.463.663.81.864.348.197.754.296 1.22.296.311 0 .593-.043.846-.13.252-.09.471-.223.657-.397a1.66 1.66 0 0 0 .42-.645l2.001.225c-.127.529-.367.99-.722 1.385-.352.39-.801.694-1.35.912-.548.213-1.176.32-1.882.32ZM249.068 99v-6.06h.734v2.698h3.231V92.94h.734V99h-.734v-2.71h-3.231V99h-.734Zm7.411.106c-.288 0-.549-.054-.784-.162a1.343 1.343 0 0 1-.559-.477 1.344 1.344 0 0 1-.207-.757c0-.26.051-.472.154-.633.102-.164.239-.293.411-.385.172-.093.361-.162.568-.207.209-.048.419-.085.63-.113.277-.035.501-.062.672-.08.174-.02.3-.052.379-.097.081-.046.121-.125.121-.237v-.024c0-.292-.08-.519-.239-.68-.158-.162-.398-.243-.719-.243-.334 0-.595.073-.785.219a1.297 1.297 0 0 0-.399.467l-.663-.236a1.59 1.59 0 0 1 .473-.645c.2-.156.417-.265.651-.326.237-.063.47-.095.699-.095.146 0 .314.018.503.054.191.033.376.103.553.21.18.106.329.267.447.482.119.215.178.503.178.864V99h-.699v-.615h-.035a1.234 1.234 0 0 1-.237.316c-.11.113-.257.208-.441.287a1.697 1.697 0 0 1-.672.118Zm.107-.627c.276 0 .509-.054.698-.163a1.1 1.1 0 0 0 .58-.961v-.64c-.029.036-.094.069-.195.098a3.325 3.325 0 0 1-.343.074 15.405 15.405 0 0 1-.669.089 2.654 2.654 0 0 0-.509.115.88.88 0 0 0-.379.234c-.095.103-.142.243-.142.42 0 .243.09.426.269.55.182.123.412.184.69.184Zm2.967.521 1.847-2.308-1.823-2.237h.829l1.515 1.94h.379v-1.94h.698v1.94h.367l1.515-1.94h.829l-1.811 2.237L265.732 99h-.84l-1.539-1.953h-.355V99h-.698v-1.953h-.356L260.394 99h-.841Zm9.663-.947 1.586-3.599h.663L269.5 99h-.568l-1.929-4.546h.651l1.562 3.599Zm-1.787-3.599V99h-.699v-4.546h.699ZM271.004 99v-4.546h.698V99h-.698Zm2.675-1.03 2.19-3.516h.805V99h-.699v-3.516L273.797 99h-.817v-4.546h.699v3.516Zm3.655-2.864v-.651h3.693v.65h-1.491V99h-.698v-3.894h-1.504Zm6.382 3.989c-.438 0-.816-.097-1.134-.29a1.945 1.945 0 0 1-.73-.817c-.17-.351-.255-.76-.255-1.225 0-.466.085-.876.255-1.231.171-.357.41-.635.716-.835a1.92 1.92 0 0 1 1.077-.302c.237 0 .47.04.701.119.231.079.441.207.631.384.189.176.34.409.452.699.113.29.169.647.169 1.071v.296h-3.504v-.604h2.794c0-.256-.052-.485-.154-.686a1.165 1.165 0 0 0-.432-.477 1.213 1.213 0 0 0-.657-.174c-.278 0-.519.069-.722.207a1.37 1.37 0 0 0-.465.532 1.572 1.572 0 0 0-.163.705v.402c0 .344.06.635.178.873.12.237.287.418.5.542.213.122.461.183.743.183.183 0 .349-.025.497-.077a1.07 1.07 0 0 0 .388-.236c.108-.107.192-.24.251-.397l.675.19c-.071.228-.19.43-.358.603a1.748 1.748 0 0 1-.622.403 2.3 2.3 0 0 1-.831.142Zm5.051-5.505v-.65h4.546v.65h-1.906V99h-.734v-5.41h-1.906Zm6.303 5.516c-.288 0-.55-.054-.784-.162a1.346 1.346 0 0 1-.56-.477 1.344 1.344 0 0 1-.207-.757c0-.26.052-.472.154-.633.103-.164.24-.293.411-.385a2.16 2.16 0 0 1 .569-.207c.209-.048.419-.085.63-.113.276-.035.5-.062.672-.08.173-.02.3-.052.379-.097.08-.046.121-.125.121-.237v-.024c0-.292-.08-.519-.24-.68-.158-.162-.397-.243-.719-.243-.333 0-.595.073-.784.219-.19.146-.323.302-.4.467l-.663-.236a1.6 1.6 0 0 1 .474-.645c.199-.156.416-.265.651-.326.237-.063.47-.095.698-.095.146 0 .314.018.503.054.192.033.376.103.554.21.179.106.328.267.447.482.118.215.177.503.177.864V99h-.698v-.615h-.036a1.227 1.227 0 0 1-.236.316 1.378 1.378 0 0 1-.441.287 1.703 1.703 0 0 1-.672.118Zm.106-.627c.277 0 .509-.054.699-.163a1.113 1.113 0 0 0 .58-.961v-.64c-.03.036-.095.069-.195.098a3.348 3.348 0 0 1-.344.074 14.744 14.744 0 0 1-.669.089 2.672 2.672 0 0 0-.509.115.876.876 0 0 0-.378.234c-.095.103-.142.243-.142.42 0 .243.089.426.269.55.181.123.411.184.689.184Zm3.347.521v-6.06h.698v2.237h.059c.052-.08.123-.18.213-.302a1.25 1.25 0 0 1 .397-.332c.173-.098.408-.148.704-.148.383 0 .72.096 1.012.287.292.192.52.463.684.814.164.351.245.766.245 1.243 0 .481-.081.899-.245 1.252a1.94 1.94 0 0 1-.681.817c-.29.191-.624.287-1.003.287-.292 0-.526-.049-.701-.145a1.302 1.302 0 0 1-.406-.335 4.621 4.621 0 0 1-.219-.313h-.083V99h-.674Zm.686-2.273c0 .343.05.646.151.909.101.26.248.464.441.612.193.146.43.22.71.22.292 0 .536-.078.731-.231.197-.156.345-.365.444-.628.101-.264.151-.558.151-.882 0-.32-.049-.607-.148-.864a1.34 1.34 0 0 0-.441-.612c-.195-.152-.441-.228-.737-.228-.284 0-.523.072-.716.216a1.301 1.301 0 0 0-.438.597 2.47 2.47 0 0 0-.148.891Zm6.253 3.575v-1.953h.379a1.728 1.728 0 0 0 .414-.713c.052-.156.095-.346.13-.568.036-.225.068-.497.095-.814l.154-1.8h2.888v3.895h.699v1.953h-.699V99h-3.361v1.302h-.699Zm1.172-1.953h2.19v-3.243h-1.539l-.118 1.148c-.05.475-.111.89-.184 1.246-.073.355-.189.638-.349.849Zm4.111.651v-.651h.166a.664.664 0 0 0 .34-.08.57.57 0 0 0 .219-.287c.057-.138.101-.33.13-.574.032-.247.055-.56.068-.941l.083-2.013h3.031V99h-.699v-3.894h-1.669l-.071 1.621a7.447 7.447 0 0 1-.1.986c-.05.282-.126.519-.228.71a1.045 1.045 0 0 1-.403.432 1.245 1.245 0 0 1-.63.145h-.237Zm8.052 0v-3.906h-1.207c-.272 0-.486.063-.642.19a.634.634 0 0 0-.234.52c0 .217.07.388.21.512.142.124.337.186.583.186h1.468v.651h-1.468a1.8 1.8 0 0 1-.796-.162 1.194 1.194 0 0 1-.515-.465 1.394 1.394 0 0 1-.18-.722c0-.28.063-.52.189-.722.126-.201.307-.356.542-.465.236-.108.517-.163.843-.163h1.87V99h-.663Zm-3.03 0 1.29-2.26h.758l-1.29 2.26h-.758Zm7.319 0v-4.546h1.859c.489 0 .877.111 1.166.332.288.22.432.513.432.876 0 .276-.082.49-.246.642-.164.15-.374.252-.63.305a1.3 1.3 0 0 1 .488.178c.16.094.292.224.396.39.105.164.157.365.157.604 0 .233-.059.44-.177.624a1.22 1.22 0 0 1-.509.435c-.221.107-.486.16-.793.16h-2.143Zm.663-.64h1.48c.24 0 .429-.056.565-.17a.579.579 0 0 0 .204-.468c0-.235-.068-.42-.204-.554-.136-.136-.325-.204-.565-.204h-1.48v1.397Zm0-2h1.196c.187 0 .348-.025.482-.077a.684.684 0 0 0 .308-.225.57.57 0 0 0 .109-.349.515.515 0 0 0-.24-.45c-.159-.11-.379-.165-.659-.165h-1.196v1.266Zm4.62-.26h1.302c.533 0 .94.135 1.222.405.283.27.424.613.424 1.027 0 .273-.064.52-.19.743a1.37 1.37 0 0 1-.556.53c-.245.13-.545.195-.9.195h-1.906v-4.546h.699v3.895h1.207c.276 0 .503-.073.681-.219a.697.697 0 0 0 .266-.562.74.74 0 0 0-.266-.59c-.178-.151-.405-.227-.681-.227h-1.302V96.1Zm3.67 2.9v-4.546h.698V99h-.698Zm5.35-6.25.355.426a1.14 1.14 0 0 1-.479.281 2.69 2.69 0 0 1-.616.098c-.229.012-.483.024-.763.035-.316.012-.577.09-.784.231a1.358 1.358 0 0 0-.48.616 3.273 3.273 0 0 0-.216.988h.059c.154-.284.367-.493.64-.627.272-.134.564-.201.875-.201.356 0 .675.083.959.248.284.166.509.412.675.737.166.326.249.727.249 1.205 0 .475-.085.885-.255 1.23a1.876 1.876 0 0 1-.707.8 1.99 1.99 0 0 1-1.063.278c-.406 0-.762-.096-1.068-.287-.306-.194-.543-.48-.713-.859-.17-.38-.255-.85-.255-1.411v-.485c0-1.013.172-1.78.515-2.303.346-.523.864-.793 1.557-.81.245-.008.463-.01.654-.007.191.004.358-.005.5-.026a.718.718 0 0 0 .361-.157Zm-1.551 5.717c.275 0 .51-.069.708-.207a1.31 1.31 0 0 0 .458-.583c.107-.252.16-.55.16-.89 0-.332-.054-.614-.163-.847a1.18 1.18 0 0 0-.458-.533 1.344 1.344 0 0 0-.716-.183c-.204 0-.386.034-.548.103-.162.07-.3.171-.414.305a1.438 1.438 0 0 0-.267.492 2.329 2.329 0 0 0-.097.663c0 .508.119.916.358 1.222.239.305.565.458.979.458Zm4.939.628c-.41 0-.77-.098-1.08-.293a1.998 1.998 0 0 1-.722-.82c-.171-.351-.257-.761-.257-1.231 0-.474.086-.887.257-1.24.174-.353.415-.627.722-.823.31-.195.67-.293 1.08-.293.411 0 .77.098 1.078.293.309.196.55.47.722.823.173.353.26.767.26 1.24 0 .47-.087.88-.26 1.231a1.97 1.97 0 0 1-.722.82 1.969 1.969 0 0 1-1.078.293Zm0-.628c.312 0 .569-.08.77-.24.201-.16.35-.37.447-.63.096-.26.145-.542.145-.846 0-.304-.049-.587-.145-.85a1.436 1.436 0 0 0-.447-.636c-.201-.161-.458-.242-.77-.242-.311 0-.568.08-.769.242-.201.162-.35.374-.447.637a2.453 2.453 0 0 0-.145.849c0 .304.049.586.145.846.097.26.246.47.447.63.201.16.458.24.769.24Zm3.126 2.238v-6.25h.675v.722h.083a5.86 5.86 0 0 1 .213-.302c.093-.124.225-.235.396-.332.174-.098.409-.148.705-.148.382 0 .72.096 1.012.287.292.192.52.463.683.814.164.351.246.766.246 1.243 0 .481-.082.899-.246 1.252-.163.351-.39.623-.68.817a1.78 1.78 0 0 1-1.003.287c-.292 0-.526-.049-.702-.145a1.297 1.297 0 0 1-.405-.335 4.283 4.283 0 0 1-.219-.313h-.059v2.403h-.699Zm.687-3.978c0 .343.05.646.151.909.1.26.247.464.441.612.193.146.43.22.71.22.292 0 .535-.078.731-.231.197-.156.345-.365.444-.628.1-.264.151-.558.151-.882 0-.32-.05-.607-.148-.864a1.34 1.34 0 0 0-.441-.612c-.196-.152-.441-.228-.737-.228-.284 0-.523.072-.716.216-.194.142-.34.341-.438.597a2.45 2.45 0 0 0-.148.891Zm5.729 2.38c-.288 0-.55-.055-.784-.163a1.346 1.346 0 0 1-.56-.477 1.344 1.344 0 0 1-.207-.757c0-.26.052-.472.154-.633.103-.164.24-.293.411-.385.172-.093.362-.162.569-.207.209-.048.419-.085.63-.113.276-.035.5-.062.672-.08.173-.02.3-.052.379-.097.08-.046.121-.125.121-.237v-.024c0-.292-.08-.519-.24-.68-.158-.162-.397-.243-.719-.243-.333 0-.595.073-.784.219-.19.146-.323.302-.4.467l-.663-.236a1.6 1.6 0 0 1 .474-.645c.199-.156.416-.265.651-.326.237-.063.47-.095.698-.095.146 0 .314.018.503.054.192.033.376.103.554.21.179.106.328.267.447.482.118.215.177.503.177.864V99h-.698v-.615h-.036a1.227 1.227 0 0 1-.236.316 1.378 1.378 0 0 1-.441.287 1.703 1.703 0 0 1-.672.118Zm.106-.628c.277 0 .509-.054.699-.163a1.113 1.113 0 0 0 .58-.961v-.64c-.03.036-.095.069-.195.098a3.348 3.348 0 0 1-.344.074 14.744 14.744 0 0 1-.669.089 2.672 2.672 0 0 0-.509.115.876.876 0 0 0-.378.234c-.095.103-.142.243-.142.42 0 .243.089.426.269.55.181.123.411.184.689.184Zm6.294-.509 2.19-3.516h.805V99h-.699v-3.516L356.837 99h-.816v-4.546h.698v3.516Zm7.316-1.562v.65h-2.509v-.65h2.509Zm-2.344-1.954V99h-.698v-4.546h.698Zm2.877 0V99h-.699v-4.546h.699Zm3.122 4.64c-.426 0-.793-.1-1.101-.301a1.968 1.968 0 0 1-.71-.832 2.813 2.813 0 0 1-.249-1.21c0-.462.085-.87.255-1.222.171-.355.41-.632.716-.832a1.925 1.925 0 0 1 1.077-.302c.32 0 .608.06.864.178.257.118.467.284.63.497.164.213.266.462.305.746h-.698a1.084 1.084 0 0 0-.355-.55c-.182-.162-.426-.243-.734-.243-.272 0-.511.07-.716.213-.203.14-.362.338-.477.595a2.211 2.211 0 0 0-.168.896c0 .351.055.657.165.918.113.26.271.462.474.606.205.144.446.216.722.216.181 0 .346-.031.494-.094.148-.064.273-.154.376-.273.102-.118.175-.26.219-.426h.698a1.611 1.611 0 0 1-.905 1.234 1.977 1.977 0 0 1-.882.187Zm2.45-3.988v-.651h3.693v.65h-1.491V99h-.699v-3.894h-1.503Zm4.712 5.599v-6.25h.675v.722h.083a5.86 5.86 0 0 1 .213-.302c.092-.124.225-.235.396-.332.174-.098.409-.148.705-.148.382 0 .72.096 1.012.287.292.192.519.463.683.814.164.351.246.766.246 1.243 0 .481-.082.899-.246 1.252-.164.351-.39.623-.68.817-.29.191-.625.287-1.004.287-.292 0-.525-.049-.701-.145a1.286 1.286 0 0 1-.405-.335 4.283 4.283 0 0 1-.219-.313h-.06v2.403h-.698Zm.687-3.978c0 .343.05.646.151.909.1.26.247.464.44.612.194.146.431.22.711.22.292 0 .535-.078.731-.231.197-.156.345-.365.444-.628.1-.264.15-.558.15-.882 0-.32-.049-.607-.147-.864a1.34 1.34 0 0 0-.441-.612c-.196-.152-.441-.228-.737-.228-.284 0-.523.072-.716.216-.194.142-.34.341-.438.597a2.45 2.45 0 0 0-.148.891Zm4.678 3.978a1.5 1.5 0 0 1-.509-.083l.178-.616c.169.044.319.059.45.048a.541.541 0 0 0 .346-.175c.102-.103.196-.27.281-.5l.13-.355-1.681-4.57h.758l1.255 3.623h.047l1.255-3.623h.757l-1.929 5.209a1.96 1.96 0 0 1-.323.583 1.203 1.203 0 0 1-.447.346 1.375 1.375 0 0 1-.568.113Zm6.675-2.652 1.586-3.599h.663L387.176 99h-.568l-1.93-4.546h.651l1.563 3.599Zm-1.787-3.599V99h-.699v-4.546h.699ZM388.679 99v-4.546h.699V99h-.699Zm3.883.095c-.438 0-.816-.097-1.134-.29a1.945 1.945 0 0 1-.73-.817c-.17-.351-.255-.76-.255-1.225 0-.466.085-.876.255-1.231.171-.357.41-.635.716-.835a1.922 1.922 0 0 1 1.077-.302c.237 0 .47.04.701.119.231.079.441.207.631.384.189.176.34.409.452.699.113.29.169.647.169 1.071v.296h-3.504v-.604h2.794c0-.256-.052-.485-.154-.686a1.165 1.165 0 0 0-.432-.477 1.213 1.213 0 0 0-.657-.174c-.278 0-.519.069-.722.207a1.37 1.37 0 0 0-.465.532 1.572 1.572 0 0 0-.163.705v.402c0 .344.06.635.178.873.12.237.287.418.5.542.213.122.461.183.743.183.183 0 .349-.025.497-.077a1.07 1.07 0 0 0 .388-.236c.108-.107.192-.24.251-.397l.675.19c-.071.228-.19.43-.358.603a1.748 1.748 0 0 1-.622.403 2.3 2.3 0 0 1-.831.142Zm5.987-2.687v.65h-2.51v-.65h2.51Zm-2.344-1.954V99h-.699v-4.546h.699Zm2.876 0V99h-.698v-4.546h.698Zm.657.652v-.651h3.693v.65h-1.491V99h-.699v-3.894h-1.503Zm5.814 4c-.288 0-.55-.054-.785-.162a1.349 1.349 0 0 1-.559-.477 1.344 1.344 0 0 1-.207-.757c0-.26.051-.472.154-.633.102-.164.24-.293.411-.385.172-.093.361-.162.568-.207a7 7 0 0 1 .631-.113c.276-.035.5-.062.671-.08.174-.02.3-.052.379-.097.081-.046.122-.125.122-.237v-.024c0-.292-.08-.519-.24-.68-.158-.162-.398-.243-.719-.243-.334 0-.595.073-.784.219-.19.146-.323.302-.4.467l-.663-.236c.119-.276.276-.492.474-.645.199-.156.416-.265.651-.326.236-.063.469-.095.698-.095.146 0 .314.018.503.054.192.033.376.103.554.21.179.106.328.267.446.482.119.215.178.503.178.864V99h-.698v-.615h-.036a1.211 1.211 0 0 1-.237.316c-.11.113-.257.208-.441.287a1.695 1.695 0 0 1-.671.118Zm.106-.627c.276 0 .509-.054.699-.163a1.113 1.113 0 0 0 .58-.961v-.64c-.03.036-.095.069-.196.098a3.268 3.268 0 0 1-.343.074 15.405 15.405 0 0 1-.669.089 2.672 2.672 0 0 0-.509.115.88.88 0 0 0-.379.234.599.599 0 0 0-.142.42c0 .243.09.426.27.55.181.123.411.184.689.184Z"/></g></g><defs><clipPath id="a"><path fill="#fff" d="M0 16C0 7.163 7.163 0 16 0h776a8 8 0 0 1 8 8v426c0 8.837-7.163 16-16 16H16c-8.837 0-16-7.163-16-16V16Z"/></clipPath><clipPath id="b"><path fill="#fff" d="M0 0h800v450H0z"/></clipPath><clipPath id="c"><path fill="#fff" d="M36.666 6.667h13.333V20H36.666z"/></clipPath><clipPath id="d"><path fill="#fff" d="M10 66.666h10v10H10z"/></clipPath><clipPath id="e"><path fill="#fff" d="M10 85h10v10H10z"/></clipPath><clipPath id="f"><path fill="#fff" d="M10 103.333h10v10H10z"/></clipPath><clipPath id="g"><path fill="#fff" d="M10 430h10v10H10z"/></clipPath></defs></svg>