<svg xmlns="http://www.w3.org/2000/svg" width="311" height="380" fill="none"><path fill="#0F0F11" d="M33.879 11.454c0 1.428-.271 2.643-.812 3.644-.537 1.001-1.27 1.766-2.2 2.295-.924.524-1.964.786-3.118.786-1.164 0-2.208-.264-3.133-.793-.924-.528-1.655-1.293-2.192-2.294-.537-1.002-.805-2.214-.805-3.638 0-1.427.268-2.642.805-3.643s1.268-1.764 2.192-2.288c.925-.529 1.97-.793 3.133-.793 1.154 0 2.194.264 3.119.793.929.524 1.662 1.287 2.199 2.288.541 1.002.812 2.216.812 3.643Zm-2.807 0c0-.924-.138-1.704-.415-2.339C30.384 8.48 29.999 8 29.5 7.67c-.499-.328-1.082-.492-1.751-.492-.67 0-1.253.164-1.752.492-.498.329-.886.81-1.163 1.445-.273.635-.41 1.415-.41 2.34 0 .924.137 1.704.41 2.339.277.635.665 1.117 1.163 1.445.499.328 1.082.492 1.752.492.669 0 1.252-.164 1.751-.492.499-.329.884-.81 1.157-1.445.277-.635.415-1.415.415-2.34ZM44.04 4.577l.831 1.777c-.277.23-.584.4-.92.511-.337.107-.74.177-1.208.211-.465.034-1.032.058-1.7.07-.76.009-1.377.13-1.854.365a2.34 2.34 0 0 0-1.087 1.105c-.247.5-.409 1.151-.486 1.956h.096c.294-.6.708-1.065 1.24-1.393.537-.328 1.2-.492 1.988-.492.835 0 1.566.183 2.193.55a3.74 3.74 0 0 1 1.47 1.578c.35.686.524 1.509.524 2.468 0 .997-.196 1.864-.588 2.601a4.148 4.148 0 0 1-1.656 1.707c-.716.4-1.568.6-2.556.6-.993 0-1.85-.208-2.57-.626-.716-.417-1.27-1.033-1.662-1.847-.388-.814-.582-1.815-.582-3.004v-.806c0-2.365.46-4.118 1.381-5.26.92-1.142 2.273-1.722 4.059-1.739.486-.008.925-.01 1.317-.006.392.004.735-.015 1.029-.058.298-.042.545-.132.741-.268Zm-3.7 11.505c.417 0 .775-.108 1.073-.326.303-.217.535-.528.697-.933.166-.405.25-.888.25-1.45 0-.56-.084-1.032-.25-1.42-.162-.392-.394-.69-.697-.895-.302-.204-.665-.307-1.086-.307a2.02 2.02 0 0 0-.85.173 1.74 1.74 0 0 0-.646.511 2.45 2.45 0 0 0-.41.825c-.093.324-.14.694-.14 1.112 0 .84.181 1.502.543 1.988.367.482.872.722 1.515.722ZM48.64 11.2h2.934c1.3 0 2.314.31 3.042.933.73.618 1.094 1.445 1.094 2.48 0 .674-.164 1.266-.493 1.777-.328.507-.8.904-1.419 1.19-.617.28-1.359.421-2.224.421h-4.64V8.182h2.6v7.677h2.04c.456 0 .83-.115 1.125-.345a1.09 1.09 0 0 0 .447-.883 1.157 1.157 0 0 0-.447-.927c-.294-.242-.67-.364-1.125-.364H48.64V11.2ZM56.765 18V8.182h2.723V18h-2.723Zm13.42-9.818V18h-2.582V8.182h2.582Zm-1.259 4.308v2.148a5.453 5.453 0 0 1-.78.268 9.427 9.427 0 0 1-.978.198c-.34.052-.66.077-.959.077-1.41 0-2.52-.29-3.33-.87-.81-.583-1.214-1.514-1.214-2.793V8.17h2.57v3.35c0 .379.063.68.191.9.132.222.341.382.627.48.29.094.675.14 1.157.14.447 0 .886-.046 1.316-.14.43-.094.897-.23 1.4-.409Zm10.207-.486v2.142h-5.127v-2.142h5.127ZM74.9 8.182V18H72.3V8.182h2.602Zm5.938 0V18h-2.582V8.182h2.582Zm3.82 3.017h2.933c1.3 0 2.314.31 3.043.933.729.618 1.093 1.445 1.093 2.48 0 .674-.164 1.266-.492 1.777-.328.507-.801.904-1.42 1.19-.617.28-1.358.421-2.224.421h-4.64V8.182h2.601v7.677h2.04c.456 0 .83-.115 1.124-.345a1.09 1.09 0 0 0 .448-.883 1.157 1.157 0 0 0-.448-.927c-.293-.242-.668-.364-1.124-.364h-2.934V11.2ZM92.783 18V8.182h2.723V18h-2.723Zm9.374.192c-1.01 0-1.879-.205-2.608-.614a4.203 4.203 0 0 1-1.675-1.751c-.392-.759-.588-1.656-.588-2.691 0-1.01.196-1.897.588-2.66a4.347 4.347 0 0 1 1.656-1.783c.716-.426 1.555-.639 2.518-.639a5.12 5.12 0 0 1 1.809.313 4.003 4.003 0 0 1 1.47.927c.422.413.75.933.985 1.56.234.622.351 1.35.351 2.186v.748h-8.29V12.1h5.727c0-.392-.085-.74-.256-1.042a1.831 1.831 0 0 0-.709-.71 2.027 2.027 0 0 0-1.042-.261c-.413 0-.78.095-1.1.287a2.018 2.018 0 0 0-.741.76c-.179.316-.27.668-.275 1.056v1.604c0 .486.09.906.269 1.26.183.353.441.626.773.817.332.192.727.288 1.183.288.302 0 .579-.043.83-.128a1.72 1.72 0 0 0 .646-.383c.179-.17.315-.38.409-.627l2.519.166a3.435 3.435 0 0 1-.787 1.586c-.392.447-.899.797-1.521 1.048-.618.247-1.332.37-2.141.37ZM112.606 18V8.182h4.187c1.21 0 2.167.23 2.87.69.703.46 1.055 1.115 1.055 1.963 0 .532-.198.975-.595 1.33-.396.353-.946.591-1.649.715.588.043 1.089.177 1.502.403.418.221.735.509.953.863.221.353.332.745.332 1.176 0 .558-.149 1.037-.447 1.438-.294.4-.727.707-1.298.92-.567.213-1.259.32-2.077.32h-4.833Zm2.538-2.04h2.295c.379 0 .675-.089.888-.268.217-.183.326-.432.326-.747 0-.35-.109-.625-.326-.825-.213-.2-.509-.3-.888-.3h-2.295v2.14Zm0-3.738h1.706c.273 0 .505-.039.697-.115a.981.981 0 0 0 .448-.346.892.892 0 0 0 .159-.53.819.819 0 0 0-.364-.71c-.243-.17-.575-.255-.997-.255h-1.649v1.956Zm10.435 2.186 3.535-6.226h2.684V18h-2.595v-6.245L125.681 18h-2.704V8.182h2.602v6.226Zm7.635 6.468V15.84h.754c.218-.136.392-.353.525-.652.136-.298.247-.65.332-1.054a11.2 11.2 0 0 0 .204-1.31c.052-.474.096-.95.135-1.432l.255-3.21h7.53v7.659h1.522v5.036h-2.596V18h-6.002v2.876h-2.659Zm3.465-5.037h3.701v-5.56h-2.647l-.102 1.112a23.907 23.907 0 0 1-.313 2.671c-.137.73-.35 1.322-.639 1.777Zm13.853 2.353c-1.01 0-1.879-.205-2.608-.614a4.199 4.199 0 0 1-1.675-1.751c-.392-.759-.588-1.656-.588-2.691 0-1.01.196-1.897.588-2.66a4.345 4.345 0 0 1 1.656-1.783c.716-.426 1.555-.639 2.518-.639a5.12 5.12 0 0 1 1.809.313 4.003 4.003 0 0 1 1.47.927c.422.413.75.933.985 1.56.234.622.351 1.35.351 2.186v.748h-8.29V12.1h5.727c0-.392-.085-.74-.256-1.042a1.831 1.831 0 0 0-.709-.71 2.027 2.027 0 0 0-1.042-.261c-.413 0-.78.095-1.1.287a2.018 2.018 0 0 0-.741.76 2.145 2.145 0 0 0-.275 1.056v1.604c0 .486.09.906.269 1.26.183.353.441.626.773.817.332.192.727.288 1.183.288.302 0 .579-.043.83-.128a1.72 1.72 0 0 0 .646-.383c.179-.17.315-.38.409-.627l2.519.166a3.435 3.435 0 0 1-.787 1.586c-.392.447-.899.797-1.521 1.048-.618.247-1.332.37-2.141.37Zm10.719 0c-.993 0-1.851-.211-2.576-.633a4.33 4.33 0 0 1-1.668-1.777c-.392-.763-.588-1.647-.588-2.653 0-1.014.196-1.9.588-2.659a4.279 4.279 0 0 1 1.668-1.777c.725-.426 1.583-.639 2.576-.639.993 0 1.85.213 2.57.64a4.27 4.27 0 0 1 1.675 1.776c.392.759.588 1.645.588 2.66 0 1.005-.196 1.89-.588 2.652a4.32 4.32 0 0 1-1.675 1.777c-.72.422-1.577.633-2.57.633Zm.013-2.11c.452 0 .829-.128 1.131-.383.303-.26.531-.614.684-1.061.158-.448.237-.957.237-1.528 0-.57-.079-1.08-.237-1.528-.153-.447-.381-.8-.684-1.06-.302-.26-.679-.39-1.131-.39-.456 0-.839.13-1.151.39-.306.26-.539.613-.696 1.06-.154.448-.23.957-.23 1.528 0 .571.076 1.08.23 1.528.157.447.39.8.696 1.06.312.256.695.384 1.151.384Zm6.59 1.918V8.182h2.723v3.81h.767l2.672-3.81h3.196l-3.471 4.87 3.51 4.948h-3.235l-2.422-3.484h-1.017V18h-2.723Zm14.579.192c-.993 0-1.852-.211-2.576-.633a4.33 4.33 0 0 1-1.668-1.777c-.392-.763-.589-1.647-.589-2.653 0-1.014.197-1.9.589-2.659a4.279 4.279 0 0 1 1.668-1.777c.724-.426 1.583-.639 2.576-.639.993 0 1.849.213 2.569.64a4.264 4.264 0 0 1 1.675 1.776c.392.759.588 1.645.588 2.66 0 1.005-.196 1.89-.588 2.652a4.314 4.314 0 0 1-1.675 1.777c-.72.422-1.576.633-2.569.633Zm.013-2.11c.451 0 .829-.128 1.131-.383.303-.26.531-.614.684-1.061.158-.448.237-.957.237-1.528 0-.57-.079-1.08-.237-1.528-.153-.447-.381-.8-.684-1.06-.302-.26-.68-.39-1.131-.39-.456 0-.84.13-1.151.39-.307.26-.539.613-.697 1.06a4.71 4.71 0 0 0-.23 1.528c0 .571.077 1.08.23 1.528.158.447.39.8.697 1.06.311.256.695.384 1.151.384Zm13.423-4.078v2.142h-5.126v-2.142h5.126Zm-4.232-3.822V18h-2.601V8.182h2.601Zm5.939 0V18h-2.583V8.182h2.583Zm6.81 13.155V4.909h2.717v16.428h-2.717Zm0-3.145a5.63 5.63 0 0 1-2.064-.365 4.756 4.756 0 0 1-1.611-1.042 4.712 4.712 0 0 1-1.048-1.604 5.493 5.493 0 0 1-.371-2.052c0-.754.123-1.44.371-2.058a4.631 4.631 0 0 1 1.048-1.604 4.634 4.634 0 0 1 1.611-1.042 5.543 5.543 0 0 1 2.064-.371h.505v10.138h-.505Zm0-2.122h.301v-5.894h-.301c-.366 0-.692.077-.978.23a2.144 2.144 0 0 0-.722.633 2.869 2.869 0 0 0-.447.933 4.368 4.368 0 0 0-.147 1.157c0 .546.089 1.042.268 1.49.179.443.441.796.786 1.06.345.26.759.39 1.24.39Zm2.717 2.122h-.505V8.054h.505c.754 0 1.442.124 2.065.37a4.62 4.62 0 0 1 2.659 2.647c.247.618.37 1.304.37 2.058 0 .746-.123 1.43-.37 2.052a4.714 4.714 0 0 1-1.049 1.604 4.742 4.742 0 0 1-1.61 1.042 5.639 5.639 0 0 1-2.065.365Zm0-2.122c.366 0 .692-.075.978-.224.285-.153.526-.364.722-.633a2.98 2.98 0 0 0 .448-.933 4.18 4.18 0 0 0 .153-1.15 3.85 3.85 0 0 0-.275-1.49 2.482 2.482 0 0 0-.78-1.068c-.34-.264-.756-.396-1.246-.396h-.3v5.894h.3Zm11.351 2.122c-1.01 0-1.88-.205-2.608-.614a4.199 4.199 0 0 1-1.675-1.751c-.392-.759-.588-1.656-.588-2.691 0-1.01.196-1.897.588-2.66a4.345 4.345 0 0 1 1.656-1.783c.715-.426 1.555-.639 2.518-.639a5.12 5.12 0 0 1 1.809.313 4.02 4.02 0 0 1 1.47.927c.422.413.75.933.984 1.56.235.622.352 1.35.352 2.186v.748h-8.29V12.1h5.727c0-.392-.085-.74-.256-1.042a1.831 1.831 0 0 0-.709-.71 2.027 2.027 0 0 0-1.042-.261c-.414 0-.78.095-1.1.287a2.018 2.018 0 0 0-.741.76 2.145 2.145 0 0 0-.275 1.056v1.604c0 .486.089.906.268 1.26.184.353.441.626.774.817.332.192.726.288 1.182.288.303 0 .58-.043.831-.128a1.72 1.72 0 0 0 .646-.383c.179-.17.315-.38.409-.627l2.519.166a3.435 3.435 0 0 1-.787 1.586c-.392.447-.899.797-1.521 1.048-.618.247-1.332.37-2.141.37Zm6.283 3.49v-13.5h2.685V9.83h.121c.119-.264.292-.533.518-.805.23-.277.528-.508.895-.69.371-.188.831-.282 1.38-.282.716 0 1.377.187 1.982.562.605.371 1.089.932 1.451 1.682.362.745.543 1.68.543 2.806 0 1.095-.177 2.02-.53 2.774-.35.75-.827 1.319-1.432 1.706a3.675 3.675 0 0 1-2.02.576c-.528 0-.978-.088-1.349-.262a2.788 2.788 0 0 1-.901-.659 3.366 3.366 0 0 1-.537-.811h-.083v5.254h-2.723Zm2.666-8.591c0 .584.08 1.093.242 1.528.162.434.397.773.704 1.016.306.239.679.358 1.118.358.443 0 .818-.122 1.125-.364.307-.248.539-.588.697-1.023.162-.44.243-.944.243-1.515 0-.567-.079-1.065-.237-1.496-.157-.43-.39-.767-.696-1.01-.307-.243-.684-.364-1.132-.364-.443 0-.818.117-1.125.351-.302.235-.535.567-.697.998-.162.43-.242.937-.242 1.52Zm13.199 5.1c-1.01 0-1.879-.204-2.608-.613a4.205 4.205 0 0 1-1.675-1.751c-.392-.759-.588-1.656-.588-2.691 0-1.01.196-1.897.588-2.66a4.345 4.345 0 0 1 1.656-1.783c.716-.426 1.555-.639 2.518-.639a5.12 5.12 0 0 1 1.809.313 4.015 4.015 0 0 1 1.471.927c.421.413.75.933.984 1.56.234.622.351 1.35.351 2.186v.748h-8.29V12.1h5.727c0-.392-.085-.74-.255-1.042a1.834 1.834 0 0 0-.71-.71 2.024 2.024 0 0 0-1.042-.261c-.413 0-.78.095-1.099.287a2.013 2.013 0 0 0-.742.76c-.179.316-.27.668-.275 1.056v1.604c0 .486.09.906.269 1.26.183.353.441.626.773.817.333.192.727.288 1.183.288.302 0 .579-.043.831-.128a1.657 1.657 0 0 0 1.054-1.01l2.519.167a3.443 3.443 0 0 1-.786 1.585c-.392.447-.899.797-1.522 1.048-.617.247-1.331.37-2.141.37Zm13.117-6.187v2.142h-5.127v-2.142h5.127Zm-4.232-3.822V18h-2.602V8.182h2.602Zm5.938 0V18h-2.582V8.182h2.582Zm10.697 0v7.939h1.566v5.037h-2.646V18h-7.504V8.182h2.601v7.677h3.414V8.182h2.569Zm5.847 6.226 3.535-6.226h2.685V18h-2.595v-6.245L272.072 18h-2.704V8.182h2.601v6.226Zm11.004 0 3.535-6.226h2.685V18h-2.595v-6.245L283.076 18h-2.704V8.182h2.601v6.226Z"/><rect width="262.5" height="27" x="24.25" y="40" fill="#F7F7F7" rx="12"/><path fill="#3D3E43" d="M43.58 52h-1.057a2.196 2.196 0 0 0-.89-1.38 2.385 2.385 0 0 0-.73-.359 2.908 2.908 0 0 0-.835-.119c-.528 0-1.007.134-1.436.4-.426.268-.765.661-1.018 1.181-.25.52-.375 1.158-.375 1.913 0 .756.125 1.394.375 1.914.253.52.592.913 1.018 1.18.43.267.908.4 1.436.4.29 0 .568-.04.835-.119.267-.08.51-.197.73-.353a2.245 2.245 0 0 0 .89-1.385h1.056a3.52 3.52 0 0 1-.434 1.197 3.273 3.273 0 0 1-1.837 1.458c-.386.127-.8.191-1.24.191-.744 0-1.406-.181-1.986-.545-.58-.364-1.035-.88-1.367-1.551-.333-.67-.5-1.466-.5-2.387 0-.92.167-1.716.5-2.386.332-.67.788-1.188 1.367-1.551.58-.364 1.242-.546 1.986-.546.44 0 .854.064 1.24.192.39.128.74.316 1.053.563.312.244.574.542.784.895.21.349.355.748.434 1.197Zm4.23 6.136c-.59 0-1.11-.14-1.555-.422a2.866 2.866 0 0 1-1.04-1.18c-.247-.506-.37-1.096-.37-1.773 0-.681.123-1.277.37-1.785a2.86 2.86 0 0 1 1.04-1.185c.446-.281.964-.422 1.555-.422.59 0 1.108.14 1.551.422a2.82 2.82 0 0 1 1.04 1.185c.25.508.375 1.104.375 1.785 0 .676-.125 1.267-.375 1.773-.247.506-.594.9-1.04 1.18-.443.282-.96.422-1.551.422Zm0-.903c.449 0 .818-.115 1.108-.345.29-.23.504-.533.643-.908.14-.375.21-.781.21-1.219 0-.437-.07-.845-.21-1.223a2.061 2.061 0 0 0-.643-.916c-.29-.233-.66-.35-1.108-.35-.449 0-.818.117-1.108.35a2.06 2.06 0 0 0-.643.916 3.51 3.51 0 0 0-.21 1.223c0 .438.07.844.21 1.22.139.374.353.677.643.907.29.23.66.345 1.108.345Zm4.092-.903h1.074c.023.295.156.52.4.673.248.153.569.23.964.23.403 0 .748-.082 1.035-.247.287-.168.43-.438.43-.81 0-.219-.054-.409-.161-.57a1.066 1.066 0 0 0-.456-.384 1.638 1.638 0 0 0-.695-.137h-1.125v-.903h1.125c.4 0 .696-.091.886-.273a.898.898 0 0 0 .29-.682.877.877 0 0 0-.311-.703c-.207-.179-.502-.268-.882-.268-.384 0-.703.086-.959.26-.256.17-.39.39-.405.66h-1.057c.012-.352.12-.663.324-.933a2.03 2.03 0 0 1 .836-.64 2.957 2.957 0 0 1 1.21-.234c.46 0 .86.081 1.197.243.341.16.604.377.788.652a1.6 1.6 0 0 1 .282.93c0 .368-.104.667-.311.894-.208.227-.468.39-.78.486v.068c.247.017.462.097.643.239.185.139.328.322.43.55.103.224.154.472.154.745 0 .398-.106.744-.32 1.04-.213.292-.505.52-.877.682-.373.159-.797.238-1.275.238-.462 0-.877-.075-1.244-.226a2.158 2.158 0 0 1-.873-.634 1.58 1.58 0 0 1-.337-.947Zm5.64 3.545v-2.813h.545c.134-.139.249-.29.345-.451.097-.162.18-.354.252-.575.074-.225.136-.498.187-.819.052-.323.097-.714.137-1.172l.221-2.59h4.16v5.608h1.005v2.812h-1.006V58h-4.84v1.875h-1.006Zm1.687-2.813h3.154v-4.67h-2.216l-.17 1.653a18.479 18.479 0 0 1-.265 1.794c-.105.512-.273.92-.503 1.224Zm8.426 1.091a2.66 2.66 0 0 1-1.13-.234 1.94 1.94 0 0 1-.805-.686c-.198-.301-.298-.665-.298-1.091 0-.375.074-.679.222-.912.147-.236.345-.42.592-.554.247-.133.52-.233.818-.298a10 10 0 0 1 .908-.162c.398-.051.72-.09.967-.115.25-.029.432-.075.546-.14.116-.066.175-.18.175-.342v-.034c0-.42-.116-.747-.346-.98-.227-.233-.572-.35-1.035-.35-.48 0-.857.106-1.13.316-.272.21-.464.435-.575.673l-.954-.34c.17-.398.397-.708.681-.93.288-.224.6-.38.938-.468.341-.091.676-.137 1.006-.137.21 0 .451.026.724.077.276.048.541.15.797.303.259.153.473.384.644.694.17.31.255.725.255 1.245V58H69.65v-.886h-.052a1.772 1.772 0 0 1-.34.456c-.16.161-.371.3-.635.413-.265.114-.587.17-.968.17Zm.154-.903c.397 0 .733-.078 1.005-.234a1.595 1.595 0 0 0 .836-1.385v-.92c-.043.05-.137.097-.282.14-.142.04-.307.075-.494.106a22.303 22.303 0 0 1-.963.128c-.261.034-.506.09-.733.166a1.264 1.264 0 0 0-.546.337c-.136.148-.204.35-.204.605 0 .35.13.614.388.793.261.176.592.264.993.264Zm5.687-.733 3.154-5.063h1.159V58h-1.006v-5.063L73.667 58H72.49v-6.545h1.005v5.062Zm2.49-7.244h.937c0 .46-.16.836-.478 1.129-.318.293-.75.439-1.295.439-.537 0-.965-.146-1.283-.439-.315-.293-.473-.669-.473-1.13h.938c0 .222.06.417.183.584.125.168.337.252.635.252s.511-.084.64-.252a.923.923 0 0 0 .195-.583Zm2.774 3.119v-.938h5.319v.938H81.93V58h-1.006v-5.608H78.76Zm9.19 5.744c-.63 0-1.175-.139-1.632-.417a2.803 2.803 0 0 1-1.053-1.176c-.244-.506-.366-1.094-.366-1.765 0-.67.122-1.261.366-1.772a2.89 2.89 0 0 1 1.031-1.202c.444-.29.96-.435 1.552-.435.34 0 .677.057 1.01.17.332.114.635.3.907.555.273.253.49.588.652 1.005.162.418.243.932.243 1.543v.426h-5.045v-.87h4.022c0-.368-.073-.698-.221-.988a1.67 1.67 0 0 0-.622-.686 1.743 1.743 0 0 0-.946-.251c-.4 0-.748.1-1.04.298-.29.196-.513.452-.67.767a2.254 2.254 0 0 0-.234 1.014v.58c0 .494.086.913.256 1.257.174.34.413.6.72.78a2.11 2.11 0 0 0 1.07.264c.264 0 .503-.037.716-.11.216-.078.402-.191.558-.342.156-.153.277-.343.362-.57l.972.272c-.102.33-.274.62-.516.87-.241.246-.54.44-.895.579a3.318 3.318 0 0 1-1.197.204Zm10.274 0c-.614 0-1.142-.145-1.585-.434a2.834 2.834 0 0 1-1.023-1.198c-.239-.508-.358-1.09-.358-1.743 0-.664.122-1.251.367-1.76.247-.51.59-.91 1.03-1.197.444-.29.961-.435 1.552-.435.46 0 .875.086 1.244.256.37.17.672.41.908.716.236.307.382.665.439 1.074h-1.006a1.56 1.56 0 0 0-.511-.793c-.262-.233-.614-.35-1.057-.35-.392 0-.736.103-1.031.308a2 2 0 0 0-.686.856c-.162.367-.243.797-.243 1.291 0 .506.08.946.239 1.321.161.375.389.666.681.874.296.207.642.311 1.04.311.261 0 .499-.045.712-.136.213-.091.393-.222.54-.392.149-.17.254-.375.316-.614h1.006a2.336 2.336 0 0 1-.422 1.044 2.36 2.36 0 0 1-.882.733c-.364.179-.787.268-1.27.268Zm6.703 0c-.613 0-1.142-.145-1.585-.434a2.837 2.837 0 0 1-1.023-1.198c-.238-.508-.358-1.09-.358-1.743 0-.664.122-1.251.367-1.76.247-.51.591-.91 1.031-1.197.443-.29.96-.435 1.551-.435.46 0 .875.086 1.244.256.37.17.672.41.908.716.236.307.382.665.439 1.074h-1.006a1.555 1.555 0 0 0-.511-.793c-.261-.233-.614-.35-1.057-.35-.392 0-.736.103-1.031.308a1.998 1.998 0 0 0-.686.856c-.162.367-.243.797-.243 1.291 0 .506.08.946.239 1.321.162.375.389.666.681.874.296.207.642.311 1.04.311.262 0 .499-.045.712-.136a1.47 1.47 0 0 0 .541-.392c.148-.17.253-.375.315-.614h1.006a2.325 2.325 0 0 1-1.304 1.777c-.364.179-.787.268-1.27.268Zm4.914-4.312h1.875c.767 0 1.353.195 1.759.584.407.389.61.882.61 1.478 0 .392-.091.749-.273 1.07a1.983 1.983 0 0 1-.801.763c-.352.187-.784.281-1.295.281h-2.745v-6.545h1.006v5.608h1.739c.397 0 .724-.106.98-.316.255-.21.383-.48.383-.81 0-.346-.128-.629-.383-.847-.256-.22-.583-.329-.98-.329h-1.875v-.937ZM115.125 58v-6.545h1.005V58h-1.005Zm2.267 0v-.938h.238c.196 0 .36-.038.49-.115.131-.08.236-.217.316-.413.082-.199.145-.474.187-.827.046-.355.078-.806.098-1.355l.12-2.897h4.363V58h-1.005v-5.608h-2.404l-.102 2.335a10.61 10.61 0 0 1-.145 1.42 3.4 3.4 0 0 1-.328 1.022 1.5 1.5 0 0 1-.58.622c-.241.14-.544.209-.907.209h-.341Zm7.657 0v-6.545h1.006V54.3h.665l2.352-2.846h1.296l-2.643 3.153L130.402 58h-1.296l-2.148-2.761h-.903V58h-1.006Zm7.093 2.455a2.21 2.21 0 0 1-.733-.12l.256-.886c.244.062.46.085.648.068a.774.774 0 0 0 .498-.251c.148-.148.283-.388.405-.72l.188-.512-2.421-6.58h1.091l1.807 5.216h.068l1.807-5.215h1.091l-2.778 7.5a2.83 2.83 0 0 1-.465.839c-.185.225-.399.39-.643.499a1.989 1.989 0 0 1-.819.162Zm13.788-6.188v.938h-3.614v-.938h3.614Zm-3.375-2.813V58h-1.006v-6.545h1.006Zm4.142 0V58h-1.006v-6.545h1.006Zm3.763 6.7c-.415 0-.791-.079-1.129-.235a1.941 1.941 0 0 1-.806-.686c-.199-.301-.298-.665-.298-1.091 0-.375.074-.679.222-.912a1.56 1.56 0 0 1 .592-.554c.247-.133.52-.233.818-.298.301-.068.604-.122.908-.162.397-.051.72-.09.967-.115.25-.029.432-.075.545-.14.117-.066.175-.18.175-.342v-.034c0-.42-.115-.747-.345-.98-.227-.233-.572-.35-1.035-.35-.481 0-.857.106-1.13.316-.272.21-.464.435-.575.673l-.955-.34c.171-.398.398-.708.682-.93.287-.224.6-.38.938-.468.341-.091.676-.137 1.005-.137.211 0 .452.026.725.077.275.048.541.15.797.303.258.153.473.384.643.694.171.31.256.725.256 1.245V58h-1.006v-.886h-.051a1.768 1.768 0 0 1-.341.456 1.97 1.97 0 0 1-.635.413c-.264.114-.586.17-.967.17Zm.153-.904c.398 0 .733-.078 1.006-.234a1.59 1.59 0 0 0 .835-1.385v-.92c-.042.05-.136.097-.281.14-.142.04-.307.075-.494.106a22.082 22.082 0 0 1-.963.128c-.262.034-.506.09-.733.166a1.261 1.261 0 0 0-.546.337c-.136.148-.204.35-.204.605 0 .35.129.614.387.793.262.176.593.264.993.264Zm8.057.75v-6.545h2.677c.704 0 1.264.159 1.679.477.414.318.622.738.622 1.261 0 .398-.118.706-.354.925-.236.216-.538.362-.908.439.242.034.476.12.703.255.231.137.421.324.572.563.15.236.225.526.225.87 0 .335-.085.634-.255.899a1.756 1.756 0 0 1-.733.626c-.318.153-.699.23-1.142.23h-3.086Zm.955-.92h2.131c.346 0 .618-.083.814-.248.196-.164.294-.389.294-.673 0-.338-.098-.604-.294-.797-.196-.196-.468-.294-.814-.294h-2.131v2.012Zm0-2.881h1.722c.269 0 .501-.037.694-.11a.981.981 0 0 0 .443-.325.823.823 0 0 0 .158-.503.742.742 0 0 0-.345-.647c-.23-.16-.547-.239-.95-.239h-1.722v1.824Zm6.789 2.318 3.154-5.063h1.159V58h-1.006v-5.063L166.585 58h-1.176v-6.545h1.005v5.062Zm5.456 3.358v-2.813h.545c.134-.139.249-.29.346-.451.096-.162.18-.354.251-.575.074-.225.136-.498.188-.819.051-.323.096-.714.136-1.172l.222-2.59h4.159v5.608h1.005v2.812h-1.005V58h-4.841v1.875h-1.006Zm1.688-2.813h3.153v-4.67h-2.216l-.17 1.653a18.52 18.52 0 0 1-.265 1.794c-.105.512-.272.92-.502 1.224Zm9.243 1.074c-.63 0-1.174-.139-1.632-.417a2.805 2.805 0 0 1-1.052-1.176c-.244-.506-.367-1.094-.367-1.765 0-.67.123-1.261.367-1.772a2.892 2.892 0 0 1 1.031-1.202c.443-.29.96-.435 1.551-.435a3.1 3.1 0 0 1 1.01.17 2.5 2.5 0 0 1 .908.555c.273.253.49.588.652 1.005.162.418.243.932.243 1.543v.426h-5.046v-.87h4.023c0-.368-.074-.698-.222-.988a1.664 1.664 0 0 0-.622-.686 1.741 1.741 0 0 0-.946-.251c-.4 0-.747.1-1.04.298a1.974 1.974 0 0 0-.669.767 2.256 2.256 0 0 0-.234 1.014v.58c0 .494.085.913.256 1.257.173.34.413.6.72.78a2.11 2.11 0 0 0 1.069.264c.265 0 .503-.037.716-.11a1.54 1.54 0 0 0 .559-.342c.156-.153.277-.343.362-.57l.971.272c-.102.33-.274.62-.515.87a2.52 2.52 0 0 1-.895.579 3.318 3.318 0 0 1-1.198.204Zm6.9 0c-.591 0-1.11-.14-1.556-.422a2.868 2.868 0 0 1-1.04-1.18c-.247-.506-.37-1.096-.37-1.773 0-.681.123-1.277.37-1.785.25-.509.597-.904 1.04-1.185.446-.281.965-.422 1.556-.422.591 0 1.108.14 1.551.422.446.281.792.676 1.04 1.185.25.508.375 1.104.375 1.785 0 .676-.125 1.267-.375 1.773-.248.506-.594.9-1.04 1.18-.443.282-.96.422-1.551.422Zm0-.903c.449 0 .818-.115 1.108-.345.289-.23.504-.533.643-.908a3.48 3.48 0 0 0 .209-1.219c0-.437-.07-.845-.209-1.223a2.064 2.064 0 0 0-.643-.916c-.29-.233-.659-.35-1.108-.35-.449 0-.819.117-1.108.35-.29.233-.505.538-.644.916a3.515 3.515 0 0 0-.209 1.223c0 .438.07.844.209 1.22.139.374.354.677.644.907.289.23.659.345 1.108.345Zm4.501.767v-6.545h1.005V54.3h.665l2.352-2.846h1.296l-2.642 3.153L199.554 58h-1.295l-2.148-2.761h-.904V58h-1.005Zm8.835.136c-.591 0-1.11-.14-1.556-.422a2.868 2.868 0 0 1-1.04-1.18c-.247-.506-.37-1.096-.37-1.773 0-.681.123-1.277.37-1.785.25-.509.597-.904 1.04-1.185.446-.281.965-.422 1.556-.422.59 0 1.108.14 1.551.422.446.281.792.676 1.039 1.185.25.508.375 1.104.375 1.785 0 .676-.125 1.267-.375 1.773-.247.506-.593.9-1.039 1.18-.443.282-.961.422-1.551.422Zm0-.903c.448 0 .818-.115 1.108-.345.289-.23.504-.533.643-.908a3.48 3.48 0 0 0 .209-1.219c0-.437-.07-.845-.209-1.223a2.064 2.064 0 0 0-.643-.916c-.29-.233-.66-.35-1.108-.35-.449 0-.819.117-1.108.35-.29.233-.505.538-.644.916a3.515 3.515 0 0 0-.209 1.223c0 .438.07.844.209 1.22.139.374.354.677.644.907.289.23.659.345 1.108.345Zm8.881-2.966v.938h-3.613v-.938h3.613Zm-3.375-2.813V58h-1.005v-6.545h1.005Zm4.142 0V58h-1.005v-6.545h1.005Zm4.496 8.779v-10.96h1.006v10.96h-1.006Zm0-2.097c-.443 0-.846-.08-1.21-.238a2.71 2.71 0 0 1-.938-.686 3.155 3.155 0 0 1-.605-1.07 4.242 4.242 0 0 1-.213-1.38c0-.512.071-.975.213-1.39.142-.417.344-.775.605-1.074.262-.298.574-.527.938-.686a2.944 2.944 0 0 1 1.21-.243h.307v6.767h-.307Zm0-.903h.171v-4.96h-.171c-.335 0-.626.068-.873.204a1.746 1.746 0 0 0-.614.55c-.159.23-.279.494-.358.793a3.754 3.754 0 0 0-.115.941c0 .438.069.844.209 1.22.139.374.353.677.643.907.29.23.659.345 1.108.345Zm1.006.903h-.307V51.37h.307c.443 0 .846.081 1.21.243.364.16.676.388.938.686.261.299.463.657.605 1.074.142.415.213.878.213 1.39 0 .505-.071.965-.213 1.38a3.155 3.155 0 0 1-.605 1.07 2.71 2.71 0 0 1-.938.686c-.364.159-.767.238-1.21.238Zm0-.903c.338 0 .629-.065.873-.196.248-.134.451-.315.61-.545.162-.233.281-.498.358-.793.079-.298.119-.61.119-.938 0-.437-.07-.845-.209-1.223a2.056 2.056 0 0 0-.643-.916c-.29-.233-.659-.35-1.108-.35h-.171v4.961h.171Zm7.247.903c-.63 0-1.174-.139-1.632-.417a2.805 2.805 0 0 1-1.052-1.176c-.245-.506-.367-1.094-.367-1.765 0-.67.122-1.261.367-1.772a2.892 2.892 0 0 1 1.031-1.202c.443-.29.96-.435 1.551-.435a3.1 3.1 0 0 1 1.01.17c.332.114.635.3.908.555.272.253.49.588.652 1.005.162.418.243.932.243 1.543v.426h-5.046v-.87h4.023c0-.368-.074-.698-.222-.988a1.67 1.67 0 0 0-.622-.686 1.741 1.741 0 0 0-.946-.251c-.401 0-.747.1-1.04.298-.29.196-.513.452-.669.767a2.256 2.256 0 0 0-.234 1.014v.58c0 .494.085.913.256 1.257.173.34.413.6.72.78a2.11 2.11 0 0 0 1.069.264c.265 0 .503-.037.716-.11.216-.078.402-.191.558-.342a1.55 1.55 0 0 0 .363-.57l.971.272c-.102.33-.274.62-.515.87a2.52 2.52 0 0 1-.895.579 3.321 3.321 0 0 1-1.198.204Zm4.24 2.319v-9h.972v1.04h.119c.074-.114.176-.26.307-.435.134-.18.324-.338.571-.478.25-.142.588-.213 1.014-.213.551 0 1.037.138 1.458.414.42.275.748.666.984 1.172.236.505.354 1.102.354 1.79 0 .693-.118 1.293-.354 1.802-.236.506-.562.898-.98 1.176a2.563 2.563 0 0 1-1.445.413c-.42 0-.757-.07-1.01-.208a1.874 1.874 0 0 1-.583-.482 6.326 6.326 0 0 1-.316-.452h-.085v3.46h-1.006Zm.989-5.728c0 .495.072.93.217 1.309.145.374.357.669.635.882.279.21.62.315 1.023.315.42 0 .771-.11 1.053-.332.284-.225.497-.526.639-.904.145-.38.217-.804.217-1.27 0-.46-.071-.875-.213-1.244a1.922 1.922 0 0 0-.635-.882c-.281-.219-.635-.328-1.061-.328-.409 0-.753.103-1.031.31a1.863 1.863 0 0 0-.631.862c-.142.366-.213.794-.213 1.282Zm9.068 3.41c-.631 0-1.175-.14-1.632-.418a2.805 2.805 0 0 1-1.052-1.176c-.245-.506-.367-1.094-.367-1.765 0-.67.122-1.261.367-1.772.247-.514.59-.915 1.031-1.202.443-.29.96-.435 1.551-.435.341 0 .677.057 1.01.17.332.114.635.3.908.555.272.253.49.588.652 1.005.161.418.242.932.242 1.543v.426h-5.045v-.87h4.023c0-.368-.074-.698-.222-.988a1.67 1.67 0 0 0-.622-.686 1.741 1.741 0 0 0-.946-.251c-.401 0-.747.1-1.04.298-.29.196-.513.452-.669.767a2.256 2.256 0 0 0-.234 1.014v.58c0 .494.085.913.255 1.257.174.34.414.6.721.78.306.176.663.264 1.069.264.264 0 .503-.037.716-.11.216-.078.402-.191.558-.342a1.55 1.55 0 0 0 .363-.57l.971.272c-.102.33-.274.62-.515.87a2.52 2.52 0 0 1-.895.579 3.321 3.321 0 0 1-1.198.204Zm8.621-3.87v.938h-3.614v-.938h3.614Zm-3.375-2.813V58h-1.006v-6.545h1.006Zm4.142 0V58h-1.006v-6.545h1.006Zm6.984 0v5.608h.921v3.052h-1.006V58h-5.062v-6.545h1.005v5.608h3.137v-5.608h1.005Zm3.475 5.063 3.154-5.063h1.159V58h-1.006v-5.063L259.749 58h-1.176v-6.545h1.005v5.062Zm9.291-2.199v.938h-3.46v-.938h3.46Zm-2.608-2.863V58h-1.005v-6.545h1.005Zm4.62 6.681c-.591 0-1.11-.14-1.556-.422a2.866 2.866 0 0 1-1.039-1.18c-.248-.506-.371-1.096-.371-1.773 0-.681.123-1.277.371-1.785a2.86 2.86 0 0 1 1.039-1.185c.446-.281.965-.422 1.556-.422.591 0 1.108.14 1.551.422.446.281.792.676 1.04 1.185.25.508.375 1.104.375 1.785 0 .676-.125 1.267-.375 1.773-.248.506-.594.9-1.04 1.18-.443.282-.96.422-1.551.422Zm0-.903c.449 0 .818-.115 1.108-.345.289-.23.504-.533.643-.908a3.48 3.48 0 0 0 .209-1.219c0-.437-.07-.845-.209-1.223a2.064 2.064 0 0 0-.643-.916c-.29-.233-.659-.35-1.108-.35-.449 0-.818.117-1.108.35-.29.233-.505.538-.644.916a3.515 3.515 0 0 0-.209 1.223c0 .438.07.844.209 1.22.139.374.354.677.644.907.29.23.659.345 1.108.345Z"/><path fill="#000" d="M287.5 91.008a.75.75 0 0 0 .758.742l6.75-.073a.75.75 0 0 0-.017-1.5l-5.999.065-.065-6a.75.75 0 0 0-1.5.016l.073 6.75ZM288.25 73l-.46.592c4.501 3.497 5.916 6.014 5.686 8.334-.118 1.192-.674 2.44-1.666 3.854-.992 1.415-2.381 2.942-4.096 4.695l.536.525.536.525c1.724-1.762 3.186-3.363 4.253-4.884 1.066-1.521 1.777-3.016 1.93-4.567.313-3.165-1.712-6.134-6.259-9.666l-.46.592Z"/><rect width="262.5" height="27" x="24.25" y="97" fill="#F7F7F7" rx="12"/><path fill="#3D3E43" d="M65.057 115v-8.727h1.057v3.886h4.653v-3.886h1.057V115h-1.057v-3.903h-4.653V115h-1.057Zm10.672.153c-.414 0-.79-.078-1.129-.234a1.94 1.94 0 0 1-.805-.686c-.2-.301-.299-.665-.299-1.091 0-.375.074-.679.222-.912.148-.236.345-.42.592-.554.248-.133.52-.233.819-.298.3-.068.603-.122.907-.162.398-.051.72-.09.968-.115.25-.029.431-.075.545-.141.116-.065.175-.179.175-.341v-.034c0-.42-.115-.747-.345-.98-.228-.233-.573-.349-1.036-.349-.48 0-.856.105-1.13.315-.272.21-.464.435-.575.673l-.954-.341c.17-.397.398-.707.682-.929.287-.224.6-.38.937-.468a3.89 3.89 0 0 1 1.006-.137 4 4 0 0 1 .724.077c.276.048.542.149.797.303.259.153.473.385.644.694.17.31.255.725.255 1.245V115h-1.005v-.886h-.051a1.773 1.773 0 0 1-.341.456c-.16.162-.371.299-.635.413-.264.114-.587.17-.968.17Zm.154-.903c.398 0 .733-.078 1.005-.234.276-.157.483-.358.623-.605.142-.248.213-.508.213-.78v-.921c-.043.051-.137.098-.282.141-.142.04-.306.075-.494.106a21.062 21.062 0 0 1-.963.128 3.89 3.89 0 0 0-.733.166 1.261 1.261 0 0 0-.545.337c-.137.148-.205.349-.205.605 0 .35.13.614.388.793.261.176.592.264.993.264Zm7.341.886c-.614 0-1.142-.145-1.585-.434a2.834 2.834 0 0 1-1.023-1.198c-.239-.508-.358-1.089-.358-1.743 0-.664.122-1.251.367-1.76.247-.511.59-.91 1.03-1.197.444-.29.961-.435 1.552-.435.46 0 .875.086 1.244.256.37.17.672.409.908.716s.382.665.439 1.074h-1.006a1.557 1.557 0 0 0-.511-.793c-.262-.233-.614-.349-1.057-.349-.392 0-.736.102-1.031.307a1.995 1.995 0 0 0-.686.856c-.162.367-.243.797-.243 1.291 0 .506.08.946.239 1.321.161.375.389.666.681.874.296.207.642.311 1.04.311.261 0 .499-.045.712-.136.213-.091.393-.222.54-.392.149-.171.254-.375.316-.614h1.006a2.333 2.333 0 0 1-.422 1.044 2.358 2.358 0 0 1-.882.733c-.364.179-.787.268-1.27.268Zm3.528-5.744v-.937h5.319v.937h-2.148V115h-1.006v-5.608h-2.165Zm6.786 8.063v-9h.971v1.039h.12c.073-.113.176-.258.306-.434.134-.179.324-.338.571-.478.25-.142.588-.213 1.015-.213.55 0 1.037.138 1.457.414.42.275.749.666.984 1.172.236.505.354 1.102.354 1.789 0 .694-.118 1.294-.354 1.803-.235.506-.562.898-.98 1.176-.417.276-.899.413-1.444.413-.42 0-.757-.069-1.01-.208a1.873 1.873 0 0 1-.584-.482 6.293 6.293 0 0 1-.315-.452h-.086v3.461h-1.005Zm.988-5.728c0 .495.073.931.218 1.309.144.375.356.669.635.882.278.21.619.315 1.022.315.42 0 .772-.111 1.053-.332.284-.225.497-.526.639-.904.145-.381.217-.804.217-1.27 0-.46-.07-.875-.213-1.244a1.924 1.924 0 0 0-.635-.882c-.28-.219-.635-.328-1.06-.328-.41 0-.754.103-1.032.311a1.862 1.862 0 0 0-.63.861c-.143.366-.214.794-.214 1.282Zm8.983 3.409c-.591 0-1.109-.14-1.555-.422a2.863 2.863 0 0 1-1.04-1.18c-.247-.506-.371-1.097-.371-1.773 0-.681.124-1.277.371-1.785.25-.509.597-.904 1.04-1.185.446-.281.964-.422 1.555-.422s1.108.141 1.551.422c.446.281.793.676 1.04 1.185.25.508.375 1.104.375 1.785 0 .676-.125 1.267-.375 1.773a2.822 2.822 0 0 1-1.04 1.18c-.443.282-.96.422-1.551.422Zm0-.903c.449 0 .818-.115 1.108-.345.29-.23.504-.533.644-.908.139-.375.208-.781.208-1.219 0-.437-.069-.845-.208-1.223a2.071 2.071 0 0 0-.644-.916c-.29-.233-.659-.349-1.108-.349-.449 0-.818.116-1.108.349a2.07 2.07 0 0 0-.643.916 3.518 3.518 0 0 0-.209 1.223c0 .438.07.844.209 1.219.139.375.354.678.643.908.29.23.659.345 1.108.345Zm5.507-.716 3.153-5.062h1.159V115h-1.005v-5.062L109.186 115h-1.176v-6.545h1.006v5.062Zm2.489-7.244h.937c0 .46-.159.836-.477 1.129-.318.293-.75.439-1.296.439-.537 0-.964-.146-1.282-.439-.316-.293-.473-.669-.473-1.129h.937c0 .221.061.416.183.584.125.167.337.251.635.251.299 0 .512-.084.64-.251a.929.929 0 0 0 .196-.584Zm2.775 3.119v-.937h5.318v.937h-2.148V115h-1.005v-5.608h-2.165Zm9.189 5.744c-.63 0-1.174-.139-1.632-.417a2.808 2.808 0 0 1-1.052-1.176c-.245-.506-.367-1.094-.367-1.765 0-.67.122-1.261.367-1.772a2.888 2.888 0 0 1 1.031-1.202c.443-.29.96-.435 1.551-.435.341 0 .678.057 1.01.171.333.113.635.298.908.554.273.253.49.588.652 1.005.162.418.243.932.243 1.543v.426h-5.046v-.869h4.023c0-.369-.074-.699-.222-.989a1.67 1.67 0 0 0-.622-.686 1.746 1.746 0 0 0-.946-.251c-.4 0-.747.099-1.04.298a1.976 1.976 0 0 0-.669.767 2.254 2.254 0 0 0-.234 1.014v.58c0 .494.085.913.256 1.257.173.341.413.601.72.78a2.11 2.11 0 0 0 1.069.264c.265 0 .503-.037.716-.111a1.54 1.54 0 0 0 .559-.341c.156-.153.277-.344.362-.571l.971.273a2.158 2.158 0 0 1-.515.869 2.52 2.52 0 0 1-.895.58 3.326 3.326 0 0 1-1.198.204Zm7.616-.136v-6.545h2.676c.704 0 1.264.159 1.679.477.414.318.622.738.622 1.261 0 .398-.118.706-.354.925-.236.216-.538.362-.908.439.242.034.476.119.704.255.23.137.42.324.571.563.15.236.225.526.225.869 0 .336-.085.635-.255.899a1.756 1.756 0 0 1-.733.627c-.318.153-.699.23-1.142.23h-3.085Zm.954-.92h2.131c.346 0 .618-.083.814-.248.196-.164.294-.389.294-.673 0-.338-.098-.604-.294-.797-.196-.196-.468-.294-.814-.294h-2.131v2.012Zm0-2.881h1.722c.27 0 .501-.037.694-.111a.985.985 0 0 0 .443-.324.815.815 0 0 0 .158-.503.74.74 0 0 0-.345-.647c-.23-.159-.547-.239-.95-.239h-1.722v1.824Zm6.789 2.318 3.154-5.062h1.159V115h-1.006v-5.062L138.999 115h-1.176v-6.545h1.005v5.062Zm5.456 3.358v-2.813h.546c.133-.139.248-.289.345-.451.096-.162.18-.354.251-.575.074-.225.137-.498.188-.819.051-.324.096-.714.136-1.172l.222-2.59h4.159v5.607h1.005v2.813h-1.005V115h-4.841v1.875h-1.006Zm1.688-2.813h3.153v-4.67h-2.216l-.17 1.653a18.18 18.18 0 0 1-.265 1.794c-.105.512-.272.92-.502 1.223Zm9.244 1.074c-.631 0-1.175-.139-1.633-.417a2.808 2.808 0 0 1-1.052-1.176c-.244-.506-.367-1.094-.367-1.765 0-.67.123-1.261.367-1.772a2.888 2.888 0 0 1 1.031-1.202c.443-.29.96-.435 1.551-.435.341 0 .678.057 1.01.171.333.113.635.298.908.554.273.253.49.588.652 1.005.162.418.243.932.243 1.543v.426h-5.046v-.869h4.023c0-.369-.074-.699-.222-.989a1.663 1.663 0 0 0-.622-.686 1.746 1.746 0 0 0-.946-.251c-.4 0-.747.099-1.039.298a1.97 1.97 0 0 0-.67.767 2.254 2.254 0 0 0-.234 1.014v.58c0 .494.085.913.256 1.257.173.341.413.601.72.78.307.176.663.264 1.07.264.264 0 .502-.037.715-.111a1.54 1.54 0 0 0 .559-.341c.156-.153.277-.344.362-.571l.972.273a2.171 2.171 0 0 1-.516.869 2.52 2.52 0 0 1-.895.58 3.325 3.325 0 0 1-1.197.204Zm6.899 0c-.591 0-1.11-.14-1.556-.422a2.861 2.861 0 0 1-1.039-1.18c-.248-.506-.371-1.097-.371-1.773 0-.681.123-1.277.371-1.785.25-.509.596-.904 1.039-1.185.446-.281.965-.422 1.556-.422.591 0 1.108.141 1.551.422.446.281.792.676 1.04 1.185.25.508.375 1.104.375 1.785 0 .676-.125 1.267-.375 1.773a2.829 2.829 0 0 1-1.04 1.18c-.443.282-.96.422-1.551.422Zm0-.903c.449 0 .818-.115 1.108-.345.289-.23.504-.533.643-.908a3.48 3.48 0 0 0 .209-1.219c0-.437-.07-.845-.209-1.223a2.07 2.07 0 0 0-.643-.916c-.29-.233-.659-.349-1.108-.349-.449 0-.818.116-1.108.349-.29.233-.505.539-.644.916a3.518 3.518 0 0 0-.209 1.223c0 .438.07.844.209 1.219.139.375.354.678.644.908.29.23.659.345 1.108.345Zm4.501.767v-6.545h1.005v2.846h.665l2.352-2.846h1.296l-2.642 3.153 2.676 3.392h-1.295l-2.148-2.761h-.904V115h-1.005Zm8.835.136c-.591 0-1.11-.14-1.556-.422a2.863 2.863 0 0 1-1.04-1.18c-.247-.506-.37-1.097-.37-1.773 0-.681.123-1.277.37-1.785.25-.509.597-.904 1.04-1.185.446-.281.965-.422 1.556-.422.591 0 1.108.141 1.551.422.446.281.792.676 1.04 1.185.25.508.375 1.104.375 1.785 0 .676-.125 1.267-.375 1.773a2.829 2.829 0 0 1-1.04 1.18c-.443.282-.96.422-1.551.422Zm0-.903c.449 0 .818-.115 1.108-.345.289-.23.504-.533.643-.908a3.48 3.48 0 0 0 .209-1.219c0-.437-.07-.845-.209-1.223a2.07 2.07 0 0 0-.643-.916c-.29-.233-.659-.349-1.108-.349-.449 0-.819.116-1.108.349-.29.233-.505.539-.644.916a3.518 3.518 0 0 0-.209 1.223c0 .438.07.844.209 1.219.139.375.354.678.644.908.289.23.659.345 1.108.345Zm8.881-2.966v.938h-3.613v-.938h3.613Zm-3.375-2.812V115h-1.005v-6.545h1.005Zm4.142 0V115h-1.005v-6.545h1.005Zm4.496 8.778v-10.96h1.006v10.96h-1.006Zm0-2.097a2.99 2.99 0 0 1-1.21-.238 2.718 2.718 0 0 1-.938-.686 3.162 3.162 0 0 1-.605-1.07 4.244 4.244 0 0 1-.213-1.381c0-.511.071-.974.213-1.389.142-.417.344-.775.605-1.074.262-.298.574-.527.938-.686a2.942 2.942 0 0 1 1.21-.243h.307v6.767h-.307Zm0-.903h.171v-4.96h-.171c-.335 0-.626.068-.873.204a1.752 1.752 0 0 0-.614.55 2.53 2.53 0 0 0-.358.793 3.75 3.75 0 0 0-.115.941c0 .438.07.844.209 1.219.139.375.353.678.643.908.29.23.659.345 1.108.345Zm1.006.903h-.307v-6.767h.307c.443 0 .846.081 1.21.243.364.159.676.388.938.686.261.299.463.657.605 1.074.142.415.213.878.213 1.389 0 .506-.071.966-.213 1.381a3.162 3.162 0 0 1-.605 1.07 2.718 2.718 0 0 1-.938.686 2.99 2.99 0 0 1-1.21.238Zm0-.903c.338 0 .629-.065.873-.196.248-.134.451-.315.61-.546.162-.232.281-.497.358-.792.079-.298.119-.611.119-.938 0-.437-.07-.845-.209-1.223a2.061 2.061 0 0 0-.643-.916c-.29-.233-.659-.349-1.108-.349h-.171v4.96h.171Zm7.247.903c-.63 0-1.174-.139-1.632-.417a2.808 2.808 0 0 1-1.052-1.176c-.245-.506-.367-1.094-.367-1.765 0-.67.122-1.261.367-1.772a2.888 2.888 0 0 1 1.031-1.202c.443-.29.96-.435 1.551-.435.341 0 .678.057 1.01.171.332.113.635.298.908.554.272.253.49.588.652 1.005.162.418.243.932.243 1.543v.426h-5.046v-.869h4.023c0-.369-.074-.699-.222-.989a1.67 1.67 0 0 0-.622-.686 1.746 1.746 0 0 0-.946-.251c-.4 0-.747.099-1.04.298a1.976 1.976 0 0 0-.669.767 2.254 2.254 0 0 0-.234 1.014v.58c0 .494.085.913.256 1.257.173.341.413.601.72.78a2.11 2.11 0 0 0 1.069.264c.265 0 .503-.037.716-.111a1.54 1.54 0 0 0 .559-.341c.156-.153.277-.344.362-.571l.971.273a2.158 2.158 0 0 1-.515.869 2.52 2.52 0 0 1-.895.58 3.326 3.326 0 0 1-1.198.204Zm4.24 2.319v-9h.972v1.039h.119a9.15 9.15 0 0 1 .307-.434c.134-.179.324-.338.571-.478.25-.142.588-.213 1.014-.213.552 0 1.037.138 1.458.414.42.275.748.666.984 1.172.236.505.354 1.102.354 1.789 0 .694-.118 1.294-.354 1.803-.236.506-.562.898-.98 1.176-.418.276-.899.413-1.445.413-.42 0-.757-.069-1.01-.208a1.874 1.874 0 0 1-.583-.482 6.21 6.21 0 0 1-.316-.452h-.085v3.461h-1.006Zm.989-5.728c0 .495.073.931.217 1.309.145.375.357.669.635.882.279.21.62.315 1.023.315.421 0 .771-.111 1.053-.332.284-.225.497-.526.639-.904.145-.381.217-.804.217-1.27 0-.46-.071-.875-.213-1.244a1.923 1.923 0 0 0-.635-.882c-.281-.219-.635-.328-1.061-.328-.409 0-.753.103-1.031.311-.279.204-.489.491-.631.861-.142.366-.213.794-.213 1.282Zm9.068 3.409c-.63 0-1.174-.139-1.632-.417a2.808 2.808 0 0 1-1.052-1.176c-.245-.506-.367-1.094-.367-1.765 0-.67.122-1.261.367-1.772.247-.515.59-.915 1.031-1.202.443-.29.96-.435 1.551-.435.341 0 .678.057 1.01.171.332.113.635.298.908.554.272.253.49.588.652 1.005.162.418.242.932.242 1.543v.426h-5.045v-.869h4.023c0-.369-.074-.699-.222-.989a1.67 1.67 0 0 0-.622-.686 1.746 1.746 0 0 0-.946-.251c-.401 0-.747.099-1.04.298a1.96 1.96 0 0 0-.669.767 2.254 2.254 0 0 0-.234 1.014v.58c0 .494.085.913.255 1.257.174.341.414.601.721.78.306.176.663.264 1.069.264.264 0 .503-.037.716-.111.216-.077.402-.19.558-.341a1.55 1.55 0 0 0 .363-.571l.971.273a2.158 2.158 0 0 1-.515.869 2.52 2.52 0 0 1-.895.58 3.33 3.33 0 0 1-1.198.204Zm8.621-3.869v.938h-3.614v-.938h3.614Zm-3.375-2.812V115h-1.006v-6.545h1.006Zm4.142 0V115h-1.006v-6.545h1.006Zm6.984 0v5.607h.921v3.052h-1.006V115h-5.062v-6.545h1.005v5.607h3.137v-5.607h1.005Zm3.476 5.062 3.153-5.062h1.159V115h-1.006v-5.062L232.163 115h-1.176v-6.545h1.006v5.062Zm9.29-2.199v.938h-3.46v-.938h3.46Zm-2.608-2.863V115h-1.005v-6.545h1.005Zm4.62 6.681c-.591 0-1.11-.14-1.556-.422a2.861 2.861 0 0 1-1.039-1.18c-.248-.506-.371-1.097-.371-1.773 0-.681.123-1.277.371-1.785.25-.509.596-.904 1.039-1.185.446-.281.965-.422 1.556-.422.591 0 1.108.141 1.551.422.446.281.792.676 1.04 1.185.25.508.375 1.104.375 1.785 0 .676-.125 1.267-.375 1.773a2.829 2.829 0 0 1-1.04 1.18c-.443.282-.96.422-1.551.422Zm0-.903c.449 0 .818-.115 1.108-.345.289-.23.504-.533.643-.908a3.48 3.48 0 0 0 .209-1.219c0-.437-.07-.845-.209-1.223a2.07 2.07 0 0 0-.643-.916c-.29-.233-.659-.349-1.108-.349-.449 0-.818.116-1.108.349-.29.233-.504.539-.644.916a3.518 3.518 0 0 0-.208 1.223c0 .438.069.844.208 1.219.14.375.354.678.644.908.29.23.659.345 1.108.345Z"/><path fill="#000" d="M23.5 148.008a.75.75 0 0 1-.758.742l-6.75-.073a.75.75 0 0 1 .017-1.5l6 .065.064-6a.75.75 0 0 1 1.5.017l-.073 6.749ZM22.75 130l.46.592c-4.501 3.497-5.916 6.014-5.686 8.334.118 1.192.674 2.439 1.666 3.854.992 1.415 2.38 2.942 4.096 4.695l-.536.525-.536.525c-1.724-1.762-3.186-3.363-4.252-4.884-1.067-1.521-1.778-3.016-1.931-4.567-.313-3.165 1.712-6.134 6.259-9.666l.46.592Z"/><rect width="262.5" height="27" x="24.25" y="154" fill="#F7F7F7" rx="12"/><path fill="#3D3E43" d="M83.92 167.636c0 .921-.166 1.716-.498 2.387-.332.67-.788 1.187-1.368 1.551-.58.364-1.242.545-1.986.545s-1.406-.181-1.986-.545c-.58-.364-1.035-.881-1.367-1.551-.333-.671-.5-1.466-.5-2.387 0-.92.167-1.716.5-2.386.332-.67.788-1.188 1.367-1.551.58-.364 1.242-.546 1.986-.546.745 0 1.406.182 1.986.546.58.363 1.035.881 1.368 1.551.332.67.499 1.466.499 2.386Zm-1.022 0c0-.755-.127-1.393-.38-1.913-.25-.52-.589-.913-1.018-1.18a2.641 2.641 0 0 0-1.432-.401c-.528 0-1.007.134-1.436.401-.426.267-.766.66-1.018 1.18-.25.52-.375 1.158-.375 1.913 0 .756.125 1.394.375 1.914.252.52.592.913 1.018 1.18.43.267.908.401 1.436.401.529 0 1.006-.134 1.432-.401.429-.267.769-.66 1.019-1.18.252-.52.379-1.158.379-1.914Zm2.288-1.244v-.937h5.318v.937h-2.148V172h-1.005v-5.608h-2.165ZM91.971 172v-6.545h5.148V172h-1.006v-5.608h-3.136V172H91.97Zm6.985 2.455v-9h.971v1.039h.12c.073-.113.176-.258.306-.434.134-.179.324-.338.571-.478.25-.142.588-.213 1.015-.213.551 0 1.036.138 1.457.414.42.275.749.666.984 1.172.236.505.354 1.102.354 1.789 0 .694-.118 1.294-.354 1.803-.235.506-.562.898-.98 1.176-.417.276-.899.413-1.444.413-.421 0-.757-.069-1.01-.208a1.867 1.867 0 0 1-.584-.482 5.85 5.85 0 0 1-.315-.452h-.086v3.461h-1.005Zm.988-5.728c0 .495.073.931.218 1.309.144.375.356.669.635.882.278.21.619.315 1.022.315.421 0 .772-.111 1.053-.332.284-.225.497-.526.639-.904.145-.381.217-.804.217-1.27 0-.46-.071-.875-.213-1.244a1.923 1.923 0 0 0-.635-.882c-.281-.219-.635-.328-1.061-.328-.409 0-.753.103-1.031.311a1.864 1.864 0 0 0-.631.861c-.142.366-.213.794-.213 1.282Zm8.25 3.426c-.415 0-.791-.078-1.129-.234a1.933 1.933 0 0 1-.805-.686c-.199-.301-.299-.665-.299-1.091 0-.375.074-.679.222-.912.148-.236.345-.42.592-.554a3.12 3.12 0 0 1 .818-.298c.302-.068.604-.122.908-.162.398-.051.72-.09.967-.115.25-.029.432-.075.546-.141.116-.065.175-.179.175-.341v-.034c0-.42-.115-.747-.346-.98-.227-.233-.572-.349-1.035-.349-.48 0-.857.105-1.129.315-.273.21-.465.435-.576.673l-.954-.341c.17-.397.398-.707.682-.929.287-.224.599-.38.937-.468a3.89 3.89 0 0 1 1.006-.137 4 4 0 0 1 .724.077c.276.048.541.149.797.303.259.153.473.385.644.694.17.31.255.725.255 1.245V172h-1.005v-.886h-.052a1.764 1.764 0 0 1-.34.456c-.16.162-.371.299-.635.413-.265.114-.587.17-.968.17Zm.154-.903c.397 0 .733-.078 1.005-.234a1.597 1.597 0 0 0 .836-1.385v-.921c-.043.051-.137.098-.282.141a4.65 4.65 0 0 1-.494.106 21.302 21.302 0 0 1-.963.128c-.261.034-.506.09-.733.166a1.261 1.261 0 0 0-.545.337c-.137.148-.205.349-.205.605 0 .35.129.614.388.793.261.176.592.264.993.264Zm4.682.75v-6.545h2.676c.705 0 1.264.159 1.679.477.415.318.622.738.622 1.261 0 .398-.118.706-.354.925-.235.216-.538.362-.907.439.241.034.476.119.703.255.23.137.42.324.571.563.15.236.226.526.226.869 0 .336-.085.635-.256.899a1.75 1.75 0 0 1-.733.627c-.318.153-.699.23-1.142.23h-3.085Zm.954-.92h2.131c.347 0 .618-.083.814-.248.196-.164.294-.389.294-.673 0-.338-.098-.604-.294-.797-.196-.196-.467-.294-.814-.294h-2.131v2.012Zm0-2.881h1.722c.27 0 .501-.037.695-.111a.99.99 0 0 0 .443-.324.82.82 0 0 0 .157-.503.74.74 0 0 0-.345-.647c-.23-.159-.547-.239-.95-.239h-1.722v1.824Zm6.653-.375h1.875c.767 0 1.354.194 1.76.584.407.389.61.882.61 1.478 0 .392-.091.749-.273 1.07a1.988 1.988 0 0 1-.801.763c-.352.187-.784.281-1.296.281h-2.744v-6.545h1.006v5.607h1.738c.398 0 .725-.105.981-.315.255-.21.383-.48.383-.809 0-.347-.128-.63-.383-.849-.256-.218-.583-.328-.981-.328h-1.875v-.937Zm4.721-1.432v-.937h5.318v.937h-2.148V172h-1.005v-5.608h-2.165Zm9.19 5.744c-.631 0-1.175-.139-1.633-.417a2.808 2.808 0 0 1-1.052-1.176c-.244-.506-.367-1.094-.367-1.765 0-.67.123-1.261.367-1.772a2.888 2.888 0 0 1 1.031-1.202c.443-.29.96-.435 1.551-.435.341 0 .678.057 1.01.171.333.113.635.298.908.554.273.253.49.588.652 1.005.162.418.243.932.243 1.543v.426h-5.046v-.869h4.023c0-.369-.074-.699-.222-.989a1.663 1.663 0 0 0-.622-.686 1.746 1.746 0 0 0-.946-.251c-.4 0-.747.099-1.039.298a1.96 1.96 0 0 0-.669.767 2.242 2.242 0 0 0-.235 1.014v.58c0 .494.085.913.256 1.257.173.341.413.601.72.78.307.176.663.264 1.07.264.264 0 .502-.037.715-.111a1.54 1.54 0 0 0 .559-.341c.156-.153.277-.344.362-.571l.972.273a2.171 2.171 0 0 1-.516.869 2.52 2.52 0 0 1-.895.58 3.325 3.325 0 0 1-1.197.204Zm10.274 0c-.614 0-1.142-.145-1.585-.434a2.823 2.823 0 0 1-1.023-1.198c-.239-.508-.358-1.089-.358-1.743 0-.664.122-1.251.366-1.76.247-.511.591-.91 1.032-1.197.443-.29.96-.435 1.551-.435.46 0 .875.086 1.244.256s.672.409.908.716c.235.307.382.665.439 1.074h-1.006a1.56 1.56 0 0 0-.511-.793c-.262-.233-.614-.349-1.057-.349-.392 0-.736.102-1.032.307a2 2 0 0 0-.686.856c-.162.367-.242.797-.242 1.291 0 .506.079.946.238 1.321.162.375.389.666.682.874.295.207.642.311 1.04.311.261 0 .498-.045.711-.136a1.48 1.48 0 0 0 .542-.392 1.52 1.52 0 0 0 .315-.614h1.006a2.34 2.34 0 0 1-.422 1.044 2.364 2.364 0 0 1-.882.733c-.364.179-.787.268-1.27.268Zm6.703 0c-.614 0-1.142-.145-1.585-.434a2.83 2.83 0 0 1-1.023-1.198c-.239-.508-.358-1.089-.358-1.743 0-.664.122-1.251.366-1.76a2.9 2.9 0 0 1 1.032-1.197c.443-.29.96-.435 1.551-.435.46 0 .875.086 1.244.256s.672.409.908.716.382.665.439 1.074h-1.006a1.56 1.56 0 0 0-.511-.793c-.262-.233-.614-.349-1.057-.349-.392 0-.736.102-1.031.307a1.986 1.986 0 0 0-.686.856c-.162.367-.243.797-.243 1.291 0 .506.079.946.238 1.321.162.375.389.666.682.874.296.207.642.311 1.04.311a1.8 1.8 0 0 0 .712-.136c.213-.091.393-.222.541-.392.147-.171.253-.375.315-.614h1.006a2.34 2.34 0 0 1-.422 1.044 2.364 2.364 0 0 1-.882.733c-.364.179-.787.268-1.27.268Zm4.913-4.312h1.875c.767 0 1.354.194 1.76.584.406.389.61.882.61 1.478 0 .392-.091.749-.273 1.07a1.988 1.988 0 0 1-.801.763c-.353.187-.784.281-1.296.281h-2.744v-6.545h1.006v5.607h1.738c.398 0 .725-.105.98-.315a1 1 0 0 0 .384-.809c0-.347-.128-.63-.384-.849-.255-.218-.582-.328-.98-.328h-1.875v-.937Zm5.284 4.176v-6.545h1.006V172h-1.006Zm2.267 0v-.938h.239a.953.953 0 0 0 .49-.115c.131-.079.236-.217.315-.413.083-.199.145-.474.188-.827.045-.355.078-.806.098-1.355l.119-2.897h4.364V172h-1.006v-5.608h-2.403l-.103 2.335a10.62 10.62 0 0 1-.144 1.419 3.399 3.399 0 0 1-.329 1.023 1.494 1.494 0 0 1-.579.622c-.242.139-.544.209-.908.209h-.341Zm7.658 0v-6.545h1.006v2.846h.664l2.353-2.846h1.295l-2.642 3.153 2.676 3.392h-1.295l-2.148-2.761h-.903V172h-1.006Zm7.093 2.455c-.17 0-.322-.015-.456-.043a1.206 1.206 0 0 1-.277-.077l.256-.886c.244.062.46.085.648.068a.778.778 0 0 0 .498-.251c.148-.148.283-.388.405-.721l.187-.511-2.42-6.579h1.091l1.807 5.215h.068l1.807-5.215h1.091l-2.779 7.5c-.125.338-.28.617-.464.839a1.746 1.746 0 0 1-.644.499 1.98 1.98 0 0 1-.818.162Zm10.055 0c-.171 0-.323-.015-.456-.043a1.19 1.19 0 0 1-.277-.077l.255-.886c.245.062.461.085.648.068a.778.778 0 0 0 .499-.251c.148-.148.282-.388.405-.721l.187-.511-2.42-6.579h1.091l1.806 5.215h.069l1.806-5.215h1.091l-2.778 7.5c-.125.338-.28.617-.465.839a1.743 1.743 0 0 1-.643.499 1.984 1.984 0 0 1-.818.162Zm10.878-9V172h-1.006v-6.545h1.006Zm-.392 3.119v.937a8.829 8.829 0 0 1-.678.226c-.224.063-.46.112-.707.149a5.992 5.992 0 0 1-.814.052c-.741 0-1.337-.201-1.785-.601-.447-.401-.67-1.002-.67-1.803v-2.096h1.006v2.096c0 .335.064.611.192.827.128.216.301.376.52.481.219.105.464.158.737.158.426 0 .811-.038 1.155-.115.346-.08.694-.183 1.044-.311Zm4.981 3.562c-.63 0-1.174-.139-1.632-.417a2.808 2.808 0 0 1-1.052-1.176c-.245-.506-.367-1.094-.367-1.765 0-.67.122-1.261.367-1.772a2.888 2.888 0 0 1 1.031-1.202c.443-.29.96-.435 1.551-.435.341 0 .678.057 1.01.171.332.113.635.298.908.554.272.253.49.588.652 1.005.162.418.243.932.243 1.543v.426h-5.046v-.869h4.023c0-.369-.074-.699-.222-.989a1.67 1.67 0 0 0-.622-.686 1.746 1.746 0 0 0-.946-.251c-.4 0-.747.099-1.04.298a1.976 1.976 0 0 0-.669.767 2.254 2.254 0 0 0-.234 1.014v.58c0 .494.085.913.256 1.257.173.341.413.601.72.78a2.11 2.11 0 0 0 1.069.264c.265 0 .503-.037.716-.111a1.54 1.54 0 0 0 .559-.341c.156-.153.277-.344.362-.571l.971.273a2.158 2.158 0 0 1-.515.869 2.52 2.52 0 0 1-.895.58 3.326 3.326 0 0 1-1.198.204Zm8.621-3.869v.938h-3.613v-.938h3.613Zm-3.375-2.812V172h-1.006v-6.545h1.006Zm4.142 0V172h-1.005v-6.545h1.005Zm2.843 5.062 3.153-5.062h1.159V172h-1.006v-5.062L216.663 172h-1.176v-6.545h1.006v5.062Zm6.154 1.483v-6.545h1.006v2.846h.664l2.353-2.846h1.295l-2.642 3.153 2.676 3.392h-1.295l-2.148-2.761h-.903V172h-1.006Zm7.093 2.455c-.17 0-.322-.015-.456-.043a1.206 1.206 0 0 1-.277-.077l.256-.886c.244.062.46.085.648.068a.778.778 0 0 0 .498-.251c.148-.148.283-.388.405-.721l.187-.511-2.42-6.579h1.091l1.807 5.215h.068l1.807-5.215h1.091l-2.779 7.5c-.125.338-.28.617-.464.839a1.746 1.746 0 0 1-.644.499 1.98 1.98 0 0 1-.818.162Z"/><path fill="#000" d="M287.5 205.008a.751.751 0 0 0 .758.742l6.75-.073a.751.751 0 0 0-.017-1.5l-5.999.065-.065-6a.751.751 0 0 0-1.5.017l.073 6.749Zm.75-18.008-.46.592c4.501 3.497 5.916 6.014 5.686 8.334-.118 1.192-.674 2.439-1.666 3.854-.992 1.415-2.381 2.942-4.096 4.695l.536.525.536.525c1.724-1.762 3.186-3.363 4.253-4.884 1.066-1.521 1.777-3.016 1.93-4.567.313-3.165-1.712-6.134-6.259-9.666l-.46.592Z"/><rect width="262.5" height="27" x="24.25" y="211" fill="#F7F7F7" rx="12"/><path fill="#3D3E43" d="M48.085 220.273V229h-1.057v-7.79h-4.397V229h-1.057v-8.727h6.511Zm2.643 11.182a2.23 2.23 0 0 1-.456-.043 1.198 1.198 0 0 1-.277-.077l.256-.886c.244.062.46.085.648.068a.778.778 0 0 0 .498-.251c.148-.148.283-.388.405-.721l.188-.511-2.42-6.579h1.09l1.807 5.215h.068l1.807-5.215h1.09l-2.778 7.5c-.125.338-.28.617-.464.839-.185.224-.4.391-.643.499a1.983 1.983 0 0 1-.819.162Zm8.457-2.319c-.614 0-1.142-.145-1.585-.434a2.832 2.832 0 0 1-1.023-1.198c-.239-.508-.358-1.089-.358-1.743 0-.664.122-1.251.367-1.76.247-.511.59-.91 1.03-1.197.444-.29.961-.435 1.552-.435.46 0 .875.086 1.244.256.37.17.672.409.908.716s.382.665.439 1.074h-1.006a1.557 1.557 0 0 0-.511-.793c-.261-.233-.614-.349-1.057-.349-.392 0-.736.102-1.031.307a1.995 1.995 0 0 0-.686.856c-.162.367-.243.797-.243 1.291 0 .506.08.946.238 1.321.162.375.39.666.682.874.296.207.642.311 1.04.311.261 0 .499-.045.712-.136.213-.091.393-.222.54-.392.149-.171.254-.375.316-.614h1.006a2.333 2.333 0 0 1-.422 1.044 2.357 2.357 0 0 1-.882.733c-.364.179-.787.268-1.27.268Zm3.528-5.744v-.937h5.319v.937h-2.148V229h-1.006v-5.608h-2.165Zm7.791 4.125 3.154-5.062h1.159V229H73.81v-5.062L70.675 229h-1.176v-6.545h1.005v5.062Zm5.264-4.125v-.937h5.318v.937H78.94V229h-1.006v-5.608h-2.165Zm9.19 5.744c-.63 0-1.175-.139-1.632-.417a2.806 2.806 0 0 1-1.053-1.176c-.244-.506-.366-1.094-.366-1.765 0-.67.122-1.261.366-1.772.247-.515.591-.915 1.031-1.202.444-.29.96-.435 1.552-.435.34 0 .677.057 1.01.171.332.113.634.298.907.554.273.253.49.588.652 1.005.162.418.243.932.243 1.543v.426h-5.046v-.869h4.023a2.15 2.15 0 0 0-.221-.989 1.67 1.67 0 0 0-.623-.686 1.748 1.748 0 0 0-.945-.251c-.401 0-.748.099-1.04.298-.29.196-.513.452-.67.767a2.25 2.25 0 0 0-.234 1.014v.58c0 .494.085.913.256 1.257.173.341.413.601.72.78.307.176.663.264 1.07.264.264 0 .503-.037.716-.111.216-.077.402-.19.558-.341.156-.153.277-.344.362-.571l.972.273a2.158 2.158 0 0 1-.516.869c-.241.247-.54.441-.895.58a3.327 3.327 0 0 1-1.197.204Zm8.263 2.319a2.23 2.23 0 0 1-.456-.043 1.198 1.198 0 0 1-.277-.077l.255-.886c.245.062.46.085.648.068a.778.778 0 0 0 .499-.251c.147-.148.282-.388.404-.721l.188-.511-2.42-6.579h1.09l1.807 5.215h.068l1.807-5.215h1.091l-2.778 7.5c-.125.338-.28.617-.465.839-.184.224-.399.391-.643.499a1.983 1.983 0 0 1-.819.162Zm10.878-9V229h-1.006v-6.545h1.006Zm-.392 3.119v.937a8.976 8.976 0 0 1-.678.226c-.224.063-.46.112-.707.149a5.992 5.992 0 0 1-.814.052c-.742 0-1.337-.201-1.786-.601-.446-.401-.669-1.002-.669-1.803v-2.096h1.006v2.096c0 .335.064.611.192.827.128.216.301.376.52.481.218.105.464.158.737.158.426 0 .811-.038 1.155-.115.346-.08.694-.183 1.044-.311Zm4.981 3.562c-.63 0-1.175-.139-1.632-.417a2.808 2.808 0 0 1-1.052-1.176c-.245-.506-.367-1.094-.367-1.765 0-.67.122-1.261.367-1.772.247-.515.59-.915 1.031-1.202.443-.29.96-.435 1.551-.435.341 0 .677.057 1.01.171.332.113.635.298.908.554.272.253.49.588.652 1.005.161.418.242.932.242 1.543v.426h-5.045v-.869h4.023c0-.369-.074-.699-.222-.989a1.67 1.67 0 0 0-.622-.686 1.746 1.746 0 0 0-.946-.251c-.401 0-.747.099-1.04.298a1.96 1.96 0 0 0-.669.767 2.254 2.254 0 0 0-.234 1.014v.58c0 .494.085.913.255 1.257.174.341.414.601.721.78.306.176.663.264 1.069.264.264 0 .503-.037.716-.111.216-.077.402-.19.558-.341a1.55 1.55 0 0 0 .363-.571l.971.273a2.158 2.158 0 0 1-.515.869 2.52 2.52 0 0 1-.895.58 3.33 3.33 0 0 1-1.198.204Zm8.621-3.869v.938h-3.614v-.938h3.614Zm-3.375-2.812V229h-1.006v-6.545h1.006Zm4.142 0V229h-1.006v-6.545h1.006Zm2.842 5.062 3.154-5.062h1.159V229h-1.006v-5.062L121.089 229h-1.176v-6.545h1.005v5.062Zm6.155 1.483v-6.545h1.005v2.846h.665l2.353-2.846h1.295l-2.642 3.153 2.676 3.392h-1.295l-2.148-2.761h-.904V229h-1.005Zm8.371.153c-.415 0-.791-.078-1.129-.234a1.933 1.933 0 0 1-.805-.686c-.199-.301-.299-.665-.299-1.091 0-.375.074-.679.222-.912.148-.236.345-.42.592-.554a3.12 3.12 0 0 1 .818-.298c.302-.068.604-.122.908-.162.398-.051.72-.09.967-.115.25-.029.432-.075.546-.141.116-.065.175-.179.175-.341v-.034c0-.42-.115-.747-.346-.98-.227-.233-.572-.349-1.035-.349-.48 0-.857.105-1.129.315-.273.21-.465.435-.576.673l-.954-.341c.17-.397.398-.707.682-.929.287-.224.599-.38.937-.468a3.89 3.89 0 0 1 1.006-.137 4 4 0 0 1 .724.077c.276.048.541.149.797.303.259.153.473.385.644.694.17.31.255.725.255 1.245V229h-1.005v-.886h-.052a1.764 1.764 0 0 1-.34.456c-.16.162-.371.299-.635.413-.265.114-.587.17-.968.17Zm.154-.903c.397 0 .733-.078 1.005-.234a1.597 1.597 0 0 0 .836-1.385v-.921c-.043.051-.137.098-.282.141a4.65 4.65 0 0 1-.494.106 21.302 21.302 0 0 1-.963.128c-.261.034-.506.09-.733.166a1.261 1.261 0 0 0-.545.337c-.137.148-.205.349-.205.605 0 .35.129.614.388.793.261.176.592.264.993.264Zm8.057.75v-6.545h2.676c.705 0 1.264.159 1.679.477.415.318.622.738.622 1.261 0 .398-.118.706-.354.925-.235.216-.538.362-.907.439.241.034.476.119.703.255.23.137.42.324.571.563.15.236.226.526.226.869 0 .336-.085.635-.256.899a1.75 1.75 0 0 1-.733.627c-.318.153-.699.23-1.142.23h-3.085Zm.954-.92h2.131c.347 0 .618-.083.814-.248.196-.164.294-.389.294-.673 0-.338-.098-.604-.294-.797-.196-.196-.467-.294-.814-.294h-2.131v2.012Zm0-2.881h1.722c.27 0 .501-.037.695-.111a.99.99 0 0 0 .443-.324.82.82 0 0 0 .157-.503.74.74 0 0 0-.345-.647c-.23-.159-.547-.239-.95-.239h-1.722v1.824Zm9.159 3.801v-6.545h2.676c.705 0 1.264.159 1.679.477.415.318.622.738.622 1.261 0 .398-.118.706-.353.925-.236.216-.539.362-.908.439.241.034.476.119.703.255.23.137.421.324.571.563.151.236.226.526.226.869 0 .336-.085.635-.256.899-.17.265-.414.473-.733.627-.318.153-.698.23-1.142.23h-3.085Zm.955-.92h2.13c.347 0 .618-.083.814-.248.196-.164.294-.389.294-.673 0-.338-.098-.604-.294-.797-.196-.196-.467-.294-.814-.294h-2.13v2.012Zm0-2.881h1.721c.27 0 .502-.037.695-.111a.985.985 0 0 0 .443-.324.822.822 0 0 0 .158-.503.74.74 0 0 0-.345-.647c-.231-.159-.547-.239-.951-.239h-1.721v1.824Zm6.789 2.318 3.153-5.062h1.16V229h-1.006v-5.062L161.683 229h-1.177v-6.545h1.006v5.062Zm5.456 3.358v-2.813h.545c.134-.139.249-.289.345-.451.097-.162.181-.354.252-.575.074-.225.136-.498.187-.819.051-.324.097-.714.137-1.172l.221-2.59h4.159v5.607h1.006v2.813h-1.006V229h-4.841v1.875h-1.005Zm1.687-2.813h3.154v-4.67h-2.216l-.171 1.653a18.509 18.509 0 0 1-.264 1.794c-.105.512-.273.92-.503 1.223Zm9.244 1.074c-.631 0-1.175-.139-1.632-.417a2.81 2.81 0 0 1-1.053-1.176c-.244-.506-.366-1.094-.366-1.765 0-.67.122-1.261.366-1.772a2.89 2.89 0 0 1 1.032-1.202c.443-.29.96-.435 1.551-.435.341 0 .677.057 1.01.171.332.113.635.298.907.554.273.253.491.588.652 1.005.162.418.243.932.243 1.543v.426h-5.045v-.869h4.023c0-.369-.074-.699-.222-.989a1.67 1.67 0 0 0-.622-.686 1.746 1.746 0 0 0-.946-.251c-.401 0-.747.099-1.04.298a1.96 1.96 0 0 0-.669.767 2.254 2.254 0 0 0-.234 1.014v.58c0 .494.085.913.255 1.257.174.341.414.601.721.78.306.176.663.264 1.069.264.264 0 .503-.037.716-.111.216-.077.402-.19.558-.341a1.55 1.55 0 0 0 .363-.571l.971.273a2.149 2.149 0 0 1-.516.869 2.507 2.507 0 0 1-.894.58 3.334 3.334 0 0 1-1.198.204Zm6.899 0c-.591 0-1.109-.14-1.555-.422a2.863 2.863 0 0 1-1.04-1.18c-.247-.506-.371-1.097-.371-1.773 0-.681.124-1.277.371-1.785.25-.509.597-.904 1.04-1.185.446-.281.964-.422 1.555-.422s1.108.141 1.551.422c.446.281.793.676 1.04 1.185.25.508.375 1.104.375 1.785 0 .676-.125 1.267-.375 1.773a2.822 2.822 0 0 1-1.04 1.18c-.443.282-.96.422-1.551.422Zm0-.903c.449 0 .818-.115 1.108-.345.29-.23.505-.533.644-.908a3.48 3.48 0 0 0 .209-1.219c0-.437-.07-.845-.209-1.223a2.063 2.063 0 0 0-.644-.916c-.29-.233-.659-.349-1.108-.349-.449 0-.818.116-1.108.349a2.07 2.07 0 0 0-.643.916 3.518 3.518 0 0 0-.209 1.223c0 .438.07.844.209 1.219.139.375.354.678.643.908.29.23.659.345 1.108.345Zm4.501.767v-6.545h1.006v2.846h.665l2.352-2.846h1.296l-2.643 3.153 2.677 3.392h-1.296l-2.148-2.761h-.903V229h-1.006Zm8.835.136c-.591 0-1.109-.14-1.555-.422a2.863 2.863 0 0 1-1.04-1.18c-.247-.506-.371-1.097-.371-1.773 0-.681.124-1.277.371-1.785.25-.509.597-.904 1.04-1.185.446-.281.964-.422 1.555-.422s1.108.141 1.551.422c.446.281.793.676 1.04 1.185.25.508.375 1.104.375 1.785 0 .676-.125 1.267-.375 1.773a2.822 2.822 0 0 1-1.04 1.18c-.443.282-.96.422-1.551.422Zm0-.903c.449 0 .818-.115 1.108-.345.29-.23.504-.533.644-.908.139-.375.208-.781.208-1.219 0-.437-.069-.845-.208-1.223a2.071 2.071 0 0 0-.644-.916c-.29-.233-.659-.349-1.108-.349-.449 0-.818.116-1.108.349a2.07 2.07 0 0 0-.643.916 3.518 3.518 0 0 0-.209 1.223c0 .438.07.844.209 1.219.139.375.354.678.643.908.29.23.659.345 1.108.345Zm8.882-2.966v.938h-3.614v-.938h3.614Zm-3.375-2.812V229h-1.006v-6.545h1.006Zm4.142 0V229h-1.006v-6.545h1.006Zm4.496 8.778v-10.96h1.005v10.96h-1.005Zm0-2.097c-.443 0-.847-.079-1.21-.238a2.708 2.708 0 0 1-.938-.686 3.162 3.162 0 0 1-.605-1.07 4.244 4.244 0 0 1-.213-1.381c0-.511.071-.974.213-1.389.142-.417.344-.775.605-1.074.261-.298.574-.527.938-.686a2.939 2.939 0 0 1 1.21-.243h.307v6.767h-.307Zm0-.903h.17v-4.96h-.17c-.335 0-.627.068-.874.204a1.749 1.749 0 0 0-.613.55c-.16.23-.279.494-.358.793a3.75 3.75 0 0 0-.115.941c0 .438.069.844.208 1.219.14.375.354.678.644.908.29.23.659.345 1.108.345Zm1.005.903h-.306v-6.767h.306c.444 0 .847.081 1.211.243.363.159.676.388.937.686.262.299.463.657.605 1.074.142.415.213.878.213 1.389 0 .506-.071.966-.213 1.381a3.146 3.146 0 0 1-.605 1.07 2.714 2.714 0 0 1-.937.686 2.991 2.991 0 0 1-1.211.238Zm0-.903c.339 0 .63-.065.874-.196.247-.134.45-.315.609-.546.162-.232.282-.497.358-.792.08-.298.12-.611.12-.938 0-.437-.07-.845-.209-1.223a2.063 2.063 0 0 0-.644-.916c-.289-.233-.659-.349-1.108-.349h-.17v4.96h.17Zm7.248.903c-.631 0-1.175-.139-1.632-.417a2.803 2.803 0 0 1-1.053-1.176c-.244-.506-.366-1.094-.366-1.765 0-.67.122-1.261.366-1.772a2.883 2.883 0 0 1 1.032-1.202c.443-.29.96-.435 1.551-.435.341 0 .677.057 1.01.171.332.113.635.298.907.554.273.253.49.588.652 1.005.162.418.243.932.243 1.543v.426h-5.045v-.869h4.022c0-.369-.073-.699-.221-.989a1.67 1.67 0 0 0-.622-.686 1.749 1.749 0 0 0-.946-.251c-.401 0-.747.099-1.04.298a1.96 1.96 0 0 0-.669.767 2.254 2.254 0 0 0-.234 1.014v.58c0 .494.085.913.255 1.257.173.341.414.601.72.78.307.176.664.264 1.07.264.264 0 .503-.037.716-.111.216-.077.402-.19.558-.341.156-.153.277-.344.362-.571l.972.273a2.149 2.149 0 0 1-.516.869 2.502 2.502 0 0 1-.895.58 3.325 3.325 0 0 1-1.197.204Zm4.24 2.319v-9h.972v1.039h.119a9.15 9.15 0 0 1 .307-.434c.133-.179.324-.338.571-.478.25-.142.588-.213 1.014-.213.551 0 1.037.138 1.457.414.421.275.749.666.985 1.172.236.505.353 1.102.353 1.789 0 .694-.117 1.294-.353 1.803-.236.506-.563.898-.98 1.176-.418.276-.9.413-1.445.413-.42 0-.757-.069-1.01-.208a1.878 1.878 0 0 1-.584-.482 6.475 6.475 0 0 1-.315-.452h-.085v3.461h-1.006Zm.989-5.728c0 .495.072.931.217 1.309.145.375.357.669.635.882.278.21.619.315 1.023.315.42 0 .771-.111 1.052-.332.284-.225.497-.526.639-.904.145-.381.218-.804.218-1.27 0-.46-.071-.875-.213-1.244a1.93 1.93 0 0 0-.635-.882c-.282-.219-.635-.328-1.061-.328-.409 0-.753.103-1.032.311a1.862 1.862 0 0 0-.63.861c-.142.366-.213.794-.213 1.282Zm9.068 3.409c-.631 0-1.175-.139-1.632-.417a2.803 2.803 0 0 1-1.053-1.176c-.244-.506-.366-1.094-.366-1.765 0-.67.122-1.261.366-1.772a2.888 2.888 0 0 1 1.031-1.202c.444-.29.961-.435 1.552-.435a3.1 3.1 0 0 1 1.01.171c.332.113.634.298.907.554.273.253.49.588.652 1.005.162.418.243.932.243 1.543v.426h-5.045v-.869h4.022c0-.369-.074-.699-.221-.989a1.677 1.677 0 0 0-.622-.686 1.749 1.749 0 0 0-.946-.251c-.401 0-.748.099-1.04.298a1.96 1.96 0 0 0-.669.767 2.255 2.255 0 0 0-.235 1.014v.58c0 .494.086.913.256 1.257.173.341.413.601.72.78.307.176.664.264 1.07.264.264 0 .503-.037.716-.111.216-.077.402-.19.558-.341.156-.153.277-.344.362-.571l.972.273a2.149 2.149 0 0 1-.516.869c-.241.247-.54.441-.895.58a3.325 3.325 0 0 1-1.197.204Zm8.621-3.869v.938h-3.614v-.938h3.614Zm-3.375-2.812V229h-1.006v-6.545h1.006Zm4.142 0V229h-1.006v-6.545h1.006Zm6.984 0v5.607h.92v3.052h-1.005V229h-5.063v-6.545h1.006v5.607h3.136v-5.607h1.006Zm3.475 5.062 3.154-5.062h1.159V229h-1.006v-5.062L254.847 229h-1.177v-6.545h1.006v5.062Zm9.291-2.199v.938h-3.46v-.938h3.46Zm-2.608-2.863V229h-1.006v-6.545h1.006Zm4.619 6.681c-.591 0-1.109-.14-1.555-.422a2.863 2.863 0 0 1-1.04-1.18c-.247-.506-.371-1.097-.371-1.773 0-.681.124-1.277.371-1.785.25-.509.597-.904 1.04-1.185.446-.281.964-.422 1.555-.422s1.108.141 1.551.422c.446.281.793.676 1.04 1.185.25.508.375 1.104.375 1.785 0 .676-.125 1.267-.375 1.773a2.822 2.822 0 0 1-1.04 1.18c-.443.282-.96.422-1.551.422Zm0-.903c.449 0 .819-.115 1.108-.345.29-.23.505-.533.644-.908a3.48 3.48 0 0 0 .209-1.219c0-.437-.07-.845-.209-1.223a2.063 2.063 0 0 0-.644-.916c-.289-.233-.659-.349-1.108-.349-.449 0-.818.116-1.108.349a2.07 2.07 0 0 0-.643.916 3.518 3.518 0 0 0-.209 1.223c0 .438.07.844.209 1.219.139.375.354.678.643.908.29.23.659.345 1.108.345Z"/><path fill="#000" d="M23.5 262.008a.75.75 0 0 1-.758.742l-6.75-.073a.75.75 0 0 1 .017-1.5l6 .065.064-6a.75.75 0 0 1 1.5.017l-.073 6.749ZM22.75 244l.46.592c-4.501 3.497-5.916 6.014-5.686 8.334.118 1.192.674 2.439 1.666 3.854.992 1.415 2.38 2.942 4.096 4.695l-.536.525-.536.525c-1.724-1.762-3.186-3.363-4.252-4.884-1.067-1.521-1.778-3.016-1.931-4.567-.313-3.165 1.712-6.134 6.259-9.666l.46.592Z"/><rect width="262.5" height="27" x="24.25" y="268" fill="#F7F7F7" rx="12"/><path fill="#3D3E43" d="M55.307 288.114v-3.052h.562c.194-.176.375-.424.546-.745.173-.324.32-.756.439-1.296.122-.542.203-1.231.243-2.066l.187-3.682h5.182v7.789h1.006v3.035h-1.006V286h-6.154v2.114h-1.005Zm1.824-3.052h4.33v-6.852h-3.222l-.137 2.745a15.96 15.96 0 0 1-.179 1.73 8.9 8.9 0 0 1-.328 1.368 4.721 4.721 0 0 1-.464 1.009Zm10.46 1.074c-.59 0-1.11-.14-1.555-.422a2.861 2.861 0 0 1-1.04-1.18c-.247-.506-.37-1.097-.37-1.773 0-.681.123-1.277.37-1.785.25-.509.597-.904 1.04-1.185.446-.281.964-.422 1.555-.422s1.108.141 1.551.422c.446.281.793.676 1.04 1.185.25.508.375 1.104.375 1.785 0 .676-.125 1.267-.375 1.773a2.823 2.823 0 0 1-1.04 1.18c-.443.282-.96.422-1.55.422Zm0-.903c.45 0 .818-.115 1.108-.345.29-.23.505-.533.644-.908s.209-.781.209-1.219c0-.437-.07-.845-.21-1.223a2.065 2.065 0 0 0-.643-.916c-.29-.233-.659-.349-1.108-.349-.449 0-.818.116-1.108.349-.29.233-.504.539-.643.916-.14.378-.209.786-.209 1.223 0 .438.07.844.209 1.219.139.375.353.678.643.908.29.23.66.345 1.108.345Zm3.823.767 2.659-3.324-2.625-3.221h1.193l2.182 2.795h.545v-2.795h1.006v2.795h.528l2.182-2.795h1.193l-2.608 3.221L80.311 286h-1.21l-2.216-2.812h-.511V286h-1.006v-2.812h-.511L72.624 286h-1.21Zm9.636 1.875v-2.813h.545a2.487 2.487 0 0 0 .597-1.026 5.39 5.39 0 0 0 .187-.819c.051-.324.097-.714.137-1.172l.221-2.59h4.16v5.607h1.005v2.813h-1.006V286h-4.84v1.875H81.05Zm1.687-2.813h3.154v-4.67h-2.216l-.17 1.653c-.072.685-.16 1.283-.265 1.794-.105.512-.273.92-.503 1.223Zm7.506-.545 3.153-5.062h1.159V286h-1.006v-5.062L90.413 286h-1.176v-6.545h1.006v5.062Zm5.263-4.125v-.937h5.319v.937h-2.148V286H97.67v-5.608h-2.165Zm9.19 5.744c-.631 0-1.175-.139-1.632-.417a2.81 2.81 0 0 1-1.053-1.176c-.244-.506-.366-1.094-.366-1.765 0-.67.122-1.261.366-1.772a2.89 2.89 0 0 1 1.032-1.202c.443-.29.96-.435 1.551-.435.341 0 .677.057 1.01.171.332.113.635.298.907.554.273.253.49.588.652 1.005.162.418.243.932.243 1.543v.426h-5.045v-.869h4.023c0-.369-.074-.699-.222-.989a1.67 1.67 0 0 0-.622-.686 1.749 1.749 0 0 0-.946-.251c-.401 0-.747.099-1.04.298a1.96 1.96 0 0 0-.669.767 2.254 2.254 0 0 0-.234 1.014v.58c0 .494.085.913.255 1.257.174.341.414.601.72.78.307.176.664.264 1.07.264.264 0 .503-.037.716-.111.216-.077.402-.19.558-.341.156-.153.277-.344.362-.571l.972.273a2.149 2.149 0 0 1-.516.869 2.502 2.502 0 0 1-.895.58 3.325 3.325 0 0 1-1.197.204Zm6.899 0c-.613 0-1.142-.145-1.585-.434a2.837 2.837 0 0 1-1.023-1.198c-.238-.508-.358-1.089-.358-1.743 0-.664.122-1.251.367-1.76.247-.511.591-.91 1.031-1.197.443-.29.96-.435 1.551-.435.46 0 .875.086 1.244.256.37.17.672.409.908.716s.382.665.439 1.074h-1.006a1.553 1.553 0 0 0-.511-.793c-.261-.233-.614-.349-1.057-.349-.392 0-.736.102-1.031.307a1.993 1.993 0 0 0-.686.856c-.162.367-.243.797-.243 1.291 0 .506.079.946.239 1.321.162.375.389.666.681.874.296.207.642.311 1.04.311.262 0 .499-.045.712-.136.213-.091.393-.222.541-.392.148-.171.253-.375.315-.614h1.006a2.329 2.329 0 0 1-1.304 1.777c-.364.179-.787.268-1.27.268Zm4.914-4.312h1.875c.767 0 1.353.194 1.759.584.407.389.61.882.61 1.478 0 .392-.091.749-.273 1.07a1.988 1.988 0 0 1-.801.763c-.352.187-.784.281-1.295.281h-2.745v-6.545h1.006v5.607h1.739c.397 0 .724-.105.98-.315.255-.21.383-.48.383-.809 0-.347-.128-.63-.383-.849-.256-.218-.583-.328-.98-.328h-1.875v-.937Zm7.275 2.983-.068.46a9.536 9.536 0 0 1-.222 1.04c-.097.369-.197.717-.303 1.044a26.97 26.97 0 0 1-.26.78h-.767l.145-.72c.06-.299.12-.633.179-1.002.063-.366.114-.741.154-1.125l.051-.477h1.091Zm5.238 1.193v-6.545h5.148V286h-1.006v-5.608h-3.136V286h-1.006Zm9.643.136c-.59 0-1.109-.14-1.555-.422a2.863 2.863 0 0 1-1.04-1.18c-.247-.506-.37-1.097-.37-1.773 0-.681.123-1.277.37-1.785.25-.509.597-.904 1.04-1.185.446-.281.965-.422 1.555-.422.591 0 1.108.141 1.552.422.446.281.792.676 1.039 1.185.25.508.375 1.104.375 1.785 0 .676-.125 1.267-.375 1.773a2.82 2.82 0 0 1-1.039 1.18c-.444.282-.961.422-1.552.422Zm0-.903c.449 0 .819-.115 1.108-.345.29-.23.505-.533.644-.908a3.48 3.48 0 0 0 .209-1.219c0-.437-.07-.845-.209-1.223a2.063 2.063 0 0 0-.644-.916c-.289-.233-.659-.349-1.108-.349-.448 0-.818.116-1.107.349-.29.233-.505.539-.644.916a3.518 3.518 0 0 0-.209 1.223c0 .438.07.844.209 1.219.139.375.354.678.644.908.289.23.659.345 1.107.345Zm4.502.767v-6.545h1.005v2.846h.665l2.352-2.846h1.296l-2.642 3.153 2.676 3.392h-1.296l-2.147-2.761h-.904V286h-1.005Zm8.371.153c-.415 0-.791-.078-1.129-.234a1.942 1.942 0 0 1-.806-.686c-.199-.301-.298-.665-.298-1.091 0-.375.074-.679.222-.912.147-.236.345-.42.592-.554a3.12 3.12 0 0 1 .818-.298 10.1 10.1 0 0 1 .908-.162c.398-.051.72-.09.967-.115.25-.029.432-.075.546-.141.116-.065.174-.179.174-.341v-.034c0-.42-.115-.747-.345-.98-.227-.233-.572-.349-1.035-.349-.48 0-.857.105-1.13.315-.272.21-.464.435-.575.673l-.954-.341c.17-.397.397-.707.681-.929.287-.224.6-.38.938-.468a3.89 3.89 0 0 1 1.006-.137 4 4 0 0 1 .724.077c.276.048.541.149.797.303.258.153.473.385.643.694.171.31.256.725.256 1.245V286h-1.006v-.886h-.051a1.77 1.77 0 0 1-.341.456c-.159.162-.37.299-.635.413-.264.114-.586.17-.967.17Zm.153-.903c.398 0 .733-.078 1.006-.234a1.597 1.597 0 0 0 .835-1.385v-.921c-.042.051-.136.098-.281.141a4.65 4.65 0 0 1-.494.106 21.302 21.302 0 0 1-.963.128c-.262.034-.506.09-.733.166a1.259 1.259 0 0 0-.546.337c-.136.148-.204.349-.204.605 0 .35.129.614.388.793.261.176.592.264.992.264Zm8.058.75v-6.545h2.676c.704 0 1.264.159 1.679.477.414.318.622.738.622 1.261 0 .398-.118.706-.354.925-.236.216-.538.362-.908.439.242.034.476.119.704.255.23.137.42.324.571.563.15.236.225.526.225.869 0 .336-.085.635-.255.899a1.756 1.756 0 0 1-.733.627c-.318.153-.699.23-1.142.23h-3.085Zm.954-.92h2.131c.346 0 .618-.083.814-.248.196-.164.294-.389.294-.673 0-.338-.098-.604-.294-.797-.196-.196-.468-.294-.814-.294h-2.131v2.012Zm0-2.881h1.722c.27 0 .501-.037.694-.111a.985.985 0 0 0 .443-.324.815.815 0 0 0 .158-.503.74.74 0 0 0-.345-.647c-.23-.159-.547-.239-.95-.239h-1.722v1.824Zm8.443 3.937c-.614 0-1.142-.145-1.585-.434a2.837 2.837 0 0 1-1.023-1.198c-.239-.508-.358-1.089-.358-1.743 0-.664.122-1.251.367-1.76.247-.511.59-.91 1.031-1.197.443-.29.96-.435 1.551-.435.46 0 .875.086 1.244.256.37.17.672.409.908.716s.382.665.439 1.074h-1.006a1.56 1.56 0 0 0-.511-.793c-.262-.233-.614-.349-1.057-.349-.392 0-.736.102-1.031.307a1.986 1.986 0 0 0-.686.856c-.162.367-.243.797-.243 1.291 0 .506.079.946.238 1.321.162.375.39.666.682.874.296.207.642.311 1.04.311.261 0 .499-.045.712-.136.213-.091.393-.222.541-.392.148-.171.253-.375.315-.614h1.006a2.34 2.34 0 0 1-.422 1.044 2.364 2.364 0 0 1-.882.733c-.364.179-.787.268-1.27.268Zm6.788 0c-.63 0-1.174-.139-1.632-.417a2.808 2.808 0 0 1-1.052-1.176c-.245-.506-.367-1.094-.367-1.765 0-.67.122-1.261.367-1.772a2.888 2.888 0 0 1 1.031-1.202c.443-.29.96-.435 1.551-.435.341 0 .678.057 1.01.171.332.113.635.298.908.554.272.253.49.588.652 1.005.162.418.243.932.243 1.543v.426h-5.046v-.869h4.023c0-.369-.074-.699-.222-.989a1.67 1.67 0 0 0-.622-.686 1.746 1.746 0 0 0-.946-.251c-.401 0-.747.099-1.04.298a1.96 1.96 0 0 0-.669.767 2.254 2.254 0 0 0-.234 1.014v.58c0 .494.085.913.256 1.257.173.341.413.601.72.78a2.11 2.11 0 0 0 1.069.264c.265 0 .503-.037.716-.111.216-.077.402-.19.558-.341a1.55 1.55 0 0 0 .363-.571l.971.273a2.158 2.158 0 0 1-.515.869 2.52 2.52 0 0 1-.895.58 3.33 3.33 0 0 1-1.198.204Zm-1.38-7.772a.668.668 0 0 1-.478-.205.663.663 0 0 1-.204-.477c0-.196.068-.358.204-.486a.68.68 0 0 1 .478-.196c.196 0 .358.065.485.196a.65.65 0 0 1 .196.486.675.675 0 0 1-.196.477.636.636 0 0 1-.485.205Zm2.454 0a.664.664 0 0 1-.477-.205.664.664 0 0 1-.205-.477.64.64 0 0 1 .205-.486.675.675 0 0 1 .477-.196.65.65 0 0 1 .486.196.65.65 0 0 1 .196.486.675.675 0 0 1-.196.477.64.64 0 0 1-.486.205Zm6.541 7.636v-6.545h5.148V286h-1.006v-5.608h-3.136V286h-1.006Zm6.985 2.455v-9h.971v1.039h.12c.074-.113.176-.258.306-.434.134-.179.324-.338.571-.478.25-.142.589-.213 1.015-.213.551 0 1.037.138 1.457.414.421.275.749.666.984 1.172.236.505.354 1.102.354 1.789 0 .694-.118 1.294-.354 1.803-.235.506-.562.898-.98 1.176-.417.276-.899.413-1.444.413-.421 0-.757-.069-1.01-.208a1.867 1.867 0 0 1-.584-.482 6.475 6.475 0 0 1-.315-.452h-.086v3.461h-1.005Zm.988-5.728c0 .495.073.931.218 1.309.145.375.356.669.635.882.278.21.619.315 1.022.315.421 0 .772-.111 1.053-.332.284-.225.497-.526.639-.904.145-.381.217-.804.217-1.27 0-.46-.071-.875-.213-1.244a1.916 1.916 0 0 0-.635-.882c-.281-.219-.634-.328-1.061-.328-.409 0-.752.103-1.031.311a1.864 1.864 0 0 0-.631.861c-.142.366-.213.794-.213 1.282Zm8.983 3.409c-.591 0-1.109-.14-1.555-.422a2.863 2.863 0 0 1-1.04-1.18c-.247-.506-.371-1.097-.371-1.773 0-.681.124-1.277.371-1.785.25-.509.597-.904 1.04-1.185.446-.281.964-.422 1.555-.422s1.108.141 1.551.422c.446.281.793.676 1.04 1.185.25.508.375 1.104.375 1.785 0 .676-.125 1.267-.375 1.773a2.822 2.822 0 0 1-1.04 1.18c-.443.282-.96.422-1.551.422Zm0-.903c.449 0 .819-.115 1.108-.345.29-.23.505-.533.644-.908a3.48 3.48 0 0 0 .209-1.219c0-.437-.07-.845-.209-1.223a2.063 2.063 0 0 0-.644-.916c-.289-.233-.659-.349-1.108-.349-.449 0-.818.116-1.108.349a2.07 2.07 0 0 0-.643.916 3.518 3.518 0 0 0-.209 1.223c0 .438.07.844.209 1.219.139.375.354.678.643.908.29.23.659.345 1.108.345Zm8.541-5.778v.937h-3.034V286h-1.006v-6.545h4.04Zm1.468 9v-9h.972v1.039h.119a9.15 9.15 0 0 1 .307-.434c.133-.179.324-.338.571-.478.25-.142.588-.213 1.014-.213.551 0 1.037.138 1.458.414.42.275.748.666.984 1.172.236.505.354 1.102.354 1.789 0 .694-.118 1.294-.354 1.803-.236.506-.563.898-.98 1.176-.418.276-.899.413-1.445.413-.42 0-.757-.069-1.01-.208a1.878 1.878 0 0 1-.584-.482 6.475 6.475 0 0 1-.315-.452h-.085v3.461h-1.006Zm.989-5.728c0 .495.072.931.217 1.309.145.375.357.669.635.882.279.21.619.315 1.023.315.42 0 .771-.111 1.052-.332.284-.225.498-.526.64-.904.144-.381.217-.804.217-1.27 0-.46-.071-.875-.213-1.244a1.923 1.923 0 0 0-.635-.882c-.281-.219-.635-.328-1.061-.328-.409 0-.753.103-1.031.311-.279.204-.489.491-.631.861-.142.366-.213.794-.213 1.282Zm6.737 5.728c-.17 0-.322-.015-.456-.043a1.206 1.206 0 0 1-.277-.077l.256-.886c.244.062.46.085.648.068a.778.778 0 0 0 .498-.251c.148-.148.283-.388.405-.721l.187-.511-2.42-6.579h1.091l1.807 5.215h.068l1.807-5.215h1.091l-2.779 7.5c-.125.338-.28.617-.464.839a1.746 1.746 0 0 1-.644.499 1.98 1.98 0 0 1-.818.162Zm5.623-4.125h1.074a.829.829 0 0 0 .4.673c.248.153.569.23.963.23.404 0 .749-.082 1.036-.247.287-.168.43-.438.43-.81 0-.219-.054-.409-.162-.571a1.057 1.057 0 0 0-.456-.383 1.634 1.634 0 0 0-.694-.137h-1.125v-.903h1.125c.4 0 .696-.091.886-.273a.899.899 0 0 0 .29-.682.878.878 0 0 0-.311-.703c-.207-.179-.502-.268-.882-.268-.384 0-.703.086-.959.26-.256.17-.391.39-.405.66h-1.057a1.6 1.6 0 0 1 .324-.933c.205-.273.483-.486.835-.639a2.95 2.95 0 0 1 1.211-.235c.46 0 .859.081 1.197.243.341.159.604.377.788.652a1.6 1.6 0 0 1 .282.929c0 .369-.104.668-.311.895a1.733 1.733 0 0 1-.78.486v.068c.247.017.461.097.643.239.185.139.328.322.431.549.102.225.153.473.153.746 0 .398-.106.744-.32 1.04-.213.293-.505.52-.877.682a3.221 3.221 0 0 1-1.275.238 3.26 3.26 0 0 1-1.244-.225 2.168 2.168 0 0 1-.873-.635 1.577 1.577 0 0 1-.337-.946Zm7.344.187 3.154-5.062h1.159V286h-1.006v-5.062L231.378 286h-1.176v-6.545h1.005v5.062Zm5.264-4.125v-.937h5.318v.937h-2.147V286h-1.006v-5.608h-2.165Zm9.105 5.744c-.614 0-1.142-.145-1.586-.434a2.828 2.828 0 0 1-1.022-1.198c-.239-.508-.358-1.089-.358-1.743 0-.664.122-1.251.366-1.76.247-.511.591-.91 1.031-1.197.444-.29.961-.435 1.552-.435.46 0 .875.086 1.244.256s.672.409.908.716c.235.307.382.665.439 1.074h-1.006a1.555 1.555 0 0 0-.512-.793c-.261-.233-.613-.349-1.056-.349-.392 0-.736.102-1.032.307a2 2 0 0 0-.686.856c-.162.367-.243.797-.243 1.291 0 .506.08.946.239 1.321.162.375.389.666.682.874.295.207.642.311 1.04.311.261 0 .498-.045.711-.136a1.468 1.468 0 0 0 .857-1.006h1.006a2.34 2.34 0 0 1-.422 1.044 2.364 2.364 0 0 1-.882.733c-.364.179-.787.268-1.27.268Zm7.981-.136v-5.625h-1.738c-.393 0-.701.091-.925.273-.225.182-.337.432-.337.75 0 .312.101.558.303.737.204.179.484.268.839.268h2.114v.938h-2.114c-.443 0-.825-.078-1.146-.234a1.73 1.73 0 0 1-.742-.669c-.173-.293-.26-.64-.26-1.04 0-.404.091-.75.273-1.04.182-.29.442-.513.78-.669.341-.156.746-.234 1.215-.234h2.693V286h-.955Zm-4.363 0 1.857-3.256h1.091L250.284 286h-1.09Z"/><g filter="url(#a)"><g clip-path="url(#b)"><path fill="#3D3E43" d="M58.375 356.778c0-5.539 4.49-10.028 10.028-10.028h171.9a5.572 5.572 0 0 1 5.572 5.572v22.428H68.403c-5.539 0-10.028-4.489-10.028-10.028v-7.944Z"/><path fill="#fff" d="m71.875 363.386 2.284-5.181h.955l-2.83 6.545h-.818l-2.778-6.545h.937l2.25 5.181Zm-2.574-5.181v6.545h-1.005v-6.545H69.3Zm5.148 6.545v-6.545h1.005v6.545H74.45Zm5.59.136c-.63 0-1.174-.139-1.631-.417a2.806 2.806 0 0 1-1.053-1.176c-.244-.506-.366-1.094-.366-1.765 0-.67.122-1.261.366-1.772.247-.515.591-.915 1.031-1.202.444-.29.96-.435 1.552-.435.34 0 .677.057 1.01.171.332.113.634.298.907.554.273.253.49.588.652 1.005.162.418.243.932.243 1.543v.426h-5.046v-.869h4.023a2.15 2.15 0 0 0-.221-.989 1.67 1.67 0 0 0-.623-.686 1.747 1.747 0 0 0-.945-.251c-.401 0-.748.099-1.04.298-.29.196-.513.452-.67.767a2.25 2.25 0 0 0-.234 1.014v.58c0 .494.085.913.256 1.257.173.341.413.601.72.78.307.176.663.264 1.07.264.264 0 .503-.037.716-.111a1.53 1.53 0 0 0 .558-.341c.156-.153.277-.344.362-.571l.972.273a2.156 2.156 0 0 1-.516.869c-.241.247-.54.441-.895.58a3.326 3.326 0 0 1-1.197.204Zm8.621-3.869v.938h-3.613v-.938h3.614Zm-3.374-2.812v6.545H84.28v-6.545h1.005Zm4.142 0v6.545h-1.006v-6.545h1.006Zm5.774 6.545v-5.625h-1.739c-.392 0-.7.091-.925.273-.224.182-.336.432-.336.75 0 .312.1.558.302.737.205.179.485.268.84.268h2.113v.938h-2.113c-.443 0-.825-.078-1.147-.234a1.724 1.724 0 0 1-.741-.669c-.173-.293-.26-.64-.26-1.04 0-.404.09-.75.273-1.04.182-.29.442-.513.78-.669.34-.156.745-.234 1.214-.234h2.693v6.545h-.954Zm-4.364 0 1.858-3.256h1.09l-1.857 3.256h-1.09Zm13.199.136c-.614 0-1.142-.145-1.586-.434a2.828 2.828 0 0 1-1.022-1.198c-.239-.508-.358-1.089-.358-1.743 0-.664.122-1.251.366-1.76.247-.511.591-.91 1.031-1.197.444-.29.961-.435 1.552-.435.46 0 .875.086 1.244.256s.672.409.908.716c.235.307.382.665.438 1.074h-1.005a1.555 1.555 0 0 0-.512-.793c-.261-.233-.613-.349-1.056-.349-.392 0-.736.102-1.032.307a2 2 0 0 0-.686.856c-.162.367-.243.797-.243 1.291 0 .506.08.946.239 1.321.162.375.389.666.682.874.295.207.642.311 1.04.311.261 0 .498-.045.711-.136a1.468 1.468 0 0 0 .857-1.006h1.005a2.327 2.327 0 0 1-.421 1.044 2.36 2.36 0 0 1-.883.733c-.363.179-.786.268-1.269.268Zm3.464-.136v-.938h.239a.953.953 0 0 0 .49-.115c.13-.079.236-.217.315-.413.082-.199.145-.474.188-.827.045-.355.078-.806.098-1.355l.119-2.897h4.364v6.545h-1.006v-5.608h-2.404l-.102 2.335c-.023.537-.071 1.01-.145 1.419a3.4 3.4 0 0 1-.328 1.023 1.5 1.5 0 0 1-.579.622c-.242.139-.544.209-.908.209h-.341Zm8.527-4.176h1.875c.767 0 1.354.194 1.76.584.406.389.609.882.609 1.478 0 .392-.091.749-.272 1.07a1.988 1.988 0 0 1-.801.763c-.353.187-.785.281-1.296.281h-2.744v-6.545h1.005v5.607h1.739c.398 0 .724-.105.98-.315a1 1 0 0 0 .384-.809c0-.347-.128-.63-.384-.849-.256-.218-.582-.328-.98-.328h-1.875v-.937Zm5.284 4.176v-6.545h1.006v6.545h-1.006Zm2.847-6.545h1.005v5.607h2.472v-5.607h1.006v5.607h2.471v-5.607h1.006v6.545h-7.96v-6.545Zm14.177 2.812v.938h-3.613v-.938h3.613Zm-3.375-2.812v6.545h-1.005v-6.545h1.005Zm4.142 0v6.545h-1.005v-6.545h1.005Zm4.496 6.681c-.591 0-1.109-.14-1.555-.422a2.856 2.856 0 0 1-1.04-1.18c-.247-.506-.371-1.097-.371-1.773 0-.681.124-1.277.371-1.785.25-.509.596-.904 1.04-1.185.446-.281.964-.422 1.555-.422s1.108.141 1.551.422c.446.281.793.676 1.04 1.185.25.508.375 1.104.375 1.785 0 .676-.125 1.267-.375 1.773a2.822 2.822 0 0 1-1.04 1.18c-.443.282-.96.422-1.551.422Zm0-.903c.449 0 .818-.115 1.108-.345.29-.23.504-.533.643-.908.14-.375.209-.781.209-1.219 0-.437-.069-.845-.209-1.223a2.061 2.061 0 0 0-.643-.916c-.29-.233-.659-.349-1.108-.349-.449 0-.818.116-1.108.349-.29.233-.504.539-.643.916-.14.378-.209.786-.209 1.223 0 .438.069.844.209 1.219.139.375.353.678.643.908.29.23.659.345 1.108.345Zm5.814-1.688v-.051c.005-.542.062-.974.17-1.295a1.97 1.97 0 0 1 .46-.78c.199-.199.438-.382.716-.55a2.24 2.24 0 0 0 .452-.362 1.602 1.602 0 0 0 .435-1.104c0-.278-.066-.519-.196-.724a1.317 1.317 0 0 0-.525-.473 1.582 1.582 0 0 0-.728-.166c-.233 0-.458.048-.674.145a1.3 1.3 0 0 0-.541.456c-.145.207-.228.478-.251.814h-1.074c.023-.483.148-.897.375-1.241.23-.343.533-.606.908-.788a2.857 2.857 0 0 1 1.257-.273c.5 0 .934.1 1.304.299.372.199.659.471.861.818.204.346.306.741.306 1.185 0 .312-.048.595-.145.848-.093.252-.23.478-.409.677a2.816 2.816 0 0 1-.639.529c-.25.156-.45.321-.601.494-.15.17-.26.373-.328.609s-.105.53-.111.882v.051h-1.022Zm.545 2.523a.736.736 0 0 1-.541-.226.736.736 0 0 1-.226-.541c0-.21.075-.39.226-.541a.736.736 0 0 1 .541-.226c.21 0 .391.075.541.226a.737.737 0 0 1 .226.541.726.726 0 0 1-.106.384.81.81 0 0 1-.277.281.735.735 0 0 1-.384.102Z"/></g><g clip-path="url(#c)"><path fill="#3D3E43" d="M245.908 363.361c0 3.581 1.966 8.553 5.898 9.548 0 0 .786 0 .786.796 0 .795-.786.795-.786.795h-5.898v-11.139Z"/></g></g><defs><clipPath id="b"><path fill="#fff" d="M58.375 356.778c0-5.539 4.49-10.028 10.028-10.028h171.9a5.572 5.572 0 0 1 5.572 5.572v22.428H68.403c-5.539 0-10.028-4.489-10.028-10.028v-7.944Z"/></clipPath><clipPath id="c"><path fill="#fff" d="M252.625 346.75h-6.75v27.75h6.75z"/></clipPath><filter id="a" width="200.933" height="34.683" x="55.033" y="344.522" color-interpolation-filters="sRGB" filterUnits="userSpaceOnUse"><feFlood flood-opacity="0" result="BackgroundImageFix"/><feColorMatrix in="SourceAlpha" result="hardAlpha" values="0 0 0 0 0 0 0 0 0 0 0 0 0 0 0 0 0 0 127 0"/><feOffset/><feGaussianBlur stdDeviation=".557"/><feColorMatrix values="0 0 0 0 0 0 0 0 0 0 0 0 0 0 0 0 0 0 0.35 0"/><feBlend in2="BackgroundImageFix" result="effect1_dropShadow_6792_15124"/><feColorMatrix in="SourceAlpha" result="hardAlpha" values="0 0 0 0 0 0 0 0 0 0 0 0 0 0 0 0 0 0 127 0"/><feOffset dy="1.114"/><feGaussianBlur stdDeviation="1.671"/><feColorMatrix values="0 0 0 0 0 0 0 0 0 0 0 0 0 0 0 0 0 0 0.1 0"/><feBlend in2="effect1_dropShadow_6792_15124" result="effect2_dropShadow_6792_15124"/><feBlend in="SourceGraphic" in2="effect2_dropShadow_6792_15124" result="shape"/></filter></defs></svg>