<svg xmlns="http://www.w3.org/2000/svg" width="311" height="275" fill="none"><path fill="#0F0F11" d="M52.953 18.75V5.66h5.242c.963 0 1.766.142 2.41.427.643.286 1.127.682 1.45 1.19.324.502.486 1.082.486 1.738 0 .511-.102.96-.306 1.349a2.648 2.648 0 0 1-.844.946 3.459 3.459 0 0 1-1.215.517v.128a2.988 2.988 0 0 1 2.467 1.515c.273.465.41 1.019.41 1.662 0 .695-.173 1.315-.518 1.86-.341.541-.846.97-1.515 1.285-.67.315-1.494.473-2.474.473h-5.593Zm2.768-2.263h2.256c.772 0 1.334-.147 1.688-.44.354-.3.53-.695.53-1.19 0-.362-.087-.682-.262-.959a1.78 1.78 0 0 0-.748-.652c-.32-.157-.7-.236-1.144-.236h-2.32v3.477Zm0-5.35h2.052c.38 0 .716-.066 1.01-.198a1.68 1.68 0 0 0 .703-.575 1.5 1.5 0 0 0 .262-.889c0-.473-.168-.854-.505-1.144-.332-.29-.805-.435-1.419-.435h-2.103v3.241Zm11.683 4.02 3.535-6.225h2.685v9.818h-2.596v-6.245l-3.522 6.245h-2.704V8.932h2.602v6.226Zm7.635 6.47V16.59h.755c.217-.137.392-.354.524-.652a5.04 5.04 0 0 0 .332-1.055c.09-.405.158-.842.205-1.31.05-.474.096-.95.134-1.432l.256-3.21h7.53v7.659h1.52v5.036h-2.594V18.75h-6.003v2.876H75.04Zm3.465-5.037h3.7v-5.562H79.56l-.103 1.113a23.902 23.902 0 0 1-.313 2.671c-.136.73-.35 1.322-.64 1.778Zm13.853 2.352c-1.01 0-1.88-.205-2.608-.614a4.203 4.203 0 0 1-1.675-1.751c-.392-.759-.588-1.656-.588-2.691 0-1.01.196-1.897.588-2.66a4.348 4.348 0 0 1 1.656-1.783c.716-.426 1.555-.639 2.518-.639.648 0 1.251.104 1.81.313a4.013 4.013 0 0 1 1.47.927c.421.413.75.933.984 1.56.234.622.351 1.35.351 2.186v.748h-8.29V12.85H94.3c0-.392-.085-.74-.255-1.042a1.833 1.833 0 0 0-.71-.71 2.024 2.024 0 0 0-1.042-.261c-.413 0-.78.095-1.1.287a2.017 2.017 0 0 0-.74.76 2.15 2.15 0 0 0-.276 1.056v1.604c0 .486.09.906.269 1.26.183.353.44.626.773.817.333.192.727.288 1.183.288.302 0 .58-.043.83-.128.252-.085.467-.213.646-.383.18-.17.316-.38.41-.627l2.518.166a3.439 3.439 0 0 1-.786 1.586c-.392.447-.9.797-1.522 1.048-.618.247-1.331.37-2.141.37Zm10.719 0c-.992 0-1.851-.211-2.576-.633a4.333 4.333 0 0 1-1.668-1.777c-.392-.763-.588-1.647-.588-2.653 0-1.014.196-1.9.588-2.659a4.281 4.281 0 0 1 1.668-1.777c.725-.426 1.584-.639 2.576-.639.993 0 1.85.213 2.57.64a4.27 4.27 0 0 1 1.675 1.776c.392.759.588 1.645.588 2.66 0 1.005-.196 1.89-.588 2.652a4.32 4.32 0 0 1-1.675 1.777c-.72.422-1.577.633-2.57.633Zm.013-2.11c.452 0 .829-.128 1.132-.383.302-.26.53-.614.684-1.061a4.6 4.6 0 0 0 .236-1.528 4.6 4.6 0 0 0-.236-1.528c-.154-.447-.382-.8-.684-1.06-.303-.26-.68-.39-1.132-.39-.456 0-.839.13-1.15.39-.307.26-.539.613-.697 1.06a4.71 4.71 0 0 0-.23 1.528c0 .571.077 1.08.23 1.528.158.447.39.8.697 1.06.311.256.694.384 1.15.384Zm6.085-.863h2.64c.013.324.158.58.435.768.277.187.635.28 1.074.28.443 0 .816-.101 1.118-.306.303-.209.454-.507.454-.895 0-.239-.059-.445-.179-.62a1.212 1.212 0 0 0-.498-.422 1.696 1.696 0 0 0-.742-.153h-1.412v-1.784h1.412c.422 0 .746-.098.972-.294a.926.926 0 0 0 .345-.735.99.99 0 0 0-.358-.799c-.234-.204-.552-.307-.952-.307-.405 0-.742.092-1.01.275-.264.18-.401.414-.409.703h-2.627c.008-.588.185-1.097.53-1.527.349-.43.818-.763 1.406-.997.593-.235 1.255-.352 1.988-.352.801 0 1.492.113 2.071.339.584.221 1.032.539 1.343.952.315.413.473.906.473 1.477 0 .52-.171.954-.512 1.304-.341.35-.818.598-1.432.748v.102c.405.025.772.134 1.1.326.328.192.59.456.786.793.196.332.294.726.294 1.182 0 .61-.179 1.131-.537 1.566-.354.435-.844.77-1.47 1.004-.622.23-1.336.345-2.141.345-.784 0-1.488-.113-2.11-.339-.618-.23-1.11-.567-1.476-1.01-.362-.443-.554-.984-.576-1.623Zm9.98 2.781V8.932h4.187c1.21 0 2.167.23 2.87.69.703.46 1.055 1.114 1.055 1.963 0 .532-.199.975-.595 1.33-.396.353-.946.591-1.649.715.588.043 1.089.177 1.502.403.418.221.735.509.952.863.222.353.333.745.333 1.176 0 .558-.149 1.037-.448 1.438-.294.4-.726.707-1.297.92-.567.213-1.259.32-2.078.32h-4.832Zm2.538-2.04h2.294c.38 0 .676-.089.889-.268.217-.183.326-.432.326-.747 0-.35-.109-.625-.326-.825-.213-.2-.509-.3-.889-.3h-2.294v2.14Zm0-3.738h1.706c.273 0 .505-.039.697-.115a.981.981 0 0 0 .448-.346.892.892 0 0 0 .159-.53.819.819 0 0 0-.364-.71c-.243-.17-.575-.255-.997-.255h-1.649v1.956Zm12.269 5.97c-.993 0-1.851-.211-2.576-.633a4.33 4.33 0 0 1-1.668-1.777c-.392-.763-.588-1.647-.588-2.653 0-1.014.196-1.9.588-2.659a4.28 4.28 0 0 1 1.668-1.777c.725-.426 1.583-.639 2.576-.639.993 0 1.85.213 2.57.64a4.276 4.276 0 0 1 1.675 1.776c.392.759.588 1.645.588 2.66 0 1.005-.196 1.89-.588 2.652a4.327 4.327 0 0 1-1.675 1.777c-.72.422-1.577.633-2.57.633Zm.013-2.11c.452 0 .829-.128 1.131-.383.303-.26.531-.614.684-1.061.158-.448.237-.957.237-1.528 0-.57-.079-1.08-.237-1.528-.153-.447-.381-.8-.684-1.06-.302-.26-.679-.39-1.131-.39-.456 0-.84.13-1.151.39-.306.26-.539.613-.696 1.06-.154.448-.23.957-.23 1.528 0 .571.076 1.08.23 1.528.157.447.39.8.696 1.06.311.256.695.384 1.151.384Zm13.423-4.078v2.142h-5.126v-2.142h5.126Zm-4.231-3.822v9.818h-2.602V8.932h2.602Zm5.938 0v9.818h-2.582V8.932h2.582Zm2.113 9.818V8.932h2.723v3.81h.767l2.671-3.81h3.196l-3.47 4.87 3.509 4.948h-3.235l-2.422-3.484h-1.016v3.484h-2.723Zm13.148-3.592 3.535-6.226h2.684v9.818h-2.595v-6.245l-3.522 6.245h-2.704V8.932h2.602v6.226Zm12.568 3.592V8.932h4.187c1.21 0 2.167.23 2.87.69.703.46 1.055 1.114 1.055 1.963 0 .532-.198.975-.595 1.33-.396.353-.946.591-1.649.715.588.043 1.089.177 1.502.403.418.221.735.509.953.863.221.353.332.745.332 1.176 0 .558-.149 1.037-.447 1.438-.294.4-.727.707-1.298.92-.567.213-1.259.32-2.077.32h-4.833Zm2.538-2.04h2.295c.379 0 .675-.089.888-.268.218-.183.326-.432.326-.747 0-.35-.108-.625-.326-.825-.213-.2-.509-.3-.888-.3h-2.295v2.14Zm0-3.738h1.707c.272 0 .505-.039.696-.115a.976.976 0 0 0 .448-.346.893.893 0 0 0 .16-.53.82.82 0 0 0-.365-.71c-.243-.17-.575-.255-.997-.255h-1.649v1.956Zm20.168-1.24-2.492.153a1.3 1.3 0 0 0-.275-.575 1.46 1.46 0 0 0-.556-.416 1.89 1.89 0 0 0-.812-.16c-.422 0-.778.09-1.068.269-.289.175-.434.409-.434.703 0 .234.093.433.281.594.187.162.509.292.965.39l1.777.358c.955.196 1.666.512 2.135.946.469.435.703 1.006.703 1.713a2.67 2.67 0 0 1-.569 1.694c-.375.486-.89.865-1.547 1.138-.652.268-1.404.403-2.256.403-1.3 0-2.335-.27-3.107-.812-.767-.546-1.216-1.287-1.348-2.224l2.678-.141c.081.396.277.699.588.908.311.204.71.306 1.195.306.478 0 .861-.091 1.151-.274.294-.188.443-.429.447-.723a.75.75 0 0 0-.313-.607c-.204-.162-.52-.286-.946-.37l-1.7-.34c-.959-.191-1.673-.524-2.141-.997-.465-.473-.697-1.076-.697-1.809 0-.63.17-1.174.511-1.63.345-.456.829-.807 1.451-1.054.627-.247 1.36-.371 2.199-.371 1.24 0 2.216.262 2.928.786.716.524 1.133 1.238 1.252 2.142Zm6.375 7.21c-.993 0-1.852-.211-2.576-.633a4.33 4.33 0 0 1-1.668-1.777c-.392-.763-.588-1.647-.588-2.653 0-1.014.196-1.9.588-2.659a4.28 4.28 0 0 1 1.668-1.777c.724-.426 1.583-.639 2.576-.639.993 0 1.849.213 2.57.64a4.268 4.268 0 0 1 1.674 1.776c.392.759.588 1.645.588 2.66 0 1.005-.196 1.89-.588 2.652a4.318 4.318 0 0 1-1.674 1.777c-.721.422-1.577.633-2.57.633Zm.013-2.11c.451 0 .829-.128 1.131-.383.303-.26.531-.614.684-1.061.158-.448.237-.957.237-1.528 0-.57-.079-1.08-.237-1.528-.153-.447-.381-.8-.684-1.06-.302-.26-.68-.39-1.131-.39-.456 0-.84.13-1.151.39-.307.26-.539.613-.697 1.06a4.71 4.71 0 0 0-.23 1.528c0 .571.077 1.08.23 1.528.158.447.39.8.697 1.06.311.256.695.384 1.151.384Zm15.427-7.9-3.433 9.818h-3.068l-3.432-9.818h2.876l2.039 7.025h.102l2.033-7.025h2.883Zm4.116-3.273V18.75h-2.723V5.66h2.723Zm2.182 13.091V8.932h2.723v9.818h-2.723Zm1.368-11.084c-.405 0-.753-.134-1.042-.403a1.305 1.305 0 0 1-.429-.977c0-.375.143-.697.429-.966.289-.272.637-.409 1.042-.409.404 0 .75.137 1.035.41.29.268.435.59.435.965 0 .379-.145.705-.435.977a1.456 1.456 0 0 1-1.035.403Zm9.832 6.904V8.932h2.723v9.818h-2.614v-1.783h-.102a2.905 2.905 0 0 1-1.106 1.387c-.512.35-1.136.524-1.873.524-.656 0-1.234-.15-1.732-.448a3.072 3.072 0 0 1-1.17-1.272c-.277-.55-.418-1.208-.422-1.975V8.932h2.723v5.765c.004.58.16 1.038.467 1.375.306.336.718.505 1.233.505.328 0 .635-.075.921-.224a1.76 1.76 0 0 0 .69-.678c.179-.298.266-.667.262-1.105Zm4.901 4.18V8.932h2.595v1.732h.115a2.728 2.728 0 0 1 1.023-1.361c.477-.333 1.048-.499 1.713-.499.674 0 1.247.168 1.72.505.473.332.788.784.946 1.355h.102c.2-.562.563-1.012 1.087-1.349.528-.34 1.152-.511 1.873-.511.916 0 1.659.292 2.23.876.576.58.863 1.402.863 2.467v6.603h-2.716v-6.066c0-.545-.145-.955-.435-1.227-.29-.273-.652-.41-1.087-.41-.494 0-.88.158-1.157.474-.277.31-.415.722-.415 1.233v5.996h-2.64v-6.124c0-.481-.138-.865-.415-1.15-.273-.286-.633-.428-1.081-.428-.302 0-.575.076-.818.23a1.58 1.58 0 0 0-.569.633 2.02 2.02 0 0 0-.211.946v5.893h-2.723Z"/><rect width="240" height="30" x="35.5" y="40.75" fill="#F3F4FC" rx="12"/><path fill="#3140AA" d="M55.321 60.75V49.84h1.321V54.7h5.817V49.84h1.32V60.75h-1.32v-4.88h-5.817v4.88h-1.321Zm13.34.192c-.518 0-.988-.098-1.41-.293a2.423 2.423 0 0 1-1.008-.858c-.248-.376-.372-.83-.372-1.363 0-.47.092-.85.276-1.14.185-.295.432-.526.741-.693.309-.167.65-.291 1.023-.373a12.45 12.45 0 0 1 1.134-.202c.497-.064.9-.112 1.21-.144.312-.035.54-.094.681-.176.146-.081.219-.223.219-.426v-.043c0-.525-.144-.933-.432-1.225-.284-.29-.715-.436-1.294-.436-.6 0-1.07.131-1.412.394-.34.263-.58.543-.719.841l-1.193-.426c.213-.497.497-.884.852-1.161.359-.28.75-.476 1.172-.586.426-.113.845-.17 1.257-.17.263 0 .565.032.906.095a2.9 2.9 0 0 1 .996.379c.323.191.591.48.804.868.213.387.32.905.32 1.555v5.391h-1.257v-1.108h-.064a2.21 2.21 0 0 1-.426.57 2.46 2.46 0 0 1-.794.517c-.33.142-.733.213-1.21.213Zm.192-1.13c.498 0 .917-.097 1.258-.292a1.994 1.994 0 0 0 1.044-1.732v-1.15c-.054.064-.17.122-.352.176a5.92 5.92 0 0 1-.618.133 28.076 28.076 0 0 1-1.204.16 4.8 4.8 0 0 0-.916.207 1.58 1.58 0 0 0-.682.421c-.17.185-.255.437-.255.757 0 .436.161.767.484.99.327.22.74.33 1.242.33Zm5.342.938 3.324-4.155-3.282-4.027h1.492l2.727 3.495h.682v-3.495h1.257v3.495h.66l2.728-3.495h1.491l-3.26 4.027 3.303 4.155h-1.513l-2.77-3.516h-.639v3.516h-1.257v-3.516h-.64l-2.79 3.516h-1.513Zm17.393-1.705 2.855-6.477h1.193L92.1 60.75h-1.023l-3.472-8.182h1.171l2.813 6.477Zm-3.217-6.477v8.182h-1.257v-8.182h1.257Zm6.434 8.182v-8.182h1.257v8.182h-1.257Zm4.816-1.854 3.941-6.328h1.449v8.182h-1.257v-6.328l-3.92 6.328h-1.47v-8.182h1.257v6.328Zm6.579-5.156v-1.172h6.648v1.172h-2.685v7.01h-1.257v-7.01H106.2Zm11.487 7.18c-.788 0-1.468-.174-2.04-.522a3.504 3.504 0 0 1-1.315-1.47c-.306-.632-.459-1.367-.459-2.205 0-.838.153-1.577.459-2.216.309-.643.738-1.143 1.289-1.502.554-.362 1.2-.543 1.939-.543.426 0 .847.07 1.262.213.415.142.794.373 1.135.692.34.316.612.735.815 1.257.202.522.303 1.165.303 1.929v.532h-6.307V56h5.029a2.69 2.69 0 0 0-.277-1.236 2.09 2.09 0 0 0-.778-.858c-.334-.21-.728-.314-1.182-.314-.501 0-.934.124-1.3.373a2.45 2.45 0 0 0-.836.959 2.808 2.808 0 0 0-.293 1.267v.725c0 .618.106 1.142.319 1.571.217.426.517.751.9.975.384.22.83.33 1.337.33.331 0 .629-.046.895-.138.27-.096.503-.238.698-.426.195-.192.346-.43.453-.714l1.214.34a2.68 2.68 0 0 1-.644 1.087c-.302.31-.675.55-1.119.725-.444.17-.943.255-1.497.255Zm12.63-1.342h-1.108l-2.152-3.196v-.106h1.215l2.045 3.302Zm0-6.541-2.045 3.303h-1.215v-.107l2.152-3.196h1.108Zm2.727 6.541h-1.108l-2.152-3.196v-.106h1.215l2.045 3.302Zm0-6.541-2.045 3.303h-1.215v-.107l2.152-3.196h1.108Zm2.433 7.713V49.84h1.321V54.7h5.817V49.84h1.321V60.75h-1.321v-4.88h-5.817v4.88h-1.321Zm13.341.192a3.33 3.33 0 0 1-1.412-.293 2.42 2.42 0 0 1-1.006-.858c-.249-.376-.373-.83-.373-1.363 0-.47.092-.85.277-1.14.184-.295.431-.526.74-.693.309-.167.65-.291 1.023-.373.376-.085.755-.152 1.135-.202.497-.064.9-.112 1.209-.144.312-.035.539-.094.682-.176.145-.081.218-.223.218-.426v-.043c0-.525-.144-.933-.432-1.225-.284-.29-.715-.436-1.294-.436-.6 0-1.071.131-1.412.394-.34.263-.58.543-.719.841l-1.193-.426c.213-.497.497-.884.852-1.161.359-.28.75-.476 1.172-.586a4.87 4.87 0 0 1 1.257-.17c.263 0 .565.032.906.095.344.06.676.187.996.379.323.191.591.48.804.868.213.387.32.905.32 1.555v5.391h-1.257v-1.108h-.064a2.203 2.203 0 0 1-.426.57 2.466 2.466 0 0 1-.794.517c-.33.142-.733.213-1.209.213Zm.192-1.13c.497 0 .916-.097 1.257-.292a1.998 1.998 0 0 0 1.044-1.732v-1.15c-.053.064-.171.122-.352.176-.177.05-.383.094-.618.133a27.622 27.622 0 0 1-1.203.16 4.819 4.819 0 0 0-.917.207 1.58 1.58 0 0 0-.681.421c-.171.185-.256.437-.256.757 0 .436.161.767.485.99.326.22.74.33 1.241.33Zm12.159-7.244v8.182h-1.257v-8.182h1.257Zm-.49 3.9v1.171c-.284.107-.566.2-.847.282-.28.079-.575.14-.884.187a7.475 7.475 0 0 1-1.017.064c-.927 0-1.671-.25-2.232-.751-.558-.5-.837-1.252-.837-2.253v-2.621h1.258v2.62c0 .42.079.764.239 1.034.16.27.377.47.65.602.274.131.581.197.922.197a6.64 6.64 0 0 0 1.443-.144c.433-.1.868-.229 1.305-.389Zm5.204 4.474c-.518 0-.989-.098-1.411-.293a2.423 2.423 0 0 1-1.007-.858c-.248-.376-.373-.83-.373-1.363 0-.47.093-.85.277-1.14.185-.295.432-.526.741-.693a3.886 3.886 0 0 1 1.022-.373c.377-.085.755-.152 1.135-.202.497-.064.9-.112 1.209-.144.313-.035.54-.094.682-.176.146-.081.218-.223.218-.426v-.043c0-.525-.143-.933-.431-1.225-.284-.29-.716-.436-1.295-.436-.6 0-1.07.131-1.411.394-.341.263-.581.543-.719.841l-1.193-.426c.213-.497.497-.884.852-1.161.359-.28.749-.476 1.172-.586.426-.113.845-.17 1.257-.17.263 0 .564.032.905.095.345.06.677.187.996.379.324.191.592.48.805.868.213.387.319.905.319 1.555v5.391h-1.257v-1.108h-.064a2.203 2.203 0 0 1-.426.57 2.46 2.46 0 0 1-.793.517c-.331.142-.734.213-1.21.213Zm.192-1.13c.497 0 .916-.097 1.257-.292a1.991 1.991 0 0 0 1.044-1.732v-1.15c-.053.064-.17.122-.351.176-.178.05-.384.094-.618.133a27.691 27.691 0 0 1-1.204.16 4.791 4.791 0 0 0-.916.207 1.577 1.577 0 0 0-.682.421c-.17.185-.256.437-.256.757 0 .436.162.767.485.99.327.22.74.33 1.241.33Zm4.74-6.072v-1.172h6.647v1.172h-2.684v7.01h-1.257v-7.01h-2.706Zm9.568 1.79h2.343c.959 0 1.693.243 2.2.73.508.486.762 1.102.762 1.848 0 .49-.114.936-.341 1.337a2.473 2.473 0 0 1-1.001.953c-.441.235-.98.352-1.62.352h-3.43v-8.182h1.257v7.01h2.173c.498 0 .906-.131 1.226-.394.319-.263.479-.6.479-1.012 0-.433-.16-.787-.479-1.06-.32-.274-.728-.41-1.226-.41h-2.343V55.53Zm10.926 3.132h1.342c.029.37.196.65.501.842.309.191.71.287 1.204.287.504 0 .936-.103 1.294-.309.359-.21.538-.547.538-1.012 0-.273-.067-.511-.202-.714a1.332 1.332 0 0 0-.57-.479 2.046 2.046 0 0 0-.868-.17h-1.406v-1.13h1.406c.5 0 .87-.113 1.108-.34.241-.228.362-.512.362-.853 0-.366-.13-.659-.389-.879-.259-.224-.627-.335-1.103-.335-.479 0-.878.108-1.198.325-.32.213-.488.488-.506.825h-1.321c.014-.44.149-.829.405-1.166a2.53 2.53 0 0 1 1.044-.8c.44-.195.944-.292 1.513-.292.575 0 1.074.1 1.496.303.426.2.755.47.986.815.234.341.351.728.351 1.162 0 .461-.129.834-.389 1.118a2.15 2.15 0 0 1-.974.607v.086c.309.02.577.12.804.298.231.174.41.403.538.687.128.28.192.591.192.932 0 .497-.133.93-.4 1.3-.266.366-.632.65-1.097.852-.465.199-.996.298-1.593.298a4.059 4.059 0 0 1-1.555-.282c-.458-.192-.822-.456-1.092-.794a1.974 1.974 0 0 1-.421-1.182Zm10.331 2.28c-.518 0-.989-.098-1.411-.293a2.423 2.423 0 0 1-1.007-.858c-.249-.376-.373-.83-.373-1.363 0-.47.092-.85.277-1.14.185-.295.432-.526.74-.693.309-.167.65-.291 1.023-.373.377-.085.755-.152 1.135-.202.497-.064.9-.112 1.209-.144.312-.035.54-.094.682-.176.145-.081.218-.223.218-.426v-.043c0-.525-.144-.933-.431-1.225-.284-.29-.716-.436-1.295-.436-.6 0-1.07.131-1.411.394-.341.263-.581.543-.719.841l-1.194-.426c.214-.497.498-.884.853-1.161.358-.28.749-.476 1.172-.586.426-.113.845-.17 1.257-.17.262 0 .564.032.905.095.345.06.677.187.996.379.323.191.592.48.805.868.213.387.319.905.319 1.555v5.391h-1.257v-1.108h-.064a2.203 2.203 0 0 1-.426.57 2.455 2.455 0 0 1-.794.517c-.33.142-.733.213-1.209.213Zm.192-1.13c.497 0 .916-.097 1.257-.292a1.991 1.991 0 0 0 1.044-1.732v-1.15c-.053.064-.17.122-.351.176-.178.05-.384.094-.618.133a28.398 28.398 0 0 1-1.204.16 4.791 4.791 0 0 0-.916.207 1.577 1.577 0 0 0-.682.421c-.171.185-.256.437-.256.757 0 .436.162.767.485.99.327.22.74.33 1.241.33Zm11.329-3.728v1.172h-4.517v-1.172h4.517Zm-4.219-3.516v8.182h-1.257v-8.182h1.257Zm5.177 0v8.182h-1.257v-8.182h1.257Zm7.218 8.182v-7.031h-2.173c-.49 0-.876.113-1.156.34-.281.228-.421.54-.421.938 0 .39.126.698.378.922.256.223.606.335 1.05.335h2.642v1.172h-2.642c-.554 0-1.032-.098-1.433-.293a2.142 2.142 0 0 1-.927-.836c-.217-.366-.325-.8-.325-1.3 0-.504.114-.937.341-1.3a2.21 2.21 0 0 1 .975-.836c.426-.195.932-.293 1.518-.293h3.366v8.182h-1.193Zm-5.454 0 2.322-4.07h1.364l-2.323 4.07h-1.363Zm7.842-7.01v-1.172h6.648v1.172h-2.685v7.01h-1.257v-7.01h-2.706Zm9.738 5.156 3.942-6.328h1.449v8.182h-1.257v-6.328l-3.921 6.328h-1.47v-8.182h1.257v6.328Zm11.124 2.024c-.789 0-1.469-.174-2.04-.522a3.506 3.506 0 0 1-1.316-1.47c-.305-.632-.458-1.367-.458-2.205 0-.838.153-1.577.458-2.216.309-.643.739-1.143 1.289-1.502.554-.362 1.2-.543 1.939-.543.426 0 .847.07 1.262.213.416.142.794.373 1.135.692.341.316.613.735.815 1.257.202.522.304 1.165.304 1.929v.532h-6.307V56h5.028c0-.462-.092-.874-.277-1.236a2.087 2.087 0 0 0-.777-.858c-.334-.21-.728-.314-1.183-.314-.501 0-.934.124-1.3.373a2.45 2.45 0 0 0-.836.959 2.82 2.82 0 0 0-.293 1.267v.725c0 .618.107 1.142.32 1.571.216.426.516.751.9.975.383.22.829.33 1.337.33.33 0 .628-.046.895-.138.27-.096.502-.238.698-.426.195-.192.346-.43.452-.714l1.215.34a2.694 2.694 0 0 1-.645 1.087c-.302.31-.674.55-1.118.725-.444.17-.943.255-1.497.255Zm5.151-1.342 2.045-3.302h1.215v.106l-2.152 3.196h-1.108Zm0-6.541h1.108l2.152 3.196v.107h-1.215l-2.045-3.303Zm2.727 6.541 2.045-3.302h1.215v.106l-2.152 3.196h-1.108Zm0-6.541h1.108l2.152 3.196v.107h-1.215l-2.045-3.303ZM154.97 95.28a.75.75 0 0 0 1.06 0l4.773-4.773a.75.75 0 0 0-1.06-1.06l-4.243 4.242-4.243-4.242a.75.75 0 1 0-1.06 1.06l4.773 4.773Zm.53-12.53h-.75v12h1.5v-12h-.75Z"/><rect width="240" height="30" x="35.5" y="106.75" fill="#F3F4FC" rx="12"/><path fill="#3140AA" d="M70.481 115.841v10.909h-1.32v-9.737h-5.498v9.737h-1.32v-10.909h8.138Zm2.495 13.977v-11.25h1.214v1.3h.15c.092-.142.22-.323.383-.543.167-.224.405-.423.714-.597.312-.178.735-.266 1.267-.266.69 0 1.297.172 1.822.516.526.345.936.833 1.23 1.465.295.632.443 1.378.443 2.237 0 .867-.148 1.618-.442 2.254-.295.632-.704 1.122-1.226 1.47-.522.344-1.123.516-1.805.516-.526 0-.947-.087-1.263-.261a2.34 2.34 0 0 1-.73-.601 8.242 8.242 0 0 1-.394-.565h-.106v4.325h-1.257Zm1.236-7.159c0 .618.09 1.163.271 1.635.181.469.446.837.794 1.103.348.263.774.394 1.278.394.526 0 .964-.138 1.316-.415.355-.281.622-.657.799-1.13a4.428 4.428 0 0 0 .272-1.587 4.3 4.3 0 0 0-.267-1.555 2.4 2.4 0 0 0-.793-1.103c-.352-.273-.794-.41-1.327-.41-.511 0-.94.13-1.289.389-.348.255-.61.614-.788 1.076-.178.458-.266.992-.266 1.603Zm11.228 4.261c-.738 0-1.386-.175-1.944-.527-.554-.351-.987-.843-1.3-1.475-.309-.632-.463-1.371-.463-2.216 0-.853.154-1.597.463-2.232.313-.636.746-1.129 1.3-1.481.558-.352 1.206-.527 1.944-.527.739 0 1.385.175 1.94.527.557.352.99.845 1.299 1.481.312.635.469 1.379.469 2.232 0 .845-.157 1.584-.47 2.216a3.53 3.53 0 0 1-1.299 1.475c-.554.352-1.2.527-1.939.527Zm0-1.129c.561 0 1.023-.144 1.385-.431.362-.288.63-.666.804-1.135.174-.469.261-.976.261-1.523 0-.547-.087-1.057-.26-1.529a2.576 2.576 0 0 0-.805-1.145c-.362-.291-.824-.437-1.385-.437-.56 0-1.022.146-1.385.437-.362.291-.63.673-.804 1.145a4.388 4.388 0 0 0-.261 1.529c0 .547.087 1.054.261 1.523.174.469.442.847.804 1.135.362.287.824.431 1.385.431Zm5.627.959v-8.182h3.345c.88 0 1.58.199 2.098.597.519.397.778.923.778 1.576 0 .498-.147.883-.442 1.156-.295.27-.673.453-1.135.549.302.043.595.149.88.32a2.1 2.1 0 0 1 .713.703c.188.294.282.657.282 1.086 0 .419-.106.794-.32 1.124a2.18 2.18 0 0 1-.915.783c-.398.192-.874.288-1.428.288h-3.856Zm1.193-1.151h2.663c.433 0 .772-.103 1.017-.309.246-.205.368-.486.368-.841 0-.423-.123-.755-.368-.996-.245-.245-.584-.368-1.017-.368H92.26v2.514Zm0-3.6h2.152c.337 0 .626-.047.868-.139.242-.096.426-.231.554-.405.131-.177.197-.387.197-.628a.926.926 0 0 0-.431-.81c-.288-.199-.684-.298-1.188-.298H92.26v2.28Zm10.66 4.921c-.789 0-1.469-.174-2.04-.522a3.5 3.5 0 0 1-1.316-1.47c-.305-.632-.458-1.367-.458-2.205 0-.838.153-1.577.458-2.216.309-.643.739-1.143 1.289-1.502.554-.362 1.2-.543 1.939-.543.426 0 .847.071 1.262.213.416.142.794.373 1.135.692.341.316.613.735.815 1.257.202.522.304 1.165.304 1.929v.532h-6.307v-1.086h5.028c0-.462-.092-.874-.277-1.236a2.093 2.093 0 0 0-.777-.858c-.334-.209-.728-.314-1.183-.314-.501 0-.934.124-1.3.373a2.446 2.446 0 0 0-.836.959 2.817 2.817 0 0 0-.293 1.267v.725c0 .618.107 1.141.32 1.571.216.426.516.751.9.975.383.22.829.33 1.337.33.33 0 .628-.046.895-.138.27-.096.502-.238.698-.426.195-.192.346-.43.452-.714l1.215.341a2.688 2.688 0 0 1-.645 1.086 3.14 3.14 0 0 1-1.118.725 4.16 4.16 0 0 1-1.497.255Zm5.3 2.898v-11.25h1.214v1.3h.15c.092-.142.22-.323.383-.543.167-.224.405-.423.714-.597.312-.178.735-.266 1.268-.266.689 0 1.296.172 1.821.516.526.345.936.833 1.231 1.465.295.632.442 1.378.442 2.237 0 .867-.147 1.618-.442 2.254-.295.632-.703 1.122-1.225 1.47-.522.344-1.124.516-1.806.516-.526 0-.946-.087-1.263-.261a2.332 2.332 0 0 1-.729-.601 7.952 7.952 0 0 1-.394-.565h-.107v4.325h-1.257Zm1.236-7.159c0 .618.09 1.163.271 1.635.181.469.446.837.794 1.103.348.263.774.394 1.278.394.526 0 .965-.138 1.316-.415.355-.281.622-.657.799-1.13a4.43 4.43 0 0 0 .272-1.587c0-.575-.089-1.094-.267-1.555-.174-.466-.438-.833-.793-1.103-.352-.273-.794-.41-1.327-.41-.511 0-.941.13-1.289.389-.348.255-.61.614-.788 1.076-.178.458-.266.992-.266 1.603Zm8.991-1.129h2.344c.959 0 1.692.243 2.2.73.508.486.762 1.102.762 1.848 0 .49-.114.936-.341 1.337a2.468 2.468 0 0 1-1.002.953c-.44.235-.98.352-1.619.352h-3.43v-8.182h1.257v7.01h2.173c.497 0 .905-.131 1.225-.394.32-.263.479-.6.479-1.012 0-.433-.159-.787-.479-1.06-.32-.274-.728-.41-1.225-.41h-2.344v-1.172Zm5.901-1.79v-1.172h6.648v1.172h-2.685v7.01h-1.257v-7.01h-2.706Zm11.487 7.18c-.788 0-1.469-.174-2.04-.522a3.5 3.5 0 0 1-1.316-1.47c-.305-.632-.458-1.367-.458-2.205 0-.838.153-1.577.458-2.216.309-.643.739-1.143 1.289-1.502.554-.362 1.2-.543 1.939-.543.426 0 .847.071 1.262.213.416.142.794.373 1.135.692.341.316.613.735.815 1.257.202.522.304 1.165.304 1.929v.532h-6.307v-1.086h5.028c0-.462-.092-.874-.277-1.236a2.093 2.093 0 0 0-.777-.858c-.334-.209-.728-.314-1.183-.314-.501 0-.934.124-1.3.373a2.446 2.446 0 0 0-.836.959 2.817 2.817 0 0 0-.293 1.267v.725c0 .618.107 1.141.32 1.571.216.426.516.751.9.975.383.22.829.33 1.337.33.33 0 .628-.046.895-.138.27-.096.502-.238.698-.426.195-.192.346-.43.452-.714l1.215.341a2.688 2.688 0 0 1-.645 1.086 3.14 3.14 0 0 1-1.118.725 4.16 4.16 0 0 1-1.497.255Zm12.843 0c-.739 0-1.387-.175-1.945-.527-.554-.351-.987-.843-1.299-1.475-.309-.632-.464-1.371-.464-2.216 0-.853.155-1.597.464-2.232.312-.636.745-1.129 1.299-1.481.558-.352 1.206-.527 1.945-.527.738 0 1.385.175 1.938.527.558.352.991.845 1.3 1.481.313.635.469 1.379.469 2.232 0 .845-.156 1.584-.469 2.216a3.527 3.527 0 0 1-1.3 1.475c-.553.352-1.2.527-1.938.527Zm0-1.129c.561 0 1.022-.144 1.384-.431a2.54 2.54 0 0 0 .805-1.135c.174-.469.261-.976.261-1.523 0-.547-.087-1.057-.261-1.529a2.572 2.572 0 0 0-.805-1.145c-.362-.291-.823-.437-1.384-.437-.562 0-1.023.146-1.385.437a2.572 2.572 0 0 0-.805 1.145 4.388 4.388 0 0 0-.261 1.529c0 .547.087 1.054.261 1.523.174.469.442.847.805 1.135.362.287.823.431 1.385.431Zm11.698-10.291.64.767c-.249.242-.537.41-.863.506a4.805 4.805 0 0 1-1.108.176c-.412.021-.87.042-1.375.064-.568.021-1.038.16-1.411.415-.373.256-.661.625-.863 1.108-.203.483-.332 1.076-.389 1.779h.107a2.6 2.6 0 0 1 1.15-1.129 3.527 3.527 0 0 1 1.577-.362c.639 0 1.214.149 1.726.447.511.299.916.741 1.214 1.327.298.586.448 1.308.448 2.168 0 .855-.153 1.594-.458 2.216a3.384 3.384 0 0 1-1.274 1.438c-.543.334-1.18.5-1.912.5-.731 0-1.372-.172-1.923-.516-.55-.348-.978-.863-1.284-1.545-.305-.685-.458-1.532-.458-2.541v-.873c0-1.822.309-3.204.927-4.145.622-.941 1.556-1.427 2.802-1.459.44-.014.833-.018 1.177-.011.345.007.645-.009.9-.048.256-.039.473-.133.65-.282Zm-2.791 10.291c.494 0 .918-.124 1.273-.373.359-.248.634-.598.826-1.049.192-.455.288-.989.288-1.603 0-.597-.098-1.105-.293-1.524a2.135 2.135 0 0 0-.826-.959c-.359-.22-.788-.33-1.289-.33a2.48 2.48 0 0 0-.986.187 1.999 1.999 0 0 0-.745.548 2.587 2.587 0 0 0-.48.884c-.11.348-.168.746-.176 1.194 0 .916.215 1.649.645 2.2.43.55 1.017.825 1.763.825Zm8.89 1.129c-.738 0-1.386-.175-1.944-.527-.554-.351-.987-.843-1.3-1.475-.309-.632-.463-1.371-.463-2.216 0-.853.154-1.597.463-2.232.313-.636.746-1.129 1.3-1.481.558-.352 1.206-.527 1.944-.527.739 0 1.385.175 1.939.527.558.352.991.845 1.3 1.481.313.635.469 1.379.469 2.232 0 .845-.156 1.584-.469 2.216a3.527 3.527 0 0 1-1.3 1.475c-.554.352-1.2.527-1.939.527Zm0-1.129c.561 0 1.023-.144 1.385-.431a2.54 2.54 0 0 0 .805-1.135c.174-.469.261-.976.261-1.523 0-.547-.087-1.057-.261-1.529a2.572 2.572 0 0 0-.805-1.145c-.362-.291-.824-.437-1.385-.437s-1.022.146-1.385.437c-.362.291-.63.673-.804 1.145a4.388 4.388 0 0 0-.261 1.529c0 .547.087 1.054.261 1.523.174.469.442.847.804 1.135.363.287.824.431 1.385.431Zm5.627 4.027v-11.25h1.214v1.3h.149c.093-.142.221-.323.384-.543.167-.224.405-.423.714-.597.312-.178.735-.266 1.267-.266.689 0 1.297.172 1.822.516.526.345.936.833 1.231 1.465.294.632.442 1.378.442 2.237 0 .867-.148 1.618-.442 2.254-.295.632-.703 1.122-1.226 1.47-.522.344-1.123.516-1.805.516-.526 0-.947-.087-1.263-.261a2.332 2.332 0 0 1-.729-.601 8.372 8.372 0 0 1-.395-.565h-.106v4.325h-1.257Zm1.236-7.159c0 .618.09 1.163.271 1.635.181.469.446.837.794 1.103.348.263.774.394 1.278.394.526 0 .964-.138 1.316-.415.355-.281.621-.657.799-1.13a4.43 4.43 0 0 0 .272-1.587c0-.575-.089-1.094-.267-1.555-.174-.466-.438-.833-.793-1.103-.352-.273-.794-.41-1.327-.41-.511 0-.941.13-1.289.389-.348.255-.611.614-.788 1.076-.178.458-.266.992-.266 1.603Zm8.421 7.159c-.213 0-.403-.018-.57-.053a1.5 1.5 0 0 1-.346-.096l.319-1.108c.306.078.576.107.81.085a.97.97 0 0 0 .623-.314c.185-.185.354-.485.506-.9l.235-.639-3.026-8.225h1.364l2.258 6.52h.086l2.258-6.52h1.364l-3.473 9.375c-.157.423-.35.773-.581 1.05-.231.28-.499.488-.804.623a2.48 2.48 0 0 1-1.023.202Zm5.978-.724v-3.516h.682a3.118 3.118 0 0 0 .746-1.284c.092-.28.17-.621.234-1.022.064-.405.121-.893.17-1.465l.277-3.239h5.199v7.01h1.257v3.516h-1.257v-2.344h-6.051v2.344h-1.257Zm2.109-3.516h3.942v-5.838h-2.77l-.213 2.067a23.303 23.303 0 0 1-.33 2.242c-.132.64-.341 1.149-.629 1.529Zm11.449 1.342c-.739 0-1.387-.175-1.945-.527a3.58 3.58 0 0 1-1.299-1.475c-.309-.632-.464-1.371-.464-2.216 0-.853.155-1.597.464-2.232a3.578 3.578 0 0 1 1.299-1.481c.558-.352 1.206-.527 1.945-.527.738 0 1.385.175 1.939.527.557.352.99.845 1.299 1.481.313.635.469 1.379.469 2.232 0 .845-.156 1.584-.469 2.216a3.532 3.532 0 0 1-1.299 1.475c-.554.352-1.201.527-1.939.527Zm0-1.129c.561 0 1.022-.144 1.385-.431.362-.288.63-.666.804-1.135.174-.469.261-.976.261-1.523 0-.547-.087-1.057-.261-1.529a2.577 2.577 0 0 0-.804-1.145c-.363-.291-.824-.437-1.385-.437s-1.023.146-1.385.437a2.58 2.58 0 0 0-.805 1.145 4.388 4.388 0 0 0-.261 1.529c0 .547.087 1.054.261 1.523.174.469.443.847.805 1.135.362.287.824.431 1.385.431Zm5.626.959v-8.182h3.345c.881 0 1.581.199 2.099.597.518.397.778.923.778 1.576 0 .498-.148.883-.442 1.156-.295.27-.673.453-1.135.549.302.043.595.149.879.32.288.17.525.404.714.703.188.294.282.657.282 1.086 0 .419-.107.794-.32 1.124a2.176 2.176 0 0 1-.916.783c-.398.192-.873.288-1.427.288h-3.857Zm1.193-1.151h2.664c.433 0 .772-.103 1.017-.309.245-.205.368-.486.368-.841 0-.423-.123-.755-.368-.996-.245-.245-.584-.368-1.017-.368h-2.664v2.514Zm0-3.6h2.152c.338 0 .627-.047.868-.139.242-.096.427-.231.554-.405.132-.177.198-.387.198-.628a.926.926 0 0 0-.432-.81c-.288-.199-.683-.298-1.188-.298h-2.152v2.28Zm9.638 4.943c-.519 0-.989-.098-1.412-.293a2.424 2.424 0 0 1-1.007-.858c-.248-.376-.373-.831-.373-1.363 0-.469.093-.849.277-1.14.185-.295.432-.526.741-.693a3.9 3.9 0 0 1 1.023-.373c.376-.085.754-.152 1.134-.202.497-.064.9-.112 1.209-.144.313-.035.54-.094.682-.176.146-.081.218-.223.218-.426v-.042c0-.526-.143-.934-.431-1.226-.284-.291-.716-.436-1.294-.436-.6 0-1.071.131-1.412.394-.341.263-.581.543-.719.841l-1.193-.426c.213-.497.497-.884.852-1.161a3.186 3.186 0 0 1 1.172-.586c.426-.114.845-.17 1.257-.17.263 0 .565.032.906.096.344.06.676.186.996.378.323.191.591.481.804.868.213.387.32.906.32 1.555v5.391h-1.258v-1.108h-.063a2.22 2.22 0 0 1-.427.57 2.455 2.455 0 0 1-.793.517c-.33.142-.734.213-1.209.213Zm.191-1.13c.498 0 .917-.097 1.257-.292a1.997 1.997 0 0 0 1.044-1.732v-1.15c-.053.064-.17.122-.351.176a6.159 6.159 0 0 1-.618.133c-.231.035-.456.067-.676.096-.217.024-.393.046-.528.064a4.739 4.739 0 0 0-.916.207 1.586 1.586 0 0 0-.682.421c-.17.185-.255.437-.255.756 0 .437.161.768.484.991.327.22.741.33 1.241.33Zm11.329-3.728v1.172h-4.517v-1.172h4.517Zm-4.219-3.516v8.182h-1.257v-8.182h1.257Zm5.178 0v8.182h-1.257v-8.182h1.257Zm3.553 6.328 3.941-6.328h1.449v8.182h-1.257v-6.328l-3.92 6.328h-1.47v-8.182h1.257v6.328Zm11.123 2.024c-.788 0-1.468-.174-2.04-.522a3.5 3.5 0 0 1-1.316-1.47c-.305-.632-.458-1.367-.458-2.205 0-.838.153-1.577.458-2.216.309-.643.739-1.143 1.289-1.502.554-.362 1.201-.543 1.939-.543.426 0 .847.071 1.263.213.415.142.793.373 1.134.692.341.316.613.735.815 1.257.203.522.304 1.165.304 1.929v.532h-6.307v-1.086h5.029a2.69 2.69 0 0 0-.277-1.236 2.102 2.102 0 0 0-.778-.858c-.334-.209-.728-.314-1.183-.314-.5 0-.934.124-1.299.373a2.448 2.448 0 0 0-.837.959 2.817 2.817 0 0 0-.293 1.267v.725c0 .618.107 1.141.32 1.571.217.426.517.751.9.975.384.22.829.33 1.337.33.33 0 .629-.046.895-.138.27-.096.503-.238.698-.426a1.95 1.95 0 0 0 .453-.714l1.214.341a2.697 2.697 0 0 1-.644 1.086 3.144 3.144 0 0 1-1.119.725 4.16 4.16 0 0 1-1.497.255ZM154.97 161.28a.749.749 0 0 0 1.06 0l4.773-4.773a.749.749 0 1 0-1.06-1.06l-4.243 4.242-4.243-4.242a.749.749 0 1 0-1.06 1.06l4.773 4.773Zm.53-12.53h-.75v12h1.5v-12h-.75Z"/><rect width="240" height="30" x="35.5" y="172.75" fill="#F3F4FC" rx="12"/><path fill="#3140AA" d="M71.481 181.841v10.909h-1.32v-9.737h-5.498v9.737h-1.32v-10.909h8.138ZM77.3 192.92c-.739 0-1.387-.175-1.945-.527-.554-.351-.987-.843-1.3-1.475-.308-.632-.463-1.371-.463-2.216 0-.853.155-1.597.464-2.232.312-.636.745-1.129 1.3-1.481.557-.352 1.205-.527 1.944-.527.738 0 1.385.175 1.939.527.557.352.99.845 1.3 1.481.312.635.468 1.379.468 2.232 0 .845-.156 1.584-.469 2.216a3.53 3.53 0 0 1-1.3 1.475c-.553.352-1.2.527-1.938.527Zm0-1.129c.56 0 1.022-.144 1.385-.431.362-.288.63-.666.804-1.135.174-.469.26-.976.26-1.523 0-.547-.086-1.057-.26-1.529a2.576 2.576 0 0 0-.804-1.145c-.363-.291-.824-.437-1.385-.437s-1.023.146-1.385.437c-.363.291-.63.673-.805 1.145a4.386 4.386 0 0 0-.26 1.529c0 .547.086 1.054.26 1.523.174.469.442.847.805 1.135.362.287.823.431 1.385.431Zm4.752 3.303v-3.516h.682c.167-.174.31-.362.432-.565.12-.202.225-.442.314-.719.092-.28.17-.621.234-1.022.064-.405.121-.893.17-1.465l.278-3.239h5.199v7.01h1.257v3.516H89.36v-2.344h-6.052v2.344h-1.257Zm2.11-3.516h3.941v-5.838h-2.77l-.212 2.067a23.108 23.108 0 0 1-.33 2.242c-.132.64-.342 1.149-.63 1.529Zm8.124 1.172v-8.182h1.257v3.558h.831l2.94-3.558h1.62l-3.302 3.942 3.345 4.24h-1.62l-2.684-3.452h-1.13v3.452h-1.257Zm7.332 0v-1.172h.299c.245 0 .449-.048.612-.144.164-.099.295-.271.395-.516.103-.249.181-.593.234-1.034.057-.444.098-1.008.122-1.694l.15-3.622h5.454v8.182h-1.257v-7.01h-3.004l-.128 2.919a13.225 13.225 0 0 1-.181 1.774c-.089.508-.226.934-.41 1.278a1.875 1.875 0 0 1-.725.778c-.302.174-.68.261-1.134.261h-.427Zm13.493-4.602v1.172h-4.325v-1.172h4.325Zm-3.26-3.58v8.182h-1.257v-8.182h1.257Zm5.774 8.352c-.738 0-1.386-.175-1.944-.527-.554-.351-.987-.843-1.3-1.475-.309-.632-.463-1.371-.463-2.216 0-.853.154-1.597.463-2.232.313-.636.746-1.129 1.3-1.481.558-.352 1.206-.527 1.944-.527.739 0 1.385.175 1.939.527.558.352.991.845 1.3 1.481.312.635.469 1.379.469 2.232 0 .845-.157 1.584-.469 2.216a3.527 3.527 0 0 1-1.3 1.475c-.554.352-1.2.527-1.939.527Zm0-1.129c.561 0 1.023-.144 1.385-.431.362-.288.631-.666.805-1.135.174-.469.261-.976.261-1.523 0-.547-.087-1.057-.261-1.529a2.58 2.58 0 0 0-.805-1.145c-.362-.291-.824-.437-1.385-.437s-1.022.146-1.385.437c-.362.291-.63.673-.804 1.145a4.388 4.388 0 0 0-.261 1.529c0 .547.087 1.054.261 1.523.174.469.442.847.804 1.135.363.287.824.431 1.385.431Zm12.06-7.223v8.182h-1.257v-8.182h1.257Zm-.49 3.899v1.172c-.284.107-.567.201-.847.283a7.34 7.34 0 0 1-.884.186 7.415 7.415 0 0 1-1.018.064c-.927 0-1.671-.25-2.232-.751-.557-.501-.836-1.252-.836-2.253v-2.621h1.257v2.621c0 .419.08.763.24 1.033.16.27.376.471.65.602.273.131.58.197.921.197.533 0 1.014-.048 1.444-.144.433-.099.868-.229 1.305-.389Zm4.053 2.429 3.942-6.328h1.449v8.182h-1.257v-6.328l-3.92 6.328h-1.471v-8.182h1.257v6.328Zm6.58-5.156v-1.172h6.648v1.172h-2.685v7.01h-1.257v-7.01h-2.706Zm11.487 7.18c-.788 0-1.468-.174-2.04-.522a3.49 3.49 0 0 1-1.315-1.47c-.306-.632-.459-1.367-.459-2.205 0-.838.153-1.577.459-2.216.308-.643.738-1.143 1.289-1.502.554-.362 1.2-.543 1.939-.543.426 0 .846.071 1.262.213a3.14 3.14 0 0 1 1.135.692c.34.316.612.735.815 1.257.202.522.303 1.165.303 1.929v.532h-6.307v-1.086h5.029a2.69 2.69 0 0 0-.277-1.236 2.095 2.095 0 0 0-.778-.858c-.334-.209-.728-.314-1.182-.314-.501 0-.934.124-1.3.373a2.456 2.456 0 0 0-.837.959 2.816 2.816 0 0 0-.292 1.267v.725c0 .618.106 1.141.319 1.571.217.426.517.751.9.975.384.22.83.33 1.337.33.331 0 .629-.046.895-.138.27-.096.503-.238.698-.426a1.95 1.95 0 0 0 .453-.714l1.214.341a2.686 2.686 0 0 1-.644 1.086 3.144 3.144 0 0 1-1.119.725 4.16 4.16 0 0 1-1.497.255Zm8.624 0c-.767 0-1.427-.181-1.981-.543a3.544 3.544 0 0 1-1.279-1.497c-.298-.635-.447-1.362-.447-2.178 0-.831.153-1.565.458-2.2.309-.639.739-1.138 1.289-1.497.554-.362 1.2-.543 1.939-.543.575 0 1.094.106 1.555.319.462.213.84.512 1.135.895.295.384.478.831.549 1.342H159.9c-.096-.372-.309-.703-.64-.99-.326-.291-.767-.437-1.321-.437-.49 0-.919.128-1.289.383-.366.253-.651.609-.857 1.071-.203.458-.304.996-.304 1.614 0 .632.099 1.183.298 1.651.203.469.487.833.853 1.092.369.26.802.389 1.299.389.327 0 .623-.057.89-.17.266-.114.492-.277.676-.49.185-.213.316-.469.395-.767h1.257a2.907 2.907 0 0 1-1.63 2.221c-.455.224-.984.335-1.588.335Zm6.142-5.39h2.344c.959 0 1.692.243 2.2.73.507.486.761 1.102.761 1.848 0 .49-.113.936-.341 1.337a2.465 2.465 0 0 1-1.001.953c-.44.235-.98.352-1.619.352h-3.431v-8.182h1.257v7.01h2.174c.497 0 .905-.131 1.225-.394.319-.263.479-.6.479-1.012 0-.433-.16-.787-.479-1.06-.32-.274-.728-.41-1.225-.41h-2.344v-1.172Zm11.438 5.22v-8.182h1.257v3.558h.831l2.94-3.558h1.619l-3.302 3.942 3.345 4.24h-1.619l-2.685-3.452h-1.129v3.452h-1.257Zm11.764-2.088h1.342c.028.369.195.65.501.842.309.191.71.287 1.204.287.504 0 .935-.103 1.294-.309.359-.209.538-.547.538-1.012a1.259 1.259 0 0 0-.772-1.193 2.045 2.045 0 0 0-.869-.17h-1.406v-1.13h1.406c.501 0 .87-.113 1.108-.341a1.12 1.12 0 0 0 .363-.852c0-.366-.13-.659-.389-.879-.26-.224-.627-.335-1.103-.335-.479 0-.879.108-1.198.325-.32.213-.489.488-.506.825h-1.321a1.99 1.99 0 0 1 .404-1.166 2.536 2.536 0 0 1 1.044-.799c.441-.196.945-.293 1.513-.293.575 0 1.074.101 1.497.303.426.199.755.471.985.815.235.341.352.728.352 1.161 0 .462-.13.835-.389 1.119a2.143 2.143 0 0 1-.975.607v.086c.309.021.577.12.805.298.23.174.41.403.538.687.128.281.191.591.191.932 0 .497-.133.931-.399 1.3-.266.366-.632.65-1.097.852-.466.199-.996.298-1.593.298a4.062 4.062 0 0 1-1.555-.282c-.459-.192-.823-.456-1.092-.794a1.965 1.965 0 0 1-.421-1.182Zm10.331 2.28c-.519 0-.989-.098-1.412-.293a2.421 2.421 0 0 1-1.006-.858c-.249-.376-.373-.831-.373-1.363 0-.469.092-.849.277-1.14.184-.295.431-.526.74-.693a3.9 3.9 0 0 1 1.023-.373c.376-.085.754-.152 1.134-.202a51.7 51.7 0 0 1 1.21-.144c.312-.035.539-.094.681-.176.146-.081.219-.223.219-.426v-.042c0-.526-.144-.934-.432-1.226-.284-.291-.715-.436-1.294-.436-.6 0-1.071.131-1.412.394-.341.263-.58.543-.719.841l-1.193-.426c.213-.497.497-.884.852-1.161.359-.281.75-.476 1.172-.586.426-.114.845-.17 1.257-.17.263 0 .565.032.906.096.344.06.676.186.996.378.323.191.591.481.804.868.213.387.32.906.32 1.555v5.391h-1.257v-1.108h-.064a2.19 2.19 0 0 1-.426.57 2.471 2.471 0 0 1-.794.517c-.33.142-.733.213-1.209.213Zm.192-1.13c.497 0 .916-.097 1.257-.292a2.001 2.001 0 0 0 1.044-1.732v-1.15c-.053.064-.171.122-.352.176a6.04 6.04 0 0 1-.618.133c-.23.035-.456.067-.676.096-.217.024-.393.046-.527.064a4.75 4.75 0 0 0-.917.207c-.28.093-.508.233-.682.421-.17.185-.255.437-.255.756 0 .437.161.768.485.991.326.22.74.33 1.241.33Zm11.328-3.728v1.172h-4.517v-1.172h4.517Zm-4.219-3.516v8.182h-1.257v-8.182h1.257Zm5.178 0v8.182h-1.257v-8.182h1.257Zm7.218 8.182v-7.031h-2.174c-.49 0-.875.113-1.155.341-.281.227-.421.539-.421.937 0 .391.126.698.378.922.256.223.605.335 1.049.335h2.642v1.172h-2.642c-.554 0-1.031-.098-1.433-.293a2.139 2.139 0 0 1-.926-.836c-.217-.366-.325-.799-.325-1.3 0-.504.113-.937.341-1.3.227-.362.552-.641.974-.836.426-.195.932-.293 1.518-.293h3.367v8.182h-1.193Zm-5.455 0 2.323-4.07h1.363l-2.322 4.07h-1.364Zm7.842-7.01v-1.172h6.648v1.172h-2.685v7.01h-1.257v-7.01h-2.706Zm9.739 5.156 3.942-6.328h1.449v8.182h-1.258v-6.328l-3.92 6.328h-1.47v-8.182h1.257v6.328Zm11.614-2.748v1.172h-4.326v-1.172h4.326Zm-3.26-3.58v8.182h-1.258v-8.182h1.258Zm5.774 8.352c-.739 0-1.387-.175-1.945-.527-.554-.351-.987-.843-1.299-1.475-.309-.632-.464-1.371-.464-2.216 0-.853.155-1.597.464-2.232.312-.636.745-1.129 1.299-1.481.558-.352 1.206-.527 1.945-.527.738 0 1.385.175 1.939.527.557.352.99.845 1.299 1.481.313.635.469 1.379.469 2.232 0 .845-.156 1.584-.469 2.216a3.532 3.532 0 0 1-1.299 1.475c-.554.352-1.201.527-1.939.527Zm0-1.129c.561 0 1.022-.144 1.385-.431.362-.288.63-.666.804-1.135.174-.469.261-.976.261-1.523 0-.547-.087-1.057-.261-1.529a2.577 2.577 0 0 0-.804-1.145c-.363-.291-.824-.437-1.385-.437s-1.023.146-1.385.437a2.58 2.58 0 0 0-.805 1.145 4.388 4.388 0 0 0-.261 1.529c0 .547.087 1.054.261 1.523.174.469.443.847.805 1.135.362.287.824.431 1.385.431Z"/><g filter="url(#a)"><g clip-path="url(#b)"><path fill="#4554C9" d="M27.591 259.111c0 3.581-1.965 8.553-5.896 9.548 0 0-.787 0-.787.796 0 .795.787.795.787.795h5.896v-11.139Z"/></g><g clip-path="url(#c)"><path fill="#4554C9" d="M27.625 232.319a5.57 5.57 0 0 1 5.57-5.569H280.1c5.537 0 10.025 4.488 10.025 10.025v22.95c0 5.537-4.488 10.025-10.025 10.025H27.625v-37.431Z"/><path fill="#F3F4FC" d="M49.106 242.841v10.909h-1.32v-9.737h-5.498v9.737h-1.32v-10.909h8.138Zm5.819 11.079c-.739 0-1.387-.175-1.945-.527-.554-.351-.987-.843-1.3-1.475-.308-.632-.463-1.371-.463-2.216 0-.853.155-1.597.464-2.232.312-.636.745-1.129 1.3-1.481.557-.352 1.205-.527 1.944-.527.738 0 1.385.175 1.939.527.557.352.99.845 1.3 1.481.312.635.468 1.379.468 2.232 0 .845-.156 1.584-.469 2.216a3.53 3.53 0 0 1-1.3 1.475c-.553.352-1.2.527-1.938.527Zm0-1.129c.56 0 1.022-.144 1.385-.431.362-.288.63-.666.804-1.135.174-.469.26-.976.26-1.523 0-.547-.086-1.057-.26-1.529a2.576 2.576 0 0 0-.804-1.145c-.363-.291-.824-.437-1.385-.437s-1.023.146-1.385.437c-.362.291-.63.673-.805 1.145a4.386 4.386 0 0 0-.26 1.529c0 .547.086 1.054.26 1.523.174.469.443.847.805 1.135.362.287.824.431 1.385.431Zm9.056 1.129c-.788 0-1.468-.174-2.04-.522a3.498 3.498 0 0 1-1.316-1.47c-.305-.632-.458-1.367-.458-2.205 0-.838.153-1.577.459-2.216.309-.643.738-1.143 1.289-1.502.554-.362 1.2-.543 1.938-.543.427 0 .848.071 1.263.213.415.142.794.373 1.135.692.34.316.612.735.814 1.257.203.522.304 1.165.304 1.929v.532h-6.307v-1.086h5.029c0-.462-.093-.874-.277-1.236a2.092 2.092 0 0 0-.778-.858c-.334-.209-.728-.314-1.183-.314-.5 0-.933.124-1.3.373a2.447 2.447 0 0 0-.835.959 2.813 2.813 0 0 0-.294 1.267v.725c0 .618.107 1.141.32 1.571.217.426.517.751.9.975.384.22.83.33 1.337.33.33 0 .629-.046.895-.138a1.92 1.92 0 0 0 .698-.426c.195-.192.346-.43.453-.714l1.214.341a2.687 2.687 0 0 1-.644 1.086 3.143 3.143 0 0 1-1.119.725c-.444.17-.943.255-1.497.255ZM70 245.568l1.96 3.345 1.96-3.345h1.45l-2.642 4.091 2.641 4.091H73.92l-1.96-3.175L70 253.75h-1.45l2.6-4.091-2.6-4.091H70Zm9.571 8.374a3.33 3.33 0 0 1-1.412-.293 2.424 2.424 0 0 1-1.006-.858c-.249-.376-.373-.831-.373-1.363 0-.469.092-.849.277-1.14.184-.295.431-.526.74-.693.31-.167.65-.291 1.023-.373.376-.085.754-.152 1.135-.202.497-.064.9-.112 1.209-.144.312-.035.54-.094.681-.176.146-.081.219-.223.219-.426v-.042c0-.526-.144-.934-.432-1.226-.284-.291-.715-.436-1.294-.436-.6 0-1.07.131-1.412.394-.34.263-.58.543-.719.841l-1.193-.426c.213-.497.497-.884.852-1.161.36-.281.75-.476 1.172-.586.426-.114.845-.17 1.257-.17.263 0 .565.032.906.096.344.06.676.186.996.378.323.191.591.481.804.868.213.387.32.906.32 1.555v5.391h-1.257v-1.108h-.064a2.197 2.197 0 0 1-.426.57 2.465 2.465 0 0 1-.794.517c-.33.142-.733.213-1.209.213Zm.192-1.13c.497 0 .916-.097 1.257-.292a2 2 0 0 0 1.044-1.732v-1.15c-.053.064-.17.122-.352.176a6.108 6.108 0 0 1-.618.133c-.23.035-.456.067-.676.096a23.87 23.87 0 0 0-.527.064 4.748 4.748 0 0 0-.917.207c-.28.093-.507.233-.681.421-.17.185-.256.437-.256.756 0 .437.161.768.485.991.326.22.74.33 1.24.33Zm5.128.938v-1.172h.298c.245 0 .45-.048.613-.144.163-.099.295-.271.394-.516.103-.249.181-.593.234-1.034.057-.444.098-1.008.123-1.694l.15-3.622h5.454v8.182h-1.258v-7.01h-3.004l-.128 2.919a13.24 13.24 0 0 1-.18 1.774c-.09.508-.226.934-.41 1.278a1.875 1.875 0 0 1-.725.778c-.302.174-.68.261-1.135.261h-.426Zm10.83-1.854 3.941-6.328h1.449v8.182h-1.257v-6.328l-3.92 6.328h-1.47v-8.182h1.256v6.328Zm15.235 2.024c-.739 0-1.387-.175-1.944-.527a3.575 3.575 0 0 1-1.3-1.475c-.309-.632-.463-1.371-.463-2.216 0-.853.154-1.597.463-2.232a3.574 3.574 0 0 1 1.3-1.481c.557-.352 1.205-.527 1.944-.527.739 0 1.385.175 1.939.527.557.352.991.845 1.3 1.481.312.635.468 1.379.468 2.232 0 .845-.156 1.584-.468 2.216a3.534 3.534 0 0 1-1.3 1.475c-.554.352-1.2.527-1.939.527Zm0-1.129c.561 0 1.023-.144 1.385-.431.362-.288.63-.666.804-1.135.174-.469.261-.976.261-1.523 0-.547-.087-1.057-.261-1.529a2.577 2.577 0 0 0-.804-1.145c-.362-.291-.824-.437-1.385-.437s-1.023.146-1.385.437c-.362.291-.63.673-.804 1.145a4.388 4.388 0 0 0-.261 1.529c0 .547.087 1.054.261 1.523.174.469.442.847.804 1.135.362.287.824.431 1.385.431Zm11.699-10.291.639.767c-.249.242-.536.41-.863.506a4.805 4.805 0 0 1-1.108.176c-.412.021-.87.042-1.374.064-.568.021-1.039.16-1.412.415-.373.256-.66.625-.863 1.108-.202.483-.332 1.076-.389 1.779h.107a2.6 2.6 0 0 1 1.15-1.129 3.53 3.53 0 0 1 1.577-.362c.639 0 1.215.149 1.726.447.511.299.916.741 1.215 1.327.298.586.447 1.308.447 2.168 0 .855-.153 1.594-.458 2.216-.302.621-.726 1.1-1.273 1.438-.544.334-1.181.5-1.913.5-.731 0-1.372-.172-1.922-.516-.551-.348-.979-.863-1.284-1.545-.306-.685-.458-1.532-.458-2.541v-.873c0-1.822.309-3.204.927-4.145.621-.941 1.555-1.427 2.801-1.459a22.93 22.93 0 0 1 1.178-.011c.344.007.644-.009.9-.048.255-.039.472-.133.65-.282Zm-2.792 10.291c.494 0 .918-.124 1.274-.373.358-.248.633-.598.825-1.049.192-.455.288-.989.288-1.603 0-.597-.098-1.105-.293-1.524a2.135 2.135 0 0 0-.826-.959c-.358-.22-.788-.33-1.289-.33-.366 0-.694.062-.985.187-.291.124-.54.307-.746.548a2.57 2.57 0 0 0-.479.884c-.11.348-.169.746-.176 1.194 0 .916.215 1.649.644 2.2.43.55 1.018.825 1.763.825Zm6.567-7.223v1.172h-2.28v-1.172h2.28Zm1.087 2.962h2.343c.959 0 1.692.243 2.2.73.508.486.762 1.102.762 1.848 0 .49-.114.936-.341 1.337a2.465 2.465 0 0 1-1.001.953c-.441.235-.98.352-1.62.352h-3.43v-8.182h1.257v7.01h2.173c.498 0 .906-.131 1.226-.394.319-.263.479-.6.479-1.012 0-.433-.16-.787-.479-1.06-.32-.274-.728-.41-1.226-.41h-2.343v-1.172Zm12.151 5.22v-7.031h-2.173c-.49 0-.875.113-1.156.341-.281.227-.421.539-.421.937 0 .391.126.698.378.922.256.223.606.335 1.05.335h2.642v1.172h-2.642c-.554 0-1.032-.098-1.433-.293a2.147 2.147 0 0 1-.927-.836c-.217-.366-.325-.799-.325-1.3 0-.504.114-.937.341-1.3.227-.362.552-.641.975-.836.426-.195.932-.293 1.518-.293h3.366v8.182h-1.193Zm-5.454 0 2.322-4.07h1.364l-2.323 4.07h-1.363Zm12.279.17c-.767 0-1.428-.181-1.982-.543a3.535 3.535 0 0 1-1.278-1.497c-.298-.635-.447-1.362-.447-2.178 0-.831.152-1.565.458-2.2.309-.639.738-1.138 1.289-1.497.554-.362 1.2-.543 1.939-.543a3.67 3.67 0 0 1 1.555.319c.462.213.84.512 1.135.895a2.8 2.8 0 0 1 .548 1.342h-1.257c-.096-.372-.309-.703-.639-.99-.327-.291-.767-.437-1.321-.437-.49 0-.92.128-1.289.383-.366.253-.652.609-.858 1.071-.202.458-.303.996-.303 1.614 0 .632.099 1.183.298 1.651.202.469.487.833.852 1.092.37.26.803.389 1.3.389.327 0 .623-.057.89-.17.266-.114.491-.277.676-.49.185-.213.316-.469.394-.767h1.257a2.905 2.905 0 0 1-.527 1.305 2.95 2.95 0 0 1-1.103.916c-.454.224-.983.335-1.587.335Zm10.531-4.836v1.172h-4.517v-1.172h4.517Zm-4.219-3.516v8.182h-1.257v-8.182h1.257Zm5.178 0v8.182h-1.257v-8.182h1.257Zm7.217 8.182v-7.031h-2.173c-.49 0-.875.113-1.156.341-.28.227-.421.539-.421.937 0 .391.126.698.379.922.255.223.605.335 1.049.335h2.642v1.172h-2.642c-.554 0-1.032-.098-1.433-.293a2.147 2.147 0 0 1-.927-.836c-.216-.366-.325-.799-.325-1.3 0-.504.114-.937.341-1.3.227-.362.552-.641.975-.836.426-.195.932-.293 1.518-.293h3.367v8.182h-1.194Zm-5.454 0 2.322-4.07h1.364l-2.323 4.07h-1.363Zm7.842-7.01v-1.172h6.648v1.172h-2.685v7.01h-1.257v-7.01h-2.706Zm9.568 1.79h2.344c.959 0 1.692.243 2.2.73.508.486.762 1.102.762 1.848 0 .49-.114.936-.341 1.337a2.468 2.468 0 0 1-1.002.953c-.44.235-.98.352-1.619.352h-3.43v-8.182h1.257v7.01h2.173c.497 0 .905-.131 1.225-.394.32-.263.479-.6.479-1.012 0-.433-.159-.787-.479-1.06-.32-.274-.728-.41-1.225-.41h-2.344v-1.172Zm10.969-1.79v-1.172h6.648v1.172h-2.685v7.01h-1.257v-7.01h-2.706Zm11.487 7.18c-.788 0-1.468-.174-2.04-.522a3.5 3.5 0 0 1-1.316-1.47c-.305-.632-.458-1.367-.458-2.205 0-.838.153-1.577.458-2.216.309-.643.739-1.143 1.289-1.502.554-.362 1.201-.543 1.939-.543.427 0 .847.071 1.263.213.415.142.794.373 1.134.692.341.316.613.735.815 1.257.203.522.304 1.165.304 1.929v.532h-6.307v-1.086h5.029a2.69 2.69 0 0 0-.277-1.236 2.095 2.095 0 0 0-.778-.858c-.334-.209-.728-.314-1.183-.314-.5 0-.934.124-1.299.373a2.448 2.448 0 0 0-.837.959 2.817 2.817 0 0 0-.293 1.267v.725c0 .618.107 1.141.32 1.571.217.426.517.751.9.975.384.22.829.33 1.337.33.33 0 .629-.046.895-.138.27-.096.503-.238.698-.426a1.95 1.95 0 0 0 .453-.714l1.214.341a2.697 2.697 0 0 1-.644 1.086 3.144 3.144 0 0 1-1.119.725 4.16 4.16 0 0 1-1.497.255Zm9.775-1.875 2.855-6.477h1.193l-3.537 8.182h-1.023l-3.473-8.182h1.172l2.813 6.477Zm-3.218-6.477v8.182h-1.257v-8.182h1.257Zm6.435 8.182v-8.182h1.257v8.182h-1.257Zm4.075 3.068c-.213 0-.403-.018-.57-.053a1.5 1.5 0 0 1-.346-.096l.319-1.108c.306.078.576.107.81.085a.97.97 0 0 0 .623-.314c.185-.185.354-.485.506-.9l.235-.639-3.026-8.225h1.364l2.258 6.52h.086l2.258-6.52h1.364l-3.473 9.375c-.157.423-.35.773-.581 1.05-.231.28-.499.488-.804.623a2.48 2.48 0 0 1-1.023.202Zm9.202-13.977-.107 7.841h-1.235l-.107-7.841h1.449Zm-.725 10.994a.923.923 0 0 1-.676-.282.924.924 0 0 1-.282-.677c0-.262.094-.488.282-.676a.923.923 0 0 1 .676-.282c.263 0 .489.094.677.282a.923.923 0 0 1 .282.676.994.994 0 0 1-.479.831.908.908 0 0 1-.48.128Z"/></g></g><defs><clipPath id="b"><path fill="#fff" d="M20.875 226.75h6.75v43.5h-6.75z"/></clipPath><clipPath id="c"><path fill="#fff" d="M27.625 232.319a5.57 5.57 0 0 1 5.57-5.569H280.1c5.537 0 10.025 4.488 10.025 10.025v22.95c0 5.537-4.488 10.025-10.025 10.025H27.625v-37.431Z"/></clipPath><filter id="a" width="275.933" height="50.183" x="17.533" y="224.522" color-interpolation-filters="sRGB" filterUnits="userSpaceOnUse"><feFlood flood-opacity="0" result="BackgroundImageFix"/><feColorMatrix in="SourceAlpha" result="hardAlpha" values="0 0 0 0 0 0 0 0 0 0 0 0 0 0 0 0 0 0 127 0"/><feOffset/><feGaussianBlur stdDeviation=".557"/><feColorMatrix values="0 0 0 0 0 0 0 0 0 0 0 0 0 0 0 0 0 0 0.35 0"/><feBlend in2="BackgroundImageFix" result="effect1_dropShadow_6792_15157"/><feColorMatrix in="SourceAlpha" result="hardAlpha" values="0 0 0 0 0 0 0 0 0 0 0 0 0 0 0 0 0 0 127 0"/><feOffset dy="1.114"/><feGaussianBlur stdDeviation="1.671"/><feColorMatrix values="0 0 0 0 0 0 0 0 0 0 0 0 0 0 0 0 0 0 0.1 0"/><feBlend in2="effect1_dropShadow_6792_15157" result="effect2_dropShadow_6792_15157"/><feBlend in="SourceGraphic" in2="effect2_dropShadow_6792_15157" result="shape"/></filter></defs></svg>