<svg width="1920" height="915" viewBox="0 0 1920 915" fill="none" xmlns="http://www.w3.org/2000/svg">
<rect width="1920" height="915" fill="white"/>
<path d="M1784.57 381.781C1784.22 384.524 1785.77 386.241 1788.39 386.062C1793.25 385.742 1796.98 383.252 1800.18 379.895C1803.06 376.89 1804.46 373.298 1803.76 368.462C1799.3 367.082 1795.75 368.501 1792.64 370.352C1788.36 372.867 1785.23 376.536 1784.57 381.781ZM1755.35 343.919C1751.77 347.618 1749.23 352.005 1749.38 357.965C1756.1 357.769 1760.58 354.558 1764.49 350.251C1767.3 347.142 1768.69 343.598 1767.75 339.234C1762.5 338.391 1758.55 340.61 1755.35 343.919ZM1709.55 310.626C1706.01 311.89 1703.66 311.417 1702.15 308.729C1700.67 306.086 1701.16 302.909 1703.48 300.922C1704.33 300.206 1705.36 299.538 1706.42 299.239C1713.32 297.285 1720.14 294.709 1727.18 293.708C1742.4 291.527 1756.25 294.979 1767.55 306.155C1772.12 310.69 1775.37 316.013 1777.31 322.145C1777.9 324.041 1778.58 325.901 1779.35 328.156C1787.32 330.3 1795.52 332.024 1801.95 337.859C1808.12 343.451 1811.48 350.644 1814.23 358.184C1815.38 358.822 1816.35 359.414 1817.36 359.948C1839.76 371.83 1845.98 399.065 1830.91 419.442C1829.92 420.8 1828.73 422.13 1827.38 423.113C1825.65 424.379 1823.66 424.497 1821.75 423.223C1819.8 421.94 1818.64 419.378 1819.53 417.261C1820.42 415.174 1821.75 413.278 1822.93 411.326C1831.03 398.114 1828.99 383.892 1817.44 373.272C1817.28 373.133 1816.88 373.274 1815.97 373.3C1815.47 374.553 1814.83 376.025 1814.33 377.53C1810.79 388.01 1802.97 393.726 1792.82 396.804C1791.47 397.213 1790 397.349 1788.58 397.429C1779.27 397.987 1773.14 392.376 1773.21 382.976C1773.29 374.328 1777.34 367.47 1784.23 362.553C1787.42 360.273 1791.34 359.001 1795.02 357.441C1796.54 356.793 1798.27 356.609 1801.02 355.949C1797 346.159 1790.08 341.982 1780.44 340.399C1779.89 342.331 1779.36 344.131 1778.91 345.943C1775.91 357.868 1763.3 368.537 1751.07 369.457C1742.44 370.106 1737.37 365.235 1737.82 356.616C1738.38 345.658 1747.25 331.76 1758.99 328.871C1761.21 328.325 1763.41 327.727 1765.85 327.094C1766.78 324.012 1765.26 321.497 1763.74 319.223C1759.63 313.103 1754.25 308.534 1747.05 306.318C1740.05 304.173 1732.95 303.355 1725.83 305.252C1720.32 306.734 1714.93 308.71 1709.55 310.626Z" fill="#F0F2FF"/>
<line y1="560.5" x2="1920" y2="560.5" stroke="#C5CAEE" stroke-opacity="0.2"/>
<line x1="183.371" x2="183.371" y2="896" stroke="#C5CAEE" stroke-opacity="0.2"/>
<line x1="91.9453" x2="91.9453" y2="896" stroke="#C5CAEE" stroke-opacity="0.2"/>
<line x1="0.519531" x2="0.519531" y2="896" stroke="#C5CAEE" stroke-opacity="0.2"/>
<line x1="274.801" x2="274.801" y2="896" stroke="#C5CAEE" stroke-opacity="0.2"/>
<line x1="366.227" x2="366.227" y2="896" stroke="#C5CAEE" stroke-opacity="0.2"/>
<line x1="457.652" x2="457.652" y2="896" stroke="#C5CAEE" stroke-opacity="0.2"/>
<line x1="549.078" x2="549.078" y2="896" stroke="#C5CAEE" stroke-opacity="0.2"/>
<line x1="731.934" x2="731.934" y2="896" stroke="#C5CAEE" stroke-opacity="0.2"/>
<line x1="914.785" x2="914.785" y2="896" stroke="#C5CAEE" stroke-opacity="0.2"/>
<line x1="1006.21" x2="1006.21" y2="896" stroke="#C5CAEE" stroke-opacity="0.2"/>
<line x1="1097.64" x2="1097.64" y2="896" stroke="#C5CAEE" stroke-opacity="0.2"/>
<line x1="1189.07" x2="1189.07" y2="896" stroke="#C5CAEE" stroke-opacity="0.2"/>
<line x1="1280.49" x2="1280.49" y2="896" stroke="#C5CAEE" stroke-opacity="0.2"/>
<line x1="1371.92" x2="1371.92" y2="896" stroke="#C5CAEE" stroke-opacity="0.2"/>
<line x1="1463.35" x2="1463.35" y2="896" stroke="#C5CAEE" stroke-opacity="0.2"/>
<line x1="1554.77" x2="1554.77" y2="896" stroke="#C5CAEE" stroke-opacity="0.2"/>
<line x1="1646.2" x2="1646.2" y2="896" stroke="#C5CAEE" stroke-opacity="0.2"/>
<line x1="1737.63" x2="1737.63" y2="896" stroke="#C5CAEE" stroke-opacity="0.2"/>
<line x1="1829.05" x2="1829.05" y2="896" stroke="#C5CAEE" stroke-opacity="0.2"/>
<line x1="1920.48" x2="1920.48" y2="896" stroke="#C5CAEE" stroke-opacity="0.2"/>
<line x1="823.359" x2="823.359" y2="896" stroke="#C5CAEE" stroke-opacity="0.2"/>
<line x1="640.508" x2="640.508" y2="896" stroke="#C5CAEE" stroke-opacity="0.2"/>
<line y1="50.5" x2="1920" y2="50.5" stroke="#C5CAEE" stroke-opacity="0.2"/>
<line y1="152.5" x2="1920" y2="152.5" stroke="#C5CAEE" stroke-opacity="0.2"/>
<line y1="254.5" x2="1920" y2="254.5" stroke="#C5CAEE" stroke-opacity="0.2"/>
<line y1="356.5" x2="1920" y2="356.5" stroke="#C5CAEE" stroke-opacity="0.2"/>
<line y1="458.5" x2="1920" y2="458.5" stroke="#C5CAEE" stroke-opacity="0.2"/>
<line y1="662.5" x2="1920" y2="662.5" stroke="#C5CAEE" stroke-opacity="0.2"/>
<line y1="764.5" x2="1920" y2="764.5" stroke="#C5CAEE" stroke-opacity="0.2"/>
<line y1="866.5" x2="1920" y2="866.5" stroke="#C5CAEE" stroke-opacity="0.2"/>
<path d="M1064.26 648.565C1062.87 646.415 1064.17 643.122 1066.34 641.776C1068.12 640.687 1071 640.883 1072.78 642.734C1075.16 645.224 1077.21 647.998 1079.37 650.619C1079.52 651.92 1079.78 653.038 1079.79 654.155C1079.78 656.392 1078.6 658.238 1076.55 658.758C1075.04 659.141 1072.61 658.938 1071.68 657.983C1068.89 655.127 1066.44 651.892 1064.26 648.565Z" fill="#F0F2FF"/>
<path d="M1087.99 674.883C1086.42 671.556 1089.2 667.591 1093.01 667.883C1094.12 667.958 1095.34 668.251 1096.32 668.799C1100.38 671.056 1104.43 673.312 1108.32 675.837C1109.7 676.726 1110.97 678.192 1111.63 679.682C1112.47 681.544 1112.2 683.599 1110.57 685.232C1109.24 686.547 1107.35 687.521 1105.84 686.669C1100.07 683.425 1094.48 679.849 1088.86 676.33C1088.43 676.069 1088.27 675.376 1087.99 674.883Z" fill="#F0F2FF"/>
<path d="M1125.66 698.124C1124.67 696.233 1124.38 694.098 1126.03 692.586C1127.19 691.525 1128.99 691.1 1130.57 690.549C1131.03 690.395 1131.73 690.652 1132.23 690.882C1137.49 693.311 1142.78 695.7 1147.95 698.277C1149.17 698.898 1150.21 700.095 1150.97 701.258C1152.52 703.617 1151.18 707.457 1148.03 708.803C1147.49 708.797 1146.19 709.154 1145.25 708.722C1139.21 705.958 1133.24 703.05 1127.28 700.095C1126.57 699.741 1126.05 698.859 1125.66 698.124Z" fill="#F0F2FF"/>
<path d="M1163.03 712.533C1161.59 712.3 1160.39 710.566 1159.59 709.919C1158.57 707.166 1159.63 704.194 1161.67 703.333C1162.97 702.79 1164.5 702.331 1165.87 702.45C1171.7 702.961 1177.5 703.684 1183.3 704.377C1184.15 704.485 1184.99 704.843 1185.77 705.209C1188.14 706.296 1189.27 708.461 1188.74 710.806C1188.2 713.216 1186.34 715.212 1183.9 714.997C1176.92 714.396 1169.95 713.606 1163.03 712.533Z" fill="#F0F2FF"/>
<path d="M1200.32 720.537C1197.34 720.422 1195.39 718.236 1195.28 715.613C1195.15 712.966 1196.84 710.95 1200.45 710.045C1206.21 709.536 1212.59 709.039 1218.97 710.165C1220.06 710.364 1221.21 710.931 1222.06 711.642C1223.7 713.03 1224.47 714.922 1223.8 717.023C1223.15 719.013 1221.85 720.702 1219.51 720.721C1213.12 720.776 1206.71 720.781 1200.32 720.537Z" fill="#F0F2FF"/>
<path d="M1239.19 787.118C1236.03 786.99 1233.74 784.925 1233.87 781.647C1234.06 777.127 1234.45 772.582 1235.28 768.141C1235.59 766.441 1237.27 764.986 1237.86 764.137C1241.45 762.795 1244.34 763.976 1245.34 766.465C1245.65 767.247 1246.02 768.118 1245.94 768.923C1245.54 773.427 1245.21 777.959 1244.47 782.424C1243.97 785.535 1241.73 787.222 1239.19 787.118Z" fill="#F0F2FF"/>
<path d="M1242.48 801.051C1241.27 798.115 1241.93 795.619 1243.83 794.151C1245.68 792.733 1248 792.58 1249.53 793.923C1253.84 797.716 1257.97 801.738 1261.85 805.945C1263.37 807.597 1262.51 810.686 1260.78 812.161C1259.04 813.649 1256.97 813.821 1255.07 812.794C1249.58 809.84 1245.63 805.318 1242.48 801.051Z" fill="#F0F2FF"/>
<path d="M1251.09 761.037C1248.76 762.776 1244.9 760.928 1243.76 757.521C1243.98 756.56 1243.81 754.446 1244.8 753.438C1248.41 749.806 1252.27 746.374 1256.34 743.261C1257.44 742.428 1259.73 742.626 1261.31 743.007C1264.18 743.697 1265.98 747.847 1264.01 749.829C1260.01 753.86 1255.65 757.605 1251.09 761.037Z" fill="#F0F2FF"/>
<path d="M1274.9 814.85C1272.37 815.1 1270.31 813.763 1269.46 811.53C1268.66 809.451 1269.36 806.737 1271.41 805.543C1273.63 804.249 1276.07 803.33 1278.42 802.244C1278.45 802.318 1278.5 802.399 1278.54 802.485C1280.67 801.644 1282.76 800.603 1284.97 800.006C1287.27 799.398 1289.67 800.816 1290.63 802.919C1291.62 805.067 1291.2 807.701 1289.14 809.002C1284.78 811.769 1280.25 814.344 1274.9 814.85Z" fill="#F0F2FF"/>
<path d="M1238.34 731.249C1236.9 730.54 1235.87 729.039 1235.16 728.375C1234.04 725.202 1235.47 722.241 1238.08 721.569C1239.42 721.226 1241.05 721.044 1242.3 721.469C1247.19 723.166 1252.12 724.894 1256.78 727.127C1258.67 728.032 1260.23 730.052 1261.38 731.896C1262.49 733.696 1261.92 735.728 1260.37 737.355C1258.81 738.992 1256.82 739.475 1254.84 738.634C1249.29 736.308 1243.76 733.87 1238.34 731.249Z" fill="#F0F2FF"/>
<path d="M1287.53 795.265C1287.48 794.712 1287.21 793.599 1287.28 792.495C1287.52 788.832 1287.85 785.171 1288.19 781.51C1288.27 780.662 1288.39 779.812 1288.61 778.994C1289.28 776.517 1291.26 774.894 1293.5 774.884C1296.3 774.883 1298.95 776.648 1299.04 779.251C1299.18 783.755 1299.02 788.307 1298.62 792.798C1298.4 795.108 1296.9 796.96 1294.56 797.958C1292.07 798.998 1288.91 798.022 1287.53 795.265Z" fill="#F0F2FF"/>
<path d="M1272.33 755.267C1271.89 754.236 1271.42 753.173 1271.29 752.076C1271.2 751.294 1271.35 750.046 1271.87 749.681C1275.97 746.846 1271.4 741.607 1275.11 738.854C1276.21 738.033 1277.81 737.3 1279.09 737.424C1283.44 737.831 1287.78 738.486 1292.05 739.369C1293.32 739.625 1294.61 740.752 1295.5 741.794C1296.89 743.437 1297.03 745.435 1296.03 747.421C1295 749.434 1293.27 750.403 1291.05 750.175C1288.54 749.931 1286.05 749.437 1282.38 748.876C1284.54 752.559 1286.19 755.177 1287.63 757.908C1288.55 759.652 1289.39 761.514 1289.84 763.416C1290.37 765.773 1288.91 768.159 1286.84 769.047C1284.85 769.888 1282.03 769.195 1280.48 767.397C1279.92 766.757 1279.52 765.968 1279.05 765.25C1277.16 762.382 1275.28 759.495 1273.37 756.636C1273.05 756.158 1272.55 755.785 1272.33 755.267Z" fill="#F0F2FF"/>
<path d="M1302.48 754.842C1301.07 753.048 1301.72 750.038 1303.3 748.526C1304.87 747.003 1307.62 746.663 1309.78 748.002C1313.8 750.477 1316.97 753.845 1319.16 757.926C1320.83 761.01 1319.39 764.751 1315.81 766.19C1314.76 765.959 1312.59 766.141 1311.59 765.161C1308.3 761.968 1305.32 758.441 1302.48 754.842Z" fill="#F0F2FF"/>
<path d="M1322.54 778.735C1320.98 776.382 1321.65 773.493 1323.83 771.831C1325.56 770.517 1328.54 770.261 1330.32 771.952C1333 774.494 1335.25 777.464 1336.68 779.109C1338.35 783.267 1337.57 785.987 1335.31 787.379C1332.94 788.846 1330.19 788.553 1328.24 786.27C1326.19 783.878 1324.27 781.353 1322.54 778.735Z" fill="#F0F2FF"/>
<path d="M1341.44 801.803C1340.28 798.759 1340.61 796.923 1342.07 795.242C1343.63 793.478 1345.63 793.176 1347.64 793.947C1351.03 795.251 1353.62 797.554 1354.86 800.981C1355.6 803.026 1355.09 804.919 1353.4 806.433C1351.64 808.015 1348.77 808.475 1346.97 807.034C1344.74 805.248 1342.81 803.11 1341.44 801.803Z" fill="#F0F2FF"/>
<path d="M1370.39 823.922C1366.3 823.125 1362.84 821.38 1361.31 818.641C1359.75 814.067 1362.93 810.115 1366.45 811.149C1369.38 811.999 1372.16 813.643 1374.73 815.354C1376.62 816.63 1376.71 819.435 1375.43 821.501C1374.3 823.34 1372.63 824.372 1370.39 823.922Z" fill="#F0F2FF"/>
<path d="M1423.58 801.155C1423.35 806.465 1426.39 810.111 1433.7 812.605C1435.35 807.608 1435.55 803.244 1433.41 798.936C1431.97 796.036 1429.59 794.567 1427.4 795.142C1425.22 795.729 1423.7 798.109 1423.58 801.155ZM1386.49 833.818C1384.11 832.319 1383.5 830.195 1384.25 827.861C1385.12 825.149 1387.61 823.392 1390.32 824.219C1393.37 825.138 1396.28 826.542 1399.17 827.896C1404.62 830.465 1410.25 831.484 1416.23 830.312C1420.39 829.504 1423.73 827.498 1426.91 823.362C1421.62 820.113 1417.43 817.004 1414.91 812.29C1411.09 805.177 1410.86 798.011 1415.02 790.992C1419.55 783.339 1428.59 781.105 1436.25 785.798C1441.74 789.152 1445.19 794.047 1445.95 800.413C1446.4 804.065 1446.39 807.769 1446.61 811.856C1450.14 811.726 1452.58 809.758 1454.75 807.57C1461.08 801.169 1464.76 793.551 1465.11 784.55C1465.16 783.123 1464.99 781.671 1465.17 780.265C1465.48 777.819 1467.51 775.83 1469.64 775.633C1471.94 775.413 1474.67 776.617 1475.46 778.702C1476.14 780.527 1476.51 782.561 1476.54 784.515C1476.91 803.715 1462.36 821.377 1443.06 825.307C1442.22 825.48 1441.37 825.7 1440.36 825.943C1438.9 827.607 1437.41 829.357 1435.86 831.056C1427.3 840.458 1416.59 843.569 1404.11 841.308C1397.67 840.135 1391.95 837.229 1386.49 833.818Z" fill="#F0F2FF"/>
<path d="M939.552 378.735C936.277 382.852 932.749 386.835 929.082 390.726C919.646 381.086 909.098 372.196 897.819 364.143C896.588 351.033 894.405 337.97 890.944 325.318C908.728 320.462 929.54 317.326 945.017 325.461C967.24 337.149 950.213 365.313 939.552 378.735ZM932.064 399.559C943.364 411.786 963.81 435.808 953.36 453.85C953.829 453.039 954.344 452.151 954.725 451.494C954.421 452.022 953.978 452.782 953.36 453.85C952.722 454.948 952.387 455.528 952.253 455.759C952.418 455.472 952.861 454.712 953.36 453.855C947.463 464.023 934.907 466.6 922.263 466.312C921.66 461.693 918.359 457.484 912.317 457.484C907.255 457.484 904.108 460.435 902.861 464.11C900.899 463.746 899.019 463.366 897.32 463.007C895.198 462.555 893.102 462.011 890.995 461.487C894.508 448.593 896.702 435.274 897.912 421.913C908.903 414.188 919.332 405.662 928.84 396.228C929.911 397.342 931.018 398.425 932.064 399.559ZM954.941 451.119C955.343 450.431 955.462 450.221 954.941 451.119V451.119ZM881.591 478.811C876.301 492.438 866.026 514.202 848.474 514.202C830.922 514.202 820.647 492.438 815.357 478.811C813.514 474.058 811.902 469.207 810.48 464.3C823.335 460.866 835.887 456.149 848.021 450.575C860.727 456.175 873.659 460.769 886.483 464.228C885.062 469.166 883.445 474.032 881.591 478.811ZM745.143 456.118C737.655 446.838 741.301 434.324 746.616 424.218C747.785 424.68 749.093 424.972 750.597 424.972C760.8 424.972 763.231 413.007 757.926 407.254C760.944 403.378 764.153 399.616 767.552 395.972C777.07 405.729 787.731 414.717 799.129 422.857C800.355 435.915 802.523 448.927 805.958 461.528C788.282 466.066 758.148 472.22 745.143 456.118ZM764.884 387.446C753.585 375.214 733.133 351.192 743.588 333.15C753.713 315.678 783.498 320.554 799.628 323.993C801.745 324.45 803.846 324.989 805.948 325.513C802.435 338.417 800.241 351.742 799.031 365.113C788.061 372.848 777.647 381.384 768.17 390.828C767.078 389.699 765.95 388.601 764.884 387.446ZM815.357 308.189C820.647 294.562 830.922 272.798 848.474 272.798C855.242 272.798 860.922 276.053 865.655 280.811C860.675 286.662 863.204 298.268 873.247 298.268C874.648 298.268 875.868 298.001 876.981 297.595C878.809 301.316 880.344 304.981 881.591 308.189C883.434 312.942 885.046 317.793 886.468 322.7C873.613 326.134 861.056 330.851 848.922 336.425C836.221 330.825 823.284 326.231 810.46 322.772C811.886 317.834 813.503 312.968 815.357 308.189ZM853.423 338.437C861.35 335.086 869.271 332.083 877.048 329.532C880.303 328.459 883.81 327.355 887.457 326.298C890.521 337.734 892.545 349.499 893.766 361.335C881.003 352.589 867.407 344.894 853.423 338.437ZM803.089 362.346C804.289 350.197 806.329 338.114 809.466 326.375C821.244 329.537 832.755 333.787 843.931 338.776C836.839 342.194 829.897 345.885 823.14 349.771C816.326 353.692 809.63 357.901 803.089 362.346ZM798.634 416.929C788.591 409.692 779.053 401.772 770.333 393.056C778.909 384.258 788.483 376.143 798.737 368.793C798.099 377.057 797.81 385.326 797.81 393.503C797.81 401.253 798.068 409.091 798.634 416.929ZM803.182 425.665C816.027 434.473 829.727 442.203 843.808 448.691C832.431 453.516 820.894 457.494 809.455 460.584C806.411 449.184 804.398 437.455 803.182 425.665ZM893.859 424.674C892.653 436.814 890.614 448.891 887.477 460.625C875.699 457.468 864.193 453.213 853.017 448.224C860.103 444.806 867.046 441.115 873.803 437.229C880.617 433.308 887.313 429.109 893.859 424.674ZM895.326 393.503C895.326 402.506 895.002 411.622 894.229 420.722C880.045 430.711 864.734 439.334 848.994 446.392C840.81 442.578 832.807 438.405 825.045 433.939C817.418 429.551 809.919 424.823 802.641 419.772C801.931 410.99 801.616 402.192 801.616 393.503C801.616 384.417 801.951 375.219 802.739 366.037C817.109 356.146 832.58 347.666 848.175 340.716C856.282 344.499 864.208 348.636 871.898 353.061C879.53 357.449 887.024 362.177 894.302 367.222C895.017 376.01 895.326 384.808 895.326 393.503ZM898.314 370.071C908.243 377.226 917.689 385.049 926.331 393.651C917.797 402.362 908.331 410.451 898.236 417.858C898.854 409.707 899.138 401.561 899.138 393.503C899.138 385.747 898.88 377.909 898.314 370.071ZM900.693 319.456C897.093 320.128 893.514 320.919 889.955 321.802C888.322 316.274 886.447 310.828 884.284 305.505C883.064 302.512 881.606 299.207 879.922 295.85C886.03 290.394 883.831 277.515 873.247 277.515C871.347 277.515 869.745 277.962 868.385 278.675C862.967 272.988 856.39 269 848.474 269C829.871 269 818.597 290.928 812.664 305.505C810.496 310.838 808.616 316.289 806.983 321.827C788.499 317.095 762.253 312.183 746.05 324.727C726.798 339.628 743.14 366.909 754.409 381.091C757.849 385.423 761.562 389.607 765.425 393.693C764.22 394.94 762.994 396.161 761.825 397.439C759.749 399.708 757.442 402.316 755.099 405.17C753.816 404.574 752.323 404.22 750.597 404.22C740.322 404.22 737.943 416.349 743.392 422.057C737.315 433.138 734.219 445.278 740.286 455.749C750.736 473.791 779.063 470.752 796.255 467.544C799.855 466.872 803.434 466.081 806.993 465.198C808.621 470.726 810.501 476.172 812.664 481.495C818.597 496.072 829.871 518 848.474 518C867.077 518 878.351 496.067 884.284 481.495C886.452 476.162 888.332 470.711 889.96 465.173C893.781 466.148 897.927 467.128 902.259 467.965C902.3 473.118 905.648 478.241 912.317 478.241C918.019 478.241 921.269 474.494 922.134 470.193C932.733 470.326 943.008 468.381 950.893 462.273C970.145 447.372 953.808 420.091 942.534 405.909C939.114 401.607 935.432 397.45 931.595 393.39C932.702 392.245 933.835 391.131 934.912 389.961C947.484 376.349 968.106 351.013 956.656 331.251C946.212 313.209 917.885 316.248 900.693 319.456Z" fill="#F0F2FF"/>
<path d="M138.766 219.045C138.425 216.312 139.971 214.597 142.572 214.769C147.395 215.075 151.098 217.547 154.277 220.885C157.124 223.872 158.504 227.448 157.801 232.269C153.362 233.656 149.845 232.25 146.751 230.414C142.509 227.918 139.406 224.27 138.766 219.045ZM109.628 256.85C106.081 253.173 103.569 248.807 103.734 242.867C110.413 243.046 114.861 246.234 118.727 250.516C121.514 253.607 122.891 257.135 121.942 261.487C116.728 262.34 112.804 260.139 109.628 256.85ZM64.0338 290.144C60.5177 288.893 58.18 289.37 56.678 292.053C55.2031 294.69 55.6743 297.855 57.9813 299.83C58.8218 300.54 59.8437 301.204 60.8976 301.499C67.7444 303.429 74.5178 305.978 81.509 306.958C96.6309 309.093 110.403 305.618 121.656 294.452C126.21 289.921 129.459 284.608 131.4 278.493C131.991 276.602 132.668 274.746 133.439 272.497C141.37 270.34 149.515 268.602 155.925 262.77C162.068 257.183 165.431 250.006 168.183 242.485C169.327 241.846 170.289 241.254 171.295 240.719C193.584 228.822 199.832 201.665 184.911 181.397C183.926 180.046 182.755 178.723 181.41 177.747C179.694 176.49 177.719 176.378 175.817 177.652C173.88 178.936 172.714 181.492 173.592 183.599C174.472 185.677 175.788 187.563 176.963 189.505C184.977 202.65 182.912 216.829 171.402 227.441C171.244 227.58 170.85 227.441 169.943 227.417C169.449 226.169 168.823 224.704 168.323 223.205C164.838 212.771 157.08 207.094 147.005 204.053C145.661 203.648 144.204 203.517 142.79 203.441C133.541 202.908 127.432 208.516 127.476 217.883C127.533 226.501 131.545 233.324 138.374 238.207C141.539 240.471 145.434 241.729 149.084 243.274C150.595 243.916 152.316 244.095 155.049 244.746C151.021 254.512 144.141 258.692 134.556 260.294C134.015 258.37 133.489 256.578 133.046 254.773C130.103 242.897 117.598 232.297 105.44 231.411C96.874 230.786 91.8152 235.653 92.2415 244.241C92.7704 255.16 101.55 268.988 113.213 271.836C115.413 272.374 117.598 272.965 120.024 273.59C120.936 276.659 119.428 279.168 117.908 281.439C113.806 287.548 108.448 292.115 101.29 294.341C94.3264 296.497 87.2665 297.33 80.2018 295.458C74.7235 293.994 69.3807 292.039 64.0338 290.144Z" fill="#F0F2FF"/>
<path d="M677.641 95.1C677.058 94.3484 676.537 92.9191 674.503 94.1472C674.935 97.2636 675.341 100.596 675.836 103.914C676.566 108.712 677.502 113.491 678.038 118.313C678.528 122.62 677.122 124.682 673.124 126.307C671.506 126.952 669.773 127.296 668.12 127.873C662.618 129.789 657.117 131.704 651.665 133.732C650.547 134.153 649.634 135.085 648.058 136.174C649.765 136.576 650.6 136.945 651.433 136.923C658.415 136.816 665.403 136.866 672.366 136.378C675.756 136.154 678.052 137.114 679.705 139.798C680.763 141.505 681.63 143.32 682.535 145.105C685.254 150.489 687.875 155.912 690.666 161.249C691.565 162.962 692.89 164.459 694.398 166.625C694.963 164.875 695.574 163.864 695.579 162.834C695.639 157.707 695.586 152.574 695.478 147.437C695.416 144.587 694.953 141.74 695.045 138.896C695.163 135.53 696.778 132.862 699.984 131.355C702.618 130.118 705.302 128.994 707.959 127.819C713.772 125.247 719.171 122.059 724.179 118.277C723.886 117.727 723.594 117.177 723.315 116.63C717.903 117.695 712.509 118.834 707.078 119.781C703.065 120.481 699.009 121.183 694.959 121.426C690.719 121.68 688.425 120.01 686.946 116.166C686.126 114.031 685.643 111.777 685.011 109.588C683.5 104.298 681.035 99.4518 677.641 95.1ZM661.793 83.3251C661.766 76.2611 667.198 72.9725 673.722 76.2254C676.017 77.3653 678.089 79.1057 679.934 80.8882C686.666 87.4255 691.791 95.0159 694.862 103.855C695.524 105.732 696.185 107.609 696.972 109.846C700.276 110.461 703.311 109.305 706.379 108.801C715.597 107.279 724.809 105.644 734.037 104.181C736.316 103.824 738.724 103.688 740.997 104.012C746.339 104.796 748.912 109.925 745.928 114.275C744.028 117.078 741.457 119.618 738.71 121.644C729.83 128.205 720.753 134.497 710.362 138.683C709.282 139.117 708.153 139.438 708.107 139.451C705.501 142.762 706.484 145.407 706.738 147.883C707.737 157.673 706.521 167.31 704.815 176.92C704.516 178.599 704.178 180.308 703.55 181.899C701.832 186.166 697.158 187.416 693.558 184.451C691.791 183 690.195 181.197 689.022 179.273C684.54 171.896 680.224 164.443 675.947 156.962C674.392 154.237 673.121 151.335 671.754 148.557C661.649 148.105 652.62 147.76 643.605 147.239C640.699 147.068 637.747 146.687 634.972 145.887C629.116 144.179 627.307 138.449 630.974 133.612C633.477 130.312 636.937 128.06 640.73 126.497C647.463 123.721 654.312 121.203 661.108 118.586C662.717 117.967 664.304 117.327 666.233 116.555C666.006 114.394 665.867 112.441 665.587 110.528C664.589 103.736 663.523 96.9377 662.525 90.1463C662.201 87.8851 661.799 85.6 661.793 83.3251Z" fill="#F0F2FF"/>
<path d="M674.501 94.1498C676.534 92.9217 677.055 94.351 677.639 95.1027C681.032 99.4544 683.498 104.3 685.008 109.591C685.641 111.779 686.123 114.034 686.943 116.169C688.422 120.013 690.717 121.682 694.956 121.429C699.007 121.185 703.063 120.484 707.076 119.784C712.507 118.837 717.9 117.698 723.312 116.633C723.591 117.179 723.884 117.729 724.176 118.28C719.169 122.062 713.769 125.25 707.956 127.822C705.299 128.996 702.616 130.12 699.981 131.358C696.776 132.865 695.161 135.533 695.043 138.898C694.951 141.743 695.413 144.59 695.476 147.44C695.584 152.576 695.636 157.71 695.577 162.836C695.571 163.867 694.96 164.878 694.396 166.627C692.888 164.462 691.563 162.965 690.663 161.252C687.872 155.915 685.251 150.492 682.532 145.108C681.627 143.323 680.761 141.507 679.703 139.801C678.049 137.116 675.753 136.157 672.364 136.381C665.401 136.869 658.412 136.819 651.43 136.925C650.597 136.947 649.763 136.578 648.055 136.177C649.631 135.088 650.544 134.156 651.662 133.734C657.115 131.706 662.616 129.792 668.118 127.876C669.77 127.298 671.504 126.955 673.122 126.31C677.12 124.685 678.526 122.622 678.036 118.316C677.499 113.494 676.564 108.715 675.834 103.917C675.338 100.599 674.933 97.2662 674.501 94.1498Z" fill="#F0F2FF"/>
<path fill-rule="evenodd" clip-rule="evenodd" d="M530.019 623.731L529.983 623.765C528.953 622.695 527.862 621.677 526.903 620.547C520.636 613.17 516.648 604.872 517.027 594.968C517.313 587.54 519.575 580.943 525.484 575.938C527.128 574.549 528.589 574.492 530.412 575.355C535.158 577.594 537.959 581.501 539.81 586.201C542.178 592.225 542.531 598.527 542.093 604.887C541.56 612.635 539.622 620.011 536.119 626.974C535.295 628.616 534.601 628.544 533.506 627.363C532.368 626.134 531.183 624.94 530.019 623.731ZM610.387 678.226C595.999 682.796 581.119 683.964 568.17 691.294C569.521 692.317 570.862 691.769 571.828 691.208C573.893 690.006 576.131 689.483 578.38 689.013C590.277 686.525 602.026 683.419 613.865 680.681C615.982 680.189 618.026 680.14 620.169 680.676C623.41 681.487 626.708 681.555 629.902 680.398C631.951 679.652 632.075 679.18 630.849 677.396C630.299 676.597 631.029 676.535 631.372 676.28C633.71 674.53 633.769 674.453 631.616 672.416C625.438 666.564 620.644 659.518 614.976 653.233C609.778 647.466 605.013 641.331 599.74 635.633C597.846 633.589 595.735 631.78 593.424 630.215C592.608 629.664 591.798 629.145 590.753 629.722C589.571 630.371 589.763 631.44 589.904 632.452C590.238 634.864 591.218 637.072 592.504 639.089C599.023 649.319 604.268 660.395 612.582 669.438C612.656 669.518 612.655 669.665 612.737 669.949C611.511 669.957 610.51 669.364 609.474 669C591.251 662.618 573.52 655.161 557.09 644.877C552.048 641.719 547.086 638.446 542.421 634.74C541.706 634.17 541.342 633.815 542.086 632.933C550.554 622.894 553.448 610.973 553.595 598.172C553.654 592.961 552.984 587.844 551 582.974C547.708 574.896 541.13 570.714 532.434 571.097C528.532 571.268 524.691 571.849 521.039 573.214C511.641 576.729 507.278 584.142 505.946 593.579C504.392 604.596 507.97 614.216 514.647 622.858C518.344 627.642 522.616 631.873 527.268 635.709C528.44 636.675 528.306 637.22 527.265 638.045C522.902 641.512 518.067 643.731 512.403 643.949C499.474 644.445 487.981 640.315 477.499 633.028C466.412 625.32 459.184 614.578 453.802 602.444C451.302 596.81 449.327 591.002 448.726 584.813C448.506 582.547 448.508 580.296 449.04 578.066C449.221 577.308 449.433 576.701 450.442 577.081C450.89 577.251 451.591 577.506 451.714 576.781C451.828 576.111 451.119 575.729 450.592 575.629C447.452 575.027 444.51 575.167 442.799 578.591C441.209 581.774 441.106 585.175 441.498 588.636C442.114 594.083 443.845 599.22 445.86 604.28C450.796 616.67 457.917 627.522 468.913 635.315C488.761 649.379 509.898 650.737 531.902 640.982C533.46 640.295 534.08 641.255 534.909 641.871C542.502 647.507 550.367 652.702 558.696 657.195C573.09 664.953 588.303 670.746 603.758 675.958C605.819 676.653 607.876 677.365 610.387 678.226Z" fill="#F0F2FF"/>
<path d="M454.125 820.405C456.144 821.708 457.366 823.662 456.901 826.227C456.437 828.805 454.617 830.188 452.292 830.773C450.074 831.318 447.789 831.53 445.518 831.823C440.736 832.434 435.941 833.006 430.708 833.657C429.897 837.751 429.154 841.632 428.33 845.5C427.746 848.291 427.148 851.095 426.391 853.847C425.66 856.452 424.212 858.579 421.264 858.951C418.262 859.323 416.415 857.542 415.18 855.096C413.507 851.787 412.019 848.371 410.332 845.048C409.07 842.536 407.609 840.13 406.108 837.458C400.396 838.123 395.043 838.787 389.677 839.359C387.698 839.572 385.666 839.851 383.7 839.638C378.599 839.12 376.381 834.481 379.303 830.267C381.083 827.702 383.328 825.443 385.413 823.077C386.542 821.787 387.751 820.578 388.92 819.315C390.062 818.066 391.205 816.803 392.613 815.275C391.988 813.374 391.524 811.473 390.753 809.719C388.654 805.013 386.396 800.375 384.258 795.696C383.129 793.197 382.876 790.712 384.949 788.519C387.007 786.325 389.637 786.339 392.108 787.256C394.751 788.253 397.235 789.728 399.746 791.097C402.973 792.865 406.161 794.739 409.376 796.56C416.15 793.078 421.37 788.2 426.882 783.707C428.436 782.444 429.831 780.969 431.505 779.906C435.038 777.659 439.342 779.799 439.66 784.039C439.833 786.286 439.514 788.612 439.076 790.845C437.92 796.706 436.565 802.528 435.264 808.483C437.841 811.54 441.387 812.855 444.535 814.716C447.723 816.617 451.004 818.385 454.125 820.405Z" fill="#F0F2FF"/>
<path fill-rule="evenodd" clip-rule="evenodd" d="M1143.21 283.882L1143.17 283.853C1142.29 285.047 1141.34 286.198 1140.53 287.443C1135.27 295.569 1132.39 304.313 1134.05 314.085C1135.29 321.413 1138.39 327.663 1144.9 331.86C1146.7 333.026 1148.16 332.893 1149.86 331.801C1154.27 328.967 1156.55 324.731 1157.77 319.831C1159.34 313.551 1158.88 307.257 1157.62 301.007C1156.09 293.392 1153.21 286.329 1148.84 279.878C1147.81 278.356 1147.13 278.518 1146.2 279.83C1145.23 281.196 1144.21 282.533 1143.21 283.882ZM1215.86 219.451C1201 216.78 1186.09 217.547 1172.3 211.953C1173.51 210.763 1174.91 211.133 1175.94 211.565C1178.14 212.49 1180.43 212.719 1182.72 212.895C1194.84 213.822 1206.89 215.383 1218.99 216.567C1221.15 216.781 1223.18 216.565 1225.24 215.756C1228.35 214.533 1231.61 214.039 1234.93 214.773C1237.05 215.248 1237.24 215.7 1236.25 217.628C1235.81 218.491 1236.54 218.457 1236.92 218.666C1239.46 220.099 1239.53 220.168 1237.66 222.467C1232.29 229.069 1228.45 236.675 1223.64 243.64C1219.23 250.031 1215.3 256.731 1210.81 263.063C1209.19 265.335 1207.33 267.402 1205.24 269.252C1204.51 269.904 1203.77 270.524 1202.66 270.087C1201.4 269.596 1201.46 268.512 1201.47 267.489C1201.48 265.055 1202.17 262.738 1203.18 260.572C1208.33 249.584 1212.09 237.924 1219.17 227.881C1219.23 227.792 1219.21 227.647 1219.26 227.355C1218.04 227.505 1217.12 228.222 1216.14 228.718C1198.9 237.402 1182.28 247.09 1167.32 259.413C1162.73 263.197 1158.23 267.083 1154.09 271.362C1153.45 272.02 1153.13 272.419 1153.99 273.198C1163.68 282.057 1168.09 293.503 1169.89 306.178C1170.63 311.337 1170.62 316.498 1169.29 321.584C1167.07 330.02 1161.09 335.017 1152.41 335.763C1148.52 336.097 1144.64 336.018 1140.84 335.136C1131.07 332.867 1125.78 326.08 1123.24 316.895C1120.27 306.172 1122.58 296.169 1128.08 286.736C1131.13 281.515 1134.82 276.767 1138.93 272.361C1139.97 271.252 1139.77 270.728 1138.63 270.045C1133.85 267.172 1128.77 265.596 1123.13 266.113C1110.24 267.293 1099.38 272.875 1089.93 281.456C1079.93 290.534 1074.15 302.12 1070.39 314.849C1068.64 320.758 1067.43 326.773 1067.63 332.988C1067.71 335.263 1068 337.495 1068.82 339.638C1069.1 340.366 1069.38 340.94 1070.34 340.433C1070.76 340.206 1071.42 339.863 1071.64 340.566C1071.84 341.216 1071.18 341.686 1070.67 341.853C1067.64 342.856 1064.7 343.098 1062.56 339.924C1060.57 336.974 1060.03 333.615 1059.97 330.132C1059.88 324.651 1060.93 319.333 1062.27 314.055C1065.57 301.131 1071.22 289.449 1081.12 280.299C1098.98 263.786 1119.77 259.705 1142.85 266.533C1144.48 267.012 1144.97 265.981 1145.71 265.262C1152.51 258.692 1159.64 252.523 1167.32 246.991C1180.59 237.437 1194.92 229.724 1209.58 222.557C1211.53 221.602 1213.48 220.63 1215.86 219.451Z" fill="#F0F2FF"/>
<path d="M1004.25 232.259C1005.59 229.269 1003.97 226.166 1000.55 225.433C997.623 224.805 994.777 225.115 991.796 226.786C992.686 228.791 993.835 230.263 995.117 231.637C996.342 232.947 997.839 233.871 999.577 234.387C1001.61 234.986 1003.41 234.144 1004.25 232.259ZM1009.02 233.61C1007.39 237.943 1002.52 240.793 997.217 238.701C994.955 237.811 992.894 236.503 991.394 234.622C989.61 232.381 988.047 229.964 986.409 227.612C986.203 227.313 986.084 226.941 985.982 226.588C985.609 225.345 985.882 224.214 987.069 223.733C989.392 222.79 990.913 220.955 992.66 219.37C996.284 216.09 999.858 212.76 1003.49 209.481C1004.22 208.824 1005.06 208.219 1005.94 207.78C1006.99 207.261 1008.34 207.733 1008.96 208.658C1009.61 209.608 1009.43 210.738 1008.42 211.63C1005.97 213.785 1003.49 215.896 1001.05 218.059C1000.42 218.608 999.914 219.28 999.195 220.066C1000.78 220.547 1002.13 220.856 1003.39 221.36C1008.46 223.399 1010.89 228.614 1009.02 233.61Z" fill="#F0F2FF"/>
<path d="M1068.09 76.9303C1068.14 77.8679 1067.74 78.6328 1066.92 79.1019C1066.5 79.3442 1065.98 79.4764 1065.48 79.5516C1064.49 79.7086 1063.46 79.7386 1062.47 79.9212C1054.83 81.3104 1046.33 72.6862 1050.26 62.8296C1051 61.0735 1052.54 58.9835 1054.74 57.4171C1057.71 55.3204 1060.84 55.1621 1064.03 56.8751C1066.31 58.0978 1068.12 59.7998 1069.1 62.2182C1071.04 67.0765 1067.17 72.0676 1061.83 71.6207C1060.89 71.5415 1060.14 71.1259 1059.66 70.3152C1058.87 69.0154 1059.44 67.4885 1060.94 67.038C1061.77 66.788 1062.68 66.7403 1063.51 66.4647C1064.53 66.1191 1064.95 65.02 1064.56 64.0144C1063.81 62.1182 1062.26 61.077 1060.34 60.6411C1059.67 60.4823 1058.79 60.6483 1058.16 60.9597C1053.78 63.1421 1052.74 69.5752 1056.15 73.0301C1057.75 74.6387 1059.61 75.4949 1061.95 75.1869C1062.83 75.0722 1063.71 74.9959 1064.6 74.9635C1065.22 74.9453 1065.86 74.9569 1066.47 75.0802C1067.37 75.2669 1068.04 76.0858 1068.09 76.9303Z" fill="#F0F2FF"/>
<path d="M957.596 124.292C956.579 120.304 954.024 113.612 952.807 111.651C947.633 113.192 941.489 115.739 939.316 117.25C939.136 119.421 940.053 121.356 940.851 123.289C941.632 125.184 942.084 127.272 943.642 128.879C948.344 127.494 952.944 126.226 957.596 124.292ZM1033.71 97.8846C1035.84 93.0179 1037.45 88.2127 1039.11 83.4335C1039.17 83.254 1038.97 82.9882 1038.86 82.6474C1038.4 82.704 1037.89 82.6927 1037.43 82.8349C1032.84 84.2296 1028.25 85.6466 1023.67 87.0615C1023.56 87.1005 1023.45 87.2035 1023.39 87.3082C1023.32 87.4021 1023.32 87.537 1023.29 87.6486C1024.97 91.8557 1028.97 95.8793 1033.71 97.8846ZM1001.03 185.619C1002.47 183.489 1002.96 181.162 1003.73 178.965C1007.32 168.775 1010.65 158.491 1014.39 148.354C1019.51 134.484 1024.92 120.71 1030.2 106.893C1030.68 105.631 1031.15 104.355 1031.65 103.018C1026.11 99.1183 1020.91 95.1389 1018.16 88.7789C1016.8 89.1537 1015.59 89.456 1014.4 89.8307C996.638 95.4288 978.842 100.932 961.588 107.94C960.33 108.456 958.875 108.651 957.821 110.002C958.794 112.715 959.799 115.522 960.8 118.326C961.384 119.963 962.073 121.578 962.531 123.248C963.338 126.208 962.581 127.67 959.622 128.72C955.928 130.032 952.165 131.182 948.445 132.416C947.514 132.728 946.608 133.104 945.711 133.44C948.558 142.696 972.448 181.514 979.505 188.369C982.639 186.564 986.022 185.222 989.719 184.725C993.536 184.212 997.261 184.935 1001.03 185.619ZM994.402 206.849C996.592 201.711 997.915 196.206 999.761 190.656C993.173 188.27 986.13 189.222 982.515 192.931C985.489 196.715 988.482 200.549 991.511 204.354C992.199 205.228 992.988 206.023 993.749 206.838C993.814 206.899 993.997 206.851 994.402 206.849ZM998.497 209.837C997.952 211.52 996.775 212.523 995.245 213.251C994.042 213.818 993.066 213.681 992.116 212.782C991.75 212.441 991.439 212.041 991.123 211.652C986.517 205.888 981.704 200.262 977.347 194.326C971.724 186.67 966.273 178.881 961.098 170.937C954.005 160.048 947.414 148.86 941.77 137.175C939.766 133.027 937.933 128.801 936.166 124.55C935.408 122.724 934.819 120.79 934.493 118.848C933.902 115.371 935.007 113.453 938.323 112.056C942.049 110.485 945.871 109.122 949.603 107.566C969.94 99.079 990.856 92.1785 1011.91 85.6175C1014.19 84.9059 1016.39 83.9429 1018.68 83.2205C1020.35 82.6884 1022.12 82.4044 1023.81 81.9169C1028.44 80.5838 1033.04 79.1548 1037.67 77.8569C1039.25 77.4224 1040.9 77.2522 1042.53 76.9914C1044.46 76.6858 1046.36 79.3215 1045.49 81.4206C1041.74 90.4883 1038.2 99.6452 1034.6 108.776C1031.37 116.982 1028.16 125.204 1023.48 137.159C1020.37 146.028 1015.92 158.683 1011.51 171.343C1009.83 176.149 1008.21 180.973 1006.59 185.802C1006.32 186.618 1005.94 187.511 1006.05 188.308C1006.27 189.814 1005.73 190.824 1004.84 192.003C1003.97 193.147 1003.62 194.685 1003.14 196.079C1001.56 200.656 999.996 205.237 998.497 209.837Z" fill="#F0F2FF"/>
<path d="M922.237 129.349C921.964 128.125 921.851 127.398 921.639 126.696C920.537 123.008 916.503 120.782 912.729 121.75C911.121 122.159 910.106 123.136 909.665 124.697C908.827 127.658 910.937 130.471 914.186 130.534C916.841 130.585 919.378 129.821 922.237 129.349ZM930.479 123.093C931.122 123.889 931.214 124.959 930.456 125.847C927.007 129.89 924.895 134.699 922.276 139.219C921.906 139.857 921.543 140.542 921.02 141.055C920.361 141.703 919.473 141.888 918.559 141.527C917.65 141.168 916.998 140.042 917.277 139.086C917.65 137.813 918.166 136.576 918.726 135.034C917.178 135.145 915.939 135.292 914.695 135.319C908.984 135.438 904.699 131.434 904.592 125.899C904.507 121.711 907.191 118.202 911.439 117.184C915.841 116.131 919.744 117.254 923.084 120.2C924.014 121.023 924.788 122.016 925.806 123.113C926.401 122.867 927.056 122.551 927.744 122.328C928.806 121.991 929.756 122.212 930.479 123.093Z" fill="#F0F2FF"/>
<path d="M162.658 775.853C163.179 776.762 174.358 791.787 175.707 784.861C176.058 783.055 164.604 767.769 162.532 764.023C160.658 760.643 140.321 723.364 137.134 725.69C133.34 728.415 149.995 751.53 151.958 754.989C147.595 756.642 137.129 764.119 132.527 762.678C127.678 761.159 124.568 753.432 122.375 749.473C121.288 747.511 120.232 745.496 118.972 743.634C117.226 741.051 110.577 739.738 113.391 744.077C119.088 753.012 125.037 761.722 130.619 770.728C134.57 777.104 138.063 783.145 140.461 790.207C140.746 791.041 146.256 805.579 148.77 801.46C152.962 794.605 137.088 771.66 134.134 767.32C140.947 765.239 148.327 763.125 154.072 758.822C157.137 764.402 159.496 770.323 162.658 775.853Z" fill="#F0F2FF"/>
<path d="M196.871 763.631C198.764 763.676 207.892 760.397 202.638 759.105C199.345 758.298 195.681 759.281 192.398 759.701C192.133 756.093 183.552 727.659 176.162 740.96C174.9 743.23 174.191 752.587 178.784 752.034C183.498 751.425 177.713 742.725 180.929 742.431C184.278 742.127 188.765 758.069 187.251 760.859C186.25 762.7 180.562 773.363 188.436 771.142C193.386 769.741 190.502 763.473 196.871 763.631Z" fill="#F0F2FF"/>
<path d="M242.673 692.532C239.717 680.961 249.969 678.946 257.241 686.319C263.379 692.436 267.697 702.522 268.476 710.965C269.298 719.869 260.817 729.143 253.637 719.458C248.376 712.36 244.832 700.98 242.673 692.532ZM249.199 719.37C256.251 729.32 269.5 731.954 272.139 716.863C274.35 704.212 252.228 659.962 238.656 682.169C232.582 691.981 243.323 711.083 249.199 719.37Z" fill="#F0F2FF"/>
<path d="M297.639 686.351C297.757 686.339 298.318 686.268 297.639 686.351C294.395 686.76 295.671 691.721 296.053 693.577C297.547 700.89 296.689 701.399 289.064 703.908C289.092 696.041 280.913 676.368 283.111 694.766C284.629 707.443 285.522 710.712 298.278 705.008C298.798 706.94 300.217 718.881 304.639 716.53C307.135 715.199 304.188 708.81 303.758 706.766C303.065 703.473 300.771 685.977 297.639 686.351Z" fill="#F0F2FF"/>
<path d="M236.555 734.359C232.127 741.552 226.709 741.858 219.146 739.982C212.73 738.396 218.077 745.417 223.521 745.881C229.961 746.429 235.608 743.022 239.358 738.12C245.74 729.756 245.831 721.479 234.636 718.749C227.797 717.078 217.508 717.79 212.035 712.838C208.107 709.284 211.702 705.245 215.42 703.233C217.832 701.93 227.469 704.938 225.671 700.476C226.147 701.652 226.425 702.34 225.671 700.476C222.032 691.463 206.663 702.12 205.635 708.301C204.276 716.204 212.391 718.635 218.753 719.823C224.154 720.83 234.382 720.587 237.9 725.569C239.83 728.3 238.08 731.886 236.555 734.359Z" fill="#F0F2FF"/>
<path d="M1765.41 832.535C1767.44 833.842 1768.67 835.802 1768.2 838.375C1767.73 840.962 1765.91 842.348 1763.57 842.935C1761.35 843.482 1759.05 843.695 1756.77 843.988C1751.97 844.602 1747.16 845.175 1741.91 845.828C1741.09 849.935 1740.35 853.828 1739.52 857.708C1738.93 860.508 1738.33 863.322 1737.57 866.082C1736.84 868.695 1735.39 870.828 1732.43 871.202C1729.41 871.575 1727.56 869.788 1726.32 867.335C1724.64 864.015 1723.15 860.588 1721.45 857.255C1720.19 854.735 1718.72 852.322 1717.21 849.642C1711.48 850.308 1706.11 850.975 1700.72 851.548C1698.73 851.762 1696.69 852.042 1694.72 851.828C1689.6 851.308 1687.37 846.655 1690.31 842.428C1692.09 839.855 1694.35 837.588 1696.44 835.215C1697.57 833.922 1698.79 832.708 1699.96 831.442C1701.11 830.188 1702.25 828.922 1703.67 827.388C1703.04 825.482 1702.57 823.575 1701.8 821.815C1699.69 817.095 1697.43 812.442 1695.28 807.748C1694.15 805.242 1693.89 802.748 1695.97 800.548C1698.04 798.348 1700.68 798.362 1703.16 799.282C1705.81 800.282 1708.31 801.762 1710.83 803.135C1714.07 804.908 1717.27 806.788 1720.49 808.615C1727.29 805.122 1732.53 800.228 1738.07 795.722C1739.63 794.455 1741.03 792.975 1742.71 791.908C1746.25 789.655 1750.57 791.802 1750.89 796.055C1751.07 798.308 1750.75 800.642 1750.31 802.882C1749.15 808.762 1747.79 814.602 1746.48 820.575C1749.07 823.642 1752.63 824.962 1755.79 826.828C1758.99 828.735 1762.28 830.508 1765.41 832.535Z" fill="#F0F2FF"/>
<path d="M1704.79 700.792C1709.51 699.108 1710.25 697.992 1709.9 693.085C1709.68 689.819 1709.16 686.571 1708.63 683.339C1706.73 671.799 1703.47 660.581 1699.65 649.558C1694.09 633.534 1688.13 617.646 1682.14 601.775C1675.08 582.985 1667.84 564.272 1660.62 545.541C1658.33 539.611 1658 539.577 1651.65 540.084C1640.66 540.973 1629.97 543.35 1619.5 546.548C1595.73 553.824 1572.35 562.191 1549.34 571.531C1540.43 575.151 1531.8 579.398 1522.92 584.238C1523.23 585.371 1523.37 586.073 1523.61 586.733C1528.28 599.407 1532.46 612.266 1537.71 624.694C1552.26 659.168 1567.25 693.474 1582.09 727.83C1583.11 730.174 1584.35 732.416 1585.49 734.708C1586.91 737.593 1589.23 738.651 1592.37 737.898C1596.32 736.933 1600.35 736.113 1604.2 734.835C1628.82 726.646 1653.41 718.372 1678 710.073C1686.95 707.052 1695.88 703.956 1704.79 700.792ZM1715.4 680.86C1716.3 685.691 1717.09 690.538 1716.99 695.504C1716.89 700.834 1714.62 704.557 1709.47 706.46C1707.04 707.357 1704.59 708.228 1702.13 709.057C1672.98 718.913 1643.83 728.795 1614.66 738.583C1608.52 740.647 1602.3 742.492 1596.06 744.26C1594.13 744.81 1592.03 744.903 1590 744.987C1585.94 745.165 1582.78 743.456 1580.63 740.114C1579.35 738.118 1578.16 736.045 1577.17 733.896C1574.79 728.753 1572.53 723.567 1570.27 718.372C1559.14 692.747 1548 667.121 1536.92 641.47C1530.76 627.215 1525.24 612.723 1520.18 598.053C1519.47 595.989 1518.59 594.085 1517.16 592.3C1515.14 589.787 1514.72 586.64 1515.15 583.468C1515.41 581.573 1516.38 580.016 1517.99 578.95C1519.22 578.138 1520.57 577.495 1521.88 576.81C1536.01 569.458 1550.56 563.003 1565.63 557.698C1581.53 552.098 1597.44 546.489 1613.44 541.15C1624.54 537.445 1635.93 534.814 1647.61 533.477C1649.64 533.24 1651.67 533.088 1652.55 533.003C1654.46 533.003 1655.21 533.02 1655.95 533.003C1660.52 532.91 1663.81 534.772 1665.55 539.027C1665.96 540.042 1666.45 541.032 1666.84 542.056C1679.27 574.813 1691.84 607.52 1704.04 640.362C1708.93 653.525 1712.85 667.036 1715.4 680.86Z" fill="#F0F2FF"/>
<path d="M1689.33 685.834C1687.7 680.732 1686.15 675.936 1684.47 670.656C1679.5 671.756 1675.86 673.99 1671.99 675.673C1667.93 677.441 1663.84 679.184 1659.87 681.147C1656.13 683 1651.88 683.871 1648.45 686.621C1650.21 691.358 1651.73 695.96 1654.41 700.495C1658.58 698.947 1662.57 697.534 1666.5 695.986C1670.28 694.497 1674.05 692.949 1677.74 691.265C1681.53 689.539 1685.66 688.431 1689.33 685.834ZM1696.39 685.487C1697.24 688.642 1696.03 690.563 1693.03 692.238C1692.55 692.5 1692.03 692.712 1691.52 692.932C1680.3 697.746 1669.19 702.83 1657.58 706.73C1656.01 707.255 1654.41 707.661 1653.66 707.872C1650.67 707.906 1649.14 706.95 1648.26 705.182C1647.37 703.388 1646.66 701.502 1645.91 699.641C1644.55 696.257 1643.16 692.889 1641.89 689.472C1641.39 688.118 1641.03 686.671 1640.88 685.25C1640.67 683.287 1641.47 681.68 1643.29 680.698C1644.1 680.259 1644.96 679.895 1645.81 679.514C1655.61 675.157 1665.4 670.783 1675.24 666.477C1677.43 665.521 1679.71 664.684 1682.03 664.083C1686.21 663 1689.58 664.37 1691.03 668.279C1693.12 673.905 1694.82 679.692 1696.39 685.487Z" fill="#F0F2FF"/>
<path d="M1684.47 670.657C1686.15 675.937 1687.7 680.733 1689.33 685.835C1685.66 688.432 1681.53 689.54 1677.74 691.266C1674.05 692.95 1670.28 694.498 1666.5 695.987C1662.57 697.535 1658.58 698.948 1654.4 700.496C1651.73 695.961 1650.21 691.359 1648.45 686.622C1651.87 683.872 1656.13 683.001 1659.87 681.148C1663.84 679.185 1667.92 677.442 1671.99 675.674C1675.86 673.991 1679.5 671.757 1684.47 670.657Z" fill="white"/>
<path d="M1673.73 650.657C1673.95 648.517 1674.13 646.258 1672.87 643.982C1671.12 644.084 1669.48 644.134 1667.85 644.287C1667.33 644.338 1666.84 644.651 1666.01 644.972C1666.77 647.197 1667.51 649.371 1668.31 651.681C1670.6 652.112 1672.18 652.053 1673.73 650.657ZM1681.27 649.134C1681.2 650.615 1681.21 651.537 1681.08 652.434C1680.67 655.437 1679.11 657.535 1675.93 658.068C1673.38 658.491 1670.79 658.813 1668.21 658.973C1665.33 659.151 1663.13 657.924 1662.12 655.183C1660.54 650.911 1658.96 646.639 1657.65 642.282C1656.75 639.295 1658.24 637.282 1661.51 637.104C1665.94 636.859 1670.4 636.833 1674.84 636.96C1677.8 637.053 1679.62 638.686 1680.2 641.597C1680.75 644.261 1680.98 646.986 1681.27 649.134Z" fill="#F0F2FF"/>
<path d="M1672.87 643.981C1674.13 646.257 1673.95 648.516 1673.72 650.657C1672.18 652.053 1670.6 652.112 1668.3 651.68C1667.51 649.371 1666.76 647.196 1666 644.971C1666.83 644.649 1667.32 644.336 1667.84 644.286C1669.47 644.133 1671.12 644.083 1672.87 643.981Z" fill="white"/>
<path d="M1664.05 616.021C1663.48 613.035 1663.57 609.972 1661.74 607.054C1658.86 606.884 1655.97 606.673 1652.74 607.629C1653.81 611.199 1654.77 614.608 1656.78 617.857C1659.25 617.578 1661.58 617.426 1664.05 616.021ZM1671.23 616.157C1671.53 620.15 1670.31 622.019 1666.48 623.009C1663.1 623.881 1659.62 624.414 1656.15 624.82C1653.24 625.158 1651.14 623.703 1650.1 621.038C1648.32 616.47 1646.56 611.893 1645.01 607.248C1644.18 604.786 1645.22 603.035 1647.61 602.02C1649.28 601.309 1650.91 600.37 1652.67 600.032C1654.44 599.685 1656.34 599.956 1658.19 599.956C1666.49 599.524 1668.31 600.852 1669.99 608.653C1670.53 611.131 1671.04 613.636 1671.23 616.157Z" fill="#F0F2FF"/>
<path d="M1661.74 607.053C1663.57 609.972 1663.48 613.035 1664.05 616.022C1661.58 617.426 1659.24 617.578 1656.78 617.857C1654.77 614.609 1653.8 611.199 1652.73 607.629C1655.97 606.673 1658.86 606.884 1661.74 607.053Z" fill="white"/>
<path d="M1650.73 581.208C1650.85 576.369 1647.04 561.818 1643.52 553.832C1641.81 553.248 1639.93 553.519 1638.16 553.916C1632.92 555.084 1627.63 556.158 1622.5 557.732C1594.47 566.327 1567.11 576.708 1540.23 588.289C1539.6 588.56 1539.07 589.068 1538.61 589.381C1538.65 590.007 1538.58 590.396 1538.7 590.718C1541.97 599.034 1545.25 607.35 1548.58 615.649C1548.9 616.436 1549.51 617.104 1550.04 617.933C1567.9 614.524 1584.43 607.984 1601.1 601.859C1618.69 595.387 1646.65 583.738 1650.73 581.208ZM1658.12 580.269C1658.38 584.246 1656.62 586.927 1652.91 588.459C1624.32 600.218 1595.92 612.426 1566.17 621.241C1562.27 622.4 1558.26 623.238 1554.3 624.211C1553.58 624.389 1552.86 624.566 1552.13 624.659C1545.76 625.429 1544.22 624.16 1542.29 619.186C1538.65 609.837 1534.9 600.531 1531.21 591.208C1530.68 589.846 1530.13 588.484 1529.8 587.071C1529.36 585.142 1530.5 583.027 1532.4 582.884C1538.15 582.435 1542.93 579.499 1548.02 577.393C1571.63 567.613 1595.6 558.772 1620.03 551.158C1626.59 549.119 1633.25 547.487 1640.09 546.649C1641.38 546.497 1642.69 546.361 1643.97 546.421C1647.25 546.556 1649.65 547.952 1650.58 551.243C1652.92 559.474 1655.31 567.698 1657.6 575.946C1657.99 577.325 1657.95 578.823 1658.12 580.269Z" fill="#F0F2FF"/>
<path d="M1648.11 659.058C1647.96 657.493 1647.87 656.046 1647.64 654.625C1647.53 653.94 1647.16 653.288 1646.57 651.698C1643.41 653.364 1639.97 652.501 1637.38 655.082C1638.26 657.332 1638.53 659.718 1640.39 661.774C1643.02 661.038 1645.81 660.944 1648.11 659.058ZM1655.55 659.126C1655.6 663.043 1654.47 664.997 1651.36 665.995C1647.84 667.12 1644.24 668.076 1640.62 668.796C1636.83 669.54 1634.94 668.533 1633.55 665.166C1632.02 661.469 1630.66 657.687 1629.39 653.889C1628.48 651.148 1629.35 649.024 1632.15 648.288C1636.96 647.028 1641.87 645.953 1646.81 645.319C1650.74 644.82 1652.68 646.376 1653.83 650.056C1654.41 651.96 1654.67 653.956 1655.04 655.919C1655.28 657.171 1655.44 658.432 1655.55 659.126Z" fill="#F0F2FF"/>
<path d="M1647.64 654.625C1647.87 656.047 1647.96 657.493 1648.11 659.058C1645.81 660.945 1643.02 661.038 1640.39 661.774C1638.53 659.718 1638.26 657.332 1637.38 655.082C1639.97 652.501 1643.41 653.364 1646.57 651.698C1647.16 653.288 1647.53 653.94 1647.64 654.625Z" fill="white"/>
<path d="M1638.04 626.344C1637.51 624.415 1637.16 622.647 1636.54 620.972C1635.93 619.322 1635.87 617.393 1634.1 615.938C1630.42 616.319 1626.86 617.596 1622.55 619.33C1624.32 622.858 1624.67 626.318 1626.93 629.195C1630.87 629.009 1634.57 628.501 1638.04 626.344ZM1645.35 626.547C1646.14 629.694 1644.73 632.223 1641.78 633.112C1637.01 634.55 1632.1 635.574 1628.5 636.462C1623.96 636.377 1621.32 635.387 1620.01 632.24C1618.06 627.52 1616.05 622.833 1614.21 618.07C1613.22 615.506 1614.64 613.324 1617.29 612.715C1620.89 611.894 1624.46 610.972 1628.04 610.075C1630.02 609.576 1631.96 608.899 1633.97 608.561C1637.26 608.011 1639.66 609.009 1640.77 611.97C1642.57 616.733 1644.1 621.615 1645.35 626.547Z" fill="#F0F2FF"/>
<path d="M1634.38 704.921C1633.5 701.689 1632.87 699.084 1632.06 696.546C1631.74 695.59 1630.99 694.777 1630.47 693.94C1628.91 694.185 1627.63 694.329 1626.38 694.6C1625.02 694.887 1623.4 694.515 1622.21 696.131C1622.86 697.908 1623.48 699.76 1624.22 701.571C1624.95 703.364 1625.28 705.386 1627.06 707.104C1629.27 706.444 1631.49 705.784 1634.38 704.921ZM1641.38 704.32C1642.23 708.322 1641.1 709.912 1637.1 711.317C1633.95 712.417 1630.78 713.491 1627.54 714.286C1623.54 715.276 1621.68 714.32 1620.12 710.53C1617.96 705.302 1615.94 700.022 1613.98 694.718C1612.92 691.833 1613.67 690.378 1616.52 689.05C1617.19 688.737 1617.88 688.373 1618.59 688.288C1622.64 687.823 1626.69 687.434 1630.94 686.994C1634.9 686.943 1636.56 687.857 1637.86 691.706C1639.26 695.843 1640.48 700.056 1641.38 704.32Z" fill="#F0F2FF"/>
<path d="M1636.54 620.971C1637.16 622.646 1637.52 624.414 1638.04 626.343C1634.57 628.501 1630.87 629.008 1626.93 629.194C1624.67 626.318 1624.32 622.857 1622.55 619.329C1626.86 617.595 1630.42 616.317 1634.11 615.937C1635.88 617.392 1635.93 619.321 1636.54 620.971Z" fill="white"/>
<path d="M1632.06 696.545C1632.87 699.083 1633.5 701.689 1634.38 704.921C1631.5 705.784 1629.27 706.444 1627.06 707.104C1625.28 705.386 1624.95 703.364 1624.22 701.57C1623.48 699.76 1622.86 697.907 1622.21 696.13C1623.4 694.514 1625.02 694.886 1626.39 694.599C1627.64 694.328 1628.91 694.184 1630.47 693.939C1631 694.776 1631.75 695.589 1632.06 696.545Z" fill="white"/>
<path d="M1617.8 671.908C1616.58 669.024 1616.53 665.86 1614.69 663.068C1611.33 662.932 1608.3 663.914 1605.1 665.335C1606.26 668.863 1607.4 672.035 1609.42 675.005C1612.42 674.463 1615.33 674.218 1617.8 671.908ZM1624.93 672.695C1625.49 674.988 1624.72 677.213 1622.49 678.287C1618.15 680.385 1613.49 681.553 1608.93 682.289C1606.33 682.145 1604.28 681.316 1603.27 679.1C1601.09 674.303 1598.95 669.472 1597.01 664.565C1596.6 663.516 1596.94 662.078 1597.22 660.885C1597.58 659.328 1598.76 658.482 1600.37 658.195C1604.36 657.467 1608.35 656.714 1612.33 655.97C1613.24 655.8 1614.14 655.547 1615.06 655.479C1618.2 655.234 1620.19 656.164 1621.15 659.058C1622.65 663.533 1623.83 668.11 1624.93 672.695Z" fill="#F0F2FF"/>
<path d="M1614.69 663.068C1616.52 665.86 1616.58 669.024 1617.8 671.909C1615.33 674.219 1612.42 674.464 1609.42 675.006C1607.4 672.036 1606.26 668.864 1605.1 665.335C1608.3 663.914 1611.33 662.933 1614.69 663.068Z" fill="white"/>
<path d="M1606.69 638.983C1605.49 635.329 1605.22 631.53 1603.16 628.341C1598.22 628.061 1594.46 628.797 1591.32 630.709C1593.17 634.508 1594.45 638.603 1596.95 642.257C1600.38 641.284 1603.73 641.242 1606.69 638.983ZM1613.56 638.628C1614.38 642.731 1613.06 644.855 1609.06 646.166C1605.03 647.477 1600.87 648.416 1596.73 649.322C1594.09 649.905 1591.94 648.856 1590.79 646.42C1588.31 641.149 1585.81 635.887 1583.6 630.506C1582.08 626.801 1583.26 624.5 1587.27 623.527C1592.28 622.308 1597.43 621.573 1601.45 620.828C1605.98 620.972 1608.85 622.156 1609.96 625.532C1611.36 629.838 1612.68 634.203 1613.56 638.628Z" fill="#F0F2FF"/>
<path d="M1600.84 718.076C1601.03 714.185 1599.66 711.08 1598.35 707.907C1595.41 707.839 1593.04 708.559 1590.51 709.887C1591.28 713.245 1592.64 716.156 1594.41 719.464C1596.86 718.931 1598.81 718.516 1600.84 718.076ZM1608.36 717.501C1609.08 721.401 1607.28 723.677 1603.34 724.709C1600.49 725.462 1597.58 726.096 1594.66 726.545C1591 727.112 1589.42 726.333 1588.01 723.127C1585.8 718.127 1583.81 713.042 1581.74 707.992C1581.53 707.493 1581.36 706.96 1581.27 706.427C1580.95 704.354 1582.54 702.434 1584.68 702.34C1585.42 702.307 1586.15 702.442 1588.17 702.594C1588.55 702.527 1590.17 702.231 1591.79 701.875C1593.77 701.444 1595.72 700.818 1597.73 700.513C1601.19 699.98 1603.71 701.181 1604.8 704.379C1606.26 708.66 1607.54 713.059 1608.36 717.501Z" fill="#F0F2FF"/>
<path d="M1603.16 628.339C1605.23 631.529 1605.49 635.328 1606.69 638.983C1603.73 641.242 1600.38 641.284 1596.95 642.257C1594.45 638.602 1593.17 634.507 1591.32 630.708C1594.46 628.796 1598.22 628.06 1603.16 628.339Z" fill="white"/>
<path d="M1598.35 707.907C1599.66 711.079 1601.03 714.185 1600.84 718.076C1598.81 718.516 1596.87 718.931 1594.41 719.464C1592.64 716.156 1591.28 713.245 1590.51 709.886C1593.04 708.558 1595.42 707.839 1598.35 707.907Z" fill="white"/>
<path d="M1589.25 684.32C1586.86 680.395 1585.35 676.114 1582.28 672.84C1577.49 673.821 1577.49 673.821 1575.02 675.818C1576.48 679.836 1577.64 684.024 1580.27 687.848C1583.41 687.002 1586.51 686.638 1589.25 684.32ZM1596.76 683.44C1598.03 686.038 1597.59 688.119 1595.22 689.633C1590.5 692.645 1585.1 693.922 1580.64 694.997C1577.66 695.115 1575.97 694.362 1574.89 692.755C1573.78 691.105 1572.77 689.354 1571.97 687.535C1570.07 683.212 1568.29 678.838 1566.52 674.464C1565.49 671.909 1566.21 670.268 1568.88 669.346C1572.89 667.975 1576.96 666.732 1581.02 665.488C1583.84 664.617 1586.19 665.446 1587.79 667.823C1589.42 670.243 1590.88 672.764 1592.33 675.293C1593.87 677.975 1595.41 680.665 1596.76 683.44Z" fill="#F0F2FF"/>
<path d="M1582.28 672.84C1585.35 676.114 1586.86 680.395 1589.25 684.321C1586.51 686.639 1583.41 687.003 1580.27 687.849C1577.64 684.025 1576.48 679.837 1575.02 675.818C1577.49 673.822 1577.49 673.822 1582.28 672.84Z" fill="white"/>
<path d="M1575.96 649.025C1574.31 645.176 1572.75 641.521 1571.2 637.875C1566.98 637.621 1563.64 639.271 1559.35 640.607C1561.61 645.201 1563.09 649.457 1566.02 653.162C1569.36 651.741 1572.96 651.478 1575.96 649.025ZM1583.1 648.602C1584.4 652.384 1583.11 654.541 1579.43 655.912C1575.27 657.46 1571.06 658.873 1566.81 660.167C1563.03 661.326 1561.4 660.666 1559.58 657.155C1557.25 652.621 1555.1 647.985 1552.91 643.374C1552.44 642.392 1552.06 641.352 1551.81 640.294C1551.11 637.393 1551.87 635.692 1554.77 634.745C1559.51 633.196 1564.35 631.919 1569.16 630.565C1569.86 630.371 1570.63 630.388 1571 630.345C1573.81 630.362 1575.85 631.344 1576.83 633.484C1579.09 638.45 1581.34 643.45 1583.1 648.602Z" fill="#F0F2FF"/>
</svg>
