<svg width="158" height="154" fill="none" xmlns="http://www.w3.org/2000/svg">
    <rect x=".74" y=".56" width="72.8" height="72.8" rx="14.56" fill="#fff"/>
    <path fill-rule="evenodd" clip-rule="evenodd" d="M41.872 24.22h-9.464c-2.099 0-3.454.003-4.485.087-.99.081-1.356.218-1.536.31a3.64 3.64 0 0 0-1.59 1.59c-.092.18-.23.547-.31 1.536-.084 1.031-.087 2.386-.087 4.485v9.464c0 2.099.003 3.454.087 4.485.08.989.218 1.356.31 1.536a3.64 3.64 0 0 0 1.59 1.59c.18.092.547.23 1.536.31 1.031.084 2.386.087 4.485.087h9.464c2.098 0 3.453-.003 4.485-.087.989-.08 1.355-.218 1.535-.31a3.64 3.64 0 0 0 1.591-1.59c.092-.18.229-.547.31-1.536.084-1.031.087-2.386.087-4.485v-9.464c0-2.099-.003-3.454-.087-4.485-.081-.989-.218-1.355-.31-1.535a3.64 3.64 0 0 0-1.59-1.591c-.18-.092-.547-.229-1.536-.31-1.032-.084-2.387-.087-4.485-.087Zm-20.319.335c-.793 1.557-.793 3.596-.793 7.673v9.464c0 4.077 0 6.116.793 7.673a7.28 7.28 0 0 0 3.182 3.182c1.557.793 3.596.793 7.673.793h9.464c4.077 0 6.115 0 7.673-.793a7.28 7.28 0 0 0 3.181-3.182c.794-1.557.794-3.596.794-7.673v-9.464c0-4.077 0-6.116-.794-7.673a7.28 7.28 0 0 0-3.181-3.181c-1.558-.794-3.596-.794-7.673-.794h-9.464c-4.077 0-6.116 0-7.673.794a7.28 7.28 0 0 0-3.182 3.181Z" fill="#101010"/>
    <path fill-rule="evenodd" clip-rule="evenodd" d="M29.86 27.86a1.82 1.82 0 1 0 0 3.64h14.56a1.82 1.82 0 0 0 0-3.64H29.86ZM29.86 35.14a1.82 1.82 0 1 0 0 3.64h7.28a1.82 1.82 0 0 0 0-3.64h-7.28Z" fill="#101010"/>
    <rect x="80.82" y=".56" width="72.8" height="72.8" rx="14.56" fill="#fff"/>
    <path fill-rule="evenodd" clip-rule="evenodd" d="M109.94 35.14a1.82 1.82 0 0 0 0 3.64h10.92a1.82 1.82 0 0 0 0-3.64h-10.92ZM109.94 42.42a1.82 1.82 0 0 0 0 3.64h7.28a1.82 1.82 0 0 0 0-3.64h-7.28Z" fill="#101010"/>
    <path fill-rule="evenodd" clip-rule="evenodd" d="M121.952 24.22h-9.464c-2.099 0-3.454.003-4.485.087-.989.081-1.356.218-1.536.31a3.643 3.643 0 0 0-1.59 1.59c-.092.18-.229.547-.31 1.536-.084 1.031-.087 2.386-.087 4.485v9.464c0 2.099.003 3.454.087 4.485.081.989.218 1.356.31 1.536a3.643 3.643 0 0 0 1.59 1.59c.18.092.547.23 1.536.31 1.031.084 2.386.087 4.485.087h9.464c2.099 0 3.454-.003 4.485-.087.989-.08 1.356-.218 1.535-.31a3.64 3.64 0 0 0 1.591-1.59c.092-.18.229-.547.31-1.536.084-1.031.087-2.386.087-4.485v-9.464c0-2.099-.003-3.454-.087-4.485-.081-.989-.218-1.355-.31-1.535a3.64 3.64 0 0 0-1.591-1.591c-.179-.092-.546-.229-1.535-.31-1.031-.084-2.386-.087-4.485-.087Zm-20.319.335c-.793 1.557-.793 3.596-.793 7.673v9.464c0 4.077 0 6.116.793 7.673a7.28 7.28 0 0 0 3.182 3.182c1.557.793 3.596.793 7.673.793h9.464c4.077 0 6.116 0 7.673-.793a7.273 7.273 0 0 0 3.181-3.182c.794-1.557.794-3.596.794-7.673v-9.464c0-4.077 0-6.116-.794-7.673a7.273 7.273 0 0 0-3.181-3.181c-1.557-.794-3.596-.794-7.673-.794h-9.464c-4.077 0-6.116 0-7.673.794a7.28 7.28 0 0 0-3.182 3.181Z" fill="#101010"/>
    <path fill-rule="evenodd" clip-rule="evenodd" d="M109.94 27.86a1.82 1.82 0 0 0 0 3.64h14.56a1.82 1.82 0 0 0 0-3.64h-14.56Z" fill="#101010"/>
    <rect x=".74" y="80.64" width="72.8" height="72.8" rx="14.56" fill="#fff"/>
    <path fill-rule="evenodd" clip-rule="evenodd" d="M28.95 115.22a6.37 6.37 0 1 0 0-12.74 6.37 6.37 0 0 0 0 12.74Zm2.73-6.37a2.73 2.73 0 1 1-5.46 0 2.73 2.73 0 0 1 5.46 0ZM45.33 115.22a6.37 6.37 0 1 0 0-12.74 6.37 6.37 0 0 0 0 12.74Zm2.73-6.37a2.73 2.73 0 1 1-5.46 0 2.73 2.73 0 0 1 5.46 0ZM35.32 125.23a6.37 6.37 0 1 1-12.74 0 6.37 6.37 0 0 1 12.74 0Zm-6.37 2.73a2.73 2.73 0 1 0 0-5.46 2.73 2.73 0 0 0 0 5.46Z" fill="#101010"/>
    <path d="M45.33 118.86a1.82 1.82 0 0 1 1.82 1.82v2.73h2.73a1.82 1.82 0 0 1 0 3.64h-2.73v2.73a1.82 1.82 0 0 1-3.64 0v-2.73h-2.73a1.82 1.82 0 0 1 0-3.64h2.73v-2.73a1.82 1.82 0 0 1 1.82-1.82Z" fill="#101010"/>
</svg>
