<svg xmlns="http://www.w3.org/2000/svg" width="158" height="154" fill="none"><rect width="72.8" height="72.8" x=".74" y=".56" fill="#fff" rx="14.56"/><path fill="#101010" fill-rule="evenodd" d="M41.87 24.22h-9.46c-2.1 0-3.46 0-4.49.09-.99.08-1.35.21-1.53.3a3.64 3.64 0 0 0-1.6 1.6c-.08.18-.22.54-.3 1.53a62.05 62.05 0 0 0-.09 4.49v9.46c0 2.1 0 3.46.09 4.49.08.99.22 1.35.3 1.53a3.64 3.64 0 0 0 1.6 1.6c.18.09.54.22 1.53.3 1.03.09 2.39.09 4.49.09h9.46c2.1 0 3.46 0 4.49-.09a4.12 4.12 0 0 0 1.53-.3 3.64 3.64 0 0 0 1.6-1.6c.08-.18.22-.54.3-1.53.09-1.03.09-2.39.09-4.49v-9.46c0-2.1 0-3.46-.09-4.49a4.14 4.14 0 0 0-.3-1.53 3.64 3.64 0 0 0-1.6-1.6c-.18-.08-.54-.22-1.53-.3a62.08 62.08 0 0 0-4.49-.09Zm-20.32.34c-.79 1.55-.79 3.6-.79 7.67v9.46c0 4.08 0 6.12.8 7.68a7.28 7.28 0 0 0 3.18 3.18c1.55.79 3.6.79 7.67.79h9.46c4.08 0 6.12 0 7.68-.8a7.28 7.28 0 0 0 3.18-3.17c.79-1.56.79-3.6.79-7.68v-9.46c0-4.08 0-6.12-.8-7.67a7.28 7.28 0 0 0-3.17-3.19c-1.56-.79-3.6-.79-7.68-.79h-9.46c-4.08 0-6.12 0-7.67.8a7.28 7.28 0 0 0-3.19 3.17Z" clip-rule="evenodd"/><path fill="#101010" fill-rule="evenodd" d="M29.86 27.86a1.82 1.82 0 1 0 0 3.64h14.56a1.82 1.82 0 0 0 0-3.64H29.86Zm0 7.28a1.82 1.82 0 1 0 0 3.64h7.28a1.82 1.82 0 0 0 0-3.64h-7.28Z" clip-rule="evenodd"/><rect width="72.8" height="72.8" x="80.82" y=".56" fill="#fff" rx="14.56"/><path fill="#101010" fill-rule="evenodd" d="M109.94 35.14a1.82 1.82 0 0 0 0 3.64h10.92a1.82 1.82 0 0 0 0-3.64h-10.92Zm0 7.28a1.82 1.82 0 0 0 0 3.64h7.28a1.82 1.82 0 0 0 0-3.64h-7.28Z" clip-rule="evenodd"/><path fill="#101010" fill-rule="evenodd" d="M121.95 24.22h-9.46c-2.1 0-3.46 0-4.49.09-.99.08-1.35.21-1.53.3a3.64 3.64 0 0 0-1.6 1.6c-.09.18-.22.54-.3 1.53a62.05 62.05 0 0 0-.09 4.49v9.46c0 2.1 0 3.46.09 4.49.08.99.21 1.35.3 1.53a3.64 3.64 0 0 0 1.6 1.6c.18.09.54.22 1.53.3 1.03.09 2.39.09 4.49.09h9.46c2.1 0 3.46 0 4.49-.09a4.11 4.11 0 0 0 1.53-.3 3.64 3.64 0 0 0 1.6-1.6c.08-.18.22-.54.3-1.53.09-1.03.09-2.39.09-4.49v-9.46c0-2.1 0-3.46-.09-4.49a4.14 4.14 0 0 0-.3-1.53 3.64 3.64 0 0 0-1.6-1.6c-.18-.08-.54-.22-1.53-.3a62.05 62.05 0 0 0-4.49-.09Zm-20.32.34c-.79 1.55-.79 3.6-.79 7.67v9.46c0 4.08 0 6.12.8 7.68a7.28 7.28 0 0 0 3.17 3.18c1.56.79 3.6.79 7.68.79h9.46c4.08 0 6.12 0 7.67-.8a7.27 7.27 0 0 0 3.19-3.17c.79-1.56.79-3.6.79-7.68v-9.46c0-4.08 0-6.12-.8-7.67a7.27 7.27 0 0 0-3.17-3.19c-1.56-.79-3.6-.79-7.68-.79h-9.46c-4.08 0-6.12 0-7.67.8a7.28 7.28 0 0 0-3.19 3.17Z" clip-rule="evenodd"/><path fill="#101010" fill-rule="evenodd" d="M109.94 27.86a1.82 1.82 0 0 0 0 3.64h14.56a1.82 1.82 0 0 0 0-3.64h-14.56Z" clip-rule="evenodd"/><rect width="72.8" height="72.8" x=".74" y="80.64" fill="#fff" rx="14.56"/><path fill="#101010" fill-rule="evenodd" d="M28.95 115.22a6.37 6.37 0 1 0 0-12.74 6.37 6.37 0 0 0 0 12.74Zm2.73-6.37a2.73 2.73 0 1 1-5.46 0 2.73 2.73 0 0 1 5.46 0Zm13.65 6.37a6.37 6.37 0 1 0 0-12.74 6.37 6.37 0 0 0 0 12.74Zm2.73-6.37a2.73 2.73 0 1 1-5.46 0 2.73 2.73 0 0 1 5.46 0Zm-12.74 16.38a6.37 6.37 0 1 1-12.74 0 6.37 6.37 0 0 1 12.74 0Zm-6.37 2.73a2.73 2.73 0 1 0 0-5.46 2.73 2.73 0 0 0 0 5.46Z" clip-rule="evenodd"/><path fill="#101010" d="M45.33 118.86a1.82 1.82 0 0 1 1.82 1.82v2.73h2.73a1.82 1.82 0 0 1 0 3.64h-2.73v2.73a1.82 1.82 0 0 1-3.64 0v-2.73h-2.73a1.82 1.82 0 0 1 0-3.64h2.73v-2.73a1.82 1.82 0 0 1 1.82-1.82Z"/></svg>