<svg xmlns="http://www.w3.org/2000/svg" width="262" height="65" fill="none"><rect width="38" height="38" x="1" y="9" fill="#445AFF" rx="11"/><rect width="38" height="38" x="1" y="9" stroke="#445AFF" stroke-width="2" rx="11"/><path stroke="#fff" stroke-width="4" d="M10 20.94 22.19 34C25.94 27.25 35.95 11.4 46 2"/><path fill="#101010" d="M54.47 36V15.64h7.12c1.41 0 2.58.24 3.5.73.93.49 1.61 1.14 2.06 1.96.45.82.68 1.72.68 2.72 0 .87-.16 1.6-.47 2.16-.3.57-.7 1.02-1.21 1.36a5.52 5.52 0 0 1-1.62.73v.2a4 4 0 0 1 1.88.66c.63.4 1.15.96 1.58 1.7.42.75.64 1.66.64 2.73 0 1.02-.24 1.94-.7 2.76a4.81 4.81 0 0 1-2.2 1.94c-1 .47-2.3.71-3.9.71h-7.36Zm2.46-2.19h4.9c1.6 0 2.75-.3 3.42-.93a3 3 0 0 0 1.03-2.29 3.8 3.8 0 0 0-2.03-3.32 4.71 4.71 0 0 0-2.3-.54h-5.02v7.08Zm0-9.23h4.58c.74 0 1.4-.14 2-.43a3.51 3.51 0 0 0 1.44-1.24c.35-.53.53-1.15.53-1.87 0-.89-.3-1.65-.93-2.27-.62-.63-1.61-.95-2.96-.95h-4.66v6.76Zm17.46 1.67h4.37c1.8 0 3.16.46 4.1 1.37.96.9 1.43 2.06 1.43 3.45a4.61 4.61 0 0 1-2.5 4.28c-.83.43-1.84.65-3.03.65h-6.4V20.73h2.35V33.8h4.05c.93 0 1.7-.24 2.29-.73s.9-1.12.9-1.9c0-.8-.3-1.46-.9-1.97s-1.36-.77-2.29-.77H74.4v-2.18ZM86.72 36V20.73h2.34V36h-2.34Zm12.84.32a6.6 6.6 0 0 1-3.7-1.02 6.6 6.6 0 0 1-2.38-2.79 9.47 9.47 0 0 1-.84-4.07c0-1.55.29-2.92.86-4.1a6.46 6.46 0 0 1 6.03-3.8c1.07-.01 2.04.19 2.9.58a5.56 5.56 0 0 1 2.12 1.67c.55.72.89 1.56 1.02 2.51h-2.35a3.57 3.57 0 0 0-3.66-2.67c-.91 0-1.71.24-2.4.72a4.65 4.65 0 0 0-1.6 2 7.39 7.39 0 0 0-.57 3.01c0 1.18.19 2.21.56 3.09.37.87.9 1.55 1.59 2.03.69.49 1.5.73 2.42.73a4.19 4.19 0 0 0 1.66-.32 3.43 3.43 0 0 0 1.27-.91c.34-.4.59-.88.73-1.43h2.35a5.45 5.45 0 0 1-.98 2.43 5.5 5.5 0 0 1-2.06 1.71c-.85.42-1.84.63-2.97.63Zm8.24-13.4v-2.2h12.4v2.2h-5V36h-2.35V22.91h-5.05Zm19.53 13.44a6.2 6.2 0 0 1-2.63-.55 4.52 4.52 0 0 1-1.88-1.6c-.47-.7-.7-1.55-.7-2.55 0-.87.17-1.58.52-2.12.34-.55.8-.98 1.38-1.3a7.28 7.28 0 0 1 1.9-.7c.71-.15 1.42-.28 2.13-.37l2.25-.27c.59-.06 1.01-.17 1.28-.33.27-.15.4-.41.4-.8v-.07c0-.98-.27-1.74-.8-2.29-.53-.54-1.34-.81-2.42-.81-1.12 0-2 .24-2.63.73a4.36 4.36 0 0 0-1.35 1.57l-2.22-.8c.4-.92.92-1.64 1.59-2.16a5.96 5.96 0 0 1 2.18-1.1 9.09 9.09 0 0 1 2.35-.31c.5 0 1.06.06 1.7.18a5.42 5.42 0 0 1 1.85.7c.6.36 1.1.9 1.5 1.62.4.73.6 1.7.6 2.9V36h-2.35v-2.07h-.12a4.57 4.57 0 0 1-2.28 2.03c-.61.27-1.36.4-2.25.4Zm.36-2.11c.93 0 1.7-.18 2.34-.55a3.72 3.72 0 0 0 1.46-1.4 3.6 3.6 0 0 0 .5-1.83v-2.15c-.1.12-.32.23-.66.33-.33.1-.72.18-1.16.25a54.47 54.47 0 0 1-2.24.3c-.61.08-1.18.2-1.71.39-.53.17-.95.43-1.28.78a2 2 0 0 0-.47 1.41c0 .82.3 1.44.9 1.85.61.41 1.38.62 2.32.62ZM138.6 36V20.73h6.25c1.64 0 2.95.37 3.91 1.11a3.53 3.53 0 0 1 1.46 2.94 2.8 2.8 0 0 1-.83 2.16c-.55.5-1.25.85-2.12 1.03.57.08 1.11.27 1.64.6a3.7 3.7 0 0 1 1.86 3.34 3.78 3.78 0 0 1-2.3 3.55c-.75.36-1.63.54-2.67.54h-7.2Zm2.23-2.15h4.97c.81 0 1.44-.19 1.9-.57.46-.39.69-.91.69-1.58 0-.78-.23-1.4-.69-1.86a2.57 2.57 0 0 0-1.9-.68h-4.97v4.7Zm0-6.72h4.02c.63 0 1.17-.09 1.62-.26.45-.18.8-.43 1.03-.75a1.92 1.92 0 0 0 .37-1.18c0-.64-.27-1.14-.8-1.5a3.85 3.85 0 0 0-2.22-.57h-4.02v4.26ZM152.98 36v-2.19h.56c.46 0 .84-.09 1.14-.27.3-.18.55-.5.74-.96.2-.47.34-1.1.44-1.93.1-.83.18-1.88.22-3.16l.28-6.76h10.18V36h-2.34V22.91h-5.6l-.25 5.45a24.59 24.59 0 0 1-.34 3.31 7.98 7.98 0 0 1-.76 2.4 3.5 3.5 0 0 1-1.35 1.44c-.57.33-1.27.49-2.12.49h-.8Zm27.06 0V22.87h-4.06c-.91 0-1.63.22-2.16.64-.52.43-.78 1-.78 1.75 0 .73.23 1.3.7 1.72.48.42 1.13.63 1.96.63h4.94v2.19h-4.94a6.07 6.07 0 0 1-2.67-.55 4 4 0 0 1-1.73-1.56c-.4-.69-.6-1.5-.6-2.43 0-.94.2-1.75.63-2.43a4.12 4.12 0 0 1 1.82-1.56c.8-.36 1.74-.54 2.83-.54h6.29V36h-2.23Zm-10.18 0 4.33-7.6h2.55L172.4 36h-2.54Zm14.63-13.09v-2.18h12.41v2.19h-5V36h-2.35V22.91h-5.06Zm17.87 3.34h4.37c1.8 0 3.16.46 4.1 1.37.95.9 1.43 2.06 1.43 3.45a4.62 4.62 0 0 1-2.5 4.28c-.83.43-1.84.65-3.03.65h-6.4V20.73h2.34V33.8h4.06c.93 0 1.7-.24 2.29-.73.6-.5.9-1.12.9-1.9 0-.8-.3-1.46-.9-1.97a3.4 3.4 0 0 0-2.29-.77h-4.37v-2.18ZM58.64 64.36a6.2 6.2 0 0 1-2.63-.54 4.52 4.52 0 0 1-1.88-1.6c-.47-.7-.7-1.55-.7-2.54 0-.88.17-1.59.52-2.13a3.65 3.65 0 0 1 1.38-1.3 7.27 7.27 0 0 1 1.91-.7 23.23 23.23 0 0 1 2.12-.37l2.25-.27c.59-.06 1.01-.17 1.28-.32.27-.16.4-.42.4-.8v-.08c0-.98-.26-1.74-.8-2.29-.53-.54-1.34-.81-2.42-.81-1.12 0-2 .24-2.63.73a4.35 4.35 0 0 0-1.34 1.57l-2.23-.8c.4-.92.93-1.64 1.59-2.16a5.96 5.96 0 0 1 2.19-1.1 9.08 9.08 0 0 1 2.34-.31 9.3 9.3 0 0 1 1.7.18 5.4 5.4 0 0 1 1.85.7c.6.36 1.1.9 1.5 1.62.4.73.6 1.7.6 2.9V64H63.3v-2.07h-.12a4.56 4.56 0 0 1-2.28 2.03 5.7 5.7 0 0 1-2.26.4Zm.36-2.1c.93 0 1.71-.18 2.35-.55a3.71 3.71 0 0 0 1.45-1.4 3.6 3.6 0 0 0 .5-1.83v-2.15c-.1.12-.32.23-.66.33-.33.1-.72.18-1.15.25l-1.27.18a61.64 61.64 0 0 0-.98.12c-.61.08-1.18.2-1.71.39-.52.17-.95.43-1.27.78a2 2 0 0 0-.48 1.41c0 .82.3 1.44.9 1.85.61.41 1.39.62 2.32.62ZM69.92 64V48.73h6.25c1.64 0 2.95.37 3.92 1.11a3.53 3.53 0 0 1 1.45 2.94 2.8 2.8 0 0 1-.83 2.16c-.55.5-1.25.85-2.11 1.03.56.08 1.1.27 1.64.6a3.69 3.69 0 0 1 1.86 3.34 3.79 3.79 0 0 1-2.31 3.55c-.74.36-1.63.54-2.67.54h-7.2Zm2.23-2.15h4.97c.81 0 1.45-.19 1.9-.57.46-.39.69-.91.69-1.58 0-.78-.23-1.4-.69-1.86a2.57 2.57 0 0 0-1.9-.68h-4.97v4.7Zm0-6.72h4.02c.63 0 1.17-.09 1.62-.26.45-.18.8-.43 1.03-.75.25-.34.37-.73.37-1.18 0-.64-.27-1.14-.8-1.5a3.85 3.85 0 0 0-2.22-.57h-4.02v4.26Zm12.62-4.22v-2.18h12.41v2.19h-5.01V64h-2.35V50.91h-5.05Zm21.25 13.4a6.66 6.66 0 0 1-3.63-.98 6.69 6.69 0 0 1-2.43-2.75 9.31 9.31 0 0 1-.86-4.14c0-1.59.28-2.98.86-4.16a6.67 6.67 0 0 1 2.43-2.77 6.65 6.65 0 0 1 3.63-.98 6.6 6.6 0 0 1 3.62.98 6.59 6.59 0 0 1 2.42 2.77c.59 1.18.88 2.57.88 4.16 0 1.58-.3 2.96-.88 4.14a6.6 6.6 0 0 1-2.42 2.75 6.61 6.61 0 0 1-3.62.99Zm0-2.1c1.04 0 1.9-.27 2.58-.8a4.75 4.75 0 0 0 1.5-2.12 8.1 8.1 0 0 0 .49-2.85c0-1.02-.16-1.97-.49-2.85a4.8 4.8 0 0 0-1.5-2.14 4 4 0 0 0-2.58-.81 4 4 0 0 0-2.59.81 4.8 4.8 0 0 0-1.5 2.14 8.19 8.19 0 0 0-.49 2.85c0 1.02.17 1.97.49 2.85.32.87.82 1.58 1.5 2.11.68.54 1.54.81 2.59.81Zm18.85-1.4 5.33-12.08h2.23L125.83 64h-1.91l-6.49-15.27h2.2l5.24 12.09Zm-6-12.08V64h-2.35V48.73h2.35Zm12 15.27V48.73h2.35V64h-2.34Zm11.14.36a6.2 6.2 0 0 1-2.63-.55 4.52 4.52 0 0 1-1.88-1.6c-.46-.7-.7-1.55-.7-2.54 0-.88.18-1.59.52-2.13a3.65 3.65 0 0 1 1.38-1.3 7.27 7.27 0 0 1 1.91-.7c.7-.15 1.41-.28 2.12-.37a94.79 94.79 0 0 1 2.26-.27c.58-.06 1-.17 1.27-.33.27-.15.4-.41.4-.8v-.07c0-.98-.26-1.74-.8-2.29-.53-.54-1.34-.81-2.42-.81-1.12 0-2 .24-2.63.73a4.35 4.35 0 0 0-1.34 1.57l-2.23-.8c.4-.92.93-1.64 1.6-2.16a5.97 5.97 0 0 1 2.18-1.1 9.08 9.08 0 0 1 2.34-.31c.5 0 1.06.06 1.7.18a5.4 5.4 0 0 1 1.85.7c.6.36 1.1.9 1.5 1.62.4.73.6 1.7.6 2.9V64h-2.34v-2.07h-.12a4.56 4.56 0 0 1-2.28 2.03 5.7 5.7 0 0 1-2.26.4Zm.36-2.11c.93 0 1.71-.18 2.35-.55a3.71 3.71 0 0 0 1.45-1.4 3.6 3.6 0 0 0 .5-1.83v-2.15c-.1.12-.32.23-.66.33a11.06 11.06 0 0 1-1.15.25 52.33 52.33 0 0 1-1.27.18l-.98.12c-.61.08-1.18.2-1.71.39-.52.17-.95.43-1.27.78a2 2 0 0 0-.48 1.41c0 .82.3 1.44.9 1.85.61.41 1.39.62 2.32.62Zm8.85-11.33v-2.2h12.4v2.2h-5V64h-2.35V50.91h-5.05Zm18.18 9.62 7.36-11.81h2.7V64h-2.35V52.19L169.8 64h-2.74V48.73h2.35v11.81Zm26.13-11.81V64h-2.35V48.73h2.35Zm-.91 7.28v2.18a13.66 13.66 0 0 1-3.23.88c-.58.08-1.22.12-1.9.12a6.02 6.02 0 0 1-4.17-1.4c-1.04-.94-1.56-2.34-1.56-4.21v-4.9h2.34v4.9c0 .78.15 1.43.45 1.93.3.5.7.88 1.21 1.12a3.92 3.92 0 0 0 1.72.37c1 0 1.9-.09 2.7-.27a20.28 20.28 0 0 0 2.44-.72Zm11.62 8.3a7.2 7.2 0 0 1-3.81-.97 6.55 6.55 0 0 1-2.46-2.74 9.36 9.36 0 0 1-.85-4.12c0-1.56.28-2.94.85-4.13a6.46 6.46 0 0 1 6.03-3.82c.8 0 1.58.13 2.36.4a5.84 5.84 0 0 1 2.11 1.29 6.18 6.18 0 0 1 1.53 2.35 10 10 0 0 1 .56 3.6v.99H200.8v-2.03h9.39a5 5 0 0 0-.52-2.3 3.9 3.9 0 0 0-1.45-1.6 4.07 4.07 0 0 0-2.21-.6c-.94 0-1.74.24-2.43.7a4.58 4.58 0 0 0-1.56 1.8 5.25 5.25 0 0 0-.54 2.36v1.35c0 1.15.2 2.13.6 2.93.4.8.96 1.4 1.67 1.82.72.41 1.55.62 2.5.62.62 0 1.17-.09 1.67-.26a3.58 3.58 0 0 0 1.3-.8c.37-.35.65-.8.85-1.33l2.26.64a5.04 5.04 0 0 1-1.2 2.03 5.89 5.89 0 0 1-2.09 1.35c-.83.32-1.76.48-2.8.48Zm16.1 0a6.6 6.6 0 0 1-3.7-1 6.62 6.62 0 0 1-2.39-2.8 9.48 9.48 0 0 1-.83-4.07c0-1.55.28-2.92.85-4.1a6.46 6.46 0 0 1 6.03-3.8c1.07-.01 2.04.19 2.9.58a5.56 5.56 0 0 1 2.12 1.68c.55.71.89 1.55 1.02 2.5H226a3.57 3.57 0 0 0-3.66-2.66c-.92 0-1.72.24-2.41.71a4.66 4.66 0 0 0-1.6 2 7.4 7.4 0 0 0-.57 3.01c0 1.18.19 2.21.56 3.09.38.87.9 1.55 1.6 2.03.68.49 1.49.73 2.42.73.6 0 1.16-.1 1.66-.32a3.43 3.43 0 0 0 1.26-.91c.34-.4.59-.88.74-1.43h2.34a5.42 5.42 0 0 1-.98 2.43 5.5 5.5 0 0 1-2.06 1.71c-.85.42-1.84.63-2.96.63Zm9.43-.31V48.73h2.35v6.64h1.55l5.49-6.64h3.02l-6.16 7.35 6.24 7.92h-3.02l-5.01-6.44h-2.11V64h-2.35Zm17.39-3.46 7.36-11.81h2.7V64h-2.35V52.19L249.56 64h-2.75V48.73h2.35v11.81Z"/></svg>