<svg width="262" height="65" fill="none" xmlns="http://www.w3.org/2000/svg">
    <rect x="1" y="9" width="38" height="38" rx="11" fill="#445AFF"/>
    <rect x="1" y="9" width="38" height="38" rx="11" stroke="#445AFF" stroke-width="2"/>
    <path d="M10 20.94 22.187 34C25.937 27.253 35.952 11.407 46 2" stroke="#fff" stroke-width="4"/>
    <path d="M54.466 36V15.636h7.12c1.418 0 2.588.246 3.51.736.92.484 1.607 1.137 2.057 1.959.451.815.676 1.72.676 2.715 0 .875-.155 1.597-.467 2.167-.305.57-.71 1.02-1.213 1.352a5.519 5.519 0 0 1-1.62.736v.199c.623.04 1.249.259 1.879.656.63.398 1.156.968 1.58 1.71.425.743.637 1.651.637 2.725 0 1.02-.232 1.939-.696 2.754-.464.816-1.197 1.462-2.198 1.94-1 .476-2.303.715-3.907.715h-7.358Zm2.466-2.188h4.892c1.61 0 2.754-.311 3.43-.934.683-.63 1.024-1.392 1.024-2.287 0-.69-.175-1.326-.527-1.91-.35-.59-.851-1.06-1.501-1.411-.65-.358-1.419-.537-2.307-.537h-5.011v7.08Zm0-9.227h4.574c.742 0 1.412-.146 2.008-.437a3.511 3.511 0 0 0 1.432-1.233c.358-.53.537-1.154.537-1.87 0-.894-.312-1.653-.935-2.277-.623-.63-1.61-.944-2.963-.944h-4.653v6.761Zm17.455 1.67h4.375c1.79 0 3.159.455 4.107 1.363.948.908 1.421 2.058 1.421 3.45 0 .915-.212 1.747-.636 2.496-.424.742-1.047 1.336-1.87 1.78-.821.437-1.829.656-3.022.656H72.36V20.727h2.346v13.085h4.057c.928 0 1.69-.245 2.287-.735s.895-1.12.895-1.89c0-.808-.298-1.468-.895-1.978s-1.359-.766-2.287-.766h-4.375v-2.187ZM86.717 36V20.727h2.346V36h-2.346Zm12.846.318c-1.432 0-2.665-.338-3.699-1.014-1.034-.676-1.83-1.608-2.386-2.794-.557-1.187-.835-2.542-.835-4.067 0-1.551.285-2.92.855-4.106.577-1.194 1.379-2.125 2.406-2.794 1.034-.677 2.24-1.015 3.62-1.015 1.073 0 2.041.2 2.903.597a5.556 5.556 0 0 1 2.118 1.67c.55.716.891 1.552 1.024 2.506h-2.347c-.179-.696-.576-1.312-1.193-1.85-.61-.543-1.432-.815-2.466-.815-.915 0-1.717.239-2.406.716-.683.47-1.216 1.137-1.6 1.999-.379.855-.568 1.86-.568 3.013 0 1.18.186 2.207.557 3.082.378.875.908 1.555 1.591 2.038.69.484 1.498.726 2.426.726a4.19 4.19 0 0 0 1.661-.318 3.43 3.43 0 0 0 1.263-.915c.344-.397.589-.875.735-1.431h2.347a5.448 5.448 0 0 1-.984 2.435c-.518.716-1.204 1.286-2.059 1.71-.848.418-1.836.627-2.963.627Zm8.233-13.403v-2.188h12.409v2.188h-5.011V36h-2.347V22.915h-5.051Zm19.534 13.443c-.968 0-1.847-.182-2.635-.547a4.523 4.523 0 0 1-1.88-1.6c-.464-.703-.696-1.552-.696-2.546 0-.875.173-1.584.517-2.128.345-.55.806-.981 1.382-1.293a7.277 7.277 0 0 1 1.91-.696c.702-.159 1.408-.285 2.117-.377.928-.12 1.681-.21 2.258-.269.583-.066 1.007-.176 1.272-.328.272-.153.408-.418.408-.796v-.08c0-.98-.269-1.742-.805-2.286-.531-.544-1.336-.815-2.417-.815-1.12 0-1.998.245-2.635.735-.636.49-1.083 1.015-1.342 1.571l-2.227-.795c.398-.928.928-1.65 1.591-2.168a5.956 5.956 0 0 1 2.187-1.093 9.089 9.089 0 0 1 2.347-.319c.49 0 1.054.06 1.69.18a5.415 5.415 0 0 1 1.86.705c.603.358 1.103.899 1.501 1.621.398.723.597 1.69.597 2.904V36h-2.347v-2.068h-.119c-.159.331-.425.686-.796 1.064-.371.378-.865.7-1.481.964-.617.265-1.369.398-2.257.398Zm.358-2.108c.928 0 1.71-.182 2.346-.547.643-.364 1.127-.835 1.452-1.412a3.602 3.602 0 0 0 .497-1.82v-2.147c-.099.12-.318.229-.656.328-.332.093-.716.176-1.154.249-.431.066-.852.125-1.262.178-.405.047-.733.087-.985.12-.61.08-1.18.209-1.71.388-.524.172-.948.434-1.273.785-.318.345-.477.816-.477 1.412 0 .815.302 1.432.905 1.85.61.41 1.382.616 2.317.616ZM138.613 36V20.727h6.244c1.644 0 2.95.372 3.918 1.114.967.742 1.451 1.723 1.451 2.943 0 .928-.275 1.647-.825 2.158-.55.503-1.256.845-2.118 1.024.563.08 1.11.278 1.641.596.537.319.981.756 1.332 1.313.351.55.527 1.226.527 2.028 0 .783-.199 1.482-.597 2.098-.397.617-.967 1.104-1.71 1.462-.742.358-1.63.537-2.665.537h-7.198Zm2.227-2.148h4.971c.809 0 1.442-.192 1.9-.576.457-.385.686-.909.686-1.572 0-.788-.229-1.408-.686-1.859-.458-.457-1.091-.686-1.9-.686h-4.971v4.693Zm0-6.721h4.017c.63 0 1.17-.087 1.621-.259.45-.179.795-.43 1.034-.756a1.92 1.92 0 0 0 .368-1.173c0-.643-.269-1.147-.806-1.511-.537-.371-1.276-.557-2.217-.557h-4.017v4.256ZM152.983 36v-2.188h.557c.457 0 .838-.089 1.143-.268.305-.186.55-.507.736-.964.192-.465.338-1.107.438-1.93.106-.828.182-1.882.228-3.161l.279-6.762h10.181V36h-2.346V22.915h-5.608l-.239 5.449c-.053 1.252-.165 2.356-.338 3.31-.166.949-.421 1.744-.765 2.387-.338.643-.789 1.127-1.353 1.452-.563.325-1.269.487-2.118.487h-.795Zm27.055 0V22.875h-4.056c-.915 0-1.634.212-2.158.636-.524.425-.786 1.008-.786 1.75 0 .73.236 1.303.706 1.72.478.418 1.131.627 1.959.627h4.932v2.188h-4.932c-1.034 0-1.926-.183-2.675-.547-.749-.365-1.325-.885-1.73-1.561-.404-.683-.606-1.492-.606-2.427 0-.94.212-1.75.636-2.426.424-.676 1.031-1.196 1.82-1.56.795-.365 1.74-.548 2.834-.548h6.284V36h-2.228Zm-10.181 0 4.335-7.597h2.545L172.402 36h-2.545Zm14.638-13.085v-2.188h12.409v2.188h-5.011V36h-2.346V22.915h-5.052Zm17.861 3.34h4.375c1.79 0 3.158.455 4.106 1.363.948.908 1.422 2.058 1.422 3.45 0 .915-.212 1.747-.636 2.496-.424.742-1.047 1.336-1.869 1.78-.822.437-1.83.656-3.023.656h-6.404V20.727h2.347v13.085h4.057c.928 0 1.69-.245 2.287-.735.596-.49.895-1.12.895-1.89 0-.808-.299-1.468-.895-1.978-.597-.51-1.359-.766-2.287-.766h-4.375v-2.187ZM58.642 64.359c-.968 0-1.846-.182-2.635-.547a4.523 4.523 0 0 1-1.88-1.6c-.463-.703-.695-1.552-.695-2.546 0-.875.172-1.584.517-2.128a3.65 3.65 0 0 1 1.382-1.293 7.266 7.266 0 0 1 1.91-.696 23.23 23.23 0 0 1 2.117-.378c.928-.119 1.68-.208 2.257-.268.583-.066 1.008-.176 1.273-.328.272-.153.407-.418.407-.796v-.08c0-.98-.268-1.742-.805-2.286-.53-.544-1.336-.815-2.416-.815-1.12 0-1.999.245-2.635.735-.636.49-1.084 1.015-1.342 1.571l-2.228-.795c.398-.928.928-1.65 1.591-2.168a5.964 5.964 0 0 1 2.188-1.093 9.084 9.084 0 0 1 2.346-.319 9.3 9.3 0 0 1 1.69.18 5.409 5.409 0 0 1 1.86.705c.603.358 1.104.899 1.502 1.621.397.723.596 1.69.596 2.904V64h-2.346v-2.068h-.12c-.159.331-.424.686-.795 1.064-.371.378-.865.7-1.482.964-.616.265-1.369.398-2.257.398ZM59 62.25c.928 0 1.71-.182 2.347-.547.643-.364 1.127-.835 1.451-1.412a3.598 3.598 0 0 0 .497-1.82v-2.147c-.099.12-.318.229-.656.328-.331.093-.716.176-1.153.249-.431.066-.852.125-1.263.178a61.64 61.64 0 0 0-.984.12c-.61.08-1.18.209-1.71.388-.524.172-.949.434-1.273.785-.319.345-.478.816-.478 1.412 0 .815.302 1.432.905 1.85.61.41 1.382.616 2.317.616ZM69.925 64V48.727h6.244c1.644 0 2.95.372 3.918 1.114.968.742 1.452 1.723 1.452 2.943 0 .928-.275 1.647-.826 2.158-.55.504-1.256.845-2.117 1.024.563.08 1.11.278 1.64.596.537.319.981.756 1.332 1.313.352.55.528 1.226.528 2.028 0 .783-.2 1.482-.597 2.098-.398.617-.968 1.104-1.71 1.462-.743.358-1.631.537-2.665.537h-7.199Zm2.227-2.148h4.972c.809 0 1.442-.192 1.9-.576.457-.385.685-.909.685-1.572 0-.788-.228-1.408-.686-1.859-.457-.457-1.09-.686-1.9-.686h-4.97v4.693Zm0-6.721h4.017c.63 0 1.17-.087 1.621-.259.45-.179.796-.43 1.034-.755.246-.332.368-.723.368-1.174 0-.643-.268-1.147-.805-1.511-.537-.371-1.276-.557-2.218-.557h-4.017v4.256Zm12.62-4.216v-2.188h12.41v2.188H92.17V64h-2.347V50.915h-5.051Zm21.244 13.403c-1.378 0-2.588-.328-3.629-.984-1.034-.656-1.843-1.575-2.426-2.755-.577-1.18-.865-2.558-.865-4.136 0-1.59.288-2.98.865-4.166.583-1.187 1.392-2.108 2.426-2.764 1.041-.657 2.251-.985 3.629-.985 1.379 0 2.586.328 3.62.985 1.04.656 1.849 1.577 2.426 2.764.583 1.187.875 2.575.875 4.166 0 1.578-.292 2.957-.875 4.137-.577 1.18-1.386 2.098-2.426 2.754-1.034.656-2.241.984-3.62.984Zm0-2.108c1.048 0 1.909-.268 2.586-.805.676-.537 1.176-1.243 1.501-2.118a8.104 8.104 0 0 0 .487-2.844c0-1.02-.162-1.972-.487-2.853-.325-.882-.825-1.595-1.501-2.138-.677-.544-1.538-.816-2.586-.816-1.047 0-1.909.272-2.585.816-.676.543-1.177 1.256-1.501 2.138a8.187 8.187 0 0 0-.488 2.853c0 1.021.163 1.969.488 2.844.324.875.825 1.58 1.501 2.118.676.537 1.538.805 2.585.805Zm18.855-1.392 5.33-12.09h2.227L125.826 64h-1.909l-6.483-15.273h2.187l5.25 12.091Zm-6.006-12.09V64h-2.346V48.727h2.346ZM130.877 64V48.727h2.346V64h-2.346Zm11.136.358c-.968 0-1.846-.182-2.635-.547a4.52 4.52 0 0 1-1.879-1.6c-.464-.703-.696-1.552-.696-2.546 0-.875.172-1.584.517-2.128a3.65 3.65 0 0 1 1.382-1.293 7.27 7.27 0 0 1 1.909-.696c.703-.159 1.409-.285 2.118-.378a94.79 94.79 0 0 1 2.257-.268c.583-.066 1.008-.176 1.273-.328.272-.153.408-.418.408-.796v-.08c0-.98-.269-1.742-.806-2.286-.53-.544-1.336-.815-2.416-.815-1.12 0-1.999.245-2.635.735-.636.49-1.084 1.015-1.342 1.571l-2.228-.795c.398-.928.928-1.65 1.591-2.168a5.968 5.968 0 0 1 2.188-1.093 9.076 9.076 0 0 1 2.346-.319c.491 0 1.054.06 1.691.18a5.403 5.403 0 0 1 1.859.705c.603.358 1.104.899 1.502 1.621.397.723.596 1.69.596 2.904V64h-2.346v-2.068h-.12c-.159.331-.424.686-.795 1.064-.371.378-.865.7-1.482.964-.616.265-1.369.398-2.257.398Zm.358-2.108c.928 0 1.71-.182 2.347-.547.643-.364 1.127-.835 1.451-1.412a3.593 3.593 0 0 0 .498-1.82v-2.147c-.1.12-.319.229-.657.328a11.06 11.06 0 0 1-1.153.249 52.33 52.33 0 0 1-1.263.178c-.404.047-.732.087-.984.12-.61.08-1.18.209-1.71.388-.524.172-.948.434-1.273.785-.318.345-.477.816-.477 1.412 0 .815.301 1.432.904 1.85.61.41 1.382.616 2.317.616Zm8.847-11.335v-2.188h12.409v2.188h-5.011V64h-2.347V50.915h-5.051Zm18.179 9.625 7.358-11.813h2.704V64h-2.346V52.187L169.794 64h-2.744V48.727h2.347V60.54Zm26.133-11.813V64h-2.347V48.727h2.347Zm-.915 7.279v2.187c-.53.199-1.057.375-1.581.527-.524.146-1.074.262-1.65.348-.577.08-1.21.12-1.9.12-1.73 0-3.118-.468-4.166-1.403-1.041-.934-1.561-2.336-1.561-4.205v-4.892h2.347v4.892c0 .782.149 1.425.447 1.928.298.504.703.879 1.213 1.124a3.923 3.923 0 0 0 1.72.368c.995 0 1.893-.09 2.695-.269a20.278 20.278 0 0 0 2.436-.725Zm11.624 8.312c-1.472 0-2.741-.325-3.809-.974-1.06-.657-1.879-1.571-2.456-2.745-.57-1.18-.855-2.552-.855-4.116 0-1.564.285-2.943.855-4.136.577-1.2 1.379-2.135 2.407-2.804 1.034-.676 2.24-1.015 3.619-1.015.795 0 1.581.133 2.357.398a5.838 5.838 0 0 1 2.117 1.293c.637.59 1.144 1.372 1.522 2.346.378.975.566 2.175.566 3.6v.994H200.79v-2.028h9.386c0-.862-.172-1.631-.517-2.307a3.894 3.894 0 0 0-1.452-1.601c-.623-.391-1.359-.587-2.207-.587-.935 0-1.743.232-2.426.696a4.575 4.575 0 0 0-1.561 1.79 5.252 5.252 0 0 0-.547 2.367v1.352c0 1.153.199 2.131.596 2.933.405.796.965 1.402 1.681 1.82.716.41 1.548.616 2.496.616.616 0 1.173-.086 1.67-.258a3.579 3.579 0 0 0 1.303-.796c.364-.358.646-.802.845-1.332l2.267.636a5.035 5.035 0 0 1-1.203 2.029c-.564.576-1.26 1.027-2.088 1.352-.829.318-1.76.477-2.794.477Zm16.098 0c-1.432 0-2.665-.338-3.699-1.014-1.034-.676-1.83-1.608-2.387-2.794-.556-1.187-.835-2.542-.835-4.067 0-1.551.285-2.92.855-4.106.577-1.194 1.379-2.125 2.407-2.794 1.034-.676 2.24-1.015 3.619-1.015 1.074 0 2.042.2 2.903.597a5.556 5.556 0 0 1 2.118 1.67c.55.716.892 1.552 1.024 2.506h-2.346c-.179-.696-.577-1.312-1.193-1.85-.61-.543-1.432-.815-2.466-.815-.915 0-1.717.239-2.407.716-.682.47-1.216 1.137-1.6 1.999-.378.855-.567 1.86-.567 3.013 0 1.18.185 2.207.557 3.082.377.875.908 1.555 1.591 2.038.689.484 1.498.726 2.426.726.609 0 1.163-.106 1.66-.318a3.43 3.43 0 0 0 1.263-.915c.345-.397.59-.875.736-1.431h2.346a5.425 5.425 0 0 1-.984 2.435c-.517.716-1.203 1.286-2.058 1.71-.849.418-1.836.627-2.963.627Zm9.436-.318V48.727h2.346v6.642h1.551l5.489-6.642h3.023l-6.165 7.358L244.261 64h-3.022l-5.012-6.443h-2.108V64h-2.346Zm17.385-3.46 7.358-11.813h2.705V64h-2.347V52.187L249.556 64h-2.744V48.727h2.346V60.54Z" fill="#101010"/>
</svg>
