<svg width="298" height="46" fill="none" xmlns="http://www.w3.org/2000/svg">
    <rect x=".28" y=".12" width="297.44" height="45.76" rx="22.88" fill="#fff"/>
    <rect x=".28" y=".12" width="45.76" height="45.76" rx="22.88" fill="#8208E1"/>
    <path d="M22.207 16.327a.953.953 0 1 1 1.906 0v13.346a.953.953 0 1 1-1.906 0V16.328Z" fill="#fff"/>
    <path d="M15.533 23c0-.526.427-.953.954-.953h13.346a.953.953 0 1 1 0 1.906H16.487a.953.953 0 0 1-.954-.953Z" fill="#fff"/>
    <path d="M59.928 19.56v-1.933h9.111v1.934h-3.396v9.159h-2.318v-9.16h-3.397ZM69.676 22.215V20.4h7.54v1.815h-2.681v6.505h-2.2v-6.505h-2.66ZM100.391 28.72V17.627h2.345v4.577h4.762v-4.577h2.34V28.72h-2.34v-4.582h-4.762v4.582h-2.345ZM116.533 17.627V28.72h-2.346v-8.867h-.065l-2.54 1.592v-2.08l2.746-1.738h2.205ZM139.477 28.72V17.627h2.346v4.577h4.761v-4.577h2.34V28.72h-2.34v-4.582h-4.761v4.582h-2.346ZM150.793 28.72v-1.69l3.949-3.656c.335-.325.617-.618.845-.878.231-.26.406-.514.525-.763.119-.253.179-.526.179-.818 0-.325-.074-.605-.222-.84a1.461 1.461 0 0 0-.607-.547 1.9 1.9 0 0 0-.872-.195c-.34 0-.636.069-.888.206a1.417 1.417 0 0 0-.585.59c-.138.257-.206.562-.206.916h-2.226c0-.726.164-1.356.492-1.89a3.291 3.291 0 0 1 1.382-1.241c.592-.293 1.274-.439 2.047-.439.795 0 1.486.14 2.075.423.592.278 1.052.664 1.381 1.159.329.495.493 1.061.493 1.7 0 .42-.083.833-.249 1.241-.163.408-.453.861-.872 1.36-.419.494-1.01 1.088-1.772 1.782l-1.619 1.587v.076h4.658v1.917h-7.908ZM179.041 28.72V17.627h2.345v4.577h4.761v-4.577h2.34V28.72h-2.34v-4.582h-4.761v4.582h-2.345ZM194.457 28.872c-.809 0-1.53-.14-2.162-.417-.628-.282-1.125-.668-1.489-1.16a2.915 2.915 0 0 1-.558-1.711h2.362c.014.27.102.509.265.715.166.202.386.36.661.471.274.112.583.168.926.168.358 0 .673-.063.948-.19.274-.126.489-.301.645-.525.155-.224.232-.482.232-.775 0-.296-.083-.558-.249-.785a1.589 1.589 0 0 0-.704-.542c-.303-.13-.664-.195-1.083-.195h-1.035v-1.722h1.035c.354 0 .666-.062.937-.184.274-.123.487-.293.639-.51.152-.22.228-.476.228-.769 0-.278-.067-.521-.201-.73a1.323 1.323 0 0 0-.552-.5 1.8 1.8 0 0 0-.824-.178 2.15 2.15 0 0 0-.872.173 1.53 1.53 0 0 0-.634.482c-.158.21-.243.455-.254.737h-2.248c.011-.64.193-1.202.547-1.69.354-.487.831-.868 1.43-1.143.603-.278 1.284-.417 2.042-.417.766 0 1.436.14 2.01.417.574.278 1.02.654 1.338 1.127.321.47.48.997.476 1.582.004.62-.189 1.139-.579 1.554-.387.415-.89.679-1.512.79v.088c.817.104 1.438.388 1.864.85.429.459.643 1.033.639 1.723a2.706 2.706 0 0 1-.547 1.684c-.365.491-.869.878-1.511 1.16-.643.28-1.38.422-2.21.422ZM227.179 17.627V28.72h-2.346v-8.867h-.065l-2.54 1.592v-2.08l2.746-1.738h2.205ZM230.59 28.86c-.357 0-.664-.125-.921-.378a1.264 1.264 0 0 1-.379-.921c0-.354.126-.657.379-.91.257-.253.564-.38.921-.38.347 0 .65.127.91.38s.39.556.39.91c0 .238-.061.457-.184.655a1.398 1.398 0 0 1-.471.471c-.195.116-.41.174-.645.174ZM235.133 28.86c-.357 0-.664-.125-.921-.378a1.268 1.268 0 0 1-.379-.921c0-.354.127-.657.379-.91.257-.253.564-.38.921-.38.347 0 .65.127.91.38s.39.556.39.91c0 .238-.061.457-.184.655a1.398 1.398 0 0 1-.471.471c-.195.116-.41.174-.645.174ZM271.98 23a2.86 2.86 0 1 1-5.72 0 2.86 2.86 0 0 1 5.72 0Z" fill="#404040"/>
</svg>
