<svg xmlns="http://www.w3.org/2000/svg" width="298" height="46" fill="none"><rect width="297.44" height="45.76" x=".28" y=".12" fill="#fff" rx="22.88"/><rect width="45.76" height="45.76" x=".28" y=".12" fill="#8208E1" rx="22.88"/><path fill="#fff" d="M22.2 16.33a.95.95 0 1 1 1.91 0v13.34a.95.95 0 1 1-1.9 0V16.33Z"/><path fill="#fff" d="M15.53 23c0-.53.43-.95.96-.95h13.34a.95.95 0 1 1 0 1.9H16.5a.95.95 0 0 1-.96-.95Z"/><path fill="#404040" d="M59.93 19.56v-1.93h9.1v1.93h-3.39v9.16h-2.31v-9.16h-3.4Zm9.75 2.66V20.4h7.54v1.81h-2.68v6.51h-2.2v-6.5h-2.66Zm30.71 6.5v-11.1h2.35v4.58h4.76v-4.57h2.34v11.09h-2.34v-4.58h-4.76v4.58h-2.35Zm16.14-11.1v11.1h-2.34v-8.87h-.07l-2.54 1.6v-2.09l2.75-1.73h2.2Zm22.95 11.1v-11.1h2.34v4.58h4.76v-4.57h2.34v11.09h-2.34v-4.58h-4.76v4.58h-2.34Zm11.31 0v-1.69l3.95-3.66c.34-.32.62-.61.85-.87.23-.26.4-.52.52-.77s.18-.52.18-.82c0-.32-.07-.6-.22-.84a1.46 1.46 0 0 0-.6-.54 1.9 1.9 0 0 0-.88-.2c-.34 0-.64.07-.89.2a1.42 1.42 0 0 0-.58.6c-.14.26-.2.56-.2.91h-2.23c0-.72.16-1.35.49-1.89a3.3 3.3 0 0 1 1.38-1.24c.6-.29 1.27-.44 2.05-.44.8 0 1.48.14 2.07.43.6.28 1.05.66 1.38 1.16a3 3 0 0 1 .5 1.7c0 .42-.09.83-.25 1.24-.17.4-.46.86-.88 1.36-.42.5-1 1.09-1.77 1.78l-1.62 1.59v.07h4.66v1.92h-7.9Zm28.25 0v-11.1h2.35v4.58h4.76v-4.57h2.34v11.09h-2.34v-4.58h-4.76v4.58h-2.35Zm15.42.15c-.81 0-1.53-.14-2.17-.42a3.68 3.68 0 0 1-1.48-1.16 2.92 2.92 0 0 1-.56-1.7h2.36c.01.26.1.5.26.7.17.21.4.37.67.48.27.11.58.17.92.17.36 0 .67-.07.95-.2.27-.12.49-.3.64-.52.16-.22.24-.48.24-.77 0-.3-.09-.56-.25-.79a1.59 1.59 0 0 0-.7-.54c-.3-.13-.67-.2-1.09-.2h-1.03V22.2h1.03c.35 0 .67-.06.94-.18.27-.12.48-.3.64-.51.15-.22.22-.48.22-.77 0-.28-.06-.52-.2-.73a1.32 1.32 0 0 0-.55-.5 1.8 1.8 0 0 0-.82-.18 2.15 2.15 0 0 0-.87.18 1.53 1.53 0 0 0-.64.48c-.16.2-.24.45-.25.73h-2.25c.01-.64.2-1.2.55-1.69.35-.48.83-.86 1.43-1.14.6-.28 1.28-.42 2.04-.42.77 0 1.44.14 2 .42a3.3 3.3 0 0 1 1.35 1.13c.32.47.48 1 .47 1.58 0 .62-.19 1.14-.58 1.55-.38.42-.89.68-1.5.8v.08c.8.1 1.43.4 1.86.85.43.46.64 1.04.64 1.73a2.7 2.7 0 0 1-.55 1.68c-.37.5-.87.88-1.51 1.16-.65.28-1.38.42-2.21.42Zm32.72-11.24v11.09h-2.35v-8.87h-.06l-2.54 1.6v-2.09l2.74-1.73h2.2Zm3.41 11.23c-.36 0-.66-.13-.92-.38a1.26 1.26 0 0 1-.38-.92c0-.35.13-.66.38-.9.26-.26.56-.39.92-.39.35 0 .65.13.91.38s.39.56.39.91c0 .24-.06.46-.18.66a1.4 1.4 0 0 1-.48.47c-.19.11-.4.17-.64.17Zm4.54 0c-.35 0-.66-.13-.92-.38a1.27 1.27 0 0 1-.38-.92c0-.35.13-.66.38-.9.26-.26.57-.39.92-.39.35 0 .65.13.91.38s.4.56.4.91c0 .24-.07.46-.2.66a1.4 1.4 0 0 1-.46.47c-.2.11-.41.17-.65.17ZM271.98 23a2.86 2.86 0 1 1-5.72 0 2.86 2.86 0 0 1 5.72 0Z"/></svg>