<svg width="832" height="677" fill="none" xmlns="http://www.w3.org/2000/svg">
    <path d="M1192 486.689c-45.78 66.803-99.03 177.208-192.458 169.972-34.525-2.909-62.152-30.809-67.595-64.453-7.569-46.4 8.687-88.846 22.146-133.717 17.822-54.755 40.565-107.832 62.897-161.095 23.97-61.879 61.07-129.316 47.65-197.126-13.72-66.131-89.519-85.564-141.939-51.883-89.257 75.419-208.155 245.428-286.823 325.323-24.458 22.827-64.911 20.627-84.895-9.101-17.523-26.93-15.249-62.774-8.799-92.129 19.201-79.671 63.643-205.182 67.782-282.504 4.996-53.076-36.352-83.438-84.41-88.585C430.334-106.18 316.992-2.04 252.305 60.92c-50.631 51.845-95.596 110.33-136.98 171.65-77.028 119.618-126.28 233.045-64.538 300.818 24.793 27.377 70.279 45.803 109.129 37.784 75.648-12.122 111.291-82.804 124.341-152.889 13.161-61.992 15.025-124.729 2.982-186.981C250.627 34.698 89.786-22.631-29 153.459" stroke="url(#a)" stroke-width="40" stroke-miterlimit="10" stroke-linecap="round"/>
    <defs>
        <linearGradient id="a" x1="-29" y1="20.338" x2="885.255" y2="501.246" gradientUnits="userSpaceOnUse">
            <stop stop-color="#445AFF"/>
            <stop offset=".51" stop-color="#45FFDA"/>
            <stop offset="1" stop-color="#00B32F"/>
        </linearGradient>
    </defs>
</svg>
