<svg width="832" height="677" viewBox="0 0 832 677" fill="none" xmlns="http://www.w3.org/2000/svg">
<path d="M1192 486.689C1146.22 553.492 1092.97 663.897 999.542 656.661C965.017 653.752 937.39 625.852 931.947 592.208C924.378 545.808 940.634 503.362 954.093 458.491C971.915 403.736 994.658 350.659 1016.99 297.396C1040.96 235.517 1078.06 168.08 1064.64 100.27C1050.92 34.1387 975.121 14.7059 922.701 48.387C833.444 123.806 714.546 293.815 635.878 373.71C611.42 396.537 570.967 394.337 550.983 364.609C533.46 337.679 535.734 301.835 542.184 272.48C561.385 192.809 605.827 67.2976 609.966 -10.0235C614.962 -63.1002 573.614 -93.4616 525.556 -98.6089C430.334 -106.181 316.992 -2.04145 252.305 60.9195C201.674 112.765 156.709 171.25 115.325 232.57C38.2969 352.188 -10.9547 465.615 50.7869 533.388C75.5804 560.765 121.066 579.191 159.916 571.172C235.564 559.05 271.207 488.368 284.257 418.283C297.418 356.291 299.282 293.554 287.239 231.302C250.627 34.6982 89.7855 -22.6306 -29 153.459" stroke="url(#paint0_linear_3726_8947)" stroke-width="40" stroke-miterlimit="10" stroke-linecap="round"/>
<defs>
<linearGradient id="paint0_linear_3726_8947" x1="-29" y1="20.3384" x2="885.255" y2="501.246" gradientUnits="userSpaceOnUse">
<stop stop-color="#445AFF"/>
<stop offset="0.51" stop-color="#45FFDA"/>
<stop offset="1" stop-color="#00B32F"/>
</linearGradient>
</defs>
</svg>
