<svg xmlns="http://www.w3.org/2000/svg" width="32" height="32" viewBox="0 0 32 32" fill="none">
  <g clip-path="url(#clip0_1388_522)">
  <path d="M10.6187 24.8375C10.6187 24.9625 10.475 25.0625 10.2937 25.0625C10.0875 25.0812 9.94375 24.9812 9.94375 24.8375C9.94375 24.7125 10.0875 24.6125 10.2688 24.6125C10.4563 24.5938 10.6187 24.6938 10.6187 24.8375ZM8.675 24.5562C8.63125 24.6812 8.75625 24.825 8.94375 24.8625C9.10625 24.925 9.29375 24.8625 9.33125 24.7375C9.36875 24.6125 9.25 24.4688 9.0625 24.4125C8.9 24.3687 8.71875 24.4312 8.675 24.5562ZM11.4375 24.45C11.2563 24.4938 11.1312 24.6125 11.15 24.7563C11.1687 24.8813 11.3313 24.9625 11.5188 24.9188C11.7 24.875 11.825 24.7563 11.8062 24.6313C11.7875 24.5125 11.6187 24.4313 11.4375 24.45ZM15.55 0.5C6.88125 0.5 0.25 7.08125 0.25 15.75C0.25 22.6812 4.6125 28.6125 10.8438 30.7C11.6438 30.8438 11.925 30.35 11.925 29.9438C11.925 29.5562 11.9062 27.4188 11.9062 26.1063C11.9062 26.1063 7.53125 27.0437 6.6125 24.2437C6.6125 24.2437 5.9 22.425 4.875 21.9562C4.875 21.9562 3.44375 20.975 4.975 20.9937C4.975 20.9937 6.53125 21.1188 7.3875 22.6063C8.75625 25.0188 11.05 24.325 11.9438 23.9125C12.0875 22.9125 12.4938 22.2188 12.9438 21.8062C9.45 21.4187 5.925 20.9125 5.925 14.9C5.925 13.1812 6.4 12.3188 7.4 11.2188C7.2375 10.8125 6.70625 9.1375 7.5625 6.975C8.86875 6.56875 11.875 8.6625 11.875 8.6625C13.125 8.3125 14.4688 8.13125 15.8 8.13125C17.1313 8.13125 18.475 8.3125 19.725 8.6625C19.725 8.6625 22.7313 6.5625 24.0375 6.975C24.8938 9.14375 24.3625 10.8125 24.2 11.2188C25.2 12.325 25.8125 13.1875 25.8125 14.9C25.8125 20.9312 22.1313 21.4125 18.6375 21.8062C19.2125 22.3 19.7 23.2375 19.7 24.7062C19.7 26.8125 19.6812 29.4187 19.6812 29.9312C19.6812 30.3375 19.9688 30.8312 20.7625 30.6875C27.0125 28.6125 31.25 22.6812 31.25 15.75C31.25 7.08125 24.2188 0.5 15.55 0.5ZM6.325 22.0562C6.24375 22.1187 6.2625 22.2625 6.36875 22.3813C6.46875 22.4813 6.6125 22.525 6.69375 22.4438C6.775 22.3813 6.75625 22.2375 6.65 22.1187C6.55 22.0187 6.40625 21.975 6.325 22.0562ZM5.65 21.55C5.60625 21.6312 5.66875 21.7313 5.79375 21.7938C5.89375 21.8563 6.01875 21.8375 6.0625 21.75C6.10625 21.6688 6.04375 21.5688 5.91875 21.5063C5.79375 21.4688 5.69375 21.4875 5.65 21.55ZM7.675 23.775C7.575 23.8562 7.6125 24.0438 7.75625 24.1625C7.9 24.3062 8.08125 24.325 8.1625 24.225C8.24375 24.1438 8.20625 23.9562 8.08125 23.8375C7.94375 23.6938 7.75625 23.675 7.675 23.775ZM6.9625 22.8563C6.8625 22.9188 6.8625 23.0813 6.9625 23.225C7.0625 23.3687 7.23125 23.4312 7.3125 23.3687C7.4125 23.2875 7.4125 23.125 7.3125 22.9813C7.225 22.8375 7.0625 22.775 6.9625 22.8563Z" fill="#404040"/>
  </g>
  <defs>
  <clipPath id="clip0_1388_522">
  <rect width="31" height="32" fill="white" transform="translate(0.25)"/>
  </clipPath>
  </defs>
  </svg>  