<svg width="16" height="16" viewBox="0 0 16 16" fill="none" xmlns="http://www.w3.org/2000/svg">
<path fill-rule="evenodd" clip-rule="evenodd" d="M5.2862 4.4379L7.52884 2.19526C7.78919 1.93491 8.2113 1.93491 8.47165 2.19526L10.7143 4.4379C10.9746 4.69825 10.9746 5.12036 10.7143 5.38071C10.4539 5.64106 10.0318 5.64106 9.77149 5.38071L8.66692 4.27614L8.66692 9.33333C8.66692 9.70152 8.36844 10 8.00025 10C7.63206 10 7.33358 9.70152 7.33358 9.33333L7.33358 4.27614L6.22901 5.38071C5.96866 5.64106 5.54655 5.64106 5.2862 5.38071C5.02585 5.12036 5.02585 4.69825 5.2862 4.4379Z" fill="#101010"/>
<path fill-rule="evenodd" clip-rule="evenodd" d="M2.00004 6.66699C2.36823 6.66699 2.66671 6.96547 2.66671 7.33366V10.667C2.66671 11.7716 3.56214 12.667 4.66671 12.667H11.3334C12.4379 12.667 13.3334 11.7716 13.3334 10.667V7.33366C13.3334 6.96547 13.6319 6.66699 14 6.66699C14.3682 6.66699 14.6667 6.96547 14.6667 7.33366V10.667C14.6667 12.5079 13.1743 14.0003 11.3334 14.0003H4.66671C2.82576 14.0003 1.33337 12.5079 1.33337 10.667V7.33366C1.33337 6.96547 1.63185 6.66699 2.00004 6.66699Z" fill="#101010"/>
</svg>
