<svg width="42" height="42" viewBox="0 0 42 42" fill="none" xmlns="http://www.w3.org/2000/svg">
<g filter="url(#filter0_ii_406_10920)">
<rect x="0.289459" y="0.765625" width="40.9254" height="40.9254" rx="20.4627" fill="#445AFF"/>
<g clip-path="url(#clip0_406_10920)">
<g filter="url(#filter1_di_406_10920)">
<path fill-rule="evenodd" clip-rule="evenodd" d="M28.2125 16.286C28.2125 15.6274 27.6212 15.1264 26.9716 15.2347L17.5549 16.8042V23.5246L26.9716 25.0941C27.6212 25.2023 28.2125 24.7014 28.2125 24.0428V16.286ZM26.6211 13.1322L16.4009 14.8356H13.2918C12.1146 14.8356 11.1603 15.7899 11.1603 16.9671V23.3617C11.1603 24.5389 12.1146 25.4932 13.2918 25.4932V26.559C13.2918 28.3248 14.7233 29.7563 16.4891 29.7563H17.5549C19.3207 29.7563 20.7522 28.3248 20.7522 26.559V26.2184L26.6211 27.1966C28.57 27.5214 30.3441 26.0185 30.3441 24.0428V16.286C30.3441 14.3102 28.57 12.8074 26.6211 13.1322ZM18.6206 25.8632L16.4009 25.4932H15.4233V26.559C15.4233 27.1476 15.9005 27.6247 16.4891 27.6247H17.5549C18.1435 27.6247 18.6206 27.1476 18.6206 26.559V25.8632ZM13.2918 16.9671H15.4233V23.3617H13.2918V16.9671Z" fill="white"/>
</g>
</g>
</g>
<defs>
<filter id="filter0_ii_406_10920" x="-3.5473" y="-3.07113" width="48.5989" height="48.5993" filterUnits="userSpaceOnUse" color-interpolation-filters="sRGB">
<feFlood flood-opacity="0" result="BackgroundImageFix"/>
<feBlend mode="normal" in="SourceGraphic" in2="BackgroundImageFix" result="shape"/>
<feColorMatrix in="SourceAlpha" type="matrix" values="0 0 0 0 0 0 0 0 0 0 0 0 0 0 0 0 0 0 127 0" result="hardAlpha"/>
<feOffset dx="-3.83676" dy="-3.83676"/>
<feGaussianBlur stdDeviation="1.91838"/>
<feComposite in2="hardAlpha" operator="arithmetic" k2="-1" k3="1"/>
<feColorMatrix type="matrix" values="0 0 0 0 0.105882 0 0 0 0 0.105882 0 0 0 0 0.105882 0 0 0 0.15 0"/>
<feBlend mode="normal" in2="shape" result="effect1_innerShadow_406_10920"/>
<feColorMatrix in="SourceAlpha" type="matrix" values="0 0 0 0 0 0 0 0 0 0 0 0 0 0 0 0 0 0 127 0" result="hardAlpha"/>
<feOffset dx="3.83676" dy="3.83676"/>
<feGaussianBlur stdDeviation="1.91838"/>
<feComposite in2="hardAlpha" operator="arithmetic" k2="-1" k3="1"/>
<feColorMatrix type="matrix" values="0 0 0 0 1 0 0 0 0 1 0 0 0 0 1 0 0 0 0.15 0"/>
<feBlend mode="normal" in2="effect1_innerShadow_406_10920" result="effect2_innerShadow_406_10920"/>
</filter>
<filter id="filter1_di_406_10920" x="7.32353" y="9.25113" width="26.8573" height="24.3415" filterUnits="userSpaceOnUse" color-interpolation-filters="sRGB">
<feFlood flood-opacity="0" result="BackgroundImageFix"/>
<feColorMatrix in="SourceAlpha" type="matrix" values="0 0 0 0 0 0 0 0 0 0 0 0 0 0 0 0 0 0 127 0" result="hardAlpha"/>
<feOffset/>
<feGaussianBlur stdDeviation="1.91838"/>
<feColorMatrix type="matrix" values="0 0 0 0 0.105882 0 0 0 0 0.105882 0 0 0 0 0.105882 0 0 0 0.15 0"/>
<feBlend mode="normal" in2="BackgroundImageFix" result="effect1_dropShadow_406_10920"/>
<feBlend mode="normal" in="SourceGraphic" in2="effect1_dropShadow_406_10920" result="shape"/>
<feColorMatrix in="SourceAlpha" type="matrix" values="0 0 0 0 0 0 0 0 0 0 0 0 0 0 0 0 0 0 127 0" result="hardAlpha"/>
<feOffset dx="-0.639459" dy="-0.639459"/>
<feGaussianBlur stdDeviation="0.959189"/>
<feComposite in2="hardAlpha" operator="arithmetic" k2="-1" k3="1"/>
<feColorMatrix type="matrix" values="0 0 0 0 0.105882 0 0 0 0 0.105882 0 0 0 0 0.105882 0 0 0 0.15 0"/>
<feBlend mode="normal" in2="shape" result="effect2_innerShadow_406_10920"/>
</filter>
<clipPath id="clip0_406_10920">
<rect width="25.5784" height="25.5784" fill="white" transform="translate(7.96299 8.44141)"/>
</clipPath>
</defs>
</svg>
