<svg width="42" height="42" viewBox="0 0 42 42" fill="none" xmlns="http://www.w3.org/2000/svg">
<g filter="url(#filter0_ii_406_10914)">
<rect x="0.289459" y="0.914062" width="40.9254" height="40.9254" rx="20.4627" fill="#445AFF"/>
<g clip-path="url(#clip0_406_10914)">
<g filter="url(#filter1_di_406_10914)">
<path fill-rule="evenodd" clip-rule="evenodd" d="M25.0152 26.7039H15.8987L13.2918 28.2681V17.112C13.2918 15.3462 14.7233 13.9147 16.4891 13.9147H25.0152C26.781 13.9147 28.2125 15.3462 28.2125 17.112V23.5066C28.2125 25.2724 26.781 26.7039 25.0152 26.7039ZM25.0152 28.8355H16.4891L12.7744 31.0643C12.064 31.4905 11.1603 30.9788 11.1603 30.1504V17.112C11.1603 14.169 13.5461 11.7832 16.4891 11.7832H25.0152C27.9582 11.7832 30.344 14.169 30.344 17.112V23.5066C30.344 26.4497 27.9582 28.8355 25.0152 28.8355ZM15.4233 20.5757C15.4233 19.8399 16.0198 19.2435 16.7555 19.2435C17.4913 19.2435 18.0877 19.8399 18.0877 20.5757C18.0877 21.3114 17.4913 21.9079 16.7555 21.9079C16.0198 21.9079 15.4233 21.3114 15.4233 20.5757ZM19.4199 20.5757C19.4199 19.8399 20.0164 19.2435 20.7521 19.2435C21.4879 19.2435 22.0844 19.8399 22.0844 20.5757C22.0844 21.3114 21.4879 21.9079 20.7521 21.9079C20.0164 21.9079 19.4199 21.3114 19.4199 20.5757ZM24.7488 19.2435C24.013 19.2435 23.4166 19.8399 23.4166 20.5757C23.4166 21.3114 24.013 21.9079 24.7488 21.9079C25.4845 21.9079 26.081 21.3114 26.081 20.5757C26.081 19.8399 25.4845 19.2435 24.7488 19.2435Z" fill="white"/>
</g>
</g>
</g>
<defs>
<filter id="filter0_ii_406_10914" x="-3.5473" y="-2.92269" width="48.5989" height="48.5993" filterUnits="userSpaceOnUse" color-interpolation-filters="sRGB">
<feFlood flood-opacity="0" result="BackgroundImageFix"/>
<feBlend mode="normal" in="SourceGraphic" in2="BackgroundImageFix" result="shape"/>
<feColorMatrix in="SourceAlpha" type="matrix" values="0 0 0 0 0 0 0 0 0 0 0 0 0 0 0 0 0 0 127 0" result="hardAlpha"/>
<feOffset dx="-3.83676" dy="-3.83676"/>
<feGaussianBlur stdDeviation="1.91838"/>
<feComposite in2="hardAlpha" operator="arithmetic" k2="-1" k3="1"/>
<feColorMatrix type="matrix" values="0 0 0 0 0.105882 0 0 0 0 0.105882 0 0 0 0 0.105882 0 0 0 0.15 0"/>
<feBlend mode="normal" in2="shape" result="effect1_innerShadow_406_10914"/>
<feColorMatrix in="SourceAlpha" type="matrix" values="0 0 0 0 0 0 0 0 0 0 0 0 0 0 0 0 0 0 127 0" result="hardAlpha"/>
<feOffset dx="3.83676" dy="3.83676"/>
<feGaussianBlur stdDeviation="1.91838"/>
<feComposite in2="hardAlpha" operator="arithmetic" k2="-1" k3="1"/>
<feColorMatrix type="matrix" values="0 0 0 0 1 0 0 0 0 1 0 0 0 0 1 0 0 0 0.15 0"/>
<feBlend mode="normal" in2="effect1_innerShadow_406_10914" result="effect2_innerShadow_406_10914"/>
</filter>
<filter id="filter1_di_406_10914" x="7.3235" y="7.94645" width="26.8573" height="27.1091" filterUnits="userSpaceOnUse" color-interpolation-filters="sRGB">
<feFlood flood-opacity="0" result="BackgroundImageFix"/>
<feColorMatrix in="SourceAlpha" type="matrix" values="0 0 0 0 0 0 0 0 0 0 0 0 0 0 0 0 0 0 127 0" result="hardAlpha"/>
<feOffset/>
<feGaussianBlur stdDeviation="1.91838"/>
<feColorMatrix type="matrix" values="0 0 0 0 0.105882 0 0 0 0 0.105882 0 0 0 0 0.105882 0 0 0 0.15 0"/>
<feBlend mode="normal" in2="BackgroundImageFix" result="effect1_dropShadow_406_10914"/>
<feBlend mode="normal" in="SourceGraphic" in2="effect1_dropShadow_406_10914" result="shape"/>
<feColorMatrix in="SourceAlpha" type="matrix" values="0 0 0 0 0 0 0 0 0 0 0 0 0 0 0 0 0 0 127 0" result="hardAlpha"/>
<feOffset dx="-0.639459" dy="-0.639459"/>
<feGaussianBlur stdDeviation="0.959189"/>
<feComposite in2="hardAlpha" operator="arithmetic" k2="-1" k3="1"/>
<feColorMatrix type="matrix" values="0 0 0 0 0.105882 0 0 0 0 0.105882 0 0 0 0 0.105882 0 0 0 0.15 0"/>
<feBlend mode="normal" in2="shape" result="effect2_innerShadow_406_10914"/>
</filter>
<clipPath id="clip0_406_10914">
<rect width="25.5784" height="25.5784" fill="white" transform="translate(7.96296 8.58594)"/>
</clipPath>
</defs>
</svg>
