<svg width="42" height="42" viewBox="0 0 42 42" fill="none" xmlns="http://www.w3.org/2000/svg">
<g filter="url(#filter0_ii_406_10923)">
<rect x="0.949707" y="0.691406" width="40.9254" height="40.9254" rx="20.4627" fill="#445AFF"/>
<g clip-path="url(#clip0_406_10923)">
<g filter="url(#filter1_di_406_10923)">
<path fill-rule="evenodd" clip-rule="evenodd" d="M22.4782 15.821H16.0836C14.9063 15.821 13.952 16.7753 13.952 17.9525V24.3471C13.952 25.5243 14.9063 26.4786 16.0836 26.4786H22.4782C23.6554 26.4786 24.6097 25.5243 24.6097 24.3471V17.9525C24.6097 16.7753 23.6554 15.821 22.4782 15.821ZM16.0836 13.6895C13.7291 13.6895 11.8205 15.5981 11.8205 17.9525V24.3471C11.8205 26.7015 13.7291 28.6102 16.0836 28.6102H22.4782C24.342 28.6102 25.9265 27.414 26.5059 25.7475L27.7284 26.5254C29.1474 27.4284 31.0043 26.4091 31.0043 24.7271V17.5723C31.0043 15.8904 29.1474 14.871 27.7284 15.774L26.5058 16.552C25.9264 14.8855 24.342 13.6895 22.4782 13.6895H16.0836ZM28.8727 24.7271L26.7412 23.3707V18.9288L28.8727 17.5723V24.7271ZM17.1493 17.9524C16.5607 17.9524 16.0836 18.4296 16.0836 19.0182C16.0836 19.6068 16.5607 20.0839 17.1493 20.0839H19.2809C19.8695 20.0839 20.3466 19.6068 20.3466 19.0182C20.3466 18.4296 19.8695 17.9524 19.2809 17.9524H17.1493Z" fill="white"/>
</g>
</g>
</g>
<defs>
<filter id="filter0_ii_406_10923" x="-2.88705" y="-3.14535" width="48.5989" height="48.5993" filterUnits="userSpaceOnUse" color-interpolation-filters="sRGB">
<feFlood flood-opacity="0" result="BackgroundImageFix"/>
<feBlend mode="normal" in="SourceGraphic" in2="BackgroundImageFix" result="shape"/>
<feColorMatrix in="SourceAlpha" type="matrix" values="0 0 0 0 0 0 0 0 0 0 0 0 0 0 0 0 0 0 127 0" result="hardAlpha"/>
<feOffset dx="-3.83676" dy="-3.83676"/>
<feGaussianBlur stdDeviation="1.91838"/>
<feComposite in2="hardAlpha" operator="arithmetic" k2="-1" k3="1"/>
<feColorMatrix type="matrix" values="0 0 0 0 0.105882 0 0 0 0 0.105882 0 0 0 0 0.105882 0 0 0 0.15 0"/>
<feBlend mode="normal" in2="shape" result="effect1_innerShadow_406_10923"/>
<feColorMatrix in="SourceAlpha" type="matrix" values="0 0 0 0 0 0 0 0 0 0 0 0 0 0 0 0 0 0 127 0" result="hardAlpha"/>
<feOffset dx="3.83676" dy="3.83676"/>
<feGaussianBlur stdDeviation="1.91838"/>
<feComposite in2="hardAlpha" operator="arithmetic" k2="-1" k3="1"/>
<feColorMatrix type="matrix" values="0 0 0 0 1 0 0 0 0 1 0 0 0 0 1 0 0 0 0.15 0"/>
<feBlend mode="normal" in2="effect1_innerShadow_406_10923" result="effect2_innerShadow_406_10923"/>
</filter>
<filter id="filter1_di_406_10923" x="7.98374" y="9.8527" width="26.8573" height="22.5934" filterUnits="userSpaceOnUse" color-interpolation-filters="sRGB">
<feFlood flood-opacity="0" result="BackgroundImageFix"/>
<feColorMatrix in="SourceAlpha" type="matrix" values="0 0 0 0 0 0 0 0 0 0 0 0 0 0 0 0 0 0 127 0" result="hardAlpha"/>
<feOffset/>
<feGaussianBlur stdDeviation="1.91838"/>
<feColorMatrix type="matrix" values="0 0 0 0 0.105882 0 0 0 0 0.105882 0 0 0 0 0.105882 0 0 0 0.15 0"/>
<feBlend mode="normal" in2="BackgroundImageFix" result="effect1_dropShadow_406_10923"/>
<feBlend mode="normal" in="SourceGraphic" in2="effect1_dropShadow_406_10923" result="shape"/>
<feColorMatrix in="SourceAlpha" type="matrix" values="0 0 0 0 0 0 0 0 0 0 0 0 0 0 0 0 0 0 127 0" result="hardAlpha"/>
<feOffset dx="-0.639459" dy="-0.639459"/>
<feGaussianBlur stdDeviation="0.959189"/>
<feComposite in2="hardAlpha" operator="arithmetic" k2="-1" k3="1"/>
<feColorMatrix type="matrix" values="0 0 0 0 0.105882 0 0 0 0 0.105882 0 0 0 0 0.105882 0 0 0 0.15 0"/>
<feBlend mode="normal" in2="shape" result="effect2_innerShadow_406_10923"/>
</filter>
<clipPath id="clip0_406_10923">
<rect width="25.5784" height="25.5784" fill="white" transform="translate(8.6232 8.35938)"/>
</clipPath>
</defs>
</svg>
