<svg width="42" height="42" viewBox="0 0 42 42" fill="none" xmlns="http://www.w3.org/2000/svg">
<g filter="url(#filter0_ii_406_10905)">
<rect x="0.609985" y="0.765625" width="40.9254" height="40.9254" rx="20.4627" fill="#445AFF"/>
<g clip-path="url(#clip0_406_10905)">
<g filter="url(#filter1_di_406_10905)">
<path fill-rule="evenodd" clip-rule="evenodd" d="M18.9411 11.638C18.9411 11.0494 18.464 10.5723 17.8754 10.5723C17.2867 10.5723 16.8096 11.0494 16.8096 11.638C13.8666 11.638 11.4808 14.0238 11.4808 16.9669V25.493C11.4808 28.436 13.8666 30.8218 16.8096 30.8218H25.3357C28.2787 30.8218 30.6645 28.436 30.6645 25.493V16.9669C30.6645 14.0238 28.2787 11.638 25.3357 11.638C25.3357 11.0494 24.8586 10.5723 24.2699 10.5723C23.6813 10.5723 23.2042 11.0494 23.2042 11.638H18.9411ZM28.533 18.0326V16.9669C28.533 15.201 27.1015 13.7696 25.3357 13.7696V14.8353C25.3357 15.4239 24.8586 15.9011 24.2699 15.9011C23.6813 15.9011 23.2042 15.4239 23.2042 14.8353V13.7696H18.9411V14.8353C18.9411 15.4239 18.464 15.9011 17.8754 15.9011C17.2867 15.9011 16.8096 15.4239 16.8096 14.8353V13.7696C15.0438 13.7696 13.6123 15.201 13.6123 16.9669V18.0326H28.533ZM13.6123 20.1642V25.493C13.6123 27.2588 15.0438 28.6903 16.8096 28.6903H25.3357C27.1015 28.6903 28.533 27.2588 28.533 25.493V20.1642H13.6123Z" fill="white"/>
</g>
</g>
</g>
<defs>
<filter id="filter0_ii_406_10905" x="-3.22677" y="-3.07113" width="48.5989" height="48.5993" filterUnits="userSpaceOnUse" color-interpolation-filters="sRGB">
<feFlood flood-opacity="0" result="BackgroundImageFix"/>
<feBlend mode="normal" in="SourceGraphic" in2="BackgroundImageFix" result="shape"/>
<feColorMatrix in="SourceAlpha" type="matrix" values="0 0 0 0 0 0 0 0 0 0 0 0 0 0 0 0 0 0 127 0" result="hardAlpha"/>
<feOffset dx="-3.83676" dy="-3.83676"/>
<feGaussianBlur stdDeviation="1.91838"/>
<feComposite in2="hardAlpha" operator="arithmetic" k2="-1" k3="1"/>
<feColorMatrix type="matrix" values="0 0 0 0 0.105882 0 0 0 0 0.105882 0 0 0 0 0.105882 0 0 0 0.15 0"/>
<feBlend mode="normal" in2="shape" result="effect1_innerShadow_406_10905"/>
<feColorMatrix in="SourceAlpha" type="matrix" values="0 0 0 0 0 0 0 0 0 0 0 0 0 0 0 0 0 0 127 0" result="hardAlpha"/>
<feOffset dx="3.83676" dy="3.83676"/>
<feGaussianBlur stdDeviation="1.91838"/>
<feComposite in2="hardAlpha" operator="arithmetic" k2="-1" k3="1"/>
<feColorMatrix type="matrix" values="0 0 0 0 1 0 0 0 0 1 0 0 0 0 1 0 0 0 0.15 0"/>
<feBlend mode="normal" in2="effect1_innerShadow_406_10905" result="effect2_innerShadow_406_10905"/>
</filter>
<filter id="filter1_di_406_10905" x="7.644" y="6.73551" width="26.8573" height="27.9235" filterUnits="userSpaceOnUse" color-interpolation-filters="sRGB">
<feFlood flood-opacity="0" result="BackgroundImageFix"/>
<feColorMatrix in="SourceAlpha" type="matrix" values="0 0 0 0 0 0 0 0 0 0 0 0 0 0 0 0 0 0 127 0" result="hardAlpha"/>
<feOffset/>
<feGaussianBlur stdDeviation="1.91838"/>
<feColorMatrix type="matrix" values="0 0 0 0 0.105882 0 0 0 0 0.105882 0 0 0 0 0.105882 0 0 0 0.15 0"/>
<feBlend mode="normal" in2="BackgroundImageFix" result="effect1_dropShadow_406_10905"/>
<feBlend mode="normal" in="SourceGraphic" in2="effect1_dropShadow_406_10905" result="shape"/>
<feColorMatrix in="SourceAlpha" type="matrix" values="0 0 0 0 0 0 0 0 0 0 0 0 0 0 0 0 0 0 127 0" result="hardAlpha"/>
<feOffset dx="-0.639459" dy="-0.639459"/>
<feGaussianBlur stdDeviation="0.959189"/>
<feComposite in2="hardAlpha" operator="arithmetic" k2="-1" k3="1"/>
<feColorMatrix type="matrix" values="0 0 0 0 0.105882 0 0 0 0 0.105882 0 0 0 0 0.105882 0 0 0 0.15 0"/>
<feBlend mode="normal" in2="shape" result="effect2_innerShadow_406_10905"/>
</filter>
<clipPath id="clip0_406_10905">
<rect width="25.5784" height="25.5784" fill="white" transform="translate(8.28346 8.44141)"/>
</clipPath>
</defs>
</svg>
