<svg width="128" height="128" fill="none" xmlns="http://www.w3.org/2000/svg"><rect width="128" height="128" rx="32" fill="url(#a)"/><path fill-rule="evenodd" clip-rule="evenodd" d="M88.888 71.11a3.556 3.556 0 0 0-3.555 3.556c0 3.536-.03 4.606-.242 5.397a7.11 7.11 0 0 1-5.029 5.028c-.79.212-1.86.242-5.396.242H53.333c-3.536 0-4.606-.03-5.396-.242a7.11 7.11 0 0 1-5.029-5.028c-.211-.79-.242-1.861-.242-5.397h-7.111v.49c-.002 2.828-.003 4.928.485 6.747A14.222 14.222 0 0 0 46.096 91.96c1.82.487 3.92.486 6.748.484H75.156c2.827.002 4.927.003 6.747-.484a14.222 14.222 0 0 0 10.056-10.057c.488-1.82.487-3.92.485-6.747v-.49a3.555 3.555 0 0 0-3.556-3.555Z" fill="#EDEFFF"/><path fill-rule="evenodd" clip-rule="evenodd" d="M39.11 71.11a3.555 3.555 0 0 1 3.556 3.556c0 3.536.03 4.606.242 5.397a7.11 7.11 0 0 0 5.029 5.028c.79.212 1.86.242 5.396.242h21.333c3.536 0 4.606-.03 5.396-.242a7.11 7.11 0 0 0 5.029-5.028c.211-.79.242-1.861.242-5.397h7.11l.001.49c.002 2.828.003 4.928-.485 6.747A14.222 14.222 0 0 1 81.903 91.96c-1.82.487-3.92.486-6.748.484H52.843c-2.827.002-4.928.003-6.747-.484A14.222 14.222 0 0 1 36.04 81.903c-.488-1.82-.487-3.92-.485-6.747v-.49a3.556 3.556 0 0 1 3.556-3.555Z" fill="#EDEFFF"/><path fill-rule="evenodd" clip-rule="evenodd" d="M82.03 61.664 66.513 77.181a3.556 3.556 0 0 1-5.028 0L45.97 61.664a3.556 3.556 0 0 1 5.028-5.028l9.447 9.447V39.11a3.556 3.556 0 0 1 7.11 0v26.972l9.447-9.447a3.556 3.556 0 1 1 5.029 5.028Z" fill="#EDEFFF"/><defs><linearGradient id="a" x1="0" y1="0" x2="128" y2="128" gradientUnits="userSpaceOnUse"><stop stop-color="#445AFF"/><stop offset="1" stop-color="#697BFF"/></linearGradient></defs></svg>