<svg width="292" height="162" fill="none" xmlns="http://www.w3.org/2000/svg"><g filter="url(#a)"><path d="M24.974 49.828 15.4 16.245c-.495-1.734 1.306-3.231 2.944-2.448L50.061 28.97c1.686.807 1.56 3.227-.202 3.851l-13.044 4.622a2.1 2.1 0 0 0-1.12.931L28.837 50.3c-.927 1.61-3.354 1.314-3.863-.471Z" fill="#DD09C8"/><path d="m14.386 16.528 9.573 33.582c.763 2.679 4.405 3.124 5.794.708l6.859-11.925a1.05 1.05 0 0 1 .56-.466l13.044-4.621c2.641-.936 2.831-4.567.302-5.777L18.802 12.856c-2.456-1.175-5.158 1.071-4.416 3.672Z" stroke="#DD09C8" stroke-width="2.1"/></g><rect x="58.8" y="27.334" width="233.2" height="44.8" rx="8.4" fill="#DD09C8"/><path d="M73.413 40.406h2.739v13.46h.17l9.325-13.46h2.559v18.328H85.44V45.292h-.17l-9.307 13.442h-2.55V40.406Zm27.4 4.582v2.309h-6.148v11.437h-2.64V44.988h8.788Zm7.977 14.023c-1.288 0-2.413-.295-3.373-.886-.961-.59-1.706-1.417-2.237-2.479-.531-1.062-.797-2.303-.797-3.723 0-1.425.266-2.672.797-3.74s1.276-1.897 2.237-2.488c.96-.59 2.085-.886 3.373-.886 1.289 0 2.414.296 3.374.886.961.59 1.706 1.42 2.237 2.488.531 1.068.797 2.315.797 3.74 0 1.42-.266 2.661-.797 3.723-.531 1.062-1.276 1.888-2.237 2.48-.96.59-2.085.885-3.374.885Zm.009-2.246c.836 0 1.528-.22 2.077-.662.548-.442.954-1.03 1.217-1.763.268-.734.402-1.543.402-2.426 0-.876-.134-1.682-.402-2.416-.263-.74-.669-1.333-1.217-1.78-.549-.448-1.241-.672-2.077-.672-.841 0-1.539.224-2.094.672-.548.447-.957 1.04-1.226 1.78-.262.734-.393 1.54-.393 2.416 0 .883.131 1.692.393 2.426.269.733.678 1.321 1.226 1.763.555.441 1.253.662 2.094.662Zm9.386 7.123v-18.9h2.613v2.228h.223a7.45 7.45 0 0 1 .672-.993c.292-.376.698-.704 1.217-.984.519-.287 1.205-.43 2.058-.43 1.109 0 2.1.28 2.971.841.871.561 1.554 1.37 2.049 2.425.501 1.056.752 2.327.752 3.813 0 1.485-.248 2.759-.743 3.82-.495 1.057-1.175 1.871-2.04 2.444-.865.567-1.853.85-2.962.85-.836 0-1.519-.14-2.05-.42-.525-.28-.936-.61-1.235-.985a7.475 7.475 0 0 1-.689-1.002h-.161v7.293h-2.675Zm2.622-12.027c0 .966.14 1.814.42 2.541.281.728.686 1.298 1.217 1.71.531.405 1.181.608 1.951.608.8 0 1.468-.212 2.005-.635.537-.43.942-1.011 1.217-1.745.28-.734.42-1.56.42-2.48 0-.906-.137-1.72-.411-2.442-.269-.722-.675-1.292-1.217-1.71-.537-.417-1.209-.626-2.014-.626-.775 0-1.432.2-1.969.6-.531.4-.933.957-1.208 1.673-.274.716-.411 1.551-.411 2.506Zm14.944-2.148h3.991c1.683 0 2.977.418 3.884 1.253s1.36 1.912 1.36 3.23c0 .86-.202 1.632-.608 2.318-.406.686-.999 1.23-1.781 1.629-.781.394-1.733.59-2.855.59h-6.004V44.989h2.622v11.437h3.382c.77 0 1.402-.2 1.898-.6.495-.406.742-.922.742-1.548 0-.662-.247-1.202-.742-1.62-.496-.423-1.128-.635-1.898-.635h-3.991v-2.309Zm19.119-9.307h3.356l5.835 14.247h.215l5.834-14.247h3.356v18.328h-2.631V45.47h-.17l-5.405 13.236h-2.183l-5.406-13.245h-.17v13.272h-2.631V40.406Zm25.024 14.578 6.058-9.996h2.882v13.746h-2.622V48.729l-6.032 10.005h-2.908V44.988h2.622v9.996Zm14.649-9.996 3.034 5.352 3.06-5.352h2.926l-4.286 6.873 4.322 6.873h-2.926l-3.096-5.137-3.088 5.137h-2.935l4.278-6.873-4.224-6.873h2.935Zm15.743 14.05c-.871 0-1.658-.161-2.362-.483a3.983 3.983 0 0 1-1.674-1.423c-.405-.62-.608-1.381-.608-2.282 0-.776.149-1.414.447-1.915a3.308 3.308 0 0 1 1.208-1.19 6.308 6.308 0 0 1 1.701-.663 16.99 16.99 0 0 1 1.915-.34l2.004-.232c.513-.066.886-.17 1.119-.314.233-.143.349-.375.349-.698v-.062c0-.782-.221-1.387-.662-1.817-.436-.43-1.086-.644-1.951-.644-.901 0-1.611.2-2.13.6-.513.393-.868.832-1.065 1.315l-2.515-.573c.299-.835.734-1.51 1.307-2.022a5.3 5.3 0 0 1 1.996-1.128 7.787 7.787 0 0 1 2.371-.358c.549 0 1.131.066 1.745.197.62.125 1.199.358 1.736.698.543.34.987.826 1.333 1.459.346.626.519 1.44.519 2.443v9.128h-2.613v-1.88h-.107a3.79 3.79 0 0 1-.779 1.02c-.346.335-.79.612-1.333.833-.543.22-1.193.33-1.951.33Zm.582-2.148c.74 0 1.372-.146 1.897-.438.531-.293.934-.674 1.208-1.146.281-.477.421-.987.421-1.53v-1.772c-.096.096-.281.185-.555.269a8.641 8.641 0 0 1-.922.205 82.04 82.04 0 0 1-1.011.152c-.328.042-.603.078-.823.108a6.627 6.627 0 0 0-1.423.331c-.424.155-.764.379-1.02.671-.251.286-.376.668-.376 1.146 0 .662.244 1.163.734 1.503.489.334 1.112.501 1.87.501Zm12.387-1.906 6.059-9.996h2.881v13.746h-2.622V48.729l-6.031 10.005h-2.909V44.988h2.622v9.996Zm4.913-14.65h2.202c0 1.009-.358 1.83-1.074 2.462-.71.626-1.671.94-2.882.94-1.205 0-2.162-.314-2.872-.94-.71-.633-1.065-1.453-1.065-2.461h2.192c0 .447.132.844.394 1.19.263.34.713.51 1.351.51.627 0 1.074-.17 1.343-.51a1.84 1.84 0 0 0 .411-1.19Zm6.542 18.4-.009-2.318h.492c.382 0 .701-.08.958-.242.262-.167.477-.447.644-.841.167-.394.295-.937.385-1.629.089-.698.155-1.575.197-2.63l.241-6.086h9.594v13.746h-2.623V47.297h-4.492l-.215 4.671c-.053 1.134-.17 2.124-.349 2.971-.173.847-.426 1.554-.76 2.121-.334.56-.764.981-1.289 1.262-.525.274-1.163.412-1.915.412h-.859Zm21.86.277c-1.289 0-2.413-.295-3.374-.886-.96-.59-1.706-1.417-2.237-2.479-.531-1.062-.797-2.303-.797-3.723 0-1.425.266-2.672.797-3.74s1.277-1.897 2.237-2.488c.961-.59 2.085-.886 3.374-.886 1.288 0 2.413.296 3.373.886.961.59 1.707 1.42 2.238 2.488.531 1.068.796 2.315.796 3.74 0 1.42-.265 2.661-.796 3.723-.531 1.062-1.277 1.888-2.238 2.48-.96.59-2.085.885-3.373.885Zm.009-2.246c.835 0 1.527-.22 2.076-.662.549-.442.954-1.03 1.217-1.763.268-.734.403-1.543.403-2.426 0-.876-.135-1.682-.403-2.416-.263-.74-.668-1.333-1.217-1.78-.549-.448-1.241-.672-2.076-.672-.841 0-1.539.224-2.094.672-.549.447-.958 1.04-1.226 1.78-.263.734-.394 1.54-.394 2.416 0 .883.131 1.692.394 2.426.268.733.677 1.321 1.226 1.763.555.441 1.253.662 2.094.662Zm9.385 1.969V44.988h5.7c1.551 0 2.78.331 3.687.993.907.657 1.36 1.549 1.36 2.676 0 .806-.256 1.444-.769 1.915-.513.471-1.193.788-2.041.949a4.321 4.321 0 0 1 1.692.555 3.45 3.45 0 0 1 1.235 1.18c.316.496.474 1.087.474 1.773 0 .728-.188 1.372-.564 1.933-.376.554-.921.99-1.637 1.306-.71.31-1.566.466-2.569.466h-6.568Zm2.514-2.238h4.054c.663 0 1.182-.158 1.557-.474.376-.316.564-.746.564-1.289 0-.638-.188-1.139-.564-1.503-.375-.37-.894-.555-1.557-.555h-4.054v3.821Zm0-5.78h3.213c.501 0 .931-.072 1.289-.215.364-.144.641-.346.832-.609a1.56 1.56 0 0 0 .295-.949c0-.53-.217-.945-.653-1.243-.435-.299-1.032-.448-1.79-.448h-3.186v3.463Z" fill="#FBE0F8"/><g filter="url(#b)"><path d="m210.487 106.414 32.563-12.612c1.682-.65 3.338 1.005 2.708 2.708l-12.201 32.973c-.649 1.753-3.071 1.849-3.854.152l-5.798-12.565a2.098 2.098 0 0 0-1.03-1.03l-12.504-5.737c-1.688-.774-1.615-3.219.116-3.889Z" fill="#09AEE8"/><path d="m242.676 92.818-32.563 12.611c-2.598 1.006-2.707 4.673-.174 5.834L222.443 117c.227.104.409.287.515.515l5.798 12.565c1.174 2.545 4.807 2.402 5.78-.228l12.201-32.973c.945-2.554-1.539-5.038-4.061-4.061Z" stroke="#09AEE8" stroke-width="2.1"/></g><rect y="117.166" width="219.2" height="44.8" rx="8.4" fill="#09AEE8"/><path d="m25.486 148.566-6.157-8.215h-1.95v8.215h-2.766v-18.327h2.765v7.741h.904l6.927-7.741h3.373l-7.329 8.206 7.607 10.121h-3.374Zm10.502.278c-1.33 0-2.476-.301-3.437-.904-.954-.609-1.688-1.447-2.201-2.515-.513-1.068-.77-2.291-.77-3.669 0-1.396.263-2.628.788-3.696.525-1.073 1.265-1.912 2.22-2.514.954-.603 2.078-.904 3.373-.904 1.044 0 1.975.194 2.792.582a5 5 0 0 1 1.978 1.61c.507.693.808 1.501.903 2.426H39.03a3.118 3.118 0 0 0-.984-1.665c-.507-.465-1.187-.698-2.04-.698-.746 0-1.4.197-1.96.591-.555.388-.988.942-1.298 1.664-.31.716-.465 1.563-.465 2.542 0 1.002.152 1.867.456 2.595.305.728.734 1.291 1.289 1.691.56.4 1.22.6 1.978.6.507 0 .966-.093 1.378-.278a2.813 2.813 0 0 0 1.047-.814c.286-.352.486-.776.6-1.271h2.603a5.061 5.061 0 0 1-.868 2.381c-.483.698-1.13 1.247-1.941 1.646-.806.4-1.752.6-2.837.6Zm14.432 0c-1.354 0-2.52-.289-3.499-.868-.972-.585-1.724-1.405-2.255-2.461-.525-1.062-.788-2.306-.788-3.732 0-1.408.263-2.649.788-3.723.53-1.073 1.27-1.912 2.22-2.514.954-.603 2.07-.904 3.346-.904.776 0 1.527.128 2.255.385a5.453 5.453 0 0 1 1.96 1.208c.579.549 1.035 1.262 1.37 2.139.333.871.5 1.93.5 3.177v.948H45.391v-2.004h8.304c0-.704-.143-1.328-.43-1.871a3.243 3.243 0 0 0-1.207-1.297c-.513-.317-1.116-.475-1.808-.475-.752 0-1.408.185-1.969.555a3.722 3.722 0 0 0-1.288 1.432 4.134 4.134 0 0 0-.448 1.906v1.566c0 .919.161 1.7.483 2.345.328.644.785 1.136 1.37 1.476.584.334 1.267.501 2.049.501.507 0 .97-.071 1.387-.214.417-.149.778-.37 1.083-.663.304-.292.537-.653.698-1.082l2.532.456a4.587 4.587 0 0 1-1.091 1.96c-.52.555-1.173.987-1.96 1.297-.782.305-1.674.457-2.676.457Zm18.182-8.305v2.318h-7.446v-2.318h7.446Zm-6.694-5.718v13.745h-2.622v-13.745h2.622Zm8.564 0v13.745H67.86v-13.745h2.613Zm6.202 9.996 6.058-9.996h2.882v13.745h-2.622v-10.004l-6.032 10.004h-2.908v-13.745h2.622v9.996Zm20.734 3.749v-11.463h-3.293c-.781 0-1.39.182-1.825.546-.436.364-.654.841-.654 1.432 0 .584.2 1.056.6 1.414.405.352.972.528 1.7.528h4.25v2.165h-4.25c-1.014 0-1.891-.167-2.63-.501-.735-.34-1.302-.82-1.701-1.441-.394-.62-.59-1.354-.59-2.201 0-.865.202-1.611.608-2.237.411-.633.999-1.122 1.763-1.468.77-.346 1.68-.519 2.73-.519h5.807v13.745h-2.515Zm-9.02 0 3.875-6.944H95l-3.875 6.944h-2.738Zm20.593 0v-2.398l.537-.018c.728-.018 1.301-.265 1.718-.743.424-.477.731-1.246.922-2.308.197-1.062.328-2.479.394-4.251l.313-8.609h11.589v18.327h-2.729v-15.982h-6.256l-.286 6.998c-.078 1.963-.275 3.612-.591 4.948-.316 1.331-.853 2.336-1.611 3.016-.751.68-1.822 1.02-3.212 1.02h-.788Zm26.203-7.928v2.326h-7.33v-2.326h7.33Zm-5.155-5.817v13.745h-2.676v-13.745h2.676Zm9.343 14.023c-1.277 0-2.393-.298-3.347-.895-.955-.597-1.695-1.426-2.22-2.488-.525-1.068-.787-2.306-.787-3.714 0-1.419.262-2.66.787-3.722.525-1.068 1.265-1.897 2.22-2.488.954-.597 2.07-.895 3.347-.895 1.282 0 2.398.298 3.347.895.954.591 1.694 1.42 2.219 2.488.531 1.062.796 2.303.796 3.722 0 1.408-.265 2.646-.796 3.714-.525 1.062-1.265 1.891-2.219 2.488-.949.597-2.065.895-3.347.895Zm0-2.291c.865 0 1.572-.218 2.121-.653.554-.442.963-1.026 1.226-1.754.262-.728.393-1.528.393-2.399 0-.877-.131-1.679-.393-2.407-.263-.734-.672-1.321-1.226-1.763-.549-.441-1.256-.662-2.121-.662-.859 0-1.566.221-2.121.662-.555.442-.964 1.029-1.226 1.763-.263.728-.394 1.53-.394 2.407 0 .871.131 1.671.394 2.399.262.728.671 1.312 1.226 1.754.555.435 1.262.653 2.121.653Zm20.121-16.851 1.11 1.692a3.66 3.66 0 0 1-1.405.805 7.995 7.995 0 0 1-1.799.295c-.68.036-1.458.069-2.335.099-.991.03-1.805.244-2.444.644-.638.394-1.13.978-1.476 1.754-.34.77-.561 1.736-.662 2.899h.17c.447-.853 1.068-1.491 1.861-1.915.8-.423 1.697-.635 2.694-.635 1.109 0 2.097.254 2.962.761.865.507 1.545 1.25 2.04 2.228.501.972.752 2.163.752 3.571 0 1.425-.263 2.657-.788 3.695-.519 1.038-1.253 1.841-2.201 2.408-.943.56-2.055.841-3.338.841s-2.401-.289-3.356-.868c-.948-.585-1.685-1.45-2.21-2.595-.519-1.146-.779-2.56-.779-4.242v-1.36c0-3.144.561-5.51 1.683-7.097 1.121-1.587 2.798-2.401 5.029-2.443a42.393 42.393 0 0 1 1.933-.009 10.11 10.11 0 0 0 1.485-.08c.43-.066.788-.215 1.074-.448Zm-4.85 16.896c.746 0 1.387-.188 1.924-.564.543-.382.96-.922 1.253-1.62.292-.698.438-1.521.438-2.47 0-.93-.146-1.721-.438-2.371-.293-.65-.71-1.146-1.253-1.486-.543-.346-1.193-.519-1.951-.519-.561 0-1.062.099-1.503.296a3.046 3.046 0 0 0-1.137.85c-.31.376-.552.835-.725 1.378-.167.537-.256 1.154-.268 1.852 0 1.42.325 2.551.975 3.392.657.841 1.551 1.262 2.685 1.262Zm11.929-1.781 6.058-9.996h2.882v13.745h-2.622v-10.004l-6.032 10.004h-2.908v-13.745h2.622v9.996Zm21.853-4.278v2.318h-7.446v-2.318h7.446Zm-6.694-5.718v13.745h-2.622v-13.745h2.622Zm8.564 0v13.745h-2.613v-13.745h2.613Zm7.58 14.05c-.871 0-1.659-.161-2.363-.484a3.981 3.981 0 0 1-1.673-1.422c-.406-.621-.609-1.382-.609-2.282 0-.776.15-1.414.448-1.915a3.3 3.3 0 0 1 1.208-1.191 6.317 6.317 0 0 1 1.7-.662 17.07 17.07 0 0 1 1.915-.34l2.005-.233c.513-.065.886-.17 1.118-.313.233-.143.349-.376.349-.698v-.062c0-.782-.22-1.388-.662-1.817-.435-.43-1.086-.644-1.951-.644-.9 0-1.61.199-2.129.599-.514.394-.868.832-1.065 1.316l-2.515-.573c.298-.835.734-1.509 1.307-2.022a5.282 5.282 0 0 1 1.995-1.128 7.78 7.78 0 0 1 2.372-.358c.548 0 1.13.066 1.745.197.62.125 1.199.358 1.736.698.543.34.987.826 1.333 1.459.346.626.519 1.44.519 2.443v9.127h-2.613v-1.879h-.107a3.808 3.808 0 0 1-.779 1.02c-.346.334-.79.612-1.333.833-.543.22-1.193.331-1.951.331Zm.582-2.148c.739 0 1.372-.146 1.897-.439.531-.292.933-.674 1.208-1.145.28-.477.42-.987.42-1.53v-1.772c-.095.095-.28.185-.554.268a8.4 8.4 0 0 1-.922.206 82.04 82.04 0 0 1-1.011.152c-.328.042-.603.078-.824.108a6.611 6.611 0 0 0-1.423.331 2.45 2.45 0 0 0-1.02.671c-.25.286-.376.668-.376 1.145 0 .663.245 1.164.734 1.504.489.334 1.113.501 1.871.501Z" fill="#DFF4FC"/><defs><filter id="a" x="9.004" y="9.388" width="48.561" height="50.357" filterUnits="userSpaceOnUse" color-interpolation-filters="sRGB"><feFlood flood-opacity="0" result="BackgroundImageFix"/><feColorMatrix in="SourceAlpha" values="0 0 0 0 0 0 0 0 0 0 0 0 0 0 0 0 0 0 127 0" result="hardAlpha"/><feOffset dy="2.1"/><feGaussianBlur stdDeviation="2.1"/><feComposite in2="hardAlpha" operator="out"/><feColorMatrix values="0 0 0 0 0 0 0 0 0 0 0 0 0 0 0 0 0 0 0.08 0"/><feBlend in2="BackgroundImageFix" result="effect1_dropShadow_3726_9250"/><feBlend in="SourceGraphic" in2="effect1_dropShadow_3726_9250" result="shape"/></filter><filter id="b" x="202.855" y="89.443" width="49.335" height="49.821" filterUnits="userSpaceOnUse" color-interpolation-filters="sRGB"><feFlood flood-opacity="0" result="BackgroundImageFix"/><feColorMatrix in="SourceAlpha" values="0 0 0 0 0 0 0 0 0 0 0 0 0 0 0 0 0 0 127 0" result="hardAlpha"/><feOffset dy="2.1"/><feGaussianBlur stdDeviation="2.1"/><feComposite in2="hardAlpha" operator="out"/><feColorMatrix values="0 0 0 0 0 0 0 0 0 0 0 0 0 0 0 0 0 0 0.08 0"/><feBlend in2="BackgroundImageFix" result="effect1_dropShadow_3726_9250"/><feBlend in="SourceGraphic" in2="effect1_dropShadow_3726_9250" result="shape"/></filter></defs></svg>