<svg width="832" height="785" fill="none" xmlns="http://www.w3.org/2000/svg"><path d="M-206.104 391.373C-154.47 269.871-66.359 164.132 43.826 91.415c71.758-47.349 246.843-140.268 282.148-.941 16.478 65.019-50.305 257.287-53.644 306.189-6.205 91.244 92.236 118.625 171.905 101.359 107.784-23.344 162.035-109.776 219.668-194.994 26.177-38.707 48.388-82.567 48.67-129.332.271-46.732-26.923-96.198-71.877-108.865-57.471-16.244-118.257 38.2-121.879 97.821-3.621 59.621 37.587 115.107 89.646 144.339 43.615 24.477 95.589 34.856 132.987 68.092 71.428 63.483 60.264 171.824 72.732 257.651 9.262 63.681 32.585 130.694 86.227 166.206" stroke="url(#a)" stroke-width="32" stroke-miterlimit="10" stroke-linecap="round"/><defs><linearGradient id="a" x1="-12.687" y1="-14.005" x2="779.767" y2="691.627" gradientUnits="userSpaceOnUse"><stop stop-color="#DD0D0C"/><stop offset=".5" stop-color="#EC570E"/><stop offset="1" stop-color="#FFCD37"/></linearGradient></defs></svg>