<svg width="503" height="474" fill="none" xmlns="http://www.w3.org/2000/svg"><path fill="#FFE187" d="M.476 17.086 380.914.476l16.61 380.438-380.438 16.61z"/><path opacity=".9" d="M113.8 215.97a1.756 1.756 0 0 1-1.672 1.825 1.756 1.756 0 0 1-1.825-1.672c-.361-9.268-.3-17.898-.642-26.729-4.941.172-9.842.255-14.739.425l.626 26.379c-.001.963-.712 1.739-1.674 1.781-.961.042-1.828-.753-1.826-1.716l-.61-25.986c-.522.067-1.088.135-1.612.158-2.929.128-3.057-3.808-.172-3.934 7.08-.309 14.26-.359 21.341-.669 1.136-.049 2.049.787 2.094 1.836.416 9.528.329 18.553.711 28.302Zm8.008 10.905c-.047.922-.76 1.653-1.678 1.693-1.005.044-1.874-.794-1.83-1.803.181-6.883.43-25.243 1.03-31.575.093-.88.763-1.566 1.638-1.604.83-.036 1.467.505 1.716 1.195 9.955-3.675 12.429 4.844 12.365 9.401-.119 10.296-7.758 12.863-12.984 13.529l-.044.002a880.94 880.94 0 0 0-.213 9.162Zm.277-12.712c4.399-.542 9.347-2.554 9.46-10.003.049-3.9-1.398-8.96-8.826-5.571-.044.002-.088.004-.13.05-.221 3.951-.399 9.914-.504 15.524Zm33.042-.479c-.048.922-.76 1.653-1.678 1.693-1.049.046-1.876-.837-1.83-1.803l.484-13.99-9.224 15.423c-1.265 2.113-4.021 1.183-3.898-1.012l1.245-18.622c.05-.878.762-1.61 1.68-1.65 1.049-.046 1.876.838 1.832 1.847l-.849 12.649 8.895-14.927c.163-.27.329-.496.54-.681l.02-.526c.094.127.185.211.32.292 1.324-.758 3.236-.097 3.141 1.746l-.678 19.561Zm10.109-12.178a1.561 1.561 0 0 1-.484-.066l-.169.139c-.442 3.916-.926 9.893 1.058 10.201 1.5.241 3.597-1.865 4.474-5.845.663-2.875-.464-4.621-4.879-4.429Zm-5.6.113a1.762 1.762 0 0 1 .807-1.567c.257-.143.512-.329.81-.518.354-3.912 1.563-16.358 8.022-16.859 5.414-.368 6.192 5.422 4.624 9.607-.825 2.182-2.879 4.286-5.117 6.179 4.037 1.182 5.586 4.573 4.781 8.2-1.172 5.262-4.945 9.105-8.472 8.559-4.453-.682-4.602-7.113-4.202-11.991-.711-.232-1.221-.866-1.253-1.61Zm5.444-4.704c2.417-1.813 4.777-3.931 5.523-5.89.946-2.406 1.052-4.995-1.088-4.857-2.706.205-3.881 6.387-4.435 10.747Zm26.9 11.306a1.68 1.68 0 0 1 1.075-.441 1.756 1.756 0 0 1 1.825 1.672 1.767 1.767 0 0 1-.597 1.384c-1.812 1.612-3.737 2.659-6.378 3.344-7.835 2.093-9.083-5.428-9.092-9.632.001-4.992 2.472-11.581 5.823-13.085 4.034-1.884 10.946-1.047 9.447 5.762-1.317 5.926-7.611 9.222-11.487 10.705.447 2.214 1.602 3.609 4.373 2.875 2.208-.578 3.534-1.293 5.011-2.584Zm-9.676-3.957c3.312-1.37 7.495-3.874 8.332-7.764.697-3.096-2.23-2.924-4.548-1.86-1.76.822-3.659 5.459-3.784 9.624Zm26.23 7.001a1.757 1.757 0 0 1-1.679 1.649c-1.049.046-1.876-.837-1.832-1.846l1.186-17.963-7.67.86c-.958.13-1.868-.663-1.912-1.668a1.691 1.691 0 0 1 1.543-1.775l18.388-2.117c.957-.129 1.868.663 1.912 1.668a1.692 1.692 0 0 1-1.543 1.776l-7.189.839-1.204 18.577Zm10.988 5.913c-.002.964-.756 1.741-1.674 1.781a1.748 1.748 0 0 1-1.829-1.759c.002-1.971-.333-3.62-1.122-4.637a1.91 1.91 0 0 1-.397-1.077c-.048-1.093.786-2.049 1.879-2.097a1.987 1.987 0 0 1 1.939 1.273c.783 1.893 1.152 4.329 1.204 6.516Zm38.709-8.083c-.004.919-.712 1.739-1.674 1.781-.962.042-1.826-.709-1.827-1.716l-.294-11.767-4.177 10.648c-.585 1.646-2.86 1.702-3.461-.024l-3.179-9.626-1.602 13.47c-.049.878-.765 1.522-1.639 1.56a1.736 1.736 0 0 1-1.835-1.89l2.385-20.599c.093-1.887 2.51-2.693 3.6-.814l4.135 12.475 5.558-14.124c.711-1.783 3.441-1.42 3.529.59l.481 20.036Zm-11.262-2.18.04-.089c-.042.045-.042.045-.04.089Zm31.284 1.393c-.047.922-.76 1.654-1.678 1.694-1.049.045-1.875-.838-1.83-1.803l.484-13.991-9.224 15.423c-1.265 2.114-4.021 1.183-3.897-1.012l1.245-18.622a1.757 1.757 0 0 1 1.679-1.65c1.049-.046 1.876.838 1.833 1.847l-.849 12.649 8.894-14.927c.164-.27.329-.496.54-.681l.021-.526c.093.127.184.211.319.293 1.325-.759 3.236-.098 3.142 1.745l-.679 19.561Zm9.035 11.342c-.048.922-.76 1.653-1.678 1.693-1.005.044-1.874-.794-1.83-1.803.181-6.883.43-25.243 1.03-31.575.092-.88.763-1.566 1.637-1.604.831-.036 1.468.505 1.717 1.195 9.955-3.675 12.429 4.844 12.365 9.401-.12 10.296-7.759 12.863-12.985 13.529l-.043.002a853.678 853.678 0 0 0-.213 9.162Zm.277-12.712c4.399-.542 9.347-2.554 9.46-10.003.049-3.9-1.399-8.96-8.826-5.571-.044.002-.088.004-.13.05-.221 3.951-.399 9.914-.504 15.524Zm19.989-6.566a1.759 1.759 0 0 1-1.68 1.65c-1.049.046-1.876-.837-1.832-1.847l1.543-21.831a1.757 1.757 0 0 1 1.679-1.65c1.049-.046 1.876.838 1.833 1.847l-1.543 21.831Zm-4.089 7.667.031-.308a1.757 1.757 0 0 1 1.679-1.649c1.049-.046 1.876.837 1.833 1.846l-.031.308a1.757 1.757 0 0 1-1.679 1.65c-1.049.046-1.876-.838-1.833-1.847Z" fill="#101010"/><path d="M439.018 247.479c-10.857 61.133-37.477 119.572-80.614 165.081-21.734 23.992-47.884 42.31-80.03 49.468-10.731 2.528-23.238 3.994-33.692 1.901-17.948-3.219-28.83-17.313-23.435-34.832 5.081-16.926 20.553-29.77 35.59-38.904 10.61-6.4 21.837-11.335 33.445-15.481 65.161-23.428 136.739-23.477 202.993-5.289" stroke="#DFF4FC" stroke-width="18" stroke-miterlimit="10" stroke-linecap="round"/></svg>