<svg xmlns="http://www.w3.org/2000/svg" width="441" height="294" fill="none"><g filter="url(#a)" opacity=".7"><rect width="240" height="74" x="100.5" y="8" fill="#fff" rx="24"/><g clip-path="url(#b)"><rect width="42" height="42" x="116.5" y="24" fill="#4554C9" rx="21"/><path fill="#fff" fill-rule="evenodd" d="M127.75 50.417a5.417 5.417 0 0 0 5.417 5.416h8.666a5.417 5.417 0 0 0 5.417-5.416V41.48c0-1.05-.381-2.064-1.072-2.854l-2.608-2.98a4.334 4.334 0 0 0-3.261-1.48h-7.142a5.417 5.417 0 0 0-5.417 5.416v10.834Zm2.167 0a3.25 3.25 0 0 0 3.25 3.25h8.666a3.25 3.25 0 0 0 3.25-3.25V41.75h-2.167a3.249 3.249 0 0 1-3.249-3.25v-2.167h-6.5a3.25 3.25 0 0 0-3.25 3.25v10.834Zm11.916-13.456v1.54c0 .598.485 1.082 1.083 1.082h1.219l-2.196-2.51a1.942 1.942 0 0 0-.106-.112Z" clip-rule="evenodd"/></g><path fill="#4554C9" d="M173.318 43.176c-.845 0-1.572-.191-2.182-.574a3.793 3.793 0 0 1-1.397-1.596c-.326-.678-.489-1.455-.489-2.33 0-.886.167-1.668.5-2.346a3.827 3.827 0 0 1 1.409-1.597c.606-.383 1.32-.574 2.142-.574.663 0 1.254.123 1.773.37.519.242.937.583 1.256 1.022.322.44.513.953.573 1.54h-1.653a1.98 1.98 0 0 0-.625-1.057c-.322-.295-.754-.443-1.295-.443-.474 0-.889.125-1.245.375-.352.246-.627.598-.824 1.057-.197.454-.295.992-.295 1.613 0 .637.097 1.186.29 1.648.193.462.466.82.818 1.074.356.254.774.38 1.256.38.322 0 .613-.058.875-.175.265-.122.486-.294.664-.518.182-.223.309-.492.381-.806h1.653a3.204 3.204 0 0 1-.551 1.511 3.174 3.174 0 0 1-1.233 1.045c-.511.254-1.111.381-1.801.381Zm7.101-5.358V43h-1.699V31.364h1.676v4.33h.108c.205-.47.517-.844.938-1.12.42-.277.969-.415 1.647-.415.599 0 1.122.123 1.569.37a2.5 2.5 0 0 1 1.045 1.102c.25.484.375 1.09.375 1.818V43h-1.699v-5.347c0-.64-.165-1.136-.494-1.488-.33-.356-.788-.534-1.375-.534-.402 0-.761.085-1.08.255-.314.17-.562.42-.744.75-.178.326-.267.72-.267 1.182Zm11.688 5.358c-.86 0-1.601-.184-2.222-.551a3.74 3.74 0 0 1-1.432-1.563c-.333-.674-.5-1.463-.5-2.369 0-.894.167-1.682.5-2.363a3.883 3.883 0 0 1 1.409-1.597c.606-.383 1.315-.574 2.125-.574.493 0 .97.081 1.432.244.462.163.877.419 1.244.767.368.349.658.802.87 1.358.212.553.318 1.226.318 2.017v.603h-6.938v-1.273h5.273c0-.447-.091-.843-.273-1.188a2.053 2.053 0 0 0-.767-.823c-.325-.201-.708-.301-1.147-.301-.478 0-.894.117-1.25.352a2.367 2.367 0 0 0-.819.909 2.629 2.629 0 0 0-.284 1.21v.994c0 .584.103 1.08.307 1.489.208.41.498.722.869.938.372.212.805.318 1.302.318.322 0 .615-.046.88-.137.265-.094.495-.235.688-.42.193-.186.341-.415.443-.688l1.608.29c-.129.474-.36.888-.693 1.245-.33.352-.745.626-1.245.823-.496.194-1.062.29-1.698.29Zm9.305 0c-.845 0-1.572-.191-2.182-.574a3.802 3.802 0 0 1-1.398-1.596c-.325-.678-.488-1.455-.488-2.33 0-.886.166-1.668.5-2.346a3.827 3.827 0 0 1 1.409-1.597c.606-.383 1.32-.574 2.142-.574.663 0 1.254.123 1.773.37.519.242.937.583 1.255 1.022.322.44.514.953.574 1.54h-1.653a1.98 1.98 0 0 0-.625-1.057c-.322-.295-.754-.443-1.296-.443a2.11 2.11 0 0 0-1.244.375c-.352.246-.627.598-.824 1.057-.197.454-.295.992-.295 1.613 0 .637.096 1.186.289 1.648.194.462.466.82.819 1.074.356.254.774.38 1.255.38.322 0 .614-.058.875-.175.265-.122.487-.294.665-.518.182-.223.309-.492.381-.806h1.653a3.204 3.204 0 0 1-.551 1.511 3.174 3.174 0 0 1-1.233 1.045c-.511.254-1.112.381-1.801.381Zm6.964-3.136-.011-2.074h.296l3.477-3.693h2.034l-3.966 4.204h-.267l-1.563 1.563ZM206.814 43V31.364h1.699V43h-1.699Zm5.511 0-3.125-4.148 1.171-1.187 4.04 5.335h-2.086Zm4.514.108c-.31 0-.577-.11-.801-.33a1.102 1.102 0 0 1-.335-.806c0-.311.112-.576.335-.796.224-.223.491-.335.801-.335.311 0 .578.112.802.335.223.22.335.485.335.796 0 .208-.053.4-.159.573-.103.17-.239.307-.409.41-.171.102-.36.153-.569.153Zm3.412 3.165v-12h1.66v1.414h.142c.098-.181.24-.392.426-.63.185-.239.443-.447.772-.625.33-.182.766-.273 1.307-.273.705 0 1.334.178 1.887.534.553.356.986.87 1.301 1.54.318.67.477 1.477.477 2.42 0 .944-.157 1.752-.472 2.427-.314.67-.746 1.187-1.295 1.55-.549.36-1.176.54-1.881.54-.53 0-.964-.089-1.301-.267a2.462 2.462 0 0 1-.784-.625 4.725 4.725 0 0 1-.437-.636h-.103v4.63h-1.699Zm1.665-7.637c0 .614.089 1.152.267 1.614.178.462.436.824.773 1.085.337.258.75.387 1.239.387.507 0 .931-.135 1.272-.404.341-.273.599-.642.773-1.108.178-.466.267-.99.267-1.574 0-.575-.087-1.092-.261-1.55-.171-.46-.428-.82-.773-1.086-.341-.265-.767-.398-1.278-.398-.493 0-.909.127-1.25.381-.338.254-.593.608-.767 1.063-.175.454-.262.984-.262 1.59Zm11.477 4.534c-.704 0-1.333-.18-1.886-.54-.549-.363-.981-.88-1.295-1.55-.311-.675-.466-1.483-.466-2.427 0-.943.157-1.75.471-2.42.319-.67.754-1.184 1.307-1.54a3.399 3.399 0 0 1 1.881-.534c.541 0 .977.091 1.307.273.333.178.591.386.772.625.186.238.33.449.432.63h.102v-4.323h1.699V43h-1.659v-1.358h-.142c-.102.186-.25.398-.443.636a2.462 2.462 0 0 1-.784.625c-.333.178-.765.267-1.296.267Zm.375-1.448c.489 0 .902-.13 1.239-.387.341-.261.599-.623.773-1.085.178-.462.267-1 .267-1.614 0-.606-.087-1.136-.261-1.59-.175-.455-.43-.81-.768-1.063-.337-.254-.753-.38-1.25-.38-.511 0-.937.132-1.278.397-.341.265-.598.627-.773 1.085-.17.459-.255.976-.255 1.551 0 .584.087 1.108.261 1.574.174.466.432.835.773 1.108.344.27.769.404 1.272.404Zm10.527-7.45v1.364h-4.931v-1.363h4.931ZM240.716 43v-9.739c0-.545.119-.998.358-1.358.239-.363.555-.634.949-.812a3.027 3.027 0 0 1 1.284-.273c.341 0 .632.029.875.085.242.053.422.103.54.148l-.398 1.375a8.446 8.446 0 0 0-.307-.08 1.747 1.747 0 0 0-.455-.05c-.412 0-.708.102-.886.306-.174.205-.261.5-.261.887V43h-1.699Z"/><path fill="#9A9BA4" d="M172.651 50.273V59h-1.321v-7.406h-.052l-2.088 1.363v-1.261l2.178-1.423h1.283Zm5.399 8.846c-.586 0-1.108-.1-1.568-.302a2.659 2.659 0 0 1-1.087-.84 2.23 2.23 0 0 1-.426-1.253h1.338c.017.259.104.483.26.674.159.187.366.332.622.434.256.103.54.154.852.154.344 0 .648-.06.912-.18.267-.118.476-.285.627-.498.15-.216.225-.464.225-.745 0-.293-.075-.55-.225-.772a1.478 1.478 0 0 0-.652-.528c-.285-.128-.628-.192-1.032-.192h-.737v-1.074h.737c.324 0 .608-.058.853-.175.247-.116.44-.278.579-.485.139-.21.209-.456.209-.738 0-.27-.061-.504-.183-.703-.12-.201-.29-.36-.512-.473a1.658 1.658 0 0 0-.775-.17c-.284 0-.55.052-.797.157-.244.103-.443.25-.597.444-.153.19-.235.419-.247.686h-1.274c.014-.472.153-.887.418-1.245a2.7 2.7 0 0 1 1.056-.839 3.444 3.444 0 0 1 1.458-.303c.559 0 1.042.11 1.449.328.409.216.724.505.946.866.224.36.335.755.332 1.184.003.489-.133.904-.409 1.245-.273.34-.636.57-1.091.686v.068c.58.088 1.028.318 1.347.69.321.372.48.834.477 1.385.003.48-.131.91-.401 1.291-.267.381-.632.68-1.095.9-.463.215-.993.323-1.589.323Zm5.294-.038a.826.826 0 0 1-.6-.247.824.824 0 0 1-.252-.605c0-.233.084-.432.252-.597a.819.819 0 0 1 .6-.251.82.82 0 0 1 .601.251.805.805 0 0 1 .252.597c0 .156-.04.3-.12.43a.88.88 0 0 1-.306.307.814.814 0 0 1-.427.115Zm5.264.038c-.585 0-1.108-.1-1.568-.302a2.672 2.672 0 0 1-1.087-.84 2.23 2.23 0 0 1-.426-1.253h1.338c.017.259.104.483.26.674.159.187.367.332.623.434.255.103.539.154.852.154.344 0 .648-.06.912-.18.267-.118.476-.285.626-.498.151-.216.226-.464.226-.745 0-.293-.075-.55-.226-.772a1.472 1.472 0 0 0-.652-.528c-.284-.128-.628-.192-1.031-.192h-.737v-1.074h.737c.324 0 .608-.058.852-.175.247-.116.441-.278.58-.485.139-.21.209-.456.209-.738 0-.27-.062-.504-.184-.703a1.225 1.225 0 0 0-.511-.473 1.662 1.662 0 0 0-.776-.17c-.284 0-.549.052-.797.157-.244.103-.443.25-.596.444-.154.19-.236.419-.247.686h-1.274c.014-.472.153-.887.417-1.245.267-.358.62-.637 1.057-.839a3.44 3.44 0 0 1 1.457-.303c.56 0 1.043.11 1.449.328.409.216.725.505.946.866.225.36.336.755.333 1.184.003.489-.134.904-.409 1.245-.273.34-.637.57-1.091.686v.068c.579.088 1.028.318 1.346.69.321.372.48.834.478 1.385.002.48-.131.91-.401 1.291-.267.381-.632.68-1.095.9-.463.215-.993.323-1.59.323Zm7.991-.119v-8.727h1.317v4.167h.107l3.66-4.167h1.658l-3.52 3.929L203.354 59h-1.586l-2.821-3.9-1.031 1.185V59h-1.317Zm7.969 0v-8.727h3.196c.62 0 1.132.102 1.539.306.406.202.71.476.911.823.202.344.303.731.303 1.163 0 .364-.067.67-.2.92a1.657 1.657 0 0 1-.537.597 2.37 2.37 0 0 1-.733.324v.086c.29.014.572.107.848.28.278.171.508.414.69.73.182.315.273.698.273 1.15 0 .446-.105.847-.315 1.202-.208.352-.529.632-.963.84-.435.204-.991.306-1.667.306h-3.345Zm1.317-1.13h1.901c.63 0 1.082-.121 1.355-.366.272-.244.409-.55.409-.916 0-.276-.07-.528-.209-.758a1.489 1.489 0 0 0-.597-.55 1.91 1.91 0 0 0-.912-.205h-1.947v2.796Zm0-3.822h1.764c.296 0 .561-.056.797-.17.239-.114.428-.273.567-.477.142-.208.213-.452.213-.733 0-.361-.127-.664-.379-.908-.253-.244-.641-.366-1.164-.366h-1.798v2.654ZM215.596 59v-8.727h3.11c.679 0 1.242.123 1.688.37.446.248.78.586 1.001 1.015.222.426.333.906.333 1.44 0 .537-.113 1.02-.337 1.449a2.438 2.438 0 0 1-1.006 1.014c-.446.247-1.007.37-1.683.37h-2.139v-1.116h2.02c.429 0 .777-.073 1.044-.221.267-.15.463-.355.588-.614.125-.258.187-.552.187-.882 0-.33-.062-.622-.187-.878a1.349 1.349 0 0 0-.592-.6c-.268-.146-.62-.218-1.057-.218h-1.654V59h-1.316Zm10.501 0h-2.826v-8.727h2.915c.855 0 1.59.174 2.203.524a3.455 3.455 0 0 1 1.411 1.496c.329.647.494 1.424.494 2.33 0 .91-.166 1.69-.499 2.344a3.494 3.494 0 0 1-1.431 1.509c-.625.35-1.381.524-2.267.524Zm-1.509-1.15h1.436c.665 0 1.217-.126 1.658-.376.44-.252.77-.617.988-1.095.219-.48.329-1.065.329-1.755 0-.685-.11-1.266-.329-1.743a2.313 2.313 0 0 0-.967-1.087c-.429-.247-.962-.37-1.598-.37h-1.517v6.425Zm7.343 1.15v-8.727h5.412v1.133h-4.095v2.66h3.708v1.129h-3.708V59h-1.317Z"/></g><g filter="url(#c)" opacity=".8"><rect width="256" height="78.933" x="92.5" y="50" fill="#fff" rx="25.6"/><g clip-path="url(#d)"><rect width="44.8" height="44.8" x="109.566" y="67.067" fill="#4554C9" rx="22.4"/><path fill="#fff" fill-rule="evenodd" d="M121.566 95.245a5.778 5.778 0 0 0 5.778 5.777h9.245a5.777 5.777 0 0 0 5.777-5.777v-9.532c0-1.12-.406-2.201-1.143-3.044l-2.782-3.18a4.624 4.624 0 0 0-3.479-1.578h-7.618a5.778 5.778 0 0 0-5.778 5.778v11.556Zm2.312 0a3.466 3.466 0 0 0 3.466 3.466h9.245a3.466 3.466 0 0 0 3.466-3.466V86h-2.311a3.466 3.466 0 0 1-3.466-3.466v-2.312h-6.934a3.466 3.466 0 0 0-3.466 3.467v11.556Zm12.711-14.353v1.642c0 .638.517 1.155 1.155 1.155h1.3l-2.343-2.677a2.119 2.119 0 0 0-.112-.12Z" clip-rule="evenodd"/></g><path fill="#4554C9" d="M170.173 87.521c-.901 0-1.677-.204-2.328-.612a4.06 4.06 0 0 1-1.491-1.703c-.347-.723-.521-1.552-.521-2.485 0-.945.178-1.78.534-2.503a4.078 4.078 0 0 1 1.503-1.703c.646-.408 1.408-.612 2.284-.612.707 0 1.338.131 1.891.394.554.258 1 .622 1.34 1.09.343.47.547 1.017.612 1.643h-1.764a2.116 2.116 0 0 0-.666-1.127c-.344-.315-.805-.473-1.382-.473-.505 0-.948.134-1.328.4-.375.263-.668.639-.878 1.127-.21.485-.315 1.06-.315 1.722 0 .678.103 1.264.309 1.757.206.493.497.875.872 1.146.38.27.827.406 1.34.406.343 0 .654-.063.933-.188.283-.13.519-.313.709-.552.194-.238.329-.525.406-.86h1.764a3.433 3.433 0 0 1-.588 1.612 3.384 3.384 0 0 1-1.315 1.115c-.546.27-1.186.406-1.921.406Zm7.574-5.715v5.527h-1.812V74.921h1.788v4.618h.115a2.67 2.67 0 0 1 1-1.194c.448-.295 1.034-.442 1.757-.442.639 0 1.196.131 1.673.394a2.66 2.66 0 0 1 1.115 1.176c.267.517.4 1.163.4 1.939v5.921h-1.812V81.63c0-.683-.176-1.212-.527-1.588-.352-.38-.841-.57-1.467-.57-.428 0-.812.092-1.151.273-.336.182-.6.449-.794.8-.19.348-.285.768-.285 1.261Zm12.467 5.715c-.918 0-1.708-.196-2.37-.588a3.981 3.981 0 0 1-1.527-1.666c-.356-.72-.534-1.562-.534-2.528 0-.953.178-1.794.534-2.52.359-.728.86-1.296 1.503-1.704.646-.408 1.402-.612 2.266-.612.525 0 1.035.087 1.528.26.492.174.935.447 1.327.819.392.371.701.854.927 1.448.226.59.339 1.307.339 2.152v.642h-7.4v-1.357h5.625c0-.477-.097-.9-.291-1.267a2.204 2.204 0 0 0-.818-.879c-.348-.214-.756-.321-1.225-.321-.509 0-.953.125-1.333.376a2.52 2.52 0 0 0-.873.97 2.8 2.8 0 0 0-.303 1.29v1.06c0 .623.109 1.152.328 1.589.222.436.531.77.927 1 .396.226.858.34 1.388.34.343 0 .656-.05.939-.146a1.949 1.949 0 0 0 1.206-1.182l1.715.309a3.107 3.107 0 0 1-.739 1.327 3.59 3.59 0 0 1-1.327.879c-.53.206-1.134.31-1.812.31Zm9.925 0c-.901 0-1.677-.204-2.327-.612a4.06 4.06 0 0 1-1.491-1.703c-.347-.723-.521-1.552-.521-2.485 0-.945.178-1.78.533-2.503a4.091 4.091 0 0 1 1.503-1.703c.647-.408 1.408-.612 2.285-.612.707 0 1.337.131 1.891.394.554.258 1 .622 1.339 1.09.344.47.548 1.017.613 1.643H202.2a2.111 2.111 0 0 0-.667-1.127c-.343-.315-.804-.473-1.382-.473-.505 0-.947.134-1.327.4-.376.263-.669.639-.879 1.127-.21.485-.315 1.06-.315 1.722 0 .678.103 1.264.309 1.757.206.493.497.875.873 1.146.38.27.826.406 1.339.406.344 0 .655-.063.934-.188.283-.13.519-.313.709-.552.194-.238.329-.525.406-.86h1.764a3.433 3.433 0 0 1-.588 1.612 3.387 3.387 0 0 1-1.316 1.115c-.545.27-1.185.406-1.921.406Zm7.429-3.345-.012-2.212h.315l3.709-3.94h2.17l-4.23 4.485h-.285l-1.667 1.667Zm-1.667 3.157V74.921h1.813v12.412h-1.813Zm5.879 0-3.333-4.424 1.248-1.267 4.309 5.691h-2.224Zm4.815.115c-.331 0-.616-.117-.854-.351a1.171 1.171 0 0 1-.358-.86c0-.332.119-.615.358-.85.238-.238.523-.357.854-.357.332 0 .616.12.855.358.238.234.357.517.357.848 0 .222-.056.426-.169.612a1.253 1.253 0 0 1-.437.437c-.181.109-.383.163-.606.163Zm3.64 3.376v-12.8h1.769v1.51h.152c.105-.195.257-.419.454-.674a2.57 2.57 0 0 1 .825-.666c.351-.194.816-.291 1.394-.291.751 0 1.422.19 2.012.57.59.38 1.052.927 1.388 1.642.339.715.509 1.576.509 2.582 0 1.006-.168 1.869-.503 2.588-.336.715-.796 1.266-1.382 1.654-.586.384-1.255.576-2.006.576-.566 0-1.028-.095-1.388-.285a2.62 2.62 0 0 1-.836-.666 5.054 5.054 0 0 1-.467-.68h-.109v4.94h-1.812Zm1.775-8.145c0 .654.095 1.228.285 1.72.19.494.465.88.825 1.159.359.274.8.412 1.321.412.541 0 .994-.144 1.357-.43.364-.292.639-.686.825-1.183.19-.496.284-1.056.284-1.678 0-.614-.092-1.166-.278-1.655-.182-.489-.457-.875-.825-1.157-.363-.283-.818-.425-1.363-.425-.525 0-.97.136-1.334.406-.359.271-.632.649-.818 1.134-.186.485-.279 1.05-.279 1.697Zm12.243 4.836c-.752 0-1.422-.192-2.012-.576-.586-.388-1.047-.94-1.382-1.654-.331-.72-.497-1.582-.497-2.588s.168-1.867.503-2.582c.339-.715.804-1.263 1.394-1.642.59-.38 1.259-.57 2.006-.57.578 0 1.042.097 1.394.29.356.19.63.413.824.668.198.254.352.478.461.672h.109v-4.612h1.812v12.412h-1.77v-1.448h-.151a4.805 4.805 0 0 1-.473.679 2.631 2.631 0 0 1-.836.666c-.356.19-.816.285-1.382.285Zm.4-1.545c.521 0 .962-.138 1.321-.412.364-.28.639-.665.824-1.158.19-.493.285-1.067.285-1.721 0-.647-.093-1.212-.279-1.697-.185-.485-.458-.863-.818-1.134-.359-.27-.804-.406-1.333-.406-.546 0-1 .142-1.364.425-.363.282-.638.668-.824 1.157a4.717 4.717 0 0 0-.273 1.655c0 .622.093 1.181.279 1.678.186.498.461.891.824 1.182.368.287.821.43 1.358.43Zm11.229-7.946v1.455h-5.261v-1.455h5.261Zm-3.818 9.31V76.944c0-.581.127-1.064.381-1.448a2.345 2.345 0 0 1 1.012-.867c.421-.194.877-.29 1.37-.29.364 0 .675.03.933.09.259.057.451.11.576.158l-.424 1.467a8.707 8.707 0 0 0-.327-.085 1.872 1.872 0 0 0-.485-.055c-.441 0-.756.11-.946.327-.185.218-.278.534-.278.946v10.145h-1.812Z"/><path fill="#9A9BA4" d="M169.46 95.291v9.309h-1.409v-7.9h-.054l-2.227 1.455v-1.346l2.322-1.518h1.368Zm5.76 9.436c-.625 0-1.182-.107-1.673-.322-.488-.216-.874-.514-1.159-.896a2.374 2.374 0 0 1-.455-1.336h1.427c.019.276.111.515.278.718.169.2.391.355.663.464.273.109.576.163.909.163.367 0 .691-.063.973-.191.285-.127.508-.304.668-.531.161-.231.241-.496.241-.796 0-.312-.08-.586-.241-.823a1.564 1.564 0 0 0-.695-.563c-.303-.137-.67-.205-1.1-.205h-.786v-1.145h.786c.345 0 .648-.062.909-.187.264-.124.47-.297.618-.518.149-.224.223-.486.223-.786 0-.288-.065-.538-.196-.75a1.313 1.313 0 0 0-.545-.505 1.77 1.77 0 0 0-.827-.181c-.303 0-.587.055-.85.168a1.57 1.57 0 0 0-.637.472 1.218 1.218 0 0 0-.263.732h-1.359c.015-.503.163-.945.445-1.327.285-.382.661-.68 1.127-.895a3.67 3.67 0 0 1 1.555-.323c.597 0 1.112.116 1.545.35.437.23.773.538 1.009.922.24.385.358.806.355 1.264.003.521-.142.964-.436 1.327a2.117 2.117 0 0 1-1.164.732v.073c.618.094 1.097.339 1.436.736.343.397.513.89.509 1.478a2.29 2.29 0 0 1-.427 1.377 2.907 2.907 0 0 1-1.168.959c-.494.23-1.059.345-1.695.345Zm5.647-.041a.882.882 0 0 1-.641-.263.884.884 0 0 1-.268-.646c0-.248.09-.46.268-.636a.875.875 0 0 1 .641-.268c.249 0 .462.089.641.268a.86.86 0 0 1 .268.636c0 .167-.042.32-.127.459a.942.942 0 0 1-.327.328.867.867 0 0 1-.455.122Zm5.615.041c-.624 0-1.182-.107-1.673-.322-.488-.216-.874-.514-1.159-.896a2.373 2.373 0 0 1-.454-1.336h1.427c.018.276.111.515.277.718.17.2.391.355.664.464.273.109.576.163.909.163.367 0 .691-.063.973-.191a1.59 1.59 0 0 0 .668-.531c.16-.231.241-.496.241-.796 0-.312-.081-.586-.241-.823a1.573 1.573 0 0 0-.696-.563c-.303-.137-.669-.205-1.1-.205h-.786v-1.145h.786c.346 0 .649-.062.91-.187.263-.124.469-.297.618-.518.148-.224.222-.486.222-.786 0-.288-.065-.538-.195-.75a1.313 1.313 0 0 0-.545-.505 1.778 1.778 0 0 0-.828-.181 2.15 2.15 0 0 0-.85.168c-.26.109-.472.266-.636.472a1.213 1.213 0 0 0-.264.732h-1.359c.015-.503.164-.945.446-1.327a2.87 2.87 0 0 1 1.127-.895 3.669 3.669 0 0 1 1.554-.323c.597 0 1.113.116 1.546.35.436.23.773.538 1.009.922.239.385.358.806.355 1.264.003.521-.143.964-.437 1.327a2.118 2.118 0 0 1-1.163.732v.073c.618.094 1.096.339 1.436.736.342.397.512.89.509 1.478.003.512-.139.971-.427 1.377a2.913 2.913 0 0 1-1.168.959c-.494.23-1.06.345-1.696.345Zm8.524-.127v-9.309h1.404v4.446h.114l3.905-4.446h1.768l-3.755 4.19 3.768 5.119h-1.69l-3.01-4.159-1.1 1.264v2.895h-1.404Zm8.5 0v-9.309h3.409c.661 0 1.208.11 1.641.327.433.215.758.508.973.878.215.366.322.78.322 1.24 0 .388-.071.716-.213.982a1.769 1.769 0 0 1-.573.637 2.518 2.518 0 0 1-.782.345v.091c.309.015.611.115.905.3.297.182.542.441.736.777.194.337.291.746.291 1.228 0 .475-.112.903-.336 1.281-.222.376-.564.675-1.028.896-.463.218-1.056.327-1.777.327h-3.568Zm1.404-1.204h2.028c.672 0 1.154-.131 1.445-.391a1.26 1.26 0 0 0 .437-.978 1.54 1.54 0 0 0-.86-1.395c-.272-.146-.596-.218-.972-.218h-2.078v2.982Zm0-4.078h1.882c.315 0 .599-.06.85-.181a1.49 1.49 0 0 0 .605-.51c.151-.22.227-.481.227-.781 0-.385-.135-.708-.404-.969-.27-.26-.684-.39-1.241-.39h-1.919v2.831Zm10.358 5.282v-9.309h3.319c.724 0 1.324.132 1.8.395.475.264.831.625 1.068 1.082.236.455.354.967.354 1.537 0 .572-.119 1.087-.359 1.545a2.598 2.598 0 0 1-1.072 1.082c-.476.264-1.075.395-1.796.395H216.3v-1.191h2.155c.457 0 .829-.078 1.113-.236.285-.16.494-.379.628-.654.133-.276.2-.59.2-.941a2.11 2.11 0 0 0-.2-.937 1.437 1.437 0 0 0-.632-.64c-.285-.155-.661-.232-1.127-.232h-1.764v8.104h-1.405Zm11.202 0h-3.014v-9.309h3.109c.912 0 1.695.186 2.35.56.655.369 1.156.9 1.505 1.595.351.69.527 1.52.527 2.486 0 .97-.177 1.803-.532 2.5a3.733 3.733 0 0 1-1.527 1.609c-.667.373-1.473.559-2.418.559Zm-1.61-1.227h1.532c.709 0 1.299-.134 1.768-.4a2.52 2.52 0 0 0 1.055-1.168c.233-.512.35-1.137.35-1.873 0-.73-.117-1.35-.35-1.86a2.47 2.47 0 0 0-1.032-1.158c-.457-.264-1.026-.396-1.704-.396h-1.619v6.855Zm7.833 1.227v-9.309h5.773v1.21h-4.368v2.835h3.955v1.205h-3.955v4.059h-1.405Z"/></g><g filter="url(#e)" opacity=".9"><rect width="272" height="83.867" x="84.5" y="96.933" fill="#fff" rx="27.2"/><g clip-path="url(#f)"><rect width="47.6" height="47.6" x="102.633" y="115.067" fill="#4554C9" rx="23.8"/><path fill="#fff" fill-rule="evenodd" d="M115.383 145.006a6.138 6.138 0 0 0 6.139 6.138h9.822a6.139 6.139 0 0 0 6.139-6.138v-10.128a4.913 4.913 0 0 0-1.215-3.234l-2.956-3.378a4.911 4.911 0 0 0-3.696-1.677h-8.094a6.138 6.138 0 0 0-6.139 6.139v12.278Zm2.455 0a3.683 3.683 0 0 0 3.684 3.683h9.822a3.683 3.683 0 0 0 3.683-3.683v-9.823h-2.456a3.682 3.682 0 0 1-3.683-3.683v-2.456h-7.366a3.684 3.684 0 0 0-3.684 3.684v12.278Zm13.506-15.251v1.745c0 .679.549 1.228 1.227 1.228h1.382l-2.489-2.845a2.923 2.923 0 0 0-.12-.128Z" clip-rule="evenodd"/></g><path fill="#4554C9" d="M167.027 136.8c-.957 0-1.782-.217-2.473-.651a4.305 4.305 0 0 1-1.584-1.809c-.369-.769-.554-1.649-.554-2.64 0-1.005.189-1.891.567-2.66.378-.772.91-1.376 1.597-1.809.687-.434 1.496-.651 2.428-.651.751 0 1.421.14 2.009.419a3.609 3.609 0 0 1 1.423 1.159c.365.498.582 1.08.65 1.745h-1.874a2.246 2.246 0 0 0-.708-1.198c-.365-.334-.854-.502-1.468-.502-.537 0-1.007.142-1.41.425-.4.279-.711.678-.934 1.198-.223.515-.335 1.125-.335 1.829 0 .721.11 1.343.329 1.867.218.524.528.929.927 1.217.403.288.878.432 1.423.432.365 0 .695-.067.992-.2.3-.137.551-.333.753-.586.206-.253.35-.558.431-.914h1.874a3.639 3.639 0 0 1-.624 1.712 3.586 3.586 0 0 1-1.398 1.185c-.579.288-1.26.432-2.041.432Zm8.048-6.073v5.873h-1.926v-13.188h1.9v4.907h.122a2.848 2.848 0 0 1 1.063-1.269c.476-.313 1.099-.47 1.867-.47.678 0 1.271.14 1.777.419a2.83 2.83 0 0 1 1.185 1.249c.284.55.425 1.237.425 2.061v6.291h-1.925v-6.059c0-.726-.187-1.288-.56-1.687-.374-.404-.893-.606-1.559-.606-.455 0-.863.097-1.223.29a2.088 2.088 0 0 0-.844.85c-.201.369-.302.816-.302 1.339Zm13.245 6.073c-.974 0-1.813-.208-2.517-.625a4.237 4.237 0 0 1-1.623-1.771c-.378-.764-.567-1.659-.567-2.685 0-1.013.189-1.906.567-2.679.382-.772.914-1.376 1.597-1.809.687-.434 1.49-.651 2.408-.651.558 0 1.099.093 1.623.277a3.93 3.93 0 0 1 1.41.87c.417.395.745.908.985 1.539.241.626.361 1.388.361 2.286v.682h-7.862v-1.442h5.975c0-.507-.103-.955-.309-1.346a2.343 2.343 0 0 0-.869-.934c-.369-.227-.803-.341-1.301-.341-.541 0-1.013.133-1.417.399a2.681 2.681 0 0 0-.927 1.03 2.984 2.984 0 0 0-.322 1.372v1.127c0 .661.116 1.223.348 1.687.236.464.564.818.985 1.063.421.24.912.36 1.475.36.365 0 .697-.051.998-.154.3-.108.56-.267.779-.477.219-.21.386-.47.502-.779l1.823.328a3.302 3.302 0 0 1-.786 1.411c-.373.399-.843.71-1.41.933-.563.219-1.204.329-1.926.329Zm10.547 0c-.958 0-1.782-.217-2.473-.651a4.305 4.305 0 0 1-1.584-1.809c-.369-.769-.554-1.649-.554-2.64 0-1.005.189-1.891.567-2.66.377-.772.91-1.376 1.597-1.809.686-.434 1.496-.651 2.427-.651.752 0 1.421.14 2.009.419a3.602 3.602 0 0 1 1.423 1.159c.365.498.582 1.08.651 1.745h-1.874a2.246 2.246 0 0 0-.708-1.198c-.365-.334-.855-.502-1.469-.502-.536 0-1.006.142-1.41.425-.399.279-.71.678-.933 1.198-.224.515-.335 1.125-.335 1.829 0 .721.109 1.343.328 1.867.219.524.528.929.927 1.217.404.288.878.432 1.423.432.365 0 .696-.067.992-.2.301-.137.552-.333.754-.586.206-.253.349-.558.431-.914h1.874a3.64 3.64 0 0 1-.625 1.712 3.576 3.576 0 0 1-1.397 1.185c-.58.288-1.26.432-2.041.432Zm7.893-3.555-.013-2.35h.335l3.941-4.186h2.305l-4.495 4.765h-.302l-1.771 1.771Zm-1.771 3.355v-13.188h1.925V136.6h-1.925Zm6.246 0-3.542-4.701 1.327-1.345 4.578 6.046h-2.363Zm5.116.122c-.352 0-.655-.124-.908-.373a1.247 1.247 0 0 1-.38-.914c0-.352.127-.653.38-.902a1.24 1.24 0 0 1 .908-.38c.352 0 .655.127.908.38.253.249.38.55.38.902 0 .236-.06.452-.18.65a1.338 1.338 0 0 1-.464.464 1.235 1.235 0 0 1-.644.173Zm3.867 3.587v-13.6h1.88v1.604h.161a5.43 5.43 0 0 1 .483-.715c.211-.271.503-.507.876-.709.374-.206.867-.309 1.481-.309.799 0 1.511.202 2.138.606.627.403 1.118.985 1.475 1.745.36.76.54 1.674.54 2.743s-.178 1.985-.534 2.75c-.356.759-.846 1.345-1.468 1.758-.623.407-1.333.611-2.132.611-.601 0-1.092-.101-1.474-.302-.378-.202-.674-.438-.889-.709a5.333 5.333 0 0 1-.496-.721h-.116v5.248h-1.925Zm1.887-8.654c0 .695.101 1.305.302 1.828.202.524.494.934.876 1.23.382.292.85.438 1.404.438.575 0 1.056-.152 1.442-.457.387-.309.679-.728.876-1.256.202-.528.303-1.122.303-1.783 0-.653-.099-1.239-.296-1.758-.194-.52-.486-.93-.876-1.23-.387-.301-.869-.451-1.449-.451-.558 0-1.03.144-1.417.431-.382.288-.672.689-.869 1.205-.198.515-.296 1.116-.296 1.803Zm13.007 5.138c-.798 0-1.511-.204-2.138-.611-.622-.413-1.111-.999-1.468-1.758-.352-.765-.528-1.681-.528-2.75s.178-1.983.535-2.743c.36-.76.854-1.342 1.481-1.745.627-.404 1.337-.606 2.131-.606.614 0 1.108.103 1.481.309.378.202.67.438.876.709.21.27.374.509.489.715h.116v-4.901h1.926V136.6h-1.881v-1.539h-.161c-.115.21-.283.451-.502.721-.214.271-.511.507-.888.709-.378.201-.868.302-1.469.302Zm.425-1.642c.554 0 1.022-.146 1.404-.438.386-.296.678-.706.876-1.23.202-.523.303-1.133.303-1.828 0-.687-.099-1.288-.297-1.803-.197-.516-.487-.917-.869-1.205-.382-.287-.854-.431-1.417-.431-.579 0-1.062.15-1.449.451-.386.3-.678.71-.875 1.23-.193.519-.29 1.105-.29 1.758 0 .661.099 1.255.296 1.783.198.528.49.947.876 1.256.391.305.871.457 1.442.457Zm11.931-8.442v1.546h-5.589v-1.546h5.589Zm-4.057 9.891v-11.037c0-.618.135-1.131.406-1.539a2.49 2.49 0 0 1 1.075-.921 3.434 3.434 0 0 1 1.455-.309c.387 0 .717.032.992.097.275.06.479.116.612.167l-.451 1.558c-.09-.025-.206-.055-.348-.09a2.003 2.003 0 0 0-.515-.058c-.468 0-.803.116-1.004.348-.198.232-.297.567-.297 1.005V136.6h-1.925Z"/><path fill="#9A9BA4" d="M166.27 145.242v9.891h-1.497v-8.393h-.058l-2.366 1.545v-1.43l2.468-1.613h1.453Zm6.119 10.027c-.663 0-1.255-.115-1.777-.343-.518-.229-.929-.546-1.231-.952a2.517 2.517 0 0 1-.483-1.42h1.516c.019.293.118.548.295.763.18.213.415.377.705.493.29.116.612.174.966.174a2.49 2.49 0 0 0 1.033-.203c.303-.135.54-.324.71-.565.171-.245.256-.526.256-.845 0-.332-.085-.623-.256-.874-.167-.255-.414-.454-.739-.599-.322-.145-.711-.218-1.168-.218h-.836v-1.217h.836c.367 0 .689-.066.965-.198.281-.132.5-.315.657-.55.158-.238.237-.517.237-.836 0-.306-.069-.571-.208-.797a1.398 1.398 0 0 0-.579-.536 1.893 1.893 0 0 0-.879-.193c-.322 0-.623.06-.903.179a1.67 1.67 0 0 0-.677.502 1.299 1.299 0 0 0-.28.778h-1.444a2.438 2.438 0 0 1 .474-1.411 3.068 3.068 0 0 1 1.197-.951 3.895 3.895 0 0 1 1.652-.343c.634 0 1.182.124 1.642.372.464.245.821.572 1.072.98.255.409.38.857.377 1.343.003.554-.151 1.024-.464 1.41a2.244 2.244 0 0 1-1.236.778v.077c.657.1 1.165.361 1.526.782.364.422.544.945.541 1.57a2.442 2.442 0 0 1-.454 1.463 3.08 3.08 0 0 1-1.241 1.019c-.525.245-1.125.368-1.802.368Zm6.001-.044a.936.936 0 0 1-.681-.28.936.936 0 0 1-.285-.686c0-.264.095-.489.285-.676a.93.93 0 0 1 .681-.285.93.93 0 0 1 .681.285c.19.187.285.412.285.676 0 .177-.045.34-.135.488a1 1 0 0 1-.348.348.92.92 0 0 1-.483.13Zm5.966.044c-.663 0-1.256-.115-1.777-.343-.519-.229-.929-.546-1.232-.952a2.532 2.532 0 0 1-.483-1.42h1.517c.019.293.117.548.294.763.18.213.415.377.705.493.29.116.612.174.966.174.39 0 .734-.068 1.034-.203.302-.135.539-.324.71-.565.17-.245.256-.526.256-.845 0-.332-.086-.623-.256-.874a1.668 1.668 0 0 0-.739-.599c-.322-.145-.712-.218-1.169-.218h-.836v-1.217h.836c.367 0 .689-.066.966-.198.28-.132.499-.315.657-.55.157-.238.236-.517.236-.836 0-.306-.069-.571-.207-.797a1.407 1.407 0 0 0-.58-.536 1.893 1.893 0 0 0-.879-.193c-.322 0-.623.06-.903.179a1.666 1.666 0 0 0-.676.502 1.293 1.293 0 0 0-.28.778h-1.444a2.444 2.444 0 0 1 .473-1.411 3.072 3.072 0 0 1 1.198-.951 3.89 3.89 0 0 1 1.651-.343c.635 0 1.182.124 1.643.372.463.245.821.572 1.072.98.254.409.38.857.376 1.343.004.554-.151 1.024-.463 1.41a2.243 2.243 0 0 1-1.237.778v.077c.657.1 1.166.361 1.527.782.363.422.544.945.54 1.57a2.435 2.435 0 0 1-.454 1.463 3.073 3.073 0 0 1-1.241 1.019c-.525.245-1.125.368-1.801.368Zm9.056-.136v-9.891h1.493v4.724h.12l4.149-4.724h1.879l-3.989 4.453 4.003 5.438h-1.796l-3.197-4.419-1.169 1.343v3.076h-1.493Zm9.032 0v-9.891h3.622c.702 0 1.283.116 1.743.348.461.229.805.539 1.034.932.228.39.343.829.343 1.319 0 .412-.076.76-.227 1.043-.152.28-.354.505-.609.676-.251.167-.528.29-.83.367v.097c.328.016.648.122.961.318.315.194.576.469.782.826.206.358.309.792.309 1.304 0 .506-.119.96-.357 1.362-.235.399-.599.717-1.092.952-.492.231-1.122.347-1.888.347h-3.791Zm1.492-1.28h2.154c.715 0 1.227-.138 1.536-.415.309-.277.463-.623.463-1.038 0-.313-.078-.599-.236-.86a1.694 1.694 0 0 0-.676-.623c-.29-.154-.635-.232-1.034-.232h-2.207v3.168Zm0-4.332h1.999c.335 0 .636-.064.904-.193.27-.129.484-.309.642-.541.161-.235.241-.512.241-.83 0-.409-.143-.752-.429-1.029-.287-.277-.726-.415-1.319-.415h-2.038v3.008Zm11.005 5.612v-9.891h3.526c.769 0 1.407.14 1.912.421.506.28.884.663 1.135 1.149.251.483.377 1.027.377 1.632a3.49 3.49 0 0 1-.381 1.642 2.769 2.769 0 0 1-1.14 1.15c-.506.28-1.142.42-1.908.42h-2.424v-1.265h2.289c.486 0 .88-.084 1.183-.251a1.58 1.58 0 0 0 .667-.696c.141-.293.212-.626.212-1 0-.373-.071-.705-.212-.995a1.527 1.527 0 0 0-.672-.68c-.302-.165-.702-.247-1.197-.247h-1.874v8.611h-1.493Zm11.902 0h-3.202v-9.891h3.303c.969 0 1.801.198 2.497.594a3.914 3.914 0 0 1 1.598 1.696c.374.734.561 1.614.561 2.641 0 1.031-.189 1.916-.565 2.657a3.971 3.971 0 0 1-1.623 1.709c-.708.396-1.565.594-2.569.594Zm-1.71-1.304h1.627c.754 0 1.38-.141 1.879-.425.499-.286.873-.7 1.121-1.241.248-.544.371-1.207.371-1.99 0-.776-.123-1.434-.371-1.975a2.629 2.629 0 0 0-1.097-1.231c-.486-.281-1.09-.421-1.811-.421h-1.719v7.283Zm8.322 1.304v-9.891h6.134v1.285h-4.641v3.014h4.201v1.28h-4.201v4.312h-1.493Z"/></g><g filter="url(#g)"><rect width="288" height="88.8" x="76.5" y="148.8" fill="#fff" rx="28.8"/><g clip-path="url(#h)"><rect width="50.4" height="50.4" x="95.699" y="168" fill="#4554C9" rx="25.2"/><path fill="#fff" fill-rule="evenodd" d="M109.199 199.7a6.5 6.5 0 0 0 6.5 6.5h10.4a6.5 6.5 0 0 0 6.5-6.5v-10.723a5.202 5.202 0 0 0-1.286-3.424l-3.13-3.577a5.2 5.2 0 0 0-3.914-1.776h-8.57a6.5 6.5 0 0 0-6.5 6.5v13Zm2.6 0a3.9 3.9 0 0 0 3.9 3.9h10.4a3.9 3.9 0 0 0 3.9-3.9v-10.4h-2.6a3.899 3.899 0 0 1-3.9-3.899V182.8h-7.8a3.9 3.9 0 0 0-3.9 3.9v13Zm14.3-16.147v1.848a1.3 1.3 0 0 0 1.3 1.299h1.463l-2.636-3.012a2.326 2.326 0 0 0-.127-.135Z" clip-rule="evenodd"/></g><path fill="#4554C9" d="M163.881 190.511c-1.013 0-1.886-.229-2.618-.688a4.561 4.561 0 0 1-1.677-1.916c-.391-.814-.586-1.746-.586-2.796 0-1.063.2-2.002.6-2.815.4-.819.963-1.457 1.691-1.916.727-.459 1.584-.689 2.57-.689.795 0 1.505.148 2.127.443.623.291 1.125.7 1.507 1.227a3.72 3.72 0 0 1 .689 1.848H166.2a2.377 2.377 0 0 0-.75-1.268c-.387-.355-.905-.532-1.555-.532-.568 0-1.066.15-1.493.45-.423.296-.752.718-.989 1.268-.236.546-.354 1.191-.354 1.937 0 .763.116 1.422.347 1.977.232.555.56.984.982 1.289.428.304.93.456 1.507.456.386 0 .736-.07 1.05-.211.318-.145.584-.352.798-.62.218-.269.37-.591.457-.969h1.984a3.849 3.849 0 0 1-.662 1.814c-.368.532-.861.95-1.479 1.255-.614.304-1.334.456-2.162.456Zm8.521-6.429v6.218h-2.038v-13.964h2.011v5.196h.13a3.003 3.003 0 0 1 1.125-1.343c.504-.332 1.163-.498 1.977-.498.718 0 1.345.148 1.882.443a3 3 0 0 1 1.254 1.323c.3.582.45 1.309.45 2.182v6.661h-2.038v-6.416c0-.768-.198-1.363-.593-1.786-.396-.427-.946-.641-1.65-.641-.482 0-.914.102-1.296.307a2.206 2.206 0 0 0-.893.9c-.214.391-.321.863-.321 1.418Zm14.025 6.429c-1.031 0-1.92-.22-2.665-.661a4.485 4.485 0 0 1-1.719-1.875c-.4-.809-.6-1.757-.6-2.843 0-1.073.2-2.018.6-2.836.405-.819.969-1.457 1.691-1.916.728-.459 1.578-.689 2.55-.689a5.14 5.14 0 0 1 1.718.293 4.16 4.16 0 0 1 1.494.921c.441.418.788.961 1.043 1.629.254.664.382 1.471.382 2.421v.722h-8.325v-1.527h6.327c0-.536-.109-1.011-.327-1.425a2.48 2.48 0 0 0-.921-.989c-.391-.24-.85-.361-1.377-.361-.573 0-1.073.141-1.5.423-.423.277-.75.641-.982 1.091a3.15 3.15 0 0 0-.341 1.452v1.193c0 .7.123 1.296.368 1.787.25.49.598.865 1.044 1.125.445.254.965.381 1.561.381.386 0 .739-.054 1.057-.163.318-.114.593-.282.825-.505.232-.223.409-.498.532-.825l1.929.348a3.488 3.488 0 0 1-.832 1.493 4.032 4.032 0 0 1-1.493.989c-.595.232-1.275.347-2.039.347Zm11.167 0c-1.014 0-1.886-.229-2.618-.688a4.557 4.557 0 0 1-1.678-1.916c-.39-.814-.586-1.746-.586-2.796 0-1.063.2-2.002.6-2.815.4-.819.964-1.457 1.691-1.916.727-.459 1.584-.689 2.57-.689.796 0 1.505.148 2.128.443.622.291 1.125.7 1.507 1.227.386.528.615 1.144.688 1.848h-1.984a2.377 2.377 0 0 0-.75-1.268c-.386-.355-.904-.532-1.554-.532-.569 0-1.066.15-1.494.45-.422.296-.752.718-.988 1.268-.237.546-.355 1.191-.355 1.937 0 .763.116 1.422.348 1.977.232.555.559.984.982 1.289.427.304.929.456 1.507.456.386 0 .736-.07 1.05-.211.318-.145.584-.352.797-.62.218-.269.371-.591.457-.969h1.984a3.858 3.858 0 0 1-.661 1.814 3.81 3.81 0 0 1-1.48 1.255c-.613.304-1.334.456-2.161.456Zm8.357-3.763-.013-2.489h.354l4.173-4.432h2.441l-4.759 5.046h-.321l-1.875 1.875Zm-1.875 3.552v-13.964h2.039V190.3h-2.039Zm6.614 0-3.75-4.977 1.404-1.425 4.848 6.402h-2.502Zm5.417.13a1.32 1.32 0 0 1-.961-.396 1.317 1.317 0 0 1-.403-.968c0-.373.134-.691.403-.955a1.31 1.31 0 0 1 .961-.402c.373 0 .693.134.961.402.269.264.403.582.403.955 0 .25-.064.48-.191.689a1.425 1.425 0 0 1-.491.491 1.308 1.308 0 0 1-.682.184Zm4.094 3.797v-14.4h1.991v1.698h.171a5.7 5.7 0 0 1 .511-.757c.223-.286.532-.536.927-.75.396-.218.918-.327 1.568-.327.846 0 1.6.214 2.264.641.664.427 1.184 1.043 1.561 1.848.382.804.573 1.772.573 2.904s-.188 2.102-.566 2.912c-.377.804-.895 1.425-1.554 1.861-.659.432-1.412.648-2.257.648-.636 0-1.157-.107-1.561-.321-.4-.213-.714-.463-.941-.75a5.564 5.564 0 0 1-.525-.763h-.123v5.556h-2.039Zm1.998-9.163c0 .736.107 1.382.32 1.936.214.555.523.989.928 1.302.404.309.9.464 1.486.464.609 0 1.118-.161 1.527-.484.409-.327.719-.771.928-1.33.213-.559.32-1.188.32-1.888 0-.691-.104-1.312-.314-1.862-.204-.55-.513-.984-.927-1.302-.409-.318-.92-.477-1.534-.477-.591 0-1.091.152-1.5.457-.404.304-.711.729-.92 1.275-.209.545-.314 1.181-.314 1.909Zm13.773 5.441c-.846 0-1.6-.216-2.264-.648-.659-.436-1.177-1.057-1.554-1.861-.373-.81-.56-1.78-.56-2.912s.189-2.1.566-2.904c.382-.805.905-1.421 1.569-1.848.663-.427 1.415-.641 2.256-.641.65 0 1.173.109 1.569.327.4.214.709.464.927.75.223.287.395.539.518.757h.123v-5.189h2.038V190.3h-1.991v-1.629h-.17c-.123.222-.3.477-.532.763-.227.287-.541.537-.941.75-.4.214-.918.321-1.554.321Zm.45-1.739c.586 0 1.082-.155 1.486-.464.409-.313.718-.747.927-1.302.214-.554.321-1.2.321-1.936 0-.728-.105-1.364-.314-1.909-.209-.546-.516-.971-.92-1.275-.405-.305-.905-.457-1.5-.457-.614 0-1.125.159-1.534.477-.409.318-.719.752-.928 1.302-.204.55-.306 1.171-.306 1.862 0 .7.104 1.329.313 1.888.209.559.518 1.003.927 1.33.414.323.923.484 1.528.484Zm12.632-8.939v1.637h-5.918v-1.637h5.918Zm-4.295 10.473v-11.686c0-.655.143-1.198.429-1.63a2.642 2.642 0 0 1 1.139-.975 3.634 3.634 0 0 1 1.541-.327c.409 0 .759.034 1.05.102.291.064.507.123.648.177l-.478 1.65a9.452 9.452 0 0 0-.368-.095 2.095 2.095 0 0 0-.545-.061c-.496 0-.85.122-1.064.368-.209.245-.314.6-.314 1.063V190.3h-2.038Z"/><path fill="#9A9BA4" d="M163.08 199.627V210.1h-1.585v-8.887h-.061l-2.506 1.636v-1.514l2.613-1.708h1.539Zm6.479 10.616c-.702 0-1.329-.121-1.882-.363-.548-.242-.983-.578-1.304-1.007a2.676 2.676 0 0 1-.511-1.504h1.606c.02.311.124.58.312.808.191.225.439.399.746.522s.648.184 1.023.184c.413 0 .777-.072 1.094-.215.321-.143.571-.342.752-.598.181-.259.271-.557.271-.895 0-.351-.09-.66-.271-.925-.177-.27-.438-.481-.782-.635-.341-.153-.754-.23-1.238-.23h-.884v-1.288h.884c.389 0 .73-.07 1.023-.21.296-.14.528-.334.695-.583.167-.252.251-.547.251-.885 0-.323-.073-.605-.22-.843a1.475 1.475 0 0 0-.614-.568 1.994 1.994 0 0 0-.93-.204c-.341 0-.66.063-.957.189-.293.122-.531.3-.715.532a1.361 1.361 0 0 0-.297.823h-1.529a2.581 2.581 0 0 1 .501-1.493c.321-.43.743-.766 1.268-1.008a4.128 4.128 0 0 1 1.749-.363c.672 0 1.251.131 1.739.394.491.259.869.605 1.135 1.038.269.433.402.907.399 1.422.003.586-.16 1.084-.491 1.493-.327.409-.764.683-1.309.823v.082c.695.106 1.234.382 1.616.828.385.447.576 1.001.573 1.662a2.591 2.591 0 0 1-.481 1.55 3.291 3.291 0 0 1-1.314 1.079c-.556.259-1.192.388-1.908.388Zm6.354-.046a.994.994 0 0 1-.721-.296.992.992 0 0 1-.302-.726c0-.28.101-.519.302-.716a.98.98 0 0 1 .721-.302c.28 0 .52.1.721.302a.966.966 0 0 1 .302.716.979.979 0 0 1-.143.516 1.066 1.066 0 0 1-.369.368.974.974 0 0 1-.511.138Zm6.317.046c-.703 0-1.33-.121-1.882-.363-.549-.242-.984-.578-1.304-1.007a2.677 2.677 0 0 1-.512-1.504h1.606c.021.311.125.58.312.808.191.225.44.399.747.522.306.123.647.184 1.022.184.413 0 .778-.072 1.095-.215a1.78 1.78 0 0 0 .751-.598c.181-.259.271-.557.271-.895 0-.351-.09-.66-.271-.925-.177-.27-.438-.481-.782-.635-.341-.153-.753-.23-1.238-.23h-.884v-1.288h.884c.389 0 .73-.07 1.023-.21.297-.14.529-.334.696-.583.167-.252.25-.547.25-.885 0-.323-.073-.605-.22-.843a1.473 1.473 0 0 0-.613-.568 2 2 0 0 0-.931-.204c-.341 0-.66.063-.956.189-.293.122-.532.3-.716.532a1.368 1.368 0 0 0-.297.823h-1.529a2.581 2.581 0 0 1 .501-1.493c.321-.43.744-.766 1.269-1.008a4.127 4.127 0 0 1 1.748-.363c.672 0 1.252.131 1.739.394.491.259.869.605 1.135 1.038.27.433.403.907.399 1.422.004.586-.16 1.084-.491 1.493-.327.409-.763.683-1.309.823v.082c.696.106 1.234.382 1.616.828.385.447.576 1.001.573 1.662a2.591 2.591 0 0 1-.481 1.55c-.32.456-.758.816-1.314 1.079-.556.259-1.192.388-1.907.388Zm9.589-.143v-10.473h1.58v5.002h.128l4.392-5.002h1.99l-4.224 4.715 4.239 5.758h-1.902l-3.385-4.679-1.238 1.422v3.257h-1.58Zm9.562 0v-10.473h3.836c.743 0 1.358.123 1.846.369.487.242.852.571 1.094.986.242.413.363.878.363 1.397 0 .436-.08.804-.24 1.104a1.981 1.981 0 0 1-.645.716 2.853 2.853 0 0 1-.879.389v.102a2.08 2.08 0 0 1 1.017.337c.335.205.611.496.829.875.218.378.327.838.327 1.38 0 .536-.126 1.016-.378 1.443-.249.422-.634.758-1.156 1.007-.522.245-1.188.368-1.999.368h-4.015Zm1.581-1.355h2.28c.757 0 1.299-.147 1.626-.44.328-.293.491-.659.491-1.099 0-.331-.083-.634-.25-.91a1.789 1.789 0 0 0-.716-.66c-.307-.164-.672-.246-1.095-.246h-2.336v3.355Zm0-4.587h2.117c.354 0 .673-.068.956-.204.286-.137.513-.328.68-.573.17-.249.256-.542.256-.88 0-.433-.152-.796-.455-1.089-.304-.293-.769-.44-1.397-.44h-2.157v3.186Zm11.652 5.942v-10.473h3.733c.815 0 1.49.149 2.025.445a2.9 2.9 0 0 1 1.202 1.217c.266.512.399 1.088.399 1.729 0 .644-.135 1.224-.404 1.738a2.918 2.918 0 0 1-1.207 1.217c-.535.297-1.209.445-2.02.445h-2.567v-1.339h2.424c.515 0 .932-.089 1.253-.266.32-.181.555-.427.705-.737a2.4 2.4 0 0 0 .225-1.058 2.37 2.37 0 0 0-.225-1.054 1.616 1.616 0 0 0-.71-.721c-.321-.174-.744-.261-1.269-.261h-1.984v9.118h-1.58Zm12.602 0h-3.391v-10.473h3.498c1.026 0 1.907.21 2.644.629a4.15 4.15 0 0 1 1.692 1.795c.396.778.593 1.71.593 2.797 0 1.091-.199 2.029-.598 2.813a4.197 4.197 0 0 1-1.718 1.81c-.75.419-1.657.629-2.72.629Zm-1.811-1.381h1.724c.797 0 1.46-.15 1.989-.45a2.831 2.831 0 0 0 1.186-1.314c.263-.576.394-1.278.394-2.107 0-.821-.131-1.518-.394-2.091a2.781 2.781 0 0 0-1.161-1.304c-.514-.297-1.154-.445-1.917-.445h-1.821v7.711Zm8.812 1.381v-10.473h6.495v1.361h-4.915v3.191h4.449v1.355h-4.449v4.566h-1.58Z"/></g><defs><clipPath id="b"><rect width="42" height="42" x="116.5" y="24" fill="#fff" rx="3"/></clipPath><clipPath id="d"><rect width="44.8" height="44.8" x="109.566" y="67.067" fill="#fff" rx="3.2"/></clipPath><clipPath id="f"><rect width="47.6" height="47.6" x="102.633" y="115.067" fill="#fff" rx="3.4"/></clipPath><clipPath id="h"><rect width="50.4" height="50.4" x="95.699" y="168" fill="#fff" rx="3.6"/></clipPath><filter id="a" width="304" height="138" x="68.5" y="0" color-interpolation-filters="sRGB" filterUnits="userSpaceOnUse"><feFlood flood-opacity="0" result="BackgroundImageFix"/><feColorMatrix in="SourceAlpha" result="hardAlpha" values="0 0 0 0 0 0 0 0 0 0 0 0 0 0 0 0 0 0 127 0"/><feOffset dy="24"/><feGaussianBlur stdDeviation="16"/><feComposite in2="hardAlpha" operator="out"/><feColorMatrix values="0 0 0 0 0.0627451 0 0 0 0 0.0627451 0 0 0 0 0.0627451 0 0 0 0.08 0"/><feBlend in2="BackgroundImageFix" result="effect1_dropShadow_6934_49390"/><feColorMatrix in="SourceAlpha" result="hardAlpha" values="0 0 0 0 0 0 0 0 0 0 0 0 0 0 0 0 0 0 127 0"/><feOffset dy="16"/><feGaussianBlur stdDeviation="8"/><feComposite in2="hardAlpha" operator="out"/><feColorMatrix values="0 0 0 0 0.0627451 0 0 0 0 0.0627451 0 0 0 0 0.0627451 0 0 0 0.08 0"/><feBlend in2="effect1_dropShadow_6934_49390" result="effect2_dropShadow_6934_49390"/><feBlend in="SourceGraphic" in2="effect2_dropShadow_6934_49390" result="shape"/></filter><filter id="c" width="320" height="142.933" x="60.5" y="42" color-interpolation-filters="sRGB" filterUnits="userSpaceOnUse"><feFlood flood-opacity="0" result="BackgroundImageFix"/><feColorMatrix in="SourceAlpha" result="hardAlpha" values="0 0 0 0 0 0 0 0 0 0 0 0 0 0 0 0 0 0 127 0"/><feOffset dy="24"/><feGaussianBlur stdDeviation="16"/><feComposite in2="hardAlpha" operator="out"/><feColorMatrix values="0 0 0 0 0.0627451 0 0 0 0 0.0627451 0 0 0 0 0.0627451 0 0 0 0.08 0"/><feBlend in2="BackgroundImageFix" result="effect1_dropShadow_6934_49390"/><feColorMatrix in="SourceAlpha" result="hardAlpha" values="0 0 0 0 0 0 0 0 0 0 0 0 0 0 0 0 0 0 127 0"/><feOffset dy="16"/><feGaussianBlur stdDeviation="8"/><feComposite in2="hardAlpha" operator="out"/><feColorMatrix values="0 0 0 0 0.0627451 0 0 0 0 0.0627451 0 0 0 0 0.0627451 0 0 0 0.08 0"/><feBlend in2="effect1_dropShadow_6934_49390" result="effect2_dropShadow_6934_49390"/><feBlend in="SourceGraphic" in2="effect2_dropShadow_6934_49390" result="shape"/></filter><filter id="e" width="336" height="147.867" x="52.5" y="88.933" color-interpolation-filters="sRGB" filterUnits="userSpaceOnUse"><feFlood flood-opacity="0" result="BackgroundImageFix"/><feColorMatrix in="SourceAlpha" result="hardAlpha" values="0 0 0 0 0 0 0 0 0 0 0 0 0 0 0 0 0 0 127 0"/><feOffset dy="24"/><feGaussianBlur stdDeviation="16"/><feComposite in2="hardAlpha" operator="out"/><feColorMatrix values="0 0 0 0 0.0627451 0 0 0 0 0.0627451 0 0 0 0 0.0627451 0 0 0 0.08 0"/><feBlend in2="BackgroundImageFix" result="effect1_dropShadow_6934_49390"/><feColorMatrix in="SourceAlpha" result="hardAlpha" values="0 0 0 0 0 0 0 0 0 0 0 0 0 0 0 0 0 0 127 0"/><feOffset dy="16"/><feGaussianBlur stdDeviation="8"/><feComposite in2="hardAlpha" operator="out"/><feColorMatrix values="0 0 0 0 0.0627451 0 0 0 0 0.0627451 0 0 0 0 0.0627451 0 0 0 0.08 0"/><feBlend in2="effect1_dropShadow_6934_49390" result="effect2_dropShadow_6934_49390"/><feBlend in="SourceGraphic" in2="effect2_dropShadow_6934_49390" result="shape"/></filter><filter id="g" width="352" height="152.8" x="44.5" y="140.8" color-interpolation-filters="sRGB" filterUnits="userSpaceOnUse"><feFlood flood-opacity="0" result="BackgroundImageFix"/><feColorMatrix in="SourceAlpha" result="hardAlpha" values="0 0 0 0 0 0 0 0 0 0 0 0 0 0 0 0 0 0 127 0"/><feOffset dy="24"/><feGaussianBlur stdDeviation="16"/><feComposite in2="hardAlpha" operator="out"/><feColorMatrix values="0 0 0 0 0.0627451 0 0 0 0 0.0627451 0 0 0 0 0.0627451 0 0 0 0.08 0"/><feBlend in2="BackgroundImageFix" result="effect1_dropShadow_6934_49390"/><feColorMatrix in="SourceAlpha" result="hardAlpha" values="0 0 0 0 0 0 0 0 0 0 0 0 0 0 0 0 0 0 127 0"/><feOffset dy="16"/><feGaussianBlur stdDeviation="8"/><feComposite in2="hardAlpha" operator="out"/><feColorMatrix values="0 0 0 0 0.0627451 0 0 0 0 0.0627451 0 0 0 0 0.0627451 0 0 0 0.08 0"/><feBlend in2="effect1_dropShadow_6934_49390" result="effect2_dropShadow_6934_49390"/><feBlend in="SourceGraphic" in2="effect2_dropShadow_6934_49390" result="shape"/></filter></defs></svg>