<svg width="1920" height="692" fill="none" xmlns="http://www.w3.org/2000/svg"><g opacity=".3" clip-path="url(#a)" fill="#697BFF"><path d="M1193.32 692.492c9.37-26.354 18.19-52.917 20.36-81.018 1.88-24.414-3.03-47.483-16.17-68.491-5.44-8.691-12.07-16.321-19.89-22.965-24.69-21.039-53.42-33.671-84.58-41.644-31.61-8.093-63.84-12.319-96.106-16.47-37.105-4.778-74.21-9.661-110.315-20.008-21.215-6.077-41.551-14.155-60.2-26.13-13.577-8.72-25.423-19.292-35.434-32.014-15.247-19.366-21.111-41.494-20.305-65.773.731-22.129 7.101-42.689 17.023-62.265 14.636-28.892 34.598-53.44 60.439-73.015 41.67-31.565 87.965-52.768 139.75-61.159 21.378-3.465 42.938-5.077 64.188.507 7.74 2.031 15.48 5.271 22.24 9.541 15.04 9.497 20.2 25.1 15.11 42.182-4.93 16.559-15.32 29.415-27.9 40.763-1.61 1.449-3.16 3.031-4.98 4.166-1.1.687-2.85 1.165-3.94.762-.82-.299-1.67-2.27-1.47-3.315.95-5.166 1.86-10.392 3.52-15.35 2.97-8.854 6.99-17.38 9.63-26.324 4.85-16.499.78-23.487-15.77-28.594-11.04-3.404-22.42-3.972-33.82-3.285-67.12 4.046-124.441 30.714-172.66 76.853-22.171 21.203-37.926 46.989-45.908 77.002-3.64 13.677-4.207 27.563-2.133 41.554 1.775 11.99 6.952 22.427 14.159 32.013 13.845 18.411 31.882 31.581 52.337 41.645 26.02 12.811 53.814 20.187 82.206 24.95 35.673 6.003 71.549 10.841 107.319 16.335 30.21 4.644 59.97 11.109 88.32 22.905 18.14 7.541 34.79 17.679 50.05 30.028 26.16 21.158 39.14 49.229 42.44 82.243 2.49 24.965-2.29 49.184-7.75 73.314-2.09 9.242-4.79 18.365-7.19 27.548-.3 1.15-.4 2.359-.6 3.539-7.32-.03-14.65-.03-21.97-.03Z"/><path d="M832.969 692.492c.641-7.511.492-15.2 2.074-22.502 5.326-24.637 11.667-49.05 16.888-73.702 7.788-36.911 13.681-74.12 15.964-111.837.09-1.553-.477-3.136-.671-4.719-.224-1.851-.806-3.792-.478-5.569 1.701-9.288 14.413-15.872 22.902-11.901 3.193 1.479 6.236 3.285 9.265 5.077 17.709 10.527 37.328 14.962 57.32 18.396 11.876 2.045 23.648 4.673 35.449 7.167 5.729 1.209 8.918 4.45 9.518 9.198.58 4.569-1.864 8.66-6.967 11.348-4.789 2.523-9.638 4.972-14.472 7.406-18.634 9.347-34.658 22.158-49.219 36.926-.448.448-.806.985-1.775 2.165 1.984 0 3.252.03 4.505 0 11.518-.314 23.036-.642 34.554-.926 1.895-.045 3.804-.075 5.684.164 4.342.553 7.728 2.583 9.175 6.943 1.433 4.33.12 8.138-3.103 11.094-2.685 2.464-5.714 4.57-8.698 6.66-8.593 6.017-16.531 12.752-22.871 21.188-1.268 1.687-2.358 3.524-4.282 6.45 5.386-.955 9.757-1.105 13.681-2.523 13.472-4.898 26.81-10.154 40.133-15.469 4.145-1.658 7.375-4.51 8.685-9.079.33-1.149 1.06-2.195 1.73-3.21 4.24-6.48 11.71-8.989 18.42-6.241 6.52 2.672 10.27 9.586 8.36 17.081-2.81 11.02-5.6 22.099-9.47 32.76-7.7 21.143-16.15 42.018-24.25 63.011-.58 1.493-.85 3.091-1.267 4.644h-27.66c7.415-25.13 14.815-50.26 22.215-75.36-7.549 2.404-15.278 5.45-23.289 7.257-10.384 2.344-20.962 4.868-31.51 5.211-13.935.448-20.127-9.959-14.905-22.935 3.7-9.212 9.623-16.932 16.62-23.86 1.194-1.195 2.731-2.046 4.103-3.061-.328-.448-.656-.911-.984-1.359-5.476.508-10.951 1.195-16.442 1.463-6.475.314-13.054.911-19.44.18-11.055-1.27-15.441-11.542-9.399-20.83.806-1.239 1.671-2.494 2.685-3.569 16.457-17.32 33.271-34.223 54.083-46.482.955-.567 1.836-1.269 3.686-2.553-23.633-3.255-45.967-7.182-66.616-17.858-.612 8.078-.805 15.514-1.775 22.83-5.326 40.002-14.353 79.212-26.02 117.795-6.385 21.114-13.248 42.092-19.887 63.116-4.118.015-8.176.015-12.249.015Zm465.291 0c-7.37-9.422-10.4-20.426-11.5-32.088-1.94-20.65-.11-41.211 2.09-61.697 1.34-12.662 3.67-25.204 5.49-37.822.19-1.284.09-2.672-.14-3.971-.91-4.898.24-8.019 4.55-10.214 29.19-14.931 58.4-29.818 87.69-44.555 2.84-1.434 4.74-2.942 5.81-6.077 2.2-6.376 7.24-9.363 12.73-8.168 5.92 1.299 9.04 6.555 7.89 13.976-1.3 8.302-3.22 16.514-4.26 24.846-1.54 12.363-2.72 24.786-3.66 37.209-.27 3.569.42 7.332 1.36 10.826 1.65 6.122 5.79 9.063 12.05 8.645 10.37-.717 19.61-5.047 28.59-9.855 1-.537 1.54-2.702 1.56-4.136.21-8.406.12-16.813.33-25.219.09-3.509.35-7.078 1.12-10.482 1.51-6.63 6.7-10.9 12.85-11.109 6.17-.209 11.83 3.643 13.38 10.347 1.51 6.57 2.57 13.379 2.69 20.098.41 23.308.35 46.646.46 69.955.01 3.389.04 6.793-.23 10.168-.64 8.481-8.16 12.154-15.2 7.361-5.88-4.001-9.46-9.944-10.95-16.634-1.77-7.898-2.49-16.021-3.61-24.054-.25-1.837-.27-3.688-.43-6.152-1.85.836-3.12 1.523-4.46 2.001-7.76 2.792-15.34 6.391-23.32 8.137-15.67 3.45-29.87-4.643-36.03-19.56-3.88-9.377-4.58-19.247-3.61-29.191 1.01-10.377 2.5-20.725 3.79-31.073.15-1.164.29-2.329.55-4.195-3.88 2.09-7.22 3.807-10.5 5.644-17.73 9.914-35.45 19.844-53.13 29.863-.88.493-1.81 1.687-1.91 2.658-2.4 21.143-4.76 42.301-6.96 63.474-1.04 10.108-1.98 20.262-2.5 30.4-.72 13.931-1.37 27.952 6.12 40.689-6.23-.045-12.46-.045-18.7-.045Z"/><path d="M1084.32 692.492c7.44-25.787 14.84-51.574 22.36-77.33 3.37-11.557 6.98-23.04 10.65-35.119-1.97 0-3.35.015-4.76 0-12.02-.15-24.17.657-36.04-.717-13.67-1.583-18.92-11.049-14.43-24.174 2.27-6.615 5.83-12.797 8.83-19.172 1.32-2.793 2.69-5.54 4.45-9.138-3.1-.224-5.48-.717-7.8-.523-14.39 1.209-28.58 3.076-41.2 11.049-5.08 3.211-9.84 2.912-13.6-.298-4.32-3.688-5.21-8.511-3.63-13.693 2.28-7.51 7.89-12.258 14.5-15.752 14.31-7.541 29.71-10.109 45.7-8.541 4.52.448 9.1 1.747 13.31 3.464 15.65 6.391 20.72 19.336 13.59 34.641-2.74 5.883-6.19 11.438-9.31 17.156-.82 1.508-1.64 3.032-2.8 5.152 5.71 0 10.8.284 15.84-.075 6.61-.463 13.26-1.06 19.77-2.284 4.56-.852 9.04-2.539 13.34-4.375 5-2.136 9.9-2.912 14.92-.553 8.19 3.853 10.05 14.275 3.29 20.755-4.2 4.047-6.7 8.75-8.52 14.051-11.59 33.715-23.2 67.431-34.76 101.161-.48 1.374-.62 2.867-.92 4.3-7.6.015-15.19.015-22.78.015ZM0 307.496c2.805-1.612 5.684-3.09 8.4-4.837 27.377-17.545 54.784-35.03 82.042-52.754 12.905-8.391 23.752-19.201 34.315-30.385 16.172-17.127 25.019-37.434 27.973-60.577.329-2.539.776-5.122 1.627-7.526 1.775-5.002 5.266-8.212 10.757-8.571 5.445-.358 9.951 2.061 11.816 6.943 1.939 5.092 3.446 10.736 3.342 16.112-.149 7.361-1.403 14.857-3.238 22.009-4.237 16.484-11.95 31.356-22.767 44.555-12.428 15.171-26.094 29.072-42.356 40.151-17.128 11.677-34.36 23.204-51.666 34.627C40.238 320.457 20.082 333.477 0 346.572v-39.076Zm0 328.032c9.921-2.001 19.753-4.778 29.78-5.853 21.871-2.315 39.715 5.868 53.366 23.024 9.355 11.751 14.293 25.638 18.545 39.808H.015C0 673.514 0 654.521 0 635.528Zm1250.26 56.964c-13.69-48.722-9.3-97.205 2.56-145.419 2.23-9.078 6.65-17.723 10.84-26.19 1.97-3.971 5.51-7.331 8.85-10.422 2.83-2.613 6.62-3.33 10.17-1.09 3.44 2.15 3.96 5.689 3.3 9.362-.55 3.061-1.33 6.092-2.21 9.079-8.2 28.026-11.29 56.844-12.96 85.856-1.31 22.756-1.94 45.526 1.48 68.178.53 3.598 1.58 7.107 2.4 10.661-8.16-.015-16.29-.015-24.43-.015ZM0 25.873c10.608-2.613 21.111-6.002 31.883-7.57 7.042-1.016 14.68-.314 21.693 1.24 18.202 4.046 27.422 18.813 24.229 37.179-1.582 9.108-5.267 17.365-10.28 24.995C50.577 107.52 27.392 126.138 0 139.831v-24.413c.388-.045.85.029 1.164-.15 20.544-11.646 38.716-26.04 51.532-46.198 3.118-4.912 5.251-10.736 6.654-16.425 1.745-7.092-1.657-12.11-8.848-13.423-4.983-.91-10.264-1-15.322-.538C22.752 39.82 11.354 44.657 0 49.48V25.873Zm873.639 666.619c3.759-22.292 7.504-44.6 11.323-66.893.478-2.777 1.134-5.614 2.224-8.197 2.491-5.928 7.967-8.347 13.979-6.242 6.117 2.15 10.25 6.062 11.742 12.782a542.644 542.644 0 0 0 7.564 30.341c1.119 3.956 2.879 7.928 5.207 11.318 5.356 7.809 11.264 15.245 16.903 22.86.955 1.284 1.761 2.688 2.626 4.031h-71.568Zm-468.547 0c7.758-4.091 15.531-8.198 23.289-12.289.358-.522.716-1.06 1.089-1.583-1.298-.701-2.715-1.254-3.894-2.12-6.43-4.733-12.875-9.451-19.186-14.334-17.501-13.543-17.008-34.477 1.522-46.646 5.281-3.464 11.652-5.779 17.843-7.212 3.342-.777 7.729.776 10.981 2.523 3.461 1.852 4.297 5.824 3.059 9.691-1.089 3.404-3.492 4.838-7.236 5.375-7.251 1.06-12.577 5.57-15.964 11.901-.806 1.508-.09 4.688 1.089 6.181 2.223 2.822 5.356 4.913 7.982 7.451 6.699 6.466 13.741 12.662 19.873 19.635 5.684 6.48 5.863 14.021 1.044 21.412-13.83.015-27.661.015-41.491.015Zm-106.554 0c-.94-4.36-2.089-8.675-2.775-13.065-2.253-14.558 3.237-26.19 14.666-34.805 14.412-10.87 30.57-12.214 46.921-5.525 6.968 2.852 13.159 7.854 19.202 12.528 2.476 1.911 3.998 5.39 5.296 8.421 1.194 2.777.433 5.704-2.133 7.66-2.417 1.852-4.7.672-7.177-.403-6.415-2.777-12.8-6.017-19.544-7.585-13.592-3.151-28.317 3.837-35.613 15.782-3.297 5.406-2.462 11.199-1.745 16.992h-17.098Zm-131.784-.001c11.04-23.263 22.051-46.526 33.166-69.76 2.223-4.644 4.744-9.153 7.4-13.543 3.372-5.599 8.489-7.511 13.323-5.331 4.64 2.091 6.818 7.168 4.715 13.185-3.984 11.378-8.281 22.636-12.786 33.82-5.61 13.946-11.548 27.758-17.352 41.614-9.489.015-18.977.015-28.466.015Z"/><path d="M1036.32 692.492c3.24-15.096 6.54-30.162 9.67-45.272 1.51-7.302 2.56-14.693 4.1-21.98.61-2.867 1.6-5.793 3.03-8.331 2.86-5.062 8.4-7.451 13.82-6.481 5.63 1.016 10.24 5.256 10.86 11.154.38 3.808.24 8.063-1.09 11.572-7.54 19.874-15.5 39.584-23.32 59.338h-17.07ZM0 608.666c18.664-5.988 36.94-13.394 56.575-15.872 3.282-.418 6.758-.15 10.04.433 3.298.582 5.476 2.911 6.013 6.361.507 3.285-.716 6.062-3.521 7.63-3.521 1.971-7.161 4.106-11.026 5.046-18.276 4.435-36.642 8.496-54.978 12.692-1.044.224-2.074.523-3.103.792v-17.082Zm220.449 83.826c6.759-15.619 13.517-31.252 20.276-46.87.701-1.613 1.492-3.181 2.193-4.778 1.492-3.36 3.998-5.152 7.698-4.555 3.715.598 5.7 3.151 5.849 6.75.119 2.792.074 5.763-.701 8.406-3.611 12.169-7.52 24.264-11.294 36.388-.478 1.523-.836 3.091-1.254 4.644-7.594.015-15.188.015-22.767.015Zm103.301-.001c3.909-10.81 11.413-17.888 22.454-20.904 4.52-1.239 8.758.911 10.309 4.509 1.179 2.733 1.059 5.047-1.745 7.078-3.984 2.882-7.669 6.197-11.488 9.317h-19.53ZM1664.46 80.06c-7.62 2.613-14.34 5.076-21.17 7.197a730.465 730.465 0 0 1-26.15 7.51c-5.38 1.434-9.75-.582-11.18-4.703-1.52-4.39.7-8.87 6.07-10.825 19.73-7.212 39.51-14.26 59.31-21.263 2.39-.851 5.01-1.3 7.56-1.404 8.33-.313 12.98 6.869 9.4 14.35-9.79 20.381-13.84 42.42-18.5 64.28-.07.358.06.761.17 1.792 14.91-6.436 31.46-7.421 46.05-16.515-4.61-3.21-8.89-6.017-12.98-9.093-3.12-2.344-6.55-4.584-8.88-7.615-6.43-8.377-1.89-19.097 8.6-20.292 18.56-2.135 36.6-6.137 53.77-13.677 1.85-.807 3.83-1.33 5.8-1.837 8.45-2.12 14.53 2.344 14.01 11.14-.46 7.674-1.94 15.319-3.43 22.889-4.36 22.203-8.94 44.362-13.67 67.775 15.43-4.256 30.04-8.288 44.73-12.334-4.83-10.975-9.4-21.352-13.96-31.715-.66-1.493-1.42-2.956-1.9-4.494-2.06-6.54 1.18-12.259 7.94-13.334 10.97-1.762 22.01-3.076 33-4.718 4.69-.702 9.31-1.807 13.97-2.688 6.17-1.18 10.5 1.299 11.83 7.466.74 3.509 1 7.331.49 10.87-4.03 27.773-8.3 55.516-12.52 83.273-.76 4.943-1.73 9.855-2.58 14.783-.83 4.927-4.12 8.182-10.02 9.227-8.54 1.523-17.19 2.434-25.68 4.181-26.54 5.435-53.07 11.02-79.54 16.828-5.1 1.12-9.95 3.464-14.87 5.345-2.27.867-4.4 2.136-6.69 2.972-10.54 3.897-18.97-.657-20.69-11.811-2.27-14.812-2.64-29.714.75-44.481.36-1.568.7-3.136 1.24-5.57-5.55.717-10.63 1.15-15.57 2.195-.94.194-1.7 2.748-1.99 4.316-5.32 28.384-10.4 56.829-15.91 85.169-1.34 6.869-3.74 13.588-6.28 20.128-1.22 3.165-3.52 6.167-6.01 8.526-4.33 4.106-10.42 3.091-12.82-2.389-1.5-3.435-2.37-7.705-1.88-11.363 1.52-11.139 3.85-22.159 5.84-33.238 4.64-25.891 9.44-51.767 13.81-77.704 1.4-8.302 5.73-13.304 13.38-16.275 10.49-4.076 21.29-3.419 32.13-2.747 3.5.224 7.01.776 10.44 1.567 8.23 1.897 11.74 8.078 9.55 16.276-1.4 5.241-2.88 10.467-3.94 15.767-1.6 7.944-.99 15.873.63 23.682.5.119.82.299 1.02.209 20-8.287 41.41-9.183 62.44-12.184 17.17-2.449 34.27-5.331 51.37-8.272 1.33-.224 3.12-2.18 3.37-3.584 1.52-8.391 2.67-16.858 3.91-25.309a55791.7 55791.7 0 0 0 8.34-57.158c.18-1.194.25-2.389.48-4.524-10 2.135-19.52 4.181-29.35 6.286.49 1.986.67 3.33 1.14 4.554 3.62 9.482 7.22 18.963 11.02 28.37 1.72 4.271.46 8.078-4.07 9.915-4.9 1.986-9.89 3.703-14.86 5.51-14.38 5.226-28.78 10.407-43.15 15.648-5.19 1.896-10.44 3.837-15.41-.209-5.13-4.181-4.25-9.825-3.13-15.41 5.26-26.175 10.53-52.365 15.77-78.54.25-1.284.38-2.583.64-4.3-9.97 3.434-19.38 6.69-29.21 10.079 2.22 2.508 4.46 4.659 6.25 7.137 2.68 3.718 5.61 7.406 7.44 11.542 2.7 6.077.08 11.916-6.07 14.29-14.38 5.584-28.87 10.915-43.3 16.41-6.32 2.404-12.65 4.822-18.87 7.495-12.26 5.301-21.66-1.09-19.51-14.259 2.99-18.441 7.1-36.717 10.75-55.053.29-1.687.72-3.375 1.33-6.062ZM520.345-131.103c3.909-2.374 8.086-4.389 11.652-7.197 7.027-5.539 13.726-11.467 20.514-17.305 9.086-7.809 18.605-14.962 29.958-19.217 5.908-2.225 11.861-2.942 17.754.015 6.744 3.389 9.952 9.332 11.518 16.365 2.208 9.855.463 19.545-2.118 28.952-5.058 18.426-10.877 36.642-16.113 55.023-5.103 17.918-8.445 36.209-9.623 54.799-.403 6.42.029 13.035 1.133 19.38 1.418 8.198 6.326 13.947 14.666 16.261 1.179.329 2.253 1 3.312 2.076-4.087 2.643-8.429 3.524-12.979 2.762-8.43-1.389-14.174-6.51-17.934-13.901-5.386-10.602-7.579-22.04-7.638-33.835-.09-21.65 4.147-42.6 10.965-63.056 4.163-12.468 8.877-24.771 12.891-37.284 2.103-6.555 3.282-13.394 4.834-20.128.238-1.045.253-2.165.253-3.24-.044-6.704-1.551-7.959-7.191-4.539-8.191 4.972-16.053 10.541-23.811 16.171-7.564 5.494-14.517 11.84-22.305 16.962-4.998 3.285-10.817 5.719-16.605 7.287-9.161 2.478-16.262-1.957-19.291-11.02-2.805-8.392-2.014-16.888-.239-25.324 3.566-17.022 11.548-32.103 21.156-46.332 7.654-11.348 16.337-22.01 23.826-33.462 10.877-16.604 13.294-35.209 10.847-54.59-.597-4.703-2.462-8.466-7.117-11.019-5.729-3.136-7.594-8.795-5.624-13.782 1.999-5.092 7.385-7.526 13.949-6.286.672.119 1.343.239 1.985.463 38.88 13.677 72.687 33.969 93.097 71.641 6.684 12.349 11.503 25.429 15.039 39.001.238.896.537 1.777 1.238 4.107 1-1.658 1.447-2.613 2.089-3.405 16.322-19.784 35.747-35.477 59.588-45.362 37.299-15.469 74.582-30.968 111.881-46.422 13.084-5.42 25.99-11.124 35.822-21.8 3.013-3.27 5.803-6.839 8.101-10.631 2.865-4.734 1.94-8.482-3.118-10.706-4.357-1.927-9.295-3.45-13.98-3.464-12.651-.03-25.109 1.582-36.672 7.51-1.641.851-4.744 1.09-5.878.105-1.208-1.046-1.775-4.271-1.059-5.824 1.223-2.687 3.193-5.778 5.669-7.018 16.829-8.331 34.39-12.333 53.009-6.674 2.924.896 5.759 2.464 8.28 4.226 9.519 6.644 12.712 16.992 6.983 27.071-4.148 7.301-9.773 13.961-15.636 20.053-8.459 8.809-19.142 14.677-30.286 19.455-29.392 12.603-58.903 24.921-88.324 37.464-11.711 5.002-23.483 9.914-34.896 15.573-24.289 12.035-43.565 29.714-57.246 53.216-2.134 3.674-3.178 8.004-4.685 12.035-.985 2.658-1.567 5.525-2.924 7.959-2.298 4.136-6.729 5.913-11.085 4.972-4.357-.926-7.729-4.345-8.161-9.019-.269-2.926 0-5.972.477-8.884 1.671-10.094 1-19.919-2.148-29.714-8.161-25.473-21.365-47.721-41.685-65.355-5.058-4.39-10.727-8.063-16.262-12.169-7.967 29.056-25.125 51.976-41.82 75.135-12.278 17.037-23.289 34.731-28.078 55.501-1.164 5.017-1.224 10.288-1.776 15.439.612.388 1.224.687 1.821.985Zm-.058 324.27c10.608-3.853 21.275-6.899 30.107-13.588 2.999-2.27 5.267-6.227 6.565-9.885 2.342-6.629 1.745-13.588.149-20.217-1.88-.239-3.566-.179-5.013-.702-3.581-1.299-6.057-3.822-6.102-7.794-.045-3.838 2.342-6.212 5.759-7.585 7.236-2.912 14.994.507 18.634 8.57 4.282 9.467 4.551 19.441 2.85 29.52-1.969 11.706-8.086 20.979-18.575 26.265-11.935 6.017-24.259 11.407-36.806 15.991-18.575 6.794-37.702 12.065-56.187 19.068-13.636 5.166-26.855 11.602-39.835 18.291-11.861 6.107-21.394 15.26-28.57 26.593-9.206 14.529-4.626 24.697 12.353 27.653 7.967 1.389 15.233-.059 20.648-6.495 1.119-1.329 1.582-4.002 1.119-5.734-1.507-5.689-.805-9.63 2.88-12.019 3.655-2.375 8.847-1.733 12.816 1.597 6.161 5.181 7.519 13.498 2.79 20.964-9.952 15.708-24.26 23.383-42.924 21.412-5.833-.612-11.801-2.24-17.142-4.659-16.904-7.66-24.065-26.115-17.083-43.286 6.386-15.723 17.844-27.43 31.286-37.195 18.5-13.438 39.208-22.502 60.946-29.236 13.07-4.046 26.228-7.794 39.343-11.691 1.521-.448 3.028-.971 4.476-1.449-6.311-16.678-5.177-34.208-8.236-51.663-2.268 1.284-4.148 2.255-5.938 3.36-5.983 3.718-11.786 7.749-17.933 11.169-11.757 6.555-24.274 8.197-37.344 4.763-18.455-4.868-24.542-20.949-13.904-36.836 6.325-9.452 15.083-16.261 24.721-21.994 15.561-9.258 32.659-14.499 50.144-18.516 20.246-4.658 40.716-7.868 61.483-8.899 15.368-.761 30.6.433 45.654 3.718 1.164.254 2.327.433 3.924.717.313-7.436.567-14.573.94-21.71.209-4.196.298-8.422.999-12.543 1.089-6.301 5.789-10.213 11.429-10.139 5.744.09 10.324 4.42 11.338 10.81.284 1.733.567 3.51.523 5.257-.627 27.37-1.149 54.754-2.179 82.108-.149 3.897-2.327 8.034-4.505 11.468-2.208 3.494-6.117 4.927-10.369 4.002-4.282-.926-6.848-3.838-7.803-7.974-.672-2.882-1.015-5.898-1.059-8.854-.105-9.9-.135-19.8.119-29.699.089-3.315-.895-4.301-4.192-4.644-29.272-3.12-57.948.657-86.19 7.988-14.263 3.703-28.302 8.422-42.148 13.454-10.607 3.852-20.096 10.034-28.72 17.44-1.402 1.209-3.103 2.06-4.311 3.539 6.743 3.553 12.89 3.628 18.768 1 5.162-2.314 9.981-5.405 14.965-8.138 6.057-3.3 11.89-7.137 18.246-9.735 10.265-4.211 18.023-.194 19.962 10.751 1.91 10.78 2.447 21.8 3.626 32.7.671 6.181 1.372 12.378 2.163 18.545.149 1.299.791 2.523 1.343 4.166Z"/><path d="M1614.03 160.361c-.67 9.84-1.59 20.666-2.09 31.491-.31 6.898-.24 13.841.15 20.725.61 10.736-2.73 16.858-13.23 19.187-11.19 2.479-22.69 3.733-34.12 5.002-41.28 4.584-82.88 3.225-124.25 5.853-36.64 2.329-73.18 6.062-109.78 9.213-9.31.806-18.6 1.986-27.93 2.568-5.1.314-10.34.224-15.37-.597-11.72-1.941-16.42-10.96-11.29-21.636 4.94-10.258 10.44-20.232 15.62-30.371 2.09-4.106 4.27-8.212 5.85-12.527 1.18-3.21 1.97-6.749 2.04-10.154.21-9.302 3.6-15.11 12.69-16.813 18.35-3.434 36.8-6.779 55.36-8.6 33.85-3.345 67.88-4.883 101.69-8.451 27.2-2.867 54.19-7.675 81.3-11.513 10.99-1.553 22.03-2.881 33.07-4.151 21.15-2.433 30.23 5.674 30.31 26.937-.02.956-.02 1.896-.02 3.837Zm-23.53 50.394c-1.03-17.977-2.15-35.149-2.92-52.335-.16-3.807-1.28-5.33-5.13-5.196-12.86.448-25.78.105-38.58 1.18-43.21 3.628-86.39 7.54-129.54 11.721-29.39 2.852-58.72 6.376-88.09 9.511-2.81.299-4.12 1.046-4.6 4.241-.67 4.509-1.91 9.078-3.74 13.244-4.51 10.303-9.49 20.382-14.27 30.565a384.15 384.15 0 0 0-2.22 4.838c2.4-.179 4.13-.314 5.86-.448 19.44-1.523 38.88-3.315 58.34-4.495 37.03-2.269 74.19-.253 111.24-3.867 29.24-2.852 58.65-3.972 87.96-6.062 8.63-.612 17.19-1.911 25.69-2.897ZM1185.56 21.17c-1.27 3.508-2.24 6.913-3.68 10.108-7.14 15.693-22.32 23.786-37.2 19.904-8.32-2.18-14.32-7.481-18.86-14.559-6.02-9.391-9.32-19.814-11.34-30.714-.19-1.03-.41-2.045-.74-3.613-1.58.97-2.78 1.762-4.03 2.449-7.85 4.255-15.4 9.302-23.63 12.572-32.08 12.722-62.28-4.435-68.44-38.419-2.74-15.125-.82-29.699 5.22-43.78 6.09-14.17 14.89-26.428 26.1-36.955 15.07-14.155 31.67-26.339 48.98-37.597 5.03-3.27 9.34-3.33 12.83-.568 3.22 2.554 4.55 7.974 3.12 12.707-1.31 4.285-4.85 5.689-8.49 3.061-1.69-1.224-2.82-1.523-4.6-.314-33 22.323-55.33 51.544-59.84 92.337-.28 2.553-.27 5.136-.34 7.72-.64 23.397 22.11 33.193 37.54 27.713 5.53-1.971 10.92-4.823 15.77-8.153 5.67-3.897 10.98-8.451 15.83-13.334 3.34-3.36 5.63-7.764 8.34-11.751.83-1.224 1.32-2.688 2.17-3.897 3.66-5.241 9.88-6.913 14.98-4.091 4.94 2.717 7.09 8.794 4.52 14.498-6.86 15.2-4.58 30.162.81 45.049 1.04 2.867 2.71 5.674 4.68 8.003 5.09 6.032 13.55 5.838 17.53-.94 2.44-4.137 3.75-9.318 4.18-14.156.66-7.257-.03-14.633.12-21.95.11-5.24 3.16-9.197 7.54-10.481 4.49-1.314 9.1.284 12.21 4.375.99 1.284 1.75 2.732 2.57 4.136 1.57 2.702 2.72 5.734 4.7 8.063 4.98 5.838 9.79 12.065 15.68 16.858 9.31 7.585 19.56 6.465 28.26-1.777 18.51-17.56 23.75-42.466 13.77-65.953-16.76-39.39-52.22-57.292-88.19-54.366-18.83 1.523-31.11 12.96-39.04 29.326-3.47 7.122-1.6 12.154 4.95 16.828.22.164.46.283.67.463 2.33 1.926 5.82 3.419 4.43 7.301-1.28 3.569-4.7 4.24-8.04 4.36-6.82.254-12.13-2.553-15.68-8.361-5.06-8.258-6.25-17.202-2.67-26.146 7-17.47 17.68-32.058 35.15-40.434 9.4-4.51 19.62-5.286 29.84-4.45 34.92 2.852 61.99 19.008 80.55 48.826 9.07 14.573 16.72 29.953 18.57 47.318 2.88 27.086-8.67 47.87-30.34 62.922-14.43 10.019-29.75 8.54-44.3-.777-4.19-2.672-7.92-6.062-12.16-9.362ZM716.657 420.006c-1.014 2.628-1.611 3.987-2.059 5.391-8.966 27.728-28.571 42.928-56.634 48.094-15.412 2.837-30.794 2.374-46.012-1.329-29.451-7.182-45.236-29.923-41.908-60.069 3.386-30.655 22.185-53.5 50.233-61.026 7.43-1.986 14.92-2.673 22.529-1.045 20.589 4.375 32.435 23.935 26.407 44.242-3.894 13.095-12.025 23.084-24.438 28.953-3.625 1.702-8.071 2.359-12.115 2.269-5.221-.104-9.384-4.181-10.413-8.869-1.179-5.346.597-9.736 4.983-12.826 5.087-3.584 10.846-5.032 16.978-3.405 2.268.612 3.76.209 4.685-1.717 1.522-3.136 3.461-6.271 4.058-9.616 1.731-9.885-4.923-17.261-14.785-15.708-27.616 4.345-43.61 25.22-42.252 51.514.507 9.706 5.759 17.365 13.935 22.786 19.305 12.811 50.04 13.065 69.077-.045 4.535-3.121 8.549-7.66 11.398-12.393 6.296-10.408 8.624-22.189 8.818-34.283.044-2.554-.985-5.316-2.149-7.66-2.909-5.809-6.49-11.303-9.265-17.186-4.923-10.467-1.969-21.114 6.789-25.981 8.966-4.987 20.186-2.046 25.751 8.272 20.26 37.612 47.772 70.462 69.569 107.074 8.28 13.916 16.307 27.862 21.559 43.212 1.298 3.823 2.432 7.824 2.745 11.826.582 7.167-5.878 11.273-11.921 7.421-3.655-2.33-6.848-5.764-9.503-9.258-15.233-20.083-30.063-40.494-45.4-60.502-9.236-12.05-19.142-23.563-28.75-35.329-.508-.627-.91-1.328-1.91-2.807ZM1161.25 284.95c6.6 0 12.4.135 18.21-.119 1.09-.045 2.83-1.583 3.03-2.643 2.95-16.41 5.78-32.834 8.42-49.304 1.23-7.63 4.56-12.124 10.02-12.528 5.5-.403 9.95 3.823 11.48 11.572 2.03 10.169.69 20.307-1.4 30.282-1.82 8.615-4.09 17.141-6.38 25.652-.74 2.703-1.93 5.405-3.47 7.75-3.23 4.957-8.51 6.077-13.93 3.732-1.88-.821-4.15-1.209-6.21-1.105-30.82 1.434-61.24 5.45-91.05 13.842-5.19 1.463-11.07 1.896-16.38 1.12-9.06-1.314-11.61-9.541-5.84-16.738 3.73-4.659 8.76-7.586 14.43-8.526 12.13-2.016 24.35-3.629 36.58-4.883 6.14-.627 12.4-.104 18.64-.104.58-10.333 1.13-20.292 1.7-30.58-1.46 0-3.04-.164-4.58.03-25.98 3.09-51.95 6.166-77.9 9.436-2.37.299-4.9 1.464-6.8 2.942-9.14 7.107-19.02 12.498-30.58 14.349-19.623 3.151-31.305-4.823-35.527-24.204-.164-.776-.328-1.568-.597-2.837-2.059.448-3.983.821-5.878 1.269-12.95 3.076-25.93 5.973-39.387 3.838-.806-.135-1.612-.194-2.417-.344-22.767-4.285-32.047-23.651-21.171-44.167 4.222-7.974 10.563-13.678 18.634-17.515 9.4-4.465 19.351-7.257 29.705-7.854 4.297-.254 8.967.702 12.98 2.314 2.715 1.09 5.281 3.927 6.699 6.615 2.432 4.644-.761 9.004-5.923 8.526-11.742-1.09-22.006 2.882-31.137 9.601-3.536 2.598-6.356 6.63-8.474 10.557-2.343 4.345-1.075 6.853 3.655 8.451 4.595 1.553 9.384 3.255 14.144 3.419 9.026.329 18.082-.239 27.108-.821 1.656-.105 3.611-1.717 4.7-3.181 2.626-3.493 5.639-6.211 10.011-7.152 4.625-.985 9.265.792 11.835 4.51 2.61 3.792 2.71 8.6-.35 12.542-3.92 5.062-3.7 10.542-2.35 16.246.95 4.016 3.8 6.435 7.69 5.569 4.66-1.03 9.67-2.389 13.39-5.136 5.02-3.718 9.25-8.676 13.3-13.513 2.87-3.42 5.73-5.764 10.42-6.078 19.72-1.328 39.45-2.732 59.14-4.419 9.58-.822 19.08-2.524 28.66-3.345 3.68-.314 4.65-1.777 5.13-5.121 1.54-10.602 3.37-21.158 5.21-31.715.34-1.986.98-3.972 1.85-5.779 2.46-5.181 7.37-8.048 12.77-7.689 5.54.373 10.4 4.016 11.77 9.66.88 3.629 1.17 7.526 1.02 11.274-1.08 26.563-6.02 52.499-13.36 78.002-.31 1.001-.59 2.016-1.24 4.3ZM565.252 589.225c-32.241-1.239-64.467-2.359-96.693-3.793-7.818-.343-15.785-1-23.319-2.941-5.729-1.463-11.324-4.554-16.158-8.048-7.086-5.137-8.489-11.99-5.52-20.292 3.074-8.586 9.205-14.723 17.396-17.813 10.593-3.987 21.514-7.511 32.584-9.721 44.416-8.854 89.338-10.303 134.395-7.018 28.108 2.046 56.142 4.928 84.205 7.556 16.173 1.508 32.346 3.076 48.474 4.957 3.953.463 8.011 1.747 11.547 3.583 8.37 4.346 12.1 11.826 12.085 21.069-.03 8.899-5.073 14.663-12.816 18.157-11.339 5.121-23.379 7.6-35.627 9.436-50.011 7.526-100.274 6.749-150.553 4.868Zm175.319-32.192a64.32 64.32 0 0 1 .194-1.747c-2.641-1.449-5.162-3.24-7.967-4.271-12.652-4.599-25.498-7.316-39.194-7.63-28.72-.642-57.395-2.807-86.1-4.016-43.848-1.867-87.577-.508-130.918 6.794-9.922 1.672-19.619 4.972-29.227 8.092-2.895.941-5.148 3.793-7.699 5.779.149.493.314 1 .463 1.493 2.73 1.045 5.371 2.494 8.191 3.046 4.237.851 8.578 1.404 12.89 1.523 27.497.747 55.038.792 82.505 2.091 57.812 2.747 115.431 1.299 172.841-6.227 8.072-1.03 16.009-3.24 24.021-4.927ZM70.09 509.819c4.61-13.289 11.832-24.622 19.903-35.597 13.144-17.858 31.212-27.728 52.114-33.014 3.924-.985 8.34-.582 12.443-.119 2.282.269 4.401 1.986 7.743 3.628-5.476 3.33-9.534 6.257-13.965 8.407-16.471 8.003-29.451 19.754-40.506 34.342-9.22 12.155-18.62 23.966-23.185 38.837-1.134 3.703-4.013 4.644-7.922 4.823-11.831.523-18.65-6.405-24.632-15.17-13.084-19.202-16.233-40.091-11.07-62.534 5.117-22.248 16.44-41.181 31.211-58.188 14.8-17.052 31.525-32.132 49.025-46.288 26.766-21.65 53.86-42.883 80.715-64.429 22.439-17.993 42.416-38.315 58.007-62.683 2.849-4.449 5.505-8.869 4.968-14.678-.149-1.672 1.939-4.524 3.61-5.121 1.895-.672 5.58-.194 6.55 1.165 2.238 3.15 4.55 7.137 4.58 10.795.045 5.689-.925 11.707-2.954 17.022-7.087 18.545-17.441 34.955-31.748 49.095-21.47 21.203-45.371 39.494-68.451 58.771-19.962 16.693-40.282 32.954-59.991 49.946-15.606 13.453-28.466 29.385-38.671 47.362-10.981 19.352-14.592 40.062-11.19 62.011.388 2.539 1.134 5.017 1.82 7.496.433 1.403 1.075 2.747 1.597 4.121Zm1474.97 5.913c-3.67.523-6.3.777-8.86 1.299-5.18 1.061-10.3 2.36-15.49 3.345-2.24.418-4.61.552-6.86.343-9.93-.94-15.64-9.705-12.18-19.052 1.24-3.36 3.22-6.645 5.58-9.332 5-5.704 10.4-11.05 15.77-16.41 1.79-1.777 4-3.136 6.01-4.689-.34-.507-.68-1.015-1.01-1.523-3.54-.582-7.21-.746-10.58-1.836-5.88-1.897-12.02-3.614-17.27-6.749-10.3-6.152-12.22-17.485-5.51-27.459.76-1.12 1.58-2.21 2.49-3.211 9.15-9.884 20.75-15.573 33.51-18.933 6.74-1.777 12.14 3.419 11.12 9.974-.74 4.659-3.85 6.72-8.4 5.63-.81-.195-2.12-.374-2.5.059-5.41 6.331-10.71 12.767-16.74 19.994 4 1.761 6.73 3.165 9.6 4.18 3.7 1.314 7.61 2.046 11.25 3.479 9.07 3.569 12.2 10.617 8.41 19.635-1.76 4.196-4.47 8.019-6.98 11.871-2.81 4.3-5.85 8.451-9.31 13.409 2.12.104 3.49.074 4.86.253 4.69.583 9.52.672 13.98 2.001 7.81 2.33 11.52 8.929 9.57 16.828-1.26 5.092-3.57 9.915-5.37 14.857-1.82 5.017-3.6 10.049-5.41 15.081.3.224.6.463.9.687 1.66-.792 3.31-1.583 4.95-2.389 7.95-3.912 16.1-7.167 25.02-8.004 1.75-.164 3.52-.283 5.28-.224 11.27.359 16.56 6.54 15.13 17.724-.37 2.897-1.12 5.749-1.8 9.198 3.55-1.344 6.55-2.449 9.55-3.599 7.63-2.911 14.47-1.463 20.18 4.271 4.3 4.315 8.22 9.004 12.33 13.528 4.16 4.599 7.11 5.301 12.53 2.299 2.94-1.627 5.77-3.613 8.22-5.898 12.1-11.348 21.99-24.443 28.66-39.628 8.07-18.366 7.7-36.717-5.51-52.469-24.29-28.997-66.45-20.785-83.1 8.107-5.97 10.348-2.19 24.623 8.33 32.521 3.22 2.419 6.98 4.107 10.43 6.242.82.507 1.37 1.433 2.05 2.165-.98.433-1.95 1.209-2.95 1.254-28.15 1.254-47.94-26.847-37.28-53.261 7.47-18.5 22.42-28.176 41.2-32.058 42.63-8.824 78.72 16.634 85.21 60.219 4.88 32.67-4.85 59.935-32.54 79.137-6.98 4.853-15.26 8.272-23.41 10.93-11.37 3.718-21.81.583-30.14-8.018-3.53-3.658-6.49-7.988-9.2-12.319-1.57-2.478-3.15-3.15-5.63-2.105-1.74.732-3.41 1.628-5.1 2.509-2.04 1.06-3.98 2.344-6.1 3.225-9.86 4.136-19.1-1.389-19.74-12.065-.25-4.24.49-8.556.81-13.155-4.87 1.673-9.76 3.554-14.76 5.032-5.18 1.523-10.41 3.211-15.74 3.838-9.44 1.12-15.31-5.062-13.35-14.394 1.13-5.465 3.73-10.691 6.12-15.813 2.11-4.524 4.95-8.705 7.25-13.169 1.04-1.986 1.47-4.226 2.52-7.362Z"/><path d="M547.753 363.655c0 2.075-.015 3.658 0 5.241.478 34.477-.164 68.909-3.491 103.251-.552 5.659-1.104 11.408-2.596 16.843-1.074 3.912-3.088 7.959-5.759 10.975-5.565 6.241-15.009 4.449-17.739-3.449-1.447-4.181-1.895-9.153-1.253-13.528 7.564-51.171 9.071-102.64 8.399-154.243-.044-3.255-.567-6.495-.582-9.736-.044-6.554 3.924-11.392 9.698-12.169 5.595-.746 10.668 2.718 12.324 8.929 1.327 4.973 1.85 10.154 3.237 15.096 1.194 4.271 2.865 8.466 4.774 12.468 1.776 3.733 5.162 4.987 9.221 4.315 7.161-1.194 11.681-5.345 13.561-12.333 2.552-9.452.955-18.859-.417-28.251-.776-5.36-1.955-10.721-2.089-16.111-.269-11.841 6.37-19.112 18.187-19.441 30.197-.866 59.484-6.45 88.039-16.096 10.384-3.509 20.007-8.347 27.78-16.32 11.936-12.214 11.697-26.25-1.119-37.598-14.949-13.244-32.166-15.782-50.905-9.675-1.238.403-2.387 1.134-3.998 1.926.94 1.567 1.73 2.777 2.402 4.046 2.208 4.196.94 6.645-3.79 7.451-11.667 2.001-21.006-9.646-16.844-21.039 1.806-4.927 5.177-8.66 9.653-11.183 38.671-21.756 80.804 3.359 89.099 33.327 3.596 12.975 1.567 25.025-6.43 35.895-8.191 11.139-19.187 18.695-31.823 23.861-23.17 9.467-47.235 15.842-71.852 20.247-8.266 1.478-16.546 2.972-24.841 4.256-3.014.463-4.118 1.762-3.894 4.837.567 7.571 1.342 15.171 1.193 22.741-.134 7.003-.552 14.17-2.238 20.919-5.326 21.576-28.332 30.864-45.907 24.548Zm971.007-11.961c4.73-1.03 9.41-2.479 14.2-3.016 10.06-1.135 20.19-2.703 30.24-2.404 13.25.403 18.93 7.466 17.16 20.635-1.88 13.946-4.63 27.803-7.42 41.615-1.92 9.556-4.49 18.978-6.87 28.429-.6 2.33-1.27 4.898-4.45 5.047-3.31.149-5.73-1.657-6.52-4.509-1-3.569-2.01-7.556-1.43-11.094 2.49-15.231 5.53-30.371 8.47-45.512 1.09-5.584 2.6-11.094 3.61-16.678.97-5.331.44-6.077-5.08-5.659-5.11.388-10.21 1.254-15.18 2.478-8.8 2.15-17.48 4.853-26.29 7.063-2.98.746-6.19 1.165-9.25 1-10.2-.567-16.05-8.839-12.66-18.47 1.77-5.032 4.55-9.855 7.56-14.304 7.15-10.557 14.82-20.74 22.04-31.237 3.68-5.346 6.97-10.99 10.2-16.634 2.06-3.613 1.54-5.122-2.59-5.51-6.7-.627-13.59-1.284-20.2-.403-30.26 4.032-57.92 14.857-82.17 33.656-4.34 3.359-8.01 7.63-11.72 11.721-2.57 2.822-2.28 5.659 1.25 7.705 8.4 4.882 16.8 9.765 25.68 14.916 1.18-3.21 1.86-5.644 2.94-7.913 2.13-4.51 4.07-9.198 6.83-13.304 2.85-4.241 7.62-5.226 11.47-3.375 3.87 1.867 5.33 5.898 4.15 11.154-7.86 35.044-15.69 70.104-23.51 105.163-1.06 4.748-1.61 9.661-3.09 14.274-.63 1.971-2.96 4.629-4.64 4.734-2.24.134-5.83-1.359-6.68-3.166-1.9-4.031-3.6-8.75-3.36-13.065.76-13.364 1.98-26.757 3.92-40.001 1.75-11.916 4.7-23.652 7.12-35.478.24-1.15.4-2.314.58-3.3-6.46-1.134-12.71-1.702-18.63-3.419-6.46-1.866-12.95-4.166-18.86-7.361-13.21-7.152-17.46-20.009-11.95-34.014 3.46-8.81 9.23-15.887 16.35-21.965 16.4-14.05 35.81-22.337 56.11-28.638 21.19-6.57 42.8-9.93 64.95-5.659 5.13.985 10.32 2.568 14.96 4.882 8.98 4.495 12.08 12.752 8.85 22.263-1.26 3.688-2.93 7.361-5.03 10.616-9.13 14.111-18.49 28.072-27.77 42.078-1.25 1.896-2.53 3.777-3.82 5.674.18.313.36.657.53.985ZM884.592-1.557c-1.134-11.02-2.179-21.247-3.253-31.475-.985-9.303-2.238-18.59-2.924-27.907-.895-12.2 4.729-18.053 16.948-17.814 7.296.15 14.577.822 21.872 1.27.537.03 1.075.074 1.612.03 8.37-.717 12.234 1.149 14.263 9.57 3.491 14.454 6.654 29.072 8.683 43.795 2.387 17.305 3.536 34.79 4.968 52.215.492 5.928.403 11.93.224 17.873-.179 6.063-3.312 9.601-9.34 10.378-4.685.612-9.444.657-14.173.791-17.605.508-35.225.926-52.83 1.463-1.238.045-2.775.478-3.64 1.3-10.981 10.526-24.155 17.888-36.941 25.771-7.012 4.33-14.173 8.571-21.693 11.93-9.772 4.361-19.932 5.376-29.615-.701-8.176-5.137-12.159-13.11-13.338-22.308-2.611-20.247 3.118-38.434 14.905-54.754 12.129-16.798 28.003-28.355 48.771-31.76 13.532-2.224 26.706.718 39.611 4.779 5.028 1.568 9.937 3.464 15.89 5.554Zm27.511-62.04c-2.715 1-4.685 1.97-6.773 2.434-3.253.716-4.148 2.329-3.924 5.718.686 10.408.716 20.86 1.372 31.282a820.838 820.838 0 0 0 2.91 34.79c.388 3.644.373 6.764-2.671 9.153-3.058 2.404-6.191 1.658-9.578.419-11.936-4.375-23.797-9.094-36.001-12.588-18.201-5.226-35.195-2.404-49.846 10.363-10.593 9.227-17.038 20.934-20.186 34.492-1.701 7.286-2.82 14.677-.611 22.113 1.611 5.42 4.207 7.168 9.682 6.003 3.283-.702 6.639-1.702 9.549-3.315 13.01-7.242 26.004-14.528 38.701-22.308 3.551-2.165 6.564-5.719 8.892-9.242 3.282-4.943 7.355-7.406 13.189-7.033 2.7.18 5.4.448 8.101.642 17.56 1.224 35.12 2.479 52.68 3.613 2.477.165 4.998-.239 7.923-.403-.582-1.463-.761-2.27-1.194-2.897-4.282-6.166-6.505-13.11-7.37-20.456-1.074-9.153-1.567-18.38-2.85-27.489-2.64-18.56-2.7-37.732-11.995-55.291Zm422.157 82.885c3.99-1.254 8-2.433 11.95-3.792 9.1-3.121 18.16-6.391 27.26-9.497 3.07-1.045 6.19-2.03 9.37-2.643 13.64-2.628 23.44 3.972 24.42 17.829.72 10.049-.64 20.262-1.04 30.4-.21 5.286-.34 10.572-.54 15.843-.64 17.484 17.73 29.713 33.27 25.742 7.06-1.807 13.07-5.032 18-10.423 2.46-2.702 4.93-5.42 7.69-7.794 2.41-2.06 5.39-2.971 8.16-.642 2.72 2.27 2.38 5.27 1.06 8.183-.55 1.224-1.28 2.389-2.06 3.494-10.81 15.319-36.79 25.159-55.02 20.859-20.56-4.853-31.72-18.067-32.28-39.18-.24-9.049.76-18.142 1.09-27.206.14-3.882.03-7.794.03-12.244-2.74.762-5.26 1.21-7.57 2.15-9.14 3.748-18.2 7.75-27.36 11.453-5.64 2.27-11.4 4.27-17.17 6.182-1.9.627-4.02.716-6.03.746-15.19.284-24.66-11.109-20.59-25.712 3.16-11.333 7.31-22.412 11.47-33.447 6.18-16.35 12.83-32.52 19.1-48.84 1.45-3.778 2.24-7.81 3.25-11.737.88-3.42-.33-5.24-4.04-5.017-13.98.851-25.42 7.018-34.93 16.992-.7.732-.52 2.673-.22 3.942.63 2.748 1.97 5.376 2.33 8.138.49 3.897-1.73 6.122-5.57 5.51-7.68-1.225-14.44-4.405-17.77-11.93-3.15-7.123-1.07-13.857 4.11-19.113 15.47-15.693 34.46-22.71 56.36-20.546 11.15 1.105 18.31 9.108 18.34 20.337.03 7.346-.96 14.976-3.09 21.994-4.57 15.021-10.25 29.714-15.34 44.57-2.79 8.138-5.31 16.366-7.95 24.563.46.254.88.538 1.31.836ZM154.312-32.48c-4.208 3.3-7.818 6.316-11.637 9.063-4.059 2.927-8.117 5.988-12.533 8.258-11.264 5.778-21.961 1.91-27.347-9.601-3.655-7.795-4.372-16.201-4.431-24.637-.135-23.144 2.834-45.99 6.982-68.716 3.059-16.812 6.236-33.596 9.34-50.394 1.223-6.599 5.729-10.885 11.682-11.019 5.923-.134 11.264 3.852 12.278 10.303.746 4.748.791 9.795.06 14.543-3.849 24.786-8.191 49.498-12.07 74.27-1.716 10.974-2.849 22.053-4.043 33.103-.373 3.554-.06 7.182-.06 11.751 2.268-1.478 3.656-2.255 4.909-3.21 6.878-5.286 13.666-10.691 20.589-15.917 3.774-2.852 7.609-5.704 11.682-8.108 9.533-5.63 19.619-.448 20.141 10.601.358 7.69-.388 15.44-.657 23.16a273944.1 273944.1 0 0 1-4.043 112.628c-.253 7.077-.791 14.095-4.192 20.531-2.671 5.047-5.222 5.256-8.504.567-5.192-7.42-5.938-16.17-7.117-24.756-4.64-33.79-3.521-67.655-1.268-101.52a593.7 593.7 0 0 0 .522-8.93c0-.387-.119-.79-.283-1.97ZM1836.3-70.749c-3.7-13.409-7.98-26.533-10.83-39.957-2.85-13.468-4.25-27.235-6.35-41.301-.9.643-1.54 1.046-2.09 1.523-9.78 8.646-21.37 8.347-30.39-1.194-7.3-7.72-12.46-16.977-14.97-27.175-3.09-12.603-4.79-25.548-7.29-38.3-2.12-10.766-4.55-21.471-6.82-32.207-.54-2.509-1.27-5.017-1.4-7.556-.21-3.643 1.32-6.644 4.61-8.436 3.25-1.777 6.96-1.881 9.56.553 3.06 2.896 6.4 6.331 7.62 10.183 3.37 10.542 6.28 21.307 8.28 32.192 2.72 14.783 3.78 29.893 9.18 44.108 1.68 4.42 3.74 8.705 5.85 12.931 1.46 2.941 3.61 3.195 5.55.403 3.46-5.017 6.85-10.079 10.11-15.23 2.99-4.689 5.85-9.691 12.58-8.018 6.58 1.642 7.31 7.376 7.85 12.856 2.31 23.89 4.41 47.795 6.82 71.686 1.28 12.752 4.86 24.98 9.93 36.746 2.33 5.406.24 9.885-6.09 11.065-9.44 1.777-18.99 3.06-28.51 4.464-17.97 2.643-35.97 5.301-53.14 11.513-6.46 2.344-12.74 5.375-18.75 8.705-7.79 4.3-13.61 10.72-17.29 18.888-3.17 7.003-6.12 14.095-9.4 21.039-.36.761-2.84 1.493-3.33 1.06-2-1.732-4.07-3.658-5.27-5.958-3.52-6.794-3.62-14.14-2.13-21.442.94-4.628 2.43-9.168 3.94-13.662 5.06-15.021 15.38-25.22 30.52-28.982 14.27-3.539 28.95-5.764 43.58-7.376 15.34-1.688 30.83-1.971 46.25-2.882.9-.075 1.79-.224 1.82-.239Zm-31.93 630.156c2.26-2.658 4.35-5.465 6.79-7.928 2.66-2.673 5.36-5.48 8.55-7.377 5.66-3.389 10.94-1.403 13.77 4.525.35.731.76 1.478.9 2.254 1.47 8.317 7.25 11.722 14.8 13.543 7.04 1.702 13.99 1.478 20.94 0 4.67-1 5.99-3.121 5.35-7.958-1.11-8.362-6.26-14.29-13.01-18.262-6.48-3.792-13.77-6.196-20.73-9.153-2.35-1-4.94-1.567-7.17-2.762-3.79-2.031-5.58-6.032-4.9-9.9.73-4.091 3.96-7.047 8.4-7.704 26.93-4.002 53.83-8.123 79.91-16.291.37-.119.79-.059 1.76-.104v15.051c-16.3 3.688-32.49 7.331-49.22 11.109 1.81 1.344 3.3 2.419 4.73 3.524 12.95 9.989 18.14 26.488 12.83 40.554-1.86 4.927-5.01 8.735-9.72 10.99-16.01 7.645-31.68 5.987-46.55-2.867-3.51-2.091-5.81-6.182-9.04-9.78-3.42 3.837-7.33 8.033-11.01 12.423-3.32 3.941-6.29 8.182-9.58 12.124-1.72 2.061-3.61 4.151-5.84 5.555-5.43 3.449-11.86.791-13.38-5.48-.6-2.449-.6-5.107-.52-7.645.61-18.023 5.82-34.925 12.49-51.499 4.1-10.169 8.14-20.382 11.86-30.685.8-2.239.13-5.002.15-7.525-2.35.926-5.03 1.389-6.99 2.837-9.05 6.689-16.12 15.096-21.78 24.906-16.9 29.355-22.86 61.204-22.21 94.636.03 1.463.55 2.926.58 4.39.04 1.792.46 4.315-.49 5.226-1.17 1.105-4.27 1.807-5.39 1.015-2.76-1.941-5.62-4.435-7.09-7.376-6.53-13.095-8.19-27.146-6.64-41.599 2.79-25.921 12.54-49.274 26.72-70.88 7.6-11.542 17.77-20.233 30.92-24.667 5.52-1.852 11.61-2.359 17.48-2.748 3.91-.254 5.85 2.972 6.81 6.466 2.5 9.287 2.07 18.575-.53 27.728-4.44 15.633-9.14 31.206-13.69 46.81-.4 1.374-.58 2.792-.85 4.196.19.119.39.224.59.328ZM694.307-26.626c.269-28.146 4.476-55.889 8.833-83.617a2845.759 2845.759 0 0 0 6.072-40.614c.746-5.3 2.775-9.675 7.713-12.139 17.217-8.616 34.628-16.813 53.456-21.277 4.745-1.12 9.907-.553 14.875-.732 1.209-.045 2.432.119 3.626-.015 7.459-.896 12.144 2.852 12.055 10.467-.06 6.346-.508 12.766-1.522 19.023-3.999 24.741-8.296 49.438-12.458 74.15-.284 1.717-.88 3.583-.522 5.196 1.089 4.883-1.209 7.764-4.745 10.691-15.247 12.587-30.704 24.98-45.295 38.3-7.639 6.972-13.607 15.752-20.44 23.621-2.297 2.643-4.595 5.465-7.444 7.376-5.67 3.808-10.996 1.762-12.175-4.972-1.238-7.033-1.417-14.26-2.014-21.397-.104-1.344-.015-2.702-.015-4.061Zm84.504-140.566c-15.158 5.42-29.57 10.512-43.908 15.813-1 .373-1.939 2.284-2.014 3.538-.537 8.228.075 16.634-1.358 24.682-4.401 24.802-9.578 49.484-14.427 74.21-1.283 6.51-2.477 13.035-3.775 19.949.94-.404 1.254-.433 1.418-.613 15.546-17.365 34.658-30.684 52.084-45.9 1.119-.985 2.073-2.896 2.044-4.344-.314-19.874 2.193-39.494 5.162-59.069 1.417-9.213 3.103-18.366 4.774-28.266Zm943.979 466.85c18.18.672 32.77 5.898 44.42 17.948 4.59 4.763 6.88 10.109 7.23 17.335.48 9.825-2.26 18.575-5.5 27.176-8.56 22.681-17.75 45.123-26.96 67.55-1.83 4.465-4.58 8.631-7.38 12.588-3.24 4.569-7 4.718-11.43 1.328-.97-.731-2.39-1.149-3.63-1.224-36.72-2.046-64.47-28.967-66.21-65.624-1.76-36.986 23.45-69.327 58.62-75.808 4.12-.731 8.32-.985 10.84-1.269Zm-.1 127.157c11.04-30.938 22.04-61.742 33.06-92.62-17.32-13.08-43.31-14.723-61.59 2.658-18.3 17.41-21.45 48.512-6.8 69.387 8.58 12.273 19.98 19.993 35.33 20.575Zm119.76 2.926c-11.49 3.136-22.53 6.301-33.67 9.108-3.09.777-6.48.852-9.69.657-11.96-.731-20.38-10.944-17.94-22.71 1.12-5.406 3.41-11.065 6.75-15.41 6.49-8.466 13.87-16.29 21.27-23.995 6.47-6.734 13.72-12.721 20.2-19.456 8.66-9.018 15.6-19.157 17.36-31.983 1.6-11.647-2.37-17.261-13.92-19.008-5.16-.776-10.72-2.389-15.02 2.897-.46.567-3.43-.06-4.49-1.001-4.96-4.404-3.39-11.571 3.13-14.453 7.58-3.36 15.56-3.449 23.56-2.046 14.23 2.509 22.94 12.005 24.66 26.384 1.24 10.393-.83 20.217-4.64 29.818-5.52 13.887-13.61 26.175-23.06 37.643-5.33 6.45-10.49 13.05-15.73 19.59.19.314.37.612.57.926 1.29-.418 2.61-.777 3.88-1.24 5.59-2.045 11.05-4.569 16.78-6.092 11.56-3.075 20.13 2.867 21.95 14.708.82 5.36 1.24 10.795 2.38 16.081 2.18 10.034 7.23 13.976 17.49 13.902 10.86-.075 21.2-2.569 30.97-7.377 1.3-.642 2.63-1.209 4.46-2.06 0 7.51.08 14.513-.09 21.501-.01.851-1.16 2.091-2.07 2.464-12.98 5.36-26.48 8.242-40.49 6.51-15.82-1.956-26.51-10.87-31.87-25.951-1.13-3.151-1.88-6.465-2.73-9.407ZM429.888-19.13c-1.686.641-3.043 1.104-4.356 1.672-34.434 14.946-68.853 29.952-103.317 44.84-7.341 3.165-14.83 5.972-22.32 8.794-6.102 2.3-10.429 1.642-12.711-1.598-2.372-3.36-1.477-8.795 2.536-13.423 6.4-7.377 14.114-13.23 22.931-17.231a567.663 567.663 0 0 1 35.27-14.648c26.019-9.795 52.054-19.5 76.641-32.596 3.775-2.016 7.43-4.48 10.623-7.331 8.832-7.869 21.543-5.122 25.408 6.092 1.283 3.733 1.626 8.003 1.447 11.99-1.015 22.293 1.343 44.123 7.624 65.58 1.223 4.195 1.924 8.899 1.372 13.169-1.298 9.9-12.264 13.752-19.679 7.078-2.655-2.39-4.714-5.6-6.519-8.735-7.908-13.812-10.966-29.087-12.965-44.63-.761-6.153-1.283-12.334-1.985-19.024ZM241.859 518.24c1.79 0 3.924-.612 5.297.134 2.491 1.359 3.908 3.494 3.192 6.944-4.222 20.62-26.183 40.151-47.265 41.076-17.172.762-29.465-7.854-37.88-22.203-6.833-11.647-9.205-24.637-8.788-37.956.687-21.77 8.042-41.375 20.858-58.86 6.117-8.347 14.188-14.125 24.736-15.693 7.326-1.075 10.668 1.448 15.352 7.137 4.506 5.465 4.775 11.497 5.55 17.769 2.373 19.142 5.476 38.12 14.084 55.679 1.179 2.404 2.686 4.644 4.044 6.958.298-.328.566-.656.82-.985Zm-9.906 13.349v-1.105c-13.771-4.629-19.769-15.678-22.887-28.475-2.133-8.764-3.387-17.843-4.133-26.846-.686-8.258-.149-16.619-.149-24.936l-1.88-.807c-3.356 3.733-7.116 7.183-9.966 11.274-4.744 6.794-6.594 14.767-7.877 22.86-2.417 15.32-.254 30.027 6.281 44.018 4.893 10.497 13.099 14.066 24.08 10.572 5.639-1.792 11.04-4.345 16.531-6.555Zm708.002-188.137c-3.387 3.659-6.311 7.227-9.668 10.348-3.148 2.927-6.49 5.853-10.219 7.929-10.131 5.629-21.246 3.046-28.72-6.182-5.178-6.391-7.311-14.095-9.564-21.8-1.357-4.644-3.043-9.213-4.923-13.663-1.925-4.569-2.641-9.138-.91-13.826 4.013-10.796 17.858-13.842 25.93-5.047 3.774 4.106 5.848 9.885 8.176 15.141 1.447 3.255 1.894 6.958 2.789 10.452.463.343.94.672 1.403 1.015.94-1.463 1.626-3.225 2.879-4.345 4.864-4.285 9.489-9.064 14.965-12.363 12.994-7.825 26.168-3.031 31.748 11.049 1.626 4.121 2.626 8.496 4.103 13.349 1.537-1.12 3.029-1.941 4.207-3.106 5.282-5.256 10.429-10.646 15.725-15.887 14.904-14.752 26.154-14.394 40.374 1.03 6.06 6.57 12.28 13.006 18.57 19.351 2.18 2.195 4.85 3.883 7.19 5.913 1.05.911 2.79 2.36 2.57 3.076-.37 1.269-1.82 2.583-3.13 3.181-7.66 3.449-15.44 3.18-22.72-.747-7.14-3.852-14.04-8.182-20.71-12.781-2.76-1.912-4.14-1.792-6.33.522-5.221 5.495-10.457 11.05-16.201 15.977-4.267 3.673-9.027 7.048-14.099 9.437-10.399 4.897-20.53 1.911-27.243-7.451-2.253-3.151-3.954-6.704-6.192-10.572Zm270.995 88.261c-4.49 3.24-8.99 6.405-13.41 9.705-6.56 4.913-13.31 9.347-21.72 10.452-17.95 2.359-34.4-12.901-33.32-30.953.3-4.868 2.78-8.302 6.88-9.556 4.13-1.269 8.69.343 11.3 4.405 1.59 2.493 2.64 5.33 4.05 7.943 2.88 5.331 6.96 6.69 12.16 3.584 3.82-2.27 7.18-5.316 10.91-7.779 6.09-4.002 12-8.511 18.56-11.543 11.59-5.36 21.29-1.523 27.14 9.9 1.85 3.599 3.3 7.406 5.19 11.721 1.25-1.105 2.3-2.015 3.34-2.926 4.79-4.196 9.25-8.84 14.41-12.498 11.82-8.347 23.5-5.764 31.34 6.391 3.92 6.107 5.71 6.39 11.24 1.463 2.84-2.523 5.36-5.405 8.22-7.869 7.52-6.45 16.28-6.465 23.46.388 9.29 8.9 15.84 19.561 18.53 32.312.89 4.211-.26 5.331-4.39 4.286-9.11-2.3-16.29-7.705-22.78-14.275-4.21-4.27-4.13-3.927-9.16-.851-5.52 3.374-11.13 6.824-17.11 9.138-8.33 3.21-16.64 1.747-24.08-3.136-2.52-1.657-4.15-1.463-6.4.284-4.82 3.718-9.7 7.421-14.85 10.676-12.11 7.675-22.3 5.704-30.63-6.032-3.22-4.599-5.7-9.736-8.88-15.23Zm-97.53-46.498c3.05-3.404 5.46-6.51 8.28-9.197 5.39-5.122 10.66-10.482 16.62-14.842 7.94-5.809 15.86-4.39 22.41 2.971.63.702 1.23 1.448 1.81 2.195 5.38 6.794 8.25 7.779 16.41 4.629 4.27-1.643 8.28-4.002 12.35-6.122 5.09-2.643 10.25-3.867 15.4-.448s6.46 8.824 5.54 14.364c-.8 4.718-2.78 9.273-4.5 13.797-.85 2.225-2.77 2.643-4.55.941-2.32-2.225-4.44-4.689-7.04-7.436-1.33.701-2.94 1.582-4.56 2.433-7.69 4.047-15.71 6.615-24.56 5.704-10.09-1.03-17.35-6.316-22.59-15.618-2.59 2.538-4.98 4.659-7.12 7.003-4.37 4.823-8.35 9.989-12.92 14.618-9.08 9.198-19.51 9.153-28.48-.164-3.64-3.778-6.71-8.168-9.69-12.498-1.94-2.807-3.59-2.912-6.24-1.03-5.3 3.762-10.53 7.749-16.26 10.765-6.66 3.494-13.59 6.899-20.82 8.81-12.13 3.195-23.54-1.941-28.98-13.2-3.61-7.465-5.97-15.678-7.87-23.801-1.64-7.017 6.08-12.587 12.7-9.197 3.13 1.597 5.73 4.837 7.79 7.854 2.41 3.553 3.97 7.689 5.97 11.527 1.68 3.21 4.34 4.151 7.46 2.329 4.53-2.658 9.01-5.495 13.32-8.496 5.89-4.091 11.34-8.899 17.47-12.557 14.69-8.78 27.17-5.241 35.48 9.75 2.58 4.584 4.59 9.496 7.17 14.916ZM213.709 87.705c4.729 1.329 7.937 2.21 11.144 3.135 2.462.717 5.013 1.254 7.356 2.255 6.117 2.643 9.175 7.854 7.982 14.394-.791 4.36-2.029 8.765-3.85 12.796-6.161 13.588-7.623 27.848-7.131 42.525.298 9.079.403 18.172.224 27.25-.06 2.882-.925 5.928-2.178 8.541-2.015 4.241-4.551 4.405-7.177.583-1.507-2.195-2.849-4.704-3.521-7.257-7.057-27.22-7.325-53.903 6.848-79.317 1.179-2.105 2.134-4.33 3.536-7.226-3.103-.284-5.61-.463-8.116-.732-3.909-.418-7.863-.597-11.697-1.374-10.026-2.045-15.292-10.198-13.293-20.262 1.552-7.794 5.386-14.484 10.518-20.382 5.431-6.226 11.488-11.945 16.695-18.35 4.67-5.749 8.877-11.93 12.607-18.321 1.402-2.39.895-5.913 1.253-8.915-2.73.165-5.595-.119-8.176.598-7.146 1.94-14.307 3.762-19.992 9.287-4.013 3.897-10.1 3.703-14.74.657-4.909-3.21-7.132-9.407-5.505-15.424 1.342-4.972 4.46-8.72 8.653-11.438 12.652-8.182 26.676-11.527 41.521-9.6 15.605 2.03 24.826 16.693 20.589 33.192-1.88 7.317-5.297 14.603-9.534 20.89-5.729 8.495-12.98 15.961-19.485 23.95-4.625 5.763-9.116 11.661-14.531 18.545Zm271.548 545.24c6.714-4.524 13.428-9.018 20.112-13.588 2.462-1.687 4.759-3.598 7.191-5.315 3.461-2.419 7.206-3.225 11.1-1.21 3.924 2.031 5.282 5.615 5.297 9.825 0 .926-.001 1.867.85 3.24 1.611-2.657 3.595-5.151 4.774-7.988 3.178-7.6 8.773-9.899 16.77-9.959 40.655-.299 81.311-1.031 121.966-1.598 6.505-.089 13.01-.194 19.515-.134 2.148.015 4.341.328 6.415.881 3.954 1.045 6.565 4.36 6.803 8.212.224 3.852-1.894 7.466-5.803 8.899a27.089 27.089 0 0 1-7.922 1.583c-17.053.776-34.106 1.717-51.174 1.971-28.183.418-56.381.448-84.579.418-3.953 0-6.564 1.165-8.921 4.27-3.268 4.316-6.878 8.392-10.519 12.394a31.323 31.323 0 0 1-5.848 5.017c-6.415 4.181-13.607 2.404-17.396-4.271-1.313-2.314-2.149-4.897-3.297-7.57-4.282 2.613-8.266 5.48-12.607 7.585-5.819 2.822-11.727 5.853-17.948 7.361-12.04 2.927-19.664-5.494-15.547-17.111 2.969-8.392 7.132-16.365 10.862-24.488.552-1.194 1.492-2.284 2.462-3.195 2.64-2.494 5.773-3.016 9.011-1.404 3.133 1.568 4.521 4.465 3.894 7.809-.537 2.882-1.746 5.674-2.805 8.437-1.149 3.001-2.477 5.942-3.715 8.899.358.343.701.687 1.059 1.03ZM453.73 452.99c1.612-14.827 3.148-29.042 4.7-43.496-.045 0-.94-.134-1.805.015-19.634 3.404-39.253 6.898-58.902 10.198-3.148.523-4.372 2.031-5.401 4.958-3.073 8.675-6.49 17.231-10.101 25.697-1.193 2.807-3.192 5.36-5.162 7.734-2.178 2.613-5.162 3.629-8.414 2.106-3.059-1.449-4.267-4.271-3.775-7.451.567-3.584 1.373-7.197 2.581-10.617 2.298-6.525 4.998-12.885 7.385-19.381.537-1.448.821-3.195.567-4.703-1.089-6.495.478-10.512 6.714-13.035 5.356-2.165 11.055-3.808 16.74-4.764 17.769-2.956 35.642-5.375 53.441-8.212 5.476-.866 10.847-2.404 16.247-3.673 4.7-1.105 9.236-1.314 12.801 2.658 3.551 3.927 2.925 8.347 1.537 13.005-4.028 13.498-7.892 27.056-11.652 40.629-.373 1.374.269 3.091.671 4.584 2.223 8.496 4.61 16.947 6.699 25.488.463 1.896.105 4.046-.119 6.047-.328 2.987-2.044 5.644-4.953 5.54-2.298-.075-5.073-1.643-6.64-3.434-1.805-2.046-2.685-4.987-3.625-7.66-.88-2.509-2.029-3.076-4.774-2.628-17.665 2.852-35.359 5.465-53.054 8.063-2.521.373-5.162.418-7.698.194-5.133-.463-8.624-3.852-9.012-8.377-.403-4.584 2.328-8.6 7.505-9.645 13.144-2.658 26.333-5.047 39.536-7.362 6.237-1.06 12.548-1.732 17.963-2.478Z"/><path d="M384.13 60.678c-4.223 1.732-7.967 3.196-11.653 4.808-21.633 9.392-43.206 18.904-64.884 28.161-4.954 2.12-10.19 3.688-15.427 5.017-2.82.717-5.938.747-8.847.418-4.133-.463-7.176-3.718-7.549-7.42-.418-4.167 1.581-7.019 5.192-8.825 1.327-.657 2.745-1.165 4.132-1.688 9.385-3.553 18.724-7.212 28.153-10.601 25.333-9.123 49.578-20.441 72.419-34.76 9.295-5.824 17.71-3.076 22.32 6.913 4.326 9.377 5.759 19.47 6.758 29.609.582 5.943.985 11.9 1.283 17.858.12 2.27.03 4.659-.522 6.854-1.328 5.3-4.714 8.839-10.19 9.869-5.46 1.031-10.175-.88-13.01-5.509-1.85-3.002-2.894-6.705-3.476-10.228-1.357-8.153-2.208-16.395-3.327-24.578-.283-1.836-.85-3.613-1.372-5.898ZM1548.54 26.23c-3.99 0-7.76.285-11.49-.059-11.64-1.06-18.25-8.989-17.44-20.68.09-1.344.28-2.703.59-4.017 3.67-15.29 20.77-38.045 40.93-38.24 17.39-.178 44.08 10.288 47.47 35.866 1.54 11.647-1.71 22.084-9.32 30.938-6.82 7.93-15.61 12.99-25.74 15.38-12.31 2.912-21.77-3.404-24.27-15.783-.24-1.164-.51-2.33-.73-3.404Zm43.43-19.47c-1-3.046-1.53-6.39-3.11-9.108-5.17-8.84-13.19-14.215-22.84-17.142-1.39-.418-3.59.195-4.82 1.135-4.31 3.27-8.87 6.436-12.35 10.497-3.43 4.017-5.77 9.004-8.34 13.707-1.19 2.21-.05 3.629 2.45 3.808 5.28.388 10.59 1.075 14.78-3.434.9-.956 2.19-1.583 3.4-2.18 4.55-2.21 9.1-1.344 11.28 2.075 2.17 3.39 1.17 7.242-3.09 10.497-3.77 2.882-4.23 6.69-3.58 10.915.39 2.464 1.99 3.33 4.4 3.06 10.49-1.119 21.19-12.99 21.82-23.83Zm13.5 618.674c20.18 0 40.35.06 60.54-.029 9.37-.045 16.26 6.062 16.08 14.543-.18 8.302-7.08 14.125-16.23 14.021-39.82-.448-79.65-.777-119.47-1.255-3.05-.03-6.3-.448-9.08-1.567-5.4-2.195-8.14-7.511-7.52-13.155.62-5.495 4.67-10.004 10.27-11.244 1.45-.313 2.95-.448 4.43-.448 20.32-.029 40.64-.015 60.98-.015v-.851ZM1796.89 35.31c-6.66 2.419-13.31 3.03-19.59-1.21-7.09-4.778-11.34-11.333-10.72-20.157.75-10.348 5.76-18.5 13.94-24.697 10.59-8.048 22.95-11.691 35.87-12.93 12.51-1.195 25.13-1.21 37.71-1.793 3.66-.164 7.31-.313 10.94-.776 8.76-1.12 13.81-5.913 14.74-14.678.42-3.942-.76-8.018-.76-12.035 0-2.24.22-5.42 1.62-6.465 1.82-1.359 5.15-1.852 7.4-1.195 4.69 1.344 6.76 5.57 8.08 9.99 5.31 18.022-5.05 38.583-23.06 44.66-6.07 2.046-12.66 2.867-19.08 3.509-15.62 1.553-31.28 2.434-46.89 4.076-4.62.493-9.12 2.434-13.58 4.017-1.86.657-3.58 1.956-5.11 3.225-8.12 6.72-7.64 14.797 1.22 20.576 2.52 1.642 5.18 3.06 7.77 4.584-.18.433-.34.866-.5 1.299Zm122.84 231.931v4.047c0 37.015-.04 74.03.09 111.031.02 3.299-1.01 4.658-4.03 5.778-4.8 1.792-9.41 4.151-13.98 6.48-9.86 5.032-18.77-.328-17.8-11.333 2.42-27.533 4.97-55.067 8.16-82.511.81-6.944 3.5-13.946 6.6-20.292 3.85-7.899 11.93-12.334 20.96-13.2ZM749.762 125.989c-14.531-.209-24.945-7.376-31.972-19.605-8.743-15.215-9.668-31.655-6.43-48.498 5.102-26.608 18.007-49.14 36.09-68.983 2.059-2.27 3.431-5.182 5.49-7.436 2.522-2.748 5.103-5.704 8.251-7.54 5.207-3.032 11.159.746 10.995 6.778-.074 2.464-.865 5.152-2.103 7.287-3.208 5.495-6.64 10.87-10.34 16.051-14.442 20.203-25.139 42.047-29.645 66.67-2.252 12.288-.626 23.965 4.79 35.208 3.67 7.615 9.608 12.573 17.142 15.977 1.328.597 2.372 1.822 3.551 2.747-1.537.448-3.074.911-4.625 1.329-.358.09-.791.015-1.194.015ZM393.455 589.24c0 5.152-.179 10.318.045 15.454.313 7.093-2.775 12.976-6.774 18.262-1.477 1.956-4.729 3.389-7.28 3.553-8.609.553-17.038-.806-24.991-4.374-13.815-6.197-19.514-18.874-14.442-33.223 5.625-15.887 17.695-25.533 32.585-32.178 1.477-.657 3.013-1.194 4.475-1.896 6.162-2.971 12.309-.538 14.144 6.107 1.074 3.882 1.208 8.018 1.716 12.035.134 1.075.149 2.165.164 3.255.015 4.33 0 8.675 0 13.005h.358Zm-22.693-9.929c-5.744 5.689-10.682 11.019-12.577 18.276-.522 2.001 0 5.465 1.373 6.54 2.999 2.344 6.863 3.584 11.19 5.659.014-10.84.014-20.202.014-30.475Zm-259.791 16.23c-.164-9.75 7.818-13.976 16.277-10.84 8.713 3.225 17.725 5.748 26.781 7.884 5.475 1.284 11.264 1.314 16.918 1.747 6.073.463 10.325 6.898 7.102 11.99-8.414 13.259-17.157 26.324-26.258 39.12-3.685 5.182-6.803 5.211-12.831 3.285-6.952-2.224-11.219-7.167-13.756-13.498-4.132-10.303-7.743-20.814-11.517-31.266-1.164-3.181-2.089-6.436-2.716-8.422ZM1309.64 327.176c0 4.301.26 10.288-.1 16.231-.2 3.315-.84 6.839-2.27 9.78-3.71 7.66-13.41 9.825-19.99 4.181-6.6-5.674-13.98-9.616-21.9-12.961-9.57-4.046-12.07-12.318-6.15-20.755 3.39-4.807 7.52-9.123 11.59-13.393 4.39-4.599 9.12-8.869 13.65-13.319 3.88-3.793 7.43-8.197 13.94-5.719 8.64 3.285 12.53 8.004 12.4 16.037-.08 6.077-.67 12.154-1.17 19.918Zm-987.738-167.77c.806-12.349 2.044-21.995 6.893-30.789 4.909-8.9 13.01-12.468 24.572-10.841 8.012 1.135 15.129 7.481 16.501 16.41 2.656 17.246-1.924 32.775-14.382 45.078-10.041 9.915-24.423 6.75-30.033-6.226-2.178-4.972-2.805-10.616-3.551-13.632Zm-52.173 216.432c.104 19.262-2.895 37.867-11.861 55.128-1.657 3.195-3.82 6.271-6.282 8.884-2.387 2.523-5.669 3.852-9.265 2.329-3.595-1.523-4.833-4.808-4.848-8.287 0-3.479.582-7.003 1.223-10.452 3.133-17.186 6.803-34.298 9.414-51.559 1.805-11.99.478-24.084-1.954-36-.493-2.389-.985-4.808-1.119-7.226-.179-3.33.94-6.227 4.252-7.63 3.476-1.464 6.594-.344 8.698 2.463 1.925 2.569 3.521 5.48 4.729 8.466 5.774 14.051 6.938 28.893 7.013 43.884ZM48.696 186.82c-.537 11.871-.94 22.009-1.492 32.163-.134 2.553-.432 5.166-1.163 7.6-2.238 7.525-10.086 9.631-15.561 3.972-2.268-2.345-4.327-5.495-5.043-8.616-2.089-9.063-4.327-18.246-4.894-27.474-.835-13.498-.328-27.071-.238-40.614.015-2.956.432-5.958 1.089-8.854 1.238-5.48 5.416-9.153 10.637-9.81 5.103-.627 10.31 2.015 12.607 7.077 1.373 3.031 2.372 6.436 2.566 9.721.746 12.169 1.075 24.353 1.492 34.835ZM1843.91 656.448c-2.06 3.165-3.55 7.017-6.31 9.362-6.71 5.689-14.83 8.854-23.53 10.258-8.31 1.329-13.27-3.718-11.86-12.155 2.03-12.154 4.27-24.278 6.43-36.418a3833.3 3833.3 0 0 1 4.32-23.995c.22-1.194.55-2.389.99-3.509 1.88-4.823 5.73-7.361 10.31-6.883 4.48.463 7.76 3.897 8.45 9.033.57 4.166 1.06 8.332 1.45 12.528 1.14 12.587 2.7 25.07 7.9 36.777.6 1.328.66 2.881.97 4.33.3.209.6.433.88.672Zm-613.2-553.2c-16.49-.134-30.29-5.614-40.73-18.321-3.93-4.778-6.75-10.183-7.51-16.44-.71-5.838 1.64-10.78 6.13-13.14 4.45-2.329 9.93-1.448 14.31 2.405 1.42 1.254 2.82 2.583 3.93 4.106 12.8 17.59 30.25 22.248 50.71 18.082 4.7-.956 9.16-3.106 13.75-4.644 1.3-.433 2.69-.612 4.03-.91.05 1.418.45 2.94.08 4.255-2.06 7.286-6.93 12.468-13.1 16.5-9.7 6.345-20.7 7.644-31.6 8.107Zm678.37 7.168c-.3 1.269-.78 3.792-1.45 6.271-5.61 20.516-11.26 41.017-16.84 61.548-.47 1.687-.45 3.494-.85 5.196-1.17 4.927-5.48 7.809-10.33 7.018-4.76-.777-7.9-5.032-7.43-10.064 1.85-19.411 3.72-38.822 5.57-58.248.53-5.659.49-11.423 1.59-16.962 1.63-8.183 8.96-13.14 16.74-12.125 7.79 1.045 13.27 7.779 13 17.366ZM488.074 299.21c.09 25.637-19.052 50.827-43.818 57.352-3.312.866-6.983 1.06-10.399.687-4.148-.448-6.833-3.718-7.236-7.675-.418-4.077 1.268-7.242 4.849-9.064 2.133-1.09 4.55-1.732 6.908-2.284 27.108-6.301 43.027-41.062 20.648-65.938-3.327-3.703-3.73-7.361-1.298-10.198 2.387-2.792 6.042-2.987 10.369-.553 12.637 7.138 19.918 20.875 19.977 37.673ZM1650.87-3.811c.77-13.2 4.43-25.951 12.63-37.075 2.05-2.778 4.79-5.152 7.57-7.242 4.82-3.629 9.74-1.18 14.14.94 3.73 1.792 3.45 5.988 2.99 9.452-1.71 12.617-3.69 25.19-5.49 37.792-.47 3.21-.81 6.45-.99 9.69-.21 3.927 1.31 6.944 4.88 8.96 2.52 1.418 1.49 3.583.3 5.24-2.46 3.45-6.16 4.211-10.12 3.957-14.57-.91-23.97-10.168-25.55-25.115-.2-2.03-.23-4.076-.36-6.6ZM648.638 670.931c-12.055 0-24.125.119-36.18-.075-3.446-.06-7.042-.627-10.28-1.747-3.744-1.299-5.744-4.539-5.729-8.571.03-3.867 1.985-6.943 5.506-8.316 2.969-1.165 6.266-1.986 9.429-2.016 22.349-.194 44.713-.239 67.063-.09 5.117.03 10.249.896 15.322 1.702 2.223.359 4.819 1.001 6.311 2.479 1.85 1.807 3.864 4.703 3.7 6.958-.164 2.255-2.536 5.286-4.7 6.242-3.491 1.537-7.594 2.179-11.443 2.269-12.995.254-26.005.105-38.999.105v1.06ZM1852.76 72.833c-7.57-1.224-13.48-1.94-19.26-3.18-4.9-1.045-8.99-3.703-11.92-7.884-4.35-6.212-4.09-13.424 1.58-18.38 16.97-14.828 45.32-16.948 60.44 7.24 3.65 5.854 1.07 13.47-6.43 16.082-8.33 2.882-17.16 4.36-24.41 6.122Zm-207.89 463.549c.89-4.628 1.31-8.421 2.39-12.02 1.68-5.614 5.17-10.138 11.11-11.273 2.69-.508 6.24.388 8.57 1.911 2.83 1.852 2.76 5.42 1.43 8.526-3.93 9.213-7.94 18.396-11.91 27.579-1.27 2.926-3.46 2.016-4.85.582-2.21-2.284-3.89-5.062-5.92-7.794-12.62 2.329-21.74-4.166-28.42-21.307-4.78-12.274.31-28.579 10.41-36.433 6.52-5.077 15.41-5.017 21.81.149 4.75 3.822 5.81 9.347 2.67 14.036-1.61 2.419-3.29 3.583-5.71.716-1.66-1.956-3.4-1.911-4.92.418-6.06 9.318-5.93 22.398.42 31.536.74 1.045 1.68 1.941 2.92 3.374Zm-9.55-174.37c-1.09 11.602-2.19 23.189-3.28 34.791-.11 1.075-.46 2.314-.06 3.21 2.1 4.778-.33 7.72-3.82 10.348-5.09 3.822-9.91 8.092-15.34 11.362-3.82 2.315-8.34 3.688-12.72 4.734-3.79.911-4.96-2.135-4.97-5.241-.05-7.675.06-15.365.27-23.04.2-7.585.71-15.17.89-22.755.11-4.375 1.54-8.272 5.03-10.632 7.59-5.121 15.44-9.869 23.36-14.483 1.58-.926 3.96-.941 5.91-.732 3.31.359 4.95 2.494 4.75 5.913-.14 2.165-.24 4.315-.35 6.48.11.03.23.03.33.045Zm-28.67 44.78c3.99-2.329 7.48-5.181 11.48-6.48 5.14-1.673 5.64-4.674 5.37-9.318-.43-7.764-.12-15.573-.12-24.323-4.46 2.867-7.86 5.002-11.2 7.242-.6.403-1.18 1.239-1.28 1.941-1.44 10.183-2.81 20.366-4.25 30.938ZM763.817 663.496c-2.924 2.732-5.535 5.435-8.399 7.824-3.014 2.493-6.535 3.255-10.28 1.642-3.282-1.403-5.55-4.061-5.326-7.495.194-2.897 1.358-6.077 3.029-8.481 4.834-7.003 10.264-13.603 15.203-20.531 3.938-5.54 8.549-9.601 15.814-8.586 7.191 1 11.13 5.913 13.1 12.393 1.208 3.972 2.073 8.183 2.252 12.334.314 7.436.15 14.916-.089 22.367-.194 6.391-3.357 10.407-8.445 11.393-5.042.985-10.533-1.747-12.711-7.302-1.865-4.748-2.685-9.899-4.148-15.558Zm29.51-69.687c-2.91 3.867-5.133 6.913-7.46 9.855-1.164 1.478-2.402 2.986-3.894 4.076-2.521 1.837-5.401 1.956-7.967.105-2.536-1.837-3.685-4.659-2.477-7.556 4.491-10.721 8.743-21.606 14.039-31.923 4.461-8.72 15.606-9.691 21.723-1.971 3.432 4.315 5.953 9.75 7.49 15.08 2.566 8.959 4.177 18.202 5.878 27.385 1.253 6.749-2.074 12.259-7.758 13.782-5.669 1.508-11.458-1.508-13.786-7.869-1.805-4.943-2.879-10.154-4.267-15.245-.417-1.523-.82-3.061-1.521-5.719ZM337.941 333.761c-.134 8.272-1.641 14.245-5.475 19.456-6.953 9.452-18.888 11.258-28.377 4.36-10.533-7.66-14.144-23.622-7.967-35.089a148.551 148.551 0 0 0 2.268-4.315c5.49-11.035 18.142-14.275 28.138-7.003 8.265 5.987 11.025 14.707 11.413 22.591Zm-20.812 9.243c3.7-5.137 3.043-13.573-.806-17.067-2.074-1.866-3.76-1.12-4.013 1.299-.612 5.674.88 10.84 4.819 15.768Zm385.878-25.906c-8.937 0-17.888.075-26.825-.045-2.536-.03-5.177-.313-7.579-1.075-3.059-.97-4.894-3.36-5.058-6.704-.179-3.509 1.373-6.256 4.566-7.436 2.879-1.06 6.012-1.613 9.085-1.852 17.292-1.358 34.614-2.463 51.89-3.912 1.791-.149 3.805-1.717 5.073-3.18 2.999-3.479 5.535-7.346 8.385-10.96 1.999-2.538 4.67-4.031 7.832-2.508 2.94 1.418 2.954 4.24 2.313 7.077-2.163 9.556-6.744 18.053-12.667 25.623-1.745 2.225-5.863 3.404-8.966 3.553-9.325.448-18.694.165-28.049.165v1.254Zm488.373-180.209c-24.9-.986-39.91-15.036-44-38.539-.86-5.001.18-9.765 3.85-13.572 2.78-2.882 6.27-4.002 10.03-2.613 3.53 1.314 5.74 3.703 6.56 7.928.72 3.703 3.31 7.018 4.91 10.572 7.37 16.365 20.8 22.636 37.87 22.875 1.08.015 2.2-.134 3.23.09 1.06.238 2.05.851 3.06 1.299-.54 1-.85 2.284-1.65 2.956-7.14 5.958-15.49 8.66-23.86 9.004Zm181.96 474.822c.12 11.692-5.45 19.187-13.82 24.458-8.25 5.196-18.32 1.971-23.44-6.644-6.25-10.527-4.16-25.682 4.76-34.029 5.19-4.868 11.28-7.287 18.25-4.883 7.07 2.434 12.02 7.212 13.43 14.932.43 2.404.65 4.823.82 6.166ZM344.923 223.447c-6.594-.328-12.502-1.493-15.546-7.958-1.954-4.136-.895-4.748 3.387-5.973 14.561-4.166 28.481-9.765 38.268-22.203 1.343-1.717 1.925-4.136 2.522-6.316 1.701-6.122 5.982-9.467 11.383-8.675 5.386.791 8.848 5.704 8.475 12.02-.582 10.019-4.909 18.201-12.354 24.741-10.414 9.123-22.871 13.095-36.135 14.364ZM143.242 30.785c-1.298 4.763-2.282 9.497-3.894 14.006-3.446 9.63-7.191 19.157-10.965 28.654-.344.866-2 2-2.686 1.791-2.999-.88-6.52-1.508-8.668-3.509-5.222-4.867-9.728-10.496-14.621-15.708-6.67-7.092-6.281-14.468 2.223-19.082 9.459-5.136 19.485-9.287 29.466-13.409 4.565-1.881 9.086 2.136 9.145 7.257Zm643.835 118.392c7.818.105 13.965 2.897 17.068 10.617 1.716 4.24 1.895 7.525-1.775 11.631-6.162 6.899-13.174 12.378-20.902 17.172-8.012 4.972-18.262.537-20.351-8.72-3.476-15.425 9.519-30.804 25.96-30.7Zm702.933 250.149c-1.66 16.454-4.93 32.491-9.67 48.199-1.08 3.539-3.03 7.033-5.4 9.87-1.36 1.627-4.67 2.971-6.52 2.448-1.85-.537-3.9-3.419-4.25-5.539-.6-3.509-.3-7.317.31-10.87 2.74-15.873 5.71-31.7 8.67-47.543.34-1.851.8-3.718 1.53-5.45 1.33-3.135 3.75-4.972 7.27-4.837 3.51.134 5.95 2.075 6.83 5.375.76 2.688.85 5.554 1.23 8.347ZM545.978-34.63c-.582 2.628-1.164 7.54-2.76 12.095-3.506 9.96-7.415 19.8-11.413 29.58-.94 2.299-2.581 4.538-4.431 6.21-4.73 4.286-10.653 2.3-12.055-3.956-.463-2.06-.612-4.435-.06-6.42 3.998-14.5 8.012-28.983 12.473-43.347 1.79-5.763 6.131-8.197 10.697-7.331 4.878.91 7.654 4.912 7.549 13.17ZM1880.99 635.782c0 .268.07.567-.02.806-3.19 10.109-6.89 20.008-14.31 27.892-2.88 3.046-7.95 1.478-8.84-2.688-.99-4.613-1.54-9.362-1.91-14.08-.81-9.855-1.42-19.725-2.02-29.594-.22-3.763.81-7.063 4.57-8.75 3.7-1.658 6.99-.433 9.74 2.075 7.16 6.54 10.95 14.947 12.79 24.339ZM435.903 490.617c2.238.299 4.819.03 6.698 1.045 1.895 1.031 4.014 3.196 4.312 5.137.269 1.717-1.387 4.569-3.014 5.524-2.581 1.524-5.788 2.21-8.832 2.658-17.023 2.494-34.061 4.838-51.099 7.167-2.134.284-4.357.538-6.46.224-3.834-.567-6.43-2.777-6.982-6.838-.493-3.718 1.7-7.063 5.55-8.451 1.268-.448 2.61-.807 3.938-.941 18.59-1.867 37.195-3.688 55.889-5.525Zm-264.552-71.612c-6.102-.851-11.667-1.254-17.038-2.493-6.922-1.598-12.8-5.166-16.441-11.602-3.043-5.375-2.447-11.094 1.343-14.573 3.566-3.27 8.713-3.524 13.815.164 10.205 7.391 21.932 11.035 33.808 14.319 2.268.628 4.789.344 7.191.553 1 .089 1.984.343 2.984.508-.269 1.09-.284 2.344-.851 3.255-2.864 4.688-7.355 7.182-12.502 8.302-4.192.91-8.534 1.105-12.309 1.567Zm827.76-343.903c-.433 4.3-2.596 7.018-6.043 7.122-3.297.105-5.803-2.3-6.206-6.226-2.208-22.218-4.401-44.451-6.505-66.684-.194-1.986-.403-4.375.492-5.943 1.075-1.867 3.238-4.032 5.133-4.226 1.88-.194 4.207 1.628 5.953 3.046.865.702 1.148 2.434 1.268 3.733 2.014 23.07 3.953 46.124 5.908 69.178ZM578.174 204.768c4.52.134 7.31 1.836 8.698 5.33 1.447 3.658.686 7.107-2.387 9.556-2.522 2.001-5.341 3.733-8.251 5.137-10.966 5.3-22.021 10.452-33.061 15.588-2.686 1.254-5.491 2.912-8.31 3.076-2.298.135-5.342-1.12-6.893-2.822-2.104-2.299-1.194-5.36.91-7.734.537-.598 1.149-1.195 1.835-1.598 14.502-8.451 29.003-16.903 43.55-25.264 1.358-.777 3.043-1.001 3.909-1.269Zm77.268-105.656c0-6.226-.089-12.453.045-18.664.045-1.986.373-4.091 1.089-5.928 1.223-3.165 3.73-4.927 7.221-4.927 3.476 0 6.042 1.672 7.236 4.882.731 1.986 1.089 4.196 1.164 6.331.417 11.9.731 23.816 1.029 35.717a20.995 20.995 0 0 1-.388 4.434c-.925 4.719-4.535 7.794-9.011 7.809-4.625.015-8.743-3.225-9.041-8.167-.418-7.137-.105-14.319-.105-21.487h.761ZM1865.32 268.227c-1.51 3.509-3.01 7.033-4.52 10.542-2.98-1.597-6.1-3.001-8.92-4.853-1.78-1.164-2.94-3.284-4.73-4.434-3.34-2.135-6.75-4.584-10.48-5.629-7.6-2.151-11.45-6.093-10.71-12.453.73-6.227 6.55-10.662 13.85-10.542 13.17.224 24.69 12.826 25.51 27.369ZM84.191 167.961c-.701 2.225-1.03 6.689-2.492 7.093-2.685.746-6.683.014-8.981-1.673-9.355-6.883-16.262-15.902-19.694-27.115-1.73-5.63.493-10.602 4.864-13.036 4.342-2.419 9.638-1.523 13.815 2.389.985.926 1.94 1.927 2.656 3.061 5.52 8.78 7.728 18.65 9.832 29.281Zm423.861 298.198c-.209 2.434.119 5.077-.761 7.227-.865 2.121-2.715 4.763-4.595 5.226-1.522.359-3.983-1.956-5.55-3.568-1.149-1.18-1.567-3.106-2.238-4.734-3.476-8.511-6.952-17.037-10.369-25.577-.701-1.747-1.387-3.554-1.716-5.406-.88-5.002 1.88-9.78 6.401-11.422 4.655-1.688 9.593.104 12.278 4.524.627 1.03 1.224 2.165 1.463 3.33 2.014 10.064 3.953 20.142 5.908 30.221-.299.06-.552.12-.821.179Zm-8.161-188.749c.105-9.467-5.878-17.754-14.293-20.934-1.014-.389-2.073-.628-3.073-1.031-2.775-1.135-4.431-3.15-4.252-6.241.194-3.225 2.059-5.495 5.147-5.958 2.596-.388 5.535-.478 7.952.374 13.816 4.837 22.081 14.752 24.841 29.026.567 2.897-.104 6.227-.955 9.153-1.163 4.017-4.849 6.331-8.235 5.973-3.715-.388-6.416-3.404-6.983-7.839-.149-1.224-.149-2.449-.149-2.523Zm688.429 339.245c-.98 3.509-1.39 6.39-2.61 8.869-1.36 2.777-3.88 4.031-7.16 2.986-5.66-1.792-11.34-3.509-17.01-5.271-1.16-.358-2.34-.701-3.46-1.179-6.22-2.673-7.7-7.361-2.79-12.02 5.25-4.987 11.31-9.258 17.42-13.185 3.94-2.523 8.81-.672 10.49 3.674 2.12 5.36 3.54 11.004 5.12 16.126ZM292.542 441.104c-7.684.105-14.009-5.808-14.517-12.901-.507-6.898 10.101-17.096 15.591-17.037 7.385.09 14.353 6.376 14.487 13.693.179 9.033-6.624 16.126-15.561 16.245Zm-87.415-48.169c-11.324-.358-24.244-13.05-24.707-24.01-.209-4.733 1.955-8.332 5.804-9.661 3.968-1.374 8.504.06 10.682 4.36a398.943 398.943 0 0 1 12.025 26.056c1.611 3.897-2.014 3.031-3.804 3.255ZM1570.38 75.088c2.1 2.135 3.98 3.584 5.26 5.42 3.05 4.36 5.73 8.989 8.75 13.379 2.17 3.165 1.31 6.122-2.53 6.435-7.04.568-13.9 1.404-20.26 4.913-1.08.597-3.92-.075-4.61-1.075-.95-1.404-1.38-3.972-.76-5.525 2.24-5.48 5.05-10.736 7.61-16.081.52-1.09.78-2.39 1.55-3.24 1.27-1.374 2.85-2.464 4.99-4.226Zm-752.079 82.436c-1.85-1.508-4.312-2.553-4.998-4.3-.686-1.777.134-4.315.761-6.376.313-1 1.611-1.792 2.626-2.449 6.385-4.106 12.756-8.227 19.261-12.139 1.805-1.075 3.998-1.822 6.087-2.031 4.849-.478 7.847 3.778 6.147 8.347-.135.373-.299.791-.552 1.075-7.818 8.795-18.277 13.095-29.332 17.873Zm354.039 494.504c-3.49 8.092-6.56 15.827-10.17 23.308-1.45 2.986-4.57 4.345-7.97 3.001-3.43-1.344-4.49-4.42-3.7-7.69 1.59-6.659 3.47-13.274 5.53-19.799.59-1.822 1.91-4.061 3.49-4.763 2.35-1.031 5.66-1.852 7.75-.926s3.16 4.121 5.07 6.869ZM108.151 117.254c-10.04-1.672-17.56-5.479-22.946-12.512-1.298-1.688-1.238-5.211-.492-7.466.97-2.956 4.162-3.972 7.116-3.33 7.937 1.732 15.203 5.137 20.559 11.348 1.656 1.926 2.805 5.868 1.94 7.989-.851 2.075-4.521 3.001-6.177 3.971Zm912.969-55.142c-.33 4.584-.52 9.183-1.05 13.737-.4 3.464-1.94 6.286-5.99 6.435-3.41.12-6.03-2.359-6.3-6.585-.27-4.3.03-8.645.19-12.96.17-4.719.54-9.437.65-14.17.07-3.285 1.44-5.555 4.66-6.197 3.29-.657 5.93 1.09 6.54 4.077 1.03 5.106 1.25 10.377 1.8 15.573-.17.03-.34.06-.5.09Zm884.96 540.745c-.73 5.973-1.13 12.02-2.39 17.888-.48 2.255-2.52 4.943-4.58 5.928-2.92 1.419-4.46-1.642-5.73-3.837-2.3-3.972-4.71-7.899-6.55-12.08-1.91-4.36-.94-7.167 3.02-9.795 2.8-1.851 5.8-3.464 8.84-4.882 3.9-1.777 6.55 1.045 7.39 6.778Zm-190.72 28.237c5.02.045 8.58 1.388 10.54 5.39 1.88 3.852.94 7.376-1.69 10.572-.59.731-1.16 1.493-1.76 2.224-3.62 4.405-8.26 5.869-12.93 4.092-4.49-1.717-7.27-6.227-6.97-11.304.3-5.181 3.48-8.973 8.8-10.362 1.55-.403 3.19-.493 4.01-.612ZM1445.34 53.496c-6.27-.06-11.61-5.017-11.01-11.079.82-8.332 3.46-12.826 9.62-12.707 7.43.135 13.5 5.435 13.47 11.916-.03 6.316-5.76 11.945-12.08 11.87ZM339.419 278.44c-.105 6.406-3.477 10.243-8.922 10.183-5.535-.06-10.921-5.554-10.832-11.034.075-4.42 5.67-9.287 10.638-9.273 5.46.03 9.22 4.211 9.116 10.124Zm1543.011-20.77c-1.82 3.658-3.46 7.421-5.52 10.93-1.19 2.031-3.38 2.315-4.37-.149-2.12-5.346-4.31-10.751-5.52-16.335-.88-4.047 1.99-7.287 5.39-7.869 3.18-.538 6.25 1.478 7.58 5.39.82 2.404 1.18 4.972 1.73 7.466.25.194.49.373.71.567Zm-478.48 375.469c-.1 5.197-4.07 9.168-8.99 9.034-4.81-.134-8.42-4.136-8.28-9.213.13-5.256 4.02-9.168 8.98-9.018 4.82.134 8.4 4.106 8.29 9.197Zm-1150.276-128.5c-4.969 0-8.46-3.449-8.475-8.347-.015-4.838 3.641-8.63 8.325-8.6 4.849.029 9.176 4.315 9.131 9.033-.045 4.584-3.819 7.914-8.981 7.914ZM1330.56 300.404c4.66.12 8.24 4.062 8.03 8.884-.2 4.808-3.99 8.556-8.58 8.482-4.64-.075-8.18-4.002-8.01-8.9.19-4.838 3.97-8.585 8.56-8.466Zm-681.443-60.293c.03-4.703 3.327-8.242 7.669-8.227 4.61.015 8.534 3.733 8.489 8.048-.045 4.479-3.849 8.227-8.325 8.197-4.536-.029-7.848-3.419-7.833-8.018Zm218.285-125.515c5.491-.06 9.146 2.463 9.25 6.42.12 4.002-4.684 8.317-9.384 8.422-4.491.104-8.027-3.046-8.146-7.257-.119-4.241 3.476-7.526 8.28-7.585Zm-129.53 497.847c.015 4.555-3.999 8.616-8.46 8.586-3.744-.015-6.311-2.434-6.251-5.913.06-4.584 4.058-8.899 8.266-8.944 3.729-.03 6.43 2.583 6.445 6.271ZM1888.88 19.587c-.08 4.18-2.79 7.032-6.62 6.943-4.32-.09-7.9-3.659-7.79-7.765.09-3.867 3.22-6.853 7.13-6.808 4.18.074 7.35 3.404 7.28 7.63ZM837.952 492.096c-3.775-.105-7.535-3.106-7.55-6.033-.015-4.181 3.193-7.555 7.027-7.406 4.029.149 7.072 3.195 6.998 6.973-.06 3.643-2.999 6.57-6.475 6.466Zm1066.788 88.827c-.06 4.016-3.18 7.331-6.78 7.182-3.37-.135-5.98-2.927-6.01-6.451-.03-3.942 3.06-7.182 6.79-7.122 3.42.06 6.04 2.867 6 6.391ZM223.077 369.418c3.386.104 5.773 2.673 5.46 5.659-.328 3.151-2.223 4.853-5.386 4.868-3.013.015-5.386-2.598-5.072-5.6.343-3.165 2.297-4.703 4.998-4.927ZM1449.99 175.293c1.66.239 4.11.433 6.45.985 3.49.837 6.28 2.688 7.03 6.511.77 4.001-1.17 6.987-4.36 8.899-2.98 1.792-6.22 3.568-9.56 4.255-6.75 1.404-13.61 2.315-20.47 2.972-28.59 2.747-57.2 5.33-85.8 7.943-1.75.164-3.53.254-5.27.105-3.4-.284-5.92-2.046-6.95-5.361-1.08-3.479-.03-6.704 2.92-8.63 2.55-1.658 5.55-3.091 8.52-3.524 25.6-3.688 51.22-7.197 76.85-10.631 9.94-1.299 19.9-2.3 30.64-3.524Zm32.11 24.547c1.07-8.317 2.04-16.648 3.28-24.935.36-2.36 1.2-4.764 2.31-6.884 1.88-3.554 5.05-5.256 9.12-4.659 3.88.568 6.7 2.957 7.21 6.705.47 3.509.62 7.51-.63 10.706-2.92 7.525-6.64 14.767-10.26 22.009-1.42 2.837-3.03 6.077-7.03 5.704-2.46-.209-3.85-3.823-4-8.646Zm21.14-3.643c2.19-6.749 3.85-13.319 6.48-19.486 1.99-4.688 6.81-6.241 10.83-4.629 4 1.598 6.65 6.107 4.82 10.766-2.45 6.212-5.87 12.124-9.42 17.798-1.64 2.613-4.8 5.809-8 3.913-2.28-1.344-3.05-5.241-4.71-8.362ZM820.87 47.285c3.73.239 6.595.358 9.429.627 1.119.104 2.193.582 3.297.896-.507 1.15-.686 2.792-1.566 3.36-4.282 2.732-8.459 6.091-13.204 7.525-9.504 2.882-17.605-4.405-16.232-14.26 1.775-12.811 9.369-21.62 20.618-27.37 1.403-.716 4.148-.612 5.207.33 1.254 1.09 2.089 3.642 1.776 5.315-.597 3.135-2.119 6.107-3.327 9.108-1.761 4.36-3.611 8.72-5.998 14.469Z"/></g><defs><clipPath id="a"><path fill="#fff" transform="translate(0 -642.508)" d="M0 0h1920v1335H0z"/></clipPath></defs></svg>
