  <svg
    width="365"
    height="295"
    viewBox="0 0 365 295"
    fill="none"
    xmlns="http://www.w3.org/2000/svg"
  >
    <path
      d="M228.997 230.083C230.019 226.273 233.942 224.011 237.753 225.032C241.563 226.054 243.825 229.977 242.804 233.788L203.971 378.704C202.949 382.514 199.033 384.776 195.222 383.755C191.411 382.734 189.15 378.817 190.171 375.006L228.997 230.083ZM124.198 124.342C125.219 120.533 129.137 118.272 132.947 119.291L236.462 147.031L237.16 147.254C240.544 148.54 242.471 152.207 241.513 155.78C240.556 159.351 237.056 161.562 233.483 160.985L232.764 160.831L212.057 155.278L155.663 365.762C154.641 369.571 150.725 371.834 146.914 370.813C143.104 369.792 140.844 365.874 141.863 362.064L198.257 151.587L163.749 142.336L107.363 352.813L107.132 353.51C105.847 356.896 102.18 358.821 98.6067 357.864C94.7975 356.841 92.5345 352.925 93.5555 349.115L149.949 138.638L129.249 133.091C125.44 132.069 123.177 128.152 124.198 124.342ZM80.6344 190.329C81.6566 186.519 85.5729 184.257 89.3833 185.278C93.1931 186.299 95.454 190.217 94.4345 194.027L55.6015 338.95C54.5791 342.759 50.6629 345.022 46.8525 344.001C43.0422 342.98 40.7819 339.062 41.8013 335.252L80.6344 190.329ZM64.2876 43.2714C70.0779 43.3528 73.746 44.601 79.225 46.0691L319.675 110.151C324.436 111.427 328.96 112.376 334.019 115.203C339.688 118.37 345.89 123.139 351.224 129.728C362.105 143.172 368.86 163.571 361.354 191.585C353.582 220.59 331.679 234.933 308.965 236.753C286.723 238.535 263.182 228.308 251.797 208.085C244.185 194.564 246.414 177.444 254.26 164.689C262.255 151.692 276.908 141.887 295.402 144.394C314.329 146.959 323.458 161.455 324.614 175.455C325.703 188.638 319.706 204.56 305.093 208.741L304.382 208.909C300.817 209.549 297.278 207.393 296.261 203.836C295.176 200.043 297.372 196.089 301.165 195.004L302.163 194.648C307.125 192.542 311.116 185.603 310.375 176.627C309.65 167.87 304.43 160.033 293.484 158.55C281.704 156.953 272.103 162.962 266.435 172.175C260.617 181.633 259.774 193.121 264.251 201.074C272.48 215.691 290.22 223.923 307.821 222.513C324.952 221.141 341.458 210.637 347.554 187.887C353.914 164.148 348.031 148.491 340.117 138.715C336.053 133.695 331.314 130.06 327.049 127.677C323.803 125.864 320.142 125.059 316.577 124.119L74.9622 59.7158C71.2197 58.7467 68.0725 57.616 64.0853 57.5599C59.2008 57.4915 53.2792 58.2722 47.2502 60.5879C35.5085 65.0984 22.585 75.7169 16.2242 99.4559C10.1297 122.204 19.1757 139.552 33.3244 149.305C47.863 159.326 67.3439 161.066 81.7786 152.522C89.6306 147.872 94.6461 137.505 94.3369 126.407C94.0354 115.594 88.7232 105.59 77.725 101.081C67.5034 96.8929 59.0581 101.067 54.0526 108.289C48.9238 115.689 48.9132 123.692 52.1549 127.998L52.8456 128.807L53.327 129.359C55.5687 132.202 55.3351 136.338 52.6782 138.91C50.019 141.481 45.8731 141.58 43.1059 139.245L42.5757 138.742L41.6199 137.703C32.1831 126.773 35.0107 110.687 42.3106 100.154C50.3117 88.608 65.466 80.6184 83.139 87.8604C100.408 94.937 108.193 110.756 108.618 126.01C109.035 140.978 102.408 156.918 89.0554 164.822C69.0847 176.643 43.5822 173.733 25.2104 161.068C6.45007 148.135 -5.34668 124.762 2.424 95.7581C9.9308 67.7424 25.9833 53.4497 42.1292 47.2482C50.0433 44.2085 57.7952 43.1801 64.2876 43.2714ZM52.5456 5.29644C53.503 1.72357 57.0086 -0.487021 60.5829 0.0917197L61.3015 0.24521L354.587 78.8323L355.278 79.0556C358.664 80.3405 360.596 84.0074 359.638 87.5813C358.68 91.1542 355.175 93.3654 351.601 92.786L350.889 92.6325L57.6038 14.0454L56.9061 13.8221C53.5203 12.537 51.5887 8.86975 52.5456 5.29644Z"
      fill="#26262A"
    />
  </svg>
