<svg width="32" height="32" viewBox="0 0 32 32" fill="none" xmlns="http://www.w3.org/2000/svg">
<path fill-rule="evenodd" clip-rule="evenodd" d="M14.6667 20C18.3486 20 21.3333 17.0152 21.3333 13.3333C21.3333 9.65144 18.3486 6.66667 14.6667 6.66667C10.9848 6.66667 7.99999 9.65144 7.99999 13.3333C7.99999 17.0152 10.9848 20 14.6667 20ZM14.6667 22.6667C19.8213 22.6667 24 18.488 24 13.3333C24 8.17868 19.8213 4 14.6667 4C9.512 4 5.33333 8.17868 5.33333 13.3333C5.33333 18.488 9.512 22.6667 14.6667 22.6667Z" fill="#707070"/>
<path d="M19.6095 21.4951C19.0888 20.9744 19.0888 20.1302 19.6095 19.6095C20.1302 19.0888 20.9744 19.0888 21.4951 19.6095L25.7685 23.8829C26.2892 24.4036 26.2892 25.2479 25.7685 25.7686C25.2478 26.2892 24.4036 26.2892 23.8829 25.7686L19.6095 21.4951Z" fill="#707070"/>
</svg>
