<svg xmlns="http://www.w3.org/2000/svg" width="32" height="32" viewBox="0 0 32 32" fill="none">
  <g clip-path="url(#clip0_1388_524)">
  <path d="M15.75 0.5C7.18956 0.5 0.25 7.43956 0.25 16C0.25 24.5604 7.18956 31.5 15.75 31.5C24.3104 31.5 31.25 24.5604 31.25 16C31.25 7.43956 24.3104 0.5 15.75 0.5ZM22.9345 11.0413C22.7013 13.4922 21.6919 19.4399 21.1782 22.185C20.961 23.3465 20.5331 23.736 20.119 23.7741C19.219 23.8569 18.5354 23.1793 17.6636 22.6077C16.2994 21.7135 15.5287 21.1568 14.2044 20.2842C12.6741 19.2757 13.6662 18.7217 14.5383 17.8154C14.7666 17.5784 18.7325 13.9711 18.8092 13.6438C18.8188 13.6029 18.828 13.4501 18.7371 13.3698C18.6462 13.2896 18.5128 13.3168 18.4162 13.3386C18.2794 13.3696 16.1001 14.8101 11.8782 17.6599C11.2596 18.0847 10.6994 18.2916 10.1973 18.2808C9.64388 18.2689 8.57931 17.9679 7.78788 17.7106C6.81719 17.3951 6.04569 17.2283 6.11287 16.6924C6.14787 16.4133 6.53225 16.1279 7.266 15.8362C11.7846 13.8675 14.7977 12.5696 16.3053 11.9424C20.6098 10.152 21.5042 9.841 22.0872 9.83062C22.2154 9.8285 22.5021 9.86025 22.6878 10.0109C22.8113 10.1183 22.8901 10.2681 22.9084 10.4307C22.9399 10.6326 22.9486 10.8374 22.9345 11.0413Z" fill="#404040"/>
  </g>
  <defs>
  <clipPath id="clip0_1388_524">
  <rect width="31" height="32" fill="white" transform="translate(0.25)"/>
  </clipPath>
  </defs>
  </svg>