<svg xmlns="http://www.w3.org/2000/svg" width="33" height="32" viewBox="0 0 33 32" fill="none">
  <path d="M3.35875 3.10875C1.25 5.2175 1.25 8.6119 1.25 15.4V16.6C1.25 23.3881 1.25 26.7825 3.35875 28.8912C5.4675 31 8.8619 31 15.65 31H16.85C23.6381 31 27.0325 31 29.1412 28.8912C31.25 26.7825 31.25 23.3881 31.25 16.6V15.4C31.25 8.6119 31.25 5.2175 29.1412 3.10875C27.0325 1 23.6381 1 16.85 1H15.65C8.8619 1 5.4675 1 3.35875 3.10875ZM6.3125 10.125H9.73752C9.85002 15.85 12.375 18.275 14.375 18.775V10.125H17.6V15.0625C19.575 14.85 21.65 12.6 22.35 10.125H25.575C25.3111 11.4086 24.7853 12.6239 24.0303 13.695C23.2754 14.7661 22.3077 15.6699 21.1875 16.35C22.4382 16.9709 23.5429 17.8502 24.4285 18.9298C25.3141 20.0094 25.9605 21.2646 26.325 22.6125H22.775C22.4479 21.4417 21.7822 20.3935 20.8615 19.5996C19.9409 18.8057 18.8062 18.3014 17.6 18.15V22.6125H17.2125C10.375 22.6125 6.475 17.925 6.3125 10.125Z" fill="#404040"/>
  </svg>